<svg width="400" height="400" viewBox="0 0 400 400" fill="none" xmlns="http://www.w3.org/2000/svg">
<g clip-path="url(#clip0_850_1606)">
<path d="M44.6571 215.196C59.1261 215.196 66.9304 206.248 66.9304 195.824C66.9304 176.192 39.2203 178.277 39.2203 169.416C39.2203 166.897 41.2372 164.986 45.8849 164.986C50.7954 164.986 56.2324 167.418 59.7399 170.458L66.2289 158.036C60.7921 153.259 53.6016 151 46.5864 151C33.4327 151 23.8745 158.558 23.8745 170.024C23.8745 189.483 51.5846 188.093 51.5846 196.866C51.5846 199.299 49.3924 201.21 45.0956 201.21C39.4834 201.21 33.5204 197.822 30.0128 194.782L21.9453 206.335C27.9082 212.242 36.5019 215.196 44.6571 215.196ZM105.958 215.196C125.372 215.196 138.664 200.949 138.664 182.707C138.664 164.899 125.372 151 105.958 151C86.5449 151 73.2526 164.899 73.2526 182.707C73.2526 200.949 86.5449 215.196 105.958 215.196ZM105.958 201.439C96.0634 201.439 89.0584 193.438 89.0584 182.827C89.0584 172.651 96.0634 164.998 105.958 164.998C115.853 164.998 122.858 172.651 122.858 182.827C122.858 193.438 115.853 201.439 105.958 201.439ZM177.857 215.196C189.34 215.196 197.579 210.418 203.102 204.771L195.213 193.652C190.918 197.909 184.782 201.297 178.558 201.297C166.462 201.297 160.852 191.828 160.852 182.62C160.852 173.673 166.023 164.899 178.558 164.899C184.168 164.899 190.216 167.766 194.249 171.24L201.349 159.774C195.213 153.78 186.272 151 177.857 151C158.485 151 144.986 164.899 144.986 182.968C144.986 201.384 157.696 215.196 177.857 215.196ZM226.202 214.23V152.207H210.883V214.23H226.202ZM248.268 214.23L252.029 201.218H271.535L275.383 214.23H291.128L269.873 152.207H253.779L232.525 214.23H248.268ZM268.026 188.89H255.625L259.231 176.854C260.374 172.958 261.782 166.204 261.782 166.204H261.958C261.958 166.204 263.365 172.958 264.508 176.854L268.026 188.89ZM338.3 214.23V201.218H312.758V152.207H297.45V214.23H338.3Z" fill="white"/>
<path d="M34.2432 248.018V227.803H42.1278V222.436H20V227.803H27.8846V248.018H34.2432ZM62.0673 248.018V242.651H51.6442V237.821H59.5612V232.454H51.6442V227.803H61.5588V222.436H45.289V248.018H62.0673ZM78.358 248.5C83.1145 248.5 86.5277 246.525 88.8152 244.19L85.5472 239.592C83.7683 241.352 81.2265 242.753 78.6485 242.753C73.6377 242.753 71.314 238.837 71.314 235.029C71.314 231.329 73.4562 227.701 78.6485 227.701C80.9723 227.701 83.4777 228.887 85.148 230.323L88.089 225.582C85.5472 223.103 81.8438 221.953 78.358 221.953C70.3338 221.953 64.742 227.701 64.742 235.173C64.742 242.789 70.0068 248.5 78.358 248.5ZM98.3245 248.018V238H107.756V248.018H114.104V222.436H107.756V232.669H98.3245V222.436H91.9762V248.018H98.3245ZM140.608 248.5C145.364 248.5 148.777 246.525 151.065 244.19L147.797 239.592C146.018 241.352 143.476 242.753 140.898 242.753C135.887 242.753 133.564 238.837 133.564 235.029C133.564 231.329 135.706 227.701 140.898 227.701C143.222 227.701 145.728 228.887 147.397 230.323L150.339 225.582C147.797 223.103 144.093 221.953 140.608 221.953C132.583 221.953 126.992 227.701 126.992 235.173C126.992 242.789 132.257 248.5 140.608 248.5ZM160.574 248.018V238H170.006V248.018H176.354V222.436H170.006V232.669H160.574V222.436H154.226V248.018H160.574ZM185.318 248.018L186.879 242.651H194.972L196.569 248.018H203.102L194.283 222.436H187.605L178.785 248.018H185.318ZM193.618 237.64H188.512L189.997 232.647C190.468 231.03 191.047 228.228 191.047 228.228H191.12C191.12 228.228 191.699 231.03 192.17 232.647L193.618 237.64ZM222.555 248.018V242.651H212.064V222.436H205.777V248.018H222.555ZM242.494 248.018V242.651H232.003V222.436H225.716V248.018H242.494ZM262.433 248.018V242.651H252.011V237.821H259.928V232.454H252.011V227.803H261.925V222.436H245.655V248.018H262.433ZM272.908 248.018V236.104C272.908 234.493 272.617 231.739 272.617 231.739H272.69C272.69 231.739 273.85 234.422 274.865 236.104L282.075 248.018H288.452V222.436H282.11V234.386C282.11 235.996 282.4 238.751 282.4 238.751H282.328C282.328 238.751 281.17 236.068 280.155 234.386L272.98 222.436H266.567V248.018H272.908ZM305.033 248.5C307.565 248.5 310.275 247.638 311.83 246.273H311.902C311.902 246.273 311.87 246.771 311.867 247.289V248.069H317.145V233.557H307.89V238.909H311.54V240.885C310.06 242.034 308.177 242.753 306.297 242.753C302.285 242.753 298.888 239.843 298.888 234.958C298.888 231.15 301.092 227.701 306.515 227.701C308.72 227.701 311.325 228.743 312.807 230.072L315.842 225.366C313.095 222.959 309.408 221.953 305.9 221.953C298.02 221.953 292.342 227.701 292.342 235.173C292.342 243.579 298.418 248.5 305.033 248.5ZM338.543 248.018V242.651H328.12V237.821H336.038V232.454H328.12V227.803H338.035V222.436H321.765V248.018H338.543Z" fill="white"/>
<path d="M349.849 247.828H356.071V235.178C359.886 235.547 361.669 247.378 370.919 247.378C377.221 247.378 380.001 242.179 380.001 237.389C380.001 232.108 376.974 228.792 373.614 227.073L370.006 232.395C371.664 233.254 373.159 234.851 373.159 236.734C373.159 238.249 372.286 239.886 370.214 239.886C365.941 239.886 363.991 227.237 353.044 227.237C352.046 227.237 351.011 227.359 349.849 227.564V247.828Z" fill="white"/>
<path d="M349.484 171.997H355.707V159.347C359.522 159.716 361.304 171.546 370.554 171.546C376.859 171.546 379.636 166.347 379.636 161.558C379.636 156.277 376.609 152.961 373.249 151.242L369.641 156.563C371.301 157.423 372.794 159.02 372.794 160.903C372.794 162.417 371.924 164.055 369.849 164.055C365.577 164.055 363.629 151.405 352.679 151.405C351.684 151.405 350.647 151.528 349.484 151.733V171.997ZM348.999 187.08C348.999 195.367 355.826 198.061 364.259 198.061C372.689 198.061 379.394 195.367 379.394 187.08C379.394 178.794 372.689 176.099 364.259 176.099C355.826 176.099 348.999 178.794 348.999 187.08ZM355.686 186.839C355.686 184.06 359.482 183.235 364.237 183.219L364.379 183.219C369.159 183.219 372.949 184.032 372.949 186.839C372.949 189.646 369.159 190.459 364.379 190.459C359.559 190.459 355.686 189.646 355.686 186.839ZM349.484 222.436H355.707V209.787C359.522 210.155 361.304 221.986 370.554 221.986C376.859 221.986 379.636 216.787 379.636 211.997C379.636 206.716 376.609 203.401 373.249 201.681L369.641 207.003C371.301 207.862 372.794 209.459 372.794 211.342C372.794 212.857 371.924 214.494 369.849 214.494C365.577 214.494 363.629 201.845 352.679 201.845C351.684 201.845 350.647 201.968 349.484 202.172V222.436Z" fill="white"/>
</g>
<defs>
<clipPath id="clip0_850_1606">
<rect width="360" height="97.5" fill="white" transform="translate(20 151)"/>
</clipPath>
</defs>
</svg>
