<svg width="64" height="64" viewBox="0 0 64 64" fill="none" xmlns="http://www.w3.org/2000/svg">
<rect width="64" height="64" rx="32" fill="#00AFF0" fill-opacity="0.1"/>
<path d="M32 20C38.6 20 44 25.4 44 32C44 38.6 38.6 44 32 44C25.4 44 20 38.6 20 32C20 25.4 25.4 20 32 20ZM32 22.4C26.696 22.4 22.4 26.696 22.4 32C22.4 37.304 26.696 41.6 32 41.6C37.304 41.6 41.6 37.304 41.6 32C41.6 26.696 37.304 22.4 32 22.4ZM32 23.6C36.644 23.6 40.4 27.356 40.4 32C40.4 36.644 36.644 40.4 32 40.4C27.356 40.4 23.6 36.644 23.6 32C23.6 29.684 24.536 27.584 26.06 26.06L32 32V23.6Z" fill="#00AFF0"/>
</svg>
