<svg width="64" height="64" viewBox="0 0 64 64" fill="none" xmlns="http://www.w3.org/2000/svg">
<rect width="64" height="64" rx="32" fill="#00AFF0" fill-opacity="0.1"/>
<path fill-rule="evenodd" clip-rule="evenodd" d="M24.5 22.4H39.5C40.057 22.4 40.5911 22.6212 40.9849 23.0151C41.3787 23.4089 41.6 23.943 41.6 24.5V35.6H39.8C37.472 35.6 35.6 37.472 35.6 39.8V41.6H24.5C23.943 41.6 23.4089 41.3787 23.0151 40.9849C22.6212 40.5911 22.4 40.057 22.4 39.5V24.5C22.4 23.943 22.6212 23.4089 23.0151 23.0151C23.4089 22.6212 23.943 22.4 24.5 22.4ZM34.364 25.796C34.544 25.748 34.736 25.724 34.928 25.724C35.864 25.724 36.692 26.36 36.944 27.26C36.992 27.464 37.016 27.668 37.016 27.872L33.14 28.928C33.032 28.76 32.948 28.58 32.888 28.4C32.6 27.26 33.236 26.108 34.364 25.796ZM26.84 27.86C27.02 27.8 27.2 27.8 27.404 27.8C28.34 27.8 29.168 28.4 29.42 29.336C29.468 29.528 29.492 29.732 29.492 29.936L25.616 30.992C25.6011 30.9655 25.5862 30.9394 25.5714 30.9137C25.4795 30.7531 25.395 30.6055 25.364 30.44C25.064 29.324 25.724 28.172 26.84 27.86ZM26.708 34.124L37.664 31.112C37.232 33.5 35.48 35.444 33.14 36.092C30.8 36.728 28.292 35.96 26.708 34.124Z" fill="#00AFF0"/>
<path fill-rule="evenodd" clip-rule="evenodd" d="M20 24.2C20 21.872 21.872 20 24.2 20H39.8C42.128 20 44 21.872 44 24.2V36.8L36.8 44H24.2C21.872 44 20 42.128 20 39.8V24.2ZM39.5 22.4H24.5C23.943 22.4 23.4089 22.6212 23.0151 23.0151C22.6212 23.4089 22.4 23.943 22.4 24.5V39.5C22.4 40.057 22.6212 40.5911 23.0151 40.9849C23.4089 41.3787 23.943 41.6 24.5 41.6H35.6V39.8C35.6 37.472 37.472 35.6 39.8 35.6H41.6V24.5C41.6 23.943 41.3787 23.4089 40.9849 23.0151C40.5911 22.6212 40.057 22.4 39.5 22.4Z" fill="#00AFF0"/>
</svg>
