<svg width="64" height="64" viewBox="0 0 64 64" fill="none" xmlns="http://www.w3.org/2000/svg">
<rect width="64" height="64" rx="32" fill="#00AFF0" fill-opacity="0.1"/>
<path d="M44 30.8C44 29.468 43.0182 28.4 41.8182 28.4H34.9236L35.9709 22.916C35.9927 22.796 36.0036 22.664 36.0036 22.532C36.0036 22.04 35.8182 21.584 35.5236 21.26L34.3673 20L27.1891 27.896C26.7855 28.34 26.5455 28.94 26.5455 29.6V41.6C26.5455 42.2365 26.7753 42.847 27.1845 43.2971C27.5937 43.7471 28.1486 44 28.7273 44H38.5455C39.4509 44 40.2255 43.4 40.5527 42.536L43.8473 34.076C43.9455 33.8 44 33.512 44 33.2V30.8ZM20 44H24.3636V29.6H20V44Z" fill="#00AFF0"/>
</svg>
