<svg width="20" height="20" viewBox="0 0 20 20" fill="none" xmlns="http://www.w3.org/2000/svg">
<path fill-rule="evenodd" clip-rule="evenodd" d="M9.07802 0.25C8.16144 0.25 7.37921 0.91265 7.22853 1.81675L7.04987 2.88873C7.02971 3.00964 6.93554 3.1498 6.75323 3.23747C6.40917 3.40292 6.07979 3.5938 5.76752 3.8076C5.60103 3.92159 5.43271 3.9332 5.31781 3.89015L4.29863 3.50833C3.44031 3.18678 2.47533 3.53289 2.01704 4.32666L1.09506 5.92358C0.63677 6.71736 0.819525 7.72611 1.52716 8.30866L2.36768 9.00061C2.46231 9.07851 2.53642 9.22982 2.52132 9.43072C2.50718 9.61876 2.5 9.80861 2.5 10C2.5 10.1915 2.50719 10.3814 2.52133 10.5695C2.53644 10.7704 2.46233 10.9217 2.3677 10.9996L1.52716 11.6916C0.819525 12.2741 0.63677 13.2829 1.09506 14.0767L2.01704 15.6736C2.47532 16.4674 3.44031 16.8135 4.29863 16.4919L5.31804 16.11C5.43293 16.067 5.60125 16.0786 5.76773 16.1925C6.07994 16.4063 6.40925 16.5971 6.75323 16.7625C6.93554 16.8502 7.02971 16.9904 7.04987 17.1113L7.22853 18.1832C7.37921 19.0874 8.16144 19.75 9.07802 19.75H10.922C11.8386 19.75 12.6208 19.0874 12.7715 18.1832L12.9501 17.1113C12.9703 16.9904 13.0645 16.8502 13.2468 16.7625C13.5908 16.5971 13.9202 16.4062 14.2325 16.1924C14.399 16.0784 14.5673 16.0668 14.6822 16.1098L15.7014 16.4917C16.5597 16.8132 17.5247 16.4671 17.983 15.6733L18.9049 14.0764C19.3632 13.2826 19.1805 12.2739 18.4728 11.6913L17.6323 10.9994C17.5377 10.9215 17.4636 10.7702 17.4787 10.5693C17.4928 10.3812 17.5 10.1914 17.5 10C17.5 9.80854 17.4928 9.61862 17.4787 9.43051C17.4636 9.2296 17.5377 9.07828 17.6323 9.00038L18.4728 8.30842C19.1805 7.72587 19.3632 6.71711 18.9049 5.92334L17.983 4.32642C17.5247 3.53264 16.5597 3.18654 15.7014 3.50809L14.682 3.89C14.5671 3.93304 14.3987 3.92144 14.2323 3.80746C13.9201 3.59371 13.5907 3.40289 13.2468 3.23747C13.0645 3.1498 12.9703 3.00964 12.9501 2.88873L12.7715 1.81675C12.6208 0.912648 11.8386 0.25 10.922 0.25H9.07802ZM10.0001 13.75C12.0712 13.75 13.7501 12.0711 13.7501 10C13.7501 7.92893 12.0712 6.25 10.0001 6.25C7.92905 6.25 6.25012 7.92893 6.25012 10C6.25012 12.0711 7.92905 13.75 10.0001 13.75Z" fill="white"/>
</svg>
