<svg width="40" height="40" viewBox="0 0 40 40" fill="none" xmlns="http://www.w3.org/2000/svg">
<path d="M21.5714 12.4326C21.5714 11.1588 19.8788 10.5209 18.8888 11.4216L14.1745 15.7108H12.1523C10.9567 15.7108 9.72396 16.3441 9.36594 17.5266C9.12725 18.3149 9 19.1445 9 20C9 20.8555 9.12725 21.6851 9.36594 22.4734C9.72396 23.6559 10.9567 24.2892 12.1523 24.2892H14.1745L18.8888 28.5784C19.8788 29.4791 21.5714 28.8412 21.5714 27.5674V12.4326Z" fill="white"/>
<path d="M26.0556 17.3499C25.7487 17.0707 25.2513 17.0707 24.9444 17.3499C24.6376 17.6291 24.6376 18.0817 24.9444 18.3609L26.746 20L24.9444 21.6391C24.6376 21.9183 24.6376 22.3709 24.9444 22.6501C25.2513 22.9292 25.7487 22.9292 26.0556 22.6501L27.8571 21.011L29.6587 22.6501C29.9655 22.9292 30.463 22.9292 30.7699 22.6501C31.0767 22.3709 31.0767 21.9183 30.7699 21.6391L28.9683 20L30.7699 18.3609C31.0767 18.0817 31.0767 17.6291 30.7699 17.3499C30.463 17.0707 29.9655 17.0707 29.6587 17.3499L27.8571 18.989L26.0556 17.3499Z" fill="white"/>
</svg>
