<svg width="32" height="32" viewBox="0 0 32 32" fill="none" xmlns="http://www.w3.org/2000/svg">
<path d="M13.4355 11.5945V4.08301C13.4355 3.14723 12.6769 2.38867 11.7412 2.38867C10.8054 2.38867 10.0469 3.14723 10.0469 4.08301V14.9267" stroke="#5B626C" stroke-width="1.2" stroke-miterlimit="10" stroke-linecap="round" stroke-linejoin="round"/>
<path d="M16.8262 12.4461V11.8223C16.8262 10.8865 16.0676 10.1279 15.1318 10.1279C14.1961 10.1279 13.4375 10.8865 13.4375 11.8223V12.4461" stroke="#5B626C" stroke-width="1.2" stroke-miterlimit="10" stroke-linecap="round" stroke-linejoin="round"/>
<path d="M20.2168 13.0064V12.4434C20.2168 11.5076 19.4582 10.749 18.5225 10.749C17.5867 10.749 16.8281 11.5076 16.8281 12.4434V13.0064" stroke="#5B626C" stroke-width="1.2" stroke-miterlimit="10" stroke-linecap="round" stroke-linejoin="round"/>
<path d="M10.0441 16.9035V12.6676C8.1753 12.6676 6.66286 14.1874 6.67192 16.0562L6.68097 17.9249C6.68953 20.2539 7.99219 22.3851 10.0611 23.4549V26.787C10.0611 28.3466 11.3254 29.6109 12.885 29.6109H18.8546C20.4142 29.6109 21.6785 28.3466 21.6785 26.787V22.8939C22.9098 21.8133 23.6157 20.2546 23.6157 18.6164V13.0083C23.6157 12.0725 22.8572 11.314 21.9214 11.314C20.9856 11.314 20.2271 12.0726 20.2271 13.0084V13.5756" stroke="#5B626C" stroke-width="1.2" stroke-miterlimit="10" stroke-linecap="round" stroke-linejoin="round"/>
<path d="M25.1993 4.18701H16.9141" stroke="#5B626C" stroke-width="1.2" stroke-miterlimit="10" stroke-linecap="round" stroke-linejoin="round"/>
<path d="M23.5859 5.89013L25.3367 4.18685L23.5859 2.50146" stroke="#5B626C" stroke-width="1.2" stroke-miterlimit="10" stroke-linecap="round" stroke-linejoin="round"/>
<path d="M18.5555 2.50146L16.8047 4.20474L18.5555 5.89013" stroke="#5B626C" stroke-width="1.2" stroke-miterlimit="10" stroke-linecap="round" stroke-linejoin="round"/>
</svg>
