<svg width="19" height="19" viewBox="0 0 19 19" fill="none" xmlns="http://www.w3.org/2000/svg">
<rect x="0.882812" y="0.894775" width="17.2368" height="17.2368" rx="8.61842" fill="white"/>
<rect x="0.882812" y="0.894775" width="17.2368" height="17.2368" rx="8.61842" fill="#4D4D4D"/>
<path d="M11.4676 5.55785C11.4676 4.85021 10.4674 4.49582 9.88246 4.9962L7.09675 7.37908H5.90181C5.19527 7.37908 4.46686 7.73092 4.2553 8.38786C4.11426 8.82582 4.03906 9.2867 4.03906 9.76196C4.03906 10.2372 4.11426 10.6981 4.2553 11.1361C4.46686 11.793 5.19527 12.1448 5.90181 12.1448H7.09675L9.88246 14.5277C10.4674 15.0281 11.4676 14.6737 11.4676 13.9661V5.55785Z" fill="white"/>
<path d="M14.1174 8.28969C13.936 8.13459 13.6421 8.13459 13.4608 8.28969C13.2794 8.44479 13.2794 8.69625 13.4608 8.85134L14.5253 9.76196L13.4608 10.6726C13.2794 10.8277 13.2794 11.0791 13.4608 11.2342C13.6421 11.3893 13.936 11.3893 14.1174 11.2342L15.1819 10.3236L16.2465 11.2342C16.4278 11.3893 16.7218 11.3893 16.9031 11.2342C17.0844 11.0791 17.0844 10.8277 16.9031 10.6726L15.8385 9.76196L16.9031 8.85134C17.0844 8.69625 17.0844 8.44479 16.9031 8.28969C16.7218 8.13459 16.4278 8.13459 16.2465 8.28969L15.1819 9.20031L14.1174 8.28969Z" fill="white"/>
</svg>
