<svg width="20" height="20" viewBox="0 0 20 20" fill="none" xmlns="http://www.w3.org/2000/svg">
<g clip-path="url(#clip0_63_19)">
<path d="M10 19.9915C9.41379 19.9915 8.83621 19.8462 8.31897 19.5812L1.93966 16.265C0.741379 15.641 0 14.4274 0 13.0855V6.90598C0 5.5641 0.741379 4.35043 1.93966 3.7265L8.31897 0.410256C8.83621 0.145299 9.41379 0 10 0C10.5862 0 11.1638 0.145299 11.681 0.410256L18.0603 3.7265C19.2586 4.35043 20 5.5641 20 6.90598V13.0855C20 14.4274 19.2586 15.641 18.0603 16.265L11.681 19.5812C11.1638 19.8547 10.5862 19.9915 10 19.9915Z" fill="#F5E76E"/>
<path d="M8.6417 1.01665C9.49514 0.572208 10.5124 0.572208 11.3658 1.01665L17.7451 4.33289C18.7107 4.83716 19.3141 5.82862 19.3141 6.90554V13.085C19.3141 14.162 18.7107 15.1534 17.7451 15.6577L11.3658 18.9739C10.5124 19.4184 9.49514 19.4184 8.6417 18.9739L2.26239 15.6577C1.29687 15.1534 0.69342 14.162 0.69342 13.085V6.90554C0.69342 5.82862 1.29687 4.83716 2.26239 4.33289L8.6417 1.01665Z" fill="#0E1726"/>
<path d="M6.62103 4.69197L10.5521 6.72616C10.8538 6.88 11.3624 6.78599 11.4486 6.54667L12.5176 3.72616C12.5348 3.67487 12.5348 3.62359 12.509 3.58086C12.4831 3.52958 12.44 3.49539 12.371 3.4612C12.3107 3.42701 12.2245 3.40137 12.1383 3.39282C12.0521 3.38428 11.9572 3.38428 11.871 3.39282L6.87103 4.17915C6.7762 4.19624 6.68999 4.22188 6.62103 4.25607C6.55206 4.29026 6.50034 4.34154 6.47447 4.39282C6.44861 4.44411 6.44861 4.49539 6.47447 4.54667C6.50034 4.6065 6.55206 4.64923 6.62103 4.69197Z" fill="#F5E76E"/>
<path d="M16.1148 11.3412C16.3562 11.2899 16.5545 11.3327 16.6924 11.4694C16.8303 11.5976 16.8993 11.8113 16.8993 12.119C16.8993 12.5463 16.7441 12.9651 16.451 13.3583C16.1579 13.7515 15.7269 14.1019 15.1665 14.4096L13.1665 15.5207C13.0458 15.5891 12.9424 15.5292 12.9424 15.3925L12.9769 11.0079C12.9769 10.8626 13.0803 10.6916 13.201 10.6233L15.0803 9.58052C15.6062 9.28992 16.0027 9.17881 16.2872 9.25573C16.5717 9.32411 16.7096 9.55488 16.701 9.94804C16.701 10.1874 16.6493 10.4267 16.5458 10.666C16.4424 10.9139 16.3045 11.1361 16.1148 11.3412ZM14.0372 11.0164C13.9941 11.0421 13.9596 11.0933 13.9596 11.1446L13.951 12.1275C13.951 12.1788 13.9855 12.1959 14.0286 12.1703L14.9424 11.666C15.1924 11.5292 15.3734 11.3754 15.5027 11.2044C15.632 11.0335 15.6924 10.854 15.701 10.666C15.701 10.478 15.6407 10.3668 15.5113 10.3412C15.382 10.3156 15.201 10.3668 14.951 10.5036L14.0372 11.0164ZM15.0976 13.5976C15.3562 13.4523 15.5545 13.2899 15.6924 13.119C15.8303 12.948 15.8993 12.76 15.8993 12.5549C15.8993 12.1532 15.6407 12.0933 15.1062 12.3839L14.02 12.9908C13.9769 13.0164 13.9424 13.0677 13.9424 13.119L13.9338 14.1617C13.9338 14.213 13.9682 14.2301 14.0113 14.2044L15.0976 13.5976Z" fill="#F5E76E"/>
<path d="M3.89107 11.3412C3.64969 11.2899 3.45141 11.3327 3.31348 11.4694C3.17555 11.5976 3.10658 11.8113 3.10658 12.119C3.10658 12.5463 3.26176 12.9651 3.55486 13.3583C3.84796 13.7515 4.279 14.1019 4.83934 14.4096L6.83934 15.5207C6.96003 15.5891 7.06348 15.5292 7.06348 15.3925L7.029 11.0079C7.029 10.8626 6.92555 10.6916 6.80486 10.6233L4.92555 9.58052C4.39969 9.28992 4.00313 9.17881 3.71865 9.25573C3.43417 9.32411 3.29624 9.55488 3.30486 9.94804C3.30486 10.1874 3.35658 10.4267 3.46003 10.666C3.56348 10.9139 3.70141 11.1361 3.89107 11.3412ZM5.96865 11.0164C6.01176 11.0421 6.04624 11.0933 6.04624 11.1446L6.05486 12.1275C6.05486 12.1788 6.02038 12.1959 5.97727 12.1703L5.06348 11.666C4.81348 11.5292 4.63244 11.3754 4.50313 11.2044C4.37382 11.0335 4.31348 10.854 4.30486 10.666C4.30486 10.478 4.3652 10.3668 4.49451 10.3412C4.62382 10.3156 4.80486 10.3668 5.05486 10.5036L5.96865 11.0164ZM4.90831 13.5976C4.64969 13.4523 4.45141 13.2899 4.31348 13.119C4.17555 12.948 4.10658 12.76 4.10658 12.5549C4.10658 12.1532 4.3652 12.0933 4.89969 12.3839L5.98589 12.9908C6.029 13.0164 6.06348 13.0677 6.06348 13.119L6.0721 14.1617C6.0721 14.213 6.03762 14.2301 5.99451 14.2044L4.90831 13.5976Z" fill="#F5E76E"/>
</g>
<defs>
<clipPath id="clip0_63_19">
<rect width="20" height="20" fill="white"/>
</clipPath>
</defs>
</svg>
