<svg width="64" height="64" viewBox="0 0 64 64" fill="none" xmlns="http://www.w3.org/2000/svg">
<rect width="64" height="64" rx="32" fill="#00AFF0" fill-opacity="0.1"/>
<path d="M41.1429 31.4286H39.4286V26.8571C39.4286 25.5886 38.4 24.5714 37.1429 24.5714H32.5714V22.8571C32.5714 22.0994 32.2704 21.3727 31.7346 20.8368C31.1988 20.301 30.472 20 29.7143 20C28.9565 20 28.2298 20.301 27.694 20.8368C27.1582 21.3727 26.8571 22.0994 26.8571 22.8571V24.5714H22.2857C21.6795 24.5714 21.0981 24.8122 20.6695 25.2409C20.2408 25.6696 20 26.2509 20 26.8571V31.2H21.7143C23.4286 31.2 24.8 32.5714 24.8 34.2857C24.8 36 23.4286 37.3714 21.7143 37.3714H20V41.7143C20 42.3205 20.2408 42.9019 20.6695 43.3305C21.0981 43.7592 21.6795 44 22.2857 44H26.6286V42.2857C26.6286 40.5714 28 39.2 29.7143 39.2C31.4286 39.2 32.8 40.5714 32.8 42.2857V44H37.1429C37.7491 44 38.3304 43.7592 38.7591 43.3305C39.1878 42.9019 39.4286 42.3205 39.4286 41.7143V37.1429H41.1429C41.9006 37.1429 42.6273 36.8418 43.1632 36.306C43.699 35.7702 44 35.0435 44 34.2857C44 33.528 43.699 32.8012 43.1632 32.2654C42.6273 31.7296 41.9006 31.4286 41.1429 31.4286Z" fill="#00AFF0"/>
</svg>
