<svg width="64" height="64" viewBox="0 0 64 64" fill="none" xmlns="http://www.w3.org/2000/svg">
<rect width="64" height="64" rx="32" fill="#00AFF0" fill-opacity="0.1"/>
<path d="M25.1818 23H38.8182C40.9881 23 43.0692 23.9482 44.6036 25.636C46.138 27.3239 47 29.6131 47 32C47 34.3869 46.138 36.6761 44.6036 38.364C43.0692 40.0518 40.9881 41 38.8182 41C36.3909 41 34.2227 39.845 32.7227 38H31.2773C29.7773 39.845 27.6091 41 25.1818 41C23.0119 41 20.9308 40.0518 19.3964 38.364C17.862 36.6761 17 34.3869 17 32C17 29.6131 17.862 27.3239 19.3964 25.636C20.9308 23.9482 23.0119 23 25.1818 23ZM23.8182 27.5V30.5H21.0909V33.5H23.8182V36.5H26.5455V33.5H29.2727V30.5H26.5455V27.5H23.8182ZM36.7727 32C36.2302 32 35.71 32.2371 35.3264 32.659C34.9428 33.081 34.7273 33.6533 34.7273 34.25C34.7273 34.8467 34.9428 35.419 35.3264 35.841C35.71 36.2629 36.2302 36.5 36.7727 36.5C37.3152 36.5 37.8355 36.2629 38.2191 35.841C38.6027 35.419 38.8182 34.8467 38.8182 34.25C38.8182 33.6533 38.6027 33.081 38.2191 32.659C37.8355 32.2371 37.3152 32 36.7727 32ZM40.8636 27.5C40.3211 27.5 39.8009 27.7371 39.4173 28.159C39.0337 28.581 38.8182 29.1533 38.8182 29.75C38.8182 30.3467 39.0337 30.919 39.4173 31.341C39.8009 31.7629 40.3211 32 40.8636 32C41.4061 32 41.9264 31.7629 42.31 31.341C42.6936 30.919 42.9091 30.3467 42.9091 29.75C42.9091 29.1533 42.6936 28.581 42.31 28.159C41.9264 27.7371 41.4061 27.5 40.8636 27.5Z" fill="#00AFF0"/>
</svg>
