<svg width="64" height="64" viewBox="0 0 64 64" fill="none" xmlns="http://www.w3.org/2000/svg">
<rect width="64" height="64" rx="32" fill="#00AFF0" fill-opacity="0.1"/>
<path d="M41.8182 20H22.1818C21.6032 20 21.0482 20.2529 20.639 20.7029C20.2299 21.153 20 21.7635 20 22.4V41.6C20 42.2365 20.2299 42.847 20.639 43.2971C21.0482 43.7471 21.6032 44 22.1818 44H41.8182C42.3968 44 42.9518 43.7471 43.361 43.2971C43.7701 42.847 44 42.2365 44 41.6V22.4C44 21.7635 43.7701 21.153 43.361 20.7029C42.9518 20.2529 42.3968 20 41.8182 20ZM30.9091 38.6L29.2727 40.4L24.3636 35L29.2727 29.6L30.9091 31.4L27.6364 35L30.9091 38.6ZM34.7273 40.4L33.0909 38.6L36.3636 35L33.0909 31.4L34.7273 29.6L39.6364 35L34.7273 40.4ZM41.8182 26H22.1818V22.4H41.8182V26Z" fill="#00AFF0"/>
</svg>
