<svg width="64" height="64" viewBox="0 0 64 64" fill="none" xmlns="http://www.w3.org/2000/svg">
<rect width="64" height="64" rx="32" fill="#00AFF0" fill-opacity="0.1"/>
<path d="M32 20C32.5787 20 33.1336 20.2529 33.5428 20.7029C33.9519 21.153 34.1818 21.7635 34.1818 22.4C34.1818 23.288 33.7455 24.068 33.0909 24.476V26H34.1818C36.2071 26 38.1494 26.885 39.5815 28.4603C41.0136 30.0356 41.8182 32.1722 41.8182 34.4H42.9091C43.1984 34.4 43.4759 34.5264 43.6805 34.7515C43.8851 34.9765 44 35.2817 44 35.6V39.2C44 39.5183 43.8851 39.8235 43.6805 40.0485C43.4759 40.2736 43.1984 40.4 42.9091 40.4H41.8182V41.6C41.8182 42.2365 41.5883 42.847 41.1791 43.2971C40.77 43.7471 40.215 44 39.6364 44H24.3636C23.785 44 23.23 43.7471 22.8209 43.2971C22.4117 42.847 22.1818 42.2365 22.1818 41.6V40.4H21.0909C20.8016 40.4 20.5241 40.2736 20.3195 40.0485C20.1149 39.8235 20 39.5183 20 39.2V35.6C20 35.2817 20.1149 34.9765 20.3195 34.7515C20.5241 34.5264 20.8016 34.4 21.0909 34.4H22.1818C22.1818 32.1722 22.9864 30.0356 24.4185 28.4603C25.8506 26.885 27.7929 26 29.8182 26H30.9091V24.476C30.2545 24.068 29.8182 23.288 29.8182 22.4C29.8182 21.7635 30.0481 21.153 30.4572 20.7029C30.8664 20.2529 31.4213 20 32 20ZM27.0909 33.2C26.3676 33.2 25.6739 33.5161 25.1624 34.0787C24.651 34.6413 24.3636 35.4044 24.3636 36.2C24.3636 36.9956 24.651 37.7587 25.1624 38.3213C25.6739 38.8839 26.3676 39.2 27.0909 39.2C27.8142 39.2 28.5079 38.8839 29.0194 38.3213C29.5308 37.7587 29.8182 36.9956 29.8182 36.2C29.8182 35.4044 29.5308 34.6413 29.0194 34.0787C28.5079 33.5161 27.8142 33.2 27.0909 33.2ZM36.9091 33.2C36.1858 33.2 35.4921 33.5161 34.9806 34.0787C34.4692 34.6413 34.1818 35.4044 34.1818 36.2C34.1818 36.9956 34.4692 37.7587 34.9806 38.3213C35.4921 38.8839 36.1858 39.2 36.9091 39.2C37.6324 39.2 38.3261 38.8839 38.8376 38.3213C39.349 37.7587 39.6364 36.9956 39.6364 36.2C39.6364 35.4044 39.349 34.6413 38.8376 34.0787C38.3261 33.5161 37.6324 33.2 36.9091 33.2Z" fill="#00AFF0"/>
</svg>
