<svg width="32" height="32" viewBox="0 0 32 32" fill="none" xmlns="http://www.w3.org/2000/svg">
<path fill-rule="evenodd" clip-rule="evenodd" d="M15.4961 2.13622C15.8075 1.95459 16.1925 1.95459 16.5039 2.13622L19.5039 3.88622C19.9809 4.1645 20.1421 4.77682 19.8638 5.25387C19.5855 5.73092 18.9732 5.89206 18.4961 5.61378L16 4.1577L13.5039 5.61378C13.0268 5.89206 12.4145 5.73092 12.1362 5.25387C11.8579 4.77682 12.0191 4.1645 12.4961 3.88622L15.4961 2.13622ZM7.86378 7.74613C8.14206 8.22318 7.98092 8.8355 7.50387 9.11378L5.98464 10L7.50387 10.8862C7.98092 11.1645 8.14206 11.7768 7.86378 12.2539C7.5855 12.7309 6.97318 12.8921 6.49613 12.6138L5 11.741V13C5 13.5523 4.55228 14 4 14C3.44772 14 3 13.5523 3 13V10C3 9.64433 3.18891 9.31543 3.49613 9.13622L6.49613 7.38622C6.97318 7.10794 7.5855 7.26908 7.86378 7.74613ZM24.1362 7.74613C24.4145 7.26908 25.0268 7.10794 25.5039 7.38622L28.5039 9.13622C28.8111 9.31543 29 9.64433 29 10V13C29 13.5523 28.5523 14 28 14C27.4477 14 27 13.5523 27 13V11.741L25.5039 12.6138C25.0268 12.8921 24.4145 12.7309 24.1362 12.2539C23.8579 11.7768 24.0191 11.1645 24.4961 10.8862L26.0154 10L24.4961 9.11378C24.0191 8.8355 23.8579 8.22318 24.1362 7.74613ZM12.1362 14.7461C12.4145 14.2691 13.0268 14.1079 13.5039 14.3862L16 15.8423L18.4961 14.3862C18.9732 14.1079 19.5855 14.2691 19.8638 14.7461C20.1421 15.2232 19.9809 15.8355 19.5039 16.1138L17 17.5744V20C17 20.5523 16.5523 21 16 21C15.4477 21 15 20.5523 15 20V17.5744L12.4961 16.1138C12.0191 15.8355 11.8579 15.2232 12.1362 14.7461ZM4 18C4.55228 18 5 18.4477 5 19V21.4256L7.50387 22.8862C7.98092 23.1645 8.14206 23.7768 7.86378 24.2539C7.5855 24.7309 6.97318 24.8921 6.49613 24.6138L3.49613 22.8638C3.18891 22.6846 3 22.3557 3 22V19C3 18.4477 3.44772 18 4 18ZM28 18C28.5523 18 29 18.4477 29 19V22C29 22.3557 28.8111 22.6846 28.5039 22.8638L25.5039 24.6138C25.0268 24.8921 24.4145 24.7309 24.1362 24.2539C23.8579 23.7768 24.0191 23.1645 24.4961 22.8862L27 21.4256V19C27 18.4477 27.4477 18 28 18ZM16 25C16.5523 25 17 25.4477 17 26V27.259L18.4961 26.3862C18.9732 26.1079 19.5855 26.2691 19.8638 26.7461C20.1421 27.2232 19.9809 27.8355 19.5039 28.1138L16.5039 29.8638C16.1925 30.0454 15.8075 30.0454 15.4961 29.8638L12.4961 28.1138C12.0191 27.8355 11.8579 27.2232 12.1362 26.7461C12.4145 26.2691 13.0268 26.1079 13.5039 26.3862L15 27.259V26C15 25.4477 15.4477 25 16 25Z" fill="white"/>
</svg>
