<svg width="366" height="369" viewBox="0 0 366 369" fill="none" xmlns="http://www.w3.org/2000/svg">
<path d="M183 368.735C172.272 368.735 161.703 366.056 152.237 361.168L35.4957 300.002C13.5672 288.493 0 266.108 0 241.357V127.378C0 102.628 13.5672 80.2421 35.4957 68.7339L152.237 7.56704C161.703 2.67999 172.272 0 183 0C193.728 0 204.297 2.67999 213.763 7.56704L330.504 68.7339C352.433 80.2421 366 102.628 366 127.378V241.357C366 266.108 352.433 288.493 330.504 300.002L213.763 361.168C204.297 366.213 193.728 368.735 183 368.735Z" fill="#00AFF0"/>
<path d="M34.395 215.974C47.4092 224.65 45.1294 262.306 43.0764 269.919C41.0234 277.533 72.8159 204.795 86.5537 170.707L67.8876 263.454M94.5548 191.874C94.5548 191.874 100.859 192.599 98.0389 202.453C95.3532 211.838 72.7611 222.682 54.9264 203.144C37.0917 183.606 60.9165 132.887 100.528 150.007C148.425 170.707 109.047 274.677 32.8457 248.509C28.4843 247.011 24.6801 242.054 26.7351 237.044C29.3039 230.782 56.6369 214.348 88.8787 231.872C121.121 249.397 117.748 259.974 100.528 265.862C109.691 262.143 148.114 261.833 131.072 283.524C153.072 282.284 155.551 285.383 158.03 298.397" stroke="white" stroke-width="6.19723" stroke-linecap="round"/>
<path d="M115.238 81.4455L191.404 122.037C197.25 125.107 207.105 123.231 208.775 118.456L229.487 62.1728C229.821 61.1495 229.821 60.1262 229.32 59.2734C228.819 58.2501 227.984 57.5679 226.648 56.8857C225.478 56.2034 223.808 55.6918 222.138 55.5212C220.467 55.3507 218.63 55.3507 216.96 55.5212L120.082 71.2122C118.244 71.5533 116.574 72.065 115.238 72.7472C113.902 73.4294 112.899 74.4527 112.398 75.4761C111.897 76.4994 111.897 77.5227 112.398 78.546C112.899 79.7399 113.902 80.5927 115.238 81.4455Z" fill="white"/>
</svg>
