<svg width="205" height="93" fill="none" xmlns="http://www.w3.org/2000/svg"><path opacity=".5" d="M12.72 89a.252.252 0 0 1-.17-.06.252.252 0 0 1-.06-.17v-.32a.49.49 0 0 1 .05-.2.759.759 0 0 1 .2-.24l2.12-2.12c.34-.287.607-.53.8-.73.2-.207.34-.403.42-.59.087-.187.13-.38.13-.58 0-.38-.107-.68-.32-.9-.213-.227-.53-.34-.95-.34a1.34 1.34 0 0 0-.69.17 1.193 1.193 0 0 0-.46.45c-.107.187-.177.4-.21.64-.013.087-.05.147-.11.18a.286.286 0 0 1-.15.05h-.52a.227.227 0 0 1-.15-.05.192.192 0 0 1-.06-.14c.007-.253.06-.507.16-.76.1-.26.247-.493.44-.7.2-.207.443-.373.73-.5.293-.133.633-.2 1.02-.2.527 0 .957.097 1.29.29.34.187.59.437.75.75.16.313.24.657.24 1.03 0 .293-.05.563-.15.81-.1.24-.247.477-.44.71-.187.227-.42.46-.7.7l-1.92 1.95h3.12c.073 0 .13.02.17.06.047.04.07.097.07.17v.41a.231.231 0 0 1-.07.17c-.04.04-.097.06-.17.06h-4.41zm8.32.1c-.46 0-.85-.07-1.17-.21a2.094 2.094 0 0 1-.77-.6 2.494 2.494 0 0 1-.44-.87 4.721 4.721 0 0 1-.15-1.04c-.008-.18-.014-.37-.02-.57v-.6c.006-.207.013-.403.02-.59.006-.367.056-.713.15-1.04.1-.333.246-.623.44-.87.2-.253.46-.45.78-.59.32-.147.706-.22 1.16-.22.46 0 .846.073 1.16.22.32.14.58.337.78.59.2.247.346.537.44.87.1.327.152.673.16 1.04.006.187.01.383.01.59.006.2.006.4 0 .6 0 .2-.004.39-.01.57-.007.367-.06.713-.16 1.04-.094.327-.24.617-.44.87a1.99 1.99 0 0 1-.77.6c-.314.14-.704.21-1.17.21zm0-.85c.52 0 .902-.17 1.15-.51.252-.347.383-.817.39-1.41.013-.193.02-.38.02-.56v-.55c0-.187-.008-.37-.02-.55-.007-.58-.137-1.043-.39-1.39-.248-.353-.63-.53-1.15-.53-.514 0-.898.177-1.15.53-.248.347-.378.81-.39 1.39 0 .18-.004.363-.01.55v.55c.006.18.01.367.01.56.012.593.146 1.063.4 1.41.253.34.633.51 1.14.51zm3.897.75a.252.252 0 0 1-.17-.06.252.252 0 0 1-.06-.17v-.32a.49.49 0 0 1 .05-.2.759.759 0 0 1 .2-.24l2.12-2.12c.34-.287.606-.53.8-.73.2-.207.34-.403.42-.59.087-.187.13-.38.13-.58 0-.38-.107-.68-.32-.9-.213-.227-.53-.34-.95-.34a1.34 1.34 0 0 0-.69.17 1.193 1.193 0 0 0-.46.45c-.107.187-.177.4-.21.64-.014.087-.05.147-.11.18a.286.286 0 0 1-.15.05h-.52a.227.227 0 0 1-.15-.05.192.192 0 0 1-.06-.14c.007-.253.06-.507.16-.76.1-.26.247-.493.44-.7.2-.207.443-.373.73-.5.293-.133.633-.2 1.02-.2.526 0 .956.097 1.29.29.34.187.59.437.75.75.16.313.24.657.24 1.03 0 .293-.05.563-.15.81-.1.24-.247.477-.44.71-.187.227-.42.46-.7.7l-1.92 1.95h3.12c.073 0 .13.02.17.06.047.04.07.097.07.17v.41a.231.231 0 0 1-.07.17c-.04.04-.097.06-.17.06h-4.41zm8.129.1c-.42 0-.787-.05-1.1-.15a2.539 2.539 0 0 1-.79-.42 1.946 1.946 0 0 1-.49-.57 1.48 1.48 0 0 1-.17-.64c0-.06.02-.107.06-.14.04-.033.09-.05.15-.05h.49c.06 0 .113.013.16.04.047.027.087.083.12.17.067.24.18.427.34.56.167.133.357.227.57.28.22.047.44.07.66.07.46 0 .833-.11 1.12-.33.287-.22.43-.543.43-.97 0-.433-.13-.743-.39-.93-.26-.187-.62-.28-1.08-.28h-.95a.253.253 0 0 1-.17-.06c-.04-.04-.06-.097-.06-.17v-.27c0-.06.01-.11.03-.15a.942.942 0 0 1 .08-.12l1.94-2.12h-2.95a.253.253 0 0 1-.17-.06c-.04-.04-.06-.097-.06-.17v-.38c0-.073.02-.13.06-.17a.231.231 0 0 1 .17-.07h3.99c.073 0 .13.023.17.07.047.04.07.097.07.17v.36a.23.23 0 0 1-.04.13.905.905 0 0 1-.07.1l-1.93 2.15.16.01c.44.013.823.093 1.15.24.333.147.59.367.77.66.187.287.28.65.28 1.09 0 .447-.11.83-.33 1.15-.22.313-.523.553-.91.72-.387.167-.823.25-1.31.25z" fill="url(#a)"/><path opacity=".5" d="M96.72 89a.252.252 0 0 1-.17-.06.252.252 0 0 1-.06-.17v-.32a.49.49 0 0 1 .05-.2.759.759 0 0 1 .2-.24l2.12-2.12c.34-.287.607-.53.8-.73.2-.207.34-.403.42-.59.087-.187.13-.38.13-.58 0-.38-.107-.68-.32-.9-.213-.227-.53-.34-.95-.34a1.34 1.34 0 0 0-.69.17 1.193 1.193 0 0 0-.46.45c-.107.187-.177.4-.21.64-.013.087-.05.147-.11.18a.286.286 0 0 1-.15.05h-.52a.227.227 0 0 1-.15-.05.192.192 0 0 1-.06-.14c.007-.253.06-.507.16-.76.1-.26.247-.493.44-.7.2-.207.443-.373.73-.5.293-.133.633-.2 1.02-.2.527 0 .957.097 1.29.29.34.187.59.437.75.75.16.313.24.657.24 1.03 0 .293-.05.563-.15.81-.1.24-.247.477-.44.71-.187.227-.42.46-.7.7l-1.92 1.95h3.12c.073 0 .13.02.17.06a.21.21 0 0 1 .07.17v.41a.23.23 0 0 1-.07.17.23.23 0 0 1-.17.06h-4.41zm8.319.1c-.46 0-.85-.07-1.17-.21a2.097 2.097 0 0 1-.77-.6 2.487 2.487 0 0 1-.44-.87 4.674 4.674 0 0 1-.15-1.04l-.02-.57v-.6l.02-.59c.007-.367.057-.713.15-1.04.1-.333.247-.623.44-.87.2-.253.46-.45.78-.59.32-.147.707-.22 1.16-.22.46 0 .847.073 1.16.22.32.14.58.337.78.59.2.247.347.537.44.87.1.327.153.673.16 1.04.007.187.01.383.01.59.007.2.007.4 0 .6 0 .2-.003.39-.01.57-.007.367-.06.713-.16 1.04-.093.327-.24.617-.44.87-.193.253-.45.453-.77.6-.313.14-.703.21-1.17.21zm0-.85c.52 0 .903-.17 1.15-.51.253-.347.383-.817.39-1.41.013-.193.02-.38.02-.56v-.55c0-.187-.007-.37-.02-.55-.007-.58-.137-1.043-.39-1.39-.247-.353-.63-.53-1.15-.53-.513 0-.897.177-1.15.53-.247.347-.377.81-.39 1.39 0 .18-.003.363-.01.55v.55c.007.18.01.367.01.56.013.593.147 1.063.4 1.41.253.34.633.51 1.14.51zm3.898.75a.25.25 0 0 1-.17-.06.252.252 0 0 1-.06-.17v-.32c0-.06.016-.127.05-.2a.754.754 0 0 1 .2-.24l2.12-2.12c.34-.287.606-.53.8-.73.2-.207.34-.403.42-.59.086-.187.13-.38.13-.58 0-.38-.107-.68-.32-.9-.214-.227-.53-.34-.95-.34a1.34 1.34 0 0 0-.69.17 1.187 1.187 0 0 0-.46.45c-.107.187-.177.4-.21.64-.014.087-.05.147-.11.18a.29.29 0 0 1-.15.05h-.52a.227.227 0 0 1-.15-.05.192.192 0 0 1-.06-.14c.006-.253.06-.507.16-.76.1-.26.246-.493.44-.7.2-.207.443-.373.73-.5.293-.133.633-.2 1.02-.2.526 0 .956.097 1.29.29.34.187.59.437.75.75.16.313.24.657.24 1.03 0 .293-.05.563-.15.81-.1.24-.247.477-.44.71-.187.227-.42.46-.7.7l-1.92 1.95h3.12c.073 0 .13.02.17.06.046.04.07.097.07.17v.41a.234.234 0 0 1-.07.17.23.23 0 0 1-.17.06h-4.41zm9.061 0a.254.254 0 0 1-.17-.06.252.252 0 0 1-.06-.17v-1.44h-3.24a.254.254 0 0 1-.17-.06.252.252 0 0 1-.06-.17v-.4c0-.027.007-.067.02-.12.02-.06.05-.12.09-.18l3-4.23c.08-.113.204-.17.37-.17h.72a.2.2 0 0 1 .16.07.2.2 0 0 1 .07.16v4.23h.9a.21.21 0 0 1 .17.07.2.2 0 0 1 .07.16v.41a.23.23 0 0 1-.07.17.216.216 0 0 1-.16.06h-.91v1.44a.23.23 0 0 1-.07.17.216.216 0 0 1-.16.06h-.5zm-2.63-2.52h2.41v-3.43l-2.41 3.43z" fill="url(#b)"/><path d="M171.72 89a.252.252 0 0 1-.17-.06.252.252 0 0 1-.06-.17v-.32c0-.06.017-.127.05-.2a.754.754 0 0 1 .2-.24l2.12-2.12c.34-.287.607-.53.8-.73.2-.207.34-.403.42-.59.087-.187.13-.38.13-.58 0-.38-.107-.68-.32-.9-.213-.227-.53-.34-.95-.34a1.34 1.34 0 0 0-.69.17 1.193 1.193 0 0 0-.46.45c-.107.187-.177.4-.21.64-.013.087-.05.147-.11.18a.285.285 0 0 1-.15.05h-.52a.227.227 0 0 1-.15-.05.192.192 0 0 1-.06-.14c.007-.253.06-.507.16-.76.1-.26.247-.493.44-.7.2-.207.443-.373.73-.5.293-.133.633-.2 1.02-.2.527 0 .957.097 1.29.29.34.187.59.437.75.75.16.313.24.657.24 1.03 0 .293-.05.563-.15.81-.1.24-.247.477-.44.71-.187.227-.42.46-.7.7l-1.92 1.95h3.12c.073 0 .13.02.17.06a.21.21 0 0 1 .07.17v.41a.23.23 0 0 1-.07.17.23.23 0 0 1-.17.06h-4.41zm8.319.1c-.46 0-.85-.07-1.17-.21a2.097 2.097 0 0 1-.77-.6 2.487 2.487 0 0 1-.44-.87 4.674 4.674 0 0 1-.15-1.04l-.02-.57v-.6l.02-.59c.007-.367.057-.713.15-1.04.1-.333.247-.623.44-.87.2-.253.46-.45.78-.59.32-.147.707-.22 1.16-.22.46 0 .847.073 1.16.22.32.14.58.337.78.59.2.247.347.537.44.87.1.327.153.673.16 1.04.007.187.01.383.01.59.007.2.007.4 0 .6 0 .2-.003.39-.01.57-.007.367-.06.713-.16 1.04-.093.327-.24.617-.44.87-.193.253-.45.453-.77.6-.313.14-.703.21-1.17.21zm0-.85c.52 0 .903-.17 1.15-.51.253-.347.383-.817.39-1.41.013-.193.02-.38.02-.56v-.55c0-.187-.007-.37-.02-.55-.007-.58-.137-1.043-.39-1.39-.247-.353-.63-.53-1.15-.53-.513 0-.897.177-1.15.53-.247.347-.377.81-.39 1.39 0 .18-.003.363-.01.55v.55c.007.18.01.367.01.56.013.593.147 1.063.4 1.41.253.34.633.51 1.14.51zm3.898.75a.25.25 0 0 1-.17-.06.252.252 0 0 1-.06-.17v-.32c0-.06.016-.127.05-.2a.754.754 0 0 1 .2-.24l2.12-2.12c.34-.287.606-.53.8-.73.2-.207.34-.403.42-.59.086-.187.13-.38.13-.58 0-.38-.107-.68-.32-.9-.214-.227-.53-.34-.95-.34a1.34 1.34 0 0 0-.69.17 1.187 1.187 0 0 0-.46.45c-.107.187-.177.4-.21.64-.014.087-.05.147-.11.18a.29.29 0 0 1-.15.05h-.52a.227.227 0 0 1-.15-.05.192.192 0 0 1-.06-.14c.006-.253.06-.507.16-.76.1-.26.246-.493.44-.7.2-.207.443-.373.73-.5.293-.133.633-.2 1.02-.2.526 0 .956.097 1.29.29.34.187.59.437.75.75.16.313.24.657.24 1.03 0 .293-.05.563-.15.81-.1.24-.247.477-.44.71-.187.227-.42.46-.7.7l-1.92 1.95h3.12c.073 0 .13.02.17.06.046.04.07.097.07.17v.41a.234.234 0 0 1-.07.17.23.23 0 0 1-.17.06h-4.41zm8.069.1c-.527 0-.973-.09-1.34-.27a2.151 2.151 0 0 1-.83-.72 1.843 1.843 0 0 1-.3-.93c-.007-.06.01-.107.05-.14.04-.033.09-.05.15-.05h.54c.06 0 .113.013.16.04.047.027.083.083.11.17.067.247.173.45.32.61.153.153.327.267.52.34.2.067.407.1.62.1.287 0 .547-.057.78-.17.24-.12.43-.293.57-.52.14-.233.21-.513.21-.84 0-.3-.07-.557-.21-.77a1.274 1.274 0 0 0-.56-.5 1.702 1.702 0 0 0-.79-.18c-.22 0-.4.027-.54.08-.14.053-.26.117-.36.19-.093.073-.18.137-.26.19a.415.415 0 0 1-.25.08h-.52a.24.24 0 0 1-.16-.06.186.186 0 0 1-.06-.16l.32-3.34a.28.28 0 0 1 .07-.18.245.245 0 0 1 .18-.07h3.49a.2.2 0 0 1 .16.07.2.2 0 0 1 .07.16v.39a.21.21 0 0 1-.07.17.216.216 0 0 1-.16.06h-2.88l-.19 1.97c.093-.06.243-.13.45-.21.207-.087.49-.13.85-.13.327 0 .633.05.92.15.293.1.553.247.78.44.227.193.403.43.53.71.127.273.19.59.19.95 0 .507-.113.937-.34 1.29-.22.353-.523.623-.91.81-.38.18-.817.27-1.31.27z" fill="#fff"/><path opacity=".5" stroke="url(#c)" d="M1 71.5h203"/><path d="m1 60 39.853-25.213a16 16 0 0 1 17.922.55l7.414 5.355a16 16 0 0 0 20.439-1.419l16.905-16.2a16 16 0 0 1 20.223-1.572l17.781 12.4a16 16 0 0 0 18.713-.295L204 1" stroke="url(#d)" stroke-width="2" stroke-dasharray="2 2"/><circle cx="186" cy="14" r="7" fill="#fff"/><circle cx="186" cy="13.98" r="6" fill="url(#e)"/><defs><linearGradient id="a" x1="-.5" y1="86.005" x2="37" y2="86.001" gradientUnits="userSpaceOnUse"><stop stop-color="#fff" stop-opacity=".02"/><stop offset="1" stop-color="#fff"/></linearGradient><linearGradient id="b" x1="81" y1="86" x2="126" y2="86" gradientUnits="userSpaceOnUse"><stop stop-color="#fff" stop-opacity=".02"/><stop offset="1" stop-color="#fff"/></linearGradient><linearGradient id="c" x1="1" y1="72.5" x2="204" y2="72.5" gradientUnits="userSpaceOnUse"><stop stop-color="#fff" stop-opacity=".02"/><stop offset="1" stop-color="#fff"/></linearGradient><linearGradient id="d" x1="1" y1="30.5" x2="204" y2="30.5" gradientUnits="userSpaceOnUse"><stop stop-color="#fff" stop-opacity=".02"/><stop offset="1" stop-color="#fff"/></linearGradient><linearGradient id="e" x1="180.475" y1="7.98" x2="187.46" y2="22.209" gradientUnits="userSpaceOnUse"><stop stop-color="#64A4FF"/><stop offset=".5" stop-color="#A2CCFF"/><stop offset="1" stop-color="#D8EFFF"/></linearGradient></defs></svg>