<svg width="20" height="20" viewBox="0 0 20 20" fill="none" xmlns="http://www.w3.org/2000/svg">
<path fill-rule="evenodd" clip-rule="evenodd" d="M13.5714 0C10.021 0 7.14286 2.87817 7.14286 6.42857C7.14286 6.80355 7.17504 7.17158 7.23695 7.5299C7.30094 7.90026 7.20646 8.21196 7.02636 8.39206L0.836838 14.5816C0.30102 15.1174 0 15.8441 0 16.6019V19.2857C0 19.6802 0.319797 20 0.714286 20H4.28571C4.6802 20 5 19.6802 5 19.2857V17.8571H6.42857C6.82306 17.8571 7.14286 17.5373 7.14286 17.1429V15.7143H8.57143C8.76087 15.7143 8.94255 15.639 9.0765 15.5051L11.6079 12.9736C11.788 12.7935 12.0997 12.6991 12.4701 12.7631C12.8284 12.825 13.1965 12.8571 13.5714 12.8571C17.1218 12.8571 20 9.97897 20 6.42857C20 2.87817 17.1218 0 13.5714 0ZM13.5714 2.85714C13.1769 2.85714 12.8571 3.17694 12.8571 3.57143C12.8571 3.96592 13.1769 4.28571 13.5714 4.28571C14.7549 4.28571 15.7143 5.2451 15.7143 6.42857C15.7143 6.82306 16.0341 7.14286 16.4286 7.14286C16.8231 7.14286 17.1429 6.82306 17.1429 6.42857C17.1429 4.45613 15.5439 2.85714 13.5714 2.85714Z" fill="white"/>
</svg>
