<svg width="64" height="64" viewBox="0 0 64 64" fill="none" xmlns="http://www.w3.org/2000/svg">
<rect width="64" height="64" rx="32" fill="#00AFF0" fill-opacity="0.1"/>
<path d="M29.5392 35.6L35.6912 32L29.5392 28.4V35.6ZM41.1664 33.2L43.7625 35.156C44.0332 35.336 44.0701 35.6 43.8855 35.936L41.4001 40.1C41.2279 40.364 40.9941 40.436 40.6496 40.328L37.5983 39.14C36.7862 39.704 36.0972 40.1 35.5189 40.328L35.076 43.472C34.9775 43.808 34.793 44 34.4608 44H29.5392C29.207 44 29.0225 43.808 28.924 43.472L28.4811 40.328C27.7552 40.028 27.0785 39.632 26.4017 39.14L23.3504 40.328C23.0059 40.436 22.7721 40.364 22.5999 40.1L20.1145 35.936C19.9299 35.6 19.9668 35.336 20.2375 35.156L22.8336 33.2C22.7721 32.924 22.7721 32.528 22.7721 32C22.7721 31.472 22.7721 31.076 22.8336 30.8L20.2375 28.856C19.9668 28.664 19.9299 28.4 20.1145 28.064L22.5999 23.9C22.7721 23.636 23.0059 23.564 23.3504 23.672L26.4017 24.86C27.2138 24.296 27.9028 23.9 28.4811 23.672L28.924 20.528C29.0225 20.192 29.207 20 29.5392 20H34.4608C34.793 20 34.9775 20.192 35.076 20.528L35.5189 23.672C36.2448 23.972 36.9215 24.368 37.5983 24.86L40.6496 23.672C40.9941 23.564 41.2279 23.636 41.4001 23.9L43.8855 28.064C44.0701 28.4 44.0332 28.664 43.7625 28.856L41.1664 30.8C41.2279 31.076 41.2279 31.472 41.2279 32C41.2279 32.528 41.2279 32.924 41.1664 33.2Z" fill="#00AFF0"/>
</svg>
