<svg width="64" height="64" viewBox="0 0 64 64" fill="none" xmlns="http://www.w3.org/2000/svg">
<rect width="64" height="64" rx="32" fill="#00AFF0" fill-opacity="0.1"/>
<path d="M32 20C25.364 20 20 25.4 20 32C20 35.1826 21.2643 38.2348 23.5147 40.4853C24.629 41.5996 25.9519 42.4835 27.4078 43.0866C28.8637 43.6896 30.4241 44 32 44C35.1826 44 38.2348 42.7357 40.4853 40.4853C42.7357 38.2348 44 35.1826 44 32C44 30.4241 43.6896 28.8637 43.0866 27.4078C42.4835 25.9519 41.5996 24.629 40.4853 23.5147C39.371 22.4004 38.0481 21.5165 36.5922 20.9134C35.1363 20.3104 33.5759 20 32 20ZM36.2 27.2C36.6774 27.2 37.1352 27.3896 37.4728 27.7272C37.8104 28.0648 38 28.5226 38 29C38 29.4774 37.8104 29.9352 37.4728 30.2728C37.1352 30.6104 36.6774 30.8 36.2 30.8C35.7226 30.8 35.2648 30.6104 34.9272 30.2728C34.5896 29.9352 34.4 29.4774 34.4 29C34.4 28.5226 34.5896 28.0648 34.9272 27.7272C35.2648 27.3896 35.7226 27.2 36.2 27.2ZM27.8 27.2C28.2774 27.2 28.7352 27.3896 29.0728 27.7272C29.4104 28.0648 29.6 28.5226 29.6 29C29.6 29.4774 29.4104 29.9352 29.0728 30.2728C28.7352 30.6104 28.2774 30.8 27.8 30.8C27.3226 30.8 26.8648 30.6104 26.5272 30.2728C26.1896 29.9352 26 29.4774 26 29C26 28.5226 26.1896 28.0648 26.5272 27.7272C26.8648 27.3896 27.3226 27.2 27.8 27.2ZM32 38.6C29.204 38.6 26.828 36.848 25.868 34.4H38.132C37.16 36.848 34.796 38.6 32 38.6Z" fill="#00AFF0"/>
</svg>
