<svg width="367" height="385" viewBox="0 0 367 385" fill="none" xmlns="http://www.w3.org/2000/svg">
<path d="M115.322 84.9403L191.543 127.276C197.394 130.478 207.256 128.521 208.927 123.541L229.654 64.8396C229.988 63.7723 229.988 62.705 229.487 61.8156C228.986 60.7483 228.15 60.0368 226.813 59.3252C225.643 58.6137 223.971 58.08 222.299 57.9022C220.628 57.7243 218.789 57.7243 217.118 57.9022L120.169 74.2673C118.331 74.6231 116.659 75.1567 115.322 75.8683C113.985 76.5798 112.982 77.6471 112.48 78.7144C111.979 79.7817 111.979 80.849 112.48 81.9163C112.982 83.1615 113.985 84.0509 115.322 84.9403Z" fill="white"/>
<path d="M31.5161 208.402C60.6173 225.913 84.2084 268.499 84.2084 303.521C84.2084 268.499 107.8 254.304 136.901 271.815C107.8 254.304 84.2084 211.718 84.2084 176.696C84.2084 211.718 60.6173 225.913 31.5161 208.402Z" fill="white"/>
<path fill-rule="evenodd" clip-rule="evenodd" d="M152.348 376.687C161.82 381.784 172.397 384.579 183.133 384.579C193.868 384.579 204.446 381.948 213.918 376.687L330.744 312.892C352.689 300.889 366.266 277.541 366.266 251.727V132.852C366.266 107.038 352.689 83.6899 330.744 71.6872L213.918 7.89217C204.446 2.79514 193.868 0 183.133 0C172.397 0 161.82 2.79514 152.348 7.89217L35.5214 71.6872C13.5771 83.6899 0 107.038 0 132.852V251.727C0 277.541 13.5771 300.889 35.5214 312.892L152.348 376.687ZM206.538 31.7836C192.003 23.8344 174.678 23.8344 160.143 31.7836L51.4968 91.0965C35.053 100.116 24.7757 117.848 24.7757 137.11V247.634C24.7757 266.895 35.053 284.628 51.4968 293.647L160.143 352.96C174.678 360.909 192.003 360.909 206.538 352.96L315.184 293.647C331.627 284.628 341.905 266.895 341.905 247.634V137.11C341.905 117.848 331.627 100.116 315.184 91.0965L206.538 31.7836Z" fill="#A55AFF"/>
<path fill-rule="evenodd" clip-rule="evenodd" d="M160.143 31.7836C174.678 23.8344 192.003 23.8344 206.538 31.7836L315.184 91.0965C331.627 100.116 341.905 117.848 341.905 137.11V247.634C341.905 266.895 331.627 284.628 315.184 293.647L206.538 352.96C192.003 360.909 174.678 360.909 160.143 352.96L51.4968 293.647C35.053 284.628 24.7757 266.895 24.7757 247.634V137.11C24.7757 117.848 35.053 100.116 51.4968 91.0965L160.143 31.7836ZM191.543 127.276L115.322 84.9403C113.985 84.0509 112.982 83.1615 112.48 81.9163C111.979 80.849 111.979 79.7817 112.48 78.7144C112.982 77.6471 113.985 76.5798 115.322 75.8683C116.659 75.1567 118.331 74.6231 120.169 74.2673L217.118 57.9022C218.789 57.7243 220.628 57.7243 222.299 57.9022C223.971 58.08 225.643 58.6137 226.813 59.3252C228.15 60.0368 228.986 60.7483 229.487 61.8156C229.988 62.705 229.988 63.7723 229.654 64.8396L208.927 123.541C207.256 128.521 197.394 130.478 191.543 127.276ZM84.2084 303.521C84.2084 268.499 60.6173 225.913 31.5161 208.402C60.6173 225.913 84.2084 211.718 84.2084 176.696C84.2084 211.718 107.8 254.304 136.901 271.815C107.8 254.304 84.2084 268.499 84.2084 303.521ZM136.901 216.728C136.901 202.307 127.187 184.772 115.204 177.562C127.187 184.772 136.901 178.927 136.901 164.506C136.901 178.927 146.615 196.462 158.598 203.673C146.615 196.462 136.901 202.307 136.901 216.728Z" fill="#A55AFF"/>
<path d="M115.204 177.562C127.187 184.772 136.901 202.307 136.901 216.728C136.901 202.307 146.615 196.462 158.598 203.673C146.615 196.462 136.901 178.927 136.901 164.506C136.901 178.927 127.187 184.772 115.204 177.562Z" fill="white"/>
</svg>
