<svg width="32" height="32" viewBox="0 0 32 32" fill="none" xmlns="http://www.w3.org/2000/svg">
<path d="M15.5259 2.11953C15.8219 1.96016 16.1781 1.96016 16.4741 2.11953L29.4741 9.11953C29.798 9.29394 30 9.63212 30 10C30 10.3679 29.798 10.7061 29.4741 10.8805L16.4741 17.8805C16.1781 18.0398 15.8219 18.0398 15.5259 17.8805L2.5259 10.8805C2.20199 10.7061 2 10.3679 2 10C2 9.63212 2.20199 9.29394 2.5259 9.11953L15.5259 2.11953Z" fill="white"/>
<path d="M4.35291 14.1357L14.5777 19.6414C15.4656 20.1195 16.5344 20.1195 17.4223 19.6414L27.6471 14.1357L29.4741 15.1195C29.798 15.2939 30 15.6321 30 16C30 16.3679 29.798 16.706 29.4741 16.8805L16.4741 23.8805C16.1781 24.0398 15.8219 24.0398 15.5259 23.8805L2.5259 16.8805C2.20199 16.706 2 16.3679 2 16C2 15.6321 2.20199 15.2939 2.5259 15.1195L4.35291 14.1357Z" fill="white"/>
<path d="M14.5777 25.6414L4.35291 20.1357L2.5259 21.1195C2.20199 21.2939 2 21.6321 2 22C2 22.3679 2.20199 22.706 2.5259 22.8805L15.5259 29.8805C15.8219 30.0398 16.1781 30.0398 16.4741 29.8805L29.4741 22.8805C29.798 22.706 30 22.3679 30 22C30 21.6321 29.798 21.2939 29.4741 21.1195L27.6471 20.1357L17.4223 25.6414C16.5344 26.1195 15.4656 26.1195 14.5777 25.6414Z" fill="white"/>
</svg>
