<svg xmlns="http://www.w3.org/2000/svg" width="132" height="40" fill="none" viewBox="0 0 132 40">
    <path fill="#0E1726" d="M77.605 15.765c1.01 0 1.436.421 1.436 1.419v8.006h.36c.987 0 1.368.443 1.368 1.396v3.06h-1.998v-2.173c0-.31-.18-.487-.471-.487h-7.788c-.292 0-.47.177-.471.487v2.174h-1.998v-3.06c0-.954.382-1.397 1.37-1.397h.179c1.818-2.085 1.885-5.434 1.885-7.075v-.51h-1.392v-1.84h7.52Zm-56.514-.267c3.748 0 4.736 1.886 4.736 4.392v4.767c0 .333.18.488.493.488h.921v1.84h-2.065c-1.01 0-1.392-.488-1.392-1.286 0-.39.022-.653.023-.665h-.045c.022 0-.965 2.217-3.659 2.217-1.975 0-3.815-1.175-3.815-3.326 0-3.77 4.96-3.925 6.868-3.925h.493v-.155c0-1.93-.763-2.639-2.513-2.639-.54 0-1.863.134-1.863.866v.642h-2.065v-1.13c0-1.797 2.85-2.086 3.883-2.086ZM37.75 11.33c0 1.463-.808 1.84-2.334 2.439l-2.67 1.13c-1.931.821-2.627 2.263-2.672 3.97h.023c1.077-1.64 2.491-2.085 3.95-2.085 2.85 0 4.87 1.997 4.87 5.167 0 3.238-2.312 5.3-5.477 5.3-4.062 0-5.454-3.149-5.454-6.874 0-3.659.809-5.898 3.86-7.228l2.493-1.087c1.055-.444 1.302-.666 1.302-1.176v-.532h2.109v.976Zm24.197 4.168c3.21 0 4.893 2.351 4.893 5.256 0 .266-.023.555-.068.843h-6.93a2.17 2.17 0 0 1-.064-.476c-.005-.335.055-.65.156-.943h4.73c-.068-1.974-1.28-2.994-2.762-2.994-1.625 0-2.913 1.035-3.283 2.803a4.918 4.918 0 0 0-.127 1.61h-.002c.135 2.44 1.886 3.792 3.929 3.792 1.212 0 2.446-.533 3.344-1.309l.92 1.575c-1.1.997-2.828 1.596-4.399 1.596-3.569 0-6.038-2.55-6.038-5.876 0-3.57 2.47-5.877 5.701-5.877Zm38.519 0c3.748 0 4.735 1.886 4.735 4.392v4.767c0 .333.18.488.494.488h.92v1.84h-2.064c-1.01 0-1.392-.487-1.392-1.286 0-.39.022-.653.023-.665h-.045c.007.034-.987 2.217-3.66 2.217-1.974 0-3.815-1.175-3.815-3.326 0-3.77 4.96-3.925 6.868-3.925h.494v-.155c0-1.93-.763-2.639-2.513-2.639-.539 0-1.864.134-1.864.866v.642h-2.064v-1.13c0-1.797 2.85-2.086 3.883-2.086Zm-89.019-5.144c1.01 0 1.436.421 1.436 1.419V24.59c0 .31.18.488.494.488h.965v1.908h-2.267c-1.01 0-1.436-.422-1.436-1.42V12.749c0-.332-.18-.487-.494-.487H5.746v1.752c0 7.495-1.37 12.839-5.746 13.083v-2.018c2.67-.354 3.613-4.723 3.613-11.088v-1.73H2.132v-1.906h9.315ZM47.32 22.195c.292.666.583 1.398.583 1.398h.023s.315-.732.606-1.398l2.94-6.43h2.38l.785 8.959c.022.288.157.42.426.42h.584v1.842h-1.66c-.943 0-1.168-.422-1.235-1.22l-.427-5.3c-.045-.687-.045-1.996-.045-1.996h-.045s-.269.82-.672 1.686l-2.65 5.477h-2.064l-2.604-5.477a22.377 22.377 0 0 1-.651-1.708h-.045c0 .028 0 1.338-.045 2.018l-.426 5.3c-.067.798-.292 1.22-1.234 1.22h-1.661v-1.841h.584c.269 0 .403-.133.425-.421l.786-8.96h2.38l2.962 6.431Zm36.065-6.43c1.01 0 1.436.4 1.436 1.397v5.344c0 .598-.067 1.439-.09 1.552h.045c.09-.179.674-1.042 1.055-1.552l4.893-6.741h2.155v8.892c0 .333.18.488.47.488h.9v1.84h-1.999c-1.01 0-1.436-.42-1.436-1.418v-5.323c0-.554.067-1.396.09-1.574h-.046c-.09.2-.673 1.065-1.054 1.574l-4.893 6.742h-2.155v-8.893c0-.332-.18-.487-.47-.487h-.9v-1.841h1.999Zm-60.318 5.788c-1.638 0-4.601.155-4.601 2.173 0 .909.719 1.818 2.133 1.818 1.885 0 3.051-1.907 3.051-3.57v-.421h-.583Zm79.374 0c-1.638 0-4.6.155-4.6 2.173 0 .909.718 1.818 2.132 1.818 1.885 0 3.052-1.907 3.052-3.57v-.421h-.584ZM33.53 18.58c-1.907 0-3.254 1.42-3.254 3.37 0 2.196 1.436 3.46 3.21 3.46 1.75 0 3.187-1.264 3.187-3.415 0-2.195-1.437-3.415-3.143-3.415Zm40.012-.488c0 1.552-.045 4.968-1.751 7.097h5.072v-7.097c0-.332-.179-.487-.493-.487h-2.828v.487Z"/>
    <path fill="#00AFF0" d="M122.354 10.354c-5.246 0-9.646 4.23-9.646 9.646 0 5.246 4.23 9.646 9.646 9.646 5.246 0 9.646-4.23 9.646-9.646 0-5.415-4.4-9.646-9.646-9.646Zm4.569 9.985-6.431 3.723c-.338.169-.677 0-.677-.339v-7.615c0-.339.339-.508.677-.339l6.431 3.723c.339.17.339.677 0 .846Z"/>
</svg>
