<svg width="132" height="40" viewBox="0 0 132 40" fill="none" xmlns="http://www.w3.org/2000/svg">
<path fill-rule="evenodd" clip-rule="evenodd" d="M5.74584 14.0126C5.74584 21.5077 4.37671 26.8523 0 27.0962V25.0783C2.67092 24.7235 3.61359 20.3546 3.61359 13.9904V12.2607H2.13224V10.3537H11.4468C12.4568 10.3537 12.8832 10.775 12.8832 11.7729V24.5904C12.8832 24.9009 13.0628 25.0783 13.377 25.0783H14.3422V26.9853H12.0752C11.0652 26.9853 10.6388 26.564 10.6388 25.5661V12.7486C10.6388 12.4159 10.4592 12.2607 10.145 12.2607H5.74584V14.0126ZM20.1036 27.2514C18.1285 27.2514 16.288 26.0762 16.288 23.9252C16.288 20.1554 21.2483 20.0002 23.1561 20.0002H23.6499V19.845C23.6499 17.9157 22.8867 17.2061 21.1361 17.2061C20.5974 17.2061 19.2731 17.3392 19.2731 18.071V18.714H17.2082V17.5831C17.2082 15.7869 20.0587 15.4987 21.0912 15.4987C24.8394 15.4987 25.827 17.3835 25.827 19.8893V24.657C25.827 24.9896 26.0066 25.1448 26.3208 25.1448H27.241V26.9853H25.1761C24.1661 26.9853 23.7845 26.4975 23.7845 25.6992C23.7845 25.3 23.807 25.0339 23.807 25.0339H23.7621C23.7845 25.0339 22.797 27.2514 20.1036 27.2514ZM23.0663 21.5525C21.4278 21.5525 18.4651 21.7077 18.4651 23.7256C18.4651 24.6348 19.1834 25.544 20.5974 25.544C22.4827 25.544 23.6499 23.6369 23.6499 21.9738V21.5525H23.0663ZM33.4406 27.2514C36.6053 27.2514 38.9171 25.1892 38.9171 21.9516C38.9171 18.7806 36.8971 16.7848 34.0467 16.7848C32.5877 16.7848 31.1737 17.2283 30.0964 18.8693H30.0739C30.1188 17.1618 30.8146 15.7204 32.7449 14.8999L35.4158 13.769C36.942 13.1703 37.75 12.7933 37.75 11.3297V10.354H35.6402V10.8862C35.6402 11.3963 35.3933 11.618 34.3384 12.0615L31.8471 13.1481C28.7946 14.4786 27.9866 16.7183 27.9866 20.3772C27.9866 24.1026 29.3782 27.2514 33.4406 27.2514ZM30.2759 21.9516C30.2759 20.0002 31.6226 18.581 33.5304 18.581C35.2362 18.581 36.6727 19.8006 36.6727 21.996C36.6727 24.1469 35.2362 25.4109 33.4855 25.4109C31.7124 25.4109 30.2759 24.1469 30.2759 21.9516ZM41.8425 26.9853H40.1816V25.1448H40.7651C41.0345 25.1448 41.1692 25.0118 41.1916 24.7235L41.9772 15.7648H44.3563L47.319 22.1955C47.6108 22.8608 47.9026 23.5926 47.9026 23.5926H47.925C47.925 23.5926 48.2392 22.8608 48.531 22.1955L51.4713 15.7648H53.8504L54.636 24.7235C54.6584 25.0118 54.7931 25.1448 55.0624 25.1448H55.646V26.9853H53.9851C53.0424 26.9853 52.8179 26.564 52.7506 25.7657L52.3242 20.4659C52.2793 19.7784 52.2793 18.4701 52.2793 18.4701H52.2344C52.2344 18.4701 51.965 19.2906 51.561 20.1554L48.9126 25.6327H46.8477L44.2441 20.1554C43.885 19.3349 43.5932 18.4479 43.5932 18.4479H43.5483C43.5483 18.4479 43.5483 19.7784 43.5034 20.4659L43.077 25.7657C43.0096 26.564 42.7852 26.9853 41.8425 26.9853ZM56.2462 21.375C56.2462 24.7013 58.7151 27.2514 62.2839 27.2514C63.855 27.2514 65.5832 26.6527 66.683 25.6548L65.7628 24.0804C64.865 24.8565 63.6305 25.3887 62.4185 25.3887C60.3761 25.3887 58.6254 24.0361 58.4907 21.5968H58.4918C58.4803 21.459 58.4744 21.3191 58.4744 21.1774C58.4744 20.7853 58.5195 20.4067 58.6036 20.0496C58.9554 18.2426 60.2574 17.184 61.9023 17.184C63.3836 17.184 64.5957 18.204 64.663 20.1776H59.9319C59.8312 20.4713 59.7729 20.7862 59.778 21.1217C59.7804 21.2817 59.8024 21.4403 59.8402 21.5968H66.7728C66.8177 21.3085 66.8401 21.0202 66.8401 20.7541C66.8401 17.8492 65.1568 15.4987 61.9472 15.4987C58.7152 15.4987 56.2462 17.8049 56.2462 21.375ZM68.043 29.6463V26.5862C68.043 25.6327 68.4246 25.1892 69.4121 25.1892H69.5917C71.4097 23.1047 71.477 19.7563 71.477 18.1153V17.6053H70.0854V15.7648H77.6044C78.6144 15.7648 79.0409 16.1861 79.0409 17.184V25.1892H79.4C80.3876 25.1892 80.7691 25.6327 80.7691 26.5862V29.6463H78.7715V27.4732C78.7715 27.1627 78.592 26.9853 78.3002 26.9853H70.5119C70.2201 26.9853 70.0406 27.1627 70.0406 27.4732V29.6463H68.043ZM73.5419 18.0931C73.5419 19.6454 73.497 23.0604 71.7912 25.1892H76.8637V18.0931C76.8637 17.7605 76.6842 17.6053 76.37 17.6053H73.5419V18.0931ZM82.7551 26.9853H84.9098L89.8028 20.2441C90.1843 19.7341 90.7679 18.8693 90.8577 18.6697H90.9026C90.8801 18.8471 90.8128 19.6897 90.8128 20.2441V25.5661C90.8128 26.564 91.2392 26.9853 92.2492 26.9853H94.2468V25.1448H93.349C93.0573 25.1448 92.8777 24.9896 92.8777 24.657V15.7648H90.723L85.8301 22.506C85.4485 23.016 84.8649 23.8808 84.7752 24.0582H84.7303C84.7527 23.9474 84.8201 23.1047 84.8201 22.506V17.1618C84.8201 16.1639 84.3936 15.7648 83.3836 15.7648H81.386V17.6053H82.2838C82.5756 17.6053 82.7551 17.7605 82.7551 18.0931V26.9853ZM99.478 27.2514C97.5028 27.2514 95.6624 26.0762 95.6624 23.9252C95.6624 20.1554 100.623 20.0002 102.53 20.0002H103.024V19.845C103.024 17.9157 102.261 17.2061 100.51 17.2061C99.9718 17.2061 98.6475 17.3392 98.6475 18.071V18.714H96.5826V17.5831C96.5826 15.7869 99.4331 15.4987 100.466 15.4987C104.214 15.4987 105.201 17.3835 105.201 19.8893V24.657C105.201 24.9896 105.381 25.1448 105.695 25.1448H106.615V26.9853H104.55C103.54 26.9853 103.159 26.4975 103.159 25.6992C103.159 25.3 103.181 25.0339 103.181 25.0339H103.136C103.159 25.0339 102.171 27.2514 99.478 27.2514ZM102.441 21.5525C100.802 21.5525 97.8395 21.7077 97.8395 23.7256C97.8395 24.6348 98.5577 25.544 99.9718 25.544C101.857 25.544 103.024 23.6369 103.024 21.9738V21.5525H102.441Z" fill="white"/>
<path fill-rule="evenodd" clip-rule="evenodd" d="M122.353 10.3539C117.107 10.3539 112.707 14.5846 112.707 20C112.707 25.2462 116.938 29.6462 122.353 29.6462C127.599 29.6462 131.999 25.4154 131.999 20C131.999 14.5846 127.599 10.3539 122.353 10.3539ZM126.922 20.3385L120.492 24.0615C120.153 24.2308 119.815 24.0615 119.815 23.7231V16.1077C119.815 15.7692 120.153 15.6 120.492 15.7692L126.922 19.4923C127.261 19.6615 127.261 20.1692 126.922 20.3385Z" fill="white"/>
</svg>
