<svg width="110" height="22" viewBox="0 0 110 22" fill="none" xmlns="http://www.w3.org/2000/svg">
<g clip-path="url(#clip0_826_27555)">
<mask id="mask0_826_27555" style="mask-type:luminance" maskUnits="userSpaceOnUse" x="0" y="0" width="110" height="22">
<path d="M110 0H0V22H110V0Z" fill="white"/>
</mask>
<g mask="url(#mask0_826_27555)">
<path d="M0.482025 3.84678C0.482025 3.84678 -0.276234 7.03976 1.72149 7.98942C3.71921 8.95284 6.92724 8.34723 7.46679 7.59031C8.00628 6.84707 8.13755 6.32409 8.13755 6.32409V3.83301" fill="#75B843"/>
<path d="M7.99082 3.84678C7.99082 3.84678 7.23255 7.03976 9.23027 7.98942C11.228 8.95284 14.436 8.34723 14.9756 7.59031C15.5151 6.84707 15.6463 6.32409 15.6463 6.32409V3.83301" fill="#60215D"/>
<path d="M15.6463 3.84678C15.6463 3.84678 14.8881 7.03976 16.8858 7.98942C18.8835 8.95284 22.0915 8.34723 22.6311 7.59031C23.1706 6.84707 23.3018 6.32409 23.3018 6.32409V3.83301" fill="#EF7D00"/>
<path d="M23.7541 3.87422C23.7249 3.65401 23.5208 3.50261 23.2875 3.53014C23.0542 3.55767 22.8937 3.75035 22.923 3.97055C23.025 4.74128 23.025 5.38814 22.923 5.88361C22.8208 6.39283 22.6167 6.83326 22.2959 7.19107L22.2814 7.21863C21.8147 7.74162 21.144 8.07192 20.3419 8.14073C20.2107 8.15448 19.5837 8.18198 19.4525 8.18198H19.3067C19.1462 8.18198 18.6358 8.15448 18.49 8.12698C17.1485 7.97555 16.2298 7.14982 15.982 5.86984C15.5882 3.95679 16.8423 0.584875 16.8569 0.543587C16.9298 0.337143 16.8131 0.116935 16.609 0.0481205C16.3902 -0.0206942 16.1569 0.089411 16.084 0.282092C16.0257 0.433484 14.7425 3.88798 15.1799 6.02123C15.2091 6.13134 15.2382 6.24146 15.2675 6.35152C14.8883 7.35625 13.9988 8.01686 12.8322 8.12698C12.701 8.14073 12.074 8.16823 11.9428 8.16823H11.797C11.6365 8.16823 11.1262 8.14073 10.9803 8.11317C9.63881 7.9618 8.72013 7.13601 8.47226 5.85608C8.07852 3.94303 9.33258 0.571112 9.34719 0.529823C9.42009 0.323379 9.30343 0.103173 9.09926 0.0343588C8.88054 -0.0344558 8.64722 0.075647 8.57432 0.268328C8.51602 0.41972 7.23281 3.87422 7.67024 6.00747C7.69939 6.11759 7.7286 6.22765 7.75775 6.33777C7.37862 7.3425 6.48914 8.00311 5.32256 8.11317C5.19133 8.12698 4.5643 8.15448 4.43307 8.15448H4.28725C4.12685 8.15448 3.61648 8.12698 3.47066 8.09942C2.12912 7.94805 1.21046 7.12226 0.962573 5.84231C0.568861 3.92927 1.82291 0.55735 1.83749 0.516061C1.91039 0.309618 1.79374 0.0894098 1.5896 0.0205951C1.37087 -0.0482196 1.13755 0.0618835 1.06465 0.254564C1.00632 0.405957 -0.27689 3.86046 0.160567 5.99371C0.481369 7.60399 1.69167 8.67747 3.38317 8.88391C3.49983 8.89772 3.7623 8.91147 3.99561 8.92522V12.1045C3.99561 12.3246 4.18518 12.5036 4.41849 12.5036C4.6518 12.5036 4.84136 12.3246 4.84136 12.1045V8.92522C5.07467 8.91147 5.35173 8.89772 5.43922 8.88391C6.66411 8.76003 7.64109 8.18198 8.22439 7.27369C8.79303 8.15448 9.74087 8.73253 10.9366 8.87016C11.0533 8.88391 11.3158 8.89772 11.549 8.91147V12.0907C11.549 12.3109 11.7386 12.4898 11.9719 12.4898C12.2052 12.4898 12.3948 12.3109 12.3948 12.0907V8.91147C12.6281 8.89772 12.9051 8.88391 12.9927 8.87016C14.2176 8.74628 15.1945 8.16823 15.7778 7.27369C16.3465 8.15448 17.2943 8.73253 18.49 8.87016C18.6067 8.88391 18.8692 8.89772 19.0879 8.91147V12.0907C19.0879 12.3109 19.2774 12.4898 19.5108 12.4898C19.7441 12.4898 19.9336 12.3109 19.9336 12.0907V8.91147C20.167 8.89772 20.444 8.88391 20.5315 8.87016C21.5522 8.77384 22.4126 8.34717 23.025 7.65899L23.0542 7.63149C23.4479 7.17732 23.7104 6.61302 23.8416 5.97994C23.8707 5.45695 23.8707 4.72752 23.7541 3.87422Z" fill="#501B4A"/>
<path d="M105.53 7.34243H102.497V9.62707H105.559C106.609 9.62707 106.872 9.04908 106.872 8.48478C106.872 7.90673 106.536 7.34243 105.53 7.34243ZM105.836 12.1457H99.4204V0.805054H108.986V3.29614H102.497V5.01651H105.632C105.632 5.01651 107.557 5.04404 108.49 5.55327C109.423 6.0625 109.919 6.99837 109.919 8.92521C109.919 11.1273 107.892 12.1457 105.836 12.1457Z" fill="#501B4A"/>
<path d="M37.5197 7.34243H34.4866V9.62707H37.5488C38.5987 9.62707 38.8612 9.04908 38.8612 8.48478C38.8467 7.90673 38.5112 7.34243 37.5197 7.34243ZM34.4721 5.00275H37.6071C38.2342 5.00275 38.5112 4.53481 38.5112 4.14945C38.5112 3.75032 38.2488 3.29614 37.578 3.29614H34.4721V5.00275ZM37.8113 12.1457H31.3953V0.805054H37.7967C39.707 0.805054 41.413 1.91985 41.413 3.86043C41.413 4.89265 40.9756 5.62208 40.2902 6.10378C41.0631 6.50288 41.8943 7.31493 41.8943 8.89764C41.9088 11.1273 39.8673 12.1457 37.8113 12.1457Z" fill="#501B4A"/>
<path d="M44.0376 0.79126H47.0707V8.01679L51.7223 0.79126H54.9449V12.1457H51.9118V4.90638L47.2602 12.1457H44.0376V0.79126Z" fill="#501B4A"/>
<path d="M60.4133 12.1457H57.3364V0.79126H60.4133V4.74122H65.1524V0.79126H68.2294V12.1457H65.1524V7.31487H60.4133V12.1457Z" fill="#501B4A"/>
<path d="M82.3306 0.79126V12.1319H79.2536V3.36493H75.7538L75.2435 8.16817C74.9374 10.9483 73.4939 12.1732 70.5337 12.1732V9.64082C71.5836 9.57201 72.1525 9.15914 72.2686 7.98929L73.0564 0.79126H82.3306Z" fill="#501B4A"/>
<path d="M90.8455 3.24114C89.1392 3.24114 87.7691 4.64496 87.7691 6.50294C87.7691 8.3059 89.1392 9.69594 90.8455 9.69594C92.5517 9.69594 93.9224 8.26459 93.9224 6.50294C93.9224 4.68625 92.5517 3.24114 90.8455 3.24114ZM97.014 12.1458H94.0684V10.9346C93.1347 11.8568 91.852 12.3935 90.3792 12.3935C87.2442 12.3935 84.6628 9.83356 84.6628 6.48919C84.6628 3.11728 87.2582 0.557373 90.3792 0.557373C91.852 0.557373 93.1347 1.08036 94.0684 2.01624V0.805107H97.014V12.1458Z" fill="#501B4A"/>
<path d="M4.1121 20.9266L4.18501 21.7798C3.96628 21.8487 3.74755 21.9037 3.49966 21.9312C3.26635 21.9725 3.01845 21.9863 2.79973 21.9863C1.99772 21.9863 1.34154 21.7798 0.831172 21.3532C0.277056 20.899 0 20.2659 0 19.4539C0 18.6557 0.262475 18.0363 0.802004 17.5684C1.32695 17.1004 2.07063 16.8665 3.00387 16.8665C3.2226 16.8665 3.42675 16.8802 3.61632 16.9078C3.80588 16.9353 3.99544 16.9766 4.18501 17.0316L4.14126 17.8849C3.80588 17.7611 3.45591 17.6922 3.07679 17.6922C2.50809 17.6922 2.04147 17.8436 1.6915 18.1464C1.34154 18.4492 1.15197 18.8758 1.15197 19.4264C1.15197 20.0182 1.35612 20.4586 1.74983 20.7614C2.08521 21.0091 2.49351 21.133 2.98929 21.133C3.2226 21.133 3.42675 21.1192 3.60173 21.0779C3.77672 21.0504 3.9517 20.9954 4.1121 20.9266Z" fill="#75B843"/>
<path d="M5.10376 16.9215H6.32863L7.39313 19.0548L7.62645 19.5915L7.87432 19.0548L8.89506 16.9215H9.9741L7.83056 21.188C7.67021 21.4908 7.49518 21.6972 7.27647 21.8211C7.0869 21.9312 6.85358 21.9863 6.56196 21.9863C6.387 21.9863 6.25573 21.9725 6.12452 21.945C6.00784 21.9175 5.8766 21.8762 5.74537 21.8211L5.86202 21.0642C6.00784 21.133 6.16822 21.1742 6.32863 21.1742C6.47445 21.1742 6.59111 21.1605 6.66401 21.1192C6.78067 21.0779 6.86818 20.9815 6.92648 20.8302L7.0869 20.4999L5.10376 16.9215Z" fill="#75B843"/>
<path d="M11.1262 16.9215H15.4278V21.945H14.3342V17.7473H12.2052V21.945H11.1116V16.9215H11.1262Z" fill="#75B843"/>
<path d="M17.0615 16.9215H20.2696V17.8161H18.1552V18.9447H20.08V19.7704H18.1552V21.0504H20.2696V21.945H17.0615V16.9215Z" fill="#75B843"/>
<path d="M21.727 16.9215H23.3164C24.1039 16.9215 24.6725 17.1279 25.0225 17.5271C25.2558 17.7886 25.3725 18.1189 25.3725 18.4905C25.3725 18.9172 25.2267 19.2612 24.9204 19.564C24.5704 19.8943 24.1039 20.0594 23.506 20.0594H22.806V21.945H21.7124V16.9215H21.727ZM22.8207 19.2612H23.3164C23.6081 19.2612 23.8268 19.1786 23.9872 19.0272C24.1476 18.8758 24.2205 18.6832 24.2205 18.4492C24.2205 18.229 24.1476 18.0639 24.0164 17.9262C23.8559 17.7748 23.6226 17.6922 23.3018 17.6922H22.806V19.2612H22.8207Z" fill="#75B843"/>
<path d="M30.4468 21.945H29.4114L28.1137 18.3666L27.8658 17.6509L27.8512 18.4217V21.945H26.7576V16.9215H28.5949L29.6739 19.8393L29.9072 20.7339L30.1697 19.8393L31.2487 16.9215H33.0861V21.945H32.007V18.4217V17.6509L31.7445 18.3666L30.4468 21.945Z" fill="#75B843"/>
<path d="M36.4397 16.9215H37.6791L39.8081 21.945H38.5832L38.1312 20.8164H35.9147L35.4627 21.945H34.2961L36.4397 16.9215ZM36.2647 19.9906H37.8104L37.023 17.94L36.2647 19.9906Z" fill="#75B843"/>
<path d="M41.0187 16.9215H42.6081C43.3955 16.9215 43.9642 17.1279 44.3142 17.5271C44.5476 17.7886 44.6642 18.1189 44.6642 18.4905C44.6642 18.9172 44.5183 19.2612 44.2121 19.564C43.8622 19.8943 43.3955 20.0594 42.7977 20.0594H42.0978V21.945H41.0042V16.9215H41.0187ZM42.0978 19.2612H42.5935C42.8852 19.2612 43.1039 19.1786 43.2643 19.0272C43.4247 18.8758 43.4976 18.6832 43.4976 18.4492C43.4976 18.229 43.4247 18.0639 43.2935 17.9262C43.1331 17.7748 42.8998 17.6922 42.579 17.6922H42.0978V19.2612Z" fill="#75B843"/>
<path d="M46.0497 16.9215H47.1433V19.0685L49.1119 16.9215H50.4097L48.1641 19.1924L50.5409 21.9312H49.1557L47.1579 19.4401L47.1288 21.9312H46.0352V16.9215H46.0497Z" fill="#75B843"/>
<path d="M51.6782 16.9215H54.8862V17.8161H52.7719V18.9447H54.6966V19.7704H52.7719V21.0504H54.8862V21.945H51.6782V16.9215Z" fill="#75B843"/>
<path d="M55.937 16.9215H60.122V17.8161H58.5763V21.945H57.4827V17.8161H55.937V16.9215Z" fill="#75B843"/>
<path d="M64.5542 16.9215H65.6475V18.9447H67.8206V16.9215H68.9139V21.945H67.8206V19.7704H65.6475V21.945H64.5542V16.9215Z" fill="#75B843"/>
<path d="M72.2535 16.9215H73.4929L75.622 21.945H74.3973L73.9451 20.8164H71.7286L71.2764 21.945H70.1104L72.2535 16.9215ZM72.0787 19.9906H73.6242L72.8371 17.94L72.0787 19.9906Z" fill="#75B843"/>
<path d="M76.8318 16.9215H81.1334V21.945H80.0401V17.7473H77.911V21.945H76.8171V16.9215H76.8318Z" fill="#75B843"/>
<path d="M82.7525 16.9215H83.8464V19.4952L83.817 20.7063L84.2253 19.9769L86.1063 16.9077H87.4042V21.945H86.3104V19.3575L86.325 18.1464L85.9315 18.9034L84.0358 21.945H82.7231V16.9215H82.7525Z" fill="#75B843"/>
<path d="M88.6001 16.9215H92.7856V17.8161H91.2395V21.945H90.1462V17.8161H88.6001V16.9215Z" fill="#75B843"/>
<path d="M93.995 16.9215H95.0889V19.0685L97.0573 16.9215H98.3553L96.0948 19.1924L98.472 21.9312H97.0866L95.0889 19.4401L95.0596 21.9312H93.9663V16.9215H93.995Z" fill="#75B843"/>
<path d="M102.059 16.8665C102.832 16.8665 103.459 17.0866 103.94 17.5133C104.436 17.9675 104.698 18.6144 104.698 19.4263C104.698 20.2384 104.451 20.8715 103.94 21.3394C103.459 21.7798 102.832 22 102.059 22C101.286 22 100.659 21.7799 100.178 21.3532C99.6821 20.899 99.4199 20.2521 99.4199 19.4401C99.4199 18.6281 99.6674 17.995 100.178 17.5271C100.645 17.0866 101.272 16.8665 102.059 16.8665ZM102.059 17.5821C101.68 17.5821 101.359 17.6922 101.111 17.9124C100.761 18.229 100.586 18.7245 100.586 19.4263C100.586 20.1283 100.761 20.6237 101.111 20.9403C101.374 21.1605 101.68 21.2706 102.059 21.2706C102.438 21.2706 102.759 21.1605 103.007 20.9403C103.357 20.6237 103.531 20.1283 103.531 19.4263C103.531 18.7245 103.357 18.229 103.007 17.9124C102.759 17.6922 102.438 17.5821 102.059 17.5821Z" fill="#75B843"/>
<path d="M106.113 16.9215H107.878C108.3 16.9215 108.665 16.9766 108.942 17.1004C109.423 17.3069 109.657 17.6647 109.657 18.1602C109.657 18.5042 109.554 18.7933 109.336 18.9997C109.19 19.1373 109 19.2475 108.781 19.3163C109.102 19.3713 109.38 19.4952 109.598 19.7154C109.817 19.9218 109.919 20.1971 109.919 20.5274C109.919 20.8852 109.788 21.188 109.54 21.4357C109.176 21.7798 108.607 21.945 107.805 21.945H106.113V16.9215ZM107.207 17.706V18.9584H107.746C108.067 18.9584 108.3 18.8758 108.446 18.7245C108.548 18.6143 108.592 18.4905 108.592 18.3391C108.592 18.1877 108.548 18.05 108.446 17.9537C108.3 17.8024 108.052 17.7197 107.703 17.7197H107.207V17.706ZM107.207 19.7429V21.1467H107.819C108.126 21.1467 108.359 21.0779 108.534 20.954C108.694 20.8302 108.781 20.6512 108.781 20.4448C108.781 20.142 108.651 19.9494 108.388 19.8393C108.228 19.7704 108.052 19.7429 107.834 19.7429H107.207Z" fill="#75B843"/>
</g>
</g>
<defs>
<clipPath id="clip0_826_27555">
<rect width="110" height="22" fill="white"/>
</clipPath>
</defs>
</svg>
