<svg width="110" height="32" viewBox="0 0 110 32" fill="none" xmlns="http://www.w3.org/2000/svg">
<path fill-rule="evenodd" clip-rule="evenodd" d="M34.7684 26.0988H30.7936L32.6045 23.122L28.1098 15.6541H32.1402L34.4805 20.0933L36.8207 15.6541H40.7954L34.7684 26.0988Z" fill="#253081"/>
<path fill-rule="evenodd" clip-rule="evenodd" d="M85.0093 26.0988H80.0316C77.2456 26.0988 75.1189 23.9874 75.1189 21.0106C75.1189 17.653 77.2827 15.6541 80.0316 15.6541H85.0093V18.2501H81.7589C79.8273 18.2501 78.7222 18.7953 78.7222 20.9586C78.7222 23.122 79.9016 23.5028 81.7589 23.5028H85.0093V26.0988Z" fill="#253081"/>
<path fill-rule="evenodd" clip-rule="evenodd" d="M98.0478 26.0988H94.361V18.7347L90.1541 26.0988H85.7615V15.6541H89.3926V22.8018L93.5995 15.6541H98.0478V26.0988Z" fill="#253081"/>
<path fill-rule="evenodd" clip-rule="evenodd" d="M50.6209 26.0988L55.3571 15.6541H59.4525L63.3715 24.3162L67.2905 15.6541H71.321L76.0572 26.0988H72.1939L69.3336 18.5789L66.4083 26.0988H64.133H62.545H60.3255L59.4525 23.9354H55.3571L54.4842 26.0988H50.6209Z" fill="#253081"/>
<path fill-rule="evenodd" clip-rule="evenodd" d="M57.4 18.5791L56.2299 21.5559H58.5701L57.4 18.5791Z" fill="white"/>
<path fill-rule="evenodd" clip-rule="evenodd" d="M44.7144 26.0988H41.0833V15.6541H48.6334C49.1486 15.6044 49.6691 15.6631 50.1567 15.8256C50.6443 15.9882 51.0866 16.2506 51.451 16.5935C51.8154 16.9364 52.0927 17.351 52.2624 17.807C52.4321 18.2629 52.49 18.7485 52.4317 19.228C52.4317 19.9289 52.4317 23.0701 48.6334 23.0701H44.7144V26.0988Z" fill="#253081"/>
<path fill-rule="evenodd" clip-rule="evenodd" d="M44.7142 20.474H47.3424C47.751 20.474 48.8097 20.474 48.8097 19.3318C48.8097 18.1895 47.751 18.2501 47.3424 18.2501H44.7142V20.474Z" fill="white"/>
<path fill-rule="evenodd" clip-rule="evenodd" d="M109.452 15.6541V18.2501H102.431V19.6H106.146C110 19.6 110 21.6596 110 22.8018C110 23.9441 110 26.0988 106.202 26.0988H98.7724V15.6541H109.452Z" fill="#253081"/>
<path fill-rule="evenodd" clip-rule="evenodd" d="M102.431 22.0404V23.6673H105.533C106.35 23.6673 106.35 23.0702 106.35 22.8019C106.35 22.5337 106.35 22.0404 105.533 22.0404H102.431Z" fill="white"/>
<path fill-rule="evenodd" clip-rule="evenodd" d="M11.7281 10.4534C12.0084 10.4332 12.2901 10.4685 12.5546 10.5572L12.4896 3.46139H13.4183C13.3726 5.88168 13.4687 8.30248 13.7062 10.713C15.8629 11.1498 17.8318 12.1734 19.3634 13.6541C20.8949 15.1348 21.9202 17.006 22.3091 19.0303C22.698 21.0547 22.4332 23.141 21.548 25.0249C20.6629 26.9088 19.1974 28.5054 17.3373 29.6122C17.2816 29.5603 17.1608 29.3959 17.0401 29.292C13.7062 25.3374 12.889 19.4357 12.6568 14.2869C13.1186 14.3877 13.587 14.46 14.0591 14.5032C14.7594 18.8835 16.8634 22.9644 20.0954 26.2114C21.2749 24.8831 21.8801 23.1925 21.7925 21.4704C21.7049 19.7483 20.9308 18.1186 19.6218 16.9002C18.1747 15.4442 16.3078 14.4077 14.2448 13.9148C13.2688 13.6957 12.2677 13.5882 11.2638 13.5946C10.2602 13.5942 9.25992 13.7017 8.28275 13.9148C3.95515 14.9446 0.741944 18.0858 0.741944 21.8241C0.775074 23.4108 1.34732 24.9468 2.3764 26.2114C5.62461 22.9803 7.72581 18.8952 8.39419 14.5119C8.88725 14.4654 9.37712 14.3932 9.86149 14.2956C9.62932 19.4444 8.81209 25.2941 5.47816 29.2401V29.1882C5.37351 29.3412 5.25548 29.4859 5.12527 29.6209C3.26503 28.5085 1.8018 26.9058 0.92164 25.0165C0.0414782 23.1272 -0.215862 21.0366 0.18234 19.0107C0.580541 16.9848 1.6163 15.115 3.15791 13.639C4.69953 12.163 6.67737 11.1475 8.83995 10.7217C9.1557 5.41708 9.09998 3.46139 9.09998 3.46139H10.0287L9.97293 10.5572C10.2162 10.4735 10.4756 10.4381 10.7344 10.4534V0H11.7281V10.4534ZM11.7931 14.2436C11.9046 19.1675 12.2575 25.346 14.0126 29.517C14.2215 29.9786 14.4571 30.4292 14.7184 30.867C13.5933 31.1629 12.4326 31.3258 11.2638 31.3516C10.0943 31.3335 8.93252 31.1705 7.80913 30.867C8.1063 30.3305 8.33847 29.8372 8.57064 29.3526C10.2144 25.2335 10.6787 19.1155 10.7344 14.2436H11.7931Z" fill="#253081"/>
</svg>
