<svg width="110" height="20" viewBox="0 0 110 20" fill="none" xmlns="http://www.w3.org/2000/svg">
<g clip-path="url(#clip0_928_1213)">
<path d="M61.555 6.10352e-05V5.84635C61.4995 6.67361 61.2624 7.48573 60.188 7.48573V9.62954C63.8249 9.62954 63.9409 8.23732 63.9409 5.84635V2.14387H68.3799V9.62449H70.8566V6.10352e-05H61.555Z" fill="#1F3B84"/>
<path d="M47.9959 3.07201C47.9959 0.040415 45.2972 0.040415 43.0525 6.10352e-05H37.8872V9.62449H40.3639V6.14396H43.0525C45.2972 6.10361 48.0009 6.10361 48.0009 3.07201M42.9617 4.29776H40.3639V1.84626H42.9617C44.7676 1.84626 45.504 1.84626 45.504 3.07201C45.504 4.29776 44.7676 4.29776 42.9617 4.29776Z" fill="#1F3B84"/>
<path d="M31.3904 4.5298L28.6615 6.10352e-05H25.5542L29.9427 6.98635L28.4446 9.62449H31.4106L37.0097 6.10352e-05H34.0487L31.3904 4.5298Z" fill="#1F3B84"/>
<path d="M51.532 6.10352e-05L47.1133 9.62449H49.7968L50.614 7.7783H55.7137L56.5612 9.62449H59.4112L54.8209 6.10352e-05H51.5371H51.532ZM51.4312 5.9321L53.1159 2.11865L54.8713 5.9321H51.4362H51.4312Z" fill="#1F3B84"/>
<path d="M106.081 6.10352e-05L103.115 7.66228L100.154 6.10352e-05H96.2291V9.62449H98.7008V2.65838L101.521 9.62449H104.658L107.523 2.53732V9.62449H110V6.10352e-05H106.081Z" fill="#1F3B84"/>
<path d="M86.6703 6.65847V6.10352e-05H84.1936V9.62449H86.9175L92.0374 3.07201V9.62449H94.5141V6.10352e-05H91.7549L86.6703 6.65847Z" fill="#1F3B84"/>
<path d="M80.1633 6.10352e-05L77.6412 2.96608L75.2098 6.10352e-05H71.9866L76.027 4.86776L71.9866 9.62449H74.7609L77.394 6.5929L79.8859 9.62449H83.1091L79.0283 4.70635L83.1091 6.10352e-05H80.1633Z" fill="#1F3B84"/>
<path d="M47.0477 14.4166V17.7004C47.0175 18.1644 46.8813 18.6184 46.281 18.6184V19.824C48.3239 19.824 48.3895 19.0421 48.3895 17.7004V15.6221H50.8864V19.824H52.2786V14.4166H47.0528H47.0477Z" fill="#1F3B84"/>
<path d="M39.4309 16.1417C39.4309 14.4367 37.9126 14.4367 36.6515 14.4166H33.7511V19.824H35.1433V17.8668H36.6566C37.9176 17.8467 39.436 17.8416 39.436 16.1417M36.6061 16.8277H35.1484V15.4506H36.6061C37.62 15.4506 38.0337 15.4506 38.0337 16.1367C38.0337 16.8227 37.62 16.8227 36.6061 16.8227" fill="#1F3B84"/>
<path d="M41.4183 14.4166L38.9365 19.824H40.4448L40.9038 18.7849H43.7689L44.2481 19.824H45.8522L43.2695 14.4166H41.4233H41.4183ZM41.3628 17.7458L42.3061 15.602L43.2897 17.7458H41.3578H41.3628Z" fill="#1F3B84"/>
<path d="M30.1041 16.9639L28.5706 14.4166H26.8253L29.2869 18.341L28.4445 19.824H30.1142L33.2618 14.4166H31.5921L30.1041 16.9639Z" fill="#1F3B84"/>
<path d="M54.619 14.4166H53.2268V19.824H54.619V17.1203V14.4166Z" fill="#E63C33"/>
<path d="M57.0606 14.4166L54.6191 17.1203L57.0606 19.824H58.937L56.3846 17.1203L58.937 14.4166H57.0606Z" fill="#E63C33"/>
<path d="M74.8971 18.1594V14.4166H73.5099V19.824H75.0383L77.9135 16.1417V19.824H79.3057V14.4166H77.7571L74.8971 18.1594Z" fill="#E63C33"/>
<path d="M84.5064 14.4166L81.6513 18.1594V14.4166H80.2642V19.824H81.7926L84.6678 16.1417V19.824H86.055V14.4166H84.5064Z" fill="#E63C33"/>
<path d="M67.3257 17.7004C67.2954 18.1644 67.1592 18.6184 66.559 18.6184V19.824C68.6019 19.824 68.6675 19.0421 68.6675 17.7004V15.6221H71.1644V19.824H72.5566V14.4166H67.3307V17.7004H67.3257Z" fill="#E63C33"/>
<path d="M61.6961 14.4166L59.2144 19.824H60.7226L61.1816 18.7849H64.0467L64.526 19.824H66.13L63.5474 14.4166H61.7012H61.6961ZM61.6406 17.7458L62.5839 15.602L63.5675 17.7458H61.6356H61.6406Z" fill="#E63C33"/>
<path d="M83.1595 13.9827C84.3348 13.9827 84.7787 13.5439 84.8039 12.762H84.0069C83.9867 13.0294 83.8707 13.2009 83.4571 13.2715C83.3713 13.2866 83.2503 13.2917 83.1645 13.2917C83.0788 13.2917 82.9577 13.2866 82.872 13.2715C82.4533 13.2059 82.3373 13.0294 82.3221 12.762H81.5251C81.5554 13.5439 81.9993 13.9827 83.1696 13.9827" fill="#E63C33"/>
<path d="M16.9639 14.1038C15.385 14.1038 14.1038 15.3851 14.1038 16.9639C14.1038 18.5428 15.385 19.824 16.9639 19.824C18.5427 19.824 19.8239 18.5428 19.8239 16.9639C19.8239 15.3851 18.5427 14.1038 16.9639 14.1038Z" fill="#E63C33"/>
<path d="M12.5533 3.95246C13.1578 2.49312 12.4648 0.820055 11.0055 0.215574C9.54612 -0.388907 7.87306 0.304098 7.26858 1.76344C6.6641 3.22279 7.35711 4.89585 8.81645 5.50033C10.2758 6.10481 11.9489 5.41181 12.5533 3.95246Z" fill="#B8B4B7"/>
<path d="M5.50451 11.0071C6.10899 9.5478 5.41599 7.87474 3.95664 7.27026C2.4973 6.66578 0.824234 7.35879 0.219753 8.81813C-0.384727 10.2775 0.308278 11.9505 1.76762 12.555C3.22697 13.1595 4.90003 12.4665 5.50451 11.0071Z" fill="#B8B4B7"/>
<path d="M16.9639 7.05194C15.385 7.05194 14.1038 8.33318 14.1038 9.91203C14.1038 11.4909 15.385 12.7721 16.9639 12.7721C18.5427 12.7721 19.8239 11.4909 19.8239 9.91203C19.8239 8.33318 18.5427 7.05194 16.9639 7.05194Z" fill="#B8B4B7"/>
<path d="M9.91197 14.1038C8.33312 14.1038 7.05188 15.3851 7.05188 16.9639C7.05188 18.5428 8.33312 19.824 9.91197 19.824C11.4908 19.824 12.7721 18.5428 12.7721 16.9639C12.7721 15.3851 11.4908 14.1038 9.91197 14.1038Z" fill="#B8B4B7"/>
<path d="M5.73029 16.8428C5.82613 16.0004 5.93206 15.042 6.96109 14.013C7.84888 13.1252 8.78207 12.9789 9.68499 12.8427C10.4971 12.7166 11.2638 12.6006 11.9347 11.9348C12.6006 11.2689 12.7216 10.4972 12.8427 9.68503C12.9789 8.7821 13.1252 7.84892 14.013 6.96113C15.042 5.9321 16.0004 5.82617 16.8428 5.73033C17.5893 5.64458 18.3006 5.56892 18.9866 4.8829C19.6171 4.25237 19.9147 3.37971 19.7987 2.48688C19.723 1.87148 19.4305 1.28635 18.9815 0.837407C18.5326 0.388468 17.9475 0.100946 17.3321 0.0252823C16.4392 -0.0856913 15.5666 0.21192 14.9361 0.837407C14.25 1.52343 14.1693 2.23466 14.0886 2.98121C13.9928 3.8236 13.8868 4.78201 12.8578 5.81104C11.97 6.69883 10.7392 7.13768 9.48826 7.01662C8.53994 6.92582 7.64206 6.49706 6.96109 5.81104C5.93206 4.78201 5.82613 3.8236 5.73029 2.98121C5.64454 2.23466 5.56888 1.52847 4.87781 0.837407C4.34312 0.297672 3.61675 6.10352e-05 2.86011 6.10352e-05C2.73905 6.10352e-05 2.61294 0.0101495 2.48684 0.0252823C1.87144 0.100946 1.28631 0.388468 0.837368 0.837407C0.38843 1.28635 0.100908 1.87148 0.0252439 2.48688C-0.0857297 3.37971 0.211881 4.25237 0.837368 4.8829C1.52339 5.56892 2.22958 5.64962 2.98118 5.73538C3.82357 5.83122 4.78197 5.93715 5.811 6.96617C6.49702 7.65219 6.92578 8.55007 7.01658 9.49334C7.13764 10.7443 6.69879 11.9751 5.811 12.8629C4.78197 13.8919 3.82357 13.9979 2.98118 14.0937C2.23463 14.1795 1.52339 14.2551 0.837368 14.9411C0.206837 15.5717 -0.0907739 16.4443 0.0252439 17.3372C0.100908 17.9526 0.393474 18.5377 0.842413 18.9866C1.29135 19.4356 1.87648 19.7231 2.49188 19.8038C3.38472 19.9148 4.25737 19.6222 4.8879 18.9917C5.57392 18.3057 5.65463 17.5944 5.73534 16.8479L5.73029 16.8428Z" fill="#1F3B84"/>
</g>
<defs>
<clipPath id="clip0_928_1213">
<rect width="110" height="19.8239" fill="white"/>
</clipPath>
</defs>
</svg>
