<svg width="110" height="20" viewBox="0 0 110 20" fill="none" xmlns="http://www.w3.org/2000/svg">
<path d="M36.8737 1.63763V14.1046C36.8737 16.8518 34.2901 18.9409 30.8779 18.9409C27.4658 18.9409 24.8822 16.8518 24.8822 14.1046V4.56705C24.8822 2.95469 26.2722 1.63763 28.0019 1.63763H28.2219V14.0818C28.2219 15.5575 29.6346 16.4662 31.0001 16.4662C32.3159 16.4662 33.7295 15.6258 33.7295 14.0818V4.40841C33.7295 2.88637 35.0706 1.63763 36.7034 1.63763H36.8737Z" fill="black"/>
<path d="M43.453 6.04291C48.0099 6.04291 48.7415 8.42728 48.7415 9.85822V18.7596H48.5957C46.9141 18.7596 45.4761 17.4425 45.4761 15.8749V9.90378C45.4761 9.06341 45.1102 8.06367 43.3308 8.06367C42.5022 8.06367 42.015 8.15471 41.4789 8.33617V18.7596H38.2126V6.97432C39.6017 6.40652 41.8447 6.04291 43.453 6.04291Z" fill="black"/>
<path d="M53.4082 6.04301V15.8986C53.4082 17.4646 52.0427 18.7597 50.3374 18.7597H50.1908V6.04301H53.4082ZM51.7999 1.63788C52.7743 1.63788 53.554 2.31877 53.554 3.15911C53.554 3.97668 52.7743 4.63483 51.7999 4.63483C50.8246 4.63483 50.0205 3.97668 50.0205 3.15911C50.0205 2.31877 50.8246 1.63788 51.7999 1.63788Z" fill="black"/>
<path d="M62.6881 1.38806C64.2231 1.38806 65.6611 1.70613 66.8555 2.38704V5.38481C66.1247 4.4989 65.0761 3.88552 63.3945 3.88552C60.0801 3.88552 58.0327 6.92885 58.0327 10.0852C58.0327 13.0602 60.1779 16.3069 63.3945 16.3069C64.8081 16.3069 66.1003 15.9213 66.8555 14.9671V17.9193C65.9047 18.5782 64.4187 18.9411 62.6629 18.9411C57.3996 18.9411 54.6205 14.4456 54.6205 10.108C54.6205 5.83873 57.3996 1.38806 62.6881 1.38806Z" fill="black"/>
<path d="M72.6268 6.04301C73.1629 6.04301 73.8457 6.08866 74.4551 6.17882V8.60871C73.3332 7.85947 71.8463 8.10924 71.1888 8.42728V15.8985C71.1888 17.4645 69.7996 18.7596 68.118 18.7596H67.9469V7.01913C69.2147 6.45131 70.506 6.04291 72.6268 6.04291" fill="black"/>
<path d="M82.9363 10.8117C82.8386 8.2907 81.1569 8.01896 80.2549 8.01896H80.1335C78.3053 8.0637 77.4522 9.2677 77.4522 11.5154L82.9363 10.8117ZM85.7634 12.5372L77.6469 13.5817C77.915 15.6481 79.0361 16.7381 81.0835 16.7381C83.3501 16.7381 84.4957 16.0572 85.3243 15.5122V18.0324C84.4957 18.4416 82.9599 18.9411 80.7666 18.9411C76.7939 18.9411 74.4303 16.4429 74.4303 12.4461C74.4303 8.56324 76.6236 6.04297 80.2305 6.04297C83.7893 6.04297 85.7634 8.24594 85.7634 12.0605V12.5372Z" fill="black"/>
<path d="M94.2731 8.49542C93.9317 8.40437 93.5667 8.35961 93.152 8.35961C90.4706 8.35961 89.9101 10.766 89.9101 12.7647C89.9101 15.5575 90.9098 16.9429 92.9328 16.9429C93.2734 16.9429 94.0295 16.8746 94.2731 16.8289V8.49542ZM97.4661 1.63757V18.6C96.6855 18.7594 94.1264 18.9408 93.0542 18.9408H92.8351C88.8624 18.8952 86.6935 16.7606 86.6935 12.9233C86.6935 9.04046 88.9602 6.5422 92.4693 6.5422C93.152 6.5422 93.737 6.61056 94.2487 6.72455V4.52154C94.2487 2.93196 95.6134 1.63768 97.3194 1.63768L97.4661 1.63757Z" fill="black"/>
<path d="M102.205 6.04301V15.8986C102.205 17.4646 100.84 18.7597 99.1338 18.7597H98.9871V6.04301H102.205ZM100.595 1.63788C101.571 1.63788 102.351 2.31877 102.351 3.15911C102.351 3.97668 101.571 4.63483 100.595 4.63483C99.621 4.63483 98.8169 3.97668 98.8169 3.15911C98.8169 2.31877 99.621 1.63788 100.595 1.63788Z" fill="black"/>
<path d="M107.904 1.63755V6.04268H110V8.47261H107.904V15.2174C107.904 16.0342 108.196 16.2839 109.146 16.2839C109.39 16.2839 109.756 16.2155 110 16.1251V18.6454C109.853 18.6911 109.219 18.9407 108.366 18.9407C105.978 18.9407 104.662 17.8514 104.662 15.8754V8.47251H103.248V6.04258H104.662V4.49855C104.662 2.93175 106.026 1.63745 107.709 1.63745L107.904 1.63755Z" fill="black"/>
<path fill-rule="evenodd" clip-rule="evenodd" d="M11.0583 5.11289L11.0777 5.08707C11.2412 4.86403 11.1729 4.6991 11.0633 4.61034L9.34636 3.62383C9.22751 3.54925 9.14911 3.42281 9.14911 3.27829C9.14911 3.05054 9.29494 2.87851 9.62706 2.79289C10.6858 2.52196 14.4098 2.37982 15.675 2.37982C16.1142 2.37982 16.8703 2.37824 17.5488 2.39538L17.5193 2.36868C15.6641 0.891388 13.2558 0 10.6234 0C4.75578 0 0 4.43105 0 9.89801C0 12.3012 0.918789 14.5042 2.44785 16.2186C3.7822 14.4311 7.07635 10.0229 7.79874 9.12285C8.6307 8.08538 10.5273 5.77715 10.8484 5.38604L10.8644 5.36824L11.0583 5.11289Z" fill="#E2001A"/>
<path fill-rule="evenodd" clip-rule="evenodd" d="M4.14564 17.7452C5.93854 19.0316 8.18493 19.7974 10.6235 19.7974C16.4911 19.7974 21.2469 15.3663 21.2469 9.89935C21.2469 8.24459 20.8119 6.68559 20.0415 5.31513L20.0423 5.31591C20.4082 4.98763 20.8296 4.46772 20.5523 3.81666C20.4663 3.62275 20.0533 3.18284 19.9471 3.07605L19.9614 3.11369C20.2202 3.84093 19.7086 4.29643 19.341 4.60666C19.1396 4.77697 16.4422 7.14655 13.2787 9.72414C10.4903 11.9954 7.37151 14.3068 5.56512 15.5673C3.02371 17.3399 2.52891 17.5974 2.52891 17.5974C2.46232 17.6313 2.35021 17.6603 2.26761 17.6603C2.11251 17.6603 1.97765 17.595 1.89252 17.4922L1.88987 17.4877L1.88391 17.5639C2.15618 17.9746 2.60798 18.4513 2.87097 18.4513C2.95357 18.4513 3.06567 18.4224 3.13311 18.3892C3.13311 18.3892 3.33204 18.2855 4.14548 17.7444" fill="#E2001A"/>
<path fill-rule="evenodd" clip-rule="evenodd" d="M11.0728 5.08697C11.2363 4.86479 11.1681 4.699 11.0585 4.61024L9.34145 3.62464C9.2226 3.55006 9.1442 3.42362 9.1442 3.27829C9.1442 3.05132 9.29001 2.8793 9.62213 2.79293C10.6817 2.52197 14.4049 2.3806 15.6701 2.3806C16.2677 2.3806 17.4504 2.37615 18.2292 2.42446C19.1025 2.47789 19.7659 2.64597 19.9303 3.04019C20.2531 3.81143 19.7187 4.28735 19.3385 4.6078C19.1371 4.77899 16.4397 7.14846 13.2771 9.72527C10.4878 11.9966 7.369 14.3087 5.56261 15.5692C3.0212 17.341 2.52724 17.5986 2.52724 17.5986C2.45981 17.6324 2.3477 17.6614 2.26594 17.6614C2.0021 17.6614 1.79559 17.4737 1.79559 17.2278C1.79559 17.1343 1.82594 17.0473 1.87819 16.9765C1.87819 16.9765 6.88347 10.2593 7.79383 9.12363C8.70418 7.98798 10.8907 5.33108 10.8907 5.33108C10.8907 5.33108 10.916 5.30058 11.0728 5.08684" fill="white"/>
</svg>
