<svg width="110" height="23" viewBox="0 0 110 23" fill="none" xmlns="http://www.w3.org/2000/svg">
<path d="M65.0372 13.8901H67.5733V3.97461H60.1368V5.1713C60.1368 9.48794 59.578 11.112 57.8586 11.7104V13.8473C58.5034 13.7618 62.458 13.1208 62.501 6.70991V6.06882H65.1231V13.8901H65.0372Z" fill="#EB5F0A"/>
<path d="M50.8519 13.8901H53.388V6.1543H57.9875V3.97461H50.8519V13.8901Z" fill="#EB5F0A"/>
<path d="M75.2675 3.88904H72.7744L68.6048 13.89H71.2699L72.0436 12.0522H75.9553L76.729 13.89H79.4371L75.2675 3.88904ZM72.7744 10.1289L74.021 7.00898L75.2675 10.1289H72.7744Z" fill="#EB5F0A"/>
<path d="M92.6338 3.97461H90.0977V13.8901H92.5048L96.9324 8.12029V13.8901H99.4255V3.97461H97.0183L92.6338 9.87259V3.97461Z" fill="#EB5F0A"/>
<path d="M109.441 9.91533V7.99208H104.24V6.32525H109.914V3.97461H101.747V13.8901H110V11.7531H104.24V9.91533H109.441Z" fill="#EB5F0A"/>
<path d="M44.2752 3.80379C42.5128 3.80379 40.9653 4.65856 39.9766 5.98347C38.859 7.47934 37.3975 11.5823 34.3885 11.5823C32.4971 11.5823 31.4655 10.1719 31.5944 8.71877C31.7234 7.22291 33.013 6.11169 34.4745 6.23991C35.2912 6.28265 35.979 6.71004 36.4518 7.35113L37.9563 5.29965C37.0966 4.44487 35.979 3.88927 34.6894 3.80379C31.8094 3.59009 29.3592 5.72704 29.1443 8.59055C28.9293 11.4541 31.0786 13.8902 33.9587 14.1039C34.1306 14.1039 34.3455 14.1039 34.5175 14.1039H34.5604C35.764 14.1039 37.1396 13.591 38.0423 12.9072C38.73 12.3943 39.2459 11.8387 39.6757 11.2831C40.5354 12.9499 42.3408 14.1039 44.3611 14.1039C47.2412 14.1039 49.5624 11.796 49.5624 8.93247C49.4764 6.11169 47.1552 3.80379 44.2752 3.80379ZM45.0489 11.4968C44.791 11.5823 44.5331 11.625 44.2322 11.625C43.1146 11.625 42.1689 10.9412 41.739 10.0009C41.6101 9.65903 41.5241 9.31711 41.5241 8.9752C41.5241 8.59055 41.6101 8.24864 41.739 7.94947C42.1689 6.96647 43.1146 6.32539 44.2322 6.32539C44.4901 6.32539 44.791 6.36813 45.0489 6.4536C46.1665 6.79552 46.9403 7.77851 46.9403 9.01794C46.9833 10.1719 46.1665 11.1549 45.0489 11.4968Z" fill="#EB5F0A"/>
<path d="M86.8309 10.8128L86.6159 11.0265C86.1001 11.4966 85.4553 11.7103 84.7675 11.7103C83.2201 11.7103 81.9735 10.4709 81.9735 8.93226C81.9735 7.39365 83.2201 6.15422 84.7675 6.15422C85.5413 6.15422 86.315 6.49613 86.8309 7.09448L86.9168 7.009L88.1634 5.29944C87.2177 4.35919 85.9282 3.84631 84.6386 3.84631C81.8016 3.84631 79.5233 6.15422 79.5233 8.93226C79.5233 11.753 81.8445 14.0182 84.6386 14.0182C86.0571 14.0182 87.4326 13.4198 88.4213 12.3086L86.8309 10.8128Z" fill="#EB5F0A"/>
<path d="M66.7134 21.1128C65.9397 21.1128 65.3809 20.4717 65.3809 19.7024C65.3809 18.9331 65.9397 18.292 66.6704 18.292C67.1433 18.292 67.4872 18.5057 67.7881 18.8049L68.1319 18.4203C67.7881 18.0783 67.3582 17.7792 66.6704 17.7792C65.5958 17.7792 64.8221 18.634 64.8221 19.6597C64.8221 20.6854 65.6388 21.5402 66.6704 21.5402C67.3582 21.5402 67.7881 21.241 68.1749 20.8564L67.831 20.5145C67.5301 20.8564 67.1863 21.1128 66.7134 21.1128Z" fill="#EB5F0A"/>
<path d="M71.7857 17.8649H68.6477V18.3777H69.9373V21.4977H70.4961V18.3777H71.7857V17.8649Z" fill="#EB5F0A"/>
<path d="M74.5369 17.8221C73.8491 17.8221 73.4192 18.2068 73.1613 18.6342V17.9076H72.6025V22.6516H73.1613V20.8566C73.4622 21.2413 73.8921 21.6259 74.5369 21.6259C75.3966 21.6259 76.2563 20.9421 76.2563 19.7454C76.2563 18.506 75.3966 17.8221 74.5369 17.8221ZM74.4079 21.0703C73.7202 21.0703 73.0754 20.5147 73.0754 19.6599C73.0754 18.8051 73.7202 18.2495 74.4079 18.2495C75.0957 18.2495 75.6975 18.8051 75.6975 19.6599C75.6975 20.5574 75.1387 21.0703 74.4079 21.0703Z" fill="#EB5F0A"/>
<path d="M78.7495 17.8221C78.2337 17.8221 77.8468 17.9504 77.417 18.1213L77.5889 18.5487C77.9328 18.3777 78.2767 18.2923 78.7065 18.2923C79.3943 18.2923 79.7812 18.6342 79.7812 19.2753V19.4035C79.4373 19.318 79.1364 19.2325 78.6636 19.2325C77.7609 19.2325 77.1161 19.6172 77.1161 20.4292C77.1161 21.1985 77.8038 21.5832 78.4916 21.5832C79.1364 21.5832 79.5662 21.284 79.7812 20.9848V21.5404H80.297V19.2753C80.297 18.8051 80.168 18.4632 79.9101 18.2068C79.6522 17.9504 79.2653 17.8221 78.7495 17.8221ZM79.7812 20.1728C79.7812 20.7284 79.2224 21.1558 78.5776 21.1558C78.1047 21.1558 77.6749 20.8993 77.6749 20.4292C77.6749 20.0018 78.0617 19.7027 78.7495 19.7027C79.1794 19.7027 79.5233 19.7881 79.8242 19.8736V20.1728H79.7812Z" fill="#EB5F0A"/>
<path d="M82.876 19.2753L81.8013 17.8649H81.1995L82.5751 19.6599L81.1136 21.4977H81.7584L82.876 20.0018L83.9936 21.4977H84.6384L83.1769 19.6599L84.5524 17.8649H83.9506L82.876 19.2753Z" fill="#EB5F0A"/>
<path d="M86.9168 17.8221C85.7992 17.8221 85.0254 18.6769 85.0254 19.7027C85.0254 20.7284 85.7992 21.5832 86.9168 21.5832C88.0344 21.5832 88.8081 20.7284 88.8081 19.7027C88.8081 18.6769 87.9914 17.8221 86.9168 17.8221ZM86.9168 21.113C86.143 21.113 85.5842 20.472 85.5842 19.7027C85.5842 18.9334 86.143 18.2923 86.9168 18.2923C87.6905 18.2923 88.2493 18.9334 88.2493 19.7027C88.2493 20.472 87.6905 21.113 86.9168 21.113Z" fill="#EB5F0A"/>
<path d="M92.118 19.617C92.4189 19.4888 92.7197 19.2751 92.7197 18.805C92.7197 18.2494 92.2469 17.9075 91.5162 17.9075H89.7537V21.5403H91.5591C92.3759 21.5403 92.8917 21.1556 92.8917 20.5573C92.8917 20.0017 92.5478 19.7452 92.118 19.617ZM90.3126 18.3349H91.4302C91.903 18.3349 92.1609 18.5486 92.1609 18.8477C92.1609 19.2324 91.86 19.4461 91.4302 19.4461H90.3126V18.3349ZM91.5162 21.0274H90.3126V19.8735H91.4732C92.075 19.8735 92.3759 20.0872 92.3759 20.4291C92.3329 20.8137 92.032 21.0274 91.5162 21.0274Z" fill="#EB5F0A"/>
<path d="M95.2558 17.8221C94.74 17.8221 94.3531 17.9504 93.9233 18.1213L94.0952 18.5487C94.4391 18.3777 94.783 18.2923 95.2128 18.2923C95.9006 18.2923 96.2875 18.6342 96.2875 19.2753V19.4035C95.9436 19.318 95.6427 19.2325 95.1698 19.2325C94.2671 19.2325 93.6224 19.6172 93.6224 20.4292C93.6224 21.1985 94.3101 21.5832 94.9979 21.5832C95.6427 21.5832 96.0725 21.284 96.2875 20.9848V21.5404H96.8033V19.2753C96.8033 18.8051 96.6743 18.4632 96.4164 18.2068C96.1585 17.9504 95.7716 17.8221 95.2558 17.8221ZM96.2875 20.1728C96.2875 20.7284 95.7286 21.1558 95.0839 21.1558C94.611 21.1558 94.1812 20.8993 94.1812 20.4292C94.1812 20.0018 94.568 19.7027 95.2558 19.7027C95.6857 19.7027 96.0295 19.7881 96.3304 19.8736V20.1728H96.2875Z" fill="#EB5F0A"/>
<path d="M98.4799 17.8649H97.9641V21.4977H98.4799V19.9163H100.586V21.4977H101.145V17.8649H100.586V19.4462H98.4799V17.8649Z" fill="#EB5F0A"/>
<path d="M102.864 21.4977L105.014 18.6342V21.4977H105.572V17.8649H105.057L102.864 20.7284V17.8649H102.348V21.4977H102.864Z" fill="#EB5F0A"/>
<path d="M108.28 17.8221C107.292 17.8221 106.518 18.6769 106.518 19.7027C106.518 20.8139 107.335 21.5832 108.323 21.5832C109.011 21.5832 109.441 21.3267 109.828 20.8994L109.484 20.6002C109.183 20.8994 108.839 21.113 108.323 21.113C107.679 21.113 107.12 20.6857 107.034 19.9164H109.914C109.914 19.8309 109.914 19.7881 109.914 19.7454C110 18.6769 109.355 17.8221 108.28 17.8221ZM107.12 19.489C107.206 18.8051 107.679 18.2923 108.28 18.2923C109.011 18.2923 109.398 18.8479 109.441 19.489H107.12Z" fill="#EB5F0A"/>
<path d="M17.753 0.0427416C16.2055 0.0427416 14.6581 0.427391 13.3255 1.19669C11.993 0.427391 10.4455 0 8.898 0C3.99765 0 0 3.97473 0 8.84697C0 13.7192 3.99765 17.6939 8.898 17.6939C10.4455 17.6939 11.993 17.2666 13.3255 16.4972C14.6581 17.2666 16.2055 17.6512 17.753 17.6512C22.6534 17.6512 26.651 13.6765 26.651 8.80423C26.651 3.97473 22.6534 0.0427416 17.753 0.0427416ZM6.10394 8.84697C5.97499 9.23163 5.932 9.61627 5.932 10.0009C5.932 12.0951 7.65142 13.8047 9.75771 13.8047C11.1332 13.8047 12.3798 13.0781 13.0676 11.9242L13.1106 11.8814C13.1536 11.796 13.1965 11.7105 13.2395 11.625L15.5608 7.13742L15.6037 7.05193C15.8616 6.5818 16.3345 6.28264 16.8933 6.28264C17.667 6.28264 18.3118 6.92372 18.3118 7.69302V7.73576V7.7785C18.3118 8.37685 18.0109 9.65901 16.0766 11.5823C13.6264 14.0611 11.3482 14.8304 11.3482 14.8732C10.5744 15.2151 9.71472 15.3433 8.85501 15.3433C5.24423 15.3433 2.32122 12.437 2.32122 8.84697C2.32122 5.2569 5.24423 2.35064 8.85501 2.35064C9.54278 2.35064 10.1876 2.43613 10.8323 2.64982C8.38217 4.61582 6.79171 6.71003 6.10394 8.84697ZM20.5041 8.88971C20.633 8.50506 20.676 8.12041 20.676 7.69302C20.676 5.59881 18.9566 3.88925 16.8503 3.88925C15.5178 3.88925 14.2282 4.61581 13.5404 5.76976L13.4974 5.89798C13.4545 5.94072 13.4115 6.0262 13.4115 6.06894L11.0043 10.7275C10.7464 11.1976 10.2735 11.454 9.75771 11.454C8.98397 11.454 8.33919 10.813 8.33919 10.0437V10.0009C8.33919 9.40258 8.68307 8.12041 10.5744 6.15442C13.0246 3.67556 15.2599 2.94899 15.3028 2.94899C16.1196 2.60708 16.9363 2.43613 17.839 2.43613C21.4498 2.43613 24.3728 5.34238 24.3728 8.93245C24.3728 12.5225 21.4498 15.4288 17.839 15.4288C17.1512 15.4288 16.4634 15.3433 15.8187 15.1296C18.2688 13.1209 19.8593 11.0694 20.5041 8.88971Z" fill="#EB5F0A"/>
</svg>
