<svg width="110" height="16" viewBox="0 0 110 16" fill="none" xmlns="http://www.w3.org/2000/svg">
<path d="M15.1423 3.08997C15.5439 3.57835 15.8838 4.10895 16.1553 4.67109L8.45516 10.0108L5.23708 8.11313V5.83008L8.45516 7.7278L15.1423 3.08997Z" fill="#21A038"/>
<path d="M1.9529 7.95182C1.9529 7.84937 1.95556 7.7476 1.96087 7.64642L0.0106214 7.55652C0.00398338 7.68765 2.35678e-06 7.82005 2.35678e-06 7.95366C-0.00082742 8.99768 0.217462 10.0315 0.642353 10.9959C1.06724 11.9604 1.69036 12.8364 2.47598 13.5738L3.85934 12.273C3.2546 11.7065 2.77486 11.033 2.44769 10.2914C2.12052 9.54983 1.95237 8.75471 1.9529 7.95182Z" fill="url(#paint0_linear_829_34625)"/>
<path d="M8.45363 1.83664C8.56247 1.83664 8.67064 1.84039 8.77818 1.84539L8.87577 0.0101048C8.73596 0.00386023 8.59521 0.00073832 8.45363 0.00073832C7.34331 -0.000535422 6.24373 0.20452 5.21793 0.604128C4.19213 1.00374 3.26034 1.59003 2.47607 2.32934L3.85943 3.63071C4.46176 3.06163 5.17772 2.61016 5.96616 2.30227C6.7546 1.99438 7.59992 1.83614 8.45363 1.83664Z" fill="url(#paint1_linear_829_34625)"/>
<path d="M8.45368 14.0672C8.34483 14.0672 8.23661 14.0672 8.12845 14.0591L8.03086 15.8938C8.17114 15.9004 8.31209 15.9038 8.45368 15.9038C9.56353 15.9048 10.6626 15.6997 11.6878 15.2999C12.7131 14.9002 13.6443 14.3138 14.4279 13.5745L13.0472 12.2738C12.4448 12.8426 11.7289 13.2938 10.9406 13.6016C10.1523 13.9094 9.30718 14.0676 8.45368 14.0672Z" fill="url(#paint2_linear_829_34625)"/>
<path d="M12.1178 2.90374L13.7613 1.7641C12.2591 0.619761 10.3839 -0.00317657 8.45088 1.21816e-05V1.83654C9.75983 1.83501 11.0384 2.20714 12.1178 2.90374Z" fill="url(#paint3_linear_829_34625)"/>
<path d="M16.9064 7.95175C16.9075 7.47399 16.8631 6.99705 16.7736 6.52673L14.9542 7.78813C14.9542 7.84249 14.9542 7.8968 14.9542 7.95175C14.9547 8.80618 14.7642 9.65118 14.3954 10.432C14.0265 11.2127 13.4873 11.9119 12.8127 12.4841L14.1251 13.8485C15.002 13.1038 15.7028 12.194 16.1819 11.1782C16.6611 10.1623 16.9079 9.0631 16.9064 7.95175Z" fill="#21A038"/>
<path d="M8.45351 14.0672C7.54517 14.0675 6.64689 13.8884 5.81681 13.5413C4.98677 13.1943 4.24344 12.6872 3.63496 12.0527L2.18523 13.2867C2.97678 14.1117 3.94384 14.771 5.02369 15.2219C6.10354 15.6727 7.27206 15.9051 8.45351 15.9037V14.0672Z" fill="url(#paint4_linear_829_34625)"/>
<path d="M4.09433 3.41962L2.78266 2.05518C1.90549 2.79976 1.20449 3.70948 0.725109 4.72533C0.245736 5.74117 -0.00130694 6.84047 5.19965e-06 7.95192H1.95291C1.95251 7.09753 2.14293 6.25253 2.51182 5.47176C2.88072 4.69101 3.41986 3.99185 4.09433 3.41962Z" fill="url(#paint5_linear_829_34625)"/>
<path d="M48.7822 4.54747L51.2009 2.89014H43.1061V12.8493H51.2009V11.192H45.4159V8.6409H50.3508V6.98357H45.4159V4.54747H48.7822Z" fill="#21A038"/>
<path d="M37.6591 6.76996H34.8488V4.54689H39.334L41.7512 2.88452H32.5404V12.8437H37.3619C40.065 12.8437 41.6164 11.7042 41.6164 9.71689C41.6164 7.81572 40.2112 6.76996 37.6591 6.76996ZM37.2579 11.1858H34.8488V8.42626H37.2579C38.72 8.42626 39.4055 8.88871 39.4055 9.80606C39.4055 10.7234 38.6761 11.1858 37.2579 11.1858Z" fill="#21A038"/>
<path d="M57.1512 2.88879H52.7449V12.8479H55.0544V10.0267H57.1512C59.9625 10.0267 61.7015 8.6508 61.7015 6.45241C61.7015 4.25408 59.9625 2.88879 57.1512 2.88879ZM57.1025 8.36807H55.0544V4.54739H57.1025C58.5812 4.54739 59.3973 5.22626 59.3973 6.45849C59.3973 7.69071 58.5812 8.36807 57.1025 8.36807Z" fill="#21A038"/>
<path d="M29.0747 10.4976C28.478 10.7981 27.8096 10.9537 27.1312 10.95C25.1007 10.95 23.6277 9.60172 23.6277 7.74519C23.6277 5.8886 25.1007 4.53744 27.1312 4.53744C27.8634 4.52587 28.5805 4.73239 29.1776 5.12684L30.7931 4.02025L30.6838 3.94806C29.7415 3.17744 28.4823 2.76929 27.041 2.76929C25.4777 2.76929 24.0601 3.25847 23.048 4.14845C22.5363 4.60668 22.1316 5.15811 21.859 5.76831C21.5865 6.37852 21.4521 7.03438 21.4642 7.69506C21.4533 8.36244 21.5872 9.02502 21.8577 9.64324C22.1282 10.2615 22.5298 10.8226 23.0385 11.2933C24.0554 12.2186 25.4697 12.7284 27.0219 12.7284C28.6438 12.7284 30.0614 12.2024 31.0212 11.2447L29.5752 10.2427L29.0747 10.4976Z" fill="#21A038"/>
<path d="M70.8317 6.8128H68.0226V4.58974H74.0595V2.92737H65.7126V12.8865H70.5279C73.2308 12.8865 74.7823 11.747 74.7823 9.75973C74.7886 7.85857 73.3837 6.8128 70.8317 6.8128ZM70.4305 11.2287H68.0226V8.46911H70.4305C71.8925 8.46911 72.5776 8.93156 72.5776 9.84891C72.5776 10.7662 71.8547 11.2287 70.4305 11.2287Z" fill="#21A038"/>
<path d="M101.067 12.8294H98.7259V2.87024H101.067V7.05314H102.342L105.783 2.87024H108.437L104.355 7.60792L109.095 12.8294H105.988L102.504 8.91255H101.067V12.8294Z" fill="#21A038"/>
<path d="M83.3165 10.9367H78.3634L77.5237 12.8706H75.0319L79.6776 2.9115H82.1688L86.7391 12.8706H84.1562L83.3165 10.9367ZM82.5407 9.13217L80.8546 5.26424L79.159 9.13217H82.5407Z" fill="#21A038"/>
<path d="M89.8914 2.9115V7.07026H94.7367V2.9115H97.1509V12.8706H94.7367V8.94639H89.8914V12.8706H87.4772V2.9115H89.8914Z" fill="#21A038"/>
<defs>
<linearGradient id="paint0_linear_829_34625" x1="2.87094" y1="13.3446" x2="0.959386" y2="7.47057" gradientUnits="userSpaceOnUse">
<stop offset="0.14" stop-color="#F1E813"/>
<stop offset="0.3" stop-color="#E6E418"/>
<stop offset="0.58" stop-color="#C9DA26"/>
<stop offset="0.89" stop-color="#A2CC39"/>
</linearGradient>
<linearGradient id="paint1_linear_829_34625" x1="3.03366" y1="2.65406" x2="8.44014" y2="0.463918" gradientUnits="userSpaceOnUse">
<stop offset="0.06" stop-color="#0FA7DF"/>
<stop offset="0.54" stop-color="#0098F8"/>
<stop offset="0.92" stop-color="#0290EA"/>
</linearGradient>
<linearGradient id="paint2_linear_829_34625" x1="7.90211" y1="14.7953" x2="14.0776" y2="13.3123" gradientUnits="userSpaceOnUse">
<stop offset="0.12" stop-color="#A2CC39"/>
<stop offset="0.28" stop-color="#86C239"/>
<stop offset="0.87" stop-color="#219F38"/>
</linearGradient>
<linearGradient id="paint3_linear_829_34625" x1="8.04467" y1="0.615103" x2="13.2983" y2="2.33852" gradientUnits="userSpaceOnUse">
<stop offset="0.06" stop-color="#0290EA"/>
<stop offset="0.79" stop-color="#0C89CA"/>
</linearGradient>
<linearGradient id="paint4_linear_829_34625" x1="2.67511" y1="13.0631" x2="8.36749" y2="15.3246" gradientUnits="userSpaceOnUse">
<stop offset="0.13" stop-color="#F1E813"/>
<stop offset="0.3" stop-color="#EAE616"/>
<stop offset="0.53" stop-color="#D8DF1F"/>
<stop offset="0.8" stop-color="#BAD52D"/>
<stop offset="0.98" stop-color="#A2CC39"/>
</linearGradient>
<linearGradient id="paint5_linear_829_34625" x1="0.72753" y1="8.17422" x2="2.81271" y2="2.40816" gradientUnits="userSpaceOnUse">
<stop offset="0.07" stop-color="#A2CC39"/>
<stop offset="0.26" stop-color="#81C45E"/>
<stop offset="0.92" stop-color="#0FA7DF"/>
</linearGradient>
</defs>
</svg>
