<svg width="110" height="27" viewBox="0 0 110 27" fill="none" xmlns="http://www.w3.org/2000/svg">
<path d="M28.9459 26.5706H27.2721V21.9816H30.1766V22.4405H27.8629V23.909H28.9459C29.9304 23.909 30.5704 24.2761 30.5704 25.1939V25.2398C30.5704 26.1117 29.9304 26.5706 28.9459 26.5706ZM28.9459 26.1576C29.6843 26.1576 29.9797 25.8364 29.9797 25.2857V25.2398C29.9797 24.6891 29.6351 24.3679 28.8967 24.3679H27.8629V26.1576H28.9459Z" fill="black"/>
<path d="M31.112 25.6526C31.112 24.8725 31.9981 24.5972 32.9334 24.5972H33.4749V24.3677C33.4749 23.817 33.278 23.5876 32.6873 23.5876C32.195 23.5876 31.8996 23.7711 31.8504 24.1841H31.2596C31.3581 23.404 31.9981 23.1287 32.6873 23.1287C33.3764 23.1287 34.0164 23.404 34.0164 24.3218V26.5246H33.4257V26.1115C33.1795 26.4328 32.8349 26.6163 32.2934 26.6163C31.6535 26.6163 31.112 26.341 31.112 25.6526ZM33.4749 25.4232V25.0102H32.9826C32.2442 25.0102 31.7519 25.1937 31.7519 25.6526C31.7519 26.0198 31.9488 26.2033 32.4411 26.2033C32.9826 26.2033 33.4749 25.928 33.4749 25.4232Z" fill="black"/>
<path d="M37.3147 25.1021H35.5425V26.6165H34.9518V23.2665H35.5425V24.6891H37.3147V23.2665H37.9054V26.6165H37.3147V25.1021Z" fill="black"/>
<path d="M39.4807 24.8728V26.5707H38.89V23.2207H39.4807V24.781L40.9575 23.2207H41.6467L40.1207 24.781L41.7944 26.5707H41.1052L39.4807 24.8728Z" fill="black"/>
<path d="M10.6824 0C4.7751 0 0 4.45137 0 9.95821C0 15.4651 4.7751 19.9164 10.6824 19.9164C16.5898 19.9164 21.3649 15.4651 21.3649 9.95821C21.3157 4.45137 16.5406 0 10.6824 0ZM9.15638 14.1801L8.36873 16.337C5.41506 15.4192 3.44595 12.8034 3.44595 9.86643C3.44595 6.92945 5.41506 4.35958 8.41796 3.39589L9.2056 5.55273C7.23649 6.14931 5.95657 7.89314 5.95657 9.82054C5.90734 11.8856 7.18726 13.5835 9.15638 14.1801ZM12.7992 16.4288L12.0608 14.226C14.0792 13.6294 15.4083 11.8856 15.4083 9.91232C15.4083 7.93903 14.0792 6.24109 12.11 5.64451L12.8977 3.44178C15.9006 4.35958 17.9189 6.97534 17.9189 9.91232C17.9189 12.8952 15.8514 15.5109 12.7992 16.4288Z" fill="#00BEF0"/>
<path d="M108.449 11.748L109.63 13.0788C108.4 14.272 106.874 14.5932 105.643 14.5932C104.461 14.5932 103.625 14.4097 102.886 14.0884C101.311 13.3542 100.523 11.8857 100.523 10.096C100.523 7.38844 102.492 5.36926 105.397 5.36926C108.646 5.36926 110.221 7.61789 109.975 10.5549H102.591C102.64 11.2891 103.083 11.9775 103.723 12.3446C104.265 12.6658 104.905 12.8035 105.741 12.8035C106.677 12.8035 107.612 12.5282 108.449 11.748ZM102.689 8.94871H107.907C107.76 7.89323 106.824 6.97543 105.348 6.97543C103.772 7.02132 102.837 7.98501 102.689 8.94871ZM53.0676 14.3638H55.7259L51.5416 9.82063L55.6767 5.55282H53.0676L49.917 8.94871H48.9817V5.55282H46.9634V14.3179H48.9817V10.8302H49.917L53.0676 14.3638ZM61.781 7.15899C60.058 7.15899 58.9257 8.39803 58.9257 9.9583C58.9257 11.5186 60.058 12.7576 61.781 12.7576C63.5039 12.7576 64.5869 11.5645 64.5869 9.9583C64.5869 8.39803 63.5532 7.15899 61.781 7.15899ZM62.1256 5.36926C64.7839 5.36926 66.753 7.29666 66.753 9.9583C66.753 12.574 64.8331 14.5932 62.1256 14.5932C60.8456 14.5932 59.8118 14.1802 59.0734 13.446V18.035H57.0059V5.55282H59.0242V6.6083C59.8118 5.73639 60.7964 5.36926 62.1256 5.36926ZM88.9055 5.55282H80.4875V7.29666H83.6873V14.3179H85.7549V7.34255H88.9547V5.55282H88.9055ZM45.5358 5.55282H37.1178V7.29666H40.3176V14.3179H42.3852V7.34255H45.585V5.55282H45.5358ZM34.6072 9.9583C34.6072 8.30625 33.3765 7.1131 31.6535 7.1131C29.9798 7.1131 28.6998 8.30625 28.6998 9.9583C28.6998 11.6104 29.9305 12.8035 31.6535 12.8035C33.3273 12.8035 34.6072 11.6104 34.6072 9.9583ZM26.6323 9.9583C26.6323 7.34255 28.7983 5.36926 31.7027 5.36926C34.558 5.36926 36.7732 7.34255 36.7732 9.9583C36.7732 12.574 34.6072 14.5932 31.7027 14.5932C28.7983 14.5932 26.6323 12.574 26.6323 9.9583ZM98.8987 5.55282V14.3179H96.8804V8.67337L91.9576 14.3179H90.3331V5.55282H92.3514V11.2432L97.2742 5.59871H98.8987V5.55282ZM79.1092 14.3638H77.0908V5.55282H79.1092V14.3638ZM73.8418 11.335C73.8418 10.5549 73.251 10.0042 72.4634 10.0042H70.3958V12.7117H72.4634C73.251 12.7117 73.8418 12.161 73.8418 11.335ZM75.9093 11.335C75.9093 13.0788 74.531 14.3179 72.5619 14.3179H68.3775V5.55282H70.3958V8.39803H72.7095C74.6786 8.39803 75.9093 9.59118 75.9093 11.335Z" fill="black"/>
</svg>
