<svg width="100" height="65" viewBox="0 0 100 65" fill="none" xmlns="http://www.w3.org/2000/svg">
<path fill-rule="evenodd" clip-rule="evenodd" d="M0 43.633H2.00809V47.1715L5.18554 43.633H7.78458L4.00634 47.641L7.94885 52.2149H5.23848L2.00809 48.2479V52.2149H0V43.633H0ZM22.302 45.8242L19.9811 52.2149H17.6792L21.308 43.633H23.2962L26.925 52.2149H24.6231L22.302 45.8242ZM12.7791 45.8242L11.622 49.0103H13.9363L12.7791 45.8242ZM11.0514 50.5812L10.4581 52.2149H8.15623L11.7851 43.633H13.7733L17.4021 52.2149H15.1002L14.5067 50.5812H11.0514ZM31.9515 45.8242L30.7945 49.0103H33.1088L31.9515 45.8242ZM30.2239 50.5812L29.6306 52.2149H27.3287L30.9575 43.633H32.9457L36.5746 52.2149H34.2727L33.6792 50.5812H30.2239ZM38.0794 43.633H40.1544V50.5609H42.8876V43.633H44.9627V50.5609H47.6959V43.633H49.7709V52.2147H38.0794V43.633ZM68.2785 43.633H70.3536V52.2147H68.2785V46.7619L64.9408 52.2147H62.7676V43.633H64.8426V49.461L68.2785 43.633ZM54.5454 46.9852H57.9813V43.633H60.0564V52.2147H57.9813V48.639H54.5454V52.2147H52.4704V43.633H54.5454V46.9852ZM73.1843 43.633H75.1924V47.1715L78.3698 43.633H80.9689L77.1906 47.641L81.1331 52.2149H78.4228L75.1924 48.2479V52.2149H73.1843V43.633ZM86.1375 43.2787C88.7432 43.2787 90.8555 45.3588 90.8555 47.9242C90.8555 50.4887 88.7432 52.5688 86.1375 52.5688C83.5328 52.5688 81.4205 50.4887 81.4205 47.9242C81.4205 45.3588 83.5328 43.2787 86.1375 43.2787ZM86.1379 45.2084C87.506 45.2084 88.6147 46.4238 88.6147 47.924C88.6147 49.4238 87.506 50.6394 86.1379 50.6394C84.7701 50.6394 83.6613 49.4238 83.6613 47.924C83.6613 46.4238 84.7701 45.2084 86.1379 45.2084ZM92.6947 43.633H97.0181C98.1649 43.633 99.0952 44.5634 99.0952 45.7108C99.0952 46.651 98.4693 47.445 97.6122 47.7009C98.6267 47.9344 99.3842 48.8437 99.3842 49.9291C99.3842 51.191 98.3603 52.2147 97.0982 52.2147H92.6947V43.633ZM96.3491 48.6869C96.8957 48.6867 97.3389 49.1304 97.3389 49.6767C97.3389 50.2233 96.8955 50.6668 96.3491 50.6666L94.7698 50.6661V48.6876L96.3491 48.6869ZM96.1976 45.2866C96.6801 45.2866 97.0712 45.6775 97.0712 46.1603C97.0712 46.6429 96.6799 47.034 96.1976 47.034L94.7698 47.0338V45.2868L96.1976 45.2866Z" fill="black"/>
<path fill-rule="evenodd" clip-rule="evenodd" d="M0 54.4748H2.00809V58.0132L5.18554 54.4748H7.78458L4.00634 58.4828L7.94886 63.0567H5.23848L2.00809 59.0897V63.0567H0V54.4748H0ZM58.5313 57.827H61.9672V54.4748H64.0422V63.0565H61.9672V59.4808H58.5313V63.0565H56.4562V54.4748H58.5313V57.827ZM48.2466 54.4748H52.1513C53.6316 54.4748 54.8324 55.6756 54.8324 57.1559C54.8324 58.6362 53.6314 59.837 52.1513 59.837H50.3217V63.0565H48.2466V54.4748ZM50.3217 56.1286V58.1832L51.7357 58.1834C52.3032 58.1834 52.7634 57.7232 52.7634 57.1557C52.7634 56.5886 52.303 56.1284 51.7357 56.1284L50.3217 56.1286ZM45.8956 54.4748V56.1286H42.11V57.827H45.7212V59.4808H42.11V61.2911H46.0322V63.0565H40.0349V54.4748H45.8956ZM29.7168 63.0565V54.4748H31.7919V61.4027H35.2278V54.4748H37.3028V61.4027H38.2144V64.9999H36.4229V63.0565H29.7168ZM21.6062 57.827H25.0421V54.4748H27.1171V63.0565H25.0421V59.4808H21.6062V63.0565H19.5311V54.4748H21.6062V57.827ZM12.9695 54.1207C15.5752 54.1207 17.6875 56.2008 17.6875 58.7662C17.6875 61.3307 15.5752 63.4108 12.9695 63.4108C10.3648 63.4108 8.2525 61.3307 8.2525 58.7662C8.2525 56.2008 10.3648 54.1207 12.9695 54.1207ZM12.9699 56.0503C14.3381 56.0503 15.4467 57.2657 15.4467 58.766C15.4467 60.2657 14.3381 61.4813 12.9699 61.4813C11.6022 61.4813 10.4933 60.2657 10.4933 58.766C10.4933 57.2657 11.6022 56.0503 12.9699 56.0503Z" fill="#B3B2B2"/>
<path fill-rule="evenodd" clip-rule="evenodd" d="M6.37 6.37036H28.5477L17.4588 17.4598L28.5477 28.5493H6.37V6.37036Z" fill="#EC0829"/>
<path fill-rule="evenodd" clip-rule="evenodd" d="M0 0H34.9197L26.2353 8.68274H8.68233V26.237H26.2353L34.9197 34.9193H0V0Z" fill="black"/>
</svg>
