<svg width="110" height="22" viewBox="0 0 110 22" fill="none" xmlns="http://www.w3.org/2000/svg">
<path d="M16.0532 0H6.7992C3.04884 0 0 2.84846 0 6.34851V14.9907C0 18.4904 3.04884 21.3393 6.7992 21.3393H16.0527C19.7998 21.3393 22.8501 18.4904 22.8501 14.9907V6.34851C22.8505 2.84846 19.8003 0 16.0532 0Z" fill="#E31836"/>
<path d="M18.6392 13.2923L18.6307 13.3874C18.5981 13.7576 18.3497 14.1323 17.9372 14.1323C17.6218 14.1323 17.3681 14.0231 17.1612 13.7994C16.9127 13.5322 16.6893 13.2113 16.463 12.6297C17.1037 10.5988 19.0804 4.0931 19.0804 4.0931H15.3291C15.3291 4.0931 14.9826 5.61859 14.67 7.00628C14.6545 6.97238 14.6385 6.93892 14.622 6.90678C14.3094 6.28294 13.8101 5.58953 13.2557 5.10217C12.2892 4.25379 11.1526 3.84039 9.78021 3.84039C7.88593 3.84039 6.28349 4.49461 5.01718 5.78545C3.75701 7.06836 3.09132 8.71448 3.09132 10.5451C3.09132 12.5839 3.72353 14.2586 4.97004 15.5204C6.27029 16.839 7.82512 17.4531 9.86177 17.4531C11.0484 17.4531 12.1808 17.1238 13.2307 16.4753C13.9091 16.0571 14.5281 15.4777 15.1132 14.7253C15.3588 15.468 15.6063 15.9756 15.9024 16.3556C16.3814 16.9689 17.0989 17.3202 17.8707 17.3202C18.674 17.3202 19.4057 16.9358 19.7815 16.3182C20.1143 15.77 20.2501 15.0898 20.2501 13.9711V13.2923H18.6392ZM12.351 14.5928C11.7824 15.3703 11.0399 15.7806 10.2036 15.7806C9.22908 15.7806 8.49221 15.3729 7.94958 14.5303C7.38054 13.648 7.09249 12.3259 7.09249 10.5997C7.09249 9.01693 7.39799 7.75912 8.00002 6.861C8.56576 6.0179 9.27482 5.62431 10.2309 5.62431C11.0819 5.62431 11.7461 5.95451 12.3237 6.66596C12.9427 7.42937 13.466 8.6907 13.8408 10.3122C13.3703 12.5042 12.9101 13.8294 12.351 14.5928Z" fill="white"/>
<path d="M34.2903 4.40209C34.031 3.31157 33.2946 2.54993 31.6785 2.54993C30.158 2.54993 29.325 3.31157 29.0657 4.40209L27.8923 9.33825H29.1468C29.433 9.33825 29.7177 9.12516 29.779 8.86409L30.0161 7.85987H33.3403L33.5779 8.86409C33.6392 9.12472 33.9235 9.33825 34.2097 9.33825H35.4646L34.2903 4.40209ZM30.3447 6.46865L30.7582 4.72039C30.8247 4.43775 31.0604 4.00586 31.6789 4.00586C32.297 4.00586 32.5323 4.43731 32.5997 4.72039L33.0127 6.46865H30.3447Z" fill="#E31836"/>
<path d="M38.5569 4.19859H41.3554V9.33815H43.0875V2.71008H37.8634C37.2925 2.71008 36.8238 3.14682 36.8238 3.68085V7.03032C36.8238 7.47851 36.6027 7.76379 36.2185 7.83556L35.8635 7.9148L36.185 9.33859H36.5146C37.6998 9.33859 38.5569 8.51487 38.5569 7.11397V4.19859Z" fill="#E31836"/>
<path d="M58.1441 2.71009H57.5128V1.93964H56.3003C56.0141 1.93964 55.7803 2.15668 55.7803 2.42436V2.71009H55.149C53.0077 2.71009 51.6693 4.07312 51.6693 6.0239C51.6693 7.97512 53.0077 9.33815 55.149 9.33815H55.7803V10.1416H56.9928C57.279 10.1416 57.5128 9.92325 57.5128 9.65734V9.33815H58.1441C60.2854 9.33815 61.6234 7.97512 61.6234 6.0239C61.6234 4.07312 60.2854 2.71009 58.1441 2.71009ZM55.149 7.8743C53.9628 7.8743 53.4018 7.17341 53.4018 6.0239C53.4018 4.87527 53.9628 4.17438 55.149 4.17438H55.7803V7.8743H55.149ZM58.1441 7.8743H57.5128V4.17438H58.1441C59.3307 4.17438 59.8899 4.87527 59.8899 6.0239C59.8899 7.17341 59.3303 7.8743 58.1441 7.8743Z" fill="#E31836"/>
<path d="M48.4638 4.39102H45.9774V2.711H44.2448V8.85346C44.2448 9.12026 44.4791 9.33863 44.7648 9.33863H48.4638C49.9743 9.33863 51.1114 8.27585 51.1114 6.86482C51.1114 5.45424 50.1572 4.39102 48.4638 4.39102ZM48.4638 7.85056H45.9774V5.87909H48.4638C48.8862 5.87909 49.3793 6.23217 49.3793 6.86438C49.3793 7.49615 48.8862 7.85056 48.4638 7.85056Z" fill="#E31836"/>
<path d="M68.085 4.40209C67.8248 3.31157 67.0888 2.54993 65.4722 2.54993C63.9532 2.54993 63.1197 3.31157 62.8595 4.40209L61.686 9.33825H62.9415C63.2267 9.33825 63.512 9.12516 63.5723 8.86409L63.8099 7.85987H67.1345L67.3712 8.86409C67.4325 9.12472 67.7173 9.33825 68.003 9.33825H69.2575L68.085 4.40209ZM64.1394 6.46865L64.551 4.72039C64.6194 4.43775 64.8546 4.00586 65.4722 4.00586C66.0908 4.00586 66.3251 4.43731 66.3934 4.72039L66.8059 6.46865H64.1394Z" fill="#E31836"/>
<path d="M78.1289 15.1998C78.4344 14.9189 78.631 14.5363 78.631 14.0058C78.631 12.8312 77.6565 12.0097 76.3978 12.0097H72.1618C71.8761 12.0097 71.6423 12.2276 71.6423 12.4949V18.1526C71.6423 18.4194 71.8761 18.6378 72.1618 18.6378L76.6651 18.6387C77.9922 18.6387 78.8733 17.752 78.8733 16.5774C78.8733 15.9861 78.5725 15.523 78.1289 15.1998ZM76.3959 13.3855C76.6264 13.3855 76.9413 13.6268 76.9413 14.0388C76.9413 14.454 76.6264 14.6658 76.3959 14.6918H73.34V13.3851H76.3959V13.3855ZM76.535 17.2633H73.3395V15.9557H76.535C76.7655 15.9821 77.08 16.1935 77.08 16.6091C77.08 17.0207 76.7655 17.2633 76.535 17.2633Z" fill="#E31836"/>
<path d="M66.6839 11.8574C64.5421 11.8574 63.0448 13.2817 63.0448 15.324C63.0448 17.3655 64.5416 18.791 66.6839 18.791H67.277C69.4192 18.791 70.9161 17.3655 70.9161 15.324C70.9161 13.2817 69.4197 11.8574 67.277 11.8574H66.6839ZM64.9164 15.324C64.9164 14.1353 65.5944 13.2266 66.7886 13.2266H67.1733C68.3665 13.2266 69.044 14.1353 69.044 15.324C69.044 16.5127 68.366 17.4223 67.1733 17.4223H66.7886C65.5939 17.4218 64.9164 16.5127 64.9164 15.324Z" fill="#E31836"/>
<path d="M34.3498 12.0097L34.578 13.0122C34.6388 13.2794 34.9226 13.4973 35.2083 13.4973H36.8235V18.6373H38.5565V13.4978H40.1212C40.4065 13.4978 40.6898 13.2798 40.7502 13.0126L40.9783 12.0101H34.3498" fill="#E31836"/>
<path d="M92.713 12.0097V14.6416H89.3422V12.0097H87.6092V18.6378H89.3422V16.0632H92.713V18.6378H94.4461V12.0097H92.713Z" fill="#E31836"/>
<path d="M54.515 13.7025C54.2553 12.6115 53.5203 11.8508 51.9027 11.8508C50.3847 11.8508 49.5507 12.612 49.2919 13.7025L48.1175 18.6378H49.3725C49.6586 18.6378 49.9429 18.4256 50.0047 18.1645L50.2414 17.1598H53.5646L53.8017 18.1645C53.8625 18.4256 54.1478 18.6378 54.4339 18.6378H55.6885L54.515 13.7025ZM50.5704 15.7682L50.9829 14.0199C51.0499 13.7377 51.2851 13.3054 51.9037 13.3054C52.5222 13.3054 52.7575 13.7377 52.8249 14.0208L53.2374 15.7677H50.5704V15.7682Z" fill="#E31836"/>
<path d="M85.6699 13.7025C85.4097 12.6115 84.6747 11.8508 83.0572 11.8508C81.5377 11.8508 80.7051 12.612 80.4453 13.7025L79.2719 18.6378H80.5274C80.8126 18.6378 81.0974 18.4256 81.1582 18.1645L81.3963 17.1598H84.72L84.958 18.1645C85.0198 18.4256 85.3036 18.6378 85.5888 18.6378H86.8452L85.6699 13.7025ZM81.7234 15.7682L82.1369 14.0199C82.2053 13.7377 82.4396 13.3054 83.0572 13.3054C83.6748 13.3054 83.911 13.7377 83.9784 14.0208L84.3909 15.7677H81.7234V15.7682Z" fill="#E31836"/>
<path d="M34.8891 18.6197V18.6386H31.5042C29.4548 18.6386 28.0235 17.276 28.0235 15.3239C28.0235 13.3727 29.4552 12.0101 31.5042 12.0101H34.0721L33.8208 13.0258C33.7567 13.2864 33.4701 13.4982 33.1839 13.4982H31.5042C30.409 13.4982 29.756 14.2616 29.756 15.3244C29.756 16.3867 30.4085 17.1506 31.5042 17.1506H34.0061C34.2913 17.1506 34.5785 17.3628 34.6426 17.6234L34.8891 18.6197Z" fill="#E31836"/>
<path d="M45.623 12.0097L41.9245 12.0101C41.6378 12.0101 41.4044 12.2285 41.4044 12.4953V18.6382H43.1375V16.9569H45.623C47.3183 16.9569 48.272 15.8937 48.272 14.4839C48.272 13.0738 47.1335 12.0097 45.623 12.0097ZM45.623 15.4692H43.1375V13.4995H45.623C46.0458 13.4995 46.5394 13.8522 46.5394 14.4844C46.5394 15.1157 46.0458 15.4692 45.623 15.4692Z" fill="#E31836"/>
<path d="M109.134 17.2386H105.402V15.9658H109.459V14.6873H105.402V13.4084H109.134C109.441 13.4084 109.684 13.2824 109.769 12.9355L110 12.0092H104.189C103.904 12.0092 103.669 12.2271 103.669 12.4944V18.1521C103.669 18.4189 103.903 18.6382 104.189 18.6382H110L109.769 17.7119C109.684 17.3654 109.442 17.2386 109.134 17.2386Z" fill="#E31836"/>
<path d="M95.6341 18.6378V12.0097H97.3671V16.3828L100.369 12.4007C100.538 12.1858 100.909 12.0097 101.197 12.0097H102.482V18.6378H100.748V14.2651L97.7457 18.2468C97.5774 18.4617 97.2054 18.6378 96.9188 18.6378H95.6341Z" fill="#E31836"/>
<path d="M60.9152 15.2887L63.3338 12.0101H61.7422C61.3985 12.0101 61.1566 12.1079 60.944 12.4191L59.6555 14.3087H59.425L58.1356 12.4191C57.9239 12.1074 57.6825 12.0101 57.337 12.0101H55.694L58.1643 15.3587L55.7458 18.6378H57.337C57.6821 18.6378 57.9239 18.5409 58.1356 18.2288L59.425 16.3387H59.6555L60.944 18.2288C61.1566 18.5409 61.3985 18.6378 61.7422 18.6378H63.3851L60.9152 15.2887Z" fill="#E31836"/>
</svg>
