<svg width="110" height="28" viewBox="0 0 110 28" fill="none" xmlns="http://www.w3.org/2000/svg">
<path d="M13.8004 0C6.21423 0 0 6.13353 0 13.8004C0 21.3866 6.13353 27.6009 13.8004 27.6009C21.3866 27.6009 27.6009 21.4674 27.6009 13.8004C27.6009 6.13353 21.3866 0 13.8004 0ZM13.8004 26.471C6.77916 26.471 1.12986 20.8217 1.12986 13.8004C1.12986 6.77916 6.77916 1.12986 13.8004 1.12986C20.8217 1.12986 26.471 6.77916 26.471 13.8004C26.5517 20.741 20.8217 26.471 13.8004 26.471Z" fill="#77787B"/>
<path d="M13.8005 24.05C14.2847 24.05 14.5268 23.7271 14.6075 23.3236C14.6882 23.485 14.8496 23.6464 15.011 23.7271C15.1724 23.7271 15.4145 23.7271 15.5759 23.6464C15.7374 23.5657 15.8988 23.4043 15.9795 23.2429C16.0602 23.0815 16.0602 22.8394 15.9795 22.678C16.2216 23.0008 16.5444 23.0815 16.9479 22.9201C17.4321 22.678 17.5936 22.3552 17.3514 21.8709C16.7865 20.499 16.2216 19.2077 15.6566 17.8357C15.5759 17.6743 15.5759 17.5936 15.4952 17.4322C15.4145 17.3515 15.4145 17.2708 15.3338 17.1901C15.3338 17.1094 15.2531 17.1094 15.1724 17.0287C16.0602 17.1094 16.4637 17.4322 16.7058 17.5936C16.7865 17.6743 16.7865 17.6743 17.0286 17.5936C17.1093 17.5936 17.2707 17.5936 17.3514 17.5936C17.4321 17.6743 17.5936 17.755 17.6743 17.755C17.9971 17.9971 18.3199 18.2393 18.6427 18.4814C18.8041 18.6428 18.9655 18.8042 18.9655 19.0463C18.9655 19.2077 18.4813 19.6112 18.4006 19.7726C18.0778 20.0955 18.562 20.5797 19.2076 20.5797C19.0462 20.4183 18.9655 20.2569 19.0462 20.0955C19.1269 20.0955 19.2076 20.0955 19.3691 20.0148C19.5305 19.934 19.4498 19.5305 19.5305 19.4498C19.7726 19.2077 20.4182 19.2077 20.9024 19.2077C21.0638 19.2077 21.306 19.127 21.2252 18.8849C21.4674 18.8849 21.5481 19.127 21.5481 19.2884C21.7902 19.127 21.9516 18.5621 21.1445 18.4007C21.306 18.2393 21.5481 18.2393 21.7095 18.4007C21.8709 18.1586 21.4674 17.755 20.8217 17.9971C20.8217 17.9971 20.4989 17.5936 19.6919 18.5621C19.6112 18.4814 19.4498 18.4007 19.3691 18.32C19.0462 17.9971 18.2392 17.1901 18.2392 17.1901C18.2392 16.7059 18.1585 15.8181 17.5936 15.3339C17.3514 15.0918 17.1093 15.0111 16.5444 14.8497C16.5444 14.8497 16.7865 14.4462 16.8672 14.2847C17.3514 14.769 18.3199 14.9304 18.3199 14.1233C19.1269 14.9304 19.8533 14.4462 19.8533 13.9619C19.8533 14.204 19.934 14.4462 20.0147 14.6883C20.0954 14.9304 20.4989 15.9795 21.3867 15.9795C21.3867 16.3024 21.3867 17.5129 22.5165 17.755C22.5972 17.755 22.5972 17.755 22.6779 17.8357C23.1622 18.4007 25.0184 18.9656 25.1798 18.8042C25.0184 18.7235 24.7762 18.5621 24.7762 17.9164C24.7762 17.5129 24.6955 15.2532 24.6955 12.1057C24.6955 10.9759 24.6148 7.34417 20.9831 6.85994C20.4182 6.77924 19.934 6.85995 19.4498 7.18276C18.8041 7.66699 18.4813 8.47403 18.8848 9.36178V9.44249C19.0462 9.6846 18.9655 9.84601 18.8041 10.0074C18.4813 10.3302 18.1585 10.4916 17.755 10.5723C17.5129 10.5723 17.2707 10.4916 17.1093 10.3302C16.7058 9.92671 16.4637 9.44248 16.3023 8.87755C16.1409 7.8284 16.383 7.26347 16.383 7.18276C16.7058 6.61783 17.2707 6.1336 17.9971 6.1336C18.3199 5.48797 19.2883 5.73008 19.2883 5.73008C19.5305 5.81079 19.6112 5.81079 19.6919 5.9722C19.6919 5.9722 20.0954 5.32656 19.6919 5.08445C19.2883 4.84234 18.4006 4.76163 18.4006 4.76163C18.4006 4.35811 17.755 4.0353 16.4637 4.27741C15.011 4.51952 14.6882 3.95459 14.6882 3.95459C14.6075 4.68093 15.1724 5.00375 15.3338 5.16515C14.7689 5.81079 13.9619 7.02136 13.8005 8.71615C13.639 7.02136 12.832 5.81079 12.2671 5.16515C12.4285 5.08445 12.9934 4.68093 12.9127 3.95459C12.9127 3.95459 12.5899 4.51952 11.1372 4.27741C9.92664 4.0353 9.2003 4.35811 9.2003 4.76163C9.2003 4.76163 8.31255 4.84234 7.90903 5.08445C7.50551 5.32656 7.90903 5.9722 7.90903 5.9722C7.98974 5.89149 8.07044 5.81079 8.31255 5.73008C8.31255 5.73008 9.28101 5.48797 9.60382 6.1336C10.3302 6.21431 10.8951 6.61783 11.2179 7.18276C11.2179 7.18276 11.5407 7.74769 11.2986 8.87755C11.2179 9.44248 10.8951 9.92671 10.4916 10.3302C10.3302 10.4916 10.0881 10.653 9.84594 10.5723C9.44242 10.4916 9.1196 10.3302 8.79678 10.0074C8.63537 9.84601 8.55467 9.6846 8.71608 9.44249V9.36178C9.1196 8.47403 8.79678 7.66699 8.15115 7.18276C7.66692 6.85995 7.1827 6.77924 6.61776 6.85994C3.06677 7.34417 2.90537 10.9759 2.90537 12.1057C2.90537 15.2532 2.82466 17.5129 2.82466 17.9164C2.82466 18.5621 2.58255 18.7235 2.42114 18.8042C2.66326 18.9656 4.51945 18.4007 4.92298 17.8357C4.92298 17.8357 5.00368 17.755 5.08438 17.755C6.21424 17.5129 6.21424 16.3024 6.21424 15.9795C7.10199 15.9795 7.50551 14.9304 7.58621 14.6883C7.66692 14.4462 7.74763 14.204 7.74763 13.9619C7.74763 14.4462 8.47397 14.8497 9.28101 14.1233C9.28101 14.9304 10.2495 14.769 10.7337 14.2847C10.8144 14.4462 11.0565 14.8497 11.0565 14.8497C10.4916 14.9304 10.2495 15.0918 10.0073 15.3339C9.36171 15.8988 9.36171 16.7866 9.36171 17.1901C9.36171 17.1901 8.55467 17.9971 8.23185 18.32C8.15115 18.4007 7.98974 18.4814 7.90903 18.5621C7.02129 17.5936 6.77917 17.9971 6.77917 17.9971C6.13354 17.755 5.81072 18.1586 5.89142 18.4007C6.05283 18.2393 6.29495 18.32 6.45636 18.4007C5.56861 18.5621 5.81072 19.2077 6.05284 19.2884C6.05284 19.127 6.13354 18.8849 6.37565 18.8849C6.37565 19.127 6.53706 19.2077 6.69847 19.2077C7.10199 19.2077 7.82833 19.2077 8.07045 19.4498C8.23185 19.5305 8.15115 19.934 8.23185 20.0148C8.31256 20.0955 8.47397 20.0955 8.55467 20.0955C8.55467 20.2569 8.55467 20.3376 8.39326 20.5797C9.03889 20.6604 9.44241 20.0955 9.2003 19.7726C9.03889 19.6112 8.63537 19.2077 8.63537 19.0463C8.63537 18.8849 8.79678 18.6428 8.95819 18.4814C9.28101 18.2393 9.60382 17.9971 9.92664 17.755C10.0073 17.6743 10.0881 17.5936 10.2495 17.5936C10.3302 17.5129 10.4916 17.5129 10.5723 17.5936C10.8144 17.6743 10.8144 17.6743 10.8951 17.5936C11.1372 17.4322 11.5407 17.1094 12.4285 17.0287C12.3478 17.0287 12.3478 17.1094 12.2671 17.1901C12.1864 17.2708 12.1864 17.3515 12.1057 17.4322C12.025 17.5129 12.025 17.6743 11.9442 17.8357C11.3793 19.2077 10.8144 20.499 10.2495 21.8709C10.0881 22.3552 10.2495 22.678 10.653 22.9201C10.9758 23.0815 11.3793 23.0008 11.6214 22.678C11.5407 22.9201 11.5407 23.0815 11.6214 23.2429C11.7021 23.4043 11.8635 23.5657 12.025 23.6464C12.1864 23.7271 12.4285 23.7271 12.5899 23.7271C12.832 23.6464 12.9127 23.5657 12.9934 23.3236C13.0741 23.7271 13.3162 24.05 13.8005 24.05Z" fill="#77787B"/>
<path d="M37.0433 8.95816C37.7696 8.95816 39.3837 8.87746 40.2715 8.79675C40.2715 8.95816 40.2715 9.20027 40.2715 9.28098C40.2715 9.36168 40.2715 9.60379 40.2715 9.7652C39.4644 9.6845 38.1731 9.6038 37.7696 9.6038C37.4468 9.6038 36.3977 9.60379 35.752 9.6845V13.0741H36.4784C37.931 13.0741 40.8364 13.3162 40.8364 15.818C40.8364 17.8356 39.1416 18.7234 36.9626 18.7234C36.7205 18.7234 35.8327 18.7234 35.1871 18.7234C34.945 18.7234 34.6221 18.7234 34.38 18.7234C34.4607 17.19 34.4607 15.1724 34.4607 13.4776C34.4607 11.9442 34.4607 9.60379 34.38 8.87746C35.2678 8.87746 36.7205 8.95816 37.0433 8.95816ZM35.752 17.9163C36.0748 17.9163 36.5591 17.9163 36.8819 17.9163C38.496 17.9163 39.3837 17.19 39.3837 15.7373C39.3837 14.2039 38.2538 13.7197 35.6713 13.7197V17.9163H35.752Z" fill="#77787B"/>
<path d="M42.3698 12.5899C42.9347 11.9443 43.9031 11.6215 44.7102 11.6215C46.1629 11.6215 47.1313 12.3478 47.1313 14.0426V17.4322C47.1313 18.1585 47.2927 18.3199 47.5348 18.3199C47.6155 18.3199 47.777 18.3199 47.8577 18.2392L47.9384 18.562C47.5348 18.8041 47.1313 18.8041 46.8892 18.8041C46.405 18.8041 46.1629 18.562 46.0822 18.2392L46.0015 17.9164C45.2751 18.4813 44.4681 18.8041 43.8224 18.8041C42.6119 18.8041 41.8048 18.1585 41.8048 17.0286C41.8048 15.8181 42.6926 15.2532 43.9839 15.011L45.3558 14.7689C45.8401 14.6882 46.0822 14.5268 46.0822 14.204C46.0822 12.7513 45.4365 12.3478 44.3874 12.3478C43.5803 12.3478 43.0154 12.5899 42.5312 13.4777H42.3698V12.5899ZM46.0822 15.1725L45.1944 15.3339C44.226 15.4953 43.0961 15.8181 43.0961 16.8672C43.0961 17.6743 43.4996 18.0778 44.3874 18.0778C44.9523 18.0778 45.4365 17.9164 46.0015 17.2708V15.1725H46.0822Z" fill="#77787B"/>
<path d="M49.8753 11.8636C50.0367 11.8636 50.2788 11.8636 50.5209 11.8636C50.4402 12.9128 50.3595 14.6076 50.3595 14.6883C50.9244 14.6883 51.7315 14.769 52.2157 14.769C52.6999 14.769 53.507 14.769 53.9105 14.6883C53.9105 14.6076 53.9105 12.9128 53.8298 11.8636C54.0719 11.8636 54.3947 11.8636 54.5561 11.8636C54.7175 11.8636 54.9596 11.8636 55.2018 11.8636C55.121 12.9128 55.0403 14.6076 55.0403 15.3339C55.0403 15.8989 55.0403 17.7551 55.2018 18.8042C54.9596 18.8042 54.7982 18.8042 54.5561 18.8042C54.314 18.8042 54.0719 18.8042 53.8298 18.8042C53.9105 17.7551 53.9105 15.8989 53.9105 15.4953C53.3456 15.4146 52.4578 15.4146 52.2157 15.4146C51.8122 15.4146 50.9244 15.4146 50.3595 15.4953C50.3595 15.9796 50.3595 17.7551 50.5209 18.8042C50.2788 18.8042 50.1174 18.8042 49.8753 18.8042C49.6332 18.8042 49.391 18.8042 49.1489 18.8042C49.2296 17.7551 49.3103 15.8989 49.3103 15.3339C49.3103 14.6076 49.3103 12.9128 49.1489 11.8636C49.391 11.8636 49.7139 11.8636 49.8753 11.8636Z" fill="#77787B"/>
<path d="M57.7036 11.8635C57.865 11.8635 58.1071 11.8635 58.3492 11.8635C58.2685 12.9127 58.2685 14.6075 58.2685 14.8496H58.5106C58.9948 14.8496 61.2546 12.2671 61.4967 11.8635C61.6581 11.8635 61.9809 11.8635 62.1423 11.8635C62.3037 11.8635 62.6265 11.8635 62.788 11.8635L59.5598 14.7689C59.9633 15.2531 62.1423 17.6743 63.1108 18.7234C62.7072 18.7234 62.4651 18.7234 62.3037 18.7234C62.0616 18.7234 61.6581 18.7234 61.416 18.7234C60.9317 17.9164 59.3984 16.1409 58.5106 15.1724H58.2685C58.2685 15.6566 58.2685 17.6743 58.3492 18.7234C58.1878 18.7234 57.9457 18.7234 57.7036 18.7234C57.4615 18.7234 57.2193 18.7234 56.9772 18.7234C57.0579 17.6743 57.1387 15.8181 57.1387 15.2531C57.1387 14.5268 57.1386 12.832 56.9772 11.7828C57.2193 11.8635 57.4615 11.8635 57.7036 11.8635Z" fill="#77787B"/>
<path d="M69.0022 8.87746C69.4864 8.87746 70.0513 8.79675 70.4549 8.79675C72.9567 8.79675 73.9251 9.52309 73.9251 11.2986C73.9251 13.4776 72.0689 14.2039 69.8092 14.2039C69.6478 14.2039 69.1636 14.2039 68.9215 14.1232V16.4637C68.9215 17.1093 68.9215 17.997 69.0022 18.6427C68.7601 18.6427 68.5179 18.6427 68.2758 18.6427C68.0337 18.6427 67.7109 18.6427 67.5495 18.6427C67.6302 17.1093 67.6302 15.0917 67.6302 13.3969C67.6302 11.8635 67.6302 9.52309 67.5495 8.79675C68.1144 8.79675 68.6794 8.87746 69.0022 8.87746ZM69.5671 13.4776C71.504 13.4776 72.5532 12.7513 72.5532 11.2986C72.5532 9.92661 71.504 9.6038 70.132 9.6038C69.8899 9.6038 69.0829 9.6038 68.9215 9.6038V13.3969C69.1636 13.4776 69.4057 13.4776 69.5671 13.4776Z" fill="#77787B"/>
<path d="M81.0271 15.2531C81.0271 17.3515 79.6552 18.8848 77.5568 18.8848C75.4585 18.8848 74.1673 17.3514 74.1673 15.4145C74.1673 13.1548 75.62 11.7021 77.7183 11.7021C79.7359 11.7021 81.0271 13.1548 81.0271 15.2531ZM75.4585 15.3338C75.4585 16.8672 76.1042 18.3199 77.5568 18.3199C78.9288 18.3199 79.7359 16.9479 79.7359 15.1724C79.7359 13.7198 79.1709 12.1864 77.6376 12.1864C76.1849 12.1864 75.4585 13.7198 75.4585 15.3338Z" fill="#77787B"/>
<path d="M87.6449 13.3162H87.4835C86.9993 12.5092 86.3536 12.2671 85.6273 12.2671C84.0132 12.2671 83.2869 13.8004 83.2869 15.3338C83.2869 17.0286 84.2553 18.4006 85.9501 18.4006C86.515 18.4006 86.9993 18.3199 87.8063 17.4321L87.9677 17.5936L87.8063 18.2392C87.1607 18.6427 86.4343 18.8848 85.5466 18.8848C83.4483 18.8848 82.0763 17.4321 82.0763 15.3338C82.0763 13.1548 83.6097 11.7828 85.7887 11.7828C86.515 11.7828 87.2414 11.9442 88.1291 12.3478L87.6449 13.3162Z" fill="#77787B"/>
<path d="M94.5854 13.3162H94.424C93.9398 12.5092 93.2942 12.2671 92.5678 12.2671C90.9537 12.2671 90.2274 13.8004 90.2274 15.3338C90.2274 17.0286 91.1958 18.4006 92.8906 18.4006C93.4556 18.4006 93.9398 18.3199 94.7468 17.4321L94.8275 17.5936L94.6661 18.2392C94.0205 18.6427 93.2942 18.8848 92.4064 18.8848C90.3081 18.8848 88.9361 17.4321 88.9361 15.3338C88.9361 13.1548 90.4695 11.7828 92.6485 11.7828C93.3749 11.7828 94.1012 11.9442 94.989 12.3478L94.5854 13.3162Z" fill="#77787B"/>
<path d="M96.603 18.6427C96.5223 18.6427 96.2802 18.6427 96.1995 18.6427C96.2802 17.5936 96.3609 15.7374 96.3609 15.1724C96.3609 14.4461 96.3609 12.7513 96.1995 11.7021C96.4416 11.7021 96.7644 11.7021 96.9259 11.7021C97.0873 11.7021 97.3294 11.7021 97.5715 11.7021C97.4908 12.7513 97.4101 14.4461 97.4101 15.1724C97.4101 15.7374 97.4101 16.5444 97.4101 16.9479C98.1364 16.0602 100.8 12.6706 101.445 11.7829C101.607 11.7829 101.687 11.7829 101.849 11.7829C101.93 11.7829 102.252 11.7829 102.333 11.7829C102.252 12.832 102.172 14.5268 102.172 15.2531C102.172 15.8181 102.172 17.6743 102.333 18.7234C102.091 18.7234 101.93 18.7234 101.687 18.7234C101.445 18.7234 101.203 18.7234 100.961 18.7234C101.042 17.6743 101.122 15.8181 101.122 15.2531C101.122 14.5268 101.122 13.6391 101.122 13.3969C100.235 14.3654 97.7329 17.5129 97.0066 18.7234C96.8452 18.6427 96.6837 18.6427 96.603 18.6427Z" fill="#77787B"/>
<path d="M104.27 18.6427C104.189 18.6427 103.947 18.6427 103.866 18.6427C103.947 17.5936 103.947 15.7374 103.947 15.1724C103.947 14.4461 103.947 12.7513 103.866 11.7021C104.109 11.7021 104.431 11.7021 104.593 11.7021C104.754 11.7021 104.996 11.7021 105.238 11.7021C105.077 12.832 105.077 14.5268 105.077 15.2531C105.077 15.8181 105.077 16.6251 105.077 17.0286C105.803 16.1409 108.467 12.7513 109.112 11.8636C109.274 11.8636 109.354 11.8636 109.516 11.8636C109.596 11.8636 109.919 11.8636 110 11.8636C109.919 12.832 109.919 14.5268 109.919 15.2531C109.919 15.8181 109.919 17.6743 110 18.7234C109.758 18.7234 109.596 18.7234 109.354 18.7234C109.112 18.7234 108.87 18.7234 108.628 18.7234C108.709 17.6743 108.709 15.8181 108.709 15.2531C108.709 14.5268 108.709 13.6391 108.709 13.3969C107.821 14.3654 105.319 17.5129 104.593 18.7234C104.512 18.6427 104.431 18.6427 104.27 18.6427Z" fill="#77787B"/>
</svg>
