<svg width="110" height="43" viewBox="0 0 110 43" fill="none" xmlns="http://www.w3.org/2000/svg">
<path fill-rule="evenodd" clip-rule="evenodd" d="M4.65026 7.70871C3.68814 7.70871 2.0846 7.70871 1.07116 8.59704C0.0577274 9.48536 0 11.1726 0 11.8582V19.8472C0 20.5328 0 22.1425 1.06475 23.1024C2.1295 24.0622 3.68814 23.9967 4.65026 23.9967H14.3805C15.3491 23.9967 16.9462 23.9967 17.9661 23.1083C18.9859 22.22 19.0372 20.5328 19.0372 19.8472V17.5459H14.0278V20.0976H5.04794V11.6018H14.0278V13.927H19.0372V11.8582C19.0372 11.1726 19.0372 9.56287 17.9661 8.603C16.8949 7.64313 15.3491 7.70871 14.3805 7.70871H4.65026Z" fill="#192168"/>
<path fill-rule="evenodd" clip-rule="evenodd" d="M40.467 11.602V20.0977H29.178V11.602H40.467ZM28.8124 7.70888C27.8503 7.70888 26.2468 7.70888 25.2397 8.5972C24.2327 9.48553 24.1686 11.1728 24.1686 11.8584V19.8473C24.1686 20.533 24.1686 22.1427 25.2333 23.1025C26.2981 24.0624 27.8503 23.9968 28.8124 23.9968H40.8197C41.7883 23.9968 43.3854 23.9968 44.4052 23.1085C45.4251 22.2202 45.4828 20.533 45.4828 19.8473V11.8584C45.4828 11.1728 45.4828 9.56303 44.4117 8.5972C43.3405 7.63137 41.7883 7.70888 40.8197 7.70888H28.8124Z" fill="#192168"/>
<path fill-rule="evenodd" clip-rule="evenodd" d="M67.0858 7.70874H51.1209V23.9967H56.1304V11.6019H67.6759V7.70874H67.0858Z" fill="#192168"/>
<path fill-rule="evenodd" clip-rule="evenodd" d="M76.5339 12.4067C77.1753 13.5276 78.4581 15.7812 79.061 16.8126H73.9297C74.5711 15.7692 75.886 13.5216 76.5467 12.4067H76.5339ZM78.5351 7.70874H74.5134L64.5971 23.9967H69.8311C69.8311 23.9967 71.4218 21.2065 71.6976 20.7057H81.3188C81.601 21.2006 83.2431 23.9967 83.2431 23.9967H88.9196L78.8943 7.70874H78.5351Z" fill="#192168"/>
<path fill-rule="evenodd" clip-rule="evenodd" d="M95.7056 7.70886C94.672 7.64584 93.6447 7.89922 92.7807 8.43026C92.4167 8.77064 92.1342 9.17873 91.9518 9.62774C91.7694 10.0768 91.6912 10.5565 91.7224 11.0356V13.9271H96.2123V11.3277H103.909C104.422 11.3277 104.551 11.4351 104.551 11.4351C104.551 11.4351 104.679 11.608 104.679 11.9657V13.2236C104.679 13.5933 104.596 13.6946 104.57 13.7125C104.544 13.7304 104.333 13.8079 104.044 13.8079H98.0403V17.385H104.185C104.408 17.3728 104.63 17.4182 104.826 17.5162C104.884 17.5639 104.968 17.6653 104.968 18.0587V19.4896C104.979 19.6587 104.942 19.8276 104.859 19.9785C104.788 20.0381 104.653 20.0977 104.159 20.0977H95.9685V17.546H91.3953V20.527C91.3093 21.4781 91.6244 22.423 92.274 23.1621C93.0693 23.9074 94.4933 24.0028 95.6414 24.0028H104.583C106.545 24.0028 107.931 23.6689 108.803 22.9833C109.198 22.6784 109.511 22.2924 109.718 21.8558C109.925 21.4192 110.021 20.9439 109.996 20.4674V18.5297C110.032 17.6526 109.698 16.7972 109.066 16.145C108.777 15.8994 108.448 15.6982 108.091 15.5488C108.353 15.4111 108.594 15.2428 108.81 15.048C109.324 14.5008 109.589 13.7885 109.547 13.0627V11.2145C109.595 10.742 109.531 10.2656 109.362 9.81794C109.193 9.3703 108.921 8.962 108.566 8.62104C107.658 7.95416 106.513 7.62862 105.359 7.70886H95.7056Z" fill="#192168"/>
<path d="M109.997 0H0.000442505V1.01353H109.997V0Z" fill="#192168"/>
<path d="M109.996 30.686H0V31.7234H109.996V30.686Z" fill="#192168"/>
<path fill-rule="evenodd" clip-rule="evenodd" d="M5.84329 40.4636C5.8233 40.7741 5.73614 41.0777 5.58701 41.3562C5.43788 41.6347 5.22984 41.8824 4.97535 42.0844C4.72086 42.2864 4.42513 42.4387 4.10587 42.5321C3.78661 42.6254 3.45037 42.658 3.11727 42.6277C1.19302 42.6277 0.0513 41.4711 0.0513 39.5514C0.0513 36.3677 2.54641 36.2723 3.0852 36.2723C5.14414 36.2723 5.65086 37.3932 5.7599 38.3054H4.89399C4.87515 38.105 4.8127 37.9102 4.71042 37.733C4.60815 37.5557 4.46818 37.3996 4.29902 37.2742C4.12986 37.1487 3.93504 37.0565 3.72638 37.0032C3.51772 36.9499 3.29958 36.9365 3.0852 36.9639C1.47524 36.9639 0.968525 38.2219 0.968525 39.5335C0.968525 40.8451 1.78954 41.96 3.14934 41.96C3.60298 41.9862 4.04943 41.845 4.39172 41.5671C4.734 41.2891 4.94446 40.8968 4.97737 40.4755L5.84329 40.4636Z" fill="#192168"/>
<path fill-rule="evenodd" clip-rule="evenodd" d="M7.56227 37.1308V36.4512H12.623V37.1308H10.532V42.4489H9.66612V37.1308H7.56227Z" fill="#192168"/>
<path fill-rule="evenodd" clip-rule="evenodd" d="M14.7526 36.4512V42.4489H15.6185V40.0641H17.3183C18.9859 40.0641 19.5825 39.301 19.5825 38.1801C19.5825 36.94 18.7165 36.4571 17.4016 36.4571L14.7526 36.4512ZM15.6185 37.1308H17.2028C18.197 37.1308 18.6781 37.4528 18.6781 38.192C18.6781 38.9313 18.2227 39.3844 17.2028 39.3844H15.6442L15.6185 37.1308Z" fill="#192168"/>
<path fill-rule="evenodd" clip-rule="evenodd" d="M22.3727 40.8988H25.0987L25.708 42.4489H26.6381L24.2007 36.4512H23.2771L20.8397 42.4489H21.7697L22.3727 40.8988ZM22.6164 40.2191L23.7325 37.268L24.855 40.2191H22.6164Z" fill="#192168"/>
<path fill-rule="evenodd" clip-rule="evenodd" d="M32.2762 36.4512H33.3537L31.2178 39.3844L33.4756 42.4489H32.3596L30.6662 39.9568L28.9729 42.4489H27.8568L30.1146 39.3844L27.9787 36.4512H29.0563L30.6662 38.8061L32.2762 36.4512Z" fill="#192168"/>
<path fill-rule="evenodd" clip-rule="evenodd" d="M35.1432 39.45C35.1432 42.586 37.7923 42.6277 38.222 42.6277C38.6518 42.6277 41.2944 42.586 41.2944 39.45C41.2944 37.0116 39.6588 36.2723 38.222 36.2723C36.4197 36.2723 35.1432 37.3514 35.1432 39.45ZM36.0605 39.45C36.0605 38.7883 36.2465 36.952 38.222 36.952C39.7037 36.9639 40.4093 38.0371 40.4093 39.45C40.4093 41.8348 38.7031 41.9481 38.2541 41.9481C36.3748 41.9481 36.0605 40.4159 36.0605 39.45Z" fill="#192168"/>
<path fill-rule="evenodd" clip-rule="evenodd" d="M44.6105 39.6706H46.4064C47.3108 39.6706 47.8881 39.9389 47.8881 40.708C47.8881 41.6857 47.0029 41.7692 46.4064 41.7692H44.6105V39.6706ZM43.7445 36.4512V42.4489H46.4706C48.305 42.4489 48.7732 41.638 48.7732 40.7795C48.7969 40.417 48.6696 40.06 48.4176 39.7824C48.1656 39.5049 47.8083 39.3282 47.4198 39.289V39.2592C47.7319 39.1955 48.0102 39.0326 48.2069 38.7987C48.4036 38.5647 48.5064 38.2742 48.4974 37.9774C48.4974 37.2739 48.1382 36.4512 46.5732 36.4512H43.7445ZM44.6105 37.1308H46.3808C47.4647 37.1308 47.6123 37.727 47.6123 38.0609C47.6123 38.5557 47.298 38.9969 46.3294 38.9969H44.6105V37.1308Z" fill="#192168"/>
<path fill-rule="evenodd" clip-rule="evenodd" d="M52.0636 40.8988H54.7896L55.4311 42.4489H56.3611L53.8788 36.4512H52.968L50.5242 42.4489H51.4543L52.0957 40.8988H52.0636ZM52.301 40.2191L53.4234 37.268L54.5523 40.2191H52.301Z" fill="#192168"/>
<path fill-rule="evenodd" clip-rule="evenodd" d="M62.1596 40.0641V42.4489H63.0255V36.4512H60.293C58.6318 36.4512 58.0737 37.268 58.0737 38.2397C58.057 38.462 58.0897 38.6851 58.1699 38.8952C58.25 39.1052 58.3759 39.2976 58.5396 39.4604C58.7033 39.6232 58.9013 39.7529 59.1214 39.8413C59.3414 39.9298 59.5787 39.9752 59.8184 39.9747L58.0545 42.4489H59.1193L60.6971 40.0641H62.1596ZM62.1596 37.1308V39.3904H60.4662C59.1449 39.3904 58.9332 38.7286 58.9332 38.2517C58.9332 37.7747 59.1834 37.1308 60.3444 37.1308H62.1596Z" fill="#192168"/>
<path fill-rule="evenodd" clip-rule="evenodd" d="M70.1131 42.4489H69.2408V36.4512H73.3523V37.1308H70.1131V42.4489Z" fill="#192168"/>
<path fill-rule="evenodd" clip-rule="evenodd" d="M75.5076 36.4512V42.4489H76.3735V40.0641H78.0476C79.7153 40.0641 80.3182 39.301 80.3182 38.1801C80.3182 36.94 79.4523 36.4571 78.131 36.4571L75.5076 36.4512ZM76.3735 37.1308H77.9578C78.952 37.1308 79.433 37.4528 79.433 38.192C79.433 38.9313 78.9776 39.3844 77.9578 39.3844H76.3735V37.1308Z" fill="#192168"/>
<path fill-rule="evenodd" clip-rule="evenodd" d="M86.4052 36.4511H87.316L85.1287 41.3757C84.6284 42.5144 83.9999 42.5323 83.4931 42.5323C83.2506 42.5372 83.0085 42.5091 82.7748 42.4488V41.7334C82.9707 41.7959 83.1769 41.8261 83.3841 41.8228C83.7433 41.8228 84.1281 41.7572 84.3975 40.9464L81.9473 36.4392H83.0057L84.8529 40.0164L86.4052 36.4511Z" fill="#192168"/>
<path fill-rule="evenodd" clip-rule="evenodd" d="M90.1832 42.4489H89.3109V36.4512H94.2882V42.4489H93.4223V37.1308H90.1832V42.4489Z" fill="#192168"/>
<path fill-rule="evenodd" clip-rule="evenodd" d="M97.9762 42.4489H97.1103V36.4512H102.081V42.4489H101.215V37.1308H97.9762V42.4489Z" fill="#192168"/>
<path fill-rule="evenodd" clip-rule="evenodd" d="M105.616 40.8988H108.342L108.983 42.4489H109.913L107.476 36.4512H106.552L104.115 42.4489H105.045L105.648 40.8988H105.616ZM105.859 40.2191L106.982 37.268L108.104 40.2191H105.859Z" fill="#192168"/>
</svg>
