<svg width="110" height="21" viewBox="0 0 110 21" fill="none" xmlns="http://www.w3.org/2000/svg">
<path d="M20.7519 8.96935C20.7519 8.96935 21.2662 3.15611 21.3186 2.58695C21.3338 2.25604 21.282 1.92546 21.1663 1.61491C21.0507 1.30436 20.8734 1.02021 20.6452 0.779376C20.417 0.538547 20.1425 0.345974 19.838 0.213137C19.5336 0.0802994 19.2054 0.00991603 18.873 0.00618181H4.15197C3.4733 -0.040702 2.80337 0.180498 2.28702 0.621963C1.77067 1.06343 1.44937 1.68969 1.39259 2.36537C1.3272 3.04749 0.110983 17.1027 0.0194395 17.9108C-0.0240468 18.2549 0.00561796 18.6044 0.106506 18.9363C0.207393 19.2683 0.377245 19.5754 0.605021 19.8377C0.832796 20.0999 1.1134 20.3115 1.42858 20.4586C1.74377 20.6056 2.08648 20.685 2.43444 20.6914H17.0858C19.0256 20.6914 19.7798 19.6661 19.9454 18.0846C20.0457 17.1418 20.5077 11.4198 20.5077 11.4198H11.6803L11.2967 15.8384H9.05609L10.0195 4.85924H12.2601L11.907 8.96935H20.7519Z" fill="#008C95"/>
<path d="M34.4051 1.78317C34.0912 2.68687 31.5149 10.7203 31.5149 10.7203L32.6614 0.0061741H23.8165L21.9639 20.6914H28.6291C30.303 20.6914 30.8785 19.7443 31.1575 18.9839C31.4888 18.0802 33.943 11.3025 33.943 11.3025L33.0406 20.6914H41.8898L43.712 0.0061741H36.7678C36.2327 0.00210557 35.7112 0.174013 35.284 0.495268C34.8569 0.816522 34.5479 1.26919 34.4051 1.78317Z" fill="#008C95"/>
<path d="M79.2266 0.00610352L78.3983 9.43415H76.1533L76.9816 0.00610352H68.1367C68.1367 0.00610352 67.2867 9.99897 67.1952 10.9548C67.0905 12.1062 67.7444 13.7398 69.7061 13.7398H78.0191L77.836 15.8339H66.768L66.332 20.687H83.9389C85.1333 20.687 86.2842 19.9093 86.4411 18.2496C86.5501 17.1895 88.0758 0.00610352 88.0758 0.00610352H79.2266Z" fill="#008C95"/>
<path d="M102.317 0.00610352H90.2988L88.4854 20.687H97.3346L97.8925 14.2872H106.489C108.01 14.2872 109.022 13.5138 109.183 11.7412C109.248 11.0547 109.946 3.21251 109.994 2.5217C110.098 0.992356 108.878 0.00610352 107.378 0.00610352L102.317 0.00610352ZM98.2718 9.99897L98.7077 4.86785H100.927L100.491 9.99897H98.2718Z" fill="#008C95"/>
<path d="M54.2043 6.95766L54.3918 4.85916H65.4729L65.9088 0.00610352H45.9654L44.152 20.6913H61.8111C62.9315 20.6913 64.1477 20.0266 64.3046 18.2974C64.4223 16.994 64.9672 10.8505 65.0675 9.73394C65.1983 8.2437 64.2523 6.95766 62.3866 6.95766H54.2043ZM55.6341 16.3901H53.3761L53.812 11.2589H56.0701L55.6341 16.3901Z" fill="#008C95"/>
</svg>
