<svg width="110" height="22" viewBox="0 0 110 22" fill="none" xmlns="http://www.w3.org/2000/svg">
<path d="M0 4.68103H6.4383V11.9514L9.6453 4.68103H16.9105L13.4013 12.2612L17.1225 20.2485H9.82945L6.4383 12.6997V20.2485H0V4.68103Z" fill="#283D99"/>
<path d="M24.3565 4.12073C19.8048 4.12073 16.1149 7.86207 16.1149 12.4805C16.1149 17.0989 19.8048 20.8402 24.3565 20.8402C28.9081 20.8402 32.598 17.0989 32.598 12.4805C32.598 7.86207 28.9081 4.12073 24.3565 4.12073ZM24.2939 14.6661C23.0987 14.6661 22.1293 13.6881 22.1293 12.4805C22.1293 11.2728 23.0987 10.2983 24.2939 10.2983C25.4926 10.2983 26.4655 11.2728 26.4655 12.4805C26.4655 13.6881 25.4926 14.6661 24.2939 14.6661Z" fill="#283D99"/>
<path d="M35.1937 4.83777H41.0205L42.855 10.6708L44.7764 4.86908H50.6067L52.8026 19.1245L57.6878 4.86908H63.9142L69.1016 20.4366H62.6321L60.7697 13.1662L58.9699 20.4992H47.1287L46.208 14.8506L44.6236 20.4366H41.0205L39.4361 14.8193L38.5501 20.4366H32.7511L35.1937 4.83777Z" fill="#283D99"/>
<path d="M67.4545 10.6706V4.9316H77.2839V0H83.267V6.11492C83.267 6.11492 85.7062 4.21119 88.6074 4.43045C91.5051 4.64972 93.8539 5.89566 94.0381 6.24369L92.3911 10.2983C92.3911 10.2983 89.4934 8.80173 88.6665 9.01749C87.843 9.23671 87.6588 9.54998 88.0549 10.0163C88.4545 10.4862 90.4072 10.6706 90.8971 10.9525C91.3835 11.2344 93.6107 11.7948 94.0068 14.6661C94.4064 17.5338 92.3911 20.2833 89.7053 20.687C87.0195 21.0907 83.479 21.0907 80.6681 18.9086L82.3498 14.76C82.3498 14.76 84.7298 16.1626 85.9494 16.2879C87.1689 16.4096 87.6901 16.4445 87.843 15.8807C87.9959 15.3204 87.0195 14.9793 86.3489 14.8505C85.6784 14.7253 82.8362 14.0083 82.1656 12.2612C81.495 10.5175 81.2831 8.42585 83.1142 6.21236H77.4646V20.5304H71.0541V10.6706H67.4545Z" fill="#283D99"/>
<path d="M95.6571 4.90039H101.915V14.2277C101.915 14.2277 101.915 15.4771 102.829 15.4771C103.746 15.4771 103.593 14.259 103.593 14.259V4.9317H110V15.0386C110 15.0386 110 21.0595 102.922 21.0595C95.8413 21.0595 95.6884 15.9434 95.6571 15.2578V4.90039Z" fill="#283D99"/>
</svg>
