<svg width="140" height="42" viewBox="0 0 140 42" fill="none" xmlns="http://www.w3.org/2000/svg">
<path d="M23.6542 23.3087C23.6048 23.2593 23.5555 23.2593 23.5061 23.2099C23.3085 23.4074 23.111 23.605 22.9135 23.7531C21.8764 24.6914 20.7406 25.2346 19.5555 25.3828C18.8147 25.7778 17.9258 25.9753 17.1357 25.8272C16.5925 25.7284 15.7036 25.4321 15.0122 24.9877C14.3209 24.4939 13.8271 23.8519 13.5308 23.4568C13.5801 24 13.6789 24.4939 13.8764 24.9877C14.074 25.5309 14.2715 26.0247 14.5678 26.5186C14.9629 27.0618 15.4073 27.5556 15.9011 28C16.8394 28.8395 18.0246 29.4815 19.2098 29.7284C20.7406 30.0741 22.3703 29.7284 23.5555 28.7902C24.395 28.0988 24.9876 27.1112 24.9876 26.0247C25.0369 24.9383 24.5431 24.0494 23.6542 23.3087ZM23.111 23.0618C22.9629 23.2099 22.7653 23.3581 22.6172 23.5062C21.9258 24.1482 21.1357 24.5926 20.3456 24.8395C20.5431 24.6914 20.6913 24.4939 20.8394 24.2963C20.9382 24.1976 20.9876 24.0494 21.0863 23.9507C21.3332 23.5556 21.5308 22.963 21.5308 22.5186V22.4692C22.1234 22.6667 22.6666 22.8149 23.111 23.0618Z" fill="white"/>
<path d="M21.1357 22.5186C21.1357 22.4692 21.1357 22.4198 21.1357 22.3704C20.8888 22.2716 20.5925 22.2223 20.3456 22.1235C19.0123 21.7284 17.9752 20.9877 17.2839 20.0494C16.5431 19.605 15.9505 18.963 15.6542 18.1729C15.4567 17.6297 15.2592 16.7408 15.3086 15.9507C15.3579 15.1111 15.7036 14.3704 15.9011 13.926C15.4567 14.2223 15.0616 14.6173 14.716 14.963C14.3209 15.4074 14.0246 15.8519 13.7283 16.3457C13.432 16.9383 13.2345 17.5803 13.0863 18.2223C12.8394 19.4568 12.8888 20.7902 13.2345 21.926C13.6789 23.4568 14.8147 24.6914 16.1974 25.1852C17.2345 25.5803 18.3703 25.5803 19.3579 25.0371C20.395 24.5432 20.9382 23.6544 21.1357 22.5186ZM21.1357 21.9753C20.9382 21.926 20.6913 21.8272 20.4937 21.7778C19.5555 21.4815 18.8147 21.0865 18.2221 20.4939C18.469 20.5926 18.716 20.642 18.9629 20.642C19.0123 20.642 19.0123 20.642 19.0616 20.642C19.1604 20.642 19.2098 20.642 19.3085 20.642C19.8024 20.642 20.395 20.5432 20.8394 20.2963C20.9382 20.8889 21.0863 21.4321 21.1357 21.9753Z" fill="white"/>
<path d="M20.5925 20C20.6419 20 20.6913 19.9506 20.7407 19.9013C20.6913 19.6543 20.5925 19.3581 20.5431 19.1111C20.2468 17.7778 20.3456 16.5432 20.79 15.4568C20.8394 14.6173 21.0863 13.7284 21.6295 13.1358C21.9752 12.6914 22.6666 12.0988 23.4073 11.7531C24.1974 11.4074 24.9876 11.2593 25.4814 11.2593C24.9876 11.0618 24.4937 10.8642 23.9999 10.7655C23.4567 10.6667 22.8641 10.6173 22.3209 10.6173C21.6295 10.6667 20.9876 10.8148 20.3456 11.0124C19.1604 11.4074 18.0246 12.0988 17.1851 12.9877C16.0987 14.1235 15.6049 15.7037 15.8024 17.1852C15.9505 18.2716 16.5431 19.2593 17.4814 19.8519C18.4691 20.3457 19.5061 20.3951 20.5925 20ZM21.037 19.7037C20.9876 19.5062 20.9382 19.2593 20.8888 19.0618C20.6913 18.1235 20.6913 17.284 20.8394 16.4939C20.8888 16.7408 20.9876 16.9877 21.0863 17.1852C21.3333 17.7284 21.7777 18.321 22.3209 18.6173C21.9258 19.0124 21.4814 19.3581 21.037 19.7037Z" fill="white"/>
<path d="M22.5185 18.2222C22.5678 18.2716 22.6172 18.2716 22.6666 18.321C22.8641 18.1235 23.0617 17.9259 23.2592 17.7778C24.2962 16.8395 25.3827 16.2963 26.5678 16.1975C27.3086 15.8025 28.1975 15.6049 28.9876 15.7531C29.5308 15.8519 30.4197 16.1482 31.1111 16.5926C31.8024 17.0864 32.3456 17.7284 32.5925 18.1728C32.5431 17.6296 32.4444 17.0864 32.2469 16.5926C32.0493 16.0494 31.8518 15.5556 31.5555 15.0617C31.1604 14.5185 30.716 14.0247 30.2222 13.5803C29.2839 12.7407 28.0987 12.0988 26.9135 11.8519C25.3827 11.5062 23.753 11.8519 22.5678 12.7901C21.7283 13.3333 21.1357 14.321 21.1357 15.4568C21.1357 16.5926 21.6296 17.4815 22.5185 18.2222ZM23.0123 18.4691C23.1604 18.321 23.358 18.1728 23.5061 18.0247C24.1975 17.3827 24.9382 16.9383 25.7283 16.6914C25.5308 16.8395 25.3827 17.037 25.2345 17.2346C24.8888 17.7284 24.5925 18.3704 24.5925 19.0124C24.0493 18.9136 23.5061 18.7161 23.0123 18.4691Z" fill="white"/>
<path d="M24.9875 19.0124C24.9875 19.0618 24.9875 19.1111 24.9875 19.1605C25.2345 19.2593 25.5308 19.3087 25.7777 19.4074C27.111 19.8025 28.148 20.5432 28.8394 21.4815C29.5801 21.926 30.1727 22.5679 30.469 23.3581C30.6666 23.9013 30.8641 24.7902 30.8147 25.5803C30.7653 26.4198 30.4196 27.2099 30.1727 27.6544C30.6172 27.3087 31.0122 26.963 31.3579 26.5679C31.753 26.1235 32.0493 25.679 32.3456 25.1852C32.6419 24.5926 32.8394 23.9507 32.9876 23.3087C33.2345 22.0741 33.1851 20.7408 32.8394 19.605C32.395 18.0741 31.2592 16.8395 29.8764 16.3457C28.8394 15.9507 27.7036 15.9507 26.7159 16.4939C25.7283 16.9877 25.1851 17.8766 24.9875 19.0124ZM25.0369 19.605C25.2345 19.6544 25.4814 19.7531 25.6789 19.8025C26.5678 20.0988 27.3579 20.4939 27.9505 21.0865C27.7036 20.9877 27.4567 20.9383 27.2098 20.9383C26.6172 20.8889 25.8764 20.9877 25.3332 21.284C25.1851 20.6914 25.0863 20.0988 25.0369 19.605Z" fill="white"/>
<path d="M25.5801 21.5803C25.5307 21.5803 25.4814 21.6297 25.432 21.6297C25.4814 21.8766 25.5801 22.1729 25.6295 22.4198C25.9258 23.8025 25.827 25.0371 25.3332 26.1235C25.2838 26.963 25.0369 27.8025 24.4937 28.4445C24.148 28.8889 23.4567 29.4815 22.7159 29.8272C21.9258 30.1729 21.1357 30.321 20.6418 30.321C21.1357 30.5679 21.6789 30.7161 22.1727 30.8148C22.7159 30.9136 23.3085 30.963 23.8517 30.963C24.5431 30.9136 25.1851 30.7655 25.827 30.5679C27.0122 30.1729 28.148 29.4815 28.9875 28.5926C30.0739 27.4568 30.5678 25.8766 30.3702 24.3951C30.2221 23.3087 29.6295 22.321 28.6912 21.7284C27.7036 21.1852 26.6665 21.1852 25.5801 21.5803ZM25.0863 21.8766C25.1357 22.0741 25.1851 22.321 25.2344 22.5185C25.432 23.4568 25.432 24.3457 25.2838 25.1358C25.2344 24.8889 25.1357 24.5926 25.0369 24.3951C24.79 23.8519 24.3456 23.2593 23.8023 22.963C24.2468 22.5679 24.6418 22.1729 25.0863 21.8766Z" fill="white"/>
<path fill-rule="evenodd" clip-rule="evenodd" d="M23.6542 23.3087C23.6048 23.2593 23.5555 23.2593 23.5061 23.2099C23.3085 23.4074 23.111 23.605 22.9135 23.7531C21.8764 24.6914 20.7406 25.2346 19.5555 25.3828C18.8147 25.7778 17.9258 25.9753 17.1357 25.8272C16.5925 25.7284 15.7036 25.4321 15.0122 24.9877C14.3209 24.4939 13.8271 23.8519 13.5308 23.4568C13.5801 24 13.6789 24.4939 13.8764 24.9877C14.074 25.5309 14.2715 26.0247 14.5678 26.5186C14.9629 27.0618 15.4073 27.5556 15.9011 28C16.8394 28.8395 18.0246 29.4815 19.2098 29.7284C20.7406 30.0741 22.3703 29.7284 23.5555 28.7902C24.395 28.0988 24.9876 27.1112 24.9876 26.0247C25.0369 24.9383 24.5431 24.0494 23.6542 23.3087ZM23.111 23.0618C22.9629 23.2099 22.7653 23.3581 22.6172 23.5062C21.9258 24.1482 21.1357 24.5926 20.3456 24.8395C20.5431 24.6914 20.6913 24.4939 20.8394 24.2963C20.9382 24.1976 20.9876 24.0494 21.0863 23.9507C21.3332 23.5556 21.5308 22.963 21.5308 22.5186V22.4692C22.1234 22.6667 22.6666 22.8149 23.111 23.0618Z" fill="#EE3435"/>
<path fill-rule="evenodd" clip-rule="evenodd" d="M21.1357 22.5186C21.1357 22.4692 21.1357 22.4198 21.1357 22.3704C20.8888 22.2716 20.5925 22.2223 20.3456 22.1235C19.0123 21.7284 17.9752 20.9877 17.2839 20.0494C16.5431 19.605 15.9505 18.963 15.6542 18.1729C15.4567 17.6297 15.2592 16.7408 15.3086 15.9507C15.3579 15.1111 15.7036 14.3704 15.9011 13.926C15.4567 14.2223 15.0616 14.6173 14.716 14.963C14.3209 15.4074 14.0246 15.8519 13.7283 16.3457C13.432 16.9383 13.2345 17.5803 13.0863 18.2223C12.8394 19.4568 12.8888 20.7902 13.2345 21.926C13.6789 23.4568 14.8147 24.6914 16.1974 25.1852C17.2345 25.5803 18.3703 25.5803 19.3579 25.0371C20.395 24.5432 20.9382 23.6544 21.1357 22.5186ZM21.1357 21.9753C20.9382 21.926 20.6913 21.8272 20.4937 21.7778C19.5555 21.4815 18.8147 21.0865 18.2221 20.4939C18.469 20.5926 18.716 20.642 18.9629 20.642C19.0123 20.642 19.0123 20.642 19.0616 20.642C19.1604 20.642 19.2098 20.642 19.3085 20.642C19.8024 20.642 20.395 20.5432 20.8394 20.2963C20.9382 20.8889 21.0863 21.4321 21.1357 21.9753Z" fill="#EE3435"/>
<path fill-rule="evenodd" clip-rule="evenodd" d="M20.5925 20C20.6419 20 20.6913 19.9506 20.7407 19.9013C20.6913 19.6543 20.5925 19.3581 20.5431 19.1111C20.2468 17.7778 20.3456 16.5432 20.79 15.4568C20.8394 14.6173 21.0863 13.7284 21.6295 13.1358C21.9752 12.6914 22.6666 12.0988 23.4073 11.7531C24.1974 11.4074 24.9876 11.2593 25.4814 11.2593C24.9876 11.0618 24.4937 10.8642 23.9999 10.7655C23.4567 10.6667 22.8641 10.6173 22.3209 10.6173C21.6295 10.6667 20.9876 10.8148 20.3456 11.0124C19.1604 11.4074 18.0246 12.0988 17.1851 12.9877C16.0987 14.1235 15.6049 15.7037 15.8024 17.1852C15.9505 18.2716 16.5431 19.2593 17.4814 19.8519C18.4691 20.3457 19.5061 20.3951 20.5925 20ZM21.037 19.7037C20.9876 19.5062 20.9382 19.2593 20.8888 19.0618C20.6913 18.1235 20.6913 17.284 20.8394 16.4939C20.8888 16.7408 20.9876 16.9877 21.0863 17.1852C21.3333 17.7284 21.7777 18.321 22.3209 18.6173C21.9258 19.0124 21.4814 19.3581 21.037 19.7037Z" fill="#F7EC3D"/>
<path fill-rule="evenodd" clip-rule="evenodd" d="M22.5185 18.2222C22.5678 18.2716 22.6172 18.2716 22.6666 18.321C22.8641 18.1235 23.0617 17.9259 23.2592 17.7778C24.2962 16.8395 25.3827 16.2963 26.5678 16.1975C27.3086 15.8025 28.1975 15.6049 28.9876 15.7531C29.5308 15.8519 30.4197 16.1482 31.1111 16.5926C31.8024 17.0864 32.3456 17.7284 32.5925 18.1728C32.5431 17.6296 32.4444 17.0864 32.2469 16.5926C32.0493 16.0494 31.8518 15.5556 31.5555 15.0617C31.1604 14.5185 30.716 14.0247 30.2222 13.5803C29.2839 12.7407 28.0987 12.0988 26.9135 11.8519C25.3827 11.5062 23.753 11.8519 22.5678 12.7901C21.7283 13.3333 21.1357 14.321 21.1357 15.4568C21.1357 16.5926 21.6296 17.4815 22.5185 18.2222ZM23.0123 18.4691C23.1604 18.321 23.358 18.1728 23.5061 18.0247C24.1975 17.3827 24.9382 16.9383 25.7283 16.6914C25.5308 16.8395 25.3827 17.037 25.2345 17.2346C24.8888 17.7284 24.5925 18.3704 24.5925 19.0124C24.0493 18.9136 23.5061 18.7161 23.0123 18.4691Z" fill="#FDB72F"/>
<path fill-rule="evenodd" clip-rule="evenodd" d="M24.9875 19.0124C24.9875 19.0618 24.9875 19.1111 24.9875 19.1605C25.2345 19.2593 25.5308 19.3087 25.7777 19.4074C27.111 19.8025 28.148 20.5432 28.8394 21.4815C29.5801 21.926 30.1727 22.5679 30.469 23.3581C30.6666 23.9013 30.8641 24.7902 30.8147 25.5803C30.7653 26.4198 30.4196 27.2099 30.1727 27.6544C30.6172 27.3087 31.0122 26.963 31.3579 26.5679C31.753 26.1235 32.0493 25.679 32.3456 25.1852C32.6419 24.5926 32.8394 23.9507 32.9876 23.3087C33.2345 22.0741 33.1851 20.7408 32.8394 19.605C32.395 18.0741 31.2592 16.8395 29.8764 16.3457C28.8394 15.9507 27.7036 15.9507 26.7159 16.4939C25.7283 16.9877 25.1851 17.8766 24.9875 19.0124ZM25.0369 19.605C25.2345 19.6544 25.4814 19.7531 25.6789 19.8025C26.5678 20.0988 27.3579 20.4939 27.9505 21.0865C27.7036 20.9877 27.4567 20.9383 27.2098 20.9383C26.6172 20.8889 25.8764 20.9877 25.3332 21.284C25.1851 20.6914 25.0863 20.0988 25.0369 19.605Z" fill="#F79331"/>
<path fill-rule="evenodd" clip-rule="evenodd" d="M25.5801 21.5803C25.5307 21.5803 25.4814 21.6297 25.432 21.6297C25.4814 21.8766 25.5801 22.1729 25.6295 22.4198C25.9258 23.8025 25.827 25.0371 25.3332 26.1235C25.2838 26.963 25.0369 27.8025 24.4937 28.4445C24.148 28.8889 23.4567 29.4815 22.7159 29.8272C21.9258 30.1729 21.1357 30.321 20.6418 30.321C21.1357 30.5679 21.6789 30.7161 22.1727 30.8148C22.7159 30.9136 23.3085 30.963 23.8517 30.963C24.5431 30.9136 25.1851 30.7655 25.827 30.5679C27.0122 30.1729 28.148 29.4815 28.9875 28.5926C30.0739 27.4568 30.5678 25.8766 30.3702 24.3951C30.2221 23.3087 29.6295 22.321 28.6912 21.7284C27.7036 21.1852 26.6665 21.1852 25.5801 21.5803ZM25.0863 21.8766C25.1357 22.0741 25.1851 22.321 25.2344 22.5185C25.432 23.4568 25.432 24.3457 25.2838 25.1358C25.2344 24.8889 25.1357 24.5926 25.0369 24.3951C24.79 23.8519 24.3456 23.2593 23.8023 22.963C24.2468 22.5679 24.6418 22.1729 25.0863 21.8766Z" fill="#F36F31"/>
<path d="M48.0493 15.7037H44.8888L42.9629 18.5186L40.9876 15.7037H37.9259L41.3333 20.642L37.679 25.8766H40.7901L42.9629 22.7655L45.1357 25.8766H48.2962L44.5925 20.5432L48.0493 15.7037Z" fill="#EE3435"/>
<path d="M50.8642 19.8519C50.8148 21.1852 50.6666 22.1729 50.4691 22.8148C50.2716 23.3581 49.9753 23.6544 49.4815 23.6544C49.3333 23.6544 49.2346 23.6544 49.1358 23.605L48.8889 23.5556L48.7407 25.8766L48.8889 25.926C49.3333 26.0247 49.7284 26.0741 50.0741 26.0741C50.8642 26.0741 51.5062 25.8272 51.9506 25.3334C52.395 24.8395 52.6913 24.1482 52.8889 23.2593C53.0864 22.3704 53.1852 21.2346 53.2346 19.8519L53.2839 17.9753H56.2963V25.926H58.9136V15.7037H50.9629L50.8642 19.8519Z" fill="#EE3435"/>
<path d="M63.3086 21.7778H67.9012V19.6544H63.3086V17.8766H68.4938V15.7037H60.6913V25.8766H68.6913V23.6544H63.3086V21.7778Z" fill="#EE3435"/>
<path d="M78.2221 20.2963C77.5801 19.7531 76.5925 19.5062 75.3579 19.5062H72.79V17.8766H78.5184V15.7037H70.1727V25.8766H75.0616C76.3456 25.8766 77.3826 25.5803 78.1233 25.0371C78.8641 24.4445 79.2591 23.6544 79.2591 22.6173C79.2098 21.5803 78.8641 20.8395 78.2221 20.2963ZM72.79 21.5309H74.8641C76.2962 21.5309 76.4937 22.1729 76.4937 22.6173C76.4937 23.0124 76.3456 23.2593 76.0987 23.4568C75.8024 23.6544 75.4073 23.7531 74.8641 23.7531H72.79V21.5309Z" fill="#EE3435"/>
<path d="M80.5924 25.8766H83.2097V17.926H87.3085V25.8766H89.9257V15.7037H80.5924V25.8766Z" fill="#EE3435"/>
<path d="M98.4197 16.1482C97.7777 15.8519 96.9382 15.7037 96.0493 15.7037H91.6049V25.8766H94.2715V23.1605H96.0493C96.9382 23.1605 97.7283 23.0124 98.4197 22.7161C99.111 22.4198 99.6049 21.9753 99.9999 21.4321C100.346 20.8889 100.543 20.1976 100.543 19.4568C100.543 18.7161 100.346 18.0247 99.9999 17.4815C99.6049 16.8889 99.0616 16.4445 98.4197 16.1482ZM94.2715 17.926H95.9505C96.5925 17.926 97.0863 18.0741 97.3826 18.321C97.6789 18.5679 97.8271 18.963 97.8271 19.4568C97.8271 19.9506 97.6789 20.2963 97.3826 20.5926C97.037 20.8395 96.5925 20.9877 95.9505 20.9877H94.2715V17.926Z" fill="#EE3435"/>
<path d="M109.827 16.1976C108.988 15.7531 108.049 15.5062 106.963 15.5062C105.876 15.5062 104.938 15.7531 104.099 16.1976C103.259 16.642 102.568 17.284 102.074 18.0741C101.58 18.8642 101.333 19.8025 101.333 20.7902C101.333 21.7778 101.58 22.6667 102.074 23.5062C102.568 24.2963 103.21 24.9383 104.099 25.3828C104.938 25.8272 105.926 26.0741 106.963 26.0741C108 26.0741 108.988 25.8272 109.827 25.3828C110.667 24.9383 111.358 24.2963 111.852 23.5062C112.346 22.7161 112.593 21.7778 112.593 20.7902C112.593 19.8025 112.346 18.9136 111.852 18.0741C111.358 17.284 110.667 16.642 109.827 16.1976ZM108.494 23.3581C108.049 23.605 107.555 23.7531 107.012 23.7531C106.469 23.7531 105.975 23.605 105.531 23.3581C105.086 23.1112 104.741 22.7655 104.494 22.321C104.247 21.8766 104.099 21.3828 104.099 20.7902C104.099 20.1976 104.247 19.7038 104.494 19.2593C104.741 18.8149 105.086 18.4692 105.531 18.2223C105.975 17.9754 106.469 17.8272 107.012 17.8272C107.555 17.8272 108.049 17.9754 108.494 18.2223C108.938 18.4692 109.284 18.8149 109.531 19.2593C109.778 19.7038 109.926 20.247 109.926 20.7902C109.926 21.3828 109.778 21.8766 109.531 22.321C109.284 22.7655 108.938 23.1112 108.494 23.3581Z" fill="#EE3435"/>
<path d="M125.185 15.7037H122.963L119.457 21.6297L115.852 15.7037H113.679V25.8766H116.197V20.5926L118.815 24.8395H120.049L122.666 20.4939V25.8766H125.185V15.7037Z" fill="#EE3435"/>
</svg>
