<svg width="110" height="28" viewBox="0 0 110 28" fill="none" xmlns="http://www.w3.org/2000/svg">
<g clip-path="url(#clip0_832_36281)">
<path fill-rule="evenodd" clip-rule="evenodd" d="M92.6651 0.00561523H87.6494L84.5004 7.65524L88.159 17.0026H93.5126L89.2558 7.48629L92.6651 0.00561523Z" fill="#37864F"/>
<path d="M84.4145 0.00561523H79.9998V16.9998H84.4145V0.00561523Z" fill="#37864F"/>
<path fill-rule="evenodd" clip-rule="evenodd" d="M76.1721 17.0026L79.9139 7.65524L76.7676 0.00561523H71.7574L75.1612 7.48629L70.9016 16.9943L76.1721 17.0026Z" fill="#37864F"/>
<path fill-rule="evenodd" clip-rule="evenodd" d="M105.159 7.48629L109.15 0.00561523H104.134L100.138 7.65524L104.644 17.0026H110L105.159 7.48629Z" fill="#37864F"/>
<path d="M100.052 0.00561523H95.637V16.9998H100.052V0.00561523Z" fill="#37864F"/>
<path fill-rule="evenodd" clip-rule="evenodd" d="M47.1053 16.9942V0H42.6075V5.43948H37.9296V0H33.5066V16.9942H37.9296V9.26152L42.6075 9.26983V16.9942H47.1053Z" fill="#37864F"/>
<path fill-rule="evenodd" clip-rule="evenodd" d="M64.443 16.9942L64.4291 7.84349L59.8427 13.9394L55.1676 7.84349L55.187 16.9942H50.6725L50.667 0H54.658L59.8427 6.9683L65.0218 0H68.9408L68.9491 16.9942H64.443Z" fill="#37864F"/>
<path fill-rule="evenodd" clip-rule="evenodd" d="M36.7138 22.2676H34.7557V25.99H33.5066V21.2678H36.7138V22.2676Z" fill="#37864F"/>
<path fill-rule="evenodd" clip-rule="evenodd" d="M39.6744 25.076C39.7831 25.0809 39.8916 25.0639 39.9934 25.0258C40.0953 24.9877 40.1884 24.9294 40.2671 24.8544C40.418 24.698 40.53 24.5082 40.5939 24.3005C40.6557 24.0907 40.6892 23.8737 40.6937 23.6552C40.6998 23.2943 40.6038 22.939 40.4167 22.6304C40.3348 22.4947 40.2169 22.3843 40.0761 22.3115C39.9353 22.2386 39.7771 22.2062 39.6191 22.2177C38.9211 22.2177 38.5694 22.7218 38.5694 23.7272C38.5573 24.0688 38.6543 24.4054 38.8463 24.6882C38.9375 24.8177 39.0607 24.9212 39.204 24.9887C39.3472 25.0562 39.5055 25.0853 39.6634 25.0732L39.6744 25.076ZM38.5832 21.9519C38.7314 21.7247 38.919 21.5258 39.1371 21.3647C39.3972 21.2027 39.701 21.1253 40.0068 21.1431C40.2679 21.137 40.5272 21.1882 40.7664 21.293C41.0056 21.3977 41.219 21.5536 41.3916 21.7497C41.5795 21.9766 41.7249 22.2355 41.8209 22.5141C41.9314 22.8556 41.9848 23.2131 41.9787 23.5721C41.9778 23.999 41.9067 24.4229 41.7683 24.8267C41.6401 25.1948 41.4095 25.5186 41.1036 25.7601C40.7851 26.0003 40.3945 26.1252 39.9957 26.1146C39.7289 26.1265 39.464 26.0636 39.231 25.9329C38.9981 25.8023 38.8063 25.609 38.6774 25.3751H38.6525V27.8179H37.3895V21.2678H38.586L38.5832 21.9519Z" fill="#37864F"/>
<path fill-rule="evenodd" clip-rule="evenodd" d="M45.3965 25.9041C45.2386 26.3694 45.1195 26.735 44.9977 26.9815C44.9195 27.1895 44.8061 27.3825 44.6625 27.552C44.5518 27.6842 44.4043 27.7806 44.2388 27.829C44.0165 27.8806 43.7883 27.903 43.5602 27.8955L43.0063 27.8816V26.8652C43.0867 26.8795 43.1684 26.886 43.25 26.8846C43.4434 26.8962 43.636 26.851 43.804 26.7544C43.9537 26.5959 44.0437 26.3903 44.0588 26.1728L42.3195 21.2678H43.7043L44.7152 24.7409H44.7345L45.6984 21.2678H47.0195L45.3965 25.9041Z" fill="#37864F"/>
<path fill-rule="evenodd" clip-rule="evenodd" d="M51.9798 25.99H50.7251V22.287H48.9609V25.99H47.7146V21.2678H51.9798V25.99Z" fill="#37864F"/>
<path fill-rule="evenodd" clip-rule="evenodd" d="M57.3666 25.99H56.1148V22.287H54.3561V25.99H53.1097V21.2678H57.3666V25.99Z" fill="#37864F"/>
<path fill-rule="evenodd" clip-rule="evenodd" d="M61.1111 23.6911C60.8548 23.8326 60.5719 23.9194 60.2803 23.9459C60.1267 23.9716 59.9757 24.0105 59.8288 24.0622C59.719 24.1057 59.6232 24.1785 59.5519 24.2727C59.4757 24.3829 59.4396 24.5158 59.4494 24.6494C59.4431 24.73 59.4556 24.8109 59.4859 24.8859C59.5162 24.9609 59.5634 25.0278 59.6239 25.0814C59.7355 25.1708 59.8742 25.2196 60.0171 25.2199C60.2019 25.2203 60.3845 25.1797 60.5517 25.1008C60.7167 25.0319 60.8595 24.9188 60.9643 24.774C61.0739 24.6377 61.1318 24.467 61.1278 24.2921L61.1111 23.6911ZM62.3159 25.0621C62.3034 25.244 62.3308 25.4264 62.3962 25.5966C62.4136 25.6427 62.4406 25.6847 62.4755 25.7195C62.5103 25.7544 62.5523 25.7814 62.5984 25.7988V25.9899H61.2524C61.1953 25.8094 61.1554 25.6239 61.1333 25.436C60.9472 25.6294 60.7368 25.7979 60.5074 25.9373C60.2297 26.0743 59.9222 26.1399 59.6128 26.1284C59.3672 26.1308 59.1241 26.0788 58.901 25.976C58.6833 25.8795 58.4992 25.7204 58.372 25.519C58.2319 25.2872 58.1617 25.0199 58.1698 24.7491C58.1633 24.4837 58.2232 24.2209 58.3443 23.9847C58.4594 23.7778 58.6289 23.6063 58.8345 23.4889C59.0554 23.36 59.3006 23.278 59.5546 23.248L60.6625 23.0763C60.9394 23.0375 61.0945 22.9129 61.0945 22.7107C61.108 22.6213 61.0924 22.53 61.05 22.4502C61.0077 22.3704 60.9407 22.3064 60.8591 22.2675C60.6753 22.1902 60.4767 22.1542 60.2775 22.1623C60.1775 22.1516 60.0763 22.1623 59.9808 22.1938C59.8852 22.2254 59.7976 22.2769 59.7236 22.3451C59.6117 22.4784 59.5431 22.6426 59.5269 22.8159H58.3277C58.3468 22.4321 58.482 22.0632 58.7154 21.7579C58.9002 21.5202 59.1566 21.3483 59.4466 21.2677C59.7741 21.1787 60.1126 21.1367 60.452 21.1431C60.7324 21.1456 61.0115 21.1828 61.2828 21.2539C61.5606 21.3249 61.8141 21.4694 62.0168 21.6721C62.1219 21.7822 62.2033 21.9128 62.2557 22.0558C62.3081 22.1987 62.3305 22.351 62.3214 22.503L62.3159 25.0621Z" fill="#37864F"/>
<path fill-rule="evenodd" clip-rule="evenodd" d="M68.0351 25.99H66.786V21.2678H68.0351V23.057L69.5944 21.2678H71.1426L69.4504 23.0958L71.209 25.99H69.7052L68.5502 23.9654L68.0351 24.4944V25.99Z" fill="#37864F"/>
<path fill-rule="evenodd" clip-rule="evenodd" d="M73.8264 22.1955C73.654 22.1774 73.4799 22.2074 73.3235 22.2822C73.167 22.357 73.0343 22.4737 72.9402 22.6193C72.766 22.928 72.6797 23.2786 72.6909 23.6329C72.6801 23.9819 72.7664 24.3271 72.9402 24.63C73.0323 24.778 73.1644 24.8971 73.3212 24.9735C73.4779 25.0499 73.653 25.0806 73.8264 25.062C73.9973 25.0801 74.1699 25.0513 74.3256 24.9785C74.4812 24.9058 74.6141 24.792 74.7099 24.6494C74.8846 24.3436 74.9727 23.996 74.9647 23.644C74.9738 23.2874 74.8857 22.9351 74.7099 22.6248C74.6155 22.4805 74.483 22.365 74.3271 22.2912C74.1712 22.2174 73.9979 22.1881 73.8264 22.2066V22.1955ZM73.8264 26.1145C73.4077 26.1189 72.9939 26.0239 72.6189 25.8375C72.2511 25.6516 71.9452 25.363 71.7382 25.0066C71.5045 24.5834 71.3888 24.1051 71.403 23.6218C71.3975 23.2434 71.4642 22.8674 71.5997 22.514C71.7154 22.2166 71.8961 21.9488 72.1287 21.7302C72.3552 21.5306 72.6173 21.3756 72.9014 21.2732C73.1995 21.1732 73.512 21.1226 73.8264 21.1237C74.1399 21.1238 74.4513 21.1743 74.7487 21.2732C75.0342 21.3747 75.2961 21.533 75.5187 21.7385C75.7499 21.9549 75.9305 22.2197 76.0476 22.514C76.1811 22.8678 76.246 23.2438 76.2387 23.6218C76.244 23.9916 76.1792 24.3591 76.0476 24.7048C75.9326 25.001 75.7518 25.2671 75.5187 25.483C75.2962 25.6909 75.0318 25.8486 74.7432 25.9455C74.4492 26.0516 74.1389 26.1051 73.8264 26.1034V26.1145Z" fill="#37864F"/>
<path fill-rule="evenodd" clip-rule="evenodd" d="M81.6587 22.7634L80.4706 25.9899H79.4264L78.2355 22.7634H78.1967C78.1967 22.8077 78.2161 22.888 78.2244 22.9905C78.2327 23.0929 78.2244 23.2009 78.2244 23.3256V25.9899H77.064V21.2816H78.7673L79.9166 24.4943H79.9554L81.1048 21.2816H82.8109V25.9899H81.6476V23.3256C81.6476 23.2203 81.6615 23.1095 81.667 22.9988C81.6726 22.888 81.667 22.816 81.6864 22.7634H81.6587Z" fill="#37864F"/>
<path fill-rule="evenodd" clip-rule="evenodd" d="M88.2171 25.99H86.9681V22.2926H85.2066V25.99H83.9575V21.2678H88.2171V25.99Z" fill="#37864F"/>
<path fill-rule="evenodd" clip-rule="evenodd" d="M91.9506 23.6911C91.694 23.833 91.4114 23.9216 91.1197 23.9514C90.9686 23.9732 90.8201 24.0103 90.6765 24.0622C90.5675 24.1071 90.472 24.1797 90.3996 24.2727C90.3217 24.3824 90.2827 24.515 90.2888 24.6494C90.2805 24.731 90.2929 24.8133 90.3248 24.8888C90.3568 24.9644 90.4072 25.0306 90.4716 25.0814C90.585 25.1714 90.7256 25.2202 90.8704 25.2199C91.0544 25.2179 91.2361 25.1793 91.405 25.1064C91.568 25.0317 91.7099 24.9174 91.8176 24.774C91.9212 24.635 91.9757 24.4655 91.9727 24.2921L91.9506 23.6911ZM93.172 25.0621C93.1589 25.2429 93.1815 25.4245 93.2384 25.5966C93.2558 25.6427 93.2828 25.6847 93.3177 25.7195C93.3525 25.7544 93.3945 25.7814 93.4406 25.7988V25.9899H92.1001C92.0421 25.8098 92.0031 25.6241 91.9838 25.4359C91.7959 25.6292 91.5825 25.796 91.3496 25.9317C91.0722 26.0696 90.7645 26.1354 90.455 26.1228C90.2137 26.1261 89.975 26.074 89.757 25.9705C89.5353 25.8768 89.3478 25.7173 89.2197 25.5135C89.0778 25.2845 89.0074 25.0183 89.0176 24.7491C89.0109 24.4843 89.0719 24.2221 89.1948 23.9875C89.3057 23.7781 89.4725 23.6035 89.6767 23.4834C89.9016 23.3588 90.1476 23.2771 90.4024 23.2424L91.5102 23.0707C91.8038 23.0402 91.9478 22.9073 91.9478 22.7051C91.9596 22.616 91.9432 22.5253 91.901 22.4459C91.8588 22.3664 91.7929 22.3022 91.7124 22.262C91.5309 22.1866 91.3355 22.1508 91.1391 22.1567C91.0348 22.143 90.9289 22.153 90.8291 22.1861C90.7293 22.2192 90.6383 22.2745 90.563 22.3479C90.4594 22.485 90.3918 22.6459 90.3664 22.8159H89.1727C89.185 22.4387 89.3126 22.0743 89.5382 21.7718C89.7299 21.5298 89.9923 21.3536 90.2888 21.2677C90.6177 21.1811 90.9568 21.1391 91.2969 21.1431C91.5774 21.1456 91.8565 21.1828 92.1278 21.2539C92.4034 21.3282 92.6552 21.4722 92.859 21.6721C92.9656 21.7815 93.0485 21.9118 93.1024 22.0548C93.1562 22.1978 93.1799 22.3504 93.172 22.5029V25.0621Z" fill="#37864F"/>
<path fill-rule="evenodd" clip-rule="evenodd" d="M98.5118 25.99H97.2627V24.1205H95.5068V25.99H94.2577V21.2678H95.5068V23.1234H97.2627V21.2678H98.5118V25.99Z" fill="#37864F"/>
<path fill-rule="evenodd" clip-rule="evenodd" d="M103.907 25.99H102.658V23.1428L100.985 25.99H99.6473V21.2678H100.894V24.1094L102.566 21.2678H103.907V25.99Z" fill="#37864F"/>
<path fill-rule="evenodd" clip-rule="evenodd" d="M109.302 25.9954H108.047V23.1538L106.375 25.9954H105.042V21.2788H106.297V24.1149L107.967 21.2788H109.302V25.9954Z" fill="#37864F"/>
<path fill-rule="evenodd" clip-rule="evenodd" d="M108.668 19.5035C108.668 19.6726 108.628 19.8393 108.552 19.9903C108.476 20.1413 108.366 20.2725 108.23 20.3732C108.088 20.4697 107.931 20.5426 107.765 20.5892C107.583 20.6309 107.397 20.6522 107.211 20.6529C106.966 20.6545 106.723 20.6123 106.494 20.5283C106.281 20.4525 106.094 20.3169 105.956 20.1378C105.826 19.9523 105.758 19.7302 105.763 19.5035H106.629C106.626 19.5805 106.639 19.6573 106.667 19.729C106.696 19.8007 106.738 19.8657 106.793 19.92C106.848 19.9742 106.913 20.0164 106.985 20.0439C107.057 20.0714 107.134 20.0835 107.211 20.0796C107.288 20.0826 107.366 20.0699 107.438 20.0423C107.51 20.0146 107.576 19.9726 107.632 19.9188C107.687 19.8649 107.732 19.8004 107.762 19.729C107.792 19.6577 107.807 19.581 107.806 19.5035H108.668Z" fill="#37864F"/>
<path d="M22.4559 0C19.3095 0.000801429 16.2751 1.16818 13.9394 3.27643C11.6064 1.17096 8.57656 0.0038033 5.43399 0L4.21302e-05 0V13.9449C-0.0259931 15.7918 0.315289 17.6255 1.00406 19.3393C1.69282 21.0532 2.71534 22.613 4.01218 23.9283C5.30903 25.2436 6.85434 26.288 8.55831 27.0008C10.2623 27.7137 12.091 28.0808 13.938 28.0808C15.7851 28.0808 17.6138 27.7137 19.3177 27.0008C21.0217 26.288 22.567 25.2436 23.8639 23.9283C25.1607 22.613 26.1832 21.0532 26.872 19.3393C27.5608 17.6255 27.902 15.7918 27.876 13.9449V0H22.4559ZM24.4223 13.9394C24.3776 16.6905 23.2534 19.3138 21.292 21.2435C19.3307 23.1732 16.6895 24.2546 13.938 24.2546C11.1866 24.2546 8.54535 23.1732 6.58402 21.2435C4.6227 19.3138 3.49844 16.6905 3.45373 13.9394V3.45922H5.43399C7.08859 3.46416 8.71181 3.91121 10.1356 4.75411C11.5595 5.597 12.7321 6.80512 13.5323 8.25339L13.9394 8.97903L14.3438 8.25339C15.1451 6.80307 16.3199 5.59362 17.7464 4.7506C19.1729 3.90757 20.799 3.46169 22.4559 3.45922H24.4223V13.9394Z" fill="#37864F"/>
<path d="M8.54149 9.61888C8.95318 10.0273 9.27936 10.5137 9.50096 11.0497C9.72256 11.5856 9.83514 12.1603 9.83212 12.7402V13.9561C9.83543 14.4888 9.93975 15.016 10.1395 15.5098C10.3489 16.0065 10.6538 16.4573 11.0369 16.8364C11.2552 17.0528 11.4945 17.2467 11.7514 17.4153C12.0115 17.5795 12.2905 17.7115 12.5823 17.8086L13.1972 18.0301V12.7402C13.1884 10.6862 12.3686 8.71879 10.9162 7.26636C9.46374 5.81394 7.49634 4.9941 5.44231 4.98535H4.96594V8.32825H5.434C6.01162 8.32692 6.58376 8.44032 7.1172 8.66188C7.65064 8.88343 8.13477 9.20873 8.54149 9.61888Z" fill="#37864F"/>
<path d="M16.9749 7.2591C16.2516 7.97641 15.6781 8.83036 15.2877 9.77131C14.8973 10.7123 14.6979 11.7214 14.7011 12.7401V18.0384L15.3021 17.8168C15.5938 17.7195 15.8728 17.5875 16.133 17.4235C16.3916 17.2584 16.6304 17.0642 16.8448 16.8447C17.222 16.4609 17.5211 16.0075 17.7255 15.5097C17.9277 15.0099 18.0321 14.4758 18.0329 13.9366V12.7401C18.0376 11.5719 18.5058 10.4532 19.3346 9.62987C19.7413 9.21888 20.2258 8.89307 20.7598 8.67147C21.2939 8.44987 21.8667 8.33692 22.4449 8.33924H22.8991V4.98526H22.456C21.4373 4.98242 20.4282 5.18196 19.4873 5.5723C18.5464 5.96264 17.6924 6.536 16.9749 7.2591Z" fill="#37864F"/>
<path d="M19.5562 12.7402V13.9561C19.5636 14.6858 19.425 15.4096 19.1487 16.0849C18.8723 16.7603 18.4638 17.3737 17.947 17.8889C17.4089 18.4217 16.7745 18.8474 16.0776 19.1435C15.3802 19.4325 14.6333 19.583 13.8785 19.5867C13.149 19.5831 12.4275 19.4344 11.756 19.1491C11.0846 18.8638 10.4767 18.4476 9.96783 17.9249C9.44705 17.404 9.03391 16.7857 8.75198 16.1053C8.46521 15.4242 8.31919 14.6922 8.32269 13.9533V12.7402C8.32343 11.9728 8.01967 11.2365 7.4781 10.6929C6.93652 10.1492 6.20137 9.84265 5.434 9.84045H4.96594V13.945C5.00727 16.2972 5.97072 18.5392 7.64881 20.1881C9.32691 21.8369 11.5854 22.7608 13.938 22.7608C16.2907 22.7608 18.5492 21.8369 20.2273 20.1881C21.9054 18.5392 22.8688 16.2972 22.9101 13.945V9.84045C22.658 10.5775 22.2146 11.2344 21.6253 11.7439C21.036 12.2534 20.3219 12.5972 19.5562 12.7402Z" fill="#37864F"/>
</g>
<defs>
<clipPath id="clip0_832_36281">
<rect width="110" height="27.8843" fill="white"/>
</clipPath>
</defs>
</svg>
