<svg width="110" height="35" viewBox="0 0 110 35" fill="none" xmlns="http://www.w3.org/2000/svg">
<g clip-path="url(#clip0_829_34690)">
<path fill-rule="evenodd" clip-rule="evenodd" d="M0 34.1586V12.8095H21.2851V0H55.344V34.1586H0ZM19.7123 23.4982C19.7123 19.812 21.8401 17.2928 25.4624 17.2928C29.1131 17.2928 31.2124 19.812 31.2124 23.4982C31.2124 27.1916 29.0775 29.8033 25.4624 29.8033C21.8401 29.8033 19.7123 27.1916 19.7123 23.4982ZM68.4808 22.7724C66.901 22.7724 65.983 21.6195 65.983 20.118C65.983 18.6307 66.901 17.4849 68.4808 17.4849C70.0678 17.4849 70.9929 18.5951 70.9929 20.118C70.9929 21.6195 70.0678 22.7724 68.4808 22.7724ZM75.0919 20.9862L76.0384 21.1071C75.8178 22.1888 74.9282 22.7724 73.8821 22.7724C72.2596 22.7724 71.5053 21.6195 71.5053 20.118C71.5053 18.6307 72.2881 17.4849 73.9106 17.4849C74.8998 17.4849 75.6328 17.9617 75.9815 18.8513L75.0492 19.2284C74.8357 18.6876 74.4514 18.346 73.8465 18.346C72.8004 18.346 72.4873 19.1715 72.4873 20.0966C72.4873 21.0431 72.8716 21.8757 73.9106 21.8757C74.5511 21.9042 74.9282 21.5839 75.0919 20.9862ZM83.5319 22.7724C81.9379 22.7724 81.0554 21.6195 81.0554 20.118C81.0554 18.6307 81.9379 17.4849 83.5319 17.4849C85.1189 17.4849 86.0369 18.5951 86.0369 20.118C86.0369 21.6195 85.1189 22.7724 83.5319 22.7724ZM94.7046 20.9862L95.6511 21.1071C95.4305 22.1888 94.5409 22.7724 93.4948 22.7724C91.8723 22.7724 91.1108 21.6195 91.1108 20.118C91.1108 18.6307 91.915 17.4849 93.5233 17.4849C94.5125 17.4849 95.2455 17.9617 95.5942 18.8513L94.669 19.2284C94.4484 18.6876 94.0641 18.346 93.4593 18.346C92.4131 18.346 92.1 19.1715 92.1 20.0966C92.1 21.0431 92.4843 21.8757 93.5233 21.8757C94.1993 21.9042 94.5409 21.5839 94.7046 20.9862ZM59.9412 22.7012V17.5774H61.7558L62.6525 21.8117H62.7735L63.5705 17.5774H65.3709V22.6656H64.4245V18.4741H64.3035L63.4993 22.7012H61.8839L61.03 18.4741H60.9019V22.7012H59.9412ZM76.7714 22.6656V17.5774H77.7178V19.5558H78.2302L79.7887 17.5774H80.9629L79.0557 19.9329L81.0198 22.6656H79.8528L78.2302 20.4453H77.7178V22.6656H76.7714ZM86.6774 22.6656V17.5774H88.9902C89.8157 17.5774 90.4775 17.9332 90.4775 18.8228C90.4775 19.4277 90.264 19.8618 89.7232 20.0682C90.2925 20.2176 90.6127 20.6659 90.6127 21.2708C90.6127 22.1888 89.9366 22.6656 89.0542 22.6656H86.6774ZM96.4197 22.6656V17.5774H97.3661V19.5558H97.8785L99.4299 17.5774H100.604L98.7325 19.9685L100.697 22.6656H99.5224L97.907 20.4453H97.3946V22.6656H96.4197ZM100.832 22.6656L102.54 17.5774H103.935L105.65 22.6656H104.632L104.226 21.3633H102.191L101.778 22.6656H100.832ZM11.1086 27.4122H11.5854L13.8129 17.5917H17.8692V29.4475H15.7485V19.6554H15.3002L13.1368 29.4475H9.55017L7.42237 19.6554H6.98116V29.5187H4.88183V17.6201H8.91681L11.1086 27.4122ZM44.2567 29.476H41.9723L45.5305 23.1851L42.2285 17.5917H44.5129L46.968 21.8117L49.3734 17.5917H51.6577L48.1992 23.2421L51.8783 29.476H49.594L46.8328 24.7721L44.2567 29.476ZM106.098 22.6656L106.311 21.2993C106.383 20.851 106.603 20.5378 107.016 20.3528C106.475 20.118 106.126 19.6198 106.126 19.0363C106.126 18.0898 107.016 17.6059 107.87 17.6059H109.998V22.7012H109.051V20.73H107.934C107.493 20.73 107.301 20.8865 107.237 21.3633L107.016 22.6656H106.098ZM40.485 29.476H33.0555V17.6201H40.485V19.6839H35.2047V22.4877H39.752V24.459H35.2047V27.4122H40.485V29.476ZM68.5164 21.9042C69.5696 21.9042 70.0108 21.1071 70.0108 20.118C70.0108 19.1359 69.4984 18.3745 68.4523 18.3745C67.4062 18.3745 66.9935 19.1715 66.9935 20.118C66.965 21.0787 67.4418 21.9042 68.5164 21.9042ZM83.5319 21.9042C84.578 21.9042 85.0264 21.1071 85.0264 20.118C85.0264 19.1359 84.514 18.3745 83.4679 18.3745C82.4218 18.3745 82.009 19.1715 82.009 20.118C82.009 21.0787 82.4787 21.9042 83.5319 21.9042ZM87.6238 19.6483H88.8692C89.2748 19.6483 89.5879 19.4562 89.5879 19.0363C89.5879 18.5951 89.3033 18.4385 88.8692 18.4385H87.6238V19.6483ZM102.476 20.5094H103.935L103.308 18.4741H103.081L102.476 20.5094ZM109.115 19.8618V18.4741H108.005C107.493 18.4741 107.144 18.6307 107.144 19.1715C107.144 19.7123 107.493 19.8618 108.005 19.8618H109.115ZM21.9042 23.5267C21.9042 25.8822 23.057 27.704 25.4624 27.704C27.8748 27.704 29.0205 25.8822 29.0205 23.5267C29.0205 21.1783 27.8748 19.3636 25.4624 19.3636C23.0143 19.3636 21.9042 21.1783 21.9042 23.5267ZM87.6238 21.8117H88.9261C89.3673 21.8117 89.7232 21.648 89.7232 21.1712C89.7232 20.7015 89.3958 20.5094 88.9261 20.5094H87.6238V21.8117ZM59.9412 29.5045V24.3807H63.663V25.2773H60.9019V26.3021H62.2611C63.2716 26.3021 63.8836 26.7362 63.8836 27.8535C63.8836 28.8996 63.2432 29.5045 62.2611 29.5045H59.9412ZM64.4885 29.476V24.3807H65.4421V28.6149H65.5987L66.901 24.3807H68.6729V29.476H67.7265V25.2489H67.5628L66.2961 29.476H64.4885ZM69.5696 29.476V24.3807H71.6903C72.7364 24.3807 73.4694 25.0211 73.4694 26.1028C73.4694 27.1845 72.7364 27.8179 71.6903 27.8179H70.5161V29.476H69.5696ZM73.505 29.476L75.0919 26.7718L73.5334 24.3807H74.672L75.8462 26.3946H76.2305V24.3807H77.1841V26.3946H77.5684L78.707 24.3807H79.8528L78.2943 26.7718L79.8812 29.476H78.7711L77.5684 27.2486H77.1841V29.476H76.2305V27.2486H75.8462L74.6436 29.476H73.505ZM80.1018 29.476L81.8169 24.3807H83.2117L84.9267 29.476H83.9162L83.4963 28.1666H81.4682L81.0554 29.476H80.1018ZM70.5161 26.9639H71.6903C72.1955 26.9639 72.5158 26.5796 72.5158 26.0744C72.5158 25.5549 72.2311 25.2489 71.6903 25.2489H70.5161V26.9639ZM81.7528 27.3126H83.2117L82.5783 25.2773H82.3577L81.7528 27.3126ZM60.9019 28.5864H62.1401C62.6098 28.5864 62.9656 28.3303 62.9656 27.8535C62.9656 27.3838 62.6098 27.1561 62.1401 27.1561H60.9019V28.5864Z" fill="#FF0508"/>
</g>
<defs>
<clipPath id="clip0_829_34690">
<rect width="110" height="34.1586" fill="white"/>
</clipPath>
</defs>
</svg>
