<svg width="110" height="24" viewBox="0 0 110 24" fill="none" xmlns="http://www.w3.org/2000/svg">
<path fill-rule="evenodd" clip-rule="evenodd" d="M8.12736 8.70423C7.44034 8.70423 6.76874 8.49973 6.1975 8.1166C5.62626 7.73347 5.18104 7.18891 4.91812 6.55178C4.65521 5.91466 4.58642 5.21359 4.72045 4.53722C4.85449 3.86085 5.18532 3.23957 5.67112 2.75194C6.15692 2.2643 6.77586 1.93222 7.44969 1.79768C8.12351 1.66314 8.82195 1.73219 9.45667 1.9961C10.0914 2.26 10.6339 2.70691 11.0156 3.28031C11.3973 3.85371 11.601 4.52784 11.601 5.21745C11.601 6.1422 11.235 7.02908 10.5836 7.68297C9.93217 8.33687 9.04863 8.70423 8.12736 8.70423ZM11.5767 0C5.18294 0 4.18374e-06 5.20251 4.18374e-06 11.6222C-0.0013393 13.2068 0.320897 14.7749 0.946823 16.2297C5.95161 10.2274 13.3254 6.28316 21.6255 5.85005C19.6296 2.35681 15.8796 0 11.5767 0Z" fill="#113F83"/>
<path fill-rule="evenodd" clip-rule="evenodd" d="M1.71387 17.7004C3.24376 20.2258 5.70658 22.1196 8.62148 22.9001C8.42075 19.9222 5.94974 17.5681 2.93188 17.5681C2.52233 17.5683 2.11398 17.6126 1.71387 17.7004Z" fill="#113F83"/>
<path fill-rule="evenodd" clip-rule="evenodd" d="M13.0901 20.38C13.0907 21.3105 13.1901 22.2382 13.3866 23.1475C18.9313 22.2856 23.1788 17.4723 23.1788 11.6636C23.1795 10.3623 22.9614 9.07013 22.5337 7.84161C17.0848 9.38949 13.0901 14.4149 13.0901 20.38Z" fill="#113F83"/>
<path fill-rule="evenodd" clip-rule="evenodd" d="M28.9451 5.80951H31.1747V14.1065H36.1167V15.9881H28.9451V5.80951Z" fill="#113F83"/>
<path fill-rule="evenodd" clip-rule="evenodd" d="M41.9531 11.5121C41.7687 10.4863 41.3281 9.94482 40.3478 9.94482C39.0697 9.94482 38.701 10.941 38.6727 11.5121H41.9531ZM38.6727 12.795C38.7295 14.0781 39.3531 14.6629 40.4753 14.6629C41.2861 14.6629 41.9392 14.1648 42.0667 13.708H43.841C43.2721 15.4467 42.0667 16.1886 40.4048 16.1886C38.0899 16.1886 36.6558 14.5914 36.6558 12.3113C36.6558 10.1002 38.1752 8.41986 40.4048 8.41986C42.9044 8.41986 44.112 10.5286 43.9698 12.7955L38.6727 12.795Z" fill="#113F83"/>
<path fill-rule="evenodd" clip-rule="evenodd" d="M49.5919 12.3818C49.2518 12.6806 48.5417 12.6961 47.9154 12.8089C47.2919 12.9382 46.7244 13.1519 46.7244 13.8933C46.7244 14.6482 47.3073 14.8332 47.9593 14.8332C49.5356 14.8332 49.5924 13.5802 49.5924 13.1369V12.3818H49.5919ZM44.9343 10.8852C45.0487 8.99014 46.7386 8.41956 48.3853 8.41956C49.8492 8.41956 51.6109 8.74607 51.6109 10.5151V14.3491C51.6109 15.0183 51.6811 15.689 51.8654 15.9883H49.8219C49.7449 15.7576 49.6969 15.5182 49.679 15.2755C49.0394 15.946 48.103 16.1883 47.2083 16.1883C45.8163 16.1883 44.709 15.489 44.709 13.979C44.709 12.3103 45.9588 11.9118 47.2083 11.741C48.4444 11.5559 49.5937 11.598 49.5937 10.7696C49.5937 9.90019 48.9982 9.77217 48.2871 9.77217C47.5202 9.77217 47.0239 10.0852 46.9522 10.8842L44.9343 10.8852Z" fill="#113F83"/>
<path fill-rule="evenodd" clip-rule="evenodd" d="M56.5083 9.94402C55.1871 9.94402 54.7313 11.0842 54.7313 12.2961C54.7313 13.45 55.2588 14.6621 56.5083 14.6621C57.8422 14.6621 58.2404 13.4931 58.2404 12.2809C58.2404 11.0837 57.8149 9.94352 56.5083 9.94352V9.94402ZM58.2699 15.0474H58.2414C57.7727 15.8444 56.9485 16.1876 56.0103 16.1876C53.7956 16.1876 52.7168 14.2771 52.7168 12.2391C52.7168 10.2568 53.8085 8.4188 55.9686 8.4188C56.8371 8.4188 57.6871 8.7889 58.1414 9.51689H58.1697V5.8092H60.1864V15.9876H58.2699V15.0474Z" fill="#113F83"/>
<path fill-rule="evenodd" clip-rule="evenodd" d="M66.5048 11.5121C66.3205 10.4863 65.8813 9.94482 64.9015 9.94482C63.6217 9.94482 63.2535 10.941 63.225 11.5121H66.5048ZM63.225 12.795C63.2818 14.0781 63.905 14.6629 65.029 14.6629C65.8381 14.6629 66.4914 14.1648 66.6187 13.708H68.3942C67.8263 15.4467 66.6187 16.1886 64.9578 16.1886C62.6426 16.1886 61.2085 14.5914 61.2085 12.3113C61.2085 10.1002 62.728 8.41986 64.9578 8.41986C67.4571 8.41986 68.6647 10.5286 68.5225 12.7955L63.225 12.795Z" fill="#113F83"/>
<path fill-rule="evenodd" clip-rule="evenodd" d="M69.5725 8.61736H71.4902V9.98716H71.5187C71.8874 9.06068 72.8809 8.41986 73.8625 8.41986C74.0115 8.42115 74.1594 8.44499 74.3014 8.49059V10.3727C74.117 10.3286 73.8188 10.3002 73.5776 10.3002C72.1003 10.3002 71.5892 11.3694 71.5892 12.6662V15.9894H69.5725V8.61736Z" fill="#113F83"/>
<path fill-rule="evenodd" clip-rule="evenodd" d="M77.9784 7.69161H74.9392V5.81H83.2467V7.69161H80.208V15.9886H77.9784V7.69161Z" fill="#113F83"/>
<path fill-rule="evenodd" clip-rule="evenodd" d="M87.6482 11.5121C87.4655 10.4863 87.0234 9.94482 86.0451 9.94482C84.7665 9.94482 84.3966 10.941 84.368 11.5121H87.6482ZM84.368 12.795C84.4251 14.0781 85.0499 14.6629 86.1721 14.6629C86.9812 14.6629 87.636 14.1648 87.762 13.708H89.5378C88.9699 15.4467 87.762 16.1886 86.1004 16.1886C83.7854 16.1886 82.3513 14.5914 82.3513 12.3113C82.3513 10.1002 83.872 8.41986 86.1004 8.41986C88.6012 8.41986 89.8075 10.5286 89.6654 12.7955L84.368 12.795Z" fill="#113F83"/>
<path fill-rule="evenodd" clip-rule="evenodd" d="M95.2885 12.3818C94.9486 12.6806 94.2367 12.6961 93.612 12.8089C92.9872 12.9382 92.4193 13.1519 92.4193 13.8933C92.4193 14.6482 93.0021 14.8332 93.6552 14.8332C95.2315 14.8332 95.2885 13.5802 95.2885 13.1369V12.3818ZM90.6313 10.8852C90.744 8.99014 92.4342 8.41956 94.0802 8.41956C95.5426 8.41956 97.3057 8.74607 97.3057 10.5151V14.3491C97.3057 15.0183 97.3762 15.689 97.5618 15.9883H95.5148C95.4392 15.7574 95.3919 15.518 95.3739 15.2755C94.7357 15.946 93.7963 16.1883 92.9031 16.1883C91.5112 16.1883 90.4038 15.489 90.4038 13.979C90.4038 12.3103 91.6533 11.9118 92.9031 11.741C94.1377 11.5559 95.2885 11.598 95.2885 10.7696C95.2885 9.90019 94.693 9.77217 93.9819 9.77217C93.2147 9.77217 92.7165 10.0852 92.648 10.8842L90.6313 10.8852Z" fill="#113F83"/>
<path fill-rule="evenodd" clip-rule="evenodd" d="M98.7815 8.61751H100.684V9.61647H100.713C101.239 8.85959 102.006 8.41876 102.958 8.41876C103.879 8.41876 104.703 8.76022 105.101 9.64337C105.527 9.00255 106.295 8.41876 107.317 8.41876C108.88 8.41876 110 9.14526 110 11.0558V15.9895H107.983V11.8116C107.983 10.8276 107.899 10.0155 106.749 10.0155C105.613 10.0155 105.399 10.9556 105.399 11.8821V15.9895H103.383V11.8552C103.383 10.9995 103.44 10.0155 102.162 10.0155C101.763 10.0155 100.797 10.2712 100.797 11.7123V15.9895H98.7808L98.7815 8.61751Z" fill="#113F83"/>
<path fill-rule="evenodd" clip-rule="evenodd" d="M29.3956 22.2082C29.4204 22.5404 29.583 22.9633 30.3499 22.9633C31.0109 22.9633 31.1875 22.5932 31.1875 22.2951C31.1875 22.0112 31.0677 21.659 30.4221 21.659H29.98V21.28H30.3769C30.531 21.28 31.0541 21.265 31.0541 20.7463C31.0541 20.1625 30.4219 20.1535 30.2809 20.1535C30.14 20.1535 29.4807 20.1595 29.4522 20.8075H29.0029C29.0644 19.827 29.9276 19.7729 30.3154 19.7729C31.0392 19.7729 31.5141 20.0768 31.5141 20.7159C31.5141 21.083 31.2922 21.3853 30.9434 21.4483V21.4573C31.462 21.5781 31.6476 21.9041 31.6476 22.339C31.6476 22.7855 31.3994 23.3436 30.3772 23.3436C29.2232 23.3436 28.9686 22.733 28.9463 22.2082H29.3956Z" fill="#818188"/>
<path fill-rule="evenodd" clip-rule="evenodd" d="M33.747 21.9917C33.6179 22.0914 33.4785 22.0744 33.2105 22.112C32.8359 22.1708 32.5158 22.1995 32.5158 22.5887C32.5158 22.8714 32.7121 23.0415 32.9872 23.0415C33.317 23.0415 33.7053 22.8821 33.7395 22.1995L33.7485 21.9917H33.747ZM32.1645 21.521C32.1603 21.1973 32.3429 20.7024 33.2016 20.7024C33.5941 20.7024 34.1829 20.8077 34.1693 21.5243L34.1445 22.6555C34.1385 22.8465 34.1445 22.9531 34.3975 22.9441V23.243C34.3348 23.2581 34.2704 23.2646 34.206 23.2624C33.9708 23.2624 33.8179 23.2233 33.7698 22.906C33.6021 23.2144 33.2664 23.3394 32.9369 23.3394C32.4272 23.3394 32.0781 23.118 32.0781 22.6022C32.0781 22.1838 32.2937 21.9148 33.2711 21.8274C33.6261 21.799 33.746 21.8094 33.746 21.4907C33.746 21.3806 33.737 21.0003 33.2001 21.0003C33.0455 21.0003 32.5528 21.0092 32.5659 21.5208L32.1645 21.521Z" fill="#818188"/>
<path fill-rule="evenodd" clip-rule="evenodd" d="M35.9294 23.0409C36.4331 23.0409 36.6924 22.6708 36.6924 22.1069C36.6924 21.7177 36.6053 21.0392 35.9294 21.0392C35.2493 21.0392 35.1603 21.707 35.1603 22.0873C35.1603 22.4633 35.2937 23.0409 35.9294 23.0409ZM36.9413 19.7153C36.908 20.3561 36.1557 20.2253 35.7046 20.3516C35.3454 20.4525 35.0397 20.6931 35.0248 21.3608H35.0337C35.125 21.1219 35.3602 20.7411 35.9766 20.7411C36.8112 20.7411 37.1368 21.3887 37.1368 22.0611C37.1368 22.7002 36.7877 23.3398 35.9393 23.3398C34.7732 23.3398 34.7122 22.1665 34.7122 21.6898C34.7122 20.3947 35.1481 20.0958 35.6714 19.9763C36.3229 19.8268 36.515 19.9327 36.5807 19.716L36.9413 19.7153Z" fill="#818188"/>
<path fill-rule="evenodd" clip-rule="evenodd" d="M38.7455 23.041C38.9329 23.041 39.4991 22.993 39.4991 22.0152C39.4991 21.0374 38.9329 20.9911 38.7455 20.9911C38.5582 20.9911 37.9932 21.0394 37.9932 22.0152C37.9932 22.991 38.5582 23.041 38.7455 23.041ZM38.7455 20.7021C39.6323 20.7021 39.9442 21.3714 39.9442 22.0221C39.9442 22.6729 39.6323 23.3401 38.7455 23.3401C37.8588 23.3401 37.5469 22.6719 37.5469 22.0221C37.5469 21.3724 37.86 20.7021 38.7455 20.7021Z" fill="#818188"/>
<path fill-rule="evenodd" clip-rule="evenodd" d="M40.1736 21.0968V20.7991H42.2821V21.0968H41.4387V23.2431H41.0172V21.0968H40.1736Z" fill="#818188"/>
<path fill-rule="evenodd" clip-rule="evenodd" d="M45.4212 23.2433H44.9994V20.7988H45.4212V23.2433ZM43.1105 22.9444H43.701C43.9109 22.9444 44.266 22.8946 44.266 22.4814C44.266 22.058 43.8871 22.0632 43.6246 22.0632H43.1105V22.9444ZM43.1105 20.798V21.7676H43.7236C44.071 21.7676 44.7022 21.8005 44.7022 22.5133C44.7022 22.8791 44.5191 23.2445 43.8675 23.2445H42.6897V20.7988L43.1105 20.798Z" fill="#818188"/>
<path fill-rule="evenodd" clip-rule="evenodd" d="M47.7382 22.8634H48.6731C48.985 22.8634 49.445 22.8154 49.445 22.2677C49.445 21.8346 49.1438 21.6859 48.6731 21.6859H47.7382V22.8634ZM47.7382 21.3056H48.6433C49.1378 21.3056 49.3013 21.0588 49.3013 20.7803C49.3013 20.588 49.2249 20.2553 48.6582 20.2553H47.7382V21.3056ZM48.7597 19.8748C49.576 19.8748 49.7621 20.3377 49.7621 20.7318C49.7621 21.0929 49.5179 21.397 49.2013 21.454V21.4677C49.4787 21.5155 49.9057 21.7036 49.9057 22.305C49.9057 22.7912 49.6613 23.244 48.7088 23.244H47.2878V19.8748H48.7597Z" fill="#818188"/>
<path fill-rule="evenodd" clip-rule="evenodd" d="M52.0058 21.9917C51.8767 22.0914 51.7373 22.0744 51.4693 22.112C51.0947 22.1708 50.7746 22.1995 50.7746 22.5887C50.7746 22.8714 50.9709 23.0415 51.2435 23.0415C51.575 23.0415 51.9631 22.8821 51.9976 22.1995L52.0058 21.9917ZM50.423 21.521C50.4188 21.1973 50.6014 20.7024 51.4604 20.7024C51.8529 20.7024 52.4432 20.8077 52.4281 21.5243L52.4033 22.6555C52.3973 22.8465 52.4033 22.9531 52.6563 22.9441V23.243C52.5937 23.2581 52.5292 23.2646 52.4648 23.2624C52.2308 23.2624 52.0782 23.2233 52.0286 22.906C51.8609 23.2144 51.5252 23.3394 51.1957 23.3394C50.6858 23.3394 50.3367 23.118 50.3367 22.6022C50.3367 22.1838 50.5525 21.9148 51.5294 21.8274C51.8844 21.799 52.0048 21.8094 52.0048 21.4907C52.0048 21.3806 51.9958 21.0003 51.4589 21.0003C51.3043 21.0003 50.8098 21.0092 50.8247 21.5208L50.423 21.521Z" fill="#818188"/>
<path fill-rule="evenodd" clip-rule="evenodd" d="M54.5662 22.9446V20.7985H54.9888V22.9446H56.0048V20.7985H56.4259V23.2423H53.1292V20.7985H53.5519V22.9446H54.5662Z" fill="#818188"/>
<path fill-rule="evenodd" clip-rule="evenodd" d="M58.7759 20.7985H59.2464V23.2427H58.8255V21.2887L57.5576 23.2427H57.084V20.7985H57.5053V22.7479L58.7759 20.7985Z" fill="#818188"/>
<path d="M63.3426 21.8137H60.9453V22.1118H63.3426V21.8137Z" fill="#818188"/>
<path fill-rule="evenodd" clip-rule="evenodd" d="M67.1518 22.3718C67.1235 22.6605 66.9644 23.3391 66.092 23.3391C65.8479 23.3391 64.9041 23.3058 64.9041 22.0017C64.9041 21.4334 65.1199 20.7021 66.0635 20.7021C66.7488 20.7021 67.0808 21.1066 67.1324 21.5641H66.7292C66.6446 21.0204 66.2166 21 66.0739 21C65.5464 21 65.3502 21.4483 65.3502 22.0017C65.3502 22.5496 65.566 23.041 66.1037 23.041C66.5816 23.041 66.7362 22.6425 66.7488 22.3718H67.1518Z" fill="#818188"/>
<path fill-rule="evenodd" clip-rule="evenodd" d="M67.4023 21.0968V20.7991H69.5123V21.0968H68.6685V23.2431H68.2462V21.0968H67.4023Z" fill="#818188"/>
<path fill-rule="evenodd" clip-rule="evenodd" d="M71.4267 21.9917C71.2976 22.0914 71.1599 22.0744 70.8902 22.112C70.5156 22.1708 70.1955 22.1995 70.1955 22.5887C70.1955 22.8714 70.3918 23.0415 70.6644 23.0415C70.9959 23.0415 71.3855 22.8821 71.418 22.1995L71.4274 21.9917H71.4267ZM69.8454 21.521C69.8395 21.1973 70.0221 20.7024 70.8806 20.7024C71.2736 20.7024 71.8621 20.8077 71.8482 21.5243L71.8234 22.6555C71.8187 22.8465 71.8234 22.9531 72.0782 22.9441V23.243C72.0149 23.258 71.9499 23.2645 71.8849 23.2624C71.6509 23.2624 71.4979 23.2233 71.4487 22.906C71.2823 23.2144 70.9466 23.3394 70.6158 23.3394C70.1077 23.3394 69.7568 23.118 69.7568 22.6022C69.7568 22.1838 69.9727 21.9148 70.9513 21.8274C71.3063 21.799 71.4249 21.8094 71.4249 21.4907C71.4249 21.3806 71.4155 21.0003 70.8791 21.0003C70.725 21.0003 70.2317 21.0092 70.2454 21.5208L69.8454 21.521Z" fill="#818188"/>
<path fill-rule="evenodd" clip-rule="evenodd" d="M72.3909 22.9299C72.9665 23.046 72.9754 22.2951 72.9754 21.7178V20.7985H74.6626V23.243H74.2408V21.0966H73.3687V21.7175C73.3687 22.5686 73.2923 23.4111 72.3914 23.2428L72.3909 22.9299Z" fill="#818188"/>
<path fill-rule="evenodd" clip-rule="evenodd" d="M77.0089 20.7985H77.4783V23.2427H77.0567V21.2887L75.7923 23.2427H75.3157V20.7985H75.7385V22.7479L77.0089 20.7985Z" fill="#818188"/>
<path fill-rule="evenodd" clip-rule="evenodd" d="M79.7963 23.2433H79.3457V19.8753H79.7963V21.2802H81.484V19.8753H81.9351V23.2433H81.484V21.6593H79.7963V23.2433Z" fill="#818188"/>
<path fill-rule="evenodd" clip-rule="evenodd" d="M84.1442 21.9917C84.0157 22.0914 83.8762 22.0744 83.6078 22.112C83.2331 22.1708 82.913 22.1995 82.913 22.5887C82.913 22.8714 83.1095 23.0415 83.3822 23.0415C83.7132 23.0415 84.1018 22.8821 84.1358 22.1995L84.1447 21.9917H84.1442ZM82.5619 21.521C82.5575 21.1973 82.7403 20.7024 83.5988 20.7024C83.9914 20.7024 84.5804 20.8077 84.5665 21.5243L84.5417 22.6555C84.5357 22.8465 84.5417 22.9531 84.7948 22.9441V23.243C84.7319 23.2581 84.6673 23.2646 84.6027 23.2624C84.3675 23.2624 84.2149 23.2233 84.167 22.906C83.9993 23.2144 83.6633 23.3394 83.3324 23.3394C82.8245 23.3394 82.4751 23.118 82.4751 22.6022C82.4751 22.1838 82.691 21.9148 83.6678 21.8274C84.0231 21.799 84.1427 21.8094 84.1427 21.4907C84.1427 21.3806 84.1338 21.0003 83.5968 21.0003C83.4428 21.0003 82.9495 21.0092 82.9631 21.5208L82.5619 21.521Z" fill="#818188"/>
<path fill-rule="evenodd" clip-rule="evenodd" d="M86.7062 22.9446V20.7985H87.1287V22.9446H88.1448V20.7985H88.5658V23.2423H85.2678V20.7985H85.6906V22.9446H86.7062Z" fill="#818188"/>
<path fill-rule="evenodd" clip-rule="evenodd" d="M90.9163 20.7985H91.3853V23.2427H90.9644V21.2887L89.698 23.2427H89.2229V20.7985H89.6454V22.7479L90.9163 20.7985Z" fill="#818188"/>
<path fill-rule="evenodd" clip-rule="evenodd" d="M92.1489 22.7182H92.6243V23.2432H92.1489V22.7182ZM92.6243 19.8748V21.1698L92.5027 22.2766H92.2693L92.1489 21.1698V19.8748H92.6243Z" fill="#818188"/>
</svg>
