<svg width="110" height="28" viewBox="0 0 110 28" fill="none" xmlns="http://www.w3.org/2000/svg">
<path d="M9.77316 0C7.73804 0 5.31775 1.96104 3.32 5.25432C1.24177 8.6682 0 12.8918 0 16.5612C0 21.9303 3.01818 27.3455 9.77316 27.3455C16.5281 27.3455 19.5463 21.9303 19.5463 16.5612C19.5463 12.8918 18.3161 8.6682 16.2464 5.25432C14.2314 1.96104 11.814 0 9.77316 0Z" fill="#E30611"/>
<path d="M62.5769 8.05648H69.421V25.881H76.7537V8.05648H83.5978V1.46417H62.5769V8.05648Z" fill="#E30611"/>
<path d="M99.2439 8.05648H110V1.46417H99.2439C89.3615 1.46417 84.084 6.37395 84.084 13.6726C84.084 20.9712 89.3615 25.881 99.2439 25.881H110V19.2772H99.2439C94.6706 19.2772 91.6639 17.6435 91.6639 13.6611C91.6639 9.67872 94.6706 8.05648 99.2439 8.05648Z" fill="#E30611"/>
<path d="M47.6614 1.46417L43.755 16.0385L39.8429 1.46417H26.8877V25.881H34.2233V6.02079L39.5497 25.881H47.9575L53.2896 6.00931V25.881H60.6223V1.46417H47.6614Z" fill="#E30611"/>
</svg>
