<svg width="110" height="56" viewBox="0 0 110 56" fill="none" xmlns="http://www.w3.org/2000/svg">
<path fill-rule="evenodd" clip-rule="evenodd" d="M46.9486 44.9608C46.1665 44.9559 45.4182 44.6413 44.8677 44.0858C44.3171 43.5304 44.0093 42.7793 44.0115 41.9973V27.1915C44.0115 26.4162 44.3195 25.6725 44.8678 25.1242C45.4162 24.576 46.1599 24.2679 46.9353 24.2679C47.7108 24.2679 48.4545 24.576 49.0028 25.1242C49.5511 25.6725 49.8592 26.4162 49.8592 27.1915V41.9973C49.864 42.7756 49.5607 43.5241 49.0153 44.0794C48.4699 44.6347 47.7269 44.9516 46.9486 44.9608ZM46.9486 14.0595C39.1362 14.0595 32.7948 20.4718 32.7948 28.3533V40.8937C32.7948 48.7885 39.1395 55.2075 46.9486 55.2075C54.7577 55.2075 61.1074 48.7885 61.1074 40.8937V28.3616C61.1074 20.4718 54.7444 14.0678 46.9486 14.0678V14.0595ZM78.1552 12.1614H81.1671C84.2655 12.1614 86.7738 10.1669 86.7738 7.04221C86.7738 3.91751 84.2655 1.90806 81.1671 1.90806H78.0953C76.2377 1.89775 74.3964 2.25509 72.6775 2.95949C70.9586 3.66389 69.3961 4.70142 68.08 6.01231C66.7639 7.3232 65.7202 8.88154 65.0091 10.5975C64.2979 12.3135 63.9334 14.1533 63.9365 16.0108V49.5298C63.9365 51.0193 64.5283 52.4478 65.5816 53.501C66.6349 54.5543 68.0635 55.146 69.5532 55.146C71.0428 55.146 72.4714 54.5543 73.5247 53.501C74.5781 52.4478 75.1698 51.0193 75.1698 49.5298V27.4242H79.0511C82.1511 27.4242 84.6528 25.4646 84.6528 22.3333C84.6528 19.2019 82.1594 17.1958 79.0511 17.1958H75.1698V15.4573C75.1698 13.5659 76.2802 12.1664 78.1618 12.1664L78.1552 12.1614ZM92.7827 42.8416C94.0227 42.8304 95.2381 43.1879 96.2745 43.8687C97.3109 44.5495 98.1216 45.5229 98.6037 46.6653C99.0858 47.8077 99.2175 49.0676 98.9821 50.285C98.7467 51.5024 98.1548 52.6224 97.2816 53.5028C96.4084 54.3832 95.2932 54.9842 94.0777 55.2297C92.8622 55.4751 91.6012 55.3539 90.4547 54.8813C89.3082 54.4087 88.3281 53.6062 87.6387 52.5755C86.9493 51.5449 86.5817 50.3326 86.5826 49.0927C86.5789 48.2751 86.7364 47.4648 87.046 46.708C87.3556 45.9513 87.8114 45.263 88.3872 44.6825C88.963 44.1019 89.6475 43.6405 90.4017 43.3247C91.156 43.0088 91.965 42.8447 92.7827 42.8416ZM101.366 12.1614H104.388C107.487 12.1614 110 10.1669 110 7.04221C110 3.91751 107.488 1.90806 104.388 1.90806H101.313C99.456 1.89797 97.6151 2.2555 95.8967 2.96006C94.1782 3.66462 92.6162 4.70226 91.3007 6.0132C89.9852 7.32414 88.9421 8.88244 88.2316 10.5983C87.5212 12.3142 87.1573 14.1537 87.1611 16.0108V35.2609C87.1611 36.75 87.7526 38.178 88.8057 39.231C89.8587 40.2839 91.2869 40.8754 92.7761 40.8754C94.2652 40.8754 95.6934 40.2839 96.7464 39.231C97.7995 38.178 98.391 36.75 98.391 35.2609V27.4242H102.269C105.371 27.4242 107.879 25.463 107.879 22.3316C107.879 19.2003 105.371 17.1942 102.269 17.1942H98.391V15.4573C98.391 13.5659 99.4948 12.1664 101.366 12.1664V12.1614ZM24.4687 0C22.9716 0.0109842 21.5399 0.615546 20.4881 1.68097C19.4363 2.74638 18.8503 4.18559 18.8587 5.68263V17.1775H11.2325V5.68263C11.2409 4.18445 10.6539 2.74424 9.60069 1.67863C8.54746 0.613019 7.11413 0.0092301 5.61582 0C4.11779 0.00966889 2.68489 0.613651 1.63201 1.67921C0.579134 2.74478 -0.00757153 4.18473 0.000831172 5.68263V49.5481C-0.011997 50.2936 0.12378 51.0343 0.400242 51.7268C0.676704 52.4193 1.08831 53.0499 1.61106 53.5816C2.13381 54.1134 2.75723 54.5358 3.44495 54.8241C4.13267 55.1124 4.87093 55.2609 5.61665 55.2609C6.36237 55.2609 7.10062 55.1124 7.78834 54.8241C8.47606 54.5358 9.09948 54.1134 9.62223 53.5816C10.145 53.0499 10.5566 52.4193 10.8331 51.7268C11.1095 51.0343 11.2453 50.2936 11.2325 49.5481V27.4242H16.0147C16.7715 27.4282 17.4959 27.732 18.029 28.2692C18.5621 28.8063 18.8605 29.5329 18.8587 30.2896V49.5298C18.8587 51.0187 19.4502 52.4465 20.5031 53.4993C21.5559 54.552 22.9839 55.1435 24.4729 55.1435C25.9619 55.1435 27.3898 54.552 28.4427 53.4993C29.4955 52.4465 30.087 51.0187 30.087 49.5298V5.68263C30.0954 4.18416 29.5083 2.7437 28.4547 1.67804C27.4011 0.612387 25.9673 0.00879114 24.4687 0Z" fill="#E31E24"/>
</svg>
