<svg width="110" height="41" viewBox="0 0 110 41" fill="none" xmlns="http://www.w3.org/2000/svg">
<path d="M1.99886 40.6168C2.02287 40.6266 2.04688 40.6376 2.07198 40.6463C2.09789 40.6558 2.12454 40.6631 2.15165 40.6681C2.44411 40.7602 2.74874 40.8077 3.05532 40.809H18.8804L8.50022 30.3876V30.393C6.57939 32.3028 5.31011 33.5651 4.3748 34.4976C3.54426 35.3264 2.97674 35.8953 2.45069 36.4292L1.34512 37.5321C1.00544 37.8998 0.816814 38.3821 0.816895 38.8828C0.817381 39.2571 0.930352 39.6226 1.14113 39.9318C1.35191 40.2411 1.65076 40.4797 1.99886 40.6168Z" fill="#FF4F12"/>
<path d="M0.817114 38.8826C0.816618 38.3847 1.00277 37.9047 1.33879 37.5374L2.44436 36.4345C2.97041 35.9006 3.53575 35.3317 4.36847 34.5029C5.30378 33.5704 6.57306 32.3081 8.49389 30.3983V30.3928L10.3678 28.5311L10.406 28.494C13.5142 25.4016 17.9365 20.9967 24.4302 14.527L10.1735 0.25L2.0973 8.33686C-0.312466 10.7511 0.0149488 12.3312 0.0149488 15.5731V37.7601C0.0146175 38.382 0.204569 38.989 0.559271 39.4997C0.913972 40.0103 1.41642 40.4001 1.99908 40.6166C1.65098 40.4795 1.35213 40.2409 1.14135 39.9316C0.930571 39.6224 0.817601 39.2569 0.817114 38.8826Z" fill="#7700FF"/>
<path d="M90.9761 26.1932H88.6012L85.7625 29.065V26.1932H83.7544V34.1054H85.7625V30.835L88.6482 34.1054H91.0721L87.3407 29.8621L90.9761 26.1932Z" fill="#101828"/>
<path d="M27.2939 22.9393H22.2234V34.1054H24.3287V30.2138H27.2939C29.8129 30.2138 31.4707 28.9209 31.4707 26.5766C31.4707 24.2322 29.8129 22.9393 27.2939 22.9393ZM27.2296 28.3313H24.3287V24.8186H27.2296C28.6964 24.8186 29.3665 25.5207 29.3665 26.5733C29.3665 27.6259 28.6964 28.3313 27.2296 28.3313Z" fill="#101828"/>
<path d="M36.2214 25.9707C34.0528 25.9707 31.9006 27.3749 31.9006 30.1495C31.9006 32.9241 34.0507 34.3295 36.2214 34.3295C38.3922 34.3295 40.5411 32.9252 40.5411 30.1495C40.5411 27.3738 38.3889 25.9707 36.2214 25.9707ZM36.2214 32.447C35.0416 32.447 33.9415 31.6018 33.9415 30.1539C33.9415 28.706 35.0416 27.8608 36.2214 27.8608C37.4012 27.8608 38.5013 28.706 38.5013 30.1539C38.5013 31.6018 37.4012 32.447 36.2214 32.447Z" fill="#101828"/>
<path d="M45.6705 32.447C44.458 32.447 43.5653 31.5734 43.5653 30.1539C43.5653 28.7508 44.4908 27.8608 45.6705 27.8608C46.3876 27.8608 47.0097 28.1961 47.503 28.9451L49.2208 27.9482C48.6467 26.7198 47.4037 25.9707 45.6815 25.9707C43.4332 25.9707 41.52 27.6294 41.52 30.1495C41.52 32.6697 43.3383 34.3295 45.6815 34.3295C47.372 34.3295 48.5038 33.5651 49.3005 32.2078L47.6427 31.2982C47.169 31.9687 46.6582 32.447 45.6705 32.447Z" fill="#101828"/>
<path d="M67.0596 30.6758C66.9635 31.8889 66.7234 32.1597 66.3098 32.1597C66.1035 32.1635 65.8977 32.1359 65.6997 32.0778L65.7095 34.1252C65.9422 34.1824 66.1816 34.2081 66.4211 34.2016C68.1269 34.2016 68.7654 33.1009 68.9247 30.7555L69.1157 27.9961H71.376V34.0902H73.3852V26.1945H67.3935L67.0596 30.6758Z" fill="#101828"/>
<path d="M61.3614 25.9707C59.0695 25.9707 57.2 27.6457 57.2 30.1495C57.2 32.6533 59.0651 34.3295 61.2653 34.3295C63.0028 34.3295 64.1029 33.6743 64.9007 32.3192L63.3062 31.5221C62.8118 32.1434 62.3655 32.6064 61.297 32.6064C60.1172 32.6064 59.2561 31.842 59.1295 30.6289H65.2194V29.9268C65.2194 27.6141 63.6271 25.9707 61.3614 25.9707ZM59.1612 29.0969C59.4482 28.2037 60.2449 27.5016 61.297 27.5016C62.4135 27.5016 63.1622 28.1076 63.3542 29.0969H59.1612Z" fill="#101828"/>
<path d="M78.6736 25.9707C76.3817 25.9707 74.5122 27.6457 74.5122 30.1495C74.5122 32.6533 76.3774 34.3295 78.5787 34.3295C80.3173 34.3295 81.4163 33.6743 82.2141 32.3192L80.6196 31.5221C80.1252 32.1434 79.6788 32.6064 78.6114 32.6064C77.4317 32.6064 76.5706 31.842 76.4429 30.6289H82.5328V29.9268C82.5317 27.6141 80.9372 25.9707 78.6736 25.9707ZM76.4734 29.0969C76.7605 28.2037 77.5572 27.5016 78.6103 27.5016C79.7257 27.5016 80.4755 28.1076 80.6665 29.0969H76.4734Z" fill="#101828"/>
<path d="M49.9302 27.948H52.2897V34.1054H54.2979V27.948H56.6575V26.1932H49.9302V27.948Z" fill="#101828"/>
<path d="M95.0588 25.9707C92.8902 25.9707 90.738 27.3749 90.738 30.1495C90.738 32.9241 92.8913 34.3295 95.0588 34.3295C97.2263 34.3295 99.3796 32.9252 99.3796 30.1495C99.3796 27.3738 97.2285 25.9707 95.0588 25.9707ZM95.0588 32.447C93.879 32.447 92.7789 31.6018 92.7789 30.1539C92.7789 28.706 93.879 27.8608 95.0588 27.8608C96.2386 27.8608 97.3387 28.706 97.3387 30.1539C97.3387 31.6018 96.2397 32.447 95.0588 32.447Z" fill="#101828"/>
<path d="M107.374 26.1923L105.194 31.7327L103.013 26.1923H100.388V34.0902H102.297V29.0903L104.414 34.0902H105.974L108.09 29.0903V34.0902H110V26.1923H107.374Z" fill="#101828"/>
</svg>
