<svg width="110" height="17" viewBox="0 0 110 17" fill="none" xmlns="http://www.w3.org/2000/svg">
<path d="M26.6038 4.73554L26.6239 6.1483V7.28227H30.8133C31.0192 8.06133 31.0192 8.87515 30.8133 9.65422H26.6306V14.6478C26.1183 14.7275 25.5992 14.7638 25.0797 14.756C24.5611 14.7638 24.0427 14.7276 23.5311 14.6478V2.38023L23.6676 2.27203H32.0016C32.0862 2.64405 32.1252 3.02375 32.118 3.40391C32.1344 3.58847 32.1071 3.77413 32.0378 3.94778C31.9686 4.12143 31.8592 4.27883 31.7174 4.40887C31.4489 4.61694 31.0304 4.73554 30.4552 4.73554H26.6038Z" fill="#97134B"/>
<path d="M39.989 6.40212C40.9304 7.26629 41.4011 8.51052 41.4011 10.1348C41.4097 10.8035 41.3078 11.4694 41.099 12.1094C40.9199 12.6632 40.6223 13.1778 40.224 13.622C39.8387 14.0392 39.3545 14.3676 38.8096 14.5812C38.1981 14.8148 37.5414 14.9288 36.8805 14.9162C36.2187 14.9272 35.5619 14.8074 34.9536 14.5646C34.4134 14.3437 33.9337 14.0122 33.5505 13.595C33.1491 13.1554 32.8504 12.6432 32.6732 12.0906C32.4722 11.4558 32.3742 10.7966 32.3823 10.1348C32.3728 9.46957 32.4709 8.80678 32.6732 8.1686C32.8514 7.61629 33.1466 7.10269 33.5415 6.65804C33.9197 6.23374 34.4006 5.89864 34.9447 5.68013C35.5539 5.441 36.2104 5.32334 36.8715 5.33474C38.1591 5.33335 39.1982 5.68915 39.989 6.40212ZM36.8827 7.45285C36.6338 7.44192 36.3881 7.50855 36.1845 7.64219C35.9999 7.77949 35.8552 7.95761 35.7638 8.16028C35.6502 8.39917 35.5748 8.65222 35.54 8.9114C35.5002 9.21515 35.4808 9.5209 35.4818 9.82689C35.4818 10.3325 35.4997 10.7715 35.531 11.1398C35.5525 11.4545 35.6187 11.7651 35.728 12.0636C35.8036 12.2818 35.9468 12.4743 36.1397 12.6171C36.3447 12.7456 36.5888 12.8091 36.8357 12.7981C37.0826 12.8184 37.3297 12.7603 37.5365 12.6334C37.7434 12.5064 37.8979 12.318 37.9748 12.099C38.1914 11.458 38.2905 10.7877 38.268 10.1161C38.2984 9.44539 38.2053 8.77479 37.9927 8.13323C37.9174 7.92002 37.7668 7.73677 37.5652 7.61324C37.3637 7.48972 37.1232 7.4332 36.8827 7.45285Z" fill="#97134B"/>
<path d="M42.5623 6.90975C42.6459 6.62712 42.7701 6.35627 42.9316 6.10454C43.0684 5.85955 43.2537 5.64074 43.4777 5.45953C44.0223 5.47502 44.5498 5.63994 44.9938 5.93354C45.4378 6.22714 45.7785 6.63629 45.9729 7.1095C46.4653 6.02201 47.2769 5.47826 48.4078 5.47826C48.84 5.48816 49.2702 5.53694 49.6924 5.62391C49.6816 6.07373 49.6133 6.52075 49.4887 6.95553C49.3741 7.41612 49.187 7.8585 48.9337 8.26843C48.6102 8.17621 48.2771 8.11554 47.9401 8.08741C47.2888 8.08741 46.7585 8.39535 46.3422 9.01122V14.6457C45.8431 14.7233 45.3376 14.7595 44.8316 14.7538C44.3197 14.759 43.8083 14.7228 43.3031 14.6457V8.79275C43.3031 7.88836 43.0562 7.26069 42.5623 6.90975Z" fill="#97134B"/>
<path d="M57.3128 5.58647C57.3902 5.91662 57.4292 6.25354 57.4291 6.59143C57.43 6.92387 57.391 7.25536 57.3128 7.57975L54.9943 7.54438V11.7057C54.9943 12.2737 55.2785 12.5567 55.8514 12.5567H56.9413C57.0998 12.9424 57.1854 13.3507 57.1942 13.7635C57.206 14.0269 57.1804 14.2907 57.1181 14.5479C56.2403 14.6646 55.355 14.7257 54.4684 14.731C52.8272 14.731 52.0067 13.8897 52.0067 12.2071V7.56102L50.4871 7.57975C50.394 7.26106 50.3481 6.93206 50.3506 6.60184C50.3499 6.25939 50.3958 5.91823 50.4871 5.58647L52.0067 5.62393V4.57735C52.0067 3.96148 52.1335 3.52315 52.3871 3.26237C52.64 3.00437 53.0585 2.87329 53.6627 2.87329H54.8533L54.9898 3.00021V5.61768L57.3128 5.58647Z" fill="#97134B"/>
<path d="M66.3741 11.04H61.3186C61.3143 11.4908 61.4718 11.9301 61.7662 12.2884C62.0392 12.588 62.4846 12.7357 63.1089 12.7357C63.4713 12.7305 63.8321 12.69 64.1854 12.615C64.6567 12.5133 65.1196 12.3805 65.5706 12.2176C66.0222 12.6782 66.3016 13.262 66.3673 13.8821C65.323 14.5757 64.0496 14.9225 62.5472 14.9225C61.8447 14.9438 61.1457 14.8216 60.4995 14.5646C59.9661 14.3382 59.5038 13.9887 59.1568 13.5492C58.7993 13.0894 58.55 12.5648 58.425 12.0096C58.2735 11.3735 58.1985 10.7239 58.2012 10.0725C58.196 9.43993 58.2849 8.80977 58.4652 8.19986C58.6232 7.65721 58.8947 7.14885 59.2642 6.70386C59.6287 6.2774 60.0954 5.93611 60.6271 5.70723C61.2371 5.4548 61.8998 5.33116 62.5674 5.34519C63.1443 5.3376 63.7171 5.43661 64.2525 5.63648C64.7331 5.816 65.1677 6.08751 65.5281 6.43338C65.8855 6.78125 66.1614 7.19431 66.3383 7.6464C66.5305 8.13984 66.626 8.66132 66.6202 9.18609C66.6358 9.8119 66.5529 10.4365 66.3741 11.04ZM61.2873 9.08414H63.8407V8.87607C63.8576 8.48609 63.7459 8.10063 63.5207 7.77124C63.4152 7.62783 63.2715 7.51236 63.1036 7.43613C62.9357 7.3599 62.7494 7.32553 62.5629 7.33638C62.3843 7.32579 62.2057 7.35858 62.0449 7.43154C61.884 7.5045 61.7463 7.61511 61.6453 7.75252C61.4462 8.023 61.3186 8.46826 61.2873 9.08414Z" fill="#97134B"/>
<path d="M68.9274 2.23452C69.9718 2.21233 70.8714 2.1943 71.6263 2.18042C72.3813 2.16655 72.9818 2.16101 73.4279 2.16378C74.8452 2.16378 75.9597 2.4412 76.7713 2.99604C77.583 3.55089 77.9888 4.37483 77.9888 5.46787C77.9892 5.99692 77.8201 6.5141 77.5031 6.95346C77.2043 7.39344 76.7711 7.74047 76.2588 7.9501C76.5936 8.05277 76.9064 8.20909 77.1831 8.41201C77.4716 8.62201 77.7231 8.87263 77.9283 9.1548C78.1371 9.441 78.3042 9.75163 78.4252 10.0786C78.5481 10.4078 78.6109 10.7538 78.6109 11.1023C78.6109 12.3507 78.185 13.2717 77.3331 13.8654C76.4811 14.4591 75.2764 14.758 73.7188 14.7622C73.2369 14.7622 72.6006 14.7559 71.8099 14.7435C71.0191 14.731 70.0583 14.7102 68.9274 14.681L68.7909 14.5541V2.36144L68.9274 2.23452ZM71.8904 4.20907V7.122H73.2645C73.8844 7.122 74.3186 6.98051 74.5715 6.70586C74.8259 6.4116 74.9599 6.04299 74.9497 5.66553C74.9632 5.29088 74.8242 4.92528 74.5603 4.64185C74.3029 4.37136 73.871 4.22572 73.2645 4.22572H72.4812C72.2507 4.2278 72.0605 4.22155 71.8882 4.20907H71.8904ZM73.4973 9.20266H71.8904V12.7398C72.2239 12.7273 72.6043 12.7273 73.0228 12.7398C73.4163 12.754 73.8101 12.7233 74.1955 12.6482C74.5552 12.5766 74.877 12.3913 75.1063 12.1239C75.372 11.7891 75.5027 11.3782 75.4756 10.9629C75.4819 10.5126 75.3134 10.0753 75.0011 9.73115C74.6819 9.37189 74.1798 9.19226 73.495 9.19226L73.4973 9.20266Z" fill="#97134B"/>
<path d="M88.7218 13.3411C88.641 13.6253 88.5166 13.8971 88.3526 14.1484C88.2098 14.389 88.0174 14.6011 87.7864 14.7726C87.379 14.7796 86.9757 14.6962 86.6099 14.5294C86.244 14.3626 85.9262 14.1172 85.6827 13.8134C84.8368 14.5375 83.9207 14.8995 82.9346 14.8995C82.4809 14.909 82.03 14.8318 81.6097 14.6727C81.2503 14.5332 80.9252 14.3272 80.6541 14.0673C80.3961 13.8154 80.1972 13.5164 80.07 13.1892C79.9402 12.8557 79.8744 12.5036 79.8753 12.1489C79.8642 11.6779 79.9675 11.2106 80.1774 10.7819C80.3686 10.4003 80.652 10.0649 81.0055 9.8019C81.3718 9.53597 81.7886 9.33625 82.2341 9.21307C82.7199 9.07453 83.2253 9.0044 83.7335 9.005C84.0334 9.005 84.2952 9.005 84.5235 9.005C84.7518 9.005 84.9487 9.01957 85.1165 9.03205V8.71787C85.1165 7.94595 84.6958 7.56103 83.8499 7.56103C83.3053 7.56103 82.3512 7.76077 80.9876 8.16026C80.5967 7.74412 80.3498 7.08594 80.2468 6.18571C80.5879 6.06686 80.9352 5.96409 81.2874 5.87777C81.6724 5.77998 82.064 5.69467 82.4668 5.62393C82.8697 5.55319 83.2658 5.49285 83.6552 5.45124C84.005 5.41197 84.3569 5.39113 84.7092 5.38882C85.1544 5.38749 85.5973 5.44851 86.0229 5.56983C86.4324 5.68089 86.8131 5.86852 87.1419 6.12121C87.4723 6.38236 87.7328 6.71147 87.9028 7.08247C88.0978 7.52709 88.1901 8.0049 88.1735 8.48484V12.1634C88.1735 12.719 88.3593 13.1081 88.7218 13.3411ZM82.8383 11.9824C82.8383 12.5505 83.1874 12.8334 83.8901 12.8334C84.2527 12.8334 84.6615 12.6586 85.1165 12.3091V10.8526L84.4653 10.8256C84.2885 10.8256 84.1565 10.8256 84.0647 10.8256C83.2501 10.8193 82.8383 11.2084 82.8383 11.9824Z" fill="#97134B"/>
<path d="M98.835 8.66588V12.3799C98.835 13.1768 98.9917 13.776 99.3027 14.1734C98.8193 14.5842 98.1852 14.8076 97.5303 14.7976C96.8589 14.7976 96.3934 14.654 96.145 14.3627C95.8966 14.0714 95.7825 13.6241 95.7825 13.0332V9.17356C95.8037 8.86319 95.7438 8.55265 95.6079 8.26848C95.5344 8.16596 95.4315 8.08457 95.3109 8.03347C95.1904 7.98237 95.0568 7.9636 94.9254 7.97926C94.6935 7.98518 94.4653 8.03398 94.254 8.12283C93.974 8.24014 93.7169 8.39974 93.4931 8.59514V14.6457C93.2693 14.6811 93.0321 14.7081 92.7725 14.7268C92.5129 14.7456 92.2466 14.7539 91.9735 14.7539C91.7005 14.7539 91.4342 14.7539 91.1746 14.7268C90.915 14.6998 90.6755 14.6811 90.454 14.6457V5.60523L90.5905 5.47831H91.7542C92.5464 5.47831 93.0791 5.84034 93.3521 6.56441C94.2607 5.81537 95.1633 5.44155 96.06 5.44294C96.9566 5.44432 97.6482 5.737 98.1345 6.32098C98.6015 6.90633 98.835 7.68797 98.835 8.66588Z" fill="#97134B"/>
<path d="M108.577 11.04L109.065 12.3633C109.324 13.1602 109.637 13.6741 110 13.903C109.75 14.1811 109.437 14.4047 109.083 14.5579C108.73 14.7111 108.345 14.7901 107.955 14.7893C107.601 14.8154 107.249 14.715 106.972 14.5084C106.697 14.2285 106.499 13.8908 106.395 13.5243L105.811 11.9659C105.737 11.6824 105.583 11.4228 105.363 11.2147C105.166 11.0793 104.925 11.0117 104.68 11.0233C104.394 11.0233 104.195 11.0233 104.076 11.042V14.6458C103.095 14.79 102.096 14.79 101.115 14.6458V1.43771L101.252 1.31079H102.42C103.031 1.31079 103.459 1.43771 103.707 1.69155C103.955 1.94539 104.076 2.38649 104.076 3.01485V8.70338H104.387C104.502 8.70341 104.615 8.67262 104.712 8.6147C104.809 8.55677 104.886 8.47415 104.933 8.37672L105.947 6.56446C106.086 6.24997 106.324 5.98208 106.63 5.7963C106.936 5.61051 107.296 5.51559 107.661 5.52413C108.04 5.52413 108.604 5.53661 109.358 5.56158L109.474 5.70515L107.975 8.41001C107.741 8.83862 107.396 9.20675 106.972 9.48155C107.352 9.60621 107.695 9.8122 107.974 10.0829C108.253 10.3536 108.459 10.6815 108.577 11.04Z" fill="#97134B"/>
<path d="M18.2541 7.5673C18.2069 7.47611 18.1328 7.3992 18.0406 7.34545C17.9483 7.2917 17.8416 7.2633 17.7327 7.26353H16.1662C16.0237 7.26388 15.8864 7.31358 15.7812 7.40293C15.3354 7.79807 14.8051 8.10157 14.2248 8.29371C13.6445 8.48584 13.0273 8.56232 12.4132 8.51817C10.1394 8.38084 8.44308 6.7933 8.46769 4.82083C8.48123 4.10429 8.79798 3.42158 9.34928 2.9207C9.90058 2.41983 10.642 2.14116 11.4128 2.1451C11.7404 2.15019 12.0633 2.2191 12.3605 2.34741C12.6577 2.47571 12.9227 2.66055 13.1382 2.88998C13.2409 3.00214 13.3267 3.12673 13.3934 3.26034C13.4338 3.37026 13.4338 3.48956 13.3934 3.59948C13.3408 3.7266 13.2394 3.83105 13.1087 3.89256C12.9781 3.95407 12.8275 3.96827 12.6862 3.93239C12.3213 3.8077 11.9208 3.80617 11.5548 3.92809C11.1888 4.05 10.8805 4.2876 10.6838 4.59938C10.4871 4.91116 10.4144 5.27729 10.4785 5.6338C10.5427 5.99032 10.7395 6.31455 11.0346 6.54986C11.0571 6.57565 11.0844 6.5975 11.1152 6.61436L11.151 6.63517L11.1689 6.64765C11.1876 6.66818 11.2104 6.68513 11.236 6.69759C11.644 6.91017 12.1011 7.02817 12.5686 7.04157C13.0361 7.05497 13.5002 6.96338 13.9215 6.77457C14.424 6.53179 14.8562 6.18001 15.1815 5.74901C15.5068 5.31802 15.7156 4.8205 15.7902 4.29859C15.8686 3.80064 15.8292 3.29276 15.6746 2.81047C15.5199 2.32817 15.2539 1.88309 14.895 1.50634C14.4651 1.04167 13.9339 0.667121 13.3368 0.407443C12.7396 0.147766 12.0899 0.00887146 11.4307 -6.10352e-05L11.3703 -6.10352e-05C9.99816 0.00469275 8.6828 0.509743 7.70692 1.40654C6.73104 2.30334 6.17253 3.5203 6.15144 4.79586C6.14552 5.30987 6.21479 5.82225 6.35733 6.31891C6.25662 6.30851 6.15592 6.2981 6.05521 6.29186C3.73225 6.15245 1.66888 7.03258 0.129188 8.80738C0.0604411 8.8863 0.0170806 8.98168 0.00410453 9.08252C-0.00887157 9.18336 0.00906491 9.28555 0.0558466 9.37733C0.102628 9.4691 0.176351 9.54671 0.268517 9.60122C0.360683 9.65573 0.46754 9.68492 0.576773 9.68542H2.14332C2.28654 9.68539 2.4246 9.63568 2.53048 9.54601C2.97689 9.14913 3.50858 8.84458 4.09061 8.65237C4.67265 8.46015 5.29184 8.38464 5.90751 8.43078C8.18124 8.5681 9.87759 10.1556 9.85297 12.1281C9.84002 12.8448 9.52345 13.5279 8.97202 14.0288C8.4206 14.5298 7.67884 14.8083 6.90786 14.8038C6.58044 14.7988 6.25779 14.7301 5.96063 14.6021C5.66348 14.4742 5.3984 14.2899 5.18242 14.061C5.07871 13.948 4.99143 13.8228 4.92282 13.6886C4.88356 13.5785 4.88356 13.4596 4.92282 13.3495C4.97532 13.2228 5.0764 13.1187 5.20657 13.0572C5.33674 12.9957 5.48679 12.9813 5.62777 13.0166H5.6412C6.00586 13.1428 6.40665 13.1458 6.77345 13.025C7.14024 12.9042 7.44967 12.6674 7.64759 12.3559C7.84551 12.0444 7.91932 11.6781 7.85609 11.3212C7.79286 10.9642 7.59663 10.6393 7.30174 10.4032C7.28131 10.3778 7.2554 10.3565 7.22565 10.3408L7.1876 10.3179L7.16075 10.3055C7.1416 10.2854 7.11889 10.2685 7.09361 10.2555C6.68542 10.0433 6.2282 9.92563 5.76071 9.91259C5.29322 9.89955 4.82924 9.99149 4.4081 10.1806C3.90518 10.4224 3.47259 10.7736 3.14721 11.2044C2.82183 11.6351 2.61331 12.1326 2.53943 12.6545C2.45964 13.1516 2.49717 13.6588 2.64944 14.141C2.80171 14.6231 3.06505 15.0687 3.42117 15.4468C3.85141 15.9097 4.38206 16.2829 4.97833 16.5418C5.5746 16.8007 6.223 16.9395 6.88101 16.949H6.93695C8.30714 16.9448 9.62094 16.4413 10.5963 15.5466C11.5716 14.6518 12.1307 13.4372 12.1536 12.1635C12.1591 11.6496 12.0906 11.1374 11.9499 10.6404C12.0506 10.6404 12.1491 10.6633 12.2498 10.6675C12.4064 10.6779 12.5631 10.6821 12.7175 10.6821C14.8525 10.6821 16.7458 9.8061 18.178 8.15197C18.2499 8.07164 18.2952 7.97376 18.3087 7.87006C18.3222 7.76636 18.3033 7.66124 18.2541 7.5673Z" fill="#0CAFC0"/>
</svg>
