<svg width="110" height="23" viewBox="0 0 110 23" fill="none" xmlns="http://www.w3.org/2000/svg">
<path d="M9.85895 1.36776C10.7743 1.35915 11.6882 1.44605 12.5856 1.62708C13.3406 1.77486 14.0589 2.07098 14.6992 2.49838C15.2885 2.90135 15.76 3.45453 16.0651 4.10094C16.4123 4.87713 16.5804 5.72187 16.5566 6.5722C16.5923 7.50684 16.3413 8.42998 15.8374 9.21721C15.2971 9.97664 14.5625 10.576 13.7109 10.952C15.0044 11.3254 15.9668 11.9737 16.6032 12.9073C17.2554 13.9076 17.5875 15.0837 17.5552 16.2783C17.5793 17.2323 17.3678 18.1774 16.9395 19.0297C16.5391 19.7862 15.9644 20.436 15.2631 20.9253C14.5418 21.4258 13.7378 21.7945 12.8883 22.0144C11.9919 22.2472 11.0695 22.3649 10.1435 22.3645H0V1.35999L9.85895 1.36776ZM9.2717 9.85513C9.99239 9.88469 10.7032 9.67904 11.2973 9.26907C11.8147 8.87232 12.0889 8.23182 12.0889 7.35533C12.1083 6.93689 12.0191 6.52057 11.8302 6.14693C11.6621 5.84788 11.4186 5.59838 11.124 5.42344C10.8122 5.23945 10.4693 5.11462 10.1125 5.05522C9.72029 4.98766 9.32297 4.95469 8.92505 4.95668H4.60481V9.85513H9.2717ZM9.5304 18.7652C9.96485 18.7664 10.3983 18.723 10.8239 18.6355C11.2107 18.5577 11.5794 18.4072 11.9104 18.1921C12.2248 17.9871 12.4828 17.7062 12.6606 17.3752C12.862 16.9509 12.9562 16.4833 12.9349 16.0138C12.9349 14.9325 12.6322 14.1649 12.0268 13.7034C11.3223 13.2147 10.4767 12.9723 9.62094 13.0136H4.60481V18.7755L9.5304 18.7652Z" fill="#2D2A26"/>
<path d="M25.2596 1.36774H20.6548V22.3644H25.2596V1.36774Z" fill="#2D2A26"/>
<path d="M81.7998 1.36774L89.6357 22.3722H84.8524L83.2717 17.7045H75.4358L73.7905 22.3722H69.1572L77.0915 1.36774H81.7998ZM82.0585 14.2505L79.4197 6.54365H79.3602L76.6362 14.2634L82.0585 14.2505Z" fill="#2D2A26"/>
<path d="M100.491 1.36776C101.774 1.35663 103.049 1.57439 104.255 2.01086C105.392 2.42756 106.423 3.09078 107.274 3.95313C108.162 4.87622 108.842 5.97873 109.269 7.18678C109.778 8.65234 110.025 10.1965 109.998 11.7481C110.012 13.182 109.813 14.6099 109.409 15.9853C109.054 17.2128 108.45 18.3534 107.634 19.3357C106.825 20.2883 105.812 21.0469 104.672 21.5554C103.352 22.121 101.927 22.3968 100.491 22.3645H91.4551V1.35999L100.491 1.36776ZM100.168 18.4825C100.827 18.4804 101.481 18.3692 102.103 18.1532C102.737 17.9304 103.31 17.5618 103.777 17.077C104.303 16.5159 104.704 15.8484 104.951 15.1192C105.266 14.1752 105.414 13.1838 105.391 12.189C105.401 11.2233 105.297 10.2599 105.083 9.31835C104.906 8.52545 104.561 7.77995 104.072 7.13232C103.583 6.5104 102.94 6.02834 102.207 5.73462C101.293 5.38327 100.319 5.2167 99.3402 5.24452H96.0599V18.4825H100.168Z" fill="#2D2A26"/>
<path d="M62.9049 2.2519C64.6612 3.25332 66.0859 4.74905 67.0027 6.55392L69.0852 4.5572C66.4543 0.81011 62.9826 0.0477258 60.3025 0.0010492C58.0104 -0.0352548 55.7908 0.874939 54.0161 2.05223C57.2265 0.625997 61.0009 1.15759 62.9049 2.2519Z" fill="#009845"/>
<path d="M68.5544 18.516L66.9738 15.9073C66.9738 15.9073 64.3868 18.8272 60.4391 18.8272C59.3531 18.8657 58.2701 18.6894 57.252 18.3085C58.442 19.3458 59.9916 20.2326 61.8904 20.3831C64.8447 20.6268 66.8625 19.6544 68.5544 18.5186" fill="#009845"/>
<path d="M53.936 7.47203L53.9671 7.4098C54.0447 7.25421 54.1275 7.10381 54.2258 6.956L54.3448 6.77967C55.0666 5.67054 56.0874 4.78936 57.2887 4.23838C58.7603 3.59459 60.383 3.37891 61.9712 3.61603C63.0424 3.74054 64.0731 4.09999 64.9901 4.66885C64.2962 3.91805 63.4918 3.27793 62.605 2.77067C60.1758 1.36518 54.0524 0.96843 51.0153 5.22119C50.2208 6.23905 49.5705 7.36214 49.0829 8.55856C48.744 9.44542 48.5008 10.3271 48.2628 11.1802C48.0636 11.9037 47.8592 12.6402 47.5928 13.3948C47.4484 14.0215 47.2167 14.6247 46.9046 15.1866C46.2773 16.2722 45.3747 17.1721 44.2884 17.7951C43.2021 18.4181 41.9707 18.7421 40.7192 18.7341C39.8269 18.7351 38.9401 18.596 38.0908 18.3218C39.1814 19.0012 40.3885 19.4716 41.6505 19.7091C44.6617 20.277 47.5798 19.5509 49.4657 17.7694C50.692 16.6077 51.7733 14.2012 52.6736 10.6149C52.9715 9.52273 53.3988 8.4702 53.9464 7.47981" fill="#009845"/>
<path d="M62.7648 21.0054C62.4647 21.0054 62.1568 21.0054 61.8387 20.9665C57.0476 20.5776 54.3985 15.9929 53.9794 15.2046C53.9484 15.1553 53.9174 15.1138 53.8863 15.0646C53.2894 14.0898 52.965 12.972 52.9472 11.8283C52.2488 14.3177 51.4416 16.177 50.5439 17.3906C51.7753 19.3873 54.2666 21.3244 56.9907 22.0349C58.8411 22.5177 60.7788 22.558 62.6476 22.1526C64.5164 21.7473 66.2641 20.9075 67.7499 19.7011C66.2293 20.5623 64.5113 21.0119 62.7648 21.0054Z" fill="#009845"/>
<path d="M38.0465 1.50528C41.376 1.44304 43.7689 2.36361 45.7453 4.46924C47.0923 5.85794 47.9241 7.66725 48.1021 9.59588C48.2288 9.18357 48.3608 8.76867 48.5289 8.34599C48.9642 7.26372 49.5325 6.24015 50.2208 5.29905C48.2081 2.23914 44.6821 0.317616 40.649 0.317616C38.4014 0.300105 36.1961 0.930158 34.2954 2.13282C35.5006 1.70935 36.7695 1.49707 38.0465 1.50528Z" fill="#009845"/>
<path d="M43.6375 20.4871C42.93 20.4865 42.2241 20.4197 41.5291 20.2874C38.3549 19.6884 35.7472 17.8343 34.5443 15.3215C34.4873 15.2385 34.4253 15.1582 34.3683 15.0622C34.3114 14.9663 34.2907 14.9351 34.2545 14.8677C34.0372 14.418 33.864 13.9481 33.7371 13.4648C33.6138 12.9776 33.5274 12.4818 33.4784 11.9816C33.4629 11.7637 33.4422 11.5433 33.4422 11.3203V11.2996C33.4475 10.6217 33.5344 9.94691 33.7009 9.28987C34.3658 6.91715 35.7084 5.32236 37.9177 4.28251C39.0378 3.75092 42.0387 3.29193 44.4756 4.90487C45.6551 5.66611 46.5972 6.74439 47.1945 8.01664C46.8172 6.83738 46.1767 5.75986 45.3216 4.86597C43.4357 2.87962 41.2704 2.05241 38.0548 2.10168C35.3307 2.14576 33.1111 2.74737 31.1786 5.14862C31.1579 5.17715 31.1372 5.20308 31.1165 5.2342C30.7652 5.70737 30.47 6.21994 30.2369 6.76156C29.4431 8.61489 29.1513 10.6454 29.391 12.648C29.4195 12.8866 29.4583 13.1303 29.5023 13.3715C29.5023 13.4311 29.5281 13.4856 29.5385 13.5452C29.5824 13.7605 29.6316 13.9783 29.6859 14.1961C29.7196 14.318 29.7532 14.4425 29.7894 14.5643C29.8463 14.764 29.9136 14.9663 29.9834 15.1633C30.0067 15.2308 30.0274 15.2982 30.0533 15.363C31.0881 18.1481 33.331 20.7853 37.465 21.9755C42.851 23.5314 46.9488 20.9979 49.0339 18.8638C47.4454 19.9504 45.5603 20.5174 43.6375 20.4871Z" fill="#009845"/>
</svg>
