<svg width="110" height="29" viewBox="0 0 110 29" fill="none" xmlns="http://www.w3.org/2000/svg">
<path fill-rule="evenodd" clip-rule="evenodd" d="M62.7526 0H63.3931C63.6469 0.0218114 63.8967 0.0654342 64.1485 0.109057C63.4981 1.12692 62.8458 2.14347 62.1915 3.15869C62.6099 2.37943 63.056 1.62991 63.4783 0.862542C62.5283 0.759639 61.5724 0.994069 60.7778 1.52482C60.3555 1.81431 60.0739 2.25054 59.7864 2.66694C58.9933 3.87648 58.3112 5.14551 57.5479 6.36695C57.0202 7.25745 56.413 8.09831 55.7336 8.87922C55.3866 9.24209 55.0099 9.60892 54.5261 9.77746C54.099 9.87256 53.6645 9.93028 53.2274 9.94997C53.6477 9.87065 54.0998 9.89048 54.4865 9.68426C55.0813 9.34519 55.5115 8.78603 55.916 8.24669C57.3635 6.21228 58.337 3.89829 59.6258 1.78457C58.862 1.2572 57.9976 0.893237 57.0866 0.715472C56.1757 0.537708 55.2378 0.549974 54.3318 0.751502C52.8291 1.10535 51.4911 1.95897 50.5368 3.17257C50.0528 3.11261 49.5616 3.17675 49.1092 3.35896C49.7219 2.43844 50.5354 1.66894 51.4885 1.10842C52.7528 0.368591 54.2131 0.0334097 55.6734 0.1479C57.1337 0.26239 58.524 0.821066 59.6575 1.74888C60.2801 0.648393 61.5411 0.103108 62.7526 0ZM48.4767 4.48125C47.942 5.77534 47.8039 7.19917 48.0801 8.57188C48.3628 9.97338 49.0525 11.2604 50.0629 12.2719C51.9227 14.229 54.9822 14.8912 57.5003 13.9494C58.7433 13.5078 59.8409 12.7326 60.6727 11.7088C59.4206 12.2621 58.0348 12.4405 56.6834 12.2223C54.2545 11.8495 51.9386 10.4021 50.747 8.22092C50.2572 7.29691 49.8726 6.20039 50.2076 5.15741C50.3901 4.65574 50.6359 4.0708 51.199 3.89433C50.7151 3.68688 50.186 3.60701 49.6624 3.66233C49.4159 3.69378 49.1807 3.78477 48.9773 3.92745C48.7738 4.07012 48.6081 4.2602 48.4945 4.48125H48.4767ZM62.0765 4.82032C61.6685 4.84823 61.2754 4.98519 60.9384 5.21689C60.3995 5.65138 59.9136 6.14787 59.491 6.6961C58.7653 7.60425 57.9999 8.48067 57.2385 9.35908C56.8777 9.75565 56.4692 10.1701 55.9418 10.3505C55.2481 10.561 54.5118 10.5883 53.8044 10.4298C54.2553 10.7382 54.7278 11.0139 55.2181 11.2547C56.1136 11.3424 57.0116 11.1137 57.756 10.6083C58.9021 9.90039 59.7388 8.79594 60.9067 8.11384C61.2806 7.85095 61.7089 7.67545 62.1598 7.60028C62.8518 6.72981 63.51 5.83356 64.1663 4.93533C63.4781 4.80232 62.7749 4.76495 62.0765 4.82429V4.82032ZM1.81027 17.9191C4.69718 17.9191 7.58475 17.9191 10.473 17.9191C10.354 18.8708 10.239 19.8246 10.122 20.7783H7.18753C6.84253 23.4221 6.49885 26.0659 6.15649 28.7098H2.58751L3.61657 20.7783C2.41105 20.7783 1.20552 20.7783 0 20.7783C0.59483 19.8206 1.20949 18.8748 1.8063 17.921L1.81027 17.9191ZM11.5536 17.9191C11.2482 20.7189 10.9442 23.5193 10.6415 26.3204C10.5622 27.1136 10.4313 27.9067 10.3263 28.6998H13.9349C14.0241 28.0237 14.1133 27.3456 14.2045 26.6694C15.3625 26.6694 16.5224 26.6694 17.6803 26.6694C18.7272 26.6516 19.7741 25.8624 19.911 24.7936C20.1185 23.1055 20.326 21.4175 20.5335 19.7294C20.5717 19.4021 20.5052 19.071 20.3435 18.7839C20.1817 18.4967 19.9331 18.2682 19.6334 18.1312C19.2949 17.9776 18.9238 17.9095 18.5528 17.9329H11.5496L11.5536 17.9191ZM14.9659 20.7704H16.8456C16.7213 21.6746 16.5931 22.5768 16.4609 23.477C16.4609 23.565 16.4261 23.6494 16.3641 23.7119C16.302 23.7743 16.2178 23.8096 16.1298 23.8101C15.6024 23.824 15.075 23.8101 14.5436 23.8101C14.6824 22.7989 14.8133 21.7836 14.954 20.7724L14.9659 20.7704ZM23.2142 18.4981C23.2815 18.314 23.4064 18.1566 23.5704 18.0494C23.7345 17.9422 23.9288 17.8909 24.1243 17.9032C25.8374 17.9032 27.5525 17.9032 29.2657 17.9032C29.3477 17.8933 29.431 17.9 29.5104 17.9228C29.5899 17.9456 29.664 17.9841 29.7283 18.0361C29.7926 18.088 29.8459 18.1523 29.8849 18.2252C29.924 18.2981 29.948 18.378 29.9557 18.4604C30.3363 21.8709 30.7151 25.2807 31.0918 28.6899H27.4336C27.3681 28.0653 27.3047 27.4407 27.2353 26.8141C26.0774 26.8241 24.9174 26.8419 23.7595 26.8538C23.5493 27.4606 23.363 28.0733 23.1389 28.676C22.7423 28.6344 22.3299 28.676 21.9274 28.6582C21.1185 28.6582 20.3115 28.6423 19.5045 28.6582C20.7259 25.2616 21.977 21.8729 23.2103 18.4782L23.2142 18.4981ZM25.8989 21.1551C25.5301 22.1465 25.1574 23.1379 24.7886 24.1294H26.9419C26.8321 23.1393 26.7224 22.1478 26.6127 21.1551H25.8989ZM33.4057 17.9111C34.6072 17.9111 35.8081 17.9111 37.0084 17.9111L36.4869 21.976C37.165 21.976 37.8431 21.976 38.5212 21.976C38.7016 20.6217 38.8761 19.2674 39.0526 17.9151C40.3216 17.9151 41.5886 17.9151 42.8555 17.9151C42.3929 21.5093 41.9303 25.1049 41.4676 28.7018H37.6766C37.8411 27.4229 38.0116 26.1439 38.1762 24.865H36.13C35.9634 26.1433 35.7976 27.4222 35.6323 28.7018H32.0296C32.4883 25.1049 32.947 21.5087 33.4057 17.9131V17.9111ZM54.2703 17.9111H57.871C57.6966 19.2634 57.5201 20.6171 57.3416 21.972H59.3779C59.5564 20.6177 59.7309 19.2634 59.9113 17.9091H63.7103C63.2503 21.506 62.791 25.1023 62.3323 28.6979H58.5313C58.6998 27.4189 58.8644 26.14 59.0329 24.861H56.9947L56.495 28.6979H52.8923C53.3523 25.101 53.8117 21.5041 54.2703 17.9072V17.9111ZM90.2021 17.9111C93.7618 17.9111 97.3215 17.9111 100.881 17.9111C100.305 18.8655 99.7266 19.8186 99.1463 20.7704H96.5648C96.2184 23.4142 95.8754 26.058 95.5357 28.7018H91.9667C92.3078 26.058 92.6501 23.4142 92.9938 20.7704H89.8412C89.9562 19.816 90.0732 18.8629 90.1921 17.9111H90.2021ZM101.454 17.9111C100.99 21.4981 100.526 25.0871 100.084 28.678C100.625 28.6523 101.169 28.678 101.712 28.678C103.568 28.6899 105.426 28.6542 107.282 28.6959C107.664 28.6688 108.033 28.5488 108.359 28.3463C108.684 28.1438 108.955 27.8649 109.147 27.5339C109.381 27.1374 109.389 26.6496 109.455 26.1975C109.637 24.7976 109.804 23.3957 110 21.9958V21.6627C109.97 21.3846 109.87 21.1188 109.708 20.8907C109.546 20.6626 109.329 20.4799 109.076 20.36C108.592 20.1101 108.031 20.1617 107.504 20.1617H104.758C104.858 19.4161 104.96 18.6706 105.065 17.925L101.454 17.9111ZM104.032 25.8425C104.164 24.8974 104.292 23.9522 104.415 23.0071C105.037 23.0071 105.66 23.0071 106.282 23.0071C106.159 23.8379 106.072 24.6766 105.912 25.5035C105.874 25.6304 105.85 25.8544 105.672 25.8386C105.124 25.8525 104.579 25.8386 104.032 25.8386V25.8425ZM43.6724 20.2906C43.4127 22.2258 43.1728 24.1651 42.917 26.1003C42.8152 26.5958 42.8851 27.1112 43.1153 27.5617C43.316 27.9027 43.5987 28.1883 43.9376 28.3926C44.2766 28.5969 44.6611 28.7134 45.0564 28.7316H49.4284C50.63 28.5848 51.782 27.7401 52.0655 26.5227C52.1845 25.8842 52.2261 25.2318 52.3153 24.5874C51.1257 24.5874 49.9294 24.5874 48.7265 24.5874C48.673 24.9384 48.6195 25.2893 48.5699 25.6403C47.8878 25.6403 47.2077 25.6403 46.5276 25.6403C46.7398 24.0163 46.9837 22.4003 47.1938 20.7764C47.8858 20.7764 48.5818 20.7764 49.2698 20.7922C49.2182 21.1452 49.1687 21.4981 49.1171 21.8511H52.698C52.7714 21.1868 52.8685 20.5225 52.934 19.8682C52.9607 19.6249 52.9293 19.3787 52.8424 19.1498C52.7556 18.921 52.6157 18.7159 52.4343 18.5516C51.893 18.0836 51.1475 17.9567 50.4515 17.9567C49.131 17.9567 47.8125 17.9567 46.486 17.9567C45.1595 17.9567 43.8687 18.962 43.6586 20.2945L43.6724 20.2906ZM64.9158 17.9627C64.4558 21.5569 63.9971 25.1519 63.5398 28.7474H72.3472C72.4636 27.8062 72.5799 26.8637 72.6962 25.9199H67.4855C67.5489 25.4737 67.6104 25.0256 67.6838 24.5795C69.4167 24.5795 71.1477 24.5616 72.8786 24.5596C72.983 23.7453 73.0888 22.9311 73.1959 22.1168C71.4609 22.1168 69.728 22.1346 67.9951 22.1346C68.0572 21.6891 68.1193 21.2417 68.1814 20.7922H73.3664L73.7173 17.9647L64.9158 17.9627ZM74.7543 19.1683C74.9626 18.7965 75.268 18.4884 75.6378 18.2767C76.0077 18.0651 76.428 17.9579 76.8541 17.9666C80.0807 17.9666 83.3073 17.9666 86.5339 17.9666C87.1149 17.9666 87.7414 17.9111 88.2669 18.2185C88.5448 18.3707 88.7697 18.6041 88.9114 18.8876C89.0532 19.1711 89.105 19.491 89.06 19.8048C88.8617 21.4723 88.6496 23.136 88.4473 24.8035C88.3303 25.8802 87.2894 26.6912 86.2365 26.717C85.0687 26.717 83.9008 26.717 82.733 26.717C82.6437 27.3951 82.5525 28.0733 82.4633 28.7514H78.8527C78.9598 28.0733 79.051 27.3912 79.1442 26.711H75.829C75.4876 26.7228 75.1482 26.6549 74.8376 26.5128C74.5859 26.3974 74.3685 26.2188 74.2066 25.9942C74.0446 25.7697 73.9437 25.507 73.9136 25.2318C73.9114 24.8509 73.9439 24.4706 74.0108 24.0957C74.1714 22.8266 74.3359 21.5556 74.4946 20.2846C74.5102 19.8995 74.5984 19.5207 74.7543 19.1683ZM77.6254 23.8478H79.4872C79.6484 22.8392 79.7806 21.8259 79.8837 20.8081H78.0061C77.8739 21.8207 77.7456 22.8339 77.6214 23.8478H77.6254ZM83.0899 23.8478C83.6292 23.8478 84.1685 23.8478 84.7078 23.8478C84.7475 23.8479 84.7867 23.8398 84.8231 23.8242C84.8596 23.8086 84.8924 23.7857 84.9197 23.7569C84.947 23.7281 84.9681 23.6941 84.9818 23.6569C84.9955 23.6197 85.0014 23.58 84.9993 23.5405C85.1315 22.6323 85.2577 21.7248 85.378 20.818H83.4983C83.3595 21.8292 83.2207 22.8405 83.0819 23.8518L83.0899 23.8478Z" fill="#005A9C"/>
<path fill-rule="evenodd" clip-rule="evenodd" d="M62.1659 7.59634C62.8435 7.51193 63.5312 7.62196 64.1487 7.9136C63.3965 8.95444 62.5807 9.94776 61.7059 10.8879C60.9643 11.6711 59.848 11.9487 58.8031 11.9884C57.5664 12.0229 56.3387 11.7676 55.2183 11.2428C56.1138 11.3305 57.0117 11.1018 57.7562 10.5964C58.9022 9.88852 59.739 8.78407 60.9068 8.10197C61.2832 7.84107 61.7136 7.66826 62.1659 7.59634Z" fill="#EC1C2B"/>
<path fill-rule="evenodd" clip-rule="evenodd" d="M19.5087 28.6839C20.3157 28.6582 21.1227 28.6839 21.9316 28.6839C22.3282 28.6839 22.7406 28.6601 23.1431 28.7018L23.2085 28.7573H19.4413L19.5087 28.6839Z" fill="#002744"/>
<path fill-rule="evenodd" clip-rule="evenodd" d="M100.084 28.6839C100.626 28.6582 101.169 28.6839 101.712 28.6839C103.568 28.6958 105.426 28.6601 107.282 28.7018L107.405 28.7573H100.037L100.084 28.6839Z" fill="#001C30"/>
</svg>
