<svg width="110" height="21" viewBox="0 0 110 21" fill="none" xmlns="http://www.w3.org/2000/svg">
<g clip-path="url(#clip0_826_27453)">
<path fill-rule="evenodd" clip-rule="evenodd" d="M10.7802 20.9458C16.6476 21.0303 21.4738 16.3427 21.5629 10.4748C21.4738 4.60703 16.6476 -0.0793977 10.7802 0.00465317C4.91234 -0.0793976 0.091907 4.60703 0.00244141 10.4748C0.091907 16.3427 4.91234 21.0303 10.7802 20.9458Z" fill="url(#paint0_radial_826_27453)"/>
<path fill-rule="evenodd" clip-rule="evenodd" d="M90.4611 4.76715C92.5774 4.95683 94.4131 3.33273 94.4872 1.21143H92.3444C92.1275 2.07262 91.6091 2.50806 90.4611 2.50806C89.3181 2.50806 88.7253 2.07262 88.5402 1.21143H86.3975C86.4877 3.34313 88.3394 4.96223 90.4611 4.76715Z" fill="black"/>
<path fill-rule="evenodd" clip-rule="evenodd" d="M46.4678 14.7036V5.88281H43.7683V18.7392H46.5791L52.0116 9.77181V18.7392H54.71V5.88281H51.9002L46.4678 14.7036Z" fill="black"/>
<path fill-rule="evenodd" clip-rule="evenodd" d="M34.5781 16.1522C32.14 16.1522 30.7002 14.4326 30.7002 11.8455V10.5182C31.2135 9.51304 32.5846 8.71944 34.5781 8.71944C36.6844 8.71944 38.3081 9.69155 38.3081 12.1315C38.3081 14.5754 37.0176 16.1522 34.5781 16.1522ZM35.2822 5.98883C33.2558 5.89933 31.3518 6.97365 30.3777 8.7559C30.5144 5.84095 31.1076 4.10441 34.5781 3.65518L39.9759 2.93569L39.7536 0.0629883L34.1338 0.820108C29.2927 1.46517 27.9277 5.09499 27.9277 10.8039C27.9277 15.7924 30.2556 18.9881 34.5781 18.9881C38.7907 18.9881 41.0809 15.8308 41.0809 12.1315C41.3033 8.78699 38.6322 5.96155 35.2822 5.98883Z" fill="black"/>
<path fill-rule="evenodd" clip-rule="evenodd" d="M107.302 5.88281V10.6983H102.053V5.88281H99.3547V18.7392H102.053V13.3533H107.302V18.7392H110V5.88281H107.302Z" fill="black"/>
<path fill-rule="evenodd" clip-rule="evenodd" d="M87.7255 14.7036V5.88281H85.0271V18.7392H87.8368L93.2704 9.77181V18.7392H95.9688V5.88281H93.1591L87.7255 14.7036Z" fill="black"/>
<path fill-rule="evenodd" clip-rule="evenodd" d="M59.5619 13.7499C59.2654 15.184 58.8581 15.7975 58.0488 15.7975C57.7101 15.8083 57.3769 15.7714 57.0486 15.6865V18.6706C57.4667 18.861 57.9217 18.9459 58.3766 18.9193C59.6728 18.9513 60.8424 18.1361 61.2604 16.9086C61.5991 15.8981 61.8106 14.8507 61.8897 13.7872C62.0698 12.0679 62.1597 10.3439 62.1493 8.61233H65.7365V18.7447H68.4295V5.88904H59.8951C59.9535 8.51253 59.8421 11.1376 59.5619 13.7499Z" fill="black"/>
<path fill-rule="evenodd" clip-rule="evenodd" d="M76.096 16.2632C74.8367 16.2632 73.916 15.9403 73.916 14.8242C73.916 13.857 74.6885 13.4274 76.0219 12.8876L78.5986 11.8456L78.5721 15.3267C77.9213 15.9829 77.0167 16.3216 76.096 16.2632ZM81.1595 15.258L81.1964 10.1581C81.2336 6.92449 79.2017 5.59723 76.2442 5.59723C73.6726 5.39523 71.4295 7.33263 71.2549 9.9047H73.8419C73.9901 8.71946 74.9476 8.32244 76.2442 8.32244C77.5669 8.32244 78.4558 8.71946 78.5932 10.0414L75.2863 11.343C73.0325 12.2368 71.329 13.2473 71.329 15.3636C71.329 17.554 72.5879 18.9562 75.1012 18.9562C76.6938 18.9946 78.1594 18.0728 78.8102 16.6176C78.9426 18.1626 79.9992 18.8506 81.826 18.8506H82.5667V16.3692H82.3444C81.4928 16.3692 81.1595 16.0463 81.1595 15.258Z" fill="black"/>
<path fill-rule="evenodd" clip-rule="evenodd" d="M15.42 18.2789C11.7595 20.3319 7.79065 20.697 5.25621 19.4695C8.6265 21.4181 12.7754 21.443 16.1722 19.5437C19.5313 17.6973 21.5992 14.1523 21.5627 10.3221C21.3934 13.0688 19.076 16.221 15.42 18.2789ZM16.7331 2.12016C16.5147 1.76121 16.2144 1.45441 15.8539 1.23212C17.1919 1.91977 18.368 2.88274 19.3036 4.05757C19.4676 4.25913 19.6204 4.46492 19.764 4.68189C20.1502 5.34263 20.3299 6.09981 20.2923 6.86652C20.1979 9.65511 17.6523 13.0358 13.6416 15.2846C9.63129 17.5329 5.34566 17.9879 2.812 16.6706C2.11401 16.3216 1.53155 15.7871 1.12418 15.1206L1.10768 15.0941C1.00172 14.8875 0.90727 14.6814 0.817824 14.4698C0.224634 13.0888 -0.0506915 11.5975 0.00766492 10.0997C0.0295753 10.5236 0.149762 10.9356 0.36283 11.3007C1.65901 13.4804 6.37273 13.1943 10.891 10.6607C15.415 8.12088 18.0293 4.30099 16.7331 2.12016ZM12.1511 0.771386C12.1089 0.71303 12.0651 0.654654 12.0183 0.607845C11.4044 0.11066 10.6053 -0.0951496 9.82746 0.0411254C9.68002 0.0522843 9.51994 0.0680233 9.36212 0.0940867C7.96531 0.269195 6.62193 0.718425 5.3933 1.40682C4.17156 2.08409 3.09766 2.99941 2.2346 4.08986C2.14015 4.2104 2.05064 4.33251 1.95926 4.45421C1.44633 5.03628 1.22942 5.81954 1.36762 6.5805C1.38796 6.64421 1.41524 6.71375 1.44633 6.77168C2.18696 8.02028 5.18751 7.69317 8.13964 6.03105C11.0968 4.37547 12.8918 2.02037 12.1511 0.771386Z" fill="url(#paint1_radial_826_27453)"/>
</g>
<defs>
<radialGradient id="paint0_radial_826_27453" cx="0" cy="0" r="1" gradientUnits="userSpaceOnUse" gradientTransform="translate(10.7827 10.4752) scale(10.7801 10.4718)">
<stop stop-color="#FEC700"/>
<stop offset="1" stop-color="#FFDB51"/>
</radialGradient>
<radialGradient id="paint1_radial_826_27453" cx="0" cy="0" r="1" gradientUnits="userSpaceOnUse" gradientTransform="translate(10.7816 10.4749) scale(10.7814 10.4752)">
<stop stop-color="#050007"/>
<stop offset="0.48" stop-color="#050007"/>
<stop offset="1" stop-color="#50504F"/>
</radialGradient>
<clipPath id="clip0_826_27453">
<rect width="110" height="20.9498" fill="white"/>
</clipPath>
</defs>
</svg>
