<svg width="62" height="65" viewBox="0 0 62 65" fill="none" xmlns="http://www.w3.org/2000/svg">
<g clip-path="url(#clip0_826_28609)">
<path fill-rule="evenodd" clip-rule="evenodd" d="M1.6602 18.226H59.8452C60.991 18.226 61.5054 17.6605 61.5054 16.6465C61.4989 10.6275 51.8111 0 30.7494 0C9.49241 0 0 10.6275 0 16.6465C0 17.667 0.514335 18.226 1.6602 18.226ZM61.4989 55.9C61.4989 54.977 60.9845 54.4505 59.8387 54.4505H1.6602C0.514335 54.444 0 54.977 0 55.9C0 57.5185 1.56254 59.7805 4.63553 61.438C9.76586 64.207 18.5682 65 30.7494 65C42.9307 65 51.733 64.207 56.8633 61.438C59.9428 59.7805 61.4989 57.5185 61.4989 55.9Z" fill="#F58538"/>
<path d="M15.1174 33.0785C11.9207 33.0785 10.241 31.2325 10.241 28.9185V22.516C10.241 21.3785 10.9311 20.462 12.1941 20.462C13.4572 20.462 14.1668 21.372 14.1668 22.516V28.7105C14.1668 29.1655 14.4012 29.6985 15.1174 29.6985C15.827 29.6985 16.107 29.1655 16.107 28.7105V22.516C16.107 21.3785 16.7971 20.462 18.0602 20.462C19.3232 20.462 20.0133 21.372 20.0133 22.516V28.9185C20.0133 31.239 18.3141 33.0785 15.1174 33.0785Z" fill="#D72300"/>
<path fill-rule="evenodd" clip-rule="evenodd" d="M2.31125 32.9875H5.09127C7.71503 32.9875 9.31663 31.2975 9.31663 29.185C9.31663 27.547 8.33353 26.7605 8.06009 26.546L8.03405 26.5265C7.93639 26.4485 7.83873 26.377 7.83873 26.299C7.83873 26.2275 7.87779 26.1885 7.93639 26.117C7.95592 26.0975 7.97545 26.078 7.99498 26.052C8.3726 25.636 8.7437 24.9665 8.7437 23.998C8.7437 21.7165 7.1421 20.501 4.65506 20.501H2.31125C0.748716 20.501 0 21.3785 0 22.555V30.9335C0 32.11 0.748716 32.9875 2.31125 32.9875ZM3.96494 25.4995C3.62639 25.4995 3.47013 25.311 3.47013 25.064V23.7705C3.47013 23.5235 3.62639 23.335 3.96494 23.335H4.21885C5.06523 23.335 5.32565 23.907 5.32565 24.401C5.32565 24.856 5.07174 25.506 4.21885 25.506H3.96494V25.4995ZM3.96494 27.781H4.32302C5.26705 27.781 5.54701 28.392 5.54701 28.938C5.54701 29.432 5.27356 30.134 4.32302 30.134H3.96494C3.62639 30.134 3.47013 29.9455 3.47013 29.6985V28.2165C3.47665 27.9695 3.6329 27.781 3.96494 27.781Z" fill="#D72300"/>
<path fill-rule="evenodd" clip-rule="evenodd" d="M21.2766 31.0311C21.2766 32.1686 21.9667 33.0851 23.2298 33.0851C24.4928 33.0851 25.183 32.1751 25.183 31.0311V29.0161C25.183 28.7691 25.3001 28.6521 25.502 28.6521C25.7364 28.6521 25.8145 28.7886 25.8601 29.0161C26.0358 29.9846 26.5111 31.2976 27.045 31.9606C27.7156 32.8186 28.3471 33.0786 28.9786 33.0786C30.0073 33.0786 30.8927 32.2986 30.8927 31.3301C30.8927 30.6866 30.6193 30.2121 30.2612 29.7701L30.1701 29.6531C29.6362 28.9771 29.1609 28.3856 28.92 27.7551C28.8614 27.6056 28.9005 27.4691 29.0763 27.3391C29.6883 26.8841 30.3979 25.8766 30.3979 24.2776C30.3979 21.8661 28.3276 20.4946 25.821 20.4946H23.5879C22.0253 20.4946 21.2766 21.3721 21.2766 22.5486V31.0311ZM25.4629 25.8246C25.1244 25.8246 24.9681 25.6361 24.9681 25.3891V24.0956C24.9681 23.8486 25.1244 23.6601 25.4629 23.6601H25.7364C26.5632 23.6601 26.8236 24.2321 26.8236 24.7261C26.8236 25.2006 26.5697 25.8311 25.7364 25.8311H25.4629V25.8246Z" fill="#D72300"/>
<path fill-rule="evenodd" clip-rule="evenodd" d="M51.8892 31.0311C51.8892 32.1686 52.5793 33.0851 53.8423 33.0851C55.1054 33.0851 55.7955 32.1751 55.7955 31.0311V29.0161C55.7955 28.7691 55.9127 28.6521 56.1145 28.6521C56.3489 28.6521 56.4335 28.7886 56.4726 29.0161C56.6484 29.9846 57.1237 31.2976 57.6575 31.9606C58.3281 32.8186 58.9596 33.0786 59.5912 33.0786C60.6198 33.0786 61.5053 32.2986 61.5053 31.3301C61.5053 30.6866 61.2318 30.2121 60.8737 29.7701C60.2032 28.9511 59.7865 28.4181 59.5326 27.7551C59.474 27.6056 59.513 27.4691 59.6888 27.3391C60.3008 26.8841 61.0105 25.8766 61.0105 24.2776C61.0105 21.8661 58.9401 20.4946 56.4335 20.4946H54.2004C52.6379 20.4946 51.8892 21.3721 51.8892 22.5486V31.0311ZM56.0755 25.8246C55.7369 25.8246 55.5807 25.6361 55.5807 25.3891V24.0956C55.5807 23.8486 55.7369 23.6601 56.0755 23.6601H56.3489C57.1757 23.6601 57.4362 24.2321 57.4362 24.7261C57.4362 25.2006 57.1823 25.8311 56.3489 25.8311H56.0755V25.8246Z" fill="#D72300"/>
<path d="M48.6144 28.236H47.2537C46.9151 28.236 46.7589 28.4245 46.7589 28.6715V29.0355C46.7589 29.2825 46.9151 29.471 47.2537 29.471H49.0311C50.1379 29.471 51.0038 30.095 51.0038 31.2195C51.0038 32.357 50.1379 32.9875 49.0311 32.9875H45.3005C43.7445 32.9875 42.9893 32.1165 42.9893 30.9335V22.555C42.9893 21.3785 43.738 20.501 45.3005 20.501H49.0311C50.1379 20.501 51.0038 21.1315 51.0038 22.2495C51.0038 23.387 50.1379 24.0175 49.0311 24.0175H47.2537C46.9151 24.0175 46.7589 24.206 46.7589 24.453V24.7585C46.7589 25.0055 46.9151 25.194 47.2537 25.194H48.6144C49.5649 25.194 50.3137 25.7465 50.3137 26.715C50.3137 27.6835 49.5584 28.236 48.6144 28.236Z" fill="#D72300"/>
<path d="M40.8537 21.411C40.0268 20.8195 38.8614 20.384 37.1231 20.384C34.0631 20.384 31.0813 22.321 31.0813 26.806C31.0813 31.1025 34.0631 33.098 37.0059 33.098C40.105 33.098 42.0581 31.2 42.0581 28.4245C42.0581 26.6565 40.9513 25.441 38.7442 25.441H38.1127C36.9473 25.441 36.0424 25.974 36.0424 27.17C36.0424 28.236 37.0124 28.7495 37.7416 28.7495C38.1192 28.7495 38.3536 28.8665 38.3536 29.1265C38.3536 29.471 37.9369 29.6985 37.4682 29.6985C35.9903 29.6985 34.9811 28.691 34.9811 26.8125C34.9811 24.7195 36.3614 23.9655 37.4291 23.9655C38.1388 23.9655 38.5294 24.1605 38.881 24.3295C39.1739 24.4725 39.4474 24.609 39.8576 24.609C40.9058 24.609 41.6154 23.7705 41.6154 22.8995C41.6089 22.2495 41.3094 21.7555 40.8537 21.411Z" fill="#D72300"/>
<path d="M6.38036 46.5334V49.2049C6.38036 51.0444 5.24752 52.5329 3.19018 52.5329C1.11331 52.5329 0 51.0509 0 49.2049V37.6284C0 35.7889 1.11331 34.3004 3.19018 34.3004C5.24752 34.3004 6.38036 35.7824 6.38036 37.6284V39.5069C6.38036 39.7539 6.47802 39.9034 6.7124 39.9034C6.84912 39.9034 6.94678 39.8644 7.12257 39.6954C7.82571 39.0389 8.92599 37.3814 9.84398 35.9579C10.5276 34.8854 11.5432 34.3069 12.624 34.3069C14.3102 34.3069 15.8532 35.5874 15.8532 37.2189C15.8532 37.8559 15.6189 38.6294 15.0524 39.4744C14.3102 40.5859 12.956 41.8014 12.4092 42.2954C12.1748 42.5034 12.0576 42.6529 12.0576 42.8609C12.0576 42.9389 12.0771 43.1079 12.2529 43.3679C12.7217 44.0634 14.0108 45.5649 15.111 46.7154C15.9704 47.6189 16.4197 48.3664 16.4197 49.3869C16.4197 51.0249 14.8962 52.5459 13.0732 52.5459C11.999 52.5459 10.9768 51.9999 10.1565 51.1354C8.94553 49.8354 7.63039 47.6384 7.18116 46.6049C7.16814 46.5789 7.15512 46.5529 7.1421 46.5269C7.07048 46.3709 6.97282 46.1564 6.7124 46.1564C6.47802 46.1369 6.38036 46.3059 6.38036 46.5334Z" fill="#D72300"/>
<path d="M33.2495 45.2011V49.2636C33.2495 51.0836 32.1427 52.5331 30.0984 52.5331C28.0606 52.5331 26.9473 51.0836 26.9473 49.2636V37.6416C26.9473 35.7826 28.0931 34.2941 30.1765 34.2941C31.4265 34.2941 32.5138 34.7426 33.562 36.6796L36.316 41.7561C36.4527 42.0161 36.5764 42.1136 36.7327 42.1136C36.9475 42.1136 37.0712 41.9641 37.0712 41.6261V37.5701C37.0712 35.7501 38.178 34.3006 40.2223 34.3006C42.2601 34.3006 43.3734 35.7501 43.3734 37.5701V49.1856C43.3734 51.0446 42.2276 52.5331 40.1442 52.5331C38.9397 52.5331 37.8069 52.0846 36.7587 50.1476L34.0047 45.0711C33.868 44.8111 33.7508 44.7136 33.5881 44.7136C33.3667 44.7071 33.2495 44.8631 33.2495 45.2011Z" fill="#D72300"/>
<path d="M59.6954 35.7694C58.4975 34.9244 56.6875 34.3004 54.1289 34.3004C49.5454 34.3004 45.0857 37.0629 45.0857 43.4979C45.0857 49.6469 49.5454 52.5264 53.9531 52.5264C58.5756 52.5264 61.5054 49.7964 61.5054 45.8119C61.5054 43.2899 59.8517 41.5414 56.5313 41.5414H55.5677C53.8359 41.5414 52.5012 42.3149 52.5012 44.0049C52.5012 45.5454 53.9531 46.2799 55.0404 46.2799C55.5742 46.2799 55.9453 46.4294 55.9453 46.8259C55.9453 47.3134 55.3138 47.6319 54.6497 47.6319C52.4296 47.6319 50.9127 46.1824 50.9127 43.4914C50.9127 40.5014 52.9765 39.4094 54.5716 39.4094C55.6328 39.4094 56.2058 39.6889 56.7331 39.9424C57.1693 40.1569 57.573 40.3519 58.1915 40.3519C59.767 40.3519 60.8283 39.1299 60.8283 37.8884C60.8152 36.9719 60.379 36.2569 59.6954 35.7694Z" fill="#D72300"/>
<path d="M21.3156 34.3004C23.5357 34.3004 24.7467 35.8799 24.7467 37.8494V48.9774C24.7467 50.9534 23.5357 52.5264 21.3156 52.5264C19.0955 52.5264 17.8845 50.9469 17.8845 48.9774V37.8494C17.8845 35.8799 19.0955 34.3004 21.3156 34.3004Z" fill="#D72300"/>
</g>
<defs>
<clipPath id="clip0_826_28609">
<rect width="61.5054" height="65" fill="white"/>
</clipPath>
</defs>
</svg>
