<svg width="110" height="31" viewBox="0 0 110 31" fill="none" xmlns="http://www.w3.org/2000/svg">
<path d="M51.3705 20.5486C51.3705 19.5756 52.1257 18.6934 53.3641 18.6934C54.8946 18.6934 55.2369 19.3286 55.5289 20.0092L55.8914 20.8864H56.1582L56.3042 18.3254C55.8209 18.2044 54.3609 18.033 53.7769 18.033C50.7614 18.033 49.5229 19.9083 49.5229 21.2493C49.5229 24.7077 54.9449 24.1935 54.9449 27.2385C54.9449 28.6501 53.7769 29.2601 52.5637 29.2601C51.884 29.2601 51.3202 29.0382 51.0081 28.771C50.8117 28.6299 50.3486 27.7275 50.1573 26.8503H49.8905L49.7445 29.6987C50.3737 29.7692 51.0584 29.9154 51.9596 29.9154C55.8259 29.9154 56.7975 28.0148 56.7975 26.5529C56.7925 22.666 51.3705 23.4423 51.3705 20.5486Z" fill="#9E9E9F"/>
<path d="M64.9628 27.9238C64.55 28.3372 63.8704 28.8716 63.1655 28.8716C62.7024 28.8716 61.9472 28.4582 61.9472 27.339V19.1115H64.7413V18.4511H61.9472V15.6027H61.6049C61.1216 17.0849 59.4905 18.3553 58.1514 18.6679V19.1065H60.0997V23.2C60.0997 24.5612 60.0292 26.608 60.0292 27.707C60.0292 29.6782 61.2928 29.9756 61.9271 29.9756C63.0246 29.9756 63.7999 29.6127 65.3353 28.3926L64.9628 27.9238Z" fill="#9E9E9F"/>
<path d="M75.6158 22.5449C76.1495 22.5197 76.3206 22.3735 76.3206 21.7887C76.3206 19.6713 74.9563 18.0379 72.0868 18.0379C68.3412 18.0379 66.4937 21.1535 66.4937 24.1027C66.4937 27.5358 68.5628 29.9254 71.6488 29.9254C73.3252 29.9254 74.8355 29.4415 75.9531 28.171L75.6108 27.7324C74.906 28.4634 73.9293 28.8315 72.8621 28.8315C69.9925 28.8315 68.6785 26.0789 68.6785 23.3717C68.6785 23.1045 68.7037 22.8121 68.7239 22.5449H75.6158ZM71.674 18.5471C73.4007 18.5471 74.1307 19.7167 74.1307 21.3501V21.7887C73.7632 21.8139 73.4259 21.8139 72.6506 21.8391L68.7792 21.9349C69.1216 19.9133 70.1939 18.5471 71.674 18.5471Z" fill="#9E9E9F"/>
<path d="M80.8662 27.0971V17.453C80.8662 15.7944 80.9619 14.1408 81.0122 12.4822C79.6983 12.6284 78.3592 12.6789 77.02 12.6789V13.0166L78.4548 13.4804C78.626 13.5308 78.7971 13.6266 78.8424 13.7476C78.918 13.919 79.0136 14.7962 79.0136 15.8196V27.0971C79.0136 28.2919 78.918 28.7053 78.1628 28.9473L77.0251 29.3405V29.6783C77.9262 29.5825 78.8978 29.4817 79.8694 29.4817C80.8662 29.4817 81.8882 29.5775 82.8598 29.6783V29.3405L81.6667 28.9473C80.9166 28.7053 80.8662 28.2919 80.8662 27.0971Z" fill="#9E9E9F"/>
<path d="M88.4328 28.9474C87.6777 28.7054 87.6273 28.292 87.6273 27.0972V17.4531C87.6273 15.7945 87.723 14.1409 87.7733 12.4823C86.4594 12.6285 85.1202 12.6789 83.7861 12.6789V13.0167L85.2209 13.4805C85.3921 13.5309 85.5632 13.6267 85.6086 13.7477C85.6841 13.9191 85.7797 14.7963 85.7797 15.8197V27.0972C85.7797 28.292 85.6841 28.7054 84.9289 28.9474L83.7861 29.3406V29.6784C84.6822 29.5826 85.6589 29.4818 86.6305 29.4818C87.6273 29.4818 88.6493 29.5775 89.626 29.6784V29.3406L88.4328 28.9474Z" fill="#9E9E9F"/>
<path d="M99.5231 27.7527V20.9569C99.5231 18.6934 97.8215 18.033 95.8783 18.033C93.9803 18.033 92.5707 19.011 91.4279 20.836L92.0371 21.1788C92.7671 20.0797 93.935 19.3034 95.2691 19.3034C96.6536 19.3034 97.7259 19.8126 97.7259 21.6174V22.9079H97.5547C93.5424 22.9079 90.7231 24.1532 90.7231 26.9259C90.7231 29.0231 92.1579 29.9205 93.935 29.9205C95.7122 29.9205 96.7543 28.8719 97.7007 27.6065H97.7511L97.6806 29.6734C98.2646 29.5777 98.8737 29.4768 99.4527 29.4768C100.062 29.4768 100.696 29.5726 101.325 29.6734V29.3407C99.79 29.0433 99.5231 28.9273 99.5231 27.7527ZM97.6755 25.5849C97.6755 27.5309 96.3817 28.6551 94.8261 28.6551C93.4417 28.6551 92.762 27.8283 92.762 26.5377C92.762 23.9061 95.7071 23.5684 97.6755 23.5684V25.5849Z" fill="#9E9E9F"/>
<path d="M46.341 27.7527V20.9569C46.341 18.6934 44.6394 18.033 42.6962 18.033C40.8033 18.033 39.3886 19.011 38.2458 20.836L38.855 21.1788C39.5849 20.0797 40.7529 19.3034 42.092 19.3034C43.4765 19.3034 44.5488 19.8126 44.5488 21.6174V22.9079H44.3776C40.3653 22.9079 37.541 24.1532 37.541 26.9259C37.541 29.0231 38.9758 29.9205 40.7529 29.9205C42.53 29.9205 43.5721 28.8719 44.5236 27.6065H44.574L44.5035 29.6734C45.0824 29.5777 45.6966 29.4768 46.2756 29.4768C46.8847 29.4768 47.519 29.5726 48.1483 29.6734V29.3407C46.6078 29.0433 46.341 28.9273 46.341 27.7527ZM44.4934 25.5849C44.4934 27.5309 43.2046 28.6551 41.644 28.6551C40.2595 28.6551 39.5749 27.8283 39.5749 26.5377C39.5749 23.9061 42.52 23.5684 44.4884 23.5684V25.5849H44.4934Z" fill="#9E9E9F"/>
<path d="M104.583 20.5486C104.583 19.5756 105.338 18.6934 106.577 18.6934C108.107 18.6934 108.449 19.3286 108.741 20.0092L109.104 20.8864H109.371L109.517 18.3254C109.028 18.2044 107.568 18.033 106.984 18.033C103.969 18.033 102.73 19.9083 102.73 21.2493C102.73 24.7077 108.152 24.1935 108.152 27.2385C108.152 28.6501 106.984 29.2601 105.771 29.2601C105.087 29.2601 104.528 29.0382 104.211 28.771C104.019 28.6299 103.556 27.7275 103.36 26.8503H103.093L102.947 29.6987C103.581 29.7692 104.261 29.9154 105.162 29.9154C109.028 29.9154 110 28.0148 110 26.5529C110.005 22.666 104.583 23.4423 104.583 20.5486Z" fill="#9E9E9F"/>
<path d="M32.8035 12.1242C30.2008 14.4029 26.4955 16.5152 22.8305 18.6679C21.9042 23.0992 20.8168 27.334 18.9541 30.2479C23.042 28.2465 27.0443 22.9127 29.1335 18.3402C31.1674 18.804 33.2012 20.0442 34.4346 21.1785C34.7518 17.6495 33.9111 14.7457 32.8035 12.1242Z" fill="#B4B4B5"/>
<path d="M29.0679 0C27.4317 1.46703 26.3141 3.93226 25.4331 6.89153C27.4317 7.42088 29.2894 7.86956 30.9407 8.14683C29.6619 5.45979 28.6249 2.89878 29.0679 0Z" fill="#B4B4B5"/>
<path d="M0 3.05981C7.66224 4.09329 14.3579 8.17678 19.0499 13.8433C16.14 16.9992 12.2133 22.3682 11.297 27.6163C13.4618 24.2688 18.1135 21.4305 22.8256 18.6678C23.6714 14.6196 24.3863 10.4101 25.4334 6.89124C17.5496 4.79908 7.55148 1.50707 0 3.05981Z" fill="#D7063A"/>
<path d="M30.9409 8.15192C31.5501 9.43242 32.2146 10.7381 32.8036 12.1295C34.2233 10.8843 35.3157 9.59374 35.8897 8.21745C34.6361 8.56531 32.9395 8.48465 30.9409 8.15192Z" fill="#D7063A"/>
<path d="M30.9405 8.1516C29.2893 7.87432 27.4316 7.42564 25.433 6.8963C24.3858 10.4152 23.671 14.6247 22.8252 18.6729C26.4952 16.5203 30.2005 14.4079 32.7982 12.1292C32.2142 10.7378 31.5547 9.42706 30.9405 8.1516Z" fill="#A61E41"/>
</svg>
