<svg width="110" height="25" viewBox="0 0 110 25" fill="none" xmlns="http://www.w3.org/2000/svg">
<g clip-path="url(#clip0_826_28878)">
<path d="M35.6233 1.58423L34.9954 1.50486C34.9954 1.50486 34.9636 1.4489 34.9636 1.35366C34.9636 1.26596 34.9954 1.2104 34.9954 1.2104C34.9954 1.2104 35.3215 1.15485 35.973 1.15485C36.6327 1.15485 36.9588 1.2104 36.9588 1.2104C36.9588 1.2104 36.9903 1.26596 36.9903 1.35366C36.9903 1.4489 36.9588 1.50486 36.9588 1.50486L36.3309 1.58423V3.66011H38.763V1.58423L38.1351 1.50486C38.1351 1.50486 38.1112 1.4489 38.1112 1.35366C38.1112 1.26596 38.1351 1.2104 38.1351 1.2104C38.1351 1.2104 38.4691 1.15485 39.1209 1.15485C39.7724 1.15485 40.1063 1.2104 40.1063 1.2104C40.1063 1.2104 40.1303 1.26596 40.1303 1.35366C40.1303 1.4489 40.1063 1.50486 40.1063 1.50486L39.4785 1.58423V6.32411L40.1063 6.40347C40.1063 6.40347 40.1303 6.45944 40.1303 6.55468C40.1303 6.64238 40.1063 6.69793 40.1063 6.69793C40.1063 6.69793 39.7724 6.7535 39.1209 6.7535C38.4691 6.7535 38.1351 6.69793 38.1351 6.69793C38.1351 6.69793 38.1112 6.64238 38.1112 6.55468C38.1112 6.45944 38.1351 6.40347 38.1351 6.40347L38.763 6.32411V4.11329H36.3309V6.32411L36.9588 6.40347C36.9588 6.40347 36.9903 6.45944 36.9903 6.55468C36.9903 6.64238 36.9588 6.69793 36.9588 6.69793C36.9588 6.69793 36.6327 6.7535 35.973 6.7535C35.3215 6.7535 34.9954 6.69793 34.9954 6.69793C34.9954 6.69793 34.9636 6.64238 34.9636 6.55468C34.9636 6.45944 34.9954 6.40347 34.9954 6.40347L35.6233 6.32411V1.58423Z" fill="#003085"/>
<path d="M42.222 4.90856C41.5942 4.97998 41.3796 5.20262 41.3796 5.58477V5.71177C41.3796 6.14113 41.5381 6.35583 42.0233 6.35583C42.8102 6.35583 43.112 5.89471 43.112 5.89471V4.80538L42.222 4.90856ZM41.3078 4.00177C41.3078 4.00177 41.2284 4.02598 41.1169 4.02598C41.006 4.02598 40.9263 4.00177 40.9263 4.00177C40.9263 4.00177 40.8626 3.61247 40.8626 3.05571C40.8626 3.05571 41.3396 2.72156 42.222 2.72156C43.3745 2.72156 43.7878 3.15889 43.7878 3.93035V6.33995L44.352 6.42765C44.352 6.42765 44.3839 6.48322 44.3839 6.56298C44.3839 6.64235 44.352 6.69792 44.352 6.69792C44.352 6.69792 44.0739 6.75386 43.5336 6.75386C43.3026 6.75386 43.112 6.71377 43.112 6.71377V6.32407C43.112 6.32407 42.6511 6.77768 41.7848 6.77768C40.9981 6.77768 40.7039 6.38798 40.7039 5.69589V5.5685C40.7039 4.94822 41.0933 4.59862 42.1105 4.50298L43.112 4.39186V3.93035C43.112 3.40571 42.8975 3.14301 42.222 3.14301C41.7687 3.14301 41.5066 3.29419 41.4033 3.34977L41.3078 4.00177Z" fill="#003085"/>
<path d="M45.4186 3.15879L44.8543 3.07149C44.8543 3.07149 44.8225 3.01555 44.8225 2.93618C44.8225 2.85681 44.8543 2.80086 44.8543 2.80086C44.8543 2.80086 45.1404 2.7453 45.7046 2.7453C46.2771 2.7453 46.5634 2.80086 46.5634 2.80086C46.5634 2.80086 46.5871 2.85681 46.5871 2.93618C46.5871 3.01555 46.5634 3.07149 46.5634 3.07149L46.094 3.15879V6.31607H47.9225V3.15879L47.4613 3.07149C47.4613 3.07149 47.4295 3.01555 47.4295 2.93618C47.4295 2.85681 47.4613 2.80086 47.4613 2.80086C47.4613 2.80086 47.7477 2.7453 48.3119 2.7453C48.884 2.7453 49.1704 2.80086 49.1704 2.80086C49.1704 2.80086 49.2019 2.85681 49.2019 2.93618C49.2019 3.01555 49.1704 3.07149 49.1704 3.07149L48.6058 3.15879V6.31607H49.1861C49.1861 6.31607 49.2258 6.46728 49.2258 6.68198C49.2258 7.42961 49.1704 7.74749 49.1704 7.74749C49.1704 7.74749 49.0986 7.7717 48.9795 7.7717C48.8601 7.7717 48.7889 7.74749 48.7889 7.74749L48.6777 6.73752H47.0322C45.7207 6.73752 44.8543 6.68992 44.8543 6.68992C44.8543 6.68992 44.8225 6.63434 44.8225 6.55458C44.8225 6.47522 44.8543 6.41964 44.8543 6.41964L45.4186 6.33195V3.15879Z" fill="#003085"/>
<path d="M50.308 3.15879L49.7437 3.07149C49.7437 3.07149 49.7119 3.01555 49.7119 2.93618C49.7119 2.85681 49.7437 2.80086 49.7437 2.80086C49.7437 2.80086 50.0295 2.7453 50.6098 2.7453C51.1743 2.7453 51.4528 2.80086 51.4528 2.80086C51.4528 2.80086 51.4843 2.85681 51.4843 2.93618C51.4843 3.01555 51.4528 3.07149 51.4528 3.07149L50.9834 3.15879V5.60019L52.8753 3.23819V3.15879L52.4065 3.07149C52.4065 3.07149 52.3743 3.01555 52.3743 2.93618C52.3743 2.85681 52.4065 2.80086 52.4065 2.80086C52.4065 2.80086 52.6846 2.7453 53.2568 2.7453C53.8292 2.7453 54.1152 2.80086 54.1152 2.80086C54.1152 2.80086 54.1468 2.85681 54.1468 2.93618C54.1468 3.01555 54.1152 3.07149 54.1152 3.07149L53.5586 3.15879V6.33988L54.1231 6.42758C54.1231 6.42758 54.1468 6.48316 54.1468 6.56292C54.1468 6.64228 54.1231 6.69785 54.1231 6.69785C54.1231 6.69785 53.8371 6.75379 53.2568 6.75379C52.6925 6.75379 52.4065 6.69785 52.4065 6.69785C52.4065 6.69785 52.3822 6.64228 52.3822 6.56292C52.3822 6.48316 52.4065 6.42758 52.4065 6.42758L52.8753 6.33988V3.89852L50.9834 6.26052V6.33988L51.4528 6.42758C51.4528 6.42758 51.4843 6.48316 51.4843 6.56292C51.4843 6.64228 51.4528 6.69785 51.4528 6.69785C51.4528 6.69785 51.1743 6.75379 50.6098 6.75379C50.0295 6.75379 49.7437 6.69785 49.7437 6.69785C49.7437 6.69785 49.7119 6.64228 49.7119 6.56292C49.7119 6.48316 49.7437 6.42758 49.7437 6.42758L50.308 6.33988V3.15879Z" fill="#003085"/>
<path d="M55.4836 5.52089C55.4836 6.08559 55.7221 6.35583 56.4218 6.35583C57.1209 6.35583 57.3676 6.08559 57.3676 5.52089V3.97795C57.3676 3.41325 57.1209 3.14301 56.4218 3.14301C55.7221 3.14301 55.4836 3.41325 55.4836 3.97795V5.52089ZM54.8003 3.97795C54.8003 3.18268 55.2533 2.72156 56.4218 2.72156C57.5982 2.72156 58.0509 3.18268 58.0509 3.97795V5.52089C58.0509 6.31616 57.5982 6.77768 56.4218 6.77768C55.2533 6.77768 54.8003 6.31616 54.8003 5.52089V3.97795Z" fill="#003085"/>
<path d="M59.2606 3.15879L58.6961 3.07149C58.6961 3.07149 58.6646 3.01555 58.6646 2.93618C58.6646 2.85681 58.6961 2.80086 58.6961 2.80086C58.6961 2.80086 58.9821 2.7453 59.5464 2.7453C60.1188 2.7453 60.4052 2.80086 60.4052 2.80086C60.4052 2.80086 60.4291 2.85681 60.4291 2.93618C60.4291 3.01555 60.4052 3.07149 60.4052 3.07149L59.9361 3.15879V4.47116H61.7242V3.15879L61.2555 3.07149C61.2555 3.07149 61.2236 3.01555 61.2236 2.93618C61.2236 2.85681 61.2555 2.80086 61.2555 2.80086C61.2555 2.80086 61.5415 2.7453 62.1136 2.7453C62.6782 2.7453 62.9646 2.80086 62.9646 2.80086C62.9646 2.80086 62.9964 2.85681 62.9964 2.93618C62.9964 3.01555 62.9646 3.07149 62.9646 3.07149L62.4 3.15879V6.33988L62.9646 6.42758C62.9646 6.42758 62.9964 6.48316 62.9964 6.56292C62.9964 6.64228 62.9646 6.69785 62.9646 6.69785C62.9646 6.69785 62.6782 6.75379 62.1136 6.75379C61.5415 6.75379 61.2555 6.69785 61.2555 6.69785C61.2555 6.69785 61.2236 6.64228 61.2236 6.56292C61.2236 6.48316 61.2555 6.42758 61.2555 6.42758L61.7242 6.33988V4.89261H59.9361V6.33988L60.4052 6.42758C60.4052 6.42758 60.4291 6.48316 60.4291 6.56292C60.4291 6.64228 60.4052 6.69785 60.4052 6.69785C60.4052 6.69785 60.1188 6.75379 59.5464 6.75379C58.9821 6.75379 58.6961 6.69785 58.6961 6.69785C58.6961 6.69785 58.6646 6.64228 58.6646 6.56292C58.6646 6.48316 58.6961 6.42758 58.6961 6.42758L59.2606 6.33988V3.15879Z" fill="#003085"/>
<path d="M65.1036 4.90856C64.4761 4.97998 64.2615 5.20262 64.2615 5.58477V5.71177C64.2615 6.14113 64.42 6.35583 64.9051 6.35583C65.6918 6.35583 65.9939 5.89471 65.9939 5.89471V4.80538L65.1036 4.90856ZM64.1897 4.00177C64.1897 4.00177 64.1103 4.02598 63.9988 4.02598C63.8879 4.02598 63.8082 4.00177 63.8082 4.00177C63.8082 4.00177 63.7445 3.61247 63.7445 3.05571C63.7445 3.05571 64.2212 2.72156 65.1036 2.72156C66.2564 2.72156 66.6697 3.15889 66.6697 3.93035V6.33995L67.2339 6.42765C67.2339 6.42765 67.2658 6.48322 67.2658 6.56298C67.2658 6.64235 67.2339 6.69792 67.2339 6.69792C67.2339 6.69792 66.9555 6.75386 66.4155 6.75386C66.1845 6.75386 65.9939 6.71377 65.9939 6.71377V6.32407C65.9939 6.32407 65.533 6.77768 64.6667 6.77768C63.8797 6.77768 63.5854 6.38798 63.5854 5.69589V5.5685C63.5854 4.94822 63.9751 4.59862 64.9924 4.50298L65.9939 4.39186V3.93035C65.9939 3.40571 65.7791 3.14301 65.1036 3.14301C64.6509 3.14301 64.3882 3.29419 64.2851 3.34977L64.1897 4.00177Z" fill="#003085"/>
<path d="M68.0775 3.07149C68.0775 3.07149 68.0457 3.01595 68.0457 2.93618C68.0457 2.85681 68.0775 2.80086 68.0775 2.80086C68.0775 2.80086 68.8327 2.7453 69.9375 2.7453C71.0185 2.7453 71.7575 2.80086 71.7575 2.80086C71.7575 2.80086 71.7894 2.85681 71.7894 2.93618C71.7894 3.01595 71.7575 3.07149 71.7575 3.07149L71.1933 3.15879V6.34028L71.7575 6.42758C71.7575 6.42758 71.7894 6.48316 71.7894 6.56292C71.7894 6.64228 71.7575 6.69785 71.7575 6.69785C71.7575 6.69785 71.4554 6.75379 70.8515 6.75379C70.2554 6.75379 69.953 6.69785 69.953 6.69785C69.953 6.69785 69.9215 6.64228 69.9215 6.56292C69.9215 6.48316 69.953 6.42758 69.953 6.42758L70.5178 6.34028V3.18301H69.2618L69.0315 5.48113C68.9515 6.30816 68.6578 6.77761 67.6642 6.77761C67.6642 6.77761 67.6245 6.68992 67.6245 6.56292C67.6245 6.43552 67.6642 6.35576 67.6642 6.35576C68.1891 6.35576 68.3318 6.06964 68.3957 5.48113L68.6418 3.15879L68.0775 3.07149Z" fill="#003085"/>
<path d="M73.4997 4.74934V6.34782H74.2706C74.8509 6.34782 75.0494 6.12519 75.0494 5.66407V5.4331C75.0494 4.97992 74.8509 4.74934 74.2706 4.74934H73.4997ZM72.8236 3.15882L72.2597 3.0711C72.2597 3.0711 72.2275 3.01555 72.2275 2.93618C72.2275 2.85642 72.2597 2.80086 72.2597 2.80086C72.2597 2.80086 72.5615 2.7453 73.1575 2.7453C73.7618 2.7453 74.0639 2.80086 74.0639 2.80086C74.0639 2.80086 74.0957 2.85642 74.0957 2.93618C74.0957 3.01555 74.0639 3.0711 74.0639 3.0711L73.4997 3.15882V4.36758C73.4997 4.36758 73.8018 4.32792 74.3024 4.32792C75.3357 4.32792 75.733 4.73349 75.733 5.4331V5.66407C75.733 6.37164 75.3275 6.76928 74.2706 6.76928C73.0784 6.76928 72.2597 6.69785 72.2597 6.69785C72.2597 6.69785 72.2275 6.64982 72.2275 6.57046C72.2275 6.48316 72.2597 6.43513 72.2597 6.43513L72.8236 6.33988V3.15882Z" fill="#003085"/>
<path d="M76.9662 3.15879L76.4019 3.07149C76.4019 3.07149 76.3701 3.01555 76.3701 2.93618C76.3701 2.85681 76.4019 2.80086 76.4019 2.80086C76.4019 2.80086 76.6883 2.7453 77.2522 2.7453C77.8247 2.7453 78.111 2.80086 78.111 2.80086C78.111 2.80086 78.1347 2.85681 78.1347 2.93618C78.1347 3.01555 78.111 3.07149 78.111 3.07149L77.6422 3.15879V4.47116H79.4301V3.15879L78.9616 3.07149C78.9616 3.07149 78.9295 3.01555 78.9295 2.93618C78.9295 2.85681 78.9616 2.80086 78.9616 2.80086C78.9616 2.80086 79.2477 2.7453 79.8198 2.7453C80.3841 2.7453 80.6704 2.80086 80.6704 2.80086C80.6704 2.80086 80.7019 2.85681 80.7019 2.93618C80.7019 3.01555 80.6704 3.07149 80.6704 3.07149L80.1059 3.15879V6.33988L80.6704 6.42758C80.6704 6.42758 80.7019 6.48316 80.7019 6.56292C80.7019 6.64228 80.6704 6.69785 80.6704 6.69785C80.6704 6.69785 80.3841 6.75379 79.8198 6.75379C79.2477 6.75379 78.9616 6.69785 78.9616 6.69785C78.9616 6.69785 78.9295 6.64228 78.9295 6.56292C78.9295 6.48316 78.9616 6.42758 78.9616 6.42758L79.4301 6.33988V4.89261H77.6422V6.33988L78.111 6.42758C78.111 6.42758 78.1347 6.48316 78.1347 6.56292C78.1347 6.64228 78.111 6.69785 78.111 6.69785C78.111 6.69785 77.8247 6.75379 77.2522 6.75379C76.6883 6.75379 76.4019 6.69785 76.4019 6.69785C76.4019 6.69785 76.3701 6.64228 76.3701 6.56292C76.3701 6.48316 76.4019 6.42758 76.4019 6.42758L76.9662 6.33988V3.15879Z" fill="#003085"/>
<path d="M82.0306 5.52089C82.0306 6.08559 82.2688 6.35583 82.9685 6.35583C83.6682 6.35583 83.9143 6.08559 83.9143 5.52089V3.97795C83.9143 3.41325 83.6682 3.14301 82.9685 3.14301C82.2688 3.14301 82.0306 3.41325 82.0306 3.97795V5.52089ZM81.3467 3.97795C81.3467 3.18268 81.8 2.72156 82.9685 2.72156C84.1449 2.72156 84.5979 3.18268 84.5979 3.97795V5.52089C84.5979 6.31616 84.1449 6.77768 82.9685 6.77768C81.8 6.77768 81.3467 6.31616 81.3467 5.52089V3.97795Z" fill="#003085"/>
<path d="M88.1918 4.5268V3.97795C88.1918 3.41325 87.9694 3.14301 87.27 3.14301C86.57 3.14301 86.3476 3.41325 86.3476 3.97795V4.5268H88.1918ZM85.6721 3.97795C85.6721 3.18268 86.1012 2.72156 87.27 2.72156C88.47 2.72156 88.8433 3.18268 88.8433 3.97795V4.88474C88.8433 4.88474 88.3827 4.94822 87.5958 4.94822H86.3476V5.52089C86.3476 6.08559 86.5942 6.35583 87.3891 6.35583C88.2158 6.35583 88.7245 6.07765 88.7245 6.06971C88.7245 6.07765 88.7642 6.15701 88.7642 6.28441C88.7642 6.4118 88.7245 6.4991 88.7245 6.4991C88.7245 6.4991 88.2633 6.77729 87.3891 6.77729C86.133 6.77729 85.6721 6.31616 85.6721 5.52089V3.97795Z" fill="#003085"/>
<path d="M36.4067 12.8554C35.7788 12.9268 35.5642 13.1494 35.5642 13.5316V13.6586C35.5642 14.088 35.723 14.3027 36.2079 14.3027C36.9949 14.3027 37.297 13.8415 37.297 13.8415V12.7522L36.4067 12.8554ZM35.4927 11.9486C35.4927 11.9486 35.413 11.9728 35.3018 11.9728C35.1906 11.9728 35.1112 11.9486 35.1112 11.9486C35.1112 11.9486 35.0473 11.5593 35.0473 11.0025C35.0473 11.0025 35.5239 10.6684 36.4067 10.6684C37.5591 10.6684 37.9724 11.1057 37.9724 11.8772V14.2868L38.5367 14.3745C38.5367 14.3745 38.5685 14.4301 38.5685 14.5098C38.5685 14.5892 38.5367 14.6447 38.5367 14.6447C38.5367 14.6447 38.2588 14.7007 37.7182 14.7007C37.4873 14.7007 37.297 14.6606 37.297 14.6606V14.2709C37.297 14.2709 36.8358 14.7245 35.9694 14.7245C35.1827 14.7245 34.8882 14.3348 34.8882 13.6427V13.5153C34.8882 12.8951 35.2782 12.5455 36.2955 12.4498L37.297 12.3387V11.8772C37.297 11.3525 37.0824 11.0898 36.4067 11.0898C35.9536 11.0898 35.6909 11.241 35.5879 11.2966L35.4927 11.9486Z" fill="#003085"/>
<path d="M40.2784 11.1297V14.2869L40.843 14.3746C40.843 14.3746 40.8745 14.4302 40.8745 14.5096C40.8745 14.5893 40.843 14.6449 40.843 14.6449C40.843 14.6449 40.5405 14.7005 39.9369 14.7005C39.3405 14.7005 39.0387 14.6449 39.0387 14.6449C39.0387 14.6449 39.0066 14.5893 39.0066 14.5096C39.0066 14.4302 39.0387 14.3746 39.0387 14.3746L39.6027 14.2869V11.1138L39.0387 11.0265C39.0387 11.0265 39.0066 10.9706 39.0066 10.8912C39.0066 10.8114 39.0387 10.7559 39.0387 10.7559C39.0387 10.7559 39.9048 10.7083 41.2002 10.7083H42.0748C42.0748 10.7083 42.1066 10.8193 42.1066 10.9785C42.1066 11.5114 42.0587 11.742 42.0587 11.742C42.0587 11.742 41.9954 11.7658 41.8999 11.7658C41.8045 11.7658 41.7411 11.742 41.7411 11.742L41.6296 11.1297H40.2784Z" fill="#003085"/>
<path d="M45.4696 12.4736V11.9248C45.4696 11.3601 45.2469 11.0898 44.5478 11.0898C43.8478 11.0898 43.6254 11.3601 43.6254 11.9248V12.4736H45.4696ZM42.95 11.9248C42.95 11.1295 43.3793 10.6684 44.5478 10.6684C45.7475 10.6684 46.1212 11.1295 46.1212 11.9248V12.8316C46.1212 12.8316 45.6603 12.8951 44.8733 12.8951H43.6254V13.4677C43.6254 14.0324 43.8721 14.3027 44.6669 14.3027C45.4933 14.3027 46.0021 14.0245 46.0021 14.0165C46.0021 14.0245 46.0418 14.1039 46.0418 14.2312C46.0418 14.3586 46.0021 14.4459 46.0021 14.4459C46.0021 14.4459 45.5409 14.7241 44.6669 14.7241C43.4106 14.7241 42.95 14.263 42.95 13.4677V11.9248Z" fill="#003085"/>
<path d="M47.4576 11.1057L46.8934 11.0184C46.8934 11.0184 46.8616 10.9624 46.8616 10.8831C46.8616 10.8037 46.8934 10.7477 46.8934 10.7477C46.8934 10.7477 47.1798 10.6922 47.7437 10.6922C48.3161 10.6922 48.6025 10.7477 48.6025 10.7477C48.6025 10.7477 48.6261 10.8037 48.6261 10.8831C48.6261 10.9624 48.6025 11.0184 48.6025 11.0184L48.1337 11.1057V12.418H49.9216V11.1057L49.4528 11.0184C49.4528 11.0184 49.421 10.9624 49.421 10.8831C49.421 10.8037 49.4528 10.7477 49.4528 10.7477C49.4528 10.7477 49.7391 10.6922 50.3116 10.6922C50.8755 10.6922 51.1619 10.7477 51.1619 10.7477C51.1619 10.7477 51.1934 10.8037 51.1934 10.8831C51.1934 10.9624 51.1619 11.0184 51.1619 11.0184L50.5973 11.1057V14.2868L51.1619 14.3745C51.1619 14.3745 51.1934 14.43 51.1934 14.5098C51.1934 14.5892 51.1619 14.6447 51.1619 14.6447C51.1619 14.6447 50.8755 14.7007 50.3116 14.7007C49.7391 14.7007 49.4528 14.6447 49.4528 14.6447C49.4528 14.6447 49.421 14.5892 49.421 14.5098C49.421 14.43 49.4528 14.3745 49.4528 14.3745L49.9216 14.2868V12.8395H48.1337V14.2868L48.6025 14.3745C48.6025 14.3745 48.6261 14.43 48.6261 14.5098C48.6261 14.5892 48.6025 14.6447 48.6025 14.6447C48.6025 14.6447 48.3161 14.7007 47.7437 14.7007C47.1798 14.7007 46.8934 14.6447 46.8934 14.6447C46.8934 14.6447 46.8616 14.5892 46.8616 14.5098C46.8616 14.43 46.8934 14.3745 46.8934 14.3745L47.4576 14.2868V11.1057Z" fill="#003085"/>
<path d="M53.8097 11.1297V14.2869L54.3742 14.3746C54.3742 14.3746 54.406 14.4302 54.406 14.5096C54.406 14.5893 54.3742 14.6449 54.3742 14.6449C54.3742 14.6449 54.0721 14.7005 53.4679 14.7005C52.8718 14.7005 52.5621 14.6449 52.5621 14.6449C52.5621 14.6449 52.5379 14.5893 52.5379 14.5096C52.5379 14.4302 52.5621 14.3746 52.5621 14.3746L53.126 14.2869V11.1297H52.1642L52.0451 11.742C52.0451 11.742 51.9818 11.7658 51.8942 11.7658C51.7985 11.7658 51.7273 11.742 51.7273 11.742C51.7273 11.742 51.6797 11.5114 51.6797 10.9785C51.6797 10.8193 51.7194 10.7083 51.7194 10.7083H55.2009C55.2009 10.7083 55.2324 10.8193 55.2324 10.9785C55.2324 11.5114 55.1848 11.742 55.1848 11.742C55.1848 11.742 55.1209 11.7658 55.0258 11.7658C54.9303 11.7658 54.867 11.742 54.867 11.742L54.7557 11.1297H53.8097Z" fill="#003085"/>
<path d="M58.4925 11.2886C58.3731 11.2252 58.1031 11.0898 57.634 11.0898C56.9346 11.0898 56.7122 11.3601 56.7122 11.9248V13.4677C56.7122 14.0324 56.9425 14.3027 57.7137 14.3027C58.5001 14.3027 58.9774 14.0245 58.9774 14.0165C58.9774 14.0245 59.0249 14.1042 59.0249 14.2312C59.0249 14.3586 58.9774 14.4459 58.9774 14.4459C58.9774 14.4459 58.5401 14.7245 57.7052 14.7245C56.4813 14.7245 56.0286 14.263 56.0286 13.4677V11.9248C56.0286 11.1295 56.4655 10.6684 57.634 10.6684C58.5483 10.6684 59.0328 11.0025 59.0328 11.0025C59.0328 11.5593 58.9695 11.9486 58.9695 11.9486C58.9695 11.9486 58.8901 11.9728 58.7786 11.9728C58.667 11.9728 58.5877 11.9486 58.5877 11.9486L58.4925 11.2886Z" fill="#003085"/>
<path d="M61.9037 11.1297V14.2869L62.4683 14.3746C62.4683 14.3746 62.4995 14.4302 62.4995 14.5096C62.4995 14.5893 62.4683 14.6449 62.4683 14.6449C62.4683 14.6449 62.1659 14.7005 61.5619 14.7005C60.9659 14.7005 60.6556 14.6449 60.6556 14.6449C60.6556 14.6449 60.6319 14.5893 60.6319 14.5096C60.6319 14.4302 60.6556 14.3746 60.6556 14.3746L61.2201 14.2869V11.1297H60.2583L60.1392 11.742C60.1392 11.742 60.0759 11.7658 59.9883 11.7658C59.8925 11.7658 59.8213 11.742 59.8213 11.742C59.8213 11.742 59.7734 11.5114 59.7734 10.9785C59.7734 10.8193 59.8131 10.7083 59.8131 10.7083H63.2943C63.2943 10.7083 63.3265 10.8193 63.3265 10.9785C63.3265 11.5114 63.2789 11.742 63.2789 11.742C63.2789 11.742 63.215 11.7658 63.1198 11.7658C63.0243 11.7658 62.9607 11.742 62.9607 11.742L62.8498 11.1297H61.9037Z" fill="#003085"/>
<path d="M65.1 12.8714V14.2948H65.9027C66.5864 14.2948 66.8167 14.0643 66.8167 13.6349V13.5234C66.8167 13.1019 66.5864 12.8714 65.9027 12.8714H65.1ZM65.9027 12.442C66.4749 12.442 66.6736 12.2352 66.6736 11.8297V11.7181C66.6736 11.3126 66.4749 11.0979 65.9027 11.0979H65.1V12.442H65.9027ZM64.4239 11.1058L63.86 11.0185C63.86 11.0185 63.8279 10.9626 63.8279 10.8832C63.8279 10.8038 63.86 10.7479 63.86 10.7479C63.86 10.7479 64.7024 10.6765 65.9027 10.6765C66.9515 10.6765 67.3573 11.0582 67.3573 11.7181V11.8297C67.3573 12.2114 67.1903 12.4896 66.8085 12.6408C67.2855 12.7757 67.5003 13.0861 67.5003 13.5234V13.6349C67.5003 14.3266 67.0552 14.7163 65.9027 14.7163C64.6627 14.7163 63.86 14.6449 63.86 14.6449C63.86 14.6449 63.8279 14.5893 63.8279 14.5095C63.8279 14.4302 63.86 14.3746 63.86 14.3746L64.4239 14.2869V11.1058Z" fill="#003085"/>
<path d="M69.1863 13.4677C69.1863 14.0324 69.4248 14.3027 70.1245 14.3027C70.8236 14.3027 71.0703 14.0324 71.0703 13.4677V11.9248C71.0703 11.3601 70.8236 11.0898 70.1245 11.0898C69.4248 11.0898 69.1863 11.3601 69.1863 11.9248V13.4677ZM68.5027 11.9248C68.5027 11.1295 68.956 10.6684 70.1245 10.6684C71.3009 10.6684 71.7536 11.1295 71.7536 11.9248V13.4677C71.7536 14.263 71.3009 14.7245 70.1245 14.7245C68.956 14.7245 68.5027 14.263 68.5027 13.4677V11.9248Z" fill="#003085"/>
<path d="M77.8943 11.9235C77.8943 11.3588 77.7264 11.0882 77.1764 11.0882C76.3946 11.0882 76.0916 11.5497 76.0916 11.5497V13.4665C76.0916 14.0312 76.3467 14.3014 77.0806 14.3014C77.7028 14.3014 77.8943 14.0312 77.8943 13.4665V11.9235ZM75.4134 11.1045L74.847 11.0167C74.847 11.0167 74.8152 10.9612 74.8152 10.8814C74.8152 10.8021 74.847 10.7465 74.847 10.7465C74.847 10.7465 75.1264 10.691 75.6688 10.691C75.8922 10.691 76.0916 10.7306 76.0916 10.7306V11.1124C76.0916 11.1124 76.554 10.6667 77.3997 10.6667C78.2612 10.6667 78.58 11.1283 78.58 11.9235V13.4665C78.58 14.2617 78.2052 14.7229 77.2 14.7229C76.3867 14.7229 76.1155 14.4129 76.0916 14.357V15.8761L76.6576 15.9634C76.6576 15.9634 76.6897 16.0194 76.6897 16.0991C76.6897 16.1781 76.6576 16.2341 76.6576 16.2341C76.6576 16.2341 76.3467 16.2896 75.7485 16.2896C75.1585 16.2896 74.847 16.2341 74.847 16.2341C74.847 16.2341 74.8152 16.1781 74.8152 16.0991C74.8152 16.0194 74.847 15.9634 74.847 15.9634L75.4134 15.8761V11.1045Z" fill="#003085"/>
<path d="M81.1018 12.8541C80.4718 12.9255 80.2563 13.1485 80.2563 13.5303V13.6572C80.2563 14.0866 80.4157 14.3013 80.9024 14.3013C81.6921 14.3013 81.9951 13.8402 81.9951 13.8402V12.7509L81.1018 12.8541ZM80.1845 11.9477C80.1845 11.9477 80.1048 11.9711 79.993 11.9711C79.8815 11.9711 79.8018 11.9477 79.8018 11.9477C79.8018 11.9477 79.7378 11.558 79.7378 11.0012C79.7378 11.0012 80.2163 10.6671 81.1018 10.6671C82.2584 10.6671 82.6733 11.1044 82.6733 11.8758V14.2854L83.2396 14.3731C83.2396 14.3731 83.2715 14.4291 83.2715 14.5081C83.2715 14.5878 83.2396 14.6438 83.2396 14.6438C83.2396 14.6438 82.9606 14.6994 82.4178 14.6994C82.1866 14.6994 81.9951 14.6593 81.9951 14.6593V14.27C81.9951 14.27 81.5327 14.7228 80.6633 14.7228C79.8736 14.7228 79.5781 14.3335 79.5781 13.6414V13.514C79.5781 12.8941 79.969 12.5437 80.9899 12.4485L81.9951 12.337V11.8758C81.9951 11.3512 81.7796 11.0885 81.1018 11.0885C80.6469 11.0885 80.3839 11.2397 80.2802 11.2952L80.1845 11.9477Z" fill="#003085"/>
<path d="M84.3735 11.9235C84.3735 11.9235 84.2938 11.9474 84.1819 11.9474C84.0704 11.9474 83.9904 11.9235 83.9904 11.9235C83.9904 11.9235 83.9271 11.5418 83.9271 10.9771C83.9271 10.9771 84.3895 10.6667 85.2831 10.6667C86.3277 10.6667 86.7347 11.0489 86.7347 11.7088V11.812C86.7347 12.218 86.5753 12.5121 86.1841 12.6712C86.655 12.7982 86.8544 13.0926 86.8544 13.5141V13.6415C86.8544 14.3252 86.3916 14.7229 85.195 14.7229C84.3656 14.7229 83.9271 14.4447 83.9271 14.4447C83.9271 14.4447 83.8789 14.357 83.8789 14.23C83.8789 14.1026 83.9271 14.0232 83.9271 14.0153C83.9271 14.0232 84.4053 14.3014 85.1871 14.3014C85.9292 14.3014 86.1683 14.0629 86.1683 13.6415V13.5141C86.1683 13.1085 85.9371 12.878 85.2589 12.878H84.7644C84.7644 12.878 84.7247 12.7982 84.7247 12.6791C84.7247 12.5517 84.7644 12.472 84.7644 12.472H85.2589C85.841 12.472 86.0486 12.2494 86.0486 11.812V11.7088C86.0486 11.3029 85.8489 11.0882 85.2831 11.0882C84.828 11.0882 84.581 11.216 84.4692 11.2795L84.3735 11.9235Z" fill="#003085"/>
<path d="M88.7615 12.87V14.2935H89.5669C90.253 14.2935 90.4842 14.0629 90.4842 13.6336V13.522C90.4842 13.1006 90.253 12.87 89.5669 12.87H88.7615ZM89.5669 12.4407C90.1412 12.4407 90.3409 12.2339 90.3409 11.8279V11.7168C90.3409 11.3112 90.1412 11.0966 89.5669 11.0966H88.7615V12.4407H89.5669ZM88.0836 11.1045L87.5172 11.0168C87.5172 11.0168 87.4851 10.9612 87.4851 10.8819C87.4851 10.8021 87.5172 10.7465 87.5172 10.7465C87.5172 10.7465 88.3624 10.6751 89.5669 10.6751C90.62 10.6751 91.0269 11.0569 91.0269 11.7168V11.8279C91.0269 12.2101 90.859 12.4883 90.4763 12.6395C90.9551 12.7744 91.1706 13.0847 91.1706 13.522V13.6336C91.1706 14.3253 90.7236 14.7154 89.5669 14.7154C88.3227 14.7154 87.5172 14.6435 87.5172 14.6435C87.5172 14.6435 87.4851 14.588 87.4851 14.5082C87.4851 14.4288 87.5172 14.3729 87.5172 14.3729L88.0836 14.2856V11.1045Z" fill="#003085"/>
<path d="M92.3918 11.1044L91.8255 11.0166C91.8255 11.0166 91.7939 10.9611 91.7939 10.8817C91.7939 10.802 91.8255 10.7464 91.8255 10.7464C91.8255 10.7464 92.1127 10.6909 92.6949 10.6909C93.2612 10.6909 93.5406 10.7464 93.5406 10.7464C93.5406 10.7464 93.5721 10.802 93.5721 10.8817C93.5721 10.9611 93.5406 11.0166 93.5406 11.0166L93.0697 11.1044V13.5461L94.9685 11.1837V11.1044L94.4976 11.0166C94.4976 11.0166 94.4658 10.9611 94.4658 10.8817C94.4658 10.802 94.4976 10.7464 94.4976 10.7464C94.4976 10.7464 94.7767 10.6909 95.3512 10.6909C95.9255 10.6909 96.2124 10.7464 96.2124 10.7464C96.2124 10.7464 96.2445 10.802 96.2445 10.8817C96.2445 10.9611 96.2124 11.0166 96.2124 11.0166L95.6542 11.1044V14.2854L96.2206 14.3732C96.2206 14.3732 96.2445 14.4287 96.2445 14.5081C96.2445 14.5878 96.2206 14.6434 96.2206 14.6434C96.2206 14.6434 95.9333 14.6993 95.3512 14.6993C94.7848 14.6993 94.4976 14.6434 94.4976 14.6434C94.4976 14.6434 94.4736 14.5878 94.4736 14.5081C94.4736 14.4287 94.4976 14.3732 94.4976 14.3732L94.9685 14.2854V11.8441L93.0697 14.2061V14.2854L93.5406 14.3732C93.5406 14.3732 93.5721 14.4287 93.5721 14.5081C93.5721 14.5878 93.5406 14.6434 93.5406 14.6434C93.5406 14.6434 93.2612 14.6993 92.6949 14.6993C92.1127 14.6993 91.8255 14.6434 91.8255 14.6434C91.8255 14.6434 91.7939 14.5878 91.7939 14.5081C91.7939 14.4287 91.8255 14.3732 91.8255 14.3732L92.3918 14.2854V11.1044Z" fill="#003085"/>
<path d="M98.9103 11.1283V14.2856L99.4767 14.3729C99.4767 14.3729 99.5088 14.4289 99.5088 14.5082C99.5088 14.5876 99.4767 14.6436 99.4767 14.6436C99.4767 14.6436 99.1737 14.6991 98.5673 14.6991C97.9691 14.6991 97.6576 14.6436 97.6576 14.6436C97.6576 14.6436 97.634 14.5876 97.634 14.5082C97.634 14.4289 97.6576 14.3729 97.6576 14.3729L98.2246 14.2856V11.1283H97.2591L97.1394 11.7407C97.1394 11.7407 97.0755 11.7645 96.9879 11.7645C96.8922 11.7645 96.8203 11.7407 96.8203 11.7407C96.8203 11.7407 96.7725 11.5101 96.7725 10.9772C96.7725 10.818 96.8125 10.7069 96.8125 10.7069H100.306C100.306 10.7069 100.338 10.818 100.338 10.9772C100.338 11.5101 100.29 11.7407 100.29 11.7407C100.29 11.7407 100.226 11.7645 100.131 11.7645C100.035 11.7645 99.9712 11.7407 99.9712 11.7407L99.8594 11.1283H98.9103Z" fill="#003085"/>
<path d="M101.472 11.1044L100.905 11.0166C100.905 11.0166 100.874 10.9611 100.874 10.8817C100.874 10.802 100.905 10.7464 100.905 10.7464C100.905 10.7464 101.193 10.6909 101.775 10.6909C102.341 10.6909 102.62 10.7464 102.62 10.7464C102.62 10.7464 102.652 10.802 102.652 10.8817C102.652 10.9611 102.62 11.0166 102.62 11.0166L102.15 11.1044V13.5461L104.048 11.1837V11.1044L103.577 11.0166C103.577 11.0166 103.546 10.9611 103.546 10.8817C103.546 10.802 103.577 10.7464 103.577 10.7464C103.577 10.7464 103.857 10.6909 104.431 10.6909C105.005 10.6909 105.292 10.7464 105.292 10.7464C105.292 10.7464 105.324 10.802 105.324 10.8817C105.324 10.9611 105.292 11.0166 105.292 11.0166L104.734 11.1044V14.2854L105.3 14.3732C105.3 14.3732 105.324 14.4287 105.324 14.5081C105.324 14.5878 105.3 14.6434 105.3 14.6434C105.3 14.6434 105.013 14.6993 104.431 14.6993C103.864 14.6993 103.577 14.6434 103.577 14.6434C103.577 14.6434 103.554 14.5878 103.554 14.5081C103.554 14.4287 103.577 14.3732 103.577 14.3732L104.048 14.2854V11.8441L102.15 14.2061V14.2854L102.62 14.3732C102.62 14.3732 102.652 14.4287 102.652 14.5081C102.652 14.5878 102.62 14.6434 102.62 14.6434C102.62 14.6434 102.341 14.6993 101.775 14.6993C101.193 14.6993 100.905 14.6434 100.905 14.6434C100.905 14.6434 100.874 14.5878 100.874 14.5081C100.874 14.4287 100.905 14.3732 100.905 14.3732L101.472 14.2854V11.1044Z" fill="#003085"/>
<path d="M108.42 12.5759V11.1206H107.559C106.977 11.1206 106.777 11.327 106.777 11.7726V11.9238C106.777 12.3691 106.977 12.5759 107.559 12.5759H108.42ZM107.064 12.9576C106.362 12.854 106.092 12.5362 106.092 11.9159V11.8441C106.092 11.1123 106.45 10.6909 107.559 10.6909C109.314 10.6909 109.697 10.6992 109.697 10.8897C109.697 10.9694 109.665 11.025 109.665 11.025L109.099 11.1123V14.2854L109.665 14.3732C109.665 14.3732 109.697 14.4291 109.697 14.5081C109.697 14.5878 109.665 14.6438 109.665 14.6438C109.665 14.6438 109.369 14.6993 108.779 14.6993C108.197 14.6993 107.902 14.6438 107.902 14.6438C107.894 14.6359 107.87 14.5878 107.87 14.5081C107.87 14.4291 107.902 14.3732 107.902 14.3732L108.42 14.2854V12.9973H107.679L106.849 14.6593C106.849 14.6593 106.665 14.6993 106.498 14.6993C106.083 14.6993 105.812 14.6438 105.812 14.6438C105.804 14.6359 105.78 14.5878 105.78 14.5081C105.78 14.4291 105.812 14.3732 105.812 14.3732L106.379 14.2854L107.064 12.9576Z" fill="#003085"/>
<path d="M35.4867 19.0572L34.9203 18.9695C34.9203 18.9695 34.8882 18.9139 34.8882 18.8346C34.8882 18.7548 34.9203 18.6992 34.9203 18.6992C34.9203 18.6992 35.2076 18.6437 35.7818 18.6437C36.3482 18.6437 36.6433 18.6992 36.6433 18.6992C36.6433 18.6992 36.6676 18.7548 36.6676 18.8346C36.6676 18.9139 36.6433 18.9695 36.6433 18.9695L36.1649 19.0572V20.4409L36.723 20.2977L37.6567 19.0175L37.2418 18.9695C37.2418 18.9695 37.2097 18.9139 37.2097 18.8346C37.2097 18.7548 37.2418 18.6992 37.2418 18.6992C37.2418 18.6992 37.5527 18.6437 38.2309 18.6437C38.6376 18.6437 38.893 18.6992 38.893 18.6992C38.893 18.6992 38.9167 18.7548 38.9167 18.8346C38.9167 18.9139 38.893 18.9695 38.893 18.9695L38.3267 19.0572L37.2815 20.5207L38.43 22.2383L38.9885 22.3259C38.9885 22.3259 39.0124 22.3815 39.0124 22.4609C39.0124 22.5406 38.9885 22.5962 38.9885 22.5962C38.9885 22.5962 38.7094 22.6522 38.3182 22.6522C38.143 22.6522 37.9512 22.6121 37.9512 22.6121L36.7076 20.7513L36.1649 20.8862V22.2383L36.7309 22.3259C36.7309 22.3259 36.763 22.3815 36.763 22.4609C36.763 22.5406 36.7309 22.5962 36.7309 22.5962C36.7309 22.5962 36.4279 22.6522 35.8218 22.6522C35.2239 22.6522 34.9203 22.5962 34.9203 22.5962C34.9203 22.5962 34.8882 22.5406 34.8882 22.4609C34.8882 22.3815 34.9203 22.3259 34.9203 22.3259L35.4867 22.2383V19.0572Z" fill="#003085"/>
<path d="M40.7046 20.8228V22.2463H41.51C42.1961 22.2463 42.4273 22.0157 42.4273 21.5864V21.4749C42.4273 21.0534 42.1961 20.8228 41.51 20.8228H40.7046ZM41.51 20.3935C42.0843 20.3935 42.2837 20.1867 42.2837 19.7807V19.6696C42.2837 19.2641 42.0843 19.0494 41.51 19.0494H40.7046V20.3935H41.51ZM40.0264 19.0573L39.4603 18.9696C39.4603 18.9696 39.4282 18.9141 39.4282 18.8347C39.4282 18.7549 39.4603 18.6994 39.4603 18.6994C39.4603 18.6994 40.3055 18.6279 41.51 18.6279C42.5631 18.6279 42.97 19.0097 42.97 19.6696V19.7807C42.97 20.1629 42.8022 20.4411 42.4194 20.5923C42.8982 20.7272 43.1134 21.0375 43.1134 21.4749V21.5864C43.1134 22.2781 42.6664 22.6682 41.51 22.6682C40.2658 22.6682 39.4603 22.5963 39.4603 22.5963C39.4603 22.5963 39.4282 22.5408 39.4282 22.461C39.4282 22.3817 39.4603 22.3257 39.4603 22.3257L40.0264 22.2384V19.0573Z" fill="#003085"/>
<path d="M45.619 20.8069C44.989 20.8784 44.7736 21.1014 44.7736 21.4831V21.6101C44.7736 22.0395 44.9333 22.2542 45.4196 22.2542C46.2093 22.2542 46.5127 21.7931 46.5127 21.7931V20.7038L45.619 20.8069ZM44.7018 19.9005C44.7018 19.9005 44.6221 19.924 44.5105 19.924C44.3987 19.924 44.319 19.9005 44.319 19.9005C44.319 19.9005 44.2551 19.5108 44.2551 18.9541C44.2551 18.9541 44.7339 18.6199 45.619 18.6199C46.7757 18.6199 47.1906 19.0573 47.1906 19.8287V22.2383L47.7569 22.326C47.7569 22.326 47.789 22.382 47.789 22.461C47.789 22.5407 47.7569 22.5967 47.7569 22.5967C47.7569 22.5967 47.4778 22.6522 46.9351 22.6522C46.7039 22.6522 46.5127 22.6121 46.5127 22.6121V22.2229C46.5127 22.2229 46.0499 22.6757 45.1805 22.6757C44.3909 22.6757 44.0957 22.2864 44.0957 21.5943V21.4669C44.0957 20.847 44.4869 20.4966 45.5078 20.4014L46.5127 20.2898V19.8287C46.5127 19.3041 46.2972 19.0414 45.619 19.0414C45.1645 19.0414 44.9012 19.1926 44.7978 19.2481L44.7018 19.9005Z" fill="#003085"/>
<path d="M48.6355 18.9695C48.6355 18.9695 48.6036 18.9139 48.6036 18.8342C48.6036 18.7548 48.6355 18.6992 48.6355 18.6992C48.6355 18.6992 49.3933 18.6437 50.5021 18.6437C51.587 18.6437 52.3288 18.6992 52.3288 18.6992C52.3288 18.6992 52.3603 18.7548 52.3603 18.8342C52.3603 18.9139 52.3288 18.9695 52.3288 18.9695L51.7624 19.0572V22.2383L52.3288 22.3256C52.3288 22.3256 52.3603 22.3815 52.3603 22.4609C52.3603 22.5403 52.3288 22.5962 52.3288 22.5962C52.3288 22.5962 52.0258 22.6518 51.4191 22.6518C50.8212 22.6518 50.5182 22.5962 50.5182 22.5962C50.5182 22.5962 50.4861 22.5403 50.4861 22.4609C50.4861 22.3815 50.5182 22.3256 50.5182 22.3256L51.0845 22.2383V19.081H49.8239L49.5927 21.3791C49.5127 22.2065 49.2176 22.6756 48.2206 22.6756C48.2206 22.6756 48.1809 22.5883 48.1809 22.4609C48.1809 22.3335 48.2206 22.2541 48.2206 22.2541C48.7473 22.2541 48.8909 21.9676 48.9545 21.3791L49.2018 19.0572L48.6355 18.9695Z" fill="#003085"/>
<path d="M53.4302 19.0572L52.8639 18.9695C52.8639 18.9695 52.832 18.9139 52.832 18.8346C52.832 18.7548 52.8639 18.6992 52.8639 18.6992C52.8639 18.6992 53.1508 18.6437 53.7332 18.6437C54.2996 18.6437 54.5793 18.6992 54.5793 18.6992C54.5793 18.6992 54.6108 18.7548 54.6108 18.8346C54.6108 18.9139 54.5793 18.9695 54.5793 18.9695L54.1084 19.0572V21.499L56.0066 19.1366V19.0572L55.536 18.9695C55.536 18.9695 55.5042 18.9139 55.5042 18.8346C55.5042 18.7548 55.536 18.6992 55.536 18.6992C55.536 18.6992 55.8154 18.6437 56.3896 18.6437C56.9642 18.6437 57.2511 18.6992 57.2511 18.6992C57.2511 18.6992 57.2829 18.7548 57.2829 18.8346C57.2829 18.9139 57.2511 18.9695 57.2511 18.9695L56.6926 19.0572V22.2383L57.259 22.3259C57.259 22.3259 57.2829 22.3815 57.2829 22.4609C57.2829 22.5406 57.259 22.5962 57.259 22.5962C57.259 22.5962 56.972 22.6522 56.3896 22.6522C55.8229 22.6522 55.536 22.5962 55.536 22.5962C55.536 22.5962 55.512 22.5406 55.512 22.4609C55.512 22.3815 55.536 22.3259 55.536 22.3259L56.0066 22.2383V19.7969L54.1084 22.1589V22.2383L54.5793 22.3259C54.5793 22.3259 54.6108 22.3815 54.6108 22.4609C54.6108 22.5406 54.5793 22.5962 54.5793 22.5962C54.5793 22.5962 54.2996 22.6522 53.7332 22.6522C53.1508 22.6522 52.8639 22.5962 52.8639 22.5962C52.8639 22.5962 52.832 22.5406 52.832 22.4609C52.832 22.3815 52.8639 22.3259 52.8639 22.3259L53.4302 22.2383V19.0572Z" fill="#003085"/>
<path d="M60.5874 22.2543C61.5125 22.2543 61.8395 21.9598 61.8395 21.3399V19.9561C61.8395 19.3355 61.5125 19.0414 60.5874 19.0414V22.2543ZM59.9013 19.0414C58.9759 19.0414 58.6571 19.3355 58.6571 19.9561V21.3399C58.6571 21.9598 58.9759 22.2543 59.9013 22.2543V19.0414ZM59.9013 22.6757C58.5134 22.6757 57.9707 22.1828 57.9707 21.3399V19.9561C57.9707 19.1128 58.5134 18.6196 59.9013 18.6196V17.4667L59.3349 17.379C59.3349 17.379 59.311 17.3235 59.311 17.2441C59.311 17.1643 59.3349 17.1088 59.3349 17.1088C59.3349 17.1088 59.614 17.0532 60.164 17.0532C60.3877 17.0532 60.5874 17.0929 60.5874 17.0929V18.6196C61.9749 18.6196 62.5177 19.1128 62.5177 19.9561V21.3399C62.5177 22.1828 61.9749 22.6757 60.5874 22.6757V23.8293L61.1537 23.9162C61.1537 23.9162 61.1774 23.9722 61.1774 24.0519C61.1774 24.1309 61.1537 24.1869 61.1537 24.1869C61.1537 24.1869 60.8422 24.2424 60.2443 24.2424C59.6459 24.2424 59.3349 24.1869 59.3349 24.1869C59.3349 24.1869 59.311 24.1309 59.311 24.0519C59.311 23.9722 59.3349 23.9162 59.3349 23.9162L59.9013 23.8293V22.6757Z" fill="#003085"/>
<path d="M63.7627 19.0572L63.1963 18.9695C63.1963 18.9695 63.1648 18.9139 63.1648 18.8346C63.1648 18.7548 63.1963 18.6992 63.1963 18.6992C63.1963 18.6992 63.4836 18.6437 64.0657 18.6437C64.6321 18.6437 64.9118 18.6992 64.9118 18.6992C64.9118 18.6992 64.9436 18.7548 64.9436 18.8346C64.9436 18.9139 64.9118 18.9695 64.9118 18.9695L64.4409 19.0572V21.499L66.3393 19.1366V19.0572L65.8684 18.9695C65.8684 18.9695 65.8366 18.9139 65.8366 18.8346C65.8366 18.7548 65.8684 18.6992 65.8684 18.6992C65.8684 18.6992 66.1481 18.6437 66.7224 18.6437C67.2966 18.6437 67.5839 18.6992 67.5839 18.6992C67.5839 18.6992 67.6154 18.7548 67.6154 18.8346C67.6154 18.9139 67.5839 18.9695 67.5839 18.9695L67.0254 19.0572V22.2383L67.5918 22.3259C67.5918 22.3259 67.6154 22.3815 67.6154 22.4609C67.6154 22.5406 67.5918 22.5962 67.5918 22.5962C67.5918 22.5962 67.3045 22.6522 66.7224 22.6522C66.1557 22.6522 65.8684 22.5962 65.8684 22.5962C65.8684 22.5962 65.8445 22.5406 65.8445 22.4609C65.8445 22.3815 65.8684 22.3259 65.8684 22.3259L66.3393 22.2383V19.7969L64.4409 22.1589V22.2383L64.9118 22.3259C64.9118 22.3259 64.9436 22.3815 64.9436 22.4609C64.9436 22.5406 64.9118 22.5962 64.9118 22.5962C64.9118 22.5962 64.6321 22.6522 64.0657 22.6522C63.4836 22.6522 63.1963 22.5962 63.1963 22.5962C63.1963 22.5962 63.1648 22.5406 63.1648 22.4609C63.1648 22.3815 63.1963 22.3259 63.1963 22.3259L63.7627 22.2383V19.0572Z" fill="#003085"/>
<path d="M68.6939 19.0572L68.1275 18.9695C68.1275 18.9695 68.0957 18.9139 68.0957 18.8346C68.0957 18.7548 68.1275 18.6992 68.1275 18.6992C68.1275 18.6992 68.4145 18.6437 68.9887 18.6437C69.5551 18.6437 69.8502 18.6992 69.8502 18.6992C69.8502 18.6992 69.8745 18.7548 69.8745 18.8346C69.8745 18.9139 69.8502 18.9695 69.8502 18.9695L69.3721 19.0572V20.4409L69.9299 20.2977L70.8636 19.0175L70.4487 18.9695C70.4487 18.9695 70.4169 18.9139 70.4169 18.8346C70.4169 18.7548 70.4487 18.6992 70.4487 18.6992C70.4487 18.6992 70.7596 18.6437 71.4378 18.6437C71.8445 18.6437 72.0999 18.6992 72.0999 18.6992C72.0999 18.6992 72.1236 18.7548 72.1236 18.8346C72.1236 18.9139 72.0999 18.9695 72.0999 18.9695L71.5336 19.0572L70.4887 20.5207L71.6369 22.2383L72.1954 22.3259C72.1954 22.3259 72.2193 22.3815 72.2193 22.4609C72.2193 22.5406 72.1954 22.5962 72.1954 22.5962C72.1954 22.5962 71.9163 22.6522 71.5251 22.6522C71.3499 22.6522 71.1584 22.6121 71.1584 22.6121L69.9145 20.7513L69.3721 20.8862V22.2383L69.9378 22.3259C69.9378 22.3259 69.9699 22.3815 69.9699 22.4609C69.9699 22.5406 69.9378 22.5962 69.9378 22.5962C69.9378 22.5962 69.6348 22.6522 69.029 22.6522C68.4309 22.6522 68.1275 22.5962 68.1275 22.5962C68.1275 22.5962 68.0957 22.5406 68.0957 22.4609C68.0957 22.3815 68.1275 22.3259 68.1275 22.3259L68.6939 22.2383V19.0572Z" fill="#003085"/>
<path d="M74.3107 20.8069C73.681 20.8784 73.4655 21.1014 73.4655 21.4831V21.6101C73.4655 22.0395 73.6249 22.2542 74.1113 22.2542C74.901 22.2542 75.2043 21.7931 75.2043 21.7931V20.7038L74.3107 20.8069ZM73.3937 19.9005C73.3937 19.9005 73.3137 19.924 73.2022 19.924C73.0904 19.924 73.0107 19.9005 73.0107 19.9005C73.0107 19.9005 72.9467 19.5108 72.9467 18.9541C72.9467 18.9541 73.4255 18.6199 74.3107 18.6199C75.4674 18.6199 75.8822 19.0573 75.8822 19.8287V22.2383L76.4486 22.326C76.4486 22.326 76.4807 22.382 76.4807 22.461C76.4807 22.5407 76.4486 22.5967 76.4486 22.5967C76.4486 22.5967 76.1692 22.6522 75.6267 22.6522C75.3955 22.6522 75.2043 22.6121 75.2043 22.6121V22.2229C75.2043 22.2229 74.7413 22.6757 73.8719 22.6757C73.0825 22.6757 72.7874 22.2864 72.7874 21.5943V21.4669C72.7874 20.847 73.1783 20.4966 74.1992 20.4014L75.2043 20.2898V19.8287C75.2043 19.3041 74.9889 19.0414 74.3107 19.0414C73.8561 19.0414 73.5928 19.1926 73.4892 19.2481L73.3937 19.9005Z" fill="#003085"/>
<path d="M77.5504 19.0572L76.984 18.9695C76.984 18.9695 76.9519 18.9139 76.9519 18.8346C76.9519 18.7548 76.984 18.6992 76.984 18.6992C76.984 18.6992 77.2713 18.6437 77.8377 18.6437C78.4119 18.6437 78.6995 18.6992 78.6995 18.6992C78.6995 18.6992 78.7228 18.7548 78.7228 18.8346C78.7228 18.9139 78.6995 18.9695 78.6995 18.9695L78.2286 19.0572V22.2144H80.0631V19.0572L79.6007 18.9695C79.6007 18.9695 79.5689 18.9139 79.5689 18.8346C79.5689 18.7548 79.6007 18.6992 79.6007 18.6992C79.6007 18.6992 79.8877 18.6437 80.4537 18.6437C81.0283 18.6437 81.3155 18.6992 81.3155 18.6992C81.3155 18.6992 81.3474 18.7548 81.3474 18.8346C81.3474 18.9139 81.3155 18.9695 81.3155 18.9695L80.7492 19.0572V22.2144H81.3313C81.3313 22.2144 81.3713 22.3656 81.3713 22.5803C81.3713 23.328 81.3155 23.6459 81.3155 23.6459C81.3155 23.6459 81.2437 23.6701 81.124 23.6701C81.0043 23.6701 80.9325 23.6459 80.9325 23.6459L80.8207 22.6359H79.1698C77.8534 22.6359 76.984 22.5883 76.984 22.5883C76.984 22.5883 76.9519 22.5327 76.9519 22.4533C76.9519 22.3736 76.984 22.3176 76.984 22.3176L77.5504 22.2307V19.0572Z" fill="#003085"/>
<path d="M82.4891 19.0572L81.9227 18.9695C81.9227 18.9695 81.8909 18.9139 81.8909 18.8346C81.8909 18.7548 81.9227 18.6992 81.9227 18.6992C81.9227 18.6992 82.21 18.6437 82.7921 18.6437C83.3584 18.6437 83.6381 18.6992 83.6381 18.6992C83.6381 18.6992 83.6697 18.7548 83.6697 18.8346C83.6697 18.9139 83.6381 18.9695 83.6381 18.9695L83.1672 19.0572V21.499L85.0654 19.1366V19.0572L84.5948 18.9695C84.5948 18.9695 84.563 18.9139 84.563 18.8346C84.563 18.7548 84.5948 18.6992 84.5948 18.6992C84.5948 18.6992 84.8742 18.6437 85.4485 18.6437C86.023 18.6437 86.31 18.6992 86.31 18.6992C86.31 18.6992 86.3418 18.7548 86.3418 18.8346C86.3418 18.9139 86.31 18.9695 86.31 18.9695L85.7515 19.0572V22.2383L86.3178 22.3259C86.3178 22.3259 86.3418 22.3815 86.3418 22.4609C86.3418 22.5406 86.3178 22.5962 86.3178 22.5962C86.3178 22.5962 86.0309 22.6522 85.4485 22.6522C84.8818 22.6522 84.5948 22.5962 84.5948 22.5962C84.5948 22.5962 84.5709 22.5406 84.5709 22.4609C84.5709 22.3815 84.5948 22.3259 84.5948 22.3259L85.0654 22.2383V19.7969L83.1672 22.1589V22.2383L83.6381 22.3259C83.6381 22.3259 83.6697 22.3815 83.6697 22.4609C83.6697 22.5406 83.6381 22.5962 83.6381 22.5962C83.6381 22.5962 83.3584 22.6522 82.7921 22.6522C82.21 22.6522 81.9227 22.5962 81.9227 22.5962C81.9227 22.5962 81.8909 22.5406 81.8909 22.4609C81.8909 22.3815 81.9227 22.3259 81.9227 22.3259L82.4891 22.2383V19.0572Z" fill="#003085"/>
<path d="M88.0024 17.1723V17.0925C88.0024 17.0925 88.1221 17.0532 88.2418 17.0532C88.3612 17.0532 88.4731 17.0925 88.4731 17.0925V17.1723C88.4731 17.5223 88.6167 17.6731 89.0634 17.6731C89.51 17.6731 89.6534 17.5223 89.6534 17.1723V17.0925C89.6534 17.0925 89.7652 17.0532 89.8846 17.0532C90.0046 17.0532 90.1243 17.0925 90.1243 17.0925V17.1723C90.1243 17.6973 89.877 17.9914 89.0634 17.9914C88.2497 17.9914 88.0024 17.6973 88.0024 17.1723ZM87.42 19.0573L86.8537 18.9696C86.8537 18.9696 86.8215 18.914 86.8215 18.8343C86.8215 18.7549 86.8537 18.6993 86.8537 18.6993C86.8537 18.6993 87.1409 18.6438 87.7231 18.6438C88.2894 18.6438 88.5688 18.6993 88.5688 18.6993C88.5688 18.6993 88.6009 18.7549 88.6009 18.8343C88.6009 18.914 88.5688 18.9696 88.5688 18.9696L88.0982 19.0573V21.4986L89.9964 19.1366V19.0573L89.5258 18.9696C89.5258 18.9696 89.494 18.914 89.494 18.8343C89.494 18.7549 89.5258 18.6993 89.5258 18.6993C89.5258 18.6993 89.8055 18.6438 90.3797 18.6438C90.9537 18.6438 91.2406 18.6993 91.2406 18.6993C91.2406 18.6993 91.2728 18.7549 91.2728 18.8343C91.2728 18.914 91.2406 18.9696 91.2406 18.9696L90.6827 19.0573V22.2384L91.2491 22.3257C91.2491 22.3257 91.2728 22.3816 91.2728 22.461C91.2728 22.5404 91.2491 22.5963 91.2491 22.5963C91.2491 22.5963 90.9618 22.6519 90.3797 22.6519C89.8127 22.6519 89.5258 22.5963 89.5258 22.5963C89.5258 22.5963 89.5018 22.5404 89.5018 22.461C89.5018 22.3816 89.5258 22.3257 89.5258 22.3257L89.9964 22.2384V19.7966L88.0982 22.159V22.2384L88.5688 22.3257C88.5688 22.3257 88.6009 22.3816 88.6009 22.461C88.6009 22.5404 88.5688 22.5963 88.5688 22.5963C88.5688 22.5963 88.2894 22.6519 87.7231 22.6519C87.1409 22.6519 86.8537 22.5963 86.8537 22.5963C86.8537 22.5963 86.8215 22.5404 86.8215 22.461C86.8215 22.3816 86.8537 22.3257 86.8537 22.3257L87.42 22.2384V19.0573Z" fill="#003085"/>
<path d="M24.1936 0H12.0964L18.1428 7.86461L24.1936 0Z" fill="#E1E1E1"/>
<path d="M18.1431 7.86461H30.2402L24.1938 0L18.1431 7.86461Z" fill="#CCCCCC"/>
<path d="M24.1936 15.7294H12.0964L18.1428 7.86475L24.1936 15.7294Z" fill="#0064E6"/>
<path d="M18.1431 7.86475H30.2402L24.1938 15.7294L18.1431 7.86475Z" fill="#B3B3B3"/>
<path d="M6.04614 7.86475H18.1429L12.0969 15.7294L6.04614 7.86475Z" fill="#008AFF"/>
<path d="M12.0967 15.7294H0L6.046 7.86475L12.0967 15.7294Z" fill="#FF4A63"/>
<path d="M6.04614 23.5937H18.1429L12.0969 15.7291L6.04614 23.5937Z" fill="#BA0000"/>
<path d="M12.0967 15.7291H0L6.046 23.5937L12.0967 15.7291Z" fill="#EB0000"/>
</g>
<defs>
<clipPath id="clip0_826_28878">
<rect width="110" height="24.2424" fill="white"/>
</clipPath>
</defs>
</svg>
