<svg width="110" height="24" viewBox="0 0 110 24" fill="none" xmlns="http://www.w3.org/2000/svg">
<path fill-rule="evenodd" clip-rule="evenodd" d="M79.7404 18.9513H83.2437C83.6763 18.9578 84.1084 18.9204 84.5323 18.8397C84.842 18.7734 85.1251 18.6266 85.3487 18.4164C85.5722 18.2062 85.7271 17.9413 85.7953 17.6525C85.9257 17.1297 85.9806 16.593 85.9586 16.0567V12.8273C85.9586 11.8442 85.8515 11.1651 85.6346 10.7757C85.5073 10.5577 85.3243 10.3722 85.1018 10.2356C84.8794 10.0989 84.6242 10.0153 84.3588 9.99205C83.7088 9.94113 83.0563 9.9229 82.4042 9.93743V6.97395H85.6831V4.77747H79.7404V18.9513ZM82.417 12.1149H82.5497C82.7793 12.1149 83.0753 12.1482 83.1774 12.3025C83.2003 12.3358 83.2769 12.4877 83.2769 13.0149V15.8644C83.3024 16.1058 83.2684 16.3495 83.1774 16.5768C83.0753 16.7287 82.7997 16.762 82.588 16.762H82.417V12.1149Z" fill="url(#paint0_linear_829_34501)"/>
<path fill-rule="evenodd" clip-rule="evenodd" d="M50.7593 18.9513H53.4283V14.062C54.0816 14.0753 54.7353 14.0507 55.3854 13.9884C55.6511 13.9651 55.9065 13.8812 56.129 13.7441C56.3516 13.607 56.5343 13.421 56.6612 13.2024C56.8755 12.813 56.9801 12.1624 56.9827 11.2173V7.6008C56.9999 7.10589 56.9597 6.6107 56.8627 6.12381C56.702 5.44706 56.3218 5.0315 55.7375 4.8914C55.3412 4.80576 54.9347 4.76745 54.528 4.77742H50.7593V18.9513ZM53.4283 6.97391H53.8671C54.1784 6.97391 54.2218 7.10214 54.2473 7.17338C54.2914 7.38366 54.306 7.59837 54.2907 7.81214V11.0439C54.3072 11.2602 54.2917 11.4775 54.2448 11.6898C54.2244 11.7421 54.181 11.8632 53.8671 11.8632H53.4283V6.97391Z" fill="url(#paint1_linear_829_34501)"/>
<path fill-rule="evenodd" clip-rule="evenodd" d="M35.8577 18.9512H39.6214C39.9724 18.9564 40.3226 18.9172 40.6624 18.8348C41.5759 18.5974 42.0377 17.6666 42.0377 16.078V13.2285C42.0742 12.6756 41.9195 12.1264 41.5963 11.6612C41.4095 11.4361 41.1622 11.2608 40.8793 11.1531C41.1203 11.0671 41.3369 10.9306 41.5121 10.7541C41.7673 10.4668 41.9025 10.0038 41.9025 9.3294V7.42973C41.9025 6.4514 41.7341 5.78889 41.3922 5.39471C40.9967 4.97204 40.3026 4.76782 39.2641 4.76782H35.8577V18.9512ZM38.4884 6.77909H38.8048C38.9809 6.77909 39.3509 6.77909 39.3509 7.52709V9.34839C39.3509 10.2032 38.9554 10.2032 38.787 10.2032H38.4884V6.77909ZM38.4884 12.2406H38.7053C39.0319 12.2406 39.407 12.3475 39.407 13.1691V16.0186C39.407 16.7761 39.0626 16.8734 38.7615 16.8734H38.4884V12.2406Z" fill="url(#paint2_linear_829_34501)"/>
<path fill-rule="evenodd" clip-rule="evenodd" d="M27.3278 16.7429V13.5586H24.6384V16.7026C24.6384 16.94 24.5899 16.9828 24.5899 16.9828C24.5772 16.9828 24.493 17.0374 24.1817 17.0374C24.0368 17.0508 23.8905 17.0312 23.7556 16.9804C23.7556 16.9804 23.702 16.9281 23.702 16.7026V7.02851C23.702 6.79105 23.7556 6.75069 23.7556 6.75069C23.8889 6.69437 24.0362 6.67302 24.1817 6.68895C24.4981 6.68895 24.5823 6.74119 24.5874 6.74594C24.5874 6.74594 24.6384 6.7958 24.6384 7.02851V9.8139H27.3278V6.98814C27.3356 6.64489 27.2936 6.30223 27.2028 5.96945C26.9298 5.09798 25.9117 4.65393 24.1817 4.65393H24.1306C23.0921 4.65393 22.37 4.79403 21.9235 5.06473C21.3341 5.42567 21.033 6.08818 21.033 7.03089V16.7026C21.033 17.6524 21.3341 18.3054 21.9235 18.6663C22.3777 18.9442 23.1151 19.0771 24.1817 19.0771C25.9117 19.0771 26.9298 18.6355 27.2028 17.7592C27.2937 17.4273 27.3358 17.0854 27.3278 16.7429Z" fill="url(#paint3_linear_829_34501)"/>
<path fill-rule="evenodd" clip-rule="evenodd" d="M28.9913 18.9513H34.4058V16.7549H31.6807V12.2598H34.2706V10.0609H31.6807V6.97395H34.4058V4.77747H28.9913V18.9513Z" fill="url(#paint4_linear_829_34501)"/>
<path fill-rule="evenodd" clip-rule="evenodd" d="M43.801 18.9513H49.2104V16.7549H46.4879V12.2598H49.0778V10.0609H46.4879V6.97395H49.2104V4.77747H43.801V18.9513Z" fill="url(#paint5_linear_829_34501)"/>
<path fill-rule="evenodd" clip-rule="evenodd" d="M58.5468 18.9513H61.2362V6.97395H63.5174V4.77747H58.5468V18.9513Z" fill="url(#paint6_linear_829_34501)"/>
<path fill-rule="evenodd" clip-rule="evenodd" d="M63.5352 18.9513H65.9797L66.3726 15.5367H67.6969L68.0209 18.9632H70.7384L68.9982 4.78931H65.2856L63.5352 18.9513ZM67.1687 7.00479L67.7632 13.7391H66.5053L67.1687 7.00479Z" fill="url(#paint7_linear_829_34501)"/>
<path fill-rule="evenodd" clip-rule="evenodd" d="M86.8646 18.9513H89.3065L89.6943 15.5367H91.0186L91.3477 18.9513H94.0652L92.325 4.77747H88.6073L86.8646 18.9513ZM90.4981 7.00482L91.0926 13.7391H89.8346L90.4981 7.00482Z" fill="url(#paint8_linear_829_34501)"/>
<path fill-rule="evenodd" clip-rule="evenodd" d="M78.0793 16.7026V13.2215C78.0793 12.2479 77.722 11.5593 77.0127 11.1651C77.7144 10.8208 78.0793 10.1963 78.0793 9.32954V7.02857C78.0793 6.06211 77.7858 5.39486 77.2066 5.04342C76.7754 4.78459 76.0533 4.65636 75.0046 4.65161H74.951C73.1649 4.65161 72.1442 5.09566 71.9095 5.97425C71.8211 6.31948 71.7799 6.67373 71.787 7.02857V8.88787H74.456V7.24228C74.4342 7.07923 74.4653 6.91384 74.5453 6.76736C74.5453 6.76736 74.6193 6.68425 74.951 6.68425C75.1806 6.68425 75.3899 6.75312 75.3899 7.23753V9.32479C75.3899 10.0562 75.0837 10.0562 74.951 10.0562H73.4558V12.1933H74.951C75.0837 12.1933 75.3899 12.1933 75.3899 12.9437V16.4865C75.3899 16.9614 75.1806 17.0374 74.951 17.0374C74.7316 17.0374 74.5785 17.0018 74.5249 16.9282C74.5249 16.9282 74.456 16.8332 74.456 16.4865V13.5587H71.7819V16.7026C71.7751 17.0574 71.8163 17.4117 71.9044 17.7569C72.1595 18.6332 73.1802 19.0772 74.9459 19.0772C76.0507 19.0772 76.7958 18.949 77.2194 18.6854C77.7884 18.3482 78.0793 17.6738 78.0793 16.7026Z" fill="url(#paint9_linear_829_34501)"/>
<path fill-rule="evenodd" clip-rule="evenodd" d="M95.2185 18.9513H97.9053V12.2954H98.7091V18.9513H101.396V4.77747H98.7091V9.98967H97.9053V4.77747H95.2185V18.9513Z" fill="url(#paint10_linear_829_34501)"/>
<path fill-rule="evenodd" clip-rule="evenodd" d="M103.292 18.9513H105.923V13.8389L107.175 18.9513H110L107.852 11.4382L109.931 4.77747H107.28L105.923 9.30579V4.77747H103.292V18.9513Z" fill="url(#paint11_linear_829_34501)"/>
<path fill-rule="evenodd" clip-rule="evenodd" d="M6.37903 0.101807C5.94526 0.576723 3.67687 3.57107 1.67641 8.23712C1.15078 9.63813 0.191371 12.699 0.0306193 15.6553C0.0153097 15.9688 0.00510322 16.2822 0 16.6052V17.3175C0.0284931 19.507 0.292628 21.6882 0.788448 23.8286C0.788448 22.6413 0.819067 18.6663 1.83971 15.3941C2.86036 12.1219 4.79958 8.34161 6.37393 6.41582C8.08095 8.42947 10.2218 12.8034 10.9668 15.4107C11.7323 18.037 12.1176 21.3781 11.9517 23.7574C12.411 22.3754 12.7734 20.0673 12.8397 17.8779C12.8904 14.5643 12.3116 11.2684 11.1301 8.14214C9.66295 4.2692 6.81025 0.576723 6.37903 0.101807Z" fill="url(#paint12_linear_829_34501)"/>
<path fill-rule="evenodd" clip-rule="evenodd" d="M3.3604 14.4326C2.78316 15.8695 2.42501 17.3745 2.29638 18.9039C2.22264 20.5585 2.38741 22.2149 2.78629 23.8288C2.78629 23.1164 2.80415 20.7181 3.46502 18.7448C4.12078 16.7739 5.37618 14.4967 6.39427 13.3355C7.49657 14.5489 8.87699 17.1847 9.36435 18.7567C9.85991 20.3915 10.0752 22.0888 10.0022 23.786C10.3563 22.6329 10.5493 21.4422 10.5764 20.2432C10.6081 18.2385 10.2333 16.2462 9.47151 14.3708C8.69981 12.6283 7.6635 10.9977 6.39427 9.52905C6.1238 9.814 4.65407 11.6163 3.3604 14.4326Z" fill="url(#paint13_linear_829_34501)"/>
<defs>
<linearGradient id="paint0_linear_829_34501" x1="2285.98" y1="1129.96" x2="2285.98" y2="283.875" gradientUnits="userSpaceOnUse">
<stop stop-color="#0072BA"/>
<stop offset="1" stop-color="#1B93D2"/>
</linearGradient>
<linearGradient id="paint1_linear_829_34501" x1="1365.46" y1="1130.02" x2="1365.46" y2="283.89" gradientUnits="userSpaceOnUse">
<stop stop-color="#0072BA"/>
<stop offset="1" stop-color="#1B93D2"/>
</linearGradient>
<linearGradient id="paint2_linear_829_34501" x1="979.975" y1="1130.68" x2="979.975" y2="284.048" gradientUnits="userSpaceOnUse">
<stop stop-color="#0072BA"/>
<stop offset="1" stop-color="#1B93D2"/>
</linearGradient>
<linearGradient id="paint3_linear_829_34501" x1="617.684" y1="1157.21" x2="617.684" y2="281.003" gradientUnits="userSpaceOnUse">
<stop stop-color="#0072BA"/>
<stop offset="1" stop-color="#1B93D2"/>
</linearGradient>
<linearGradient id="paint4_linear_829_34501" x1="701.637" y1="1129.9" x2="701.637" y2="283.861" gradientUnits="userSpaceOnUse">
<stop stop-color="#0072BA"/>
<stop offset="1" stop-color="#1B93D2"/>
</linearGradient>
<linearGradient id="paint5_linear_829_34501" x1="1029.72" y1="1129.9" x2="1029.72" y2="283.861" gradientUnits="userSpaceOnUse">
<stop stop-color="#0072BA"/>
<stop offset="1" stop-color="#1B93D2"/>
</linearGradient>
<linearGradient id="paint6_linear_829_34501" x1="1247.45" y1="1129.9" x2="1247.45" y2="283.861" gradientUnits="userSpaceOnUse">
<stop stop-color="#0072BA"/>
<stop offset="1" stop-color="#1B93D2"/>
</linearGradient>
<linearGradient id="paint7_linear_829_34501" x1="1958.91" y1="1129.91" x2="1958.91" y2="283.873" gradientUnits="userSpaceOnUse">
<stop stop-color="#0072BA"/>
<stop offset="1" stop-color="#1B93D2"/>
</linearGradient>
<linearGradient id="paint8_linear_829_34501" x1="2639.71" y1="1129.9" x2="2639.71" y2="283.861" gradientUnits="userSpaceOnUse">
<stop stop-color="#0072BA"/>
<stop offset="1" stop-color="#1B93D2"/>
</linearGradient>
<linearGradient id="paint9_linear_829_34501" x1="1921.21" y1="1157.4" x2="1921.21" y2="281.046" gradientUnits="userSpaceOnUse">
<stop stop-color="#0072BA"/>
<stop offset="1" stop-color="#1B93D2"/>
</linearGradient>
<linearGradient id="paint10_linear_829_34501" x1="2475.2" y1="1129.9" x2="2475.2" y2="283.861" gradientUnits="userSpaceOnUse">
<stop stop-color="#0072BA"/>
<stop offset="1" stop-color="#1B93D2"/>
</linearGradient>
<linearGradient id="paint11_linear_829_34501" x1="2907.05" y1="1129.9" x2="2907.05" y2="283.861" gradientUnits="userSpaceOnUse">
<stop stop-color="#0072BA"/>
<stop offset="1" stop-color="#1B93D2"/>
</linearGradient>
<linearGradient id="paint12_linear_829_34501" x1="323.638" y1="2370.89" x2="323.638" y2="0.101807" gradientUnits="userSpaceOnUse">
<stop stop-color="#0072BA"/>
<stop offset="1" stop-color="#1B93D2"/>
</linearGradient>
<linearGradient id="paint13_linear_829_34501" x1="211.33" y1="1438.36" x2="211.33" y2="577.086" gradientUnits="userSpaceOnUse">
<stop stop-color="#0072BA"/>
<stop offset="1" stop-color="#1B93D2"/>
</linearGradient>
</defs>
</svg>
