<svg width="110" height="46" viewBox="0 0 110 46" fill="none" xmlns="http://www.w3.org/2000/svg">
<g clip-path="url(#clip0_826_33102)">
<path d="M91.7238 30.9131C89.6931 30.9423 88.612 29.6494 88.612 27.3557C88.612 25.0621 88.612 27.0562 88.6266 26.9101H96.6033C96.764 26.3039 96.8662 25.6464 96.8662 25.0402C96.8662 22.2425 95.1496 20.1096 91.6434 20.1096C88.1372 20.1096 84.8721 23.645 84.8721 27.3557C84.8721 31.0665 87.1949 33.0752 91.0664 33.0752C94.9378 33.0752 94.4703 32.4982 95.6537 31.5997L94.9159 29.7516C93.9955 30.4602 92.8633 30.8838 91.7238 30.9131ZM91.6946 22.1037C92.8779 22.1037 93.4842 22.8707 93.4842 24.5581C93.4842 26.2454 93.4769 24.8868 93.455 25.0621H88.9042C89.4009 23.2871 90.4528 22.111 91.6873 22.111L91.6946 22.1037Z" fill="#0000C9"/>
<path d="M60.1458 19.3134C60.1458 16.4135 57.8814 14.3024 54.4482 14.3024H47.8083L42.7974 32.7539H46.9902L48.8383 25.9533H52.476C56.6396 25.9533 60.1458 23.2652 60.1458 19.3134ZM50.8616 23.7911H49.4226L51.4095 16.4646H52.9215C54.828 16.4646 55.9018 17.7575 55.9018 19.4668C55.9018 22.206 53.7543 23.7911 50.8689 23.7911H50.8616Z" fill="#0000C9"/>
<path d="M65.6023 20.4456L66.0698 18.729C66.3035 17.8305 66.7053 16.3039 67.2531 14.5362C67.8302 12.7173 68.8894 11.5851 70.3138 11.5851C71.7382 11.5851 71.4241 11.8992 71.4241 12.4251C71.3948 13.0022 70.92 13.3455 70.92 14.2732C70.92 15.2009 71.8404 16.1943 73.0311 16.1943C74.2217 16.1943 75.6899 15.011 75.6899 13.5573C75.6899 11.3148 73.7688 9.83929 70.8397 9.83929C66.5446 9.83929 63.725 12.5785 61.9573 18.9847L54.7842 45.0548H58.8455L65.0398 22.4616H69.2619L66.4862 32.7392H70.5475L73.8711 20.431H65.595L65.6023 20.4456Z" fill="#0000C9"/>
<path d="M86.1651 20.4456H75.4054L74.8795 22.4762H80.0877L72.0088 32.7538H83.3967L83.9226 30.7231H78.0643L86.1651 20.4456Z" fill="#0000C9"/>
<path d="M107.465 20.2337C106.011 20.2337 104.463 21.176 103.25 23.1264L103.959 20.4456H99.8973L96.5737 32.7538H100.635L102.14 27.2169C102.746 24.9525 104.222 22.7319 105.2 22.7319C106.179 22.7319 105.858 24.7115 107.677 24.7115C109.496 24.7115 109.788 23.4989 109.788 22.3886C109.788 21.2783 108.758 20.2264 107.465 20.2264V20.2337Z" fill="#0000C9"/>
<path d="M4.93022 21.0811C8.03467 19.9343 13.3232 19.6421 20.3356 20.4456L22.4028 12.6297C14.4116 11.534 6.0186 12.3448 4.06097 15.1571C3.19903 16.4208 2.96528 19.065 4.92291 21.0811H4.93022ZM35.741 19.8174C32.6366 20.9642 27.348 21.2564 20.3356 20.4529L18.2684 28.2688C26.2597 29.3645 34.6526 28.5537 36.6103 25.7414C37.4722 24.4777 37.706 21.8335 35.7483 19.8174H35.741ZM38.5022 22.5712L39.7659 17.8598C40.2261 16.1943 40.4525 15.3324 40.4525 14.6384C40.4525 8.60483 24.638 1.24179 9.57595 0.321411L7.45031 8.13734C22.9726 9.23303 38.8455 16.7641 38.4364 22.5712H38.4949H38.5022ZM2.16908 18.32L0.905383 23.0314C0.445193 24.6969 0.21875 25.5588 0.21875 26.2527C0.21875 32.2864 16.0332 39.6494 31.0953 40.5698L33.2209 32.7538C17.6914 31.6582 1.82576 24.1271 2.22752 18.32H2.16908Z" fill="#0000C9"/>
</g>
<defs>
<clipPath id="clip0_826_33102">
<rect width="110" height="45.3908" fill="white"/>
</clipPath>
</defs>
</svg>
