<svg width="65" height="65" viewBox="0 0 65 65" fill="none" xmlns="http://www.w3.org/2000/svg">
<path d="M10.1458 20.5412H0.580322V29.9848H10.1458V20.5412Z" fill="#FF3495"/>
<path d="M37.8044 46.2707H63.7904V55.7143H37.8044V46.2707ZM49.516 24.7186C52.4642 24.7186 54.8529 27.076 54.8529 29.987C54.8529 32.897 52.4642 35.2544 49.516 35.2544H37.8044V44.6979H49.516C55.8535 44.6979 61.2798 40.7724 63.4295 35.2544C64.069 33.6178 64.4184 31.8419 64.4184 29.987C64.4184 21.876 57.7338 15.2762 49.516 15.2762C41.2981 15.2762 34.6147 21.8748 34.6147 29.987H44.179C44.179 27.076 46.5678 24.7186 49.516 24.7186ZM21.3083 46.2707H36.2096V55.7143H26.6453C18.4158 55.7143 11.7417 49.1272 11.7417 41.0034V9.28571H21.3083V20.5446H32.4686V29.987H21.3083V46.2719V46.2707Z" fill="#1D1D1B"/>
</svg>
