<svg width="110" height="25" viewBox="0 0 110 25" fill="none" xmlns="http://www.w3.org/2000/svg">
<g clip-path="url(#clip0_826_28751)">
<path d="M76.6112 6.66437C74.9574 6.66437 74.0123 7.47825 74.0123 7.47825V8.93567C74.0123 8.93567 74.9857 8.12179 76.4978 8.12179C77.9154 8.12179 78.5864 8.86942 78.6148 9.86312C78.2745 9.53189 77.6697 9.12495 76.6774 9.12495C74.6739 9.12495 73.5398 10.5918 73.5398 12.4183C73.5398 14.2448 74.655 15.636 76.753 15.636C78.851 15.636 80.3253 14.2543 80.3253 11.33V11.1502C80.3159 8.12179 78.9739 6.66437 76.6112 6.66437ZM76.8759 14.2164C75.9024 14.2164 75.2598 13.5824 75.2598 12.3994C75.2598 11.3962 75.789 10.535 76.9326 10.535C77.991 10.535 78.5486 11.3489 78.5486 12.3142C78.5486 13.412 77.9438 14.2164 76.8759 14.2164Z" fill="#841E36"/>
<path d="M110 15.4656C109.669 14.9168 109.603 14.3016 109.603 12.2196V9.12493H107.893V9.68329C107.571 9.36152 106.966 8.98297 105.955 8.98297C104.018 8.98297 102.855 10.5161 102.855 12.4183C102.855 14.5003 104.188 15.636 105.795 15.636C106.948 15.636 107.656 14.983 107.968 14.595C108.034 14.983 108.138 15.2764 108.29 15.4562H110V15.4656ZM106.154 14.2543C105.18 14.2543 104.585 13.4972 104.585 12.3615C104.585 11.2259 105.152 10.3836 106.154 10.3741C107.307 10.3647 107.874 11.1502 107.874 12.2858C107.874 13.4688 107.193 14.2543 106.154 14.2543Z" fill="#841E36"/>
<path d="M41.1621 8.98297C39.0451 8.98297 37.8354 10.412 37.8354 12.3047C37.8354 14.1975 39.0168 15.636 41.1621 15.636C43.3073 15.636 44.4887 14.2164 44.4887 12.3047C44.4981 10.412 43.2884 8.98297 41.1621 8.98297ZM41.1621 14.2164C40.0941 14.207 39.5555 13.4025 39.5555 12.3047C39.5555 11.207 40.113 10.412 41.1621 10.4025C42.2111 10.412 42.7687 11.2259 42.7687 12.3047C42.7781 13.412 42.23 14.207 41.1621 14.2164Z" fill="#841E36"/>
<path d="M34.9624 13.9798H33.0629V7.22272H31.3334V13.9798H29.4338V7.22272H27.1562C27.5154 7.77162 27.7044 8.61389 27.7044 10.1281V15.4657H36.7013V7.22272H34.9624V13.9798Z" fill="#841E36"/>
<path d="M85.7119 11.595H83.1792V9.12494H81.1567C81.1567 9.12494 81.4686 9.83472 81.4686 12.0398V15.4657H83.1792V12.9767H85.7119V15.4657H87.4225V9.12494H85.7119V11.595Z" fill="#841E36"/>
<path d="M90.3995 12.9862V9.12494H88.689V15.4657H90.3995L92.9228 11.5855V15.4657H94.6334V9.12494H92.9228L90.3995 12.9862Z" fill="#841E36"/>
<path d="M51.397 9.12494H49.4975L47.3427 11.7653V9.12494H45.3203C45.3203 9.12494 45.6416 9.83472 45.6416 12.0114V15.4562H47.3522V12.6455L49.3179 15.4562H51.3403L48.9682 12.125L51.397 9.12494Z" fill="#841E36"/>
<path d="M72.4057 9.12493H70.6951V9.72114C70.3738 9.40884 69.769 8.98297 68.7577 8.98297C66.8204 8.98297 65.658 10.5161 65.658 12.4183C65.658 14.5003 66.9905 15.636 68.5971 15.636C69.7501 15.636 70.4589 14.983 70.7707 14.595C70.8369 14.983 70.9408 15.2764 71.092 15.4562H72.8026C72.4718 14.9073 72.4057 14.2921 72.4057 12.2101V9.12493ZM68.9468 14.2543C67.9733 14.2543 67.378 13.4972 67.378 12.3615C67.378 11.2259 67.945 10.3836 68.9468 10.3741C70.0997 10.3647 70.6668 11.1502 70.6668 12.2858C70.6762 13.4688 69.9863 14.2543 68.9468 14.2543Z" fill="#841E36"/>
<path d="M59.6378 13.1376C59.6378 13.8379 59.3732 14.1218 58.8912 14.1218C58.655 14.1218 58.4849 14.0461 58.4849 14.0461V15.4657C58.4849 15.4657 58.7967 15.6266 59.2976 15.6266C60.9326 15.6266 61.3011 14.33 61.3011 13.1565V10.4972H62.8132V15.4467H64.5238V9.10602H59.6473L59.6378 13.1376Z" fill="#841E36"/>
<path d="M102.487 14.0745H101.731V9.11548H100.02V14.0745H97.6102V9.11548H95.8997V15.4562H100.776C100.852 16.5351 101.107 16.9136 101.107 16.9136H102.817C102.817 16.9231 102.354 16.2133 102.487 14.0745Z" fill="#841E36"/>
<path d="M54.7141 8.98297C52.5971 8.98297 51.3875 10.412 51.3875 12.3047C51.3875 14.1975 52.5688 15.636 54.7141 15.636C56.8593 15.636 58.0407 14.2164 58.0407 12.3047C58.0407 10.3931 56.8404 8.98297 54.7141 8.98297ZM54.7141 14.2164C53.6461 14.207 53.1075 13.4025 53.1075 12.3047C53.1075 11.207 53.665 10.412 54.7141 10.4025C55.7631 10.412 56.3207 11.2259 56.3207 12.3047C56.3207 13.3836 55.7725 14.207 54.7141 14.2164Z" fill="#841E36"/>
<path d="M41.1526 23.0992V20.1843H41.5977V23.0992H41.1526ZM42.9463 23.0992L41.5032 21.6361L42.8811 20.1843H43.451L41.936 21.7544V21.4809L43.5521 23.0992H42.9463Z" fill="#841E36"/>
<path d="M45.1917 23.1588C44.9148 23.1588 44.6596 23.0925 44.4281 22.9591C44.1966 22.8266 44.0123 22.6439 43.8752 22.4121C43.7382 22.1802 43.6702 21.9238 43.6702 21.6417C43.6702 21.3597 43.7382 21.1032 43.8752 20.8714C44.0123 20.6395 44.1956 20.4569 44.4281 20.3244C44.6596 20.1919 44.9139 20.1247 45.1917 20.1247C45.4696 20.1247 45.7238 20.1909 45.9553 20.3244C46.1869 20.4578 46.3711 20.6395 46.5082 20.8714C46.6452 21.1032 46.7133 21.3607 46.7133 21.6417C46.7133 21.9228 46.6452 22.1802 46.5082 22.4121C46.3711 22.6439 46.1878 22.8266 45.9553 22.9591C45.7238 23.0925 45.4696 23.1588 45.1917 23.1588ZM45.1917 22.7424C45.3854 22.7424 45.5631 22.6941 45.7238 22.5966C45.8844 22.4992 46.012 22.3676 46.1065 22.201C46.202 22.0345 46.2492 21.848 46.2492 21.6417C46.2492 21.4354 46.202 21.249 46.1065 21.0824C46.0111 20.9159 45.8835 20.7843 45.7238 20.6868C45.5631 20.5894 45.3864 20.5411 45.1917 20.5411C44.997 20.5411 44.8203 20.5894 44.6596 20.6868C44.499 20.7843 44.3714 20.9159 44.2769 21.0824C44.1814 21.249 44.1342 21.4354 44.1342 21.6417C44.1342 21.848 44.1814 22.0345 44.2769 22.201C44.3723 22.3676 44.4999 22.4992 44.6596 22.5966C44.8203 22.6941 44.997 22.7424 45.1917 22.7424Z" fill="#841E36"/>
<path d="M48.7556 23.1285C48.4825 23.1285 48.2245 23.0641 47.9835 22.9354C47.7416 22.8067 47.5488 22.6278 47.4042 22.3998C47.2596 22.1717 47.1877 21.919 47.1877 21.6417C47.1877 21.3644 47.2596 21.1117 47.4042 20.8837C47.5488 20.6556 47.7416 20.4777 47.9835 20.348C48.2254 20.2193 48.4825 20.1549 48.7556 20.1549H48.8803V20.5714H48.7556C48.5496 20.5714 48.3625 20.6168 48.1942 20.7086C48.026 20.7994 47.8937 20.9272 47.7964 21.089C47.699 21.2518 47.6508 21.4363 47.6508 21.6417C47.6508 21.8471 47.699 22.0326 47.7964 22.1953C47.8937 22.3581 48.026 22.4849 48.1942 22.5758C48.3625 22.6666 48.5496 22.713 48.7556 22.713H48.8803V23.1294H48.7556V23.1285ZM48.7858 24.2887V18.8168H49.2196V24.2887H48.7858ZM49.1242 23.1285V22.7121H49.2489C49.4549 22.7121 49.6421 22.6666 49.8103 22.5748C49.9785 22.484 50.1108 22.3572 50.2082 22.1944C50.3055 22.0316 50.3537 21.8471 50.3537 21.6408C50.3537 21.4345 50.3055 21.2499 50.2082 21.0881C50.1108 20.9253 49.9785 20.7985 49.8103 20.7076C49.6421 20.6168 49.4549 20.5704 49.2489 20.5704H49.1242V20.154H49.2489C49.522 20.154 49.7791 20.2184 50.021 20.3471C50.263 20.4758 50.4558 20.6546 50.6004 20.8827C50.7449 21.1108 50.8168 21.3635 50.8168 21.6408C50.8168 21.9181 50.744 22.1717 50.6004 22.3988C50.4558 22.6269 50.263 22.8057 50.021 22.9345C49.7791 23.0632 49.522 23.1275 49.2489 23.1275H49.1242V23.1285Z" fill="#841E36"/>
<path d="M52.753 23.1588C52.4799 23.1588 52.2314 23.0925 52.0074 22.9591C51.7834 22.8266 51.6086 22.6449 51.4819 22.4149C51.3553 22.185 51.292 21.9275 51.292 21.6417C51.292 21.3559 51.3553 21.0985 51.4819 20.8685C51.6086 20.6386 51.7834 20.4569 52.0074 20.3244C52.2314 20.1919 52.4799 20.1247 52.753 20.1247C53.0262 20.1247 53.2974 20.1957 53.5308 20.3386C53.7643 20.4815 53.941 20.6793 54.0591 20.9338C54.1782 21.1875 54.2179 21.4733 54.1782 21.7903H51.6001V21.3862H53.923L53.7274 21.4988C53.7274 21.3124 53.6839 21.1458 53.597 20.9991C53.51 20.8525 53.3919 20.7398 53.2435 20.6603C53.0952 20.5809 52.9317 20.5411 52.753 20.5411C52.5508 20.5411 52.375 20.5865 52.2248 20.6783C52.0745 20.7692 51.9583 20.8988 51.877 21.0654C51.7957 21.232 51.7551 21.4241 51.7551 21.6427C51.7551 21.8613 51.7957 22.0534 51.877 22.22C51.9583 22.3865 52.0736 22.5152 52.2248 22.607C52.375 22.6979 52.5518 22.7443 52.753 22.7443C52.892 22.7443 53.0167 22.7253 53.1273 22.6875C53.2379 22.6496 53.3371 22.5938 53.424 22.5181C53.511 22.4424 53.5847 22.3496 53.6442 22.2389H54.1196C54.0005 22.5361 53.8247 22.7641 53.5913 22.9231C53.3579 23.0821 53.0781 23.1607 52.754 23.1607L52.753 23.1588Z" fill="#841E36"/>
<path d="M54.8445 23.0991V22.5219H55.3728V23.0991H54.8445Z" fill="#841E36"/>
<path d="M58.8006 23.1587C58.5908 23.1587 58.4008 23.1209 58.2307 23.0461C58.0606 22.9704 57.9245 22.8654 57.8234 22.731C57.7223 22.5966 57.6684 22.4414 57.6599 22.2673H58.105C58.1173 22.3628 58.1513 22.4461 58.209 22.5171C58.2666 22.5881 58.346 22.6439 58.4462 22.6837C58.5473 22.7234 58.6645 22.7433 58.7997 22.7433C58.9858 22.7433 59.1389 22.7016 59.2599 22.6184C59.3809 22.5351 59.4413 22.4177 59.4413 22.2673C59.4413 22.1281 59.3875 22.0165 59.2807 21.9313C59.1739 21.8461 59.0076 21.8035 58.7817 21.8035H58.449V21.3994H58.7874C58.966 21.3994 59.1059 21.3597 59.2089 21.2802C59.3119 21.2007 59.3629 21.0956 59.3629 20.965C59.3629 20.8344 59.3109 20.736 59.2089 20.6584C59.1059 20.5808 58.9688 20.542 58.7987 20.542C58.6125 20.542 58.4642 20.5837 58.3536 20.6669C58.243 20.7502 58.1797 20.8572 58.1636 20.9878H57.7185C57.7384 20.8212 57.7969 20.6726 57.8933 20.542C57.9907 20.4114 58.1173 20.3092 58.2733 20.2354C58.4292 20.1625 58.605 20.1256 58.7987 20.1256C58.9924 20.1256 59.1569 20.1606 59.3157 20.2297C59.4744 20.2988 59.5992 20.3953 59.6899 20.5184C59.7806 20.6414 59.8269 20.7824 59.8269 20.9404C59.8269 21.1108 59.7731 21.2565 59.6663 21.3777C59.5595 21.4988 59.4045 21.583 59.2032 21.6304V21.5414C59.413 21.5811 59.5822 21.6692 59.7107 21.8064C59.8392 21.9436 59.9035 22.1064 59.9035 22.2975C59.9035 22.4641 59.8553 22.6127 59.7579 22.7433C59.6606 22.8739 59.5283 22.9761 59.3601 23.0499C59.1919 23.1228 59.0047 23.1597 58.7987 23.1597L58.8006 23.1587Z" fill="#841E36"/>
<path d="M61.9012 23.1588C61.6357 23.1588 61.3881 23.0925 61.1584 22.9591C60.9288 22.8266 60.7464 22.6439 60.6122 22.4121C60.478 22.1802 60.4099 21.9238 60.4099 21.6417C60.4099 21.3597 60.477 21.1032 60.6122 20.8714C60.7464 20.6395 60.9288 20.4569 61.1584 20.3244C61.3881 20.1919 61.6357 20.1247 61.9012 20.1247C62.06 20.1247 62.2121 20.1502 62.3586 20.2023C62.5051 20.2543 62.6365 20.3253 62.7537 20.4162C62.8708 20.507 62.9663 20.6121 63.0419 20.7313L62.971 20.8326V20.1843H63.4161V23.0992H62.971V22.4509L63.0419 22.5522C62.9266 22.7348 62.7688 22.8815 62.5665 22.9922C62.3643 23.1029 62.1432 23.1588 61.9012 23.1588ZM61.9362 22.7424C62.1299 22.7424 62.3085 22.6941 62.4711 22.5966C62.6336 22.4992 62.7622 22.3676 62.8576 22.201C62.9531 22.0345 63.0003 21.848 63.0003 21.6417C63.0003 21.4354 62.9531 21.249 62.8576 21.0824C62.7622 20.9159 62.6336 20.7843 62.4711 20.6868C62.3085 20.5894 62.1309 20.5411 61.9362 20.5411C61.7415 20.5411 61.5638 20.5894 61.4013 20.6868C61.2387 20.7843 61.1102 20.9159 61.0147 21.0824C60.9193 21.249 60.872 21.4354 60.872 21.6417C60.872 21.848 60.9193 22.0345 61.0147 22.201C61.1102 22.3676 61.2387 22.4992 61.4013 22.5966C61.5638 22.6941 61.7415 22.7424 61.9362 22.7424Z" fill="#841E36"/>
<path d="M64.3064 23.0992V20.1843H65.4943C65.6966 20.1843 65.8705 20.2174 66.0169 20.2827C66.1634 20.348 66.275 20.4398 66.3524 20.5563C66.4299 20.6736 66.4687 20.807 66.4687 20.9575C66.4687 21.108 66.4167 21.2481 66.3146 21.3768C66.2116 21.5055 66.0831 21.5859 65.9281 21.6181V21.4988C66.0708 21.5187 66.1937 21.5641 66.2967 21.6361C66.3997 21.707 66.4791 21.7979 66.5339 21.9067C66.5897 22.0156 66.6171 22.1358 66.6171 22.2664C66.6171 22.5124 66.5244 22.7121 66.3383 22.8673C66.1521 23.0216 65.9007 23.0992 65.5841 23.0992H64.3073H64.3064ZM65.5832 22.6828C65.7618 22.6828 65.9007 22.643 66.0018 22.5635C66.103 22.484 66.153 22.3752 66.153 22.2361C66.153 22.097 66.1011 21.9824 65.999 21.9029C65.896 21.8235 65.7514 21.7837 65.5652 21.7837H64.5436V21.3796H65.4764C65.5917 21.3796 65.6881 21.3626 65.7675 21.3294C65.8468 21.2954 65.9064 21.249 65.9461 21.1894C65.9858 21.1298 66.0056 21.0626 66.0056 20.9869C66.0056 20.8761 65.9612 20.7834 65.8724 20.7105C65.7835 20.6376 65.6578 20.6007 65.4953 20.6007H64.7525V22.6828H65.5841H65.5832Z" fill="#841E36"/>
<path d="M67.8646 23.0992V20.6007H66.8552V20.1843H69.3199V20.6007H68.3106V23.0992H67.8655H67.8646Z" fill="#841E36"/>
<path d="M69.8247 24.2888V20.1843H70.2698V20.8326L70.1989 20.7313C70.3133 20.5487 70.4721 20.402 70.6743 20.2913C70.8766 20.1805 71.0977 20.1247 71.3396 20.1247C71.6052 20.1247 71.8528 20.1909 72.0825 20.3244C72.3121 20.4578 72.4945 20.6395 72.6287 20.8714C72.7629 21.1032 72.8309 21.3607 72.8309 21.6417C72.8309 21.9228 72.7638 22.1802 72.6287 22.4121C72.4945 22.6439 72.3121 22.8266 72.0825 22.9591C71.8528 23.0925 71.6052 23.1588 71.3396 23.1588C71.0977 23.1588 70.8766 23.1029 70.6743 22.9922C70.4721 22.8815 70.3142 22.7348 70.1989 22.5522L70.2698 22.4509V24.2888H69.8247ZM71.3103 22.7424C71.5041 22.7424 71.6817 22.6941 71.8424 22.5966C72.0031 22.4992 72.1307 22.3676 72.2252 22.201C72.3206 22.0345 72.3679 21.848 72.3679 21.6417C72.3679 21.4354 72.3206 21.249 72.2252 21.0824C72.1297 20.9159 72.0021 20.7843 71.8424 20.6868C71.6817 20.5894 71.505 20.5411 71.3103 20.5411C71.1157 20.5411 70.937 20.5894 70.7726 20.6868C70.6082 20.7843 70.4787 20.9159 70.3832 21.0824C70.2878 21.249 70.2405 21.4354 70.2405 21.6417C70.2405 21.848 70.2878 22.0345 70.3832 22.201C70.4787 22.3676 70.6082 22.4992 70.7726 22.5966C70.937 22.6941 71.1157 22.7424 71.3103 22.7424Z" fill="#841E36"/>
<path d="M74.7965 23.1588C74.5309 23.1588 74.2833 23.0925 74.0537 22.9591C73.824 22.8266 73.6416 22.6439 73.5074 22.4121C73.3732 22.1802 73.3052 21.9238 73.3052 21.6417C73.3052 21.3597 73.3723 21.1032 73.5074 20.8714C73.6416 20.6395 73.824 20.4569 74.0537 20.3244C74.2833 20.1919 74.5309 20.1247 74.7965 20.1247C74.9552 20.1247 75.1074 20.1502 75.2539 20.2023C75.4004 20.2543 75.5317 20.3253 75.6489 20.4162C75.7661 20.507 75.8616 20.6121 75.9372 20.7313L75.8663 20.8326V20.1843H76.3114V23.0992H75.8663V22.4509L75.9372 22.5522C75.8219 22.7348 75.664 22.8815 75.4618 22.9922C75.2596 23.1029 75.0384 23.1588 74.7965 23.1588ZM74.8324 22.7424C75.0261 22.7424 75.2047 22.6941 75.3673 22.5966C75.5298 22.4992 75.6584 22.3676 75.7538 22.201C75.8493 22.0345 75.8965 21.848 75.8965 21.6417C75.8965 21.4354 75.8493 21.249 75.7538 21.0824C75.6584 20.9159 75.5298 20.7843 75.3673 20.6868C75.2047 20.5894 75.0271 20.5411 74.8324 20.5411C74.6377 20.5411 74.46 20.5894 74.2975 20.6868C74.1349 20.7843 74.0064 20.9159 73.9119 21.0824C73.8165 21.249 73.7692 21.4354 73.7692 21.6417C73.7692 21.848 73.8165 22.0345 73.9119 22.201C74.0074 22.3676 74.1359 22.4992 74.2975 22.5966C74.46 22.6941 74.6377 22.7424 74.8324 22.7424Z" fill="#841E36"/>
<path d="M77.2026 23.0992V20.1843H77.6478V23.0992H77.2026ZM78.9964 23.0992L77.5533 21.6361L78.9312 20.1843H79.501L77.9861 21.7544V21.4809L79.6021 23.0992H78.9964Z" fill="#841E36"/>
<path d="M80.0776 23.0992V20.1843H80.5228V22.5815L80.398 22.5342L82.2749 20.1843H82.6312V23.0992H82.1861V20.702L82.3108 20.7493L80.4339 23.0992H80.0776Z" fill="#841E36"/>
<path d="M83.5222 23.0991V22.5219H84.0505V23.0991H83.5222Z" fill="#841E36"/>
<path d="M87.8592 23.1588C87.5861 23.1588 87.3376 23.0925 87.1136 22.9591C86.8896 22.8266 86.7148 22.6449 86.5882 22.4149C86.4615 22.185 86.3982 21.9275 86.3982 21.6417C86.3982 21.3559 86.4615 21.0985 86.5882 20.8685C86.7148 20.6386 86.8896 20.4569 87.1136 20.3244C87.3376 20.1919 87.5861 20.1247 87.8592 20.1247C88.1324 20.1247 88.4036 20.1957 88.637 20.3386C88.8705 20.4815 89.0472 20.6793 89.1653 20.9338C89.2844 21.1875 89.3241 21.4733 89.2844 21.7903H86.7063V21.3862H89.0292L88.8336 21.4988C88.8336 21.3124 88.7901 21.1458 88.7032 20.9991C88.6162 20.8525 88.4981 20.7398 88.3497 20.6603C88.2014 20.5809 88.0379 20.5411 87.8592 20.5411C87.657 20.5411 87.4812 20.5865 87.331 20.6783C87.1807 20.7692 87.0645 20.8988 86.9832 21.0654C86.9019 21.232 86.8613 21.4241 86.8613 21.6427C86.8613 21.8613 86.9019 22.0534 86.9832 22.22C87.0645 22.3865 87.1798 22.5152 87.331 22.607C87.4812 22.6979 87.658 22.7443 87.8592 22.7443C87.9982 22.7443 88.1229 22.7253 88.2335 22.6875C88.3441 22.6496 88.4433 22.5938 88.5302 22.5181C88.6172 22.4424 88.6909 22.3496 88.7504 22.2389H89.2258C89.1067 22.5361 88.9309 22.7641 88.6975 22.9231C88.4641 23.0821 88.1844 23.1607 87.8602 23.1607L87.8592 23.1588Z" fill="#841E36"/>
<path d="M89.4744 22.6828C89.6284 22.6828 89.7607 22.6194 89.8694 22.4925C89.9781 22.3657 90.0404 22.1916 90.0565 21.9692L90.2049 20.1843H92.1772V22.6828H92.6223V23.932H92.1772V23.0992H89.9204V23.932H89.4753V22.6828H89.4744ZM90.1454 22.7537L90.0263 22.6828H91.7312V20.6007H90.4128L90.633 20.3982L90.496 21.9682C90.4799 22.1708 90.443 22.3326 90.3863 22.4528C90.3287 22.5739 90.2484 22.6742 90.1454 22.7528V22.7537Z" fill="#841E36"/>
<path d="M94.4698 23.1588C94.2043 23.1588 93.9567 23.0925 93.727 22.9591C93.4974 22.8266 93.315 22.6439 93.1808 22.4121C93.0466 22.1802 92.9785 21.9238 92.9785 21.6417C92.9785 21.3597 93.0456 21.1032 93.1808 20.8714C93.315 20.6395 93.4974 20.4569 93.727 20.3244C93.9567 20.1919 94.2043 20.1247 94.4698 20.1247C94.6286 20.1247 94.7807 20.1502 94.9272 20.2023C95.0737 20.2543 95.2051 20.3253 95.3223 20.4162C95.4395 20.507 95.5349 20.6121 95.6105 20.7313L95.5396 20.8326V20.1843H95.9847V23.0992H95.5396V22.4509L95.6105 22.5522C95.4952 22.7348 95.3374 22.8815 95.1351 22.9922C94.9329 23.1029 94.7118 23.1588 94.4698 23.1588ZM94.5057 22.7424C94.6995 22.7424 94.8781 22.6941 95.0406 22.5966C95.2032 22.4992 95.3317 22.3676 95.4272 22.201C95.5226 22.0345 95.5699 21.848 95.5699 21.6417C95.5699 21.4354 95.5226 21.249 95.4272 21.0824C95.3317 20.9159 95.2032 20.7843 95.0406 20.6868C94.8781 20.5894 94.7004 20.5411 94.5057 20.5411C94.3111 20.5411 94.1334 20.5894 93.9708 20.6868C93.8083 20.7843 93.6798 20.9159 93.5852 21.0824C93.4898 21.249 93.4425 21.4354 93.4425 21.6417C93.4425 21.848 93.4898 22.0345 93.5852 22.201C93.6807 22.3676 93.8092 22.4992 93.9708 22.5966C94.1334 22.6941 94.3111 22.7424 94.5057 22.7424Z" fill="#841E36"/>
<path d="M11.3123 20.9433C6.03892 20.9433 1.77671 16.9969 1.77671 11.3471C1.77671 5.69719 6.03892 1.72241 11.3123 1.72241C16.5858 1.72241 20.848 5.66879 20.848 11.3471C20.848 17.0253 16.5669 20.9433 11.3123 20.9433ZM11.3123 0C5.08441 0 0 4.71295 0 11.3471C0 17.9812 5.07496 22.6752 11.3123 22.6752C17.5497 22.6752 22.6247 17.9622 22.6247 11.3471C22.6247 4.73188 17.5403 0 11.3123 0Z" fill="#841E36"/>
<path d="M8.66622 7.04102H6.92732C6.92732 7.04102 7.55105 8.33755 7.55105 9.52999C7.55105 11.1294 6.35083 12.7571 6.35083 14.3754C6.35083 15.1988 6.57765 15.7477 6.57765 15.7477H8.31655C8.31655 15.7477 8.08974 15.1988 8.08974 14.3754C8.08974 12.7571 9.28996 11.1388 9.28996 9.52999C9.29941 8.33755 8.66622 7.04102 8.66622 7.04102Z" fill="#841E36"/>
<path d="M15.5935 7.04102H13.8641C13.8641 7.04102 14.4878 8.33755 14.4878 9.52999C14.4878 11.1294 13.2876 12.7571 13.2876 14.3754C13.2876 15.1988 13.5144 15.7477 13.5144 15.7477H15.2533C15.2533 15.7477 15.0265 15.1988 15.0265 14.3754C15.0265 12.7571 16.2267 11.1388 16.2267 9.52999C16.2362 8.33755 15.5935 7.04102 15.5935 7.04102Z" fill="#841E36"/>
<path d="M12.1345 7.04102H10.3956C10.3956 7.04102 11.0193 8.33755 11.0193 9.52999C11.0193 11.1294 9.81909 12.7571 9.81909 14.3754C9.81909 15.1988 10.0459 15.7477 10.0459 15.7477H11.7848C11.7848 15.7477 11.558 15.1988 11.558 14.3754C11.558 12.7571 12.7582 11.1388 12.7582 9.52999C12.7677 8.33755 12.1345 7.04102 12.1345 7.04102Z" fill="#841E36"/>
</g>
<defs>
<clipPath id="clip0_826_28751">
<rect width="110" height="24.2887" fill="white"/>
</clipPath>
</defs>
</svg>
