<svg xmlns="http://www.w3.org/2000/svg" width="40" height="40" fill="none" viewBox="0 0 40 40"><g clip-path="url(#a)"><g fill="#3847b0" clip-path="url(#b)"><path d="M7.93 28.74a.8.8 0 0 0-.058-.209c-.195-.462-.795-.73-1.425-.635-.37.056-.7.223-.927.47-.213.233-.31.51-.274.779v.002q.015.108.057.206c.196.463.796.73 1.424.635.742-.111 1.28-.671 1.201-1.25z"/><path d="M9.583 29.781a.8.8 0 0 0-.057-.208c-.172-.404-.652-.66-1.192-.655-.037.663-.606 1.255-1.39 1.433.005.014.006.029.012.043.194.463.796.73 1.426.636.741-.112 1.28-.672 1.2-1.25zM10.43 28.235a.8.8 0 0 0-.057-.208c-.195-.463-.796-.73-1.426-.636-.37.056-.698.223-.926.471-.026.03-.045.06-.068.09.125.122.226.263.293.423.019.046.026.097.04.145.654-.018 1.254.274 1.536.754.41-.24.664-.633.608-1.04M27.39 13.433c-.625-.546-1.525-.534-2.041-.376.337-.413 1.125-.752 1.357-.793.177.065.683.584.683 1.167z"/><path d="M29.387 11.172c-.411-2.19-5.525-.739-8.1-1.668-.049.639.793 1.661 1.6 2.04-1.378 1.19-2.614 3.585-2.863 6.513-.25-2.928-1.484-5.324-2.861-6.513.805-.379 1.648-1.401 1.598-2.04-2.575.93-7.688-.52-8.1 1.668-.086.464.137 1.17.38 1.374.043-.147.27-.627.981-.736 3.602-.542 6.61 4.985 3.895 7.218-.042.034-.018.097.037.097h8.14c.055 0 .078-.063.037-.097-2.715-2.234.292-7.76 3.894-7.218.714.108.939.588.982.734.242-.203.466-.908.38-1.373zM30.262 6.146c-.065-.207 2.046-.211 2.046 1.104 0 .882-1.262 1.3-1.262 2.215 0 .426.46.74.601.74-.326-1.47 1.02-.701 1.383-.426-.722-1.976.903-1.964.744-2.87-.112-.633-1.524-.442-2.036-.763-.907-.568-1.98-2.78-2.687-.568 1.319 1.218.552 3.012-1.123 3.012 0 0-.01.263.006.285 1.997-.097 2.692-1.559 2.328-2.729M6.967 9.779c.363-.275 1.709-1.045 1.384.425.141 0 .602-.312.602-.739 0-.915-1.263-1.333-1.263-2.215 0-1.317 2.113-1.31 2.047-1.104-.365 1.17.332 2.63 2.328 2.729.014-.02.004-.285.004-.285-1.673 0-2.44-1.794-1.123-3.012-.707-2.212-1.78 0-2.687.568-.512.321-1.924.13-2.036.763-.16.906 1.465.894.743 2.87"/><path d="M12.637 13.433c.626-.546 1.526-.534 2.041-.376-.337-.413-1.126-.752-1.357-.793-.176.065-.684.584-.684 1.167zM20.973 1.182 20 0l-.974 1.182L20 2.426l.974-1.244M26.534 4.756l-.693-.84-.692.84.692.822zM14.85 4.756l-.692-.84-.692.84.692.822z"/><path d="M12.867 8.874h2.583c2.172 0 3.15-1.328 3.445-2.478h2.21c.295 1.15 1.27 2.478 3.444 2.478h2.583s.452-.61.565-.913c.408-1.087-.113-1.594-.874-1.594l-.983.887-.984-.887c-.76 0-1.282.507-.873 1.594.052.14.176.344.294.523-.917-.126-2.087-.75-2.344-2.088 0 0 .677-1.071.847-1.504.61-1.559-.169-2.196-1.31-2.196l-1.473 1.723-1.473-1.723c-1.14 0-1.92.637-1.31 2.196.17.433.848 1.505.848 1.505-.258 1.338-1.427 1.962-2.344 2.088.12-.179.244-.383.295-.522.407-1.088-.113-1.595-.874-1.595l-.984.887-.983-.887c-.76 0-1.281.507-.874 1.595.113.302.567.912.567.912zM39.576 16.846c-.498.251-3.424 1.615-7.171 1.11q.058-.266.098-.537c2.494-.296 4.522-.717 5.814-1.434 1.473-.815 2.116-2.763 1.373-4.213-.02-.036-.073-.043-.1-.012-.407.467-2.968 3.24-7.003 4.103a7 7 0 0 0-.057-.622c1.96-1.106 3.874-2.38 4.784-3.547 1.377-1.763 1.25-4.011-.06-5.157a.06.06 0 0 0-.05-.014.06.06 0 0 0-.043.027c-.415.682-4.296 6.926-8.557 9.622l-.157.096a.2.2 0 0 0-.031.326c.49.443.796 1.06.796 1.745 0 1.19-.923 2.18-2.14 2.395-.62.12-1.514.085-2.373-.197-.04-.012-.08.013-.08.052v3.771c0 .06.093.077.115.017.521-1.376 2.084-1.668 2.767-1.668.246 1.471.686 2.69 1.256 3.345.929 1.066 2.447 1.052 3.104.314a.05.05 0 0 0 .013-.045.05.05 0 0 0-.028-.038c-.387-.221-2.6-1.573-3.041-3.788q.263-.089.509-.208c.713 1.176 1.753 2.224 2.59 2.624 1.405.672 2.692.345 3.262-.637.021-.035-.005-.078-.046-.081-.869-.07-3.537-.83-4.673-2.685q.197-.178.375-.375c1.189.9 2.87 1.697 4.073 1.86 1.408.19 3.004-.257 3.043-1.887 0-.032-.03-.06-.064-.057-.5.03-3.814.173-6.176-1.176q.123-.232.23-.474s3.569.84 5.258.561c1.68-.276 2.665-1.523 2.474-3.073-.005-.038-.051-.061-.086-.043zM8.07 19.401q.106.24.23.474c-2.361 1.35-5.675 1.207-6.177 1.176a.06.06 0 0 0-.064.058c.039 1.63 1.634 2.077 3.042 1.887 1.204-.162 2.885-.96 4.073-1.86q.18.197.376.375c-1.137 1.855-3.804 2.616-4.674 2.685-.042.003-.066.047-.046.081.572.982 1.858 1.31 3.264.638.836-.4 1.875-1.449 2.589-2.625q.246.119.508.208c-.443 2.216-2.655 3.567-3.041 3.789a.05.05 0 0 0-.027.037.05.05 0 0 0 .012.045c.658.737 2.176.751 3.106-.313.571-.656 1.008-1.875 1.255-3.346.685 0 2.246.293 2.768 1.669.023.058.115.043.115-.019v-3.77c0-.04-.04-.065-.079-.053-.858.283-1.752.317-2.371.197-1.22-.214-2.142-1.205-2.142-2.395 0-.685.307-1.302.796-1.746a.2.2 0 0 0-.03-.326l-.16-.096C7.137 13.477 3.258 7.236 2.84 6.55a.064.064 0 0 0-.094-.013c-1.31 1.147-1.436 3.394-.059 5.156.912 1.165 2.825 2.44 4.784 3.547a8 8 0 0 0-.057.622c-4.032-.862-6.591-3.63-7.002-4.101-.027-.032-.083-.026-.101.01-.742 1.45-.099 3.397 1.373 4.212 1.292.715 3.32 1.136 5.814 1.434q.04.27.098.537C3.852 18.46.93 17.1.425 16.845c-.037-.02-.082.004-.087.043-.19 1.551.794 2.796 2.473 3.072 1.69.278 5.259-.561 5.259-.561zM21.692 24.48c.463-.17 1.19-.032 1.164.633-.006.151.207.151.222-.004.139-.997-.538-1.283-1.245-1.167-.088-.343-.16-.643-.242-.939-.066-.24-.09-.69.19-.69.15 0 .09.419.076.6-.012.158.045.253.174.258.08.004.18-.1.242-.167.406-.456.5-1.163.024-1.503-.398-.285-1.392-.072-1.665.334-.042-.153-.239-.406-.333-.516-.093-.108-.116-.182.01-.276.06-.046.242-.225.242-.41 0-.11-.085-.312-.356-.312-.214 0-.452.147-.452.476 0 .073.018.151.066.236a2.5 2.5 0 0 0-.692.033l2.609 7.126c.746-.366 1.294-.947 1.294-1.571 0-.531-.786-.356-1.168.059-.123-.674-.232-1.296-.351-1.915-.033-.171.054-.233.193-.285zM18.248 19.554c-.066-.167-.303-.088-.245.085l.549 1.517c-.47.11-1.224.45-1.224.902 0 .6 1.067.992 1.684.945a.4.4 0 0 0 .101.37c-.223 0-.646.104-.785.253-.327-.304-.84-.414-1.083-.229-.244.187-.252.501.004.858.177.247.244.49.045.776.744 0 .47-.963.76-.963-.037.186-.014.403.071.642.056.16.056.272-.04.426-.24.382-.614 1.26-.563 2.052-.244-.001-.368-.06-.282-.392.032-.123-.045-.212-.146-.06a1.3 1.3 0 0 0-.166.578c0 .707.845.848 1.168.7.933.898 2.766.659 3.38.357zm-.358 7.349c-.067-.363.442-1.012 1.086-1.639-.137.408-.052 1.111.217 1.353-.468 0-1.024.087-1.303.284zM6.522 32.615q.456.095.956.096c1.506 0 2.784-.69 3.211-1.64a6.8 6.8 0 0 1-.182-1.32q0-.005-.003-.01a3.5 3.5 0 0 0-.056-.461 1.9 1.9 0 0 1-.483.377c.004.023.014.044.018.067.11.796-.582 1.56-1.541 1.704a2 2 0 0 1-.308.023c-.694 0-1.319-.351-1.55-.902-.02-.046-.029-.095-.042-.144-.02 0-.04.005-.06.005-.282 0-.55-.06-.786-.166.084.575.219 1.134.441 1.647q.166.378.387.722zM11.685 33.346c-.31.865-1.332 1.522-2.58 1.62 1.228.706 2.483 1.06 3.166 1.024-.022-.208.294-1.104.567-1.373a6.1 6.1 0 0 1-1.153-1.271"/><path d="M33.322 29.258a.83.83 0 0 0-1.117.349.49.49 0 0 1-.527.25l.48-.914a.8.8 0 0 0 .72-.424.796.796 0 0 0-.339-1.075.8.8 0 0 0-1.08.336.79.79 0 0 0 .062.831l-.48.915a.49.49 0 0 1-.095-.574.823.823 0 0 0-.35-1.112l-2.64-1.374-.077.146a.82.82 0 0 0 .224 1.029.82.82 0 0 0 .28.889.82.82 0 0 0 .405.973l.466.242c-.015.003-.03.002-.044.006a.71.71 0 0 0-.452.362c-.202.383.097.781.538 1.223a1.6 1.6 0 0 0-.37.063l-.003-.006c-.781.109-2.913-.362-2.707-.675 2.336-3.272.55-5.22-1.598-5.111v2.197c0 .706-.619 1.278-1.38 1.278h-1.484c-1.063 0-1.756 1.064-1.756 1.064s-.693-1.064-1.756-1.064h-1.483c-.762 0-1.38-.573-1.38-1.278v-2.197c-2.147-.109-3.937 1.839-1.6 5.11.195.293-1.758.753-2.839.694-.562.985-1.902 1.68-3.463 1.68q-.33 0-.645-.04a7.5 7.5 0 0 0 1.674 1.538q.133.01.27.01c1.405 0 2.55-.763 2.619-1.72q-.048-.082-.095-.169c.896-.527 2.348-.89 3.577-.89.235 0 .344-.197.264-.391-.603-1.445.694-2.491 2.036-1.64.586.372 1.18 1.104 1.627 2.325-2.202.531-4.966 1.993-5.525 3.589-.215.615.496 1.456 1.36 1.624a.06.06 0 0 0 .07-.046c.452-2.382 3.026-4.158 4.365-4.46l.113.3c-1.458.688-2.873 2.136-3.277 3.858-.184.789.698 1.499 1.427 1.694.037.01.073-.016.075-.051.138-2.178 1.104-4.027 1.97-4.867q.036.246.053.494s-.886 2.458-.886 4.25c0 .834 1.246 1.418 1.43 1.499.23-.081 1.474-.665 1.474-1.498 0-1.793-.886-4.25-.886-4.25q.018-.25.053-.495c.865.84 1.832 2.69 1.97 4.867a.06.06 0 0 0 .074.052c.73-.195 1.612-.905 1.428-1.694-.405-1.722-1.819-3.17-3.277-3.857l.112-.3c1.34.301 3.913 2.077 4.364 4.46a.06.06 0 0 0 .026.037q.021.013.045.009c.863-.17 1.576-1.01 1.359-1.625-.558-1.596-3.323-3.058-5.526-3.589.449-1.22 1.043-1.953 1.629-2.324 1.342-.852 2.639.195 2.036 1.64-.08.193.03.39.264.39.977 0 2.1.229 2.97.588-.014.434.22.897.635 1.248l.007.012c-.366.071-.703.211-.926.517-.284.39-.323.976-.122 1.783l-.435 1.2a.16.16 0 0 0 .278.145l.743-1.042c.78-.296 1.241-.66 1.4-1.115.126-.357.049-.713-.1-1.053.729.206 1.453.005 1.739-.538.2-.381.135-.842-.12-1.25.607.106 1.1.12 1.302-.26a.71.71 0 0 0 .042-.576c-.005-.014-.015-.027-.02-.04l.467.243a.83.83 0 0 0 1.035-.223.83.83 0 0 0 .893-.278.83.83 0 0 0 .977-.404l.077-.146-2.64-1.375zm-5.29 6.043c-.01-.283.091-.66.2-.809.077-.106.223-.185.357-.239zm1.148-.315c-.061.174-.322.47-.563.625l.572-1.076c.03.137.035.33-.01.451m.896-3.622-.073-.07c-.254-.242-.851-.809-.78-.94a.2.2 0 0 1 .133-.103c.283-.083.801.107 1.157.28zm1.954.452c-.07.132-.878-.031-1.222-.101l-.096-.02.437-.831c.344.192.795.507.888.785a.2.2 0 0 1-.008.168z"/></g></g><defs><clipPath id="a"><path fill="#fff" d="M0 0h40v40H0z"/></clipPath><clipPath id="b"><path fill="#fff" d="M0 0h40v40H0z"/></clipPath></defs></svg>