<svg xmlns="http://www.w3.org/2000/svg" width="84" height="40" fill="none" viewBox="0 0 84 40"><g clip-path="url(#a)"><path fill="#55565b" d="M5.56 6.067q0 .46-.168.796a1.8 1.8 0 0 1-.434.566 2 2 0 0 1-.601.357 2.6 2.6 0 0 1-.68.157v.577H2.536v-.577h-.01a2.6 2.6 0 0 1-.878-.225 1.7 1.7 0 0 1-.587-.445 1.7 1.7 0 0 1-.328-.64 3 3 0 0 1-.1-.808v-2.36q0-.45.164-.796a1.82 1.82 0 0 1 1.047-.953 2 2 0 0 1 .692-.127v-.366h1.143l.01.366q.345.022.68.147t.601.362q.267.236.43.581.161.348.162.797zM2.535 2.513q-.381.053-.602.263-.223.21-.223.608v2.788a.78.78 0 0 0 .265.608q.115.105.265.163.147.057.295.069zm1.968.87q0-.397-.236-.618a.96.96 0 0 0-.59-.252l.012 4.498a1.2 1.2 0 0 0 .28-.085 1 1 0 0 0 .267-.167.8.8 0 0 0 .193-.251.74.74 0 0 0 .073-.336V3.384M11.186 6.654q0 .955-.432 1.441-.432.488-1.36.488t-1.351-.467q-.42-.466-.42-1.347V3.1q0-.428.099-.786a1.65 1.65 0 0 1 .31-.613 1.4 1.4 0 0 1 .554-.397q.343-.142.817-.142.506 0 .849.13.341.132.548.383.206.25.296.608.09.356.09.807zm-1.142-3.648a1.1 1.1 0 0 0-.132-.545q-.133-.24-.502-.241a.55.55 0 0 0-.524.31.9.9 0 0 0-.095.293 2 2 0 0 0-.027.3v3.67q0 .282.143.508.143.225.492.225t.497-.236.148-.572zM15.797 8.52V5.335h-1.313V8.52h-1.142V1.224h1.142v3.05h1.313v-3.05h1.142V8.52zM19.635 8.52v1.385h-.961V7.578l.433-.094q.295-.315.402-.73.107-.412.126-1.095l.128-4.434h3.299v6.27h.465v2.411h-.962V8.522h-2.93zm1.027-2.869q-.02.629-.085 1.084a2 2 0 0 1-.243.759h1.587V2.283h-1.175zM30.38 1.16q.456 0 .784.126.327.125.545.348.216.222.318.53.1.307.1.675l-1.112.283q0-.397-.151-.649-.152-.252-.488-.251a.57.57 0 0 0-.324.084.6.6 0 0 0-.194.215 1 1 0 0 0-.095.284 2 2 0 0 0-.026.289v3.708q0 .105.021.23a.6.6 0 0 0 .09.237.6.6 0 0 0 .188.184q.12.074.31.074.63 0 .64-.902.285.051.571.089.285.036.572.078-.021.829-.461 1.31-.439.484-1.295.484-.909 0-1.343-.457-.434-.456-.434-1.337v-3.64q0-.409.09-.77t.302-.634q.21-.273.555-.43.339-.157.838-.157M37.562 6.654q0 .955-.433 1.441-.432.488-1.36.488-.93 0-1.35-.467-.42-.466-.421-1.347V3.1q0-.428.1-.786.1-.356.31-.613.212-.257.554-.397.343-.142.817-.142.506 0 .85.13.342.132.547.383.206.25.295.608.09.356.09.807zM36.42 3.006a1.1 1.1 0 0 0-.133-.545q-.131-.24-.502-.241a.56.56 0 0 0-.523.31 1 1 0 0 0-.097.293 2 2 0 0 0-.025.3v3.67q0 .282.142.508.144.225.492.225.349 0 .497-.236t.148-.572zM40.216 8.52v1.385h-.963V7.578l.435-.094q.295-.315.402-.73a5.2 5.2 0 0 0 .126-1.095l.126-4.434h3.3v6.27h.465v2.411h-.962V8.522h-2.929zm1.026-2.869q-.022.629-.085 1.084a2 2 0 0 1-.243.759H42.5V2.283h-1.174zM45.959 8.52V1.225h3.268v1.059H47.1v1.992h1.85v1.08h-1.85v2.107h2.126V8.52zM53.69 3.949l-1.545 4.57h-1.1V1.224h1.111v4.624h.043l1.533-4.624h1.11V8.52h-1.12V3.949zM52.315-.433q.01.115.069.236.057.12.148.224.09.106.206.174a.5.5 0 0 0 .264.068q.16 0 .28-.068a.7.7 0 0 0 .207-.174q.085-.104.132-.224a.7.7 0 0 0 .047-.236h.836a2 2 0 0 1-.118.477q-.095.256-.28.472a1.6 1.6 0 0 1-.455.357q-.27.141-.65.141a1.55 1.55 0 0 1-.698-.141 1.4 1.4 0 0 1-.467-.357 1.4 1.4 0 0 1-.263-.472 1.8 1.8 0 0 1-.096-.477zM58.734 1.16q.456 0 .782.126.328.125.546.348.217.222.316.53.102.307.101.675l-1.11.283q0-.397-.152-.649-.153-.252-.487-.251a.57.57 0 0 0-.325.084.56.56 0 0 0-.194.215 1 1 0 0 0-.094.284 2 2 0 0 0-.026.289v3.708q0 .105.02.23a.6.6 0 0 0 .09.237.6.6 0 0 0 .188.184.6.6 0 0 0 .309.074q.629 0 .64-.902.285.051.572.089.285.036.57.078-.02.829-.46 1.31-.438.484-1.295.484-.909 0-1.342-.457-.435-.456-.434-1.337v-3.64q0-.409.09-.77t.3-.634.556-.43q.342-.157.84-.157M64.223 2.283V8.52h-1.142V2.283h-1.184v-1.06h3.51v1.06zM69.796 4.704q.487.158.667.597.18.44.18 1.006 0 1.142-.491 1.679-.493.534-1.508.533h-1.523V1.224h1.607q.974 0 1.414.508.439.51.439 1.473-.001.503-.174.881-.176.378-.61.566v.052m-.306-1.477q0-.504-.2-.724-.201-.22-.667-.22h-.359V4.17h.37q.444 0 .65-.241.206-.242.206-.702m.063 2.987q.001-.513-.19-.765-.191-.251-.667-.252h-.433v2.265h.454a.84.84 0 0 0 .439-.1.7.7 0 0 0 .254-.267q.09-.168.117-.398.026-.231.026-.483M75.38 3.949l-1.543 4.57h-1.1V1.224h1.111v4.624h.043l1.533-4.624h1.11V8.52h-1.12V3.949zM78.427 8.52l.412-2.318q.074-.368.233-.666.158-.3.444-.467c-.34-.14-.57-.351-.698-.634q-.19-.424-.19-1.021 0-1.08.523-1.634.523-.555 1.433-.555h1.681v7.297h-1.14V5.408h-.297a.78.78 0 0 0-.545.231q-.248.231-.354.818l-.35 2.065h-1.152zm2.252-6.237q-.517 0-.725.309-.205.31-.205.812 0 .534.26.739.258.205.66.205h.454V2.283zM4.074 14.594 2.16 20.263H.795v-9.048h1.377v5.732h.053l1.9-5.732h1.378v9.048h-1.39v-5.669zM12.428 20.263V16.31h-1.626v3.952H9.385v-9.048h1.417v3.783h1.626v-3.783h1.416v9.048zM20.808 20.263V16.31H19.18v3.952h-1.415v-9.048h1.415v3.783h1.628v-3.783h1.415v9.048zM30.486 17.949q0 1.182-.538 1.787-.534.605-1.686.604-1.15 0-1.673-.578-.524-.58-.523-1.67v-4.55q-.001-.533.125-.975.123-.442.386-.76.26-.319.686-.495.424-.176 1.013-.176.628-.001 1.053.163.425.162.68.474.255.313.366.754.112.442.112 1zm-1.417-4.524q0-.378-.164-.676-.164-.3-.623-.3a.69.69 0 0 0-.649.384q-.086.163-.117.364a2.3 2.3 0 0 0-.032.372v4.55q0 .35.176.63.178.279.61.279.434 0 .616-.293a1.3 1.3 0 0 0 .184-.709v-4.601zM37.672 15.53q.603.197.826.741.223.547.223 1.248 0 1.417-.61 2.08t-1.868.664h-1.889v-9.048h1.995q1.205 0 1.75.63t.545 1.827q0 .624-.217 1.092-.216.468-.753.702v.064zm-.38-1.833q0-.625-.248-.897-.25-.273-.827-.273h-.446v2.34h.458q.551 0 .808-.3.255-.298.255-.87m.078 3.705q0-.636-.236-.949t-.826-.312h-.538v2.808h.563q.343 0 .544-.124a.86.86 0 0 0 .316-.331q.111-.209.144-.494t.033-.598M45.843 20.263l-.355-1.885H43.81q-.092.468-.177.942-.085.475-.164.943h-1.443q.459-2.275.918-4.524.458-2.25.918-4.524h1.574l1.849 9.048zm-1.233-6.956q-.132.936-.275 1.865-.146.93-.316 1.893h1.245l-.59-3.758zM55.074 11.215v7.734h.59v3.028h-1.18v-1.716h-3.83v-9.048h1.417v7.735h1.586v-7.735h1.417zM62.313 14.594 60.4 20.263h-1.363v-9.048h1.377v5.732h.052l1.902-5.732h1.377v9.048h-1.39v-5.669zM67.284 20.263l.511-2.876q.092-.456.288-.826.198-.371.551-.58-.629-.26-.865-.785-.236-.526-.236-1.267 0-1.338.648-2.027.65-.687 1.778-.687h2.085v9.048h-1.416V16.4h-.367a.97.97 0 0 0-.675.287q-.31.285-.44 1.015l-.433 2.56zm2.793-7.736q-.642 0-.898.384-.256.382-.256 1.007 0 .663.321.916.322.252.82.253h.564v-2.56zM78.596 18.286l-.653-1.677-.562-1.586h-.066v5.239h-1.416v-9.048h1.377l.99 2.573.716 1.963h.065l.734-2.015.984-2.523h1.363v9.048h-1.416v-5.213h-.052l-.574 1.612-.64 1.625h-.85z"/><path fill="#ef2b2d" d="M8.937 23.01H.831C11.61 34.417 27.038 38.75 40.004 39.316a70 70 0 0 0 2.328.057c.54.006 1.08.008 1.61.001 8.413-.122 17.758-1.951 25.885-6.283 4.663-2.486 8.926-5.792 12.38-10.08v.001c-19.664 19.237-58.985 15.906-73.27-.002"/><path fill="#00a0dc" d="m82.206 23.01-.027.02q-.461.32-.865.588c-.157.103-.304.2-.45.292-.12.079-.244.152-.365.23a53 53 0 0 1-1.23.77q-.238.142-.478.28-.632.377-1.271.732c-.157.086-.314.167-.47.252-.434.235-.869.468-1.307.69-.154.077-.31.15-.464.228q-.666.332-1.337.644c-.153.071-.307.137-.461.206q-.679.309-1.363.6-.231.094-.463.187-.687.284-1.379.55-.236.088-.473.172c-.46.17-.923.34-1.387.499-.162.056-.325.106-.487.16-.461.152-.923.305-1.386.447-.17.052-.34.097-.51.148-.457.135-.916.27-1.374.395-.18.048-.361.09-.542.138-.45.117-.9.235-1.353.341-.193.046-.388.085-.582.13-.44.1-.88.2-1.32.289-.209.042-.418.077-.629.118-.425.082-.85.165-1.276.239-.235.04-.47.072-.704.11-.401.063-.802.13-1.203.185-.27.04-.54.067-.81.101-.366.047-.731.096-1.097.136-.337.037-.672.063-1.008.094-.298.028-.597.06-.895.084q-.952.075-1.898.12h-.003q-.555.027-1.106.043l-.02.002q-.544.016-1.086.023l-.036.001q-.533.006-1.063.005l-.06-.002a64 64 0 0 1-1.036-.014l-.077-.002a61 61 0 0 1-1.015-.031q-.046-.001-.094-.005a58 58 0 0 1-2.066-.12l-.14-.011q-.468-.036-.93-.08-.08-.007-.157-.015-.454-.044-.905-.093l-.18-.02a46 46 0 0 1-.876-.107l-.192-.026a54 54 0 0 1-.851-.118l-.215-.033q-.41-.063-.82-.13l-.235-.041q-.397-.066-.79-.14l-.25-.048q-.386-.073-.765-.15l-.272-.059a40 40 0 0 1-.73-.158l-.292-.068a43.48 43.48 0 0 1-1.68-.415q-.165-.044-.326-.09a40 40 0 0 1-.64-.177q-.17-.048-.34-.1-.31-.09-.615-.185-.173-.053-.345-.11a47 47 0 0 1-.951-.313q-.285-.096-.568-.196-.184-.066-.37-.135c-.18-.066-.36-.13-.54-.2q-.19-.072-.38-.148-.258-.1-.513-.201l-.388-.162a33 33 0 0 1-.49-.205l-.395-.175q-.234-.102-.465-.207l-.399-.187q-.223-.105-.444-.21-.203-.101-.405-.204-.212-.104-.42-.21l-.405-.215q-.202-.105-.402-.214-.203-.111-.402-.227-.192-.108-.384-.217-.204-.12-.403-.242-.183-.107-.364-.218-.199-.124-.395-.25-.177-.11-.35-.223-.203-.134-.402-.27l-.323-.217q-.204-.144-.405-.29-.15-.105-.298-.213-.199-.15-.395-.3-.144-.108-.286-.217-.2-.16-.397-.32c-.086-.071-.176-.141-.261-.212q-.208-.174-.41-.352l-.225-.193a27 27 0 0 1-.61-.56h-8.35c14.284 15.91 53.604 19.24 73.267.003"/><path fill="#fff" d="M50.574 30.466h-.663a44 44 0 0 1-.664-.007q-.181-.001-.363-.006a60 60 0 0 1-1.648-.058l-.365-.02a37 37 0 0 1-.619-.038q-.183-.011-.367-.025-.3-.023-.6-.048-.188-.016-.374-.033-.293-.028-.582-.057l-.373-.04a47 47 0 0 1-1.485-.186l-.385-.056-.524-.08-.385-.065q-.255-.042-.505-.088-.196-.035-.39-.073-.242-.045-.484-.094l-.392-.08-.466-.1-.396-.092-.442-.104-.402-.101q-.212-.054-.42-.109-.203-.055-.405-.112l-.4-.112-.404-.12-.384-.118q-.202-.063-.402-.13-.184-.06-.367-.121-.202-.07-.401-.14l-.349-.125q-.2-.074-.399-.15l-.332-.127-.395-.16q-.16-.064-.317-.13l-.39-.167-.302-.133-.387-.18-.284-.134q-.194-.094-.384-.19-.135-.068-.267-.134-.192-.101-.38-.203-.126-.068-.25-.135-.188-.105-.372-.212-.12-.067-.239-.137-.183-.11-.363-.222-.112-.067-.224-.137l-.354-.23q-.107-.07-.212-.14-.177-.12-.348-.244l-.194-.136q-.171-.125-.34-.254-.091-.067-.181-.136-.173-.136-.34-.272-.078-.064-.158-.127a20 20 0 0 1-.36-.311q-.059-.048-.114-.098a18 18 0 0 1-.45-.418h-8.55q.299.282.61.56.111.096.225.192.202.178.41.352c.085.071.175.14.261.212q.196.16.397.32.143.11.287.218.194.15.394.3c.098.071.2.141.298.213q.2.145.406.29l.322.216q.2.136.402.27.174.113.35.223.197.127.396.25.18.111.363.219.2.121.403.241.19.108.384.217.2.116.402.227l.403.214q.202.108.405.215.21.107.419.21.202.103.405.203.22.107.444.21.198.095.4.188.231.105.464.207.197.088.396.175.243.102.49.205l.387.162q.256.103.513.201l.381.149q.268.1.54.2l.37.134q.281.1.567.197l.357.121q.296.098.594.192l.345.11q.307.094.615.183.17.053.34.101.319.092.64.178l.326.09q.335.089.674.172l.305.078q.35.084.701.165l.291.067q.365.082.732.159l.271.057q.38.078.764.15.124.025.25.049.395.072.792.14l.234.041q.408.068.82.13.107.016.215.033.424.062.85.119l.194.025q.435.057.876.106l.18.022q.45.05.904.092.078.009.156.016.465.043.93.079l.142.01q.48.037.963.065l.112.008a72 72 0 0 0 1.085.053q.506.02 1.014.03.038.003.077.003.516.011 1.036.015h.06q.53.002 1.063-.004h.036a59 59 0 0 0 1.087-.024l.019-.001q.554-.017 1.107-.044h.002q.947-.045 1.898-.12c.298-.023.598-.056.896-.083.335-.031.67-.058 1.008-.094.365-.04.73-.09 1.096-.137.27-.034.54-.063.81-.1.4-.056.802-.122 1.203-.187.235-.037.47-.07.704-.11.426-.071.851-.156 1.277-.237q.313-.058.629-.119c.44-.09.88-.19 1.32-.29.193-.042.388-.082.582-.129.452-.106.901-.223 1.352-.34.18-.049.361-.09.542-.14.46-.123.917-.258 1.375-.394.17-.05.34-.096.51-.148a57 57 0 0 0 1.385-.448c.163-.054.326-.104.487-.16.465-.158.925-.327 1.387-.498q.237-.085.473-.172.692-.267 1.38-.55.23-.093.463-.187c.456-.192.91-.395 1.362-.6q.232-.1.46-.205.674-.314 1.338-.645c.155-.077.31-.15.464-.228q.657-.335 1.307-.69c.156-.085.314-.165.47-.252.426-.236.85-.483 1.271-.731q.24-.14.478-.28.62-.377 1.23-.771c.272-.174.547-.343.816-.522q.434-.29.865-.588l.011-.008.017-.011a94 94 0 0 1-4.714 1.98c-9.73 3.776-18.92 5.413-26.913 5.473"/><path fill="#cacac7" d="M82.34 22.918a.2.2 0 0 0-.045-.042.2.2 0 0 0-.049-.02.2.2 0 0 0-.106.01 94 94 0 0 1-4.705 1.976c-9.047 3.51-18.335 5.399-26.862 5.463q-.23.003-.458.002c-10.471 0-19.279-2.701-24.164-7.411a.17.17 0 0 0-.113-.046H.83a.16.16 0 0 0-.149.094.16.16 0 0 0 .029.173c5.017 5.308 11.351 9.434 18.827 12.258 6.272 2.372 13.346 3.789 20.459 4.098a68 68 0 0 0 3.946.059 62.4 62.4 0 0 0 13.086-1.568c4.663-1.073 8.994-2.666 12.875-4.736 4.97-2.65 9.152-6.053 12.426-10.118q.003 0 .003-.003l.002-.003a.2.2 0 0 0 .026-.059h.001a.14.14 0 0 0 .002-.072.2.2 0 0 0-.025-.055m-41.11 6.887.325.054.523.08.015.003q.184.028.37.054.27.038.541.072a40 40 0 0 0 .954.114l.366.04q.289.03.581.057l.088.007q.142.015.286.026l.6.047.368.027q.308.021.62.038l.365.02q.316.014.636.027l.09.004.273.01a59 59 0 0 0 1.68.028l.164.002h.498c8.551-.065 17.867-1.959 26.938-5.48a94 94 0 0 0 4.524-1.895c-3.236 3.97-7.35 7.301-12.233 9.905-7.34 3.911-16.524 6.14-25.863 6.277-.452.006-.907.01-1.37.002l-.238-.003-.533-.005a71 71 0 0 1-1.793-.053c-9.23-.402-26.56-3.045-39.06-16.206h24.87q.21.201.438.407l.059.05.054.047c.12.105.238.21.363.313l.094.076.113.09q.143.12.291.233.055.044.112.085l.126.095q.14.106.284.212l.123.086.117.082q.15.106.302.212.067.044.133.087l.116.075a13 13 0 0 0 .468.3l.121.074q.157.098.318.194l.155.09.158.09.297.17.17.091.171.092q.144.08.29.154.085.044.169.086l.182.09q.15.076.301.15l.19.09.159.074q.16.076.323.15l.183.082.223.097.287.124q.104.044.21.086l.202.082.301.121q.111.044.224.085l.165.064.342.128.252.09.133.046q.182.066.366.129.129.044.26.085l.175.058q.165.055.335.108.138.044.277.086l.212.064.3.09.318.09.095.026q.194.055.393.108.187.05.375.097l.128.033a23 23 0 0 0 .764.185l.077.018.32.074.465.1.054.01q.168.037.338.072l.486.094.082.015q.152.03.306.058.239.042.478.083z"/></g><defs><clipPath id="a"><path fill="#fff" d="M0 0h84v40H0z"/></clipPath></defs></svg>