<svg xmlns="http://www.w3.org/2000/svg" width="40" height="40" fill="none" viewBox="0 0 40 40"><g fill="#000" clip-path="url(#a)"><path d="m16.009 31.12 5.151-5.15-5.151-5.152-5.152 5.151zM16.042 9.048l3.897-3.897-3.897-3.897-3.897 3.897zM5.651 31.086l5.152-5.151-5.152-5.152L.5 25.935zM5.651 10.303l5.152-5.152L5.65 0 .5 5.151zM16.009 40l3.586-3.587-3.586-3.586-3.587 3.587zM16.009 19.491l3.896-3.896-3.896-3.896-3.897 3.896zM5.653 39.832l3.507-3.508-3.507-3.507-3.508 3.507zM5.651 20.694l5.152-5.151L5.65 10.39.5 15.543zM26.364 27.306l1.3-1.3-1.3-1.299-1.3 1.3zM26.364 7.821l2.598-2.598-2.598-2.598-2.598 2.598zM36.782 27.306l1.3-1.3-1.3-1.299-1.3 1.3zM31.586 32.473l1.3-1.299-1.3-1.3-1.299 1.3zM22.494 32.473l1.299-1.299-1.3-1.3-1.299 1.3zM36.784 7.793l2.57-2.57-2.57-2.57-2.57 2.57zM26.364 37.67l1.3-1.3-1.3-1.3-1.3 1.3zM26.363 18.213l2.626-2.626-2.626-2.626-2.626 2.626zM36.782 37.67l1.3-1.3-1.3-1.3-1.3 1.3zM36.783 18.185l2.598-2.598-2.598-2.598-2.598 2.598zM31.587 12.989l2.598-2.599-2.598-2.598-2.598 2.598zM31.587 23.38l2.598-2.598-2.598-2.598-2.598 2.598zM22.494 23.38l2.598-2.598-2.598-2.598-2.599 2.598zM21.195 12.989l2.598-2.599-2.598-2.598-2.598 2.598z"/></g><defs><clipPath id="a"><path fill="#fff" d="M0 0h40v40H0z"/></clipPath></defs></svg>