<svg xmlns="http://www.w3.org/2000/svg" width="56" height="40" fill="none" viewBox="0 0 56 40"><g fill="#5d6163" clip-path="url(#a)"><path d="M6.576 33.901c-.143-.525-.429-1.542-1.927-1.542-.871 0-2.188.623-2.188 3.075 0 1.557.658 3 2.188 3 1.006 0 1.712-.607 1.927-1.672h1.81c-.36 1.892-1.593 3.206-3.77 3.206-2.309 0-3.962-1.57-3.962-4.559 0-3.04 1.749-4.58 3.984-4.58 2.6 0 3.649 1.793 3.747 3.072zM10.6 35.746l2.127-2.442h2.071l-2.26 2.487 2.32 3.95h-2.023L11.3 36.977l-.701.732v2.034H8.912v-6.438H10.6z"/><path d="M21.036 36.51c0 2.32-1.557 3.4-3.28 3.4-1.721 0-3.29-1.063-3.29-3.385s1.569-3.388 3.29-3.388c1.723 0 3.28 1.052 3.28 3.373m-4.835 0c0 .825.25 1.973 1.555 1.973s1.544-1.135 1.544-1.958c0-.827-.24-1.963-1.544-1.963S16.2 35.685 16.2 36.51M27.379 33.303v6.438H25.69v-5.083h-1.806v1.985c0 2.463-.741 3.24-1.927 3.24-.295 0-.778-.048-1.027-.142v-1.258c.035.025.25.048.5.048.506 0 .769-.25.769-2.21v-3.018zM29.929 35.746l2.127-2.442h2.071l-2.263 2.487 2.324 3.95h-2.024l-1.531-2.765-.704.732v2.034H28.24v-6.438h1.688z"/><path d="M40.364 36.51c0 2.32-1.554 3.4-3.278 3.4s-3.29-1.063-3.29-3.385 1.567-3.388 3.29-3.388 3.278 1.052 3.278 3.373m-4.832 0c0 .825.25 1.973 1.554 1.973 1.299 0 1.547-1.135 1.547-1.958 0-.827-.248-1.963-1.547-1.963-1.304 0-1.554 1.123-1.554 1.948M40.912 33.304h2.906c1.438 0 2.49.588 2.49 1.663 0 .741-.527 1.218-1.198 1.387.658.157 1.39.578 1.39 1.63 0 1.193-.903 1.759-2.362 1.759h-3.226zm1.685 2.606h1.1c.56 0 .957-.224.957-.729 0-.525-.382-.716-.944-.716h-1.113zm0 2.672h1.24c.624 0 1.01-.191 1.01-.828 0-.562-.406-.822-1.029-.822h-1.221zM53.255 36.51c0 2.32-1.552 3.4-3.278 3.4-1.72 0-3.292-1.063-3.292-3.385s1.571-3.388 3.292-3.388c1.726 0 3.278 1.052 3.278 3.373m-4.834 0c0 .825.254 1.973 1.556 1.973 1.305 0 1.542-1.135 1.542-1.958 0-.827-.237-1.963-1.541-1.963s-1.557 1.123-1.557 1.948M12.926 29.373c1.439 0 4.98-.252 7.628-2.185v1.466h5.341l.005-6.446 2.23-2.308 4.855 8.754h6.408L32.04 16.146l7.163-7.884h-6.56L25.9 15.997V1.137h-5.346v2.351c-1.628-1.747-4.267-3.07-8.382-3.07-8.907 0-10.58 5.42-10.58 8.452 0 4.168 2.241 6.484 6.144 7.43l5.534 1.362c2.918.721 5.005 1.25 5.005 3.411 0 2.881-3.035 3.562-5.765 3.562-5.003 0-5.836-2.917-5.836-4.47H1.176c0 3.41 1.744 9.208 11.75 9.208m3.641-16.408-6.706-1.633c-1.14-.265-2.922-.722-2.922-2.878 0-2.465 2.616-3.3 4.814-3.3 5.004 0 5.46 2.921 5.61 4.17h3.191v5.13c-1.171-.685-2.553-1.129-3.987-1.49"/></g><defs><clipPath id="a"><path fill="#fff" d="M0 0h56v40H0z"/></clipPath></defs></svg>