<svg width="90" height="65" viewBox="0 0 90 65" fill="none" xmlns="http://www.w3.org/2000/svg">
<path fill-rule="evenodd" clip-rule="evenodd" d="M46.2149 23.1615C47.1357 23.1629 48.0354 23.4371 48.8001 23.9496C49.5648 24.462 50.1601 25.1896 50.5106 26.0402C50.8611 26.8908 50.9511 27.8262 50.7691 28.7279C50.5872 29.6297 50.1414 30.4572 49.4884 31.1057C48.8354 31.7542 48.0044 32.1946 47.1007 32.3711C46.197 32.5476 45.2612 32.4522 44.4117 32.0971C43.5623 31.7419 42.8374 31.143 42.3289 30.3761C41.8204 29.6093 41.5512 28.7089 41.5552 27.7891C41.5597 26.5584 42.053 25.3799 42.9266 24.5122C43.8003 23.6446 44.9829 23.1588 46.2149 23.1615Z" fill="#396299"/>
<path fill-rule="evenodd" clip-rule="evenodd" d="M36.7866 18.7144C38.0197 18.7144 39.2023 19.2037 40.0743 20.0747C40.9462 20.9457 41.4361 22.1271 41.4361 23.3589C41.4361 24.5907 40.9462 25.7721 40.0743 26.6431C39.2023 27.5141 38.0197 28.0035 36.7866 28.0035C35.5535 28.0035 34.3709 27.5141 33.499 26.6431C32.6271 25.7721 32.1372 24.5907 32.1372 23.3589C32.1372 22.1271 32.6271 20.9457 33.499 20.0747C34.3709 19.2037 35.5535 18.7144 36.7866 18.7144Z" fill="#396299"/>
<path fill-rule="evenodd" clip-rule="evenodd" d="M34.3004 8.32617C35.2241 8.3255 36.1273 8.59852 36.8958 9.11071C37.6642 9.62289 38.2632 10.3512 38.6172 11.2036C38.9712 12.0559 39.0641 12.994 38.8843 13.8991C38.7045 14.8043 38.26 15.6358 37.6071 16.2886C36.9541 16.9413 36.122 17.386 35.2161 17.5662C34.3101 17.7465 33.371 17.6543 32.5175 17.3013C31.664 16.9484 30.9345 16.3504 30.4212 15.5832C29.9079 14.816 29.6339 13.9139 29.6339 12.9911C29.633 12.3786 29.7531 11.7718 29.9872 11.2057C30.2214 10.6395 30.565 10.125 30.9985 9.69172C31.4319 9.2584 31.9467 8.91475 32.5133 8.68043C33.0799 8.44611 33.6872 8.32573 34.3004 8.32617Z" fill="#396299"/>
<path fill-rule="evenodd" clip-rule="evenodd" d="M40.9012 0C42.1343 0 43.3169 0.489336 44.1888 1.36036C45.0608 2.23138 45.5506 3.41274 45.5506 4.64456C45.5506 5.87637 45.0608 7.05773 44.1888 7.92875C43.3169 8.79978 42.1343 9.28911 40.9012 9.28911C40.2923 9.29272 39.6887 9.17558 39.1255 8.94448C38.5622 8.71337 38.0505 8.3729 37.6199 7.94279C37.1894 7.51267 36.8485 7.00148 36.6172 6.43882C36.3858 5.87616 36.2686 5.27323 36.2722 4.66497C36.2682 4.05467 36.3848 3.44957 36.6155 2.88444C36.8462 2.3193 37.1864 1.80525 37.6165 1.37179C38.0466 0.938341 38.5582 0.594024 39.1219 0.358612C39.6856 0.123201 40.2902 0.00133098 40.9012 0V0Z" fill="#396299"/>
<path fill-rule="evenodd" clip-rule="evenodd" d="M51.4504 0C52.6835 0 53.8661 0.489336 54.738 1.36036C55.6099 2.23138 56.0998 3.41274 56.0998 4.64456C56.0998 5.87637 55.6099 7.05773 54.738 7.92875C53.8661 8.79978 52.6835 9.28911 51.4504 9.28911C50.8413 9.29272 50.2376 9.1756 49.6741 8.94454C49.1107 8.71347 48.5987 8.37305 48.1679 7.94299C47.7371 7.51292 47.3959 7.00175 47.1642 6.43907C46.9325 5.8764 46.8148 5.27339 46.818 4.66497C46.8144 4.05451 46.9315 3.44934 47.1625 2.88418C47.3936 2.31902 47.7341 1.805 48.1645 1.37159C48.5948 0.938182 49.1067 0.59392 49.6705 0.35855C50.2344 0.123179 50.8392 0.00133315 51.4504 0V0Z" fill="#396299"/>
<path fill-rule="evenodd" clip-rule="evenodd" d="M58.089 8.32617C59.0127 8.3255 59.9159 8.59852 60.6843 9.11071C61.4527 9.62289 62.0518 10.3512 62.4058 11.2036C62.7598 12.0559 62.8527 12.994 62.6729 13.8991C62.4931 14.8043 62.0486 15.6358 61.3957 16.2886C60.7427 16.9413 59.9106 17.386 59.0047 17.5662C58.0987 17.7465 57.1596 17.6543 56.3061 17.3013C55.4526 16.9484 54.723 16.3504 54.2097 15.5832C53.6965 14.816 53.4225 13.9139 53.4225 12.9911C53.4243 11.7551 53.9164 10.5701 54.791 9.6957C55.6657 8.82133 56.8516 8.32887 58.089 8.32617Z" fill="#396299"/>
<path fill-rule="evenodd" clip-rule="evenodd" d="M55.7525 18.7141C56.6731 18.7162 57.5724 18.9912 58.3364 19.5043C59.1003 20.0174 59.6946 20.7455 60.0439 21.5963C60.3932 22.4472 60.4818 23.3824 60.2985 24.2836C60.1152 25.1848 59.6682 26.0114 59.0141 26.6585C58.3601 27.3057 57.5284 27.7443 56.6246 27.9188C55.7207 28.0934 54.7854 27.9959 53.937 27.6389C53.0886 27.2818 52.3655 26.6812 51.8592 25.9132C51.3528 25.1452 51.0862 24.2443 51.0929 23.3247C51.1001 22.0964 51.5948 20.9212 52.4683 20.0569C53.3419 19.1925 54.523 18.7096 55.7525 18.7141Z" fill="#396299"/>
<path fill-rule="evenodd" clip-rule="evenodd" d="M20.815 32.614C20.3368 31.4889 19.7287 30.4234 19.0029 29.4393C19.0029 29.4393 27.9816 30.0416 32.0452 30.8004C44.9682 33.1822 45.4519 45.156 45.4519 45.156C45.4519 45.156 43.3571 45.0743 37.8016 45.0743C30.1548 45.0811 23.2709 38.4494 20.815 32.614Z" fill="#34AB4D"/>
<path fill-rule="evenodd" clip-rule="evenodd" d="M71.615 32.614C72.0917 31.4881 72.6999 30.4225 73.4271 29.4393C73.4271 29.4393 64.4518 30.0416 60.3849 30.8004C47.4652 33.1822 46.9781 45.156 46.9781 45.156C46.9781 45.156 49.0764 45.0743 54.6284 45.0743C62.2787 45.0811 69.1456 38.4494 71.615 32.614Z" fill="#34AB4D"/>
<path fill-rule="evenodd" clip-rule="evenodd" d="M68.9821 43.4204H68.5427V42.8726H69.0332C69.0781 42.8678 69.1235 42.8719 69.1667 42.8848C69.21 42.8976 69.2503 42.9189 69.2852 42.9475C69.311 42.9719 69.3313 43.0015 69.3448 43.0344C69.3583 43.0672 69.3647 43.1025 69.3636 43.138C69.3638 43.1896 69.3496 43.2403 69.3227 43.2843C69.2947 43.3292 69.2529 43.3638 69.2035 43.383C69.1321 43.4061 69.0571 43.4165 68.9821 43.4136V43.4204ZM69.2614 43.6722C69.225 43.6388 69.1836 43.6113 69.1388 43.5906C69.2672 43.5827 69.3883 43.5282 69.4794 43.4374C69.5495 43.3562 69.587 43.252 69.585 43.1448C69.5849 43.0579 69.5627 42.9724 69.5203 42.8964C69.4827 42.8254 69.4211 42.77 69.3466 42.7399C69.2467 42.7067 69.1417 42.6918 69.0366 42.6957H68.3553V44.3357H68.5563V43.6076H68.7948H68.9072C68.941 43.6173 68.9732 43.6322 69.0025 43.6518C69.0423 43.6823 69.0768 43.7191 69.1047 43.7607C69.1456 43.8151 69.1933 43.89 69.2546 43.9887L69.459 44.3289H69.7144L69.4453 43.8832C69.3948 43.8042 69.3328 43.7331 69.2614 43.6722Z" fill="#396299"/>
<path fill-rule="evenodd" clip-rule="evenodd" d="M68.8864 44.9482C68.617 44.9482 68.3535 44.8684 68.1295 44.7188C67.9054 44.5693 67.7308 44.3567 67.6277 44.108C67.5245 43.8593 67.4976 43.5857 67.5501 43.3216C67.6027 43.0576 67.7325 42.8151 67.923 42.6248C68.1136 42.4344 68.3563 42.3048 68.6206 42.2523C68.8849 42.1998 69.1589 42.2267 69.4078 42.3297C69.6568 42.4327 69.8696 42.6072 70.0193 42.831C70.169 43.0548 70.2489 43.318 70.2489 43.5872C70.2489 43.9481 70.1053 44.2943 69.8498 44.5496C69.5943 44.8048 69.2478 44.9482 68.8864 44.9482ZM68.8864 42.022C68.5776 42.0213 68.2755 42.1122 68.0184 42.2832C67.7614 42.4542 67.5609 42.6975 67.4424 42.9824C67.3239 43.2673 67.2927 43.5809 67.3528 43.8836C67.4129 44.1862 67.5615 44.4642 67.7799 44.6823C67.9983 44.9005 68.2766 45.049 68.5795 45.109C68.8824 45.169 69.1964 45.1379 69.4816 45.0195C69.7668 44.9011 70.0104 44.7008 70.1816 44.444C70.3527 44.1872 70.4437 43.8855 70.443 43.577C70.4421 43.1648 70.2779 42.7698 69.9861 42.4784C69.6944 42.187 69.299 42.0229 68.8864 42.022Z" fill="#396299"/>
<path fill-rule="evenodd" clip-rule="evenodd" d="M6.17881 60.3689C5.30002 60.3893 3.51858 60.0831 3.51858 57.8612C3.51858 55.6393 5.30002 55.3297 6.17881 55.3501V60.3689ZM9.19669 55.3501C10.0755 55.3297 11.8535 55.6359 11.8535 57.8612C11.8535 60.0865 10.0755 60.3893 9.19669 60.3689V55.3501ZM5.92675 64.6494H9.44534V62.88C11.6014 62.9005 15.3721 62.271 15.3721 57.8612C15.3721 53.4514 11.6014 52.7573 9.44534 52.839V51.4541H5.92675V52.839C3.77064 52.7641 0 53.4991 0 57.8612C0 62.2233 3.77064 62.9005 5.92675 62.88V64.6494Z" fill="#396299"/>
<path fill-rule="evenodd" clip-rule="evenodd" d="M23.5025 61.9851C21.8675 61.9851 20.379 60.784 20.379 58.3614C20.379 55.9387 21.8675 54.7376 23.5025 54.7376C25.1375 54.7376 26.626 55.9387 26.626 58.3614C26.626 60.784 25.1307 61.9851 23.5025 61.9851ZM23.5025 64.9896C28.0974 64.9896 30.257 61.7061 30.257 58.3512C30.257 54.9962 28.0906 51.7195 23.5025 51.7195C18.9144 51.7195 16.7515 54.9996 16.7515 58.3546C16.7515 61.7095 18.8974 64.9896 23.5025 64.9896Z" fill="#396299"/>
<path fill-rule="evenodd" clip-rule="evenodd" d="M41.4055 60.4983C41.0245 60.9121 40.5646 61.2456 40.0528 61.4794C39.541 61.7131 38.9876 61.8423 38.4251 61.8594C36.4154 61.8594 35.213 60.369 35.213 58.4568C35.213 56.3948 36.4869 54.85 38.4251 54.85C39.0019 54.8668 39.568 55.0102 40.0831 55.2701C40.5982 55.5301 41.0497 55.9001 41.4055 56.354V52.7404C40.383 52.0667 39.1833 51.7114 37.9584 51.7196C34.5522 51.7196 31.5854 54.1559 31.5854 58.3547C31.5854 62.3732 34.2763 64.9932 38.0129 64.9932C39.2183 65.0447 40.4096 64.7174 41.4191 64.0574L41.4055 60.4983Z" fill="#396299"/>
<path fill-rule="evenodd" clip-rule="evenodd" d="M48.5007 55.078L49.9347 59.7055H47.0599L48.5007 55.078ZM41.8961 64.6495H45.6668L46.365 62.4786H50.6398L51.338 64.6495H55.1087L50.6398 52.0939H46.3616L41.8961 64.6495Z" fill="#396299"/>
<path fill-rule="evenodd" clip-rule="evenodd" d="M56.1237 64.6394H59.6422V55.0984H63.6683V52.0837H56.1237V64.6394Z" fill="#396299"/>
<path fill-rule="evenodd" clip-rule="evenodd" d="M68.8048 54.8467H69.8062C71.3185 54.8467 71.5331 55.6531 71.5331 56.2791C71.5331 56.8202 71.373 57.7355 69.8062 57.7355H68.8048V54.8467ZM65.2692 64.6495H68.8048V60.4984H70.5828C74.1389 60.4984 75.1607 58.0213 75.1607 56.2791C75.1607 54.537 74.1389 52.0837 70.5828 52.0837H65.2692V64.6495Z" fill="#396299"/>
<path fill-rule="evenodd" clip-rule="evenodd" d="M82.8549 61.9851C81.2268 61.9851 79.7315 60.784 79.7315 58.3614C79.7315 55.9387 81.2268 54.7376 82.8549 54.7376C84.4831 54.7376 85.9818 55.9387 85.9818 58.3614C85.9818 60.784 84.4899 61.9851 82.8549 61.9851ZM82.8549 64.9999C87.4533 64.9999 89.6094 61.7163 89.6094 58.3614C89.6094 55.0064 87.4533 51.7195 82.8549 51.7195C78.2566 51.7195 76.1073 54.9996 76.1073 58.3546C76.1073 61.7095 78.26 64.9896 82.8549 64.9896V64.9999Z" fill="#396299"/>
</svg>
