<svg width="110" height="32" viewBox="0 0 110 32" fill="none" xmlns="http://www.w3.org/2000/svg">
<path d="M22.3916 0L11.1963 10.4223H22.3916V31.2658L33.5878 20.8687V0H22.3916Z" fill="#EA5616"/>
<path d="M11.1963 31.266L22.3925 20.8437H11.1963V0.00012207L0 10.3973V31.266H11.1963Z" fill="#2C2D84"/>
<path d="M44.7812 26.0547H50.6656V9.90049H59.6228V26.0547H65.4962V5.21113H44.7812V26.0547ZM101.88 13.0209H96.8579V9.90049H108.041V5.21113H90.9805V26.0547H102.16C106.641 26.0547 110 23.963 110 19.5373C110 15.1116 106.641 13.0209 101.88 13.0209ZM101.32 21.6253H96.8579V17.4614H101.32C102.706 17.4614 104.113 17.9702 104.113 19.5373C104.113 21.1045 102.708 21.6253 101.32 21.6253ZM79.882 21.6132C75.9594 21.6132 73.7533 18.9357 73.7533 15.626C73.7533 12.9689 75.359 9.63404 79.7713 9.63404C82.525 9.63404 84.3013 11.2003 84.9306 11.93L88.5051 8.60351C87.4029 7.37469 86.024 6.38651 84.4659 5.70897C82.9078 5.03144 81.2087 4.68113 79.489 4.68287C72.9963 4.68287 67.8739 9.15591 67.8739 15.626C67.8739 21.6699 72.9963 26.569 79.489 26.569C81.3341 26.5704 83.1534 26.167 84.7996 25.3914C86.4458 24.6158 87.8725 23.49 88.9639 22.1053L85.3664 18.7537C84.2284 20.4128 82.3744 21.6095 79.881 21.6095" fill="#2C2D84"/>
</svg>
