<svg width="110" height="20" viewBox="0 0 110 20" fill="none" xmlns="http://www.w3.org/2000/svg">
<g clip-path="url(#clip0_826_27490)">
<path d="M10.9639 0.253296V10.3125C10.9639 10.7829 10.6021 11.1086 10.1679 11.1086H8.97379C8.90142 11.1086 8.86523 11.1809 8.86523 11.2171V19.648C9.15471 19.648 9.44418 19.7204 9.76984 19.7204C15.1613 19.7204 19.5396 15.3421 19.5396 9.95066C19.5396 4.99343 15.8126 0.832243 10.9639 0.253296ZM10.7468 15.3059C10.0593 15.3059 9.55273 14.727 9.55273 14.1118C9.55273 13.4243 10.1317 12.9178 10.7468 12.9178C11.4343 12.9178 11.9409 13.4967 11.9409 14.1118C12.0133 14.7632 11.4343 15.3059 10.7468 15.3059ZM13.6054 15.3059C12.9179 15.3059 12.4113 14.727 12.4113 14.1118C12.4113 13.4243 12.9902 12.9178 13.6054 12.9178C14.2929 12.9178 14.7994 13.4967 14.7994 14.1118C14.7994 14.727 14.329 15.3059 13.6054 15.3059ZM16.5001 15.3059C15.8126 15.3059 15.306 14.727 15.306 14.1118C15.306 13.4243 15.885 12.9178 16.5001 12.9178C17.1876 12.9178 17.6942 13.4967 17.6942 14.1118C17.6942 14.727 17.1876 15.3059 16.5001 15.3059Z" fill="#00B956"/>
<path d="M9.76974 0.217163C4.37829 0.217163 0 4.59545 0 9.9869C0 14.727 3.29276 18.5987 7.70724 19.5033V10.7106C7.70724 10.3126 8.06908 9.9869 8.43092 9.91453H8.82895H9.625C9.69737 9.91453 9.73355 9.84216 9.73355 9.80598L9.76974 0.217163ZM7.88816 8.25006C7.20066 8.25006 6.69408 7.67111 6.69408 7.05598C6.69408 6.36848 7.27303 5.8619 7.88816 5.8619C8.57566 5.8619 9.08224 6.44085 9.08224 7.05598C9.08224 7.67111 8.53947 8.25006 7.88816 8.25006Z" fill="#00B956"/>
<path d="M107.576 5.53625V9.22704H102.655V5.53625H100.158V15.306H102.655V11.3619H107.576V15.306H110V5.53625H107.576Z" fill="#00B956"/>
<path d="M66.9046 6.65791C66.5065 5.78949 65.7105 5.31909 64.9144 5.31909C64.1184 5.31909 63.2861 5.78949 62.9243 6.65791L58.9802 15.3421H61.5855L62.4539 13.2796H67.5197L68.3881 15.3421H70.9934L66.9046 6.65791ZM63.1414 11.3257L64.625 7.74343C64.6973 7.63488 64.7335 7.63488 64.8059 7.63488C64.8783 7.63488 64.9868 7.63488 64.9868 7.74343L66.4704 11.3257H63.1414Z" fill="#00B956"/>
<path d="M37.8124 3.79937C36.6545 3.79937 35.9308 4.4145 35.3881 5.64476L32.2401 12.9902L29.0558 5.60858C28.5493 4.4145 27.7894 3.76318 26.6315 3.76318C25.546 3.76318 24.4604 4.48687 24.4604 6.18753V15.2698H26.8848V6.51318L30.1052 13.7862C30.5032 14.8356 31.2631 15.4507 32.2401 15.4507C33.2894 15.4507 33.9769 14.8356 34.3749 13.7862L37.5953 6.51318V15.3783H40.0197V6.29608C39.9835 4.59542 38.898 3.79937 37.8124 3.79937Z" fill="#00B956"/>
<path d="M44.2894 13.2435C44.1808 13.2435 44.0361 13.1349 44.0361 12.9902V11.2533H50.1151V9.26321H44.0361V7.77966C44.0361 7.6711 44.1447 7.52637 44.2894 7.52637H50.3322V5.46387H43.0953C42.2269 5.46387 41.6479 6.15137 41.6479 6.91124V13.7501C41.6479 14.4737 42.2631 15.1974 43.0953 15.1974H50.3322V13.1349H44.2894V13.2435Z" fill="#00B956"/>
<path d="M54.4211 15.306V7.85204C54.4211 7.74349 54.5297 7.59875 54.6744 7.59875H60.7172V5.53625H53.4803C52.6119 5.53625 52.033 6.22375 52.033 6.98362V15.2698L54.4211 15.306Z" fill="#00B956"/>
<path d="M98.5657 10.4573C98.5657 7.05597 97.0822 5.46387 93.3914 5.46387H92.523C88.8322 5.46387 87.3486 7.09216 87.3486 10.4573C87.3486 13.7862 88.8322 15.4507 92.523 15.4507H93.319C97.0822 15.3783 98.5657 13.7862 98.5657 10.4573ZM93.319 13.3882H92.523C90.5328 13.3882 89.7006 12.4836 89.7006 10.4573C89.7006 8.50334 90.3881 7.52637 92.523 7.52637H93.319C95.3815 7.52637 96.1414 8.50334 96.1414 10.4573C96.1414 12.4474 95.3815 13.3882 93.319 13.3882Z" fill="#00B956"/>
<path d="M80.5822 4.01648H75.7335C72.1151 4.01648 70.6677 5.86187 70.6677 9.0099C70.6677 9.51648 70.7401 9.98687 70.7763 10.3849C71.1743 12.6283 72.5131 14.0033 75.8782 14.0033H76.9638V15.2698H79.3881V14.0033H80.4375C83.8388 14.0033 85.1776 12.6283 85.5394 10.3849C85.6118 9.98687 85.648 9.51648 85.648 9.0099C85.6118 5.86187 84.1282 4.01648 80.5822 4.01648ZM76.8914 11.977H75.8059C74.1414 11.977 73.5625 11.3619 73.2006 10.3487C73.0921 9.98687 73.0921 9.4803 73.0921 8.97372C73.0921 6.91122 74.069 6.0428 75.444 6.0428H76.9276V11.977H76.8914ZM83.1151 10.4573C82.7532 11.4342 82.1381 12.0856 80.5098 12.0856H79.4243V6.11516H80.9079C82.2829 6.11516 83.2598 6.98358 83.2598 9.04608C83.2236 9.58885 83.2236 10.0231 83.1151 10.4573Z" fill="#00B956"/>
</g>
<defs>
<clipPath id="clip0_826_27490">
<rect width="110" height="19.9013" fill="white"/>
</clipPath>
</defs>
</svg>
