<svg width="110" height="66" viewBox="0 0 110 66" fill="none" xmlns="http://www.w3.org/2000/svg">
<path d="M47.0713 7.41769C47.0679 7.39833 47.0633 7.38126 47.0576 7.36304C47.061 7.38126 47.0656 7.39947 47.0713 7.41769Z" fill="#0462A1"/>
<path d="M46.3747 7.26398C46.3678 7.27422 46.3621 7.28447 46.3564 7.29472H46.3587C46.3633 7.28447 46.369 7.27422 46.3747 7.26398Z" fill="#0462A1"/>
<path d="M46.3553 7.29474C46.345 7.31296 46.3359 7.33118 46.3291 7.35053C46.3382 7.33231 46.3485 7.3141 46.3587 7.29474H46.3553Z" fill="#0462A1"/>
<path d="M61.6788 14.2222C59.7887 12.332 57.2746 11.2902 54.6011 11.2902C53.9384 11.2902 53.1653 11.42 52.4707 11.4359C50.9643 11.4701 49.7892 11.0078 48.7986 10.2313C47.8888 9.51734 47.3753 8.52331 47.0702 7.41769C47.0656 7.39948 47.0599 7.38126 47.0554 7.36304C47.0542 7.35962 47.0531 7.35621 47.0531 7.35279C46.9996 7.20477 46.8572 7.09888 46.6899 7.09888C46.5589 7.09888 46.4428 7.16378 46.3733 7.26398C46.3676 7.27423 46.3631 7.28447 46.3574 7.29472C46.3471 7.31294 46.338 7.33116 46.3278 7.35051C45.5991 8.76356 45.2153 10.3463 45.2153 11.9483C45.2153 14.6218 46.256 17.1348 48.1473 19.0261C50.0374 20.9162 52.5515 21.958 55.2251 21.958C55.8877 21.958 56.6609 21.8282 57.3554 21.8123C58.8619 21.7781 60.0369 22.2404 61.0275 23.017C61.9236 23.7195 62.436 24.6953 62.7423 25.7827L62.7492 25.7839C62.7503 25.7964 62.7514 25.8089 62.7537 25.8214C62.7605 25.8465 62.7674 25.8704 62.7742 25.8954C62.83 26.0412 62.97 26.1437 63.1351 26.1437C63.3037 26.1437 63.4471 26.0355 63.4995 25.8852L63.5063 25.8863C64.2305 24.4767 64.612 22.8997 64.612 21.3022C64.6108 18.6264 63.569 16.1123 61.6788 14.2222Z" fill="#0462A1"/>
<path d="M70.3494 16.3116C70.3494 9.10289 65.1515 3.14669 58.437 1.58335C57.624 1.39434 56.3863 1.23834 55.4754 1.23834C52.6596 1.23834 50.8571 2.18113 49.9565 2.89392C48.9397 3.69779 48.1893 4.88539 48.2155 6.27794C48.2451 7.80598 49.1367 9.11427 50.4176 9.74963C50.856 9.96711 51.3399 10.106 51.8512 10.147C52.1939 10.18 52.5605 10.1584 52.8964 10.122C52.8964 10.122 53.944 9.99102 54.478 9.98077C59.0485 9.8931 63.0382 12.529 64.8976 16.3958C65.5808 17.8157 66.0089 19.4007 66.0089 21.0802C66.0089 25.5322 64.2349 27.181 62.5099 29.2032C62.5054 29.2089 62.4997 29.2134 62.4951 29.2191L62.494 29.2203C62.4393 29.2874 62.4063 29.3728 62.4063 29.4662C62.4063 29.6791 62.5794 29.8522 62.7923 29.8522C62.8674 29.8522 62.938 29.8306 62.9973 29.793C63.0052 29.7873 63.0121 29.7828 63.02 29.7771C63.0234 29.7748 63.028 29.7714 63.0314 29.7691C67.0542 26.918 70.3494 22.9145 70.3494 16.3116Z" fill="#0462A1"/>
<path d="M39.5371 16.9298C39.5371 24.1385 44.735 30.0947 51.4495 31.658C52.2625 31.847 53.5002 32.003 54.4111 32.003C57.2269 32.003 59.0294 31.0602 59.93 30.3475C60.9468 29.5436 61.6972 28.356 61.671 26.9634C61.6414 25.4354 60.7499 24.1271 59.4689 23.4917C59.0305 23.2743 58.5466 23.1353 58.0354 23.0944C57.6926 23.0613 57.326 23.083 56.9901 23.1194C56.9901 23.1194 55.9425 23.2503 55.4085 23.2606C50.838 23.3483 46.8483 20.7123 44.9889 16.8455C44.3057 15.4257 43.8776 13.8407 43.8776 12.1612C43.8776 7.70914 45.6516 6.0604 47.3766 4.03818C47.3812 4.03249 47.3868 4.02793 47.3914 4.02224L47.3925 4.0211C47.4472 3.95392 47.4802 3.86852 47.4802 3.77516C47.4802 3.56223 47.3071 3.38916 47.0942 3.38916C47.0191 3.38916 46.9485 3.41079 46.8893 3.44837C46.8813 3.45406 46.8745 3.45862 46.8665 3.46431C46.8631 3.46659 46.8585 3.47 46.8551 3.47228C42.8323 6.32342 39.5371 10.3269 39.5371 16.9298Z" fill="#0462A1"/>
<path d="M5.74226 51.337C6.62242 51.337 7.38075 51.4919 8.01953 51.8016C8.65716 52.1113 9.15588 52.552 9.51569 53.1213C9.8755 53.6917 10.0543 54.3795 10.0543 55.1845C10.0543 55.9781 9.87436 56.6624 9.51569 57.2386C9.15588 57.8147 8.65716 58.2576 8.01953 58.5674C7.38075 58.8771 6.62242 59.0319 5.74226 59.0319H3.01068V63.6616H1.02148V51.337H5.74226ZM5.42686 57.3217C6.30702 57.3217 6.95377 57.1395 7.36937 56.7729C7.78383 56.4074 7.9922 55.8779 7.9922 55.1833C7.9922 54.4774 7.78497 53.9411 7.36937 53.5756C6.95377 53.2101 6.30702 53.0268 5.42686 53.0268H3.01068V57.3206H5.42686V57.3217Z" fill="#1E1E1C"/>
<path d="M13.7183 53.1941C13.2844 53.1941 12.9531 53.0859 12.7242 52.8684C12.4954 52.6521 12.3804 52.3447 12.3804 51.9484C12.3804 51.5522 12.4942 51.2482 12.7242 51.0375C12.9531 50.8269 13.2844 50.7221 13.7183 50.7221C14.1396 50.7221 14.4652 50.828 14.6941 51.0375C14.9229 51.2482 15.0379 51.5522 15.0379 51.9484C15.0379 52.3447 14.9229 52.6521 14.6941 52.8684C14.4652 53.0859 14.1396 53.1941 13.7183 53.1941ZM14.7032 54.5844V63.6843H12.714V54.5844H14.7032Z" fill="#1E1E1C"/>
<path d="M25.66 56.3276C25.3276 55.6877 24.847 55.1822 24.2197 54.8132C23.5923 54.4443 22.8283 54.2587 21.9299 54.2587C21.0554 54.2587 20.2743 54.45 19.5843 54.8315C18.8943 55.2129 18.3557 55.764 17.9686 56.4848C17.5803 57.2055 17.3867 58.064 17.3867 59.0615C17.3867 60.0589 17.5803 60.9175 17.9686 61.6382C18.3568 62.3578 18.9011 62.9101 19.6025 63.2915C20.3039 63.673 21.1169 63.8642 22.0403 63.8642C22.6563 63.8642 23.2222 63.7777 23.7392 63.6058C24.2561 63.4338 24.7024 63.1845 25.0782 62.8577C25.4539 62.532 25.7523 62.1472 25.9743 61.7031L24.4041 60.9641C24.1821 61.3832 23.8803 61.7088 23.4989 61.9434C23.1175 62.1779 22.6187 62.2941 22.0027 62.2941C21.4482 62.2941 20.9689 62.1711 20.5624 61.9251C20.1559 61.6792 19.8416 61.316 19.6207 60.8355C19.4636 60.495 19.3634 60.0999 19.3178 59.6536H26.0847C26.1098 59.5056 26.128 59.3336 26.1405 59.1366C26.1531 58.9397 26.1588 58.7301 26.1588 58.5093C26.1588 57.694 25.9925 56.9675 25.66 56.3276ZM19.6025 57.2966C19.812 56.8104 20.1137 56.4438 20.5077 56.1978C20.9017 55.9519 21.3628 55.8289 21.8923 55.8289C22.6187 55.8289 23.1915 56.0532 23.6094 56.503C23.9771 56.8981 24.1832 57.4435 24.2276 58.1369H19.3611C19.4146 57.8283 19.4943 57.5482 19.6025 57.2966Z" fill="#1E1E1C"/>
<path d="M28.9248 63.6718V54.4182H30.6088L30.7944 56.084C31.0415 55.4794 31.4082 55.0194 31.8955 54.7051C32.3828 54.3908 32.984 54.2337 33.7002 54.2337C33.8858 54.2337 34.0703 54.2496 34.2559 54.2804C34.4415 54.3111 34.5952 54.3578 34.7182 54.4193L34.4403 56.1591C34.3049 56.1102 34.1534 56.0703 33.9872 56.0384C33.8209 56.0077 33.5955 55.9918 33.312 55.9918C32.9294 55.9918 32.5536 56.0931 32.1836 56.2969C31.8135 56.5007 31.5084 56.8059 31.267 57.2135C31.0267 57.6211 30.906 58.1392 30.906 58.7677V63.6718H28.9248Z" fill="#1E1E1C"/>
<path d="M36.7334 63.6718V54.4182H38.4174L38.603 56.084C38.8501 55.4794 39.2168 55.0194 39.7041 54.7051C40.1914 54.3908 40.7926 54.2337 41.5088 54.2337C41.6944 54.2337 41.8789 54.2496 42.0645 54.2804C42.2501 54.3111 42.4038 54.3578 42.5268 54.4193L42.2489 56.1591C42.1134 56.1102 41.962 56.0703 41.7958 56.0384C41.6295 56.0077 41.4041 55.9918 41.1206 55.9918C40.738 55.9918 40.3622 56.0931 39.9922 56.2969C39.6221 56.5007 39.317 56.8059 39.0756 57.2135C38.8353 57.6211 38.7146 58.1392 38.7146 58.7677V63.6718H36.7334Z" fill="#1E1E1C"/>
<path d="M52.0776 56.298C51.7429 55.6535 51.2601 55.1457 50.6282 54.7734C49.9962 54.4022 49.2276 54.2155 48.3236 54.2155C47.4434 54.2155 46.6566 54.4079 45.9632 54.7916C45.2686 55.1753 44.7278 55.7298 44.3372 56.4551C43.9467 57.1805 43.752 58.0447 43.752 59.0478C43.752 60.051 43.9467 60.9152 44.3372 61.6405C44.7278 62.3658 45.2754 62.9203 45.9825 63.304C46.6885 63.6877 47.5072 63.8802 48.4363 63.8802C49.0557 63.8802 49.6262 63.7936 50.1465 63.6206C50.6669 63.4475 51.1155 63.1959 51.4935 62.8679C51.8715 62.54 52.1722 62.1529 52.3953 61.7065L50.816 60.963C50.5929 61.3843 50.2889 61.7122 49.9051 61.9479C49.5214 62.1836 49.0193 62.3009 48.3999 62.3009C47.8419 62.3009 47.3591 62.1768 46.9504 61.9297C46.5416 61.6826 46.2251 61.316 46.003 60.8332C45.8448 60.4905 45.7434 60.0931 45.6979 59.6433H52.508C52.5331 59.4942 52.5513 59.3211 52.5638 59.123C52.5764 58.9248 52.5821 58.7142 52.5821 58.491C52.5786 57.6735 52.4124 56.9425 52.0776 56.298ZM45.9814 57.2738C46.192 56.7842 46.4949 56.4164 46.8923 56.1682C47.2885 55.92 47.7531 55.797 48.286 55.797C49.017 55.797 49.5931 56.0236 50.0144 56.4756C50.3845 56.873 50.5917 57.4218 50.6373 58.121H45.74C45.7924 57.809 45.8721 57.5266 45.9814 57.2738Z" fill="#1E1E1C"/>
<path d="M69.3509 53.0473H62.4736V56.6157H67.8639V58.326H62.4736V63.673H60.4844V51.337H69.3498V53.0473H69.3509Z" fill="#1E1E1C"/>
<path d="M78.9794 62.3408C78.5228 62.3408 78.2951 62.113 78.2951 61.6553V57.5278C78.2951 56.7751 78.1311 56.158 77.8043 55.6763C77.4775 55.1947 77.03 54.8337 76.4619 54.5935C75.8937 54.3532 75.2401 54.2325 74.5 54.2325C73.4137 54.2325 72.529 54.4614 71.8436 54.9169C71.1581 55.3735 70.6992 55.9781 70.4647 56.7307L72.1305 57.4344C72.3161 56.8548 72.6053 56.4347 73.0004 56.1762C73.3955 55.9166 73.8703 55.7879 74.426 55.7879C75.0181 55.7879 75.4838 55.9576 75.8231 56.2969C76.1624 56.6362 76.3321 57.1144 76.3321 57.7316V58.0857L73.0368 58.7313C72.2102 58.8918 71.5714 59.1936 71.1205 59.6388C70.6696 60.0828 70.4453 60.651 70.4453 61.3422C70.4453 61.8978 70.5774 62.3635 70.8438 62.7393C71.1091 63.1162 71.4735 63.3963 71.9358 63.5819C72.3981 63.7675 72.9196 63.8597 73.5003 63.8597C73.9694 63.8597 74.4317 63.7823 74.8883 63.6285C75.3449 63.4748 75.7457 63.2403 76.0918 62.9249C76.2284 62.7996 76.3469 62.6618 76.4471 62.5104C76.4915 62.6767 76.5552 62.827 76.6383 62.9625C76.8171 63.2528 77.0642 63.4691 77.3785 63.6103C77.6927 63.7515 78.048 63.8233 78.4431 63.8233C78.8746 63.8233 79.2321 63.7549 79.5168 63.6194L79.6284 62.2497C79.4177 62.31 79.2025 62.3408 78.9794 62.3408ZM76.1385 61.2021C76.0087 61.4674 75.8265 61.6838 75.5919 61.85C75.3574 62.0162 75.0955 62.1369 74.8051 62.2109C74.5148 62.285 74.2153 62.3225 73.9068 62.3225C73.4627 62.3225 73.1074 62.2212 72.8421 62.0174C72.5768 61.8136 72.4436 61.5392 72.4436 61.1941C72.4436 60.8366 72.5734 60.5645 72.8319 60.38C73.0915 60.1944 73.4798 60.0532 73.9979 59.9542L76.3298 59.4748V60.2502C76.3332 60.6191 76.2683 60.9368 76.1385 61.2021Z" fill="#1E1E1C"/>
<path d="M90.2925 56.4233C89.9327 55.7048 89.4408 55.1537 88.8146 54.7689C88.1883 54.3852 87.504 54.1927 86.7605 54.1927C85.9554 54.1927 85.2677 54.4 84.6973 54.8156C84.2782 55.1207 83.9503 55.4885 83.7123 55.9178V50.5275H81.7231V63.6719H83.4698L83.5723 61.8831C83.7044 62.1609 83.8683 62.4194 84.0653 62.6596C84.375 63.0376 84.7553 63.3314 85.2085 63.542C85.6605 63.7527 86.1593 63.8575 86.7047 63.8575C87.4732 63.8575 88.1701 63.665 88.7952 63.2813C89.4203 62.8976 89.9168 62.3465 90.2823 61.6269C90.6478 60.9084 90.8311 60.0464 90.8311 59.0433C90.8311 58.0163 90.6512 57.1429 90.2925 56.4233ZM88.1633 61.3957C87.7112 61.9719 87.0816 62.2599 86.2765 62.2599C85.7687 62.2599 85.319 62.1301 84.9295 61.8694C84.539 61.6086 84.2384 61.2409 84.0277 60.7638C83.8171 60.2867 83.7123 59.7197 83.7123 59.0627C83.7123 58.3932 83.8205 57.817 84.038 57.3342C84.2543 56.8514 84.5549 56.4768 84.9398 56.2092C85.3235 55.9428 85.7767 55.8096 86.297 55.8096C87.1021 55.8096 87.7283 56.0942 88.1746 56.6647C88.621 57.2352 88.8442 58.022 88.8442 59.0251C88.8419 60.0294 88.6164 60.8196 88.1633 61.3957Z" fill="#1E1E1C"/>
<path d="M93.1538 63.6719V54.4603H94.8299L95.0143 56.1182C95.2603 55.517 95.6246 55.0592 96.1108 54.745C96.5959 54.4319 97.1948 54.2747 97.9076 54.2747C98.0921 54.2747 98.2765 54.2907 98.461 54.3203C98.6454 54.351 98.7992 54.3977 98.9221 54.458L98.6454 56.1899C98.5099 56.1409 98.3596 56.1011 98.1945 56.0703C98.0283 56.0396 97.804 56.0248 97.5216 56.0248C97.1402 56.0248 96.7656 56.1261 96.3978 56.3288C96.0289 56.5315 95.7248 56.8355 95.4857 57.2409C95.2466 57.6462 95.1271 58.162 95.1271 58.7883V63.6719H93.1538Z" fill="#1E1E1C"/>
<path d="M108.369 56.3368C108.037 55.6991 107.559 55.1959 106.933 54.827C106.306 54.4592 105.546 54.2747 104.65 54.2747C103.779 54.2747 103 54.4649 102.312 54.8452C101.624 55.2255 101.088 55.7743 100.702 56.4928C100.315 57.2101 100.123 58.0664 100.123 59.0604C100.123 60.0544 100.316 60.9107 100.702 61.628C101.088 62.3454 101.631 62.8953 102.332 63.2756C103.031 63.6559 103.841 63.8461 104.761 63.8461C105.375 63.8461 105.94 63.7607 106.455 63.5887C106.97 63.4168 107.414 63.1686 107.789 62.8429C108.164 62.5184 108.461 62.1347 108.682 61.6929L107.117 60.9562C106.896 61.373 106.596 61.6986 106.215 61.932C105.835 62.1654 105.338 62.2816 104.725 62.2816C104.173 62.2816 103.694 62.1586 103.289 61.9138C102.884 61.669 102.572 61.3069 102.351 60.8276C102.194 60.4882 102.094 60.0943 102.049 59.6491H108.793C108.818 59.5022 108.837 59.3303 108.849 59.1333C108.862 58.9374 108.867 58.7279 108.867 58.507C108.865 57.6997 108.7 56.9756 108.369 56.3368ZM102.33 57.3035C102.539 56.8184 102.839 56.4541 103.232 56.2081C103.625 55.9633 104.085 55.8403 104.612 55.8403C105.336 55.8403 105.907 56.0647 106.324 56.5121C106.69 56.9061 106.895 57.4492 106.94 58.1415H102.09C102.144 57.8329 102.223 57.554 102.33 57.3035Z" fill="#1E1E1C"/>
<path d="M27.0192 44.503H29.0733V45.1577H26.2051V41.2625H27.0192V44.503Z" fill="#1E1E1C"/>
<path d="M34.3619 45.1577H33.5182L33.1937 44.207H31.6998L31.3753 45.1577H30.543L31.9651 41.2625H32.9387L34.3619 45.1577ZM31.882 43.6058H33.0092L32.4422 41.9058L31.882 43.6058Z" fill="#1E1E1C"/>
<path d="M36.1821 45.1577V41.2625H37.8878C38.3603 41.2625 38.7088 41.3547 38.9331 41.5403C39.1574 41.7247 39.2701 41.9866 39.2701 42.3248C39.2701 42.5332 39.2075 42.7188 39.0811 42.8793C38.9547 43.041 38.7702 43.1435 38.5266 43.1867V43.1924C38.7976 43.2323 39.0071 43.3336 39.1517 43.4999C39.2974 43.665 39.3703 43.862 39.3703 44.0897C39.3703 44.4244 39.2496 44.6863 39.0071 44.8742C38.7646 45.0632 38.4116 45.1577 37.9482 45.1577H36.1821ZM36.9735 42.8975H37.7819C38.2112 42.8975 38.4252 42.7302 38.4252 42.3954C38.4252 42.0606 38.2112 41.8933 37.7819 41.8933H36.9735V42.8975ZM36.9735 44.544H37.8764C38.0973 44.544 38.2601 44.4984 38.366 44.4085C38.4719 44.3185 38.5254 44.1922 38.5254 44.0305C38.5254 43.8654 38.4719 43.739 38.366 43.6524C38.2601 43.5659 38.0962 43.5226 37.8764 43.5226H36.9735V44.544Z" fill="#1E1E1C"/>
<path d="M42.9347 41.2032C43.3207 41.2032 43.6532 41.2841 43.9322 41.4458C44.2111 41.6075 44.4275 41.8375 44.5789 42.1358C44.7304 42.4352 44.8066 42.7928 44.8066 43.2095C44.8066 43.6263 44.7304 43.9849 44.5789 44.2833C44.4275 44.5827 44.2123 44.8127 43.9322 44.9733C43.6532 45.1349 43.3207 45.2158 42.9347 45.2158C42.5487 45.2158 42.2151 45.1349 41.9339 44.9733C41.6526 44.8116 41.4363 44.5816 41.2849 44.2833C41.1334 43.9838 41.0571 43.6263 41.0571 43.2095C41.0571 42.7928 41.1334 42.4341 41.2849 42.1358C41.4363 41.8363 41.6526 41.6063 41.9339 41.4458C42.2151 41.2841 42.5487 41.2032 42.9347 41.2032ZM42.9347 41.8705C42.7184 41.8705 42.5328 41.9217 42.3768 42.0242C42.2208 42.1267 42.1035 42.2781 42.0227 42.4785C41.9418 42.6789 41.902 42.9237 41.902 43.2107C41.902 43.4976 41.9418 43.7424 42.0227 43.9428C42.1035 44.1432 42.2208 44.2946 42.3768 44.3971C42.5317 44.4996 42.7184 44.5508 42.9347 44.5508C43.1511 44.5508 43.3355 44.4996 43.4893 44.3971C43.643 44.2946 43.7602 44.1432 43.84 43.9428C43.9208 43.7424 43.9606 43.4976 43.9606 43.2107C43.9606 42.9237 43.9197 42.6789 43.84 42.4785C43.7591 42.2781 43.6418 42.1267 43.4893 42.0242C43.3355 41.9217 43.1511 41.8705 42.9347 41.8705Z" fill="#1E1E1C"/>
<path d="M50.178 45.1577L49.1259 43.5397C49.2967 43.4896 49.4447 43.4133 49.5699 43.3131C49.8216 43.1104 49.948 42.8178 49.948 42.4364C49.948 42.0788 49.8216 41.793 49.5699 41.5801C49.3183 41.3672 48.9722 41.2613 48.5315 41.2613H46.8145V45.1566H47.6172V43.6627H48.3493L49.2637 45.1566H50.178V45.1577ZM47.6161 41.9115H48.437C48.6647 41.9115 48.8355 41.9581 48.9471 42.0504C49.0598 42.1426 49.1156 42.2861 49.1156 42.4785C49.1156 42.6709 49.0598 42.8144 48.9471 42.9066C48.8344 42.9988 48.6647 43.0455 48.437 43.0455H47.6161V41.9115Z" fill="#1E1E1C"/>
<path d="M55.4371 45.1577H54.5934L54.2689 44.207H52.775L52.4505 45.1577H51.6182L53.0403 41.2625H54.0139L55.4371 45.1577ZM52.9583 43.6058H54.0856L53.5185 41.9058L52.9583 43.6058Z" fill="#1E1E1C"/>
<path d="M60.1254 41.2625V41.9172H58.8205V45.1577H58.0064V41.9172H56.6958V41.2625H60.1254Z" fill="#1E1E1C"/>
<path d="M63.4987 41.2032C63.8847 41.2032 64.2172 41.2841 64.4961 41.4458C64.7751 41.6075 64.9914 41.8375 65.1429 42.1358C65.2943 42.4352 65.3706 42.7928 65.3706 43.2095C65.3706 43.6263 65.2943 43.9849 65.1429 44.2833C64.9914 44.5827 64.7762 44.8127 64.4961 44.9733C64.2172 45.1349 63.8847 45.2158 63.4987 45.2158C63.1127 45.2158 62.7791 45.1349 62.4978 44.9733C62.2166 44.8116 62.0003 44.5816 61.8488 44.2833C61.6974 43.9838 61.6211 43.6263 61.6211 43.2095C61.6211 42.7928 61.6974 42.4341 61.8488 42.1358C62.0003 41.8363 62.2166 41.6063 62.4978 41.4458C62.7802 41.2841 63.1138 41.2032 63.4987 41.2032ZM63.4987 41.8705C63.2824 41.8705 63.0968 41.9217 62.9408 42.0242C62.7848 42.1267 62.6675 42.2781 62.5867 42.4785C62.5058 42.6789 62.466 42.9237 62.466 43.2107C62.466 43.4976 62.5058 43.7424 62.5867 43.9428C62.6675 44.1432 62.7848 44.2946 62.9408 44.3971C63.0956 44.4996 63.2824 44.5508 63.4987 44.5508C63.715 44.5508 63.8995 44.4996 64.0532 44.3971C64.2069 44.2946 64.3242 44.1432 64.4039 43.9428C64.4848 43.7424 64.5246 43.4976 64.5246 43.2107C64.5246 42.9237 64.4848 42.6789 64.4039 42.4785C64.3231 42.2781 64.2058 42.1267 64.0532 42.0242C63.9006 41.9217 63.715 41.8705 63.4987 41.8705Z" fill="#1E1E1C"/>
<path d="M68.2057 41.2625V45.1577H67.3916V41.2625H68.2057Z" fill="#1E1E1C"/>
<path d="M73.7869 45.1577L72.7348 43.5397C72.9056 43.4896 73.0536 43.4133 73.1788 43.3131C73.4305 43.1104 73.5569 42.8178 73.5569 42.4364C73.5569 42.0788 73.4305 41.793 73.1788 41.5801C72.9272 41.3672 72.5811 41.2613 72.1404 41.2613H70.4233V45.1566H71.2261V43.6627H71.9582L72.8725 45.1566H73.7869V45.1577ZM71.2249 41.9115H72.0459C72.2736 41.9115 72.4444 41.9581 72.556 42.0504C72.6676 42.1426 72.7245 42.2861 72.7245 42.4785C72.7245 42.6709 72.6687 42.8144 72.556 42.9066C72.4433 42.9988 72.2736 43.0455 72.0459 43.0455H71.2249V41.9115Z" fill="#1E1E1C"/>
<path d="M75.6768 45.1577V41.2625H78.5985V41.9172H76.4909V42.885H78.1499V43.5113H76.4909V44.503H78.6805V45.1577H75.6768Z" fill="#1E1E1C"/>
<path d="M82.0629 41.2032C82.417 41.2032 82.7278 41.2647 82.9954 41.3866C83.263 41.5084 83.4907 41.6894 83.6797 41.9297L83.2254 42.4546C83.0637 42.2497 82.8884 42.0994 82.6971 42.0026C82.5058 41.9058 82.2849 41.858 82.0333 41.858C81.8682 41.858 81.7315 41.8796 81.6234 41.9229C81.5152 41.9661 81.4366 42.0231 81.3877 42.0937C81.3387 42.1643 81.3137 42.2428 81.3137 42.3294C81.3137 42.4352 81.3547 42.5252 81.4378 42.5981C81.5209 42.6709 81.6621 42.7313 81.8625 42.778L82.5889 42.9431C82.9749 43.0296 83.2505 43.1583 83.4179 43.3302C83.5852 43.501 83.6684 43.723 83.6684 43.994C83.6684 44.2502 83.6012 44.4688 83.468 44.6522C83.3347 44.8355 83.1469 44.9744 82.9078 45.0712C82.6675 45.168 82.392 45.2158 82.0811 45.2158C81.809 45.2158 81.5608 45.1828 81.3342 45.1179C81.1076 45.053 80.906 44.963 80.7296 44.8492C80.5531 44.7353 80.405 44.6032 80.2866 44.454L80.7466 43.9052C80.8366 44.0316 80.9493 44.1432 81.0825 44.2423C81.2157 44.3402 81.3683 44.4187 81.5403 44.4757C81.7111 44.5326 81.891 44.5611 82.08 44.5611C82.2417 44.5611 82.3783 44.5429 82.4899 44.5053C82.6026 44.4677 82.6869 44.4153 82.7438 44.3459C82.8007 44.2776 82.8292 44.1933 82.8292 44.0954C82.8292 43.9929 82.795 43.9052 82.7256 43.8324C82.6561 43.7595 82.5297 43.7037 82.3453 43.6638L81.5539 43.4862C81.3262 43.4316 81.1304 43.3598 80.9664 43.271C80.8024 43.1822 80.6795 43.0683 80.5941 42.9283C80.5098 42.7882 80.4677 42.622 80.4677 42.4296C80.4677 42.1973 80.5303 41.9889 80.6567 41.8044C80.7831 41.62 80.9641 41.4731 81.2032 41.3649C81.4423 41.2568 81.7293 41.2032 82.0629 41.2032Z" fill="#1E1E1C"/>
</svg>
