<svg width="110" height="27" viewBox="0 0 110 27" fill="none" xmlns="http://www.w3.org/2000/svg">
<path fill-rule="evenodd" clip-rule="evenodd" d="M28.7754 18.5132V8.10022H37.2291V18.5132H35.1641V10.0906H30.8398V18.5132H28.7754ZM43.2693 12.5127H42.0974C41.121 12.5127 40.6325 12.8613 40.6325 13.543C40.6325 14.2112 41.1074 14.545 42.056 14.545C42.4747 14.545 42.8788 14.5178 43.2693 14.4481V12.5127ZM45.1806 10.9259V18.5126H43.2693V15.8803C42.899 15.9478 42.5069 16.0366 42.0331 16.0502L40.4512 18.5126H38.3029L40.1925 15.7822C39.2014 15.3646 38.6797 14.643 38.6797 13.5153C38.6797 11.9698 39.8092 10.9259 42.0418 10.9259H45.1806ZM58.0986 11.5663C58.684 12.137 58.9769 12.9168 58.9769 13.9329V18.5126H57.0105V14.2945C57.0105 13.1395 56.3968 12.5269 55.4896 12.5269C54.4985 12.5269 53.8156 13.237 53.8156 14.3506V18.5132H51.8487V14.3092C51.8487 13.1815 51.2486 12.5269 50.3142 12.5269C49.3519 12.5269 48.6544 13.237 48.6544 14.3648V18.5132H46.6874V10.9259H48.6124V12.0118C49.0448 11.2183 49.9373 10.7037 50.9279 10.7173C51.8765 10.7173 52.7554 11.177 53.16 12.0537C53.7182 11.2183 54.7501 10.7173 55.88 10.7173C56.7873 10.7173 57.5262 10.9945 58.0986 11.5663ZM74.3786 16.2713C74.769 15.8536 74.9645 15.339 74.9645 14.7269C74.9645 14.1137 74.769 13.5991 74.3786 13.1809C73.9881 12.7638 73.4855 12.5547 72.8582 12.5547C72.2445 12.5547 71.7418 12.7638 71.3519 13.1809C70.9609 13.5991 70.7654 14.1137 70.7654 14.7269C70.7654 15.339 70.9615 15.8541 71.3519 16.2718C71.7424 16.6895 72.2445 16.898 72.8582 16.898C73.4855 16.898 73.9881 16.6895 74.3786 16.2718M75.8853 11.8865C76.5965 12.6522 76.9456 13.5991 76.9456 14.7127C76.9456 15.8264 76.5829 16.7728 75.8712 17.539C75.16 18.3041 74.2675 18.6934 73.1925 18.6934C72.2586 18.6934 71.396 18.2861 70.8074 17.5651V21.6313H68.8404V10.9259H70.7932V11.9214C71.4178 11.1437 72.2445 10.7315 73.2067 10.7315C74.2811 10.7315 75.1736 11.1209 75.8853 11.8865ZM81.7306 16.8844C82.3302 16.8844 82.8186 16.6753 83.2227 16.2576C83.6278 15.8264 83.8369 15.3112 83.8369 14.7127C83.8369 14.1137 83.6278 13.5991 83.2232 13.1815C82.8186 12.7638 82.3302 12.5552 81.7306 12.5552C81.1305 12.5552 80.6284 12.7638 80.2238 13.1815C79.8198 13.5991 79.6243 14.1143 79.6243 14.7127C79.6243 15.3112 79.8198 15.8264 80.2238 16.2576C80.6284 16.6753 81.1305 16.8839 81.7306 16.8839M78.8009 11.8865C79.5687 11.1067 80.5451 10.7173 81.7306 10.7173C82.9161 10.7173 83.8925 11.1067 84.6603 11.8865C85.427 12.6522 85.8039 13.5991 85.8039 14.7127C85.8039 15.84 85.427 16.787 84.6603 17.5526C83.8925 18.3177 82.9161 18.7081 81.7306 18.7081C80.5451 18.7081 79.5687 18.3177 78.8009 17.5526C78.0336 16.787 77.6573 15.8405 77.6573 14.7127C77.6573 13.5991 78.0336 12.6522 78.8009 11.8865ZM91.342 10.9259H93.3095V18.5132H91.342V15.9592C90.7664 16.2876 90.1429 16.4526 89.6539 16.4526C88.7477 16.4526 88.0779 16.2854 87.4778 15.8819C86.8788 15.4506 86.5439 14.643 86.5439 13.4733V10.9259H88.4967V13.3345C88.4967 14.2254 88.9568 14.6708 89.8777 14.6708C90.3939 14.6708 90.8339 14.5989 91.3425 14.3958V10.9259H91.342ZM99.8103 18.5132L96.7832 15.0095V18.5132H94.8162V10.9145H96.7832V13.9248L99.5451 10.9259H102.028L98.6385 14.4399L102.224 18.5132H99.8103Z" fill="#EB2316"/>
<path fill-rule="evenodd" clip-rule="evenodd" d="M107.406 13.1674C107.002 12.7355 106.499 12.527 105.885 12.527C105.258 12.527 104.756 12.7355 104.351 13.1674C103.96 13.5992 103.765 14.1138 103.765 14.7123C103.765 15.3249 103.96 15.84 104.365 16.2719C104.77 16.7032 105.272 16.9117 105.885 16.9117C106.499 16.9117 107.002 16.7032 107.406 16.2719C107.81 15.84 108.02 15.3249 108.02 14.7123C108.02 14.1138 107.81 13.5992 107.406 13.1674ZM107.992 10.926H109.861V18.5127H107.992V17.5107C107.339 18.3014 106.527 18.694 105.565 18.694C104.477 18.694 103.57 18.3183 102.858 17.5527C102.147 16.787 101.799 15.8264 101.799 14.685C101.799 13.5431 102.161 12.5967 102.872 11.8588C103.584 11.1073 104.491 10.7316 105.565 10.7316C106.513 10.7316 107.35 11.1618 107.992 11.9209V10.926ZM64.4182 9.01895C64.4182 8.36494 64.9344 7.87756 65.6037 7.87756C66.2593 7.87756 66.7619 8.39271 66.7619 9.01895C66.7619 9.70128 66.2593 10.2023 65.6037 10.2023C64.9344 10.2023 64.4182 9.70128 64.4182 9.01895ZM61.9911 13.9472H65.8553C65.6739 12.9583 64.9622 12.3603 63.958 12.3603C62.9669 12.3603 62.228 12.9588 61.9911 13.9472ZM62.5629 7.87756C63.2185 7.87756 63.7348 8.39271 63.7348 9.01895C63.7348 9.70128 63.2327 10.2023 62.5629 10.2023C61.8931 10.2023 61.391 9.70128 61.391 9.01895C61.391 8.39271 61.9072 7.87756 62.5629 7.87756ZM67.6964 15.4088H61.9911C62.2699 16.4804 63.0094 17.0234 64.2091 17.0234C65.0319 17.0234 65.9484 16.7157 66.6432 16.1657L67.435 17.4089C66.475 18.3058 65.3809 18.6799 64.1252 18.6799C62.7856 18.6799 61.7673 18.2905 61.0561 17.5249C60.3449 16.7592 59.9958 15.8123 59.9958 14.7128C59.9958 13.5573 60.3585 12.6108 61.098 11.8593C61.8375 11.1073 62.7861 10.731 63.958 10.731C65.0602 10.731 65.9805 11.079 66.6917 11.7613C67.4034 12.4437 67.7661 13.3623 67.7661 14.5451C67.7661 14.8097 67.7389 15.1027 67.6964 15.4088Z" fill="#EB2316"/>
<path fill-rule="evenodd" clip-rule="evenodd" d="M12.8215 0C5.75158 0 0 5.75158 0 12.8215C0 19.8915 5.75158 25.6431 12.8215 25.6431C19.8909 25.6431 25.6431 19.8915 25.6431 12.8215C25.6431 5.75158 19.8909 0 12.8215 0Z" fill="white"/>
<path fill-rule="evenodd" clip-rule="evenodd" d="M19.2918 3.62512C18.3132 6.13497 16.0855 6.6572 12.8584 6.6572C12.5121 6.6572 12.169 6.65176 11.8379 6.64685C11.5177 6.6425 11.215 6.6376 10.9182 6.6376C10.6546 6.6376 10.3889 6.64086 10.127 6.6523C10.5789 5.5425 11.3005 4.78829 12.3275 4.33086C13.7591 3.69374 15.6204 3.6872 17.2628 3.6823C17.9783 3.67958 18.6634 3.67685 19.2918 3.62512Z" fill="#008F32"/>
<path fill-rule="evenodd" clip-rule="evenodd" d="M20.2973 4.4306C18.8499 7.58357 15.6239 7.89941 12.8587 7.89941C12.2515 7.89941 11.6699 7.8847 11.1313 7.88144L10.4349 10.6053C14.0017 7.69738 18.7186 10.5802 18.2144 14.9683C17.8746 17.9236 15.7677 19.8562 13.5388 20.4116C11.1106 21.0172 8.42055 20.111 7.21436 17.6366C7.08639 17.3752 6.86367 16.8513 6.77871 16.5714L9.33921 15.9136C9.38441 16.0612 9.46119 16.2039 9.54178 16.334C11.256 19.0987 14.7298 17.7161 15.1218 14.8479C15.521 11.9302 11.427 10.376 9.56139 13.786L7.2906 12.8184L7.25139 12.8009L8.34649 8.40475C8.41401 8.09218 8.64164 7.21926 8.68084 7.07604C9.91862 2.52466 13.9227 2.45277 17.1345 2.44079C15.8063 1.88807 14.3502 1.58203 12.8216 1.58203C6.61371 1.58203 1.58203 6.61371 1.58203 12.8216C1.58203 19.0296 6.61371 24.0612 12.8216 24.0612C19.0296 24.0612 24.0612 19.0296 24.0612 12.8216C24.0612 9.48461 22.6062 6.48901 20.2973 4.4306Z" fill="#EB2316"/>
</svg>
