<svg width="110" height="49" viewBox="0 0 110 49" fill="none" xmlns="http://www.w3.org/2000/svg">
<g clip-path="url(#clip0_826_29752)">
<path d="M109.192 20.9516V18.6828C109.192 10.8625 104.964 7.33906 98.5704 7.33906C88.7735 7.33906 87.7938 16.1047 87.7938 18.8203C87.7938 27.8781 92.3313 31.075 98.5704 31.2125H99.1032C101.35 31.322 103.567 30.6562 105.382 29.3264C107.197 27.9966 108.499 26.0836 109.072 23.9078H102.97C102.688 24.6906 102.157 25.3595 101.459 25.8125C100.76 26.2656 99.9332 26.4779 99.1032 26.4172H98.5704C97.8956 26.3791 97.2361 26.2008 96.6341 25.8937C96.032 25.5865 95.5006 25.1573 95.0737 24.6334C94.6468 24.1094 94.3337 23.5022 94.1545 22.8506C93.9753 22.1989 93.9339 21.517 94.0329 20.8484H109.416L109.192 20.9516ZM98.45 12.2891C99.0652 12.2883 99.6741 12.4127 100.24 12.6545C100.805 12.8964 101.316 13.2508 101.74 13.6961C102.165 14.1414 102.494 14.6683 102.708 15.2449C102.923 15.8214 103.018 16.4356 102.988 17.05H93.8094C94.1532 14.0938 95.6657 12.2891 98.45 12.2891ZM86.2641 0H80.3V30.8516H86.2641V0ZM69.1625 7.39063C67.774 7.33342 66.3982 7.67537 65.198 8.37599C63.9978 9.0766 63.0236 10.1065 62.3907 11.3438V7.94062H56.6672V39.6688H62.6485V27.7578H62.7688C63.2303 28.6629 63.9047 29.4423 64.734 30.0291C65.5633 30.6159 66.5227 30.9925 67.5297 31.1266C68.0625 31.2125 68.6125 31.2641 69.1625 31.2641C75.9688 31.2641 78.7875 25.3344 78.7875 19.1125C78.7875 11.2406 74.2329 7.35625 69.2829 7.35625L69.1625 7.37344V7.39063ZM67.5297 26.3656H67.3579C63.525 26.3656 62.425 22.1719 62.425 19.5594C62.425 15.95 63.7485 12.5984 67.5297 12.5984C71.311 12.5984 72.5313 16.2078 72.5313 19.8516C72.5313 23.5125 71.0875 26.2797 67.4094 26.3828L67.5297 26.3656Z" fill="#1D1D1B"/>
<path fill-rule="evenodd" clip-rule="evenodd" d="M22.3438 7.95783V30.6281H28.3422V16.7578C28.3422 14.3344 29.2359 12.3922 32.0375 12.3922C34.8219 12.3922 35.6469 15.125 35.6469 17.0328V30.6453H41.5766V17.05C41.5766 14.3516 42.6594 12.3578 45.7016 12.3578C47.4031 12.3578 48.9156 13.4922 48.9156 16.8953V30.7141H54.8625V14.85C54.9162 13.816 54.7468 12.7825 54.3658 11.8197C53.9849 10.857 53.4012 9.9874 52.6546 9.27007C51.9079 8.55274 51.0156 8.00444 50.0384 7.66236C49.0611 7.32028 48.0217 7.19244 46.9906 7.28752C45.7581 7.30268 44.5518 7.64482 43.4949 8.27897C42.438 8.91312 41.5684 9.81654 40.975 10.8969C40.3852 9.73838 39.4681 8.77867 38.3375 8.13699C37.2069 7.4953 35.9127 7.19991 34.6156 7.28752C33.2663 7.23423 31.9325 7.59185 30.7908 8.31308C29.6492 9.0343 28.7533 10.0851 28.2219 11.3266V7.95783H22.3438Z" fill="#1D1D1B"/>
<path d="M28.1016 0H22.3438V5.75781H28.1016V0Z" fill="#E83180"/>
<path fill-rule="evenodd" clip-rule="evenodd" d="M20.1266 15.1594C19.6797 8.73126 14.3687 7.63126 9.95156 7.63126C2.87031 7.63126 0.876562 11.8938 0.876562 15.2281C0.876562 23.7531 14.9703 20.8828 14.9703 24.6469C14.9703 25.4719 14.2312 27.0531 11.1375 27.0531C7.39062 27.0531 6.20469 25.5922 6.20469 23.6672H0C0 29.7172 5.75781 31.5391 10.8969 31.5391C14.4375 31.5391 20.8141 30.3703 20.8141 23.7531C20.8141 15.3313 6.61719 17.9953 6.61719 14.3859C6.61719 13.4234 7.02969 12.1344 10.2953 12.1344C13.5609 12.1344 14.0766 13.6813 14.3 15.125L20.1438 15.1594H20.1266Z" fill="#1D1D1B"/>
<path d="M74.2844 34.8907V43.3641C74.2844 45.9078 73.4594 48.125 69.9016 48.125C67.1344 48.125 66 46.5438 65.9312 45.4266H67.0828C67.3922 46.836 68.5953 47.1453 69.9016 47.1453C72.8578 47.1453 73.2016 44.8766 73.2016 42.7797C72.8394 43.3353 72.3416 43.7895 71.7552 44.0992C71.1688 44.409 70.5131 44.5641 69.85 44.55C66.9969 44.55 65.6562 42.2813 65.6562 39.5657C65.6562 36.8328 66.8766 34.6328 69.9187 34.6328C70.5819 34.6396 71.2319 34.8191 71.8046 35.1537C72.3772 35.4882 72.8528 35.9663 73.1844 36.5407V34.8907H74.2844ZM66.825 39.7032C66.7627 40.1678 66.797 40.6403 66.9259 41.0911C67.0548 41.5419 67.2755 41.9611 67.574 42.3226C67.8725 42.6841 68.2425 42.98 68.6608 43.1917C69.0791 43.4035 69.5366 43.5265 70.0047 43.5532C70.4666 43.5165 70.9167 43.3882 71.3285 43.1758C71.7403 42.9633 72.1057 42.671 72.4033 42.3158C72.7009 41.9606 72.9248 41.5496 73.0618 41.107C73.1989 40.6643 73.2464 40.1988 73.2016 39.7375C73.2016 37.4688 72.2562 35.6125 70.0047 35.6125C68.0109 35.6125 66.8422 37.0563 66.8422 39.7203L66.825 39.7032ZM77.6187 36.661C77.8025 36.0133 78.2119 35.4527 78.7731 35.0807C79.3342 34.7087 80.01 34.5498 80.6781 34.6328V35.8188C78.2375 35.8188 77.5844 37.5547 77.5844 39.6688V44.2063H76.4844V34.8907H77.5672L77.6187 36.661ZM89.8906 39.5828C89.9496 40.1982 89.8822 40.8191 89.6926 41.4075C89.5029 41.9959 89.1951 42.5393 88.7879 43.0045C88.3807 43.4696 87.8828 43.8466 87.3246 44.1124C86.7665 44.3782 86.1599 44.5271 85.5422 44.55C84.9152 44.551 84.2953 44.4175 83.7243 44.1585C83.1534 43.8995 82.6446 43.5209 82.2324 43.0485C81.8203 42.576 81.5143 42.0206 81.3351 41.4198C81.1559 40.819 81.1077 40.1867 81.1938 39.5657C81.0969 38.9385 81.1368 38.2978 81.3108 37.6875C81.4849 37.0772 81.7888 36.5118 82.2019 36.03C82.615 35.5483 83.1274 35.1616 83.7039 34.8964C84.2805 34.6313 84.9076 34.494 85.5422 34.494C86.1768 34.494 86.8039 34.6313 87.3805 34.8964C87.957 35.1616 88.4694 35.5483 88.8825 36.03C89.2956 36.5118 89.5995 37.0772 89.7735 37.6875C89.9475 38.2978 89.9875 38.9385 89.8906 39.5657V39.5828ZM82.3453 39.5828C82.3453 41.8516 83.4625 43.536 85.5422 43.536C87.6219 43.536 88.7219 41.5938 88.7219 39.5828C88.7219 37.5547 87.8281 35.6125 85.5422 35.6125C83.2562 35.6125 82.3453 37.5547 82.3453 39.5657V39.5828ZM92.2453 34.8907V41.0438C92.2453 42.6594 92.95 43.5532 94.6516 43.5532C96.3531 43.5532 97.4531 42.075 97.4531 40.0125V34.8907H98.5531V44.275H97.4531V43.0719C97.1111 43.5505 96.6597 43.9406 96.1366 44.2097C95.6134 44.4787 95.0336 44.619 94.4453 44.6188C93.9865 44.6673 93.5226 44.6109 93.0888 44.4538C92.655 44.2966 92.2627 44.0428 91.9414 43.7116C91.6202 43.3805 91.3785 42.9805 91.2346 42.5422C91.0907 42.1038 91.0484 41.6384 91.1109 41.1813V34.8907H92.2453ZM101.698 47.9532H100.616V34.8907H101.698V36.5407C102.027 35.9648 102.502 35.4864 103.076 35.1542C103.65 34.8221 104.301 34.6481 104.964 34.65C107.972 34.65 109.192 36.9016 109.192 39.5485C109.192 42.2125 107.886 44.5328 104.998 44.5328C104.338 44.544 103.685 44.3894 103.099 44.0831C102.514 43.7769 102.014 43.3288 101.647 42.7797L101.698 47.9703V47.9532ZM101.698 39.7032C101.639 40.1656 101.674 40.6354 101.801 41.0839C101.929 41.5324 102.147 41.9502 102.441 42.312C102.735 42.6737 103.1 42.9719 103.513 43.1882C103.926 43.4045 104.379 43.5345 104.844 43.5703C105.309 43.5381 105.762 43.4129 106.178 43.2024C106.594 42.9919 106.963 42.7001 107.265 42.3445C107.566 41.9888 107.793 41.5764 107.932 41.1316C108.071 40.6868 108.12 40.2186 108.075 39.7547C108.075 37.486 107.095 35.6297 104.844 35.6297C102.97 35.6297 101.681 37.0735 101.681 39.7375L101.698 39.7032Z" fill="#1D1D1B"/>
</g>
<defs>
<clipPath id="clip0_826_29752">
<rect width="110" height="48.125" fill="white"/>
</clipPath>
</defs>
</svg>
