<svg width="110" height="28" viewBox="0 0 110 28" fill="none" xmlns="http://www.w3.org/2000/svg">
<g clip-path="url(#clip0_826_29335)">
<path d="M73.4776 19.0217C72.89 19.1459 72.0304 19.2053 70.8964 19.2053C69.9639 19.2053 69.2261 19.0388 68.6786 18.7023C68.1326 18.3665 67.8577 17.7577 67.8577 16.8818C67.8577 16.4362 67.9593 16.0587 68.1635 15.7616C68.3646 15.469 68.6337 15.2397 68.9682 15.0772C69.3021 14.913 69.6759 14.8014 70.0911 14.741C70.5066 14.679 70.9166 14.6488 71.321 14.6488C71.7864 14.6488 72.2109 14.679 72.5973 14.741C72.9801 14.8014 73.2747 14.8609 73.4777 14.9233V19.0216L73.4776 19.0217ZM76.7112 9.15601C76.4974 8.36859 76.1457 7.70132 75.6489 7.15347C75.153 6.60285 74.4881 6.1718 73.661 5.86671C72.8295 5.56146 71.8077 5.40808 70.5906 5.40808C69.5781 5.40808 68.6282 5.48891 67.7374 5.65417C66.8445 5.81487 66.1678 5.97962 65.7014 6.14457L66.1598 9.14136C66.6024 8.97838 67.1796 8.8348 67.8894 8.71345C68.5971 8.59099 69.3761 8.53006 70.2264 8.53006C70.8561 8.53006 71.376 8.61039 71.7924 8.77488C72.2069 8.93913 72.5393 9.16632 72.7934 9.46282C73.0468 9.75675 73.2217 10.1011 73.3243 10.4868C73.4251 10.8745 73.4776 11.2832 73.4776 11.7094V12.3253C72.9715 12.2001 72.4938 12.1142 72.0503 12.0603C71.6047 12.0132 71.1797 11.9863 70.7741 11.9863C69.9052 11.9863 69.0677 12.0734 68.2684 12.2457C67.4686 12.4218 66.7654 12.7059 66.1598 13.1052C65.5516 13.5011 65.0712 14.0135 64.7162 14.6487C64.3637 15.2792 64.1855 16.0538 64.1855 16.9733C64.1855 17.9324 64.3424 18.7393 64.6562 19.3897C64.9681 20.0448 65.4051 20.5754 65.9605 20.9819C66.5173 21.3888 67.1897 21.6842 67.9807 21.8686C68.7694 22.0527 69.6416 22.1452 70.5906 22.1452C72.0305 22.1452 73.32 22.0575 74.4648 21.8855C75.6069 21.7097 76.4616 21.5621 77.0319 21.4409V11.7396C77.0319 10.8031 76.9247 9.94115 76.7112 9.15601H76.7112Z" fill="#007F3A"/>
<path d="M45.1009 19.0216C44.5131 19.1459 43.6516 19.2053 42.5176 19.2053C41.585 19.2053 40.8481 19.0387 40.3003 18.7022C39.7538 18.3664 39.4826 17.7576 39.4826 16.8818C39.4826 16.4361 39.5825 16.0586 39.7865 15.7616C39.9894 15.4689 40.2543 15.2396 40.5895 15.0772C40.9262 14.9129 41.2998 14.8013 41.7122 14.7409C42.1284 14.6789 42.5381 14.6487 42.9451 14.6487C43.4077 14.6487 43.8345 14.6789 44.2188 14.7409C44.6034 14.8013 44.8962 14.8608 45.1009 14.9232V19.0216V19.0216ZM47.2721 7.15335C46.7734 6.60272 46.1128 6.17168 45.2834 5.86659C44.4504 5.56134 43.4294 5.40796 42.2136 5.40796C41.2035 5.40796 40.2526 5.48879 39.3607 5.65405C38.469 5.81475 37.7912 5.9795 37.324 6.14445L37.7814 9.14124C38.2265 8.97826 38.8042 8.83468 39.5113 8.71333C40.2213 8.59086 40.9986 8.52994 41.8513 8.52994C42.478 8.52994 43.0001 8.61027 43.4153 8.77476C43.8297 8.939 44.1634 9.16619 44.4158 9.4627C44.6692 9.75663 44.8463 10.1009 44.9472 10.4867C45.0491 10.8744 45.1009 11.2831 45.1009 11.7093V12.3252C44.5947 12.2 44.1177 12.1141 43.6751 12.0602C43.2263 12.0131 42.8029 11.9862 42.3969 11.9862C41.5255 11.9862 40.6908 12.0733 39.8907 12.2455C39.0945 12.4216 38.3882 12.7058 37.7813 13.105C37.1734 13.501 36.6927 14.0134 36.3403 14.6486C35.9839 15.2791 35.8079 16.0537 35.8079 16.9732C35.8079 17.9323 35.9634 18.7392 36.277 19.3896C36.5916 20.0447 37.0271 20.5753 37.5844 20.9818C38.1406 21.3887 38.8136 21.6841 39.6029 21.8685C40.3935 22.0526 41.2638 22.1451 42.2134 22.1451C43.6515 22.1451 44.9423 22.0574 46.0861 21.8853C47.2298 21.7096 48.0859 21.562 48.6539 21.4408V11.7395C48.6539 10.803 48.5475 9.94103 48.334 9.15589C48.122 8.36847 47.7663 7.7012 47.272 7.15335H47.2721Z" fill="#007F3A"/>
<path d="M49.9153 8.866H55.0168V21.7759H58.6925V8.866H63.8241V5.77747H49.9153V8.866Z" fill="#007F3A"/>
<path d="M18.1255 21.7765H22.4899C24.7253 17.5565 25.8078 13.5261 26.4424 9.08172H29.4204V21.7765H33.1854V5.77454H22.8622C22.5664 10.7999 21.0171 16.8666 18.1255 21.7765Z" fill="#007F3A"/>
<path d="M13.785 18.3096C12.9365 18.5855 11.8326 18.723 10.4776 18.723C9.34209 18.723 8.37012 18.534 7.56179 18.1574C6.75139 17.7791 6.08375 17.2511 5.55718 16.5682C5.02959 15.8831 4.63947 15.0732 4.38782 14.1367C4.13441 13.1976 4.00796 12.1691 4.00796 11.0431C4.00796 9.77687 4.16978 8.66824 4.49468 7.70729C4.81826 6.75007 5.2679 5.95483 5.84469 5.32332C6.4225 4.69211 7.10639 4.21398 7.89492 3.89984C8.6832 3.58399 9.53402 3.4253 10.445 3.4253C11.4992 3.4253 12.4744 3.56363 13.3773 3.83821C14.2776 4.11223 14.9712 4.40313 15.4567 4.71227L16.5796 1.55877C16.4379 1.47642 16.1956 1.34496 15.8509 1.16228C15.5074 0.980456 15.0731 0.806109 14.5462 0.641159C14.0186 0.477421 13.4032 0.330557 12.6922 0.195515C11.984 0.0632522 11.1932 -0.00146484 10.3234 -0.00146484C8.88705 -0.00146484 7.54057 0.240883 6.28563 0.734319C5.02969 1.22194 3.93814 1.94186 3.00558 2.89105C2.07332 3.83816 1.34042 4.99665 0.803784 6.36167C0.268619 7.72916 0 9.29849 0 11.0746C0 12.8515 0.232496 14.4211 0.699207 15.7861C1.1646 17.1536 1.83299 18.3096 2.70276 19.2584C3.57409 20.2076 4.63608 20.9252 5.89299 21.4167C7.14514 21.9044 8.56563 22.151 10.1425 22.151C10.9518 22.151 11.7125 22.1062 12.4218 22.013C13.127 21.9223 13.7667 21.7994 14.3356 21.6462C14.9008 21.4908 15.389 21.3343 15.807 21.1689C16.2217 21.0082 16.5496 20.8459 16.7914 20.6815L15.7616 17.53C15.2944 17.7713 14.6369 18.0345 13.7851 18.3096H13.785Z" fill="#007F3A"/>
<path d="M89.5205 9.15567C92.9426 4.0447 98.6841 1.556 103.978 2.35751C101.794 0.869318 99.1593 -0.000244141 96.3233 -0.000244141C88.7701 -0.000244141 82.647 6.16844 82.647 13.7784C82.647 18.5378 85.0417 22.7333 88.683 25.2087C85.9599 20.5642 86.0979 14.2676 89.5205 9.15562L89.5205 9.15567Z" fill="#8ABE2E"/>
<path d="M109.542 10.24H109.544C109.538 10.2163 109.53 10.1929 109.523 10.1685C109.484 10.0234 109.442 9.8793 109.399 9.73622C109.385 9.69035 109.372 9.64402 109.357 9.59871C109.303 9.42592 109.245 9.25436 109.184 9.08405C109.179 9.07046 109.174 9.05561 109.169 9.04202C109.101 8.85534 109.029 8.67069 108.954 8.48811C108.939 8.45007 108.922 8.41354 108.906 8.37595C108.847 8.23793 108.787 8.10011 108.724 7.96391C108.695 7.90141 108.664 7.83897 108.634 7.77597C108.581 7.6672 108.528 7.55883 108.473 7.45178C108.436 7.38125 108.4 7.31148 108.363 7.24242C108.31 7.14365 108.257 7.04645 108.201 6.94945C108.161 6.87791 108.121 6.80658 108.079 6.73555C108.022 6.64031 107.964 6.5464 107.904 6.45248C107.862 6.38422 107.821 6.31597 107.778 6.24842C107.704 6.13607 107.629 6.02528 107.553 5.91544C107.523 5.87361 107.496 5.83006 107.467 5.78874C106.444 5.54316 105.378 5.41296 104.281 5.41296C103.997 5.41296 103.717 5.42428 103.437 5.44161C103.418 5.44267 103.398 5.44217 103.378 5.44368C103.378 5.44388 103.379 5.44494 103.379 5.44565C96.2464 5.91418 90.6045 11.8876 90.6045 19.1921C90.6045 21.3539 91.0997 23.3997 91.9804 25.2212C91.9369 19.8264 95.1909 14.4487 100.697 11.7549C102 11.1171 103.343 10.6745 104.689 10.4121C104.86 12.2575 104.714 14.1832 104.203 16.1054C102.663 21.898 98.2452 26.0639 93.1605 27.1865C94.176 27.4291 95.234 27.5581 96.3236 27.5581C103.876 27.5581 110 21.3889 110 13.7784C110 12.5549 109.839 11.3695 109.541 10.24H109.542Z" fill="#007F3A"/>
</g>
<defs>
<clipPath id="clip0_826_29335">
<rect width="110" height="27.5595" fill="white"/>
</clipPath>
</defs>
</svg>
