<svg width="110" height="26" viewBox="0 0 110 26" fill="none" xmlns="http://www.w3.org/2000/svg">
<path d="M0 25.2795H25.2192V0H0V25.2795ZM16.1644 1.93061C20.6219 3.39501 23.8431 7.63093 23.8553 12.6349C23.8674 17.5576 20.7112 21.7834 16.1644 23.3448V1.93061ZM12.6055 1.3577C13.4109 1.3577 14.2687 1.46541 14.9831 1.608C14.9831 7.33512 9.45693 12.0484 3.75361 12.0484L1.36894 12.0448C1.75999 6.17412 6.60653 1.3577 12.6055 1.3577ZM3.75563 13.2407C9.45794 13.2407 14.9821 17.9489 14.9821 23.6705C14.2687 23.8166 13.368 23.9253 12.6055 23.9253C6.60451 23.9173 1.59398 19.0862 1.36742 13.2407H3.75563ZM33.6614 14.8609V13.2675H38.909V11.2363H33.6604V8.27868H39.2436V6.25199H31.5123V14.7688C31.5123 16.9219 32.4271 18.3944 34.5747 18.6968C34.6175 18.7074 34.6599 18.7155 34.6993 18.7165H34.7381C34.9581 18.7413 35.1827 18.7575 35.4183 18.7575H39.3924V16.7333H35.436C34.7533 16.7333 33.6614 16.3955 33.6614 14.8609ZM40.9188 18.7605H43.0678V6.24896H40.9188V18.7605ZM49.3767 9.42754C46.6605 9.42754 44.6275 11.303 44.6275 14.2232V14.2955C44.6275 17.1444 46.5883 18.9835 49.4306 18.9835C50.7976 18.9835 52.0747 18.6053 53.2438 17.3603L51.9485 16.0987C51.2648 16.7839 50.5993 17.1444 49.5023 17.1444C47.9012 17.1444 46.8401 16.2069 46.7679 14.7643H53.819C53.8548 14.4037 53.8548 14.0073 53.8548 14.0073C53.8559 11.4648 52.0747 9.42754 49.3767 9.42754ZM46.8224 13.2498C46.9123 12.1495 48.0279 11.2661 49.3767 11.2661C50.6356 11.2661 51.6609 12.1677 51.6609 13.2498H46.8224ZM59.8942 11.3566C60.8655 11.3566 61.5856 11.7177 62.1966 12.3482L63.5277 10.9597C62.4843 9.84168 61.2435 9.39113 59.8942 9.39113C57.1599 9.39113 54.9654 11.4284 54.9654 14.205C54.9654 16.9816 57.1599 19.0194 59.8942 19.0194C61.2435 19.0194 62.4848 18.5689 63.5277 17.4509L62.1966 16.0623C61.5856 16.6934 60.8655 17.0539 59.8942 17.0539C58.3108 17.0539 57.1059 15.8454 57.1059 14.205C57.1059 12.5647 58.3108 11.3566 59.8942 11.3566ZM67.0144 14.8644H67.0119V11.6701H68.9662V9.71324H67.0144V6.24946H64.8654V14.9913L64.8714 14.9908C64.933 17.0236 65.8544 18.4081 67.9277 18.6998C67.9706 18.7105 68.013 18.7186 68.0523 18.7191H68.0912C68.3112 18.7438 68.5357 18.7605 68.7714 18.7605H68.999L69.0065 16.7364H68.789C68.1063 16.7364 67.0144 16.3991 67.0144 14.8644ZM72.906 11.0588V9.71374H70.7746V18.7605H72.906V14.0033C72.906 12.5136 73.8551 11.5796 75.3411 11.5796C75.6812 11.5796 75.9859 11.615 76.2367 11.6696V9.58784C76.0235 9.55468 75.8082 9.5366 75.5924 9.53373C74.3026 9.53424 73.3359 10.1269 72.906 11.0588ZM81.4915 9.44423C78.7511 9.44423 76.5657 11.5255 76.5657 14.2369C76.5657 16.9467 78.7511 19.0295 81.4915 19.0295C84.2127 19.0295 86.4162 16.9467 86.4162 14.2369C86.4157 11.526 84.2127 9.44423 81.4915 9.44423ZM81.4915 17.0731C79.8975 17.0731 78.6981 15.8338 78.6981 14.2369C78.6981 12.639 79.8975 11.4006 81.4915 11.4006C83.0678 11.4006 84.2848 12.639 84.2848 14.2369C84.2843 15.8343 83.0678 17.0731 81.4915 17.0731ZM87.7372 18.7605H89.8873V6.24896H87.7372V18.7605ZM97.6382 14.9726C97.6382 16.4082 96.7965 17.0195 95.6678 17.0195C94.5395 17.0195 93.6984 16.4082 93.6984 14.9918V9.71374H91.5312V15.1708C91.5312 17.7558 93.4113 18.9941 95.6501 18.9941C97.9066 18.9941 99.8044 17.7376 99.8044 15.1167V9.71374H97.6382V14.9726ZM107.936 15.8676L106.58 13.9679L108.259 11.6762L109.696 9.71374H107.35L105.397 12.4241L103.427 9.71374H101.1L102.434 11.5437L104.215 13.9856L102.348 16.5912L100.795 18.7605H103.105L105.397 15.5653L107.69 18.7605H110L107.936 15.8676Z" fill="#041E41"/>
</svg>
