<svg width="110" height="25" viewBox="0 0 110 25" fill="none" xmlns="http://www.w3.org/2000/svg">
<path fill-rule="evenodd" clip-rule="evenodd" d="M13.2882 0.0678231C10.8169 -0.19867 8.32565 0.324953 6.15684 1.56672C3.98802 2.80849 2.24814 4.70744 1.17634 7.00256C0.104533 9.29768 -0.246575 11.8763 0.171274 14.384C0.589122 16.8917 1.75541 19.2053 3.50984 21.0069C5.26427 22.8085 7.5207 24.0096 9.969 24.4451C12.4173 24.8806 14.9373 24.5292 17.1825 23.4391C19.4278 22.349 21.2881 20.5737 22.5078 18.3573C23.7275 16.1409 24.2467 13.5922 23.994 11.0615C23.716 8.24839 22.4996 5.61932 20.5496 3.61694C18.5997 1.61455 16.0353 0.361167 13.2882 0.0678231ZM12.8985 18.8298C11.5693 19.0123 10.2177 18.7639 9.03361 18.1194C7.8495 17.475 6.89242 16.4669 6.29687 15.2369C5.70132 14.0068 5.49725 12.6166 5.71334 11.2617C5.92942 9.90682 6.5548 8.65528 7.50158 7.68301C8.44836 6.71074 9.66894 6.06662 10.9918 5.84117C12.3146 5.61573 13.6732 5.82029 14.8766 6.42611C16.0801 7.03193 17.0678 8.00855 17.701 9.21872C18.3342 10.4289 18.5811 11.8118 18.407 13.173C18.2242 14.6048 17.5855 15.9349 16.5897 16.9576C15.5939 17.9802 14.2965 18.6382 12.8985 18.8298ZM30.4274 0.554956C30.0102 0.555978 29.5985 0.652198 29.2223 0.836615C28.846 1.02103 28.5146 1.289 28.2522 1.62103C27.9898 1.95307 27.8031 2.3408 27.7055 2.75603C27.6079 3.17125 27.602 3.60353 27.6882 4.02139C27.9521 5.37513 29.1873 6.3001 30.5328 6.3001H38.3413L26.1895 22.7626C26.0997 22.8842 26.0446 23.0289 26.0306 23.1807C26.0166 23.3324 26.0442 23.4852 26.1102 23.6218C26.1762 23.7584 26.2781 23.8735 26.4045 23.9542C26.5308 24.0349 26.6766 24.0779 26.8255 24.0785H45.8867C47.2313 24.0785 48.4674 23.1537 48.7314 21.7998C48.8175 21.382 48.8117 20.9498 48.7142 20.5346C48.6167 20.1194 48.43 19.7317 48.1678 19.3996C47.9055 19.0676 47.5743 18.7995 47.1981 18.615C46.822 18.4305 46.4104 18.3341 45.9932 18.3329H36.4792L48.6216 1.88312C48.7124 1.76041 48.7679 1.61423 48.7821 1.461C48.7962 1.30776 48.7683 1.15353 48.7016 1.0156C48.6349 0.877677 48.5319 0.761514 48.4043 0.680147C48.2767 0.598781 48.1294 0.555429 47.9791 0.554956H30.4274ZM106.595 0.621225C105.964 0.774842 105.403 1.14433 105.005 1.66861C104.607 2.19288 104.395 2.84054 104.405 3.50449V13.07L89.2648 0.735626C89.1461 0.639141 89.0031 0.578929 88.8525 0.561917C88.7018 0.544905 88.5495 0.571784 88.413 0.639461C88.2766 0.707138 88.1617 0.812865 88.0813 0.944478C88.001 1.07609 87.9586 1.22824 87.959 1.38343V21.1341C87.9487 21.798 88.1601 22.4457 88.5582 22.97C88.9563 23.4943 89.5173 23.8638 90.1484 24.0173C90.5582 24.1096 90.983 24.1066 91.3914 24.0084C91.7999 23.9102 92.1817 23.7194 92.5085 23.4501C92.8353 23.1807 93.0989 22.8397 93.2799 22.4521C93.4608 22.0645 93.5544 21.6403 93.5538 21.2108V11.5625L108.695 23.8971C108.813 23.9935 108.956 24.0537 109.107 24.0707C109.257 24.0877 109.41 24.0608 109.546 23.9932C109.682 23.9255 109.797 23.8199 109.878 23.6883C109.958 23.5568 110 23.4047 110 23.2495V3.42683C110 2.99739 109.907 2.57333 109.726 2.1859C109.545 1.79848 109.281 1.45757 108.954 1.18832C108.628 0.919068 108.246 0.728336 107.838 0.630187C107.429 0.532039 107.004 0.528976 106.595 0.621225ZM67.1727 5.75019C73.5768 5.75019 78.3619 9.21476 78.3619 12.3138C78.3619 15.4129 73.5768 18.8774 67.1727 18.8774C60.7686 18.8774 55.9836 15.4129 55.9836 12.3138C55.9836 9.21476 60.7686 5.75019 67.1727 5.75019ZM67.1727 0.00527475C57.9031 0.00527475 50.3888 5.51604 50.3888 12.3138C50.3888 19.1116 57.9031 24.6224 67.1727 24.6224C76.4423 24.6224 83.9564 19.1116 83.9564 12.3138C83.9564 5.51604 76.4421 0.00527475 67.1727 0.00527475Z" fill="#0069FF"/>
</svg>
