<svg width="110" height="14" viewBox="0 0 110 14" fill="none" xmlns="http://www.w3.org/2000/svg">
<path d="M31.4698 13.678H34.4879V2.63861H38.3297V0H31.4698V13.678Z" fill="#A91631"/>
<path d="M67.9699 2.63861H70.9881V13.678H74.0091V2.63861H77.0273V0H67.9699V2.63861Z" fill="#A91631"/>
<path d="M0 0V13.678H2.94165V10.2037H6.79522L9.01911 8.21995V1.97827L6.89818 0H0ZM5.99803 7.5651H2.94165V2.63313H5.99803V7.5651Z" fill="#A91631"/>
<path d="M12.8668 0L10.743 1.97827V11.6997L12.8668 13.678H18.2L20.3239 11.6997V1.97827L18.2 0H12.8668ZM17.3028 11.0394H13.7729V2.63861H17.3028V11.0394Z" fill="#A91631"/>
<path d="M25.2571 2.63861H29.5372V0H24.3599L22.236 1.97827V11.6997L24.3599 13.678H29.5607V11.0394H25.2571V2.63861Z" fill="#A91631"/>
<path d="M41.3686 0L39.2476 1.97827V11.6997L41.3715 13.678H46.7018L48.8315 11.6997V1.97827L46.7018 0H41.3686ZM45.8075 11.0394H42.2775V2.63861H45.8075V11.0394Z" fill="#A91631"/>
<path d="M78.5979 0V13.678H81.5396V10.2037H85.3814L87.617 8.21995V1.97827L85.4961 0H78.5979ZM84.5989 7.5651H81.5514V2.63313H84.5989V7.5651Z" fill="#A91631"/>
<path d="M53.7586 2.63861H58.0416V0H52.8643L50.7404 1.97827V11.6997L52.8643 13.678H58.0652V11.0394H53.7586V2.63861Z" fill="#A91631"/>
<path d="M62.5366 2.63861H66.8167V0H61.6394L59.5155 1.97827V11.6997L61.6394 13.678H66.8402V11.0394H62.5366V2.63861Z" fill="#A91631"/>
<path d="M107.826 6.66364L109.971 0H106.944L105.311 5.16761H104.767L103.134 0H100.107L102.261 6.69378L100.078 13.6753H103.064L104.796 8.28297H105.282L107.017 13.6753H110L107.826 6.66364Z" fill="#A91631"/>
<path d="M96.3626 13.6753H99.4013L96.3714 0H91.2118L88.1789 13.6753H91.1441L91.8295 10.4119H95.6772L96.3626 13.6753ZM92.3678 7.84732L93.4621 2.64135H94.0505L95.1448 7.84732H92.3678Z" fill="#A91631"/>
</svg>
