<svg width="110" height="34" viewBox="0 0 110 34" fill="none" xmlns="http://www.w3.org/2000/svg">
<path d="M27.0772 8.84972C26.7829 9.14472 26.7829 9.5872 27.0772 9.80845C27.3715 10.1034 27.813 10.1034 28.0337 9.80845C28.328 9.51346 28.328 9.07097 28.0337 8.84972C27.7394 8.55473 27.2979 8.55473 27.0772 8.84972Z" fill="#FEFEFE"/>
<path d="M33.8461 8.40717H30.903L30.1672 9.29214C30.0201 9.43964 30.0936 9.51339 30.2408 9.58714L31.1973 10.0296L33.9197 8.77591C34.1405 8.70216 34.0669 8.40717 33.8461 8.40717ZM22.8829 22.8618H19.2776C18.3211 23.4518 18.0267 23.5993 16.7759 24.1155C16.7023 24.1155 16.6288 24.263 16.7023 24.3368L19.9398 33.4078H21.7793L18.8361 25.0743C20.7492 25.0743 25.3846 24.558 27.8863 20.5019C27.0769 21.6818 25.2374 22.8618 22.8829 22.8618ZM28.0334 9.80838C27.7391 10.1034 27.2976 10.1034 27.0769 9.80838C26.7826 9.51339 26.7826 9.0709 27.0769 8.84966C27.3712 8.55466 27.8127 8.55466 28.0334 8.84966C27.4448 8.25967 26.4883 8.25967 25.9732 8.84966C25.4582 9.43964 25.3846 10.3246 25.9732 10.9146C26.5619 11.5046 27.5184 11.5046 28.0334 10.9146C28.5485 10.3246 28.6221 9.43964 28.0334 8.84966C28.2542 9.14465 28.2542 9.51339 28.0334 9.80838ZM20.8963 26.328L23.398 33.4078H25.2374L22.5886 25.9592C22.1471 26.1067 21.5585 26.1805 20.8963 26.328ZM23.398 17.4782C23.6187 17.1832 23.7659 16.8882 23.9866 16.5195C23.913 16.4457 23.8395 16.5195 23.7659 16.5932C20.0134 20.5756 16.408 21.0919 13.612 21.0919H9.34447C9.19731 21.0919 9.12373 20.9444 9.19731 20.7969C12.5084 16.2245 16.1137 12.6108 18.8361 10.3246L11.699 16.2982C11.1104 16.7407 10.4481 17.0357 9.56521 17.0357H0.588617C0.367881 17.0357 0.44146 17.257 0.44146 17.4044C1.03009 19.3219 2.79598 21.0919 5.73912 21.0919L3.60534 23.2306C3.53176 23.3043 3.53176 23.5255 3.7525 23.5255H11.7726C17.5117 23.5255 21.117 21.0181 23.398 17.4782Z" fill="#00985F"/>
<path d="M103.452 33.4079H110V13.1272H103.452V20.5758H97.2709V13.1272H90.7224V33.4079H97.2709V25.7381H103.452V33.4079ZM25.9732 10.9147C25.3846 10.3248 25.3846 9.43977 25.9732 8.84979C26.5619 8.2598 27.5184 8.2598 28.0334 8.84979C28.5485 9.43977 28.6221 10.3248 28.0334 10.9147C27.4448 11.5047 26.4883 11.5047 25.9732 10.9147ZM27.8127 20.502C30.3144 16.4459 31.1973 10.0298 31.1973 10.0298L30.2408 9.58727C30.0936 9.51352 30.0936 9.43977 30.1672 9.29228L30.903 8.4073C30.4615 7.52232 28.8428 6.04735 26.4883 6.04735C25.0903 6.04735 23.8395 6.41609 22.7358 7.15358C22.7358 7.15358 21.1171 8.2598 18.8361 10.251C16.1137 12.6109 12.5084 16.1509 9.19732 20.7232C9.12375 20.8707 9.19732 21.0182 9.34448 21.0182H13.612C16.408 21.0182 20.0134 20.502 23.7659 16.5196C23.8395 16.4459 23.913 16.4459 23.9866 16.4459C24.0602 16.5196 24.0602 16.5933 24.0602 16.6671C23.4716 18.1421 22 21.0182 19.2776 22.7882H22.8829C25.311 22.7882 27.0769 21.682 27.8127 20.502ZM24.1338 25.3694L26.9298 33.3342H34.8763C33.2575 28.3931 31.4916 23.8207 29.7993 19.617C28.4749 22.4932 27.2241 23.8944 24.1338 25.3694ZM0 33.4079H8.02007L10.7425 24.9269H2.94314C1.98662 27.4343 1.0301 30.2368 0 33.4079ZM10.8161 15.1921L14.8629 11.8735C15.7458 9.51352 16.6288 7.15358 17.5117 5.16238C17.9532 6.19485 18.3946 7.30107 18.8361 8.4073C21.0435 6.56359 22.4415 5.45737 24.2809 4.94113C23.1773 2.50744 22.3679 0.737482 22 0H13.0234C12.2876 1.62246 9.41806 7.59607 6.03344 15.6346H9.2709C9.93311 15.6346 10.4482 15.5609 10.8161 15.1921ZM60.408 31.1217L60.8495 33.3342H66.1472V13.1272H59.5987V27.2131C59.01 27.8768 57.9064 28.6143 56.8763 28.6143C55.0368 28.6143 54.0803 27.5818 54.0803 25.6644V13.1272H47.5318V27.2131C46.9431 27.8768 45.6923 28.6143 44.5886 28.6143C42.8963 28.6143 41.9398 27.5818 41.9398 25.6644V13.1272H35.3913V26.5494C35.3913 31.4167 37.5251 33.8504 41.9398 33.8504C45.1037 33.8504 47.0167 32.6705 48.4883 31.1217C49.5184 32.9655 51.3579 33.8504 54.0803 33.8504C57.2441 33.7767 59.01 32.6705 60.408 31.1217ZM81.2308 27.1393C80.6421 27.8031 79.6856 28.5406 78.0669 28.5406C76.301 28.5406 75.3445 26.9181 75.3445 23.7469C75.3445 19.8383 76.3746 17.9208 78.5084 17.9208C79.7592 17.9208 80.3478 17.9946 81.2308 18.2158V27.1393ZM75.786 33.7767H76.0067C78.9498 33.7767 80.9365 32.7442 82.0401 31.1217L82.408 33.3342H87.7793V13.9384C85.6455 13.2747 83.1438 12.6847 78.5819 12.6847C72.0334 12.6847 68.5017 16.6671 68.5017 24.0419C68.5017 30.8268 71.0033 33.7767 75.786 33.7767Z" fill="#DC000F"/>
</svg>
