<svg width="111" height="64" viewBox="0 0 111 64" fill="none" xmlns="http://www.w3.org/2000/svg">
<path fill-rule="evenodd" clip-rule="evenodd" d="M54.3013 57.1606V50.8719H50.5218V63.2782H54.0264L58.123 57.0441V63.2782H61.9025V50.8719H58.3954L54.3013 57.1606ZM32.5059 55.8865C32.5059 56.3401 32.2756 57.2101 31.1239 57.2101H29.784V53.9258H31.2873C31.6207 53.9361 31.9362 54.0785 32.1647 54.3216C32.3932 54.5647 32.5159 54.8886 32.5059 55.2222V55.8865ZM31.6935 50.8719H25.7989V63.2782H29.7889V60.2342H31.6985C34.2793 60.2342 36.3895 58.8114 36.3895 56.2682V54.8181C36.3895 52.2848 34.2793 50.8521 31.6985 50.8521L31.6935 50.8719ZM88.1858 57.4382C88.1858 59.327 87.6904 59.5997 86.9771 59.9294C86.665 60.0706 85.8254 60.0409 85.8254 60.0409V63.2782H87.3883C90.7443 63.2782 91.9851 61.3249 92.0346 56.9474C92.0346 55.9559 92.0346 54.9793 92.0346 54.1092H94.2637V63.2806H98.2513V50.8719H88.1907V57.4382H88.1858ZM20.4367 59.1064C20.4367 59.5008 20.2801 59.8791 20.0014 60.1581C19.7227 60.437 19.3448 60.5937 18.9506 60.5937H18.6064C18.2122 60.5937 17.8343 60.437 17.5556 60.1581C17.2769 59.8791 17.1203 59.5008 17.1203 59.1064V55.0809C17.1203 54.6864 17.2769 54.3081 17.5556 54.0292C17.8343 53.7503 18.2122 53.5936 18.6064 53.5936H18.9506C19.3448 53.5936 19.7227 53.7503 20.0014 54.0292C20.2801 54.3081 20.4367 54.6864 20.4367 55.0809V59.1064ZM19.7506 50.6786H17.799C15.2207 50.6786 13.108 52.5178 13.108 55.3734V58.8437C13.108 61.7116 15.2207 63.5384 17.799 63.5384H19.7531C22.3339 63.5384 24.4589 61.6942 24.4589 58.8437V55.3734C24.4589 52.3666 22.3463 50.6786 19.7531 50.6786H19.7506ZM75.0367 50.8818H70.7148L68.607 55.5717H67.6163V50.8719H63.6436V63.2782H67.6337V58.8709H68.6244L70.7742 63.2782H75.3512L71.9531 57.0118L75.0317 50.8645L75.0367 50.8818ZM79.9902 58.5809H84.4855V55.6188H79.9828V54.1092H84.8843V50.8719H75.9927V63.2782H85.2483V60.0409H79.9828V58.571L79.9902 58.5809ZM105.275 60.2342H103.772V57.5076H105.112C106.236 57.5076 106.494 58.3355 106.494 58.8734C106.505 59.0423 106.482 59.2118 106.426 59.3716C106.37 59.5315 106.283 59.6785 106.169 59.8038C106.056 59.9292 105.918 60.0304 105.764 60.1013C105.611 60.1723 105.444 60.2116 105.275 60.2169V60.2342ZM105.684 54.5008H103.772V50.8818H99.7844V63.2881H105.684C108.262 63.2881 110.375 61.8653 110.375 59.3221V58.447C110.375 55.9137 108.262 54.481 105.684 54.481V54.5008ZM44.7906 55.475H41.3875V50.8719H37.4V63.2782H41.3875V58.8709H44.7906V63.2782H48.7782V50.8719H44.7906V55.4651V55.475ZM7.76563 55.475H4.36257V50.8719H0.375V63.2782H4.36257V58.8709H7.76563V63.2782H11.7681V50.8719H7.76563V55.475Z" fill="#626261"/>
<path fill-rule="evenodd" clip-rule="evenodd" d="M45.0061 24.6687L63.6016 37.2212V12.555L45.0061 0V24.6687Z" fill="#00589C"/>
<path fill-rule="evenodd" clip-rule="evenodd" d="M63.6014 0V37.2212C66.0434 37.2212 68.4615 36.7398 70.7176 35.8045C72.9737 34.8693 75.0237 33.4984 76.7504 31.7703C78.4772 30.0421 79.8469 27.9905 80.7814 25.7326C81.7159 23.4746 82.1969 21.0546 82.1969 18.6106C82.1969 16.1666 81.7159 13.7466 80.7814 11.4886C79.8469 9.23069 78.4772 7.17907 76.7504 5.45092C75.0237 3.72276 72.9737 2.35192 70.7176 1.41665C68.4615 0.481377 66.0434 -3.64181e-08 63.6014 0V0ZM26.4105 18.6106C26.4102 21.0548 26.8909 23.4751 27.8253 25.7333C28.7597 27.9915 30.1293 30.0435 31.8561 31.7719C33.5829 33.5003 35.633 34.8714 37.8892 35.8068C40.1455 36.7422 42.5638 37.2237 45.006 37.2237V0C40.0742 0 35.3443 1.96075 31.857 5.45092C28.3697 8.94108 26.4105 13.6748 26.4105 18.6106Z" fill="#0080C8"/>
<path fill-rule="evenodd" clip-rule="evenodd" d="M54.3013 57.1606V50.8719H50.5218V63.2782H54.0264L58.123 57.0441V63.2782H61.9025V50.8719H58.3954L54.3013 57.1606ZM32.5059 55.8865C32.5059 56.3401 32.2756 57.2101 31.1239 57.2101H29.784V53.9258H31.2873C31.6207 53.9361 31.9362 54.0785 32.1647 54.3216C32.3932 54.5647 32.5159 54.8886 32.5059 55.2222V55.8865ZM31.6935 50.8719H25.7989V63.2782H29.7889V60.2342H31.6985C34.2793 60.2342 36.3895 58.8114 36.3895 56.2682V54.8181C36.3895 52.2848 34.2793 50.8521 31.6985 50.8521L31.6935 50.8719ZM88.1858 57.4382C88.1858 59.327 87.6904 59.5997 86.9771 59.9294C86.665 60.0706 85.8254 60.0409 85.8254 60.0409V63.2782H87.3883C90.7443 63.2782 91.9851 61.3249 92.0346 56.9474C92.0346 55.9559 92.0346 54.9793 92.0346 54.1092H94.2637V63.2806H98.2513V50.8719H88.1907V57.4382H88.1858ZM20.4367 59.1064C20.4367 59.5008 20.2801 59.8791 20.0014 60.1581C19.7227 60.437 19.3448 60.5937 18.9506 60.5937H18.6064C18.2122 60.5937 17.8343 60.437 17.5556 60.1581C17.2769 59.8791 17.1203 59.5008 17.1203 59.1064V55.0809C17.1203 54.6864 17.2769 54.3081 17.5556 54.0292C17.8343 53.7503 18.2122 53.5936 18.6064 53.5936H18.9506C19.3448 53.5936 19.7227 53.7503 20.0014 54.0292C20.2801 54.3081 20.4367 54.6864 20.4367 55.0809V59.1064ZM19.7506 50.6786H17.799C15.2207 50.6786 13.108 52.5178 13.108 55.3734V58.8437C13.108 61.7116 15.2207 63.5384 17.799 63.5384H19.7531C22.3339 63.5384 24.4589 61.6942 24.4589 58.8437V55.3734C24.4589 52.3666 22.3463 50.6786 19.7531 50.6786H19.7506ZM75.0367 50.8818H70.7148L68.607 55.5717H67.6163V50.8719H63.6436V63.2782H67.6337V58.8709H68.6244L70.7742 63.2782H75.3512L71.9531 57.0118L75.0317 50.8645L75.0367 50.8818ZM79.9902 58.5809H84.4855V55.6188H79.9828V54.1092H84.8843V50.8719H75.9927V63.2782H85.2483V60.0409H79.9828V58.571L79.9902 58.5809ZM105.275 60.2342H103.772V57.5076H105.112C106.236 57.5076 106.494 58.3355 106.494 58.8734C106.505 59.0423 106.482 59.2118 106.426 59.3716C106.37 59.5315 106.283 59.6785 106.169 59.8038C106.056 59.9292 105.918 60.0304 105.764 60.1013C105.611 60.1723 105.444 60.2116 105.275 60.2169V60.2342ZM105.682 54.5008H103.772V50.8818H99.7844V63.2881H105.682C108.262 63.2881 110.375 61.8653 110.375 59.3221V58.447C110.375 55.9137 108.262 54.481 105.682 54.481V54.5008ZM44.7906 55.475H41.3875V50.8719H37.4V63.2782H41.3875V58.8709H44.7906V63.2782H48.7782V50.8719H44.7906V55.4651V55.475ZM7.76563 55.475H4.36257V50.8719H0.375V63.2782H4.36257V58.8709H7.76563V63.2782H11.7681V50.8719H7.76563V55.475Z" fill="#626261"/>
</svg>
