<svg width="110" height="35" viewBox="0 0 110 35" fill="none" xmlns="http://www.w3.org/2000/svg">
<path d="M7.21025 29.2618C2.53782 29.2618 0 25.8837 0 21.6511C0 17.3737 2.98721 13.8738 7.89203 13.8738C9.19403 13.8738 10.3252 14.045 11.3055 14.5586V17.3166C10.3148 16.6971 9.1674 16.3758 7.99976 16.3911C4.67242 16.3911 3.4443 18.8591 3.4443 21.4382C3.4443 24.3242 4.99254 26.6117 7.70119 26.6117C8.89546 26.6117 9.8558 26.2801 11.0101 25.66L11.8396 27.8951C10.1128 28.9856 8.63844 29.2633 7.21025 29.2633V29.2618ZM59.7504 29.2633C56.2953 29.2633 54.5178 26.7197 54.5178 23.6825C54.5178 20.289 56.8648 18.0385 60.0013 18.0385C61.3864 18.0385 62.1128 18.3162 62.6884 18.6555V21.0927C61.9189 20.5374 61.3033 20.3446 60.4491 20.3446C58.6777 20.3446 57.5388 21.6495 57.5388 23.5298C57.5388 25.2189 58.4222 26.8663 60.406 26.8663C60.9601 26.8663 61.6942 26.6256 62.4837 26.2199L63.2224 28.2344C62.3252 28.8329 60.8323 29.2602 59.7442 29.2602L59.7504 29.2633ZM69.3584 20.687V29.0458H66.2804V20.6885H63.3055V18.2514H72.735L72.0686 20.6885L69.3584 20.687ZM84.2129 19.5116C84.2129 23.2738 84.059 25.2405 83.3819 26.1444C83.0287 26.5949 82.5173 26.8934 81.9521 26.9789L82.8047 29.2664C83.5096 29.2448 84.5977 28.9455 85.3441 28.1974C86.326 27.2349 86.6445 26.0163 86.7938 24.733C86.9308 23.5692 87.0023 22.3987 87.0077 21.2269V20.6932H89.4163V29.052H92.4943V18.2545H84.2191L84.2129 19.5116ZM49.3883 18.0385C48.194 18.0385 47.2767 18.617 46.4872 19.237L46.1456 18.2529H43.5647V34.3104L46.6427 33.3694V28.8129C47.2863 29.128 47.9966 29.282 48.7126 29.2618C51.8907 29.2618 53.8098 26.547 53.8098 23.3401C53.8037 19.9188 51.8645 18.0385 49.3883 18.0385ZM47.9601 27.0406C47.4853 27.0398 47.0225 26.8904 46.6365 26.6133V21.5014C46.9997 20.9461 47.9601 20.2829 48.7696 20.2829C50.0008 20.2829 50.7318 21.0742 50.7318 23.2985C50.7318 25.134 50.05 27.039 47.9601 27.039V27.0406ZM77.1504 18.0385C75.6991 18.0385 74.294 18.2637 72.8196 19.2201L73.743 21.0834C74.5799 20.6061 75.5258 20.3542 76.4886 20.3523C77.5536 20.3523 78.5063 20.8243 78.5063 21.9596V22.1431L76.6441 22.2141C73.9262 22.3051 72.0902 23.4866 72.0902 25.7618C72.0902 27.8997 73.6292 29.2618 75.6699 29.2618C76.7942 29.2858 77.8838 28.8703 78.7079 28.1033L79.185 29.0489H81.5889V22.0367C81.5951 19.1954 80.0083 18.0385 77.1504 18.0385ZM78.5124 26.3773C78.004 26.7201 77.4013 26.8949 76.7887 26.877C75.7438 26.877 75.1559 26.3541 75.1559 25.5382C75.1559 24.7222 75.7899 24.2656 77.1058 24.2193L78.5124 24.1746V26.3773ZM98.4549 21.759H96.8759V17.7809L93.7978 18.6062V29.0489H97.7269C100.585 29.0489 103.252 28.2776 103.252 25.3068C103.255 22.7848 101.1 21.7575 98.4549 21.7575V21.759ZM97.9424 26.9202H96.8759V23.9H97.9008C98.9874 23.9 100.183 24.0712 100.183 25.3531C100.183 26.6349 99.1582 26.9187 97.9424 26.9187V26.9202ZM29.7644 23.1704V23.084C30.7663 22.8712 31.5989 22.2079 31.5989 20.7965C31.5989 19.1121 30.1876 18.4982 28.801 18.3115C28.3762 18.2545 27.4451 18.2529 26.9265 18.2529H22.5357V29.0504H26.2293C26.6371 29.0504 27.245 29.0504 27.7191 29.035C29.6582 28.9425 32.0529 28.2483 32.0529 25.7356C32.0467 24.1946 31.2141 23.4249 29.7644 23.1689V23.1704ZM25.6676 20.3091H26.9326C28.19 20.3091 28.6609 20.6947 28.6609 21.358C28.6609 22.1909 27.8914 22.447 26.6125 22.447H25.6737L25.6676 20.3091ZM26.8618 27.002H25.6029V24.3489H26.7125C28.1838 24.3489 28.9733 24.6913 28.9733 25.6538C28.9733 26.6765 27.9284 27.0005 26.8618 27.0005V27.002ZM21.5245 23.556C21.5245 20.2196 19.4761 18.0385 16.532 18.0385C13.3109 18.0385 11.4979 20.6469 11.4979 23.6841C11.4979 26.5269 13.0769 29.2633 16.9168 29.2633C18.4208 29.271 19.8949 28.8424 21.1613 28.0293L20.478 26.0842C19.2622 26.6626 18.4773 26.8555 17.4277 26.8555C15.998 26.8555 14.6329 25.9577 14.5682 24.5031H21.5245V23.556ZM14.5051 22.3807C14.5051 21.3965 15.21 20.2844 16.4458 20.2844C17.7494 20.2844 18.3234 21.3534 18.3881 22.3807H14.5051ZM42.6859 23.556C42.6859 20.2196 40.6375 18.0385 37.6934 18.0385C34.4722 18.0385 32.6593 20.6469 32.6593 23.6841C32.6593 26.5269 34.2383 29.2633 38.0781 29.2633C39.5821 29.2712 41.0563 28.8426 42.3227 28.0293L41.6394 26.0842C40.4251 26.6626 39.6387 26.8555 38.5891 26.8555C37.1609 26.8555 35.7958 25.9577 35.7311 24.5031H42.6859V23.556ZM35.6665 22.3807C35.6665 21.3965 36.3713 20.2844 37.6072 20.2844C38.9092 20.2844 39.4848 21.3534 39.5494 22.3807H35.6665Z" fill="#002F6C"/>
<path d="M108.723 10.6238C108.558 10.7421 108.377 10.8347 108.184 10.8984C107.569 11.0912 106.827 10.9138 106.153 10.6377C105.63 10.4198 105.125 10.1609 104.643 9.86337C104.945 9.11603 105.197 8.34923 105.397 7.56813C105.705 6.42189 105.885 5.24497 105.934 4.05894C105.957 3.47932 105.931 2.89883 105.856 2.32363C105.761 1.6002 105.54 0.864425 105.069 0.42944C104.909 0.290761 104.729 0.176427 104.535 0.0900904C105.389 -0.00628166 106.249 -0.0253831 107.106 0.033018C107.898 0.100888 108.705 0.296785 109.176 0.759535C109.647 1.22229 109.854 2.02901 109.945 2.81877C110.023 3.67436 110.018 4.53553 109.93 5.39012C109.821 6.4681 109.628 7.53577 109.351 8.58309C109.163 9.31424 108.945 10.0176 108.723 10.6238ZM97.1113 10.0253C97.0922 9.82277 97.1031 9.61849 97.1436 9.41913C97.2806 8.80213 97.8085 8.23449 98.384 7.78716C98.836 7.44122 99.3146 7.13175 99.8153 6.86166C100.309 7.49998 100.845 8.10397 101.421 8.66947C102.259 9.51016 103.188 10.2551 104.191 10.8907C104.681 11.1999 105.195 11.4677 105.73 11.6912C106.402 11.9704 107.149 12.154 107.76 11.9535C107.96 11.8856 108.149 11.7867 108.32 11.6604C107.978 12.4493 107.566 13.2057 107.089 13.9201C106.627 14.5742 106.062 15.1773 105.427 15.3531C104.791 15.529 103.991 15.3084 103.272 14.9845C102.49 14.6258 101.744 14.1919 101.045 13.6888C100.171 13.0548 99.3472 12.3529 98.5826 11.5894C98.0208 11.0619 97.5268 10.5251 97.1113 10.0253ZM103.421 0.241255C103.606 0.324834 103.777 0.436139 103.929 0.57135C104.398 1.00325 104.62 1.74211 104.719 2.46554C104.79 3.02811 104.816 3.59551 104.797 4.16229C104 4.27264 103.212 4.43756 102.438 4.65589C101.293 4.96135 100.186 5.39279 99.1366 5.94233C98.6245 6.21299 98.136 6.52619 97.6761 6.87863C97.099 7.32287 96.5726 7.8828 96.4341 8.50905C96.3926 8.71773 96.3838 8.93162 96.408 9.14302C95.8971 8.45081 95.45 7.71356 95.0721 6.94033C94.7351 6.2169 94.4996 5.41943 94.6643 4.78083C94.8289 4.14224 95.423 3.55609 96.0648 3.08408C96.7661 2.58464 97.5139 2.15433 98.2979 1.79918C99.2839 1.35507 100.303 0.989395 101.347 0.705548C102.065 0.514278 102.776 0.3554 103.421 0.241255Z" fill="#002F6C"/>
</svg>
