<svg width="110" height="19" viewBox="0 0 110 19" fill="none" xmlns="http://www.w3.org/2000/svg">
<path fill-rule="evenodd" clip-rule="evenodd" d="M18.5814 14.8638L14.8656 18.5791H1.11873L0 17.4605V3.71532L3.71578 0H17.4627L18.5814 1.11859V14.8638Z" fill="#ED1C24"/>
<path fill-rule="evenodd" clip-rule="evenodd" d="M17.4627 0L13.2824 4.17724V10.277L9.8588 5.57298H2.642V7.05361H4.76958V12.689L0 17.4605V18.5791H1.11873L6.37276 13.3257V7.05361H8.49784V13.0036H10.0835V8.30204L13.5047 13.0036H14.8656V4.83391L18.5814 1.11859V0H17.4627Z" fill="white"/>
<path fill-rule="evenodd" clip-rule="evenodd" d="M24.5271 7.37822H22.2971V5.573H28.8147V7.37822H26.5872V13.0036H24.5271V7.37822Z" fill="black"/>
<path fill-rule="evenodd" clip-rule="evenodd" d="M29.8986 5.573H35.8768V7.32579H31.9362V8.45187H35.5047V10.0748H31.9362V11.2533H35.9292V13.0061H29.8986V5.573Z" fill="black"/>
<path fill-rule="evenodd" clip-rule="evenodd" d="M39.3203 9.22589L36.8781 5.573H39.2454L40.5614 7.66536L41.8899 5.573H44.2048L41.7625 9.20342L44.3096 13.0036H41.9448L40.5189 10.764L39.0881 13.0036H36.7732L39.3203 9.22589Z" fill="black"/>
<path fill-rule="evenodd" clip-rule="evenodd" d="M45.286 5.573H47.3437V8.35699H49.9882V5.573H52.0483V13.0036H49.9882V10.1797H47.3437V13.0036H45.286V5.573Z" fill="black"/>
<path fill-rule="evenodd" clip-rule="evenodd" d="M53.2844 9.28829C53.2844 7.15598 55.005 5.42566 57.2999 5.42566C59.5948 5.42566 61.2953 7.13351 61.2953 9.28829C61.2953 11.4431 59.5748 13.1534 57.2824 13.1534C54.99 13.1534 53.2869 11.4431 53.2869 9.28829H53.2844ZM59.1877 9.28829C59.1964 9.03097 59.1535 8.77452 59.0617 8.53399C58.9699 8.29346 58.8309 8.0737 58.6529 7.88762C58.475 7.70154 58.2616 7.55289 58.0254 7.45041C57.7892 7.34792 57.5349 7.29366 57.2774 7.29081C56.1512 7.29081 55.397 8.20466 55.397 9.28829C55.3877 9.54516 55.4298 9.8013 55.5209 10.0416C55.6121 10.282 55.7503 10.5017 55.9276 10.6878C56.1049 10.8739 56.3177 11.0227 56.5533 11.1254C56.789 11.2281 57.0428 11.2826 57.2999 11.2858C58.4336 11.2958 59.1827 10.3819 59.1827 9.28829H59.1877Z" fill="black"/>
<path fill-rule="evenodd" clip-rule="evenodd" d="M62.5364 5.573H64.599V8.35699H67.241V5.573H69.3012V13.0036H67.241V10.1797H64.599V13.0036H62.5364V5.573Z" fill="black"/>
<path fill-rule="evenodd" clip-rule="evenodd" d="M70.9044 5.573H72.9421V9.75523L75.8213 5.573H77.7417V13.0036H75.704V8.8239L72.8247 13.0036H70.9044V5.573Z" fill="black"/>
<path fill-rule="evenodd" clip-rule="evenodd" d="M79.3447 5.573H81.4049V8.5892L83.962 5.573H86.4067L83.5924 8.76897L86.4991 13.0061H84.0269L82.159 10.2446L81.4049 11.0836V13.0061H79.3447V5.573Z" fill="black"/>
<path fill-rule="evenodd" clip-rule="evenodd" d="M86.5167 9.28829C86.5167 7.15598 88.2347 5.42566 90.5296 5.42566C92.8245 5.42566 94.525 7.13351 94.525 9.28829C94.525 11.4431 92.8045 13.1534 90.5096 13.1534C88.2147 13.1534 86.5142 11.4431 86.5142 9.28829H86.5167ZM92.4174 9.28829C92.4264 9.03089 92.3838 8.77429 92.2921 8.5336C92.2004 8.29292 92.0614 8.07303 91.8834 7.88688C91.7054 7.70073 91.4919 7.55209 91.2555 7.44972C91.0192 7.34735 90.7647 7.29332 90.5071 7.29081C89.3834 7.29081 88.6293 8.20466 88.6293 9.28829C88.6293 10.3719 89.4034 11.2858 90.5296 11.2858C91.6558 11.2858 92.4174 10.3819 92.4174 9.28829Z" fill="black"/>
<path fill-rule="evenodd" clip-rule="evenodd" d="M103.725 5.573H105.785V7.91005H106.908C108.694 7.91005 110 8.75898 110 10.4344C110 12.0374 108.831 13.0061 107.018 13.0061H103.725V5.573ZM106.856 11.2758C107.535 11.2758 107.94 10.9662 107.94 10.3819C107.94 9.86259 107.535 9.52302 106.869 9.52302H105.785V11.2708L106.856 11.2758Z" fill="black"/>
<path fill-rule="evenodd" clip-rule="evenodd" d="M96.3455 5.573V8.83389C96.3455 9.60292 96.2681 10.719 95.7587 11.1135C95.5016 11.303 95.1959 11.4156 94.8772 11.4381V13.1859H95.072C95.7071 13.1728 96.3301 13.0094 96.8899 12.709C98.1385 11.9225 98.2858 10.4219 98.2858 8.72652V7.37822H100.061V13.0036H102.134V5.573H96.3455Z" fill="black"/>
</svg>
