<svg width="110" height="22" viewBox="0 0 110 22" fill="none" xmlns="http://www.w3.org/2000/svg">
<path fill-rule="evenodd" clip-rule="evenodd" d="M0 10.835C0 16.8092 5.20208 21.6701 11.5958 21.6701C17.9896 21.6701 23.1918 16.8092 23.1918 10.835C23.1918 4.86076 17.9896 2.1413e-07 11.5958 0C5.20208 0 0 4.86074 0 10.835ZM0.412505 10.835C0.412505 5.05345 5.43125 0.364025 11.6187 0.364025C17.7833 0.364025 22.8251 5.05348 22.8251 10.835C22.8251 16.5951 17.8062 21.306 11.6187 21.306C5.43125 21.306 0.412505 16.6165 0.412505 10.835Z" fill="#0D356C"/>
<path fill-rule="evenodd" clip-rule="evenodd" d="M3.62182 7.87988C6.57807 6.05977 9.85515 5.01053 15.4239 5.90988C15.7218 5.73857 15.9052 5.58868 15.9739 5.24608C14.576 4.77499 13.0864 4.6251 11.1385 4.64651C9.39682 4.68934 6.23432 5.2889 4.5614 6.23107L5.06557 5.63151C6.23432 4.98912 9.30515 4.1326 11.5968 4.08977C13.2239 4.06836 14.0489 4.15401 15.9739 4.6251C15.8135 4.32532 15.401 4.15401 14.8281 3.91847C12.9718 3.1476 9.48848 3.06195 6.6239 4.23966C6.99057 4.02553 7.33432 3.8114 7.79265 3.61869C8.73223 3.21184 10.2677 2.82641 12.1927 2.86923C13.7281 2.89064 15.5614 3.38314 16.6614 4.43238C16.8447 4.64651 16.9593 4.86064 17.0052 5.03195C17.8989 5.43879 18.4031 5.84564 18.701 6.29531C18.8156 6.53086 18.8614 6.78781 18.8156 7.08759C19.1822 7.30172 19.3656 7.47303 19.5489 7.68716C19.6864 7.87988 19.7781 8.09401 19.801 8.28672C19.8468 8.54368 19.8697 8.84346 19.5718 9.18607C19.8697 9.31455 20.1218 9.7214 20.1447 9.8927C20.2822 10.5137 19.8468 11.1132 19.2968 11.6057C18.6552 12.1411 17.2114 12.762 16.0427 13.0618C13.7281 13.6186 11.6656 13.8327 10.0385 14.1111C10.7718 14.2824 11.7572 14.4965 13.3843 14.4965C16.8447 14.4965 19.9156 12.9548 19.9156 12.9548C19.9156 12.9548 19.8468 13.1475 19.7781 13.3402C17.5781 14.5821 14.0718 15.1175 12.5822 15.0532C11.0697 14.989 9.7864 14.7749 8.52598 14.4108C8.1364 14.4965 7.76973 14.625 7.40307 14.7749C9.30515 15.5886 10.7489 15.7599 12.376 15.8669C14.026 15.974 16.776 15.61 19.0906 14.8177C18.976 14.9248 18.9302 15.0746 18.8156 15.1603C17.6239 15.7385 15.126 16.338 13.8656 16.3808C12.6052 16.4237 11.0697 16.3808 9.74057 16.1453C8.59473 15.9312 7.65515 15.5886 6.69265 15.2031C6.50932 15.3316 6.41765 15.4815 6.39473 15.6528C10.2218 17.5157 13.7968 17.5586 17.8531 16.3808L17.4864 16.7234C13.0177 18.4151 9.5114 17.7513 6.80723 16.5307C6.71557 16.4879 6.60098 16.4451 6.53223 16.4023C6.78432 16.8091 8.84682 18.2224 11.1614 18.3937C12.7656 18.5221 14.7135 18.2652 15.8593 17.8369L15.1947 18.1581C14.6218 18.4151 13.1552 18.9932 11.0697 18.8648C8.31974 18.6934 6.7614 17.5586 6.05098 16.959C5.73015 16.6806 5.56973 16.3594 5.47807 15.9526C4.85932 15.6528 4.46973 15.3316 4.12598 14.8605C3.94265 14.5821 3.96557 14.261 4.0114 14.004C4.03432 13.9183 4.05723 13.8541 4.08015 13.7685C3.78223 13.5757 3.48432 13.3402 3.34682 13.1261C3.07182 12.6764 3.23223 12.2695 3.43848 11.9698C3.27807 11.7985 3.11765 11.6272 3.0489 11.4558C2.98015 11.2417 2.95723 11.049 2.98015 10.8135C3.02598 10.428 3.25515 10.064 3.53015 9.76422C4.12598 9.12183 5.08848 8.60792 6.71557 8.11542C8.29682 7.62292 8.93848 7.55868 10.1531 7.28031C11.551 6.98053 13.2239 6.87346 14.6218 6.42379C10.7031 5.7814 6.64682 6.35955 3.34682 8.50085L3.62182 7.87988ZM16.9364 5.6101C16.8906 5.7814 16.6843 5.99553 16.5468 6.14542C16.9822 6.25249 17.3947 6.40238 17.8072 6.55227C17.7614 6.18825 17.3031 5.84564 16.9364 5.6101ZM4.88223 12.9119C4.63015 12.7835 4.46973 12.6978 4.24057 12.5479C4.12598 12.7835 4.33223 13.0404 4.5614 13.1475C4.67598 13.0832 4.79057 12.9976 4.88223 12.9119ZM18.0593 8.13683C18.3343 8.26531 18.5864 8.37238 18.8385 8.52227C19.0218 8.20107 18.9072 8.00835 18.5406 7.70857C18.4031 7.87988 18.2427 8.00835 18.0593 8.13683ZM17.2343 8.62933C16.6614 8.86487 15.8364 9.12183 14.6677 9.4002C13.7052 9.61433 11.3677 9.93552 8.84682 10.4494C8.04473 10.6207 5.89057 11.0918 4.8364 11.9269C5.13432 12.1411 5.31765 12.2053 5.63848 12.3766C6.0739 12.1197 6.66973 11.8627 7.56348 11.6486C9.0989 11.2631 10.2677 11.0918 11.6427 10.8991C13.0177 10.7064 15.6072 10.1925 17.051 9.69998C17.5093 9.55009 17.9447 9.33596 18.2885 9.10042C18.1968 8.99335 17.2572 8.5865 17.2343 8.62933ZM6.3489 14.2395C6.55515 14.1111 6.80723 14.004 7.10515 13.8969C6.69265 13.747 6.28015 13.5757 5.86765 13.383C5.68432 13.4901 5.50098 13.6186 5.36348 13.7256C5.70723 13.9183 6.02807 14.0896 6.3489 14.2395ZM5.01973 14.368C5.01973 14.6036 5.18015 14.8177 5.5239 15.0961C5.56973 14.9676 5.63848 14.8605 5.73015 14.7535C5.50098 14.625 5.2489 14.4965 5.01973 14.368ZM6.96765 9.8927C9.7864 9.12183 12.7656 8.88629 15.7677 8.13683C14.5989 7.83705 13.9572 7.70857 12.6968 7.85846C10.8864 8.05118 8.91557 8.4152 7.21973 8.88629C6.55515 9.079 3.0489 9.99976 4.05723 11.306C4.08015 11.3274 4.67598 10.5351 6.96765 9.8927ZM17.5781 7.19466C17.1197 7.00194 16.5468 6.80922 15.9281 6.65933C15.6531 6.87346 15.3322 7.04477 14.8739 7.21607C15.6302 7.34455 16.2031 7.53727 16.8447 7.70857C16.9822 7.7514 17.5093 7.30172 17.5781 7.19466ZM18.976 9.74281C18.8843 9.80705 18.7927 9.87129 18.701 9.95694C18.0593 10.428 17.051 10.792 15.6531 11.1347C12.7427 11.8627 10.6343 11.9698 8.22807 12.5265C7.76973 12.6336 7.26557 12.7835 6.80723 12.9548C7.26557 13.1689 7.74682 13.3616 8.22807 13.5329C9.19057 13.276 9.67182 13.1475 11.0927 12.9333C11.6197 12.8477 13.2927 12.5693 14.4843 12.3338C16.6614 11.9055 19.8239 10.9633 18.976 9.74281Z" fill="#0D356C"/>
<path d="M34.306 15.5673H36.6893L36.9872 13.9185H38.6372L38.9351 15.5673H41.3185L39.3018 6.0813H36.3456L34.306 15.5673ZM37.8122 8.95066L38.2476 11.8414H37.3539L37.8122 8.95066Z" fill="#0D356C"/>
<path d="M43.5667 9.76413C43.9563 9.76413 44.6438 9.52859 44.6438 8.84337C44.6438 8.00827 43.8417 7.96544 43.6126 7.96544C43.3376 7.96544 42.8334 8.00826 42.3063 8.22239L42.2834 6.16675C43.0855 5.97403 43.6584 5.90979 44.3459 5.90979C46.2709 5.90979 47.1417 7.17316 47.1417 8.3937C47.1417 9.59283 46.3855 10.3209 45.6751 10.5992V10.6849C46.3626 10.8776 47.2792 11.4986 47.2792 12.9547C47.2792 14.7319 45.9501 15.7384 44.2313 15.7384C43.3146 15.7384 42.7188 15.6099 42.0084 15.2459L42.0542 13.2759C42.7188 13.5542 43.1771 13.5542 43.6126 13.5542C44.3688 13.5542 44.6667 13.0403 44.6667 12.6549C44.6667 12.1196 44.3001 11.7555 43.498 11.7555H42.5355V9.72131H43.5667" fill="#0D356C"/>
<path d="M48.4 6.0813H54.8167V15.5673H52.4792V8.37249H50.7604V15.5673H48.4V6.0813Z" fill="#0D356C"/>
<path d="M56.1696 15.5673H58.53V12.441H59.3091C61.6466 12.441 62.3571 10.4925 62.3571 9.2505C62.3571 8.02995 61.532 6.10278 59.3091 6.10278H56.1696V15.5673ZM58.53 8.17985H59.08C59.607 8.17985 59.9508 8.47963 59.9508 9.27191C59.9508 10.2997 59.3779 10.364 59.08 10.364H58.53V8.17985Z" fill="#0D356C"/>
<path d="M66.7346 15.6955C69.5304 15.6955 70.47 13.2544 70.47 10.8347C70.47 8.39367 69.5304 5.974 66.7346 5.974C63.9388 5.974 62.9992 8.41508 62.9992 10.8347C62.9992 13.2544 63.9388 15.6955 66.7346 15.6955ZM66.7346 13.4043C65.9096 13.4043 65.4742 12.505 65.4742 10.8347C65.4742 9.16454 65.9096 8.26519 66.7346 8.26519C67.5596 8.26519 67.995 9.16454 67.995 10.8347C67.995 12.4836 67.5596 13.4043 66.7346 13.4043Z" fill="#0D356C"/>
<path d="M80.7372 15.5673H83.556C84.1747 15.5673 86.7185 15.3317 86.7185 12.4624C86.7185 10.0427 84.7476 9.61444 83.4643 9.61444H83.0518V8.3511H86.1685V6.0813H80.7372V15.5673ZM83.0289 13.6829V11.5202H83.3726C83.6476 11.5202 84.4039 11.5416 84.4039 12.5052C84.4039 13.5116 83.6705 13.6829 83.3726 13.6829H83.0289Z" fill="#0D356C"/>
<path d="M95.1747 6.0813H97.4893V9.50738H99.1393V6.0813H101.431V15.5673H99.1393V11.7772H97.4893V15.5673H95.1747V6.0813Z" fill="#0D356C"/>
<path d="M102.989 5.98108H105.28V9.40716H105.784L107.114 5.98108H109.612L107.824 10.4992L109.864 15.4671H107.159L105.83 11.6555H105.28V15.4671H102.989V5.98108Z" fill="#0D356C"/>
<path d="M29.7475 6.08118H34.583V8.45802H32.1538V15.5886L29.7475 15.5671V6.08118Z" fill="#0D356C"/>
<path d="M71.5929 6.08118H73.5867L75.3742 8.32954L77.1388 6.08118H79.1325V15.5671H76.795V9.78563L75.3742 11.4558L73.9533 9.78563V15.5886L71.5929 15.5671V6.08118Z" fill="#0D356C"/>
<path d="M87.1541 15.5885H89.5374L89.8353 13.9397H91.4853L91.7832 15.5885H94.1666L92.1499 6.10254H89.1707L87.1541 15.5885ZM90.6603 8.97188L91.0957 11.8626H90.202L90.6603 8.97188Z" fill="#0D356C"/>
</svg>
