<svg width="110" height="46" viewBox="0 0 110 46" fill="none" xmlns="http://www.w3.org/2000/svg">
<g clip-path="url(#clip0_827_33877)">
<path d="M31.1809 6.06299C29.2715 6.06299 27.6956 6.33236 25.6826 8.1699L25.1314 6.06299H20.7874V25.9842H25.9385V12.1161C27.1256 11.0077 28.5511 10.8104 29.7382 10.8104C30.1408 10.8104 30.6471 10.8619 31.1811 11.0283L31.1809 6.06299Z" fill="#0779B5"/>
<path d="M54.5669 6.06299H49.4553L44.7202 18.9978L40.1575 6.06299H34.6456L42.6347 25.9842H46.4106L54.5669 6.06299Z" fill="#0779B5"/>
<path d="M86.9021 22.6364V26.8504H83.475C79.7489 26.8504 78.1801 24.5425 78.1801 21.4063V10.5395H75.3544V6.30067H78.1801V1.56455L83.0199 0V6.30067H87.4804V10.5395H83.0199V19.8312C83.0199 21.7709 83.6886 22.6364 85.412 22.6364H86.9021Z" fill="#0779B5"/>
<path d="M17.3228 25.5746H12.6627L12.2492 23.8579C10.947 25.0017 9.14417 25.9842 6.50055 25.9842C2.8504 25.9842 0 23.455 0 19.6535C0 15.6473 3.22977 13.3645 8.30341 13.1996L11.8884 13.0781V12.6435C11.8884 10.314 10.1505 9.74119 8.05391 9.74119C6.26985 9.74119 2.4659 9.92103 2.4659 9.92103V6.24115C2.4659 6.24115 6.00668 6.06299 9.06044 6.06299C13.9666 6.06299 16.9469 7.88627 16.9469 12.9565V20.4661C16.9469 23.2452 17.0306 24.6738 17.3228 25.5746ZM11.8886 20.8741V16.4715L8.9767 16.5531C6.24763 16.6297 5.0328 17.6521 5.0328 19.2855C5.0328 20.8791 6.1639 22.1012 8.26239 22.1012C10.0242 22.1012 11.217 21.4468 11.8886 20.8741Z" fill="#0779B5"/>
<path d="M104.829 15.5914C104.829 19.2713 103.232 22.1577 100.08 22.1577C97.0132 22.1577 95.2051 19.396 95.2051 15.5914C95.2051 11.9519 96.7598 9.10932 99.9545 9.10932C103.064 9.10932 104.829 11.8272 104.829 15.5914ZM110 15.5493C110 8.89871 105.595 5.19684 100.038 5.19684C94.6451 5.19684 90.0787 9.02508 90.0787 15.7161C90.0787 21.4837 93.7565 25.9842 99.9956 25.9842C106.127 25.9842 110 21.4652 110 15.5493Z" fill="#0779B5"/>
<path d="M71.8897 25.5746H67.2313L66.8161 23.8579C65.5139 25.0017 63.7111 25.9842 61.0691 25.9842C57.419 25.9842 54.5669 23.4551 54.5669 19.6535C54.5669 15.6473 57.7965 13.3645 62.872 13.1996L66.4555 13.0781V12.6435C66.4555 10.314 64.7159 9.74119 62.621 9.74119C60.8385 9.74119 57.033 9.92103 57.033 9.92103V6.24115C57.033 6.24115 60.5753 6.06299 63.6275 6.06299C68.5354 6.06299 71.5122 7.88627 71.5122 12.9565V20.4661C71.5139 23.2452 71.5994 24.6738 71.8897 25.5746ZM66.4557 20.8741V16.4715L63.5421 16.5531C60.8164 16.6297 59.5997 17.6521 59.5997 19.2855C59.5997 20.8791 60.7327 22.1012 62.8295 22.1012C64.593 22.1012 65.7858 21.4468 66.4557 20.8741Z" fill="#0779B5"/>
<path d="M22.9569 40.2528H23.1699C24.7915 40.2528 25.9853 39.6569 25.9853 37.949C25.9853 36.8426 25.1969 35.9886 23.8364 35.9886H22.4366L22.433 45.9055H20.7874V34.6457H24.2349C26.7068 34.6457 27.7152 36.2395 27.7152 37.9891C27.7152 39.6688 26.6965 40.6892 25.4528 41.126L28.5826 45.9055H26.5213L22.9569 40.2528Z" fill="#1D1D1B"/>
<path d="M13.7305 39.2737L17.4448 39.272V40.7305H13.7305V44.4487H18.189V45.9055L12.126 45.9038V34.6474L18.0305 34.6457V36.1007H13.7321L13.7305 39.2737Z" fill="#1D1D1B"/>
<path d="M34.1822 36.1185V45.9055H32.5142V36.1185H29.4489V34.6457H37.2441V36.1183H34.1822V36.1185Z" fill="#1D1D1B"/>
<path d="M3.38171 44.5391L5.27364 44.5374C6.752 44.5374 7.79117 43.8749 7.79117 42.6773C7.79117 41.1561 6.4835 40.5301 4.83235 40.5301H4.31277L4.90226 39.2143C5.77579 39.2143 7.28205 39.0717 7.28205 37.4793C7.28205 36.7388 6.79385 35.9897 5.16885 35.9897H3.38171V44.5391ZM1.7323 34.6457H5.34147C7.96552 34.6457 8.99422 35.9426 8.99422 37.4272C8.99422 38.5746 8.25495 39.3429 7.52423 39.7393C8.4239 40.0818 9.52758 40.8258 9.52758 42.559C9.52758 44.3097 8.31075 45.9055 5.31165 45.9055H1.7323V34.6457Z" fill="#1D1D1B"/>
<path d="M41.447 39.2737L45.1595 39.272V40.7305H41.447V44.4487H45.9055V45.9055L39.8425 45.9038V34.6474L45.747 34.6457V36.1007H41.4488L41.447 39.2737Z" fill="#1D1D1B"/>
<path d="M95.3666 42.4392V34.6457H97.0079V45.9055H95.8149L89.9911 37.8509V45.9055H88.3464V34.6457H89.733L95.3666 42.4392Z" fill="#1D1D1B"/>
<path d="M101.248 45.9055H99.6063V34.6457H100.991L106.623 42.4387V34.6457H108.268V45.9055H107.075L101.248 37.8495V45.9055Z" fill="#1D1D1B"/>
<path d="M78.8783 43.2405L77.9487 45.9055H76.2205L80.4371 34.6457H81.5811L85.748 45.9055H83.9517L83.0187 43.2405H78.8783ZM80.9502 37.3211L79.3779 41.8167H82.5207L80.9502 37.3211Z" fill="#1D1D1B"/>
<path d="M65.5586 37.9858L64.8886 45.9055H63.2284L64.3385 34.6457H65.7523L68.9134 41.7098L71.9643 34.6457H73.3816L74.4882 45.9055H72.851L72.1548 37.8122L69.1973 44.6642H68.5471L65.5586 37.9858Z" fill="#1D1D1B"/>
<path d="M58.0841 34.6457C59.4732 34.6457 60.6603 35.2973 60.9755 35.509L60.4074 36.8173C60.0148 36.5664 59.0707 36.0753 58.1038 36.0753C56.9528 36.0753 56.2336 36.587 56.2336 37.5012C56.2336 39.8551 61.496 38.5623 61.496 42.6715C61.496 44.5375 60.0659 45.9055 57.5554 45.9055L54.9248 45.9021L55.5506 44.4659H57.5109C58.8804 44.4659 59.8063 43.9337 59.8063 42.7959C59.8063 40.0052 54.5669 41.479 54.5669 37.6206C54.5671 35.8124 55.9445 34.6457 58.0841 34.6457Z" fill="#1D1D1B"/>
<path d="M49.3192 44.4275H53.7008L53.0447 45.9055L47.6378 45.9038V34.6457H49.3228L49.3192 44.4275Z" fill="#1D1D1B"/>
</g>
<defs>
<clipPath id="clip0_827_33877">
<rect width="110" height="45.9055" fill="white"/>
</clipPath>
</defs>
</svg>
