<svg width="110" height="37" viewBox="0 0 110 37" fill="none" xmlns="http://www.w3.org/2000/svg">
<path d="M95.2116 16.15H91.6298V22.0674C91.6298 23.7543 92.5207 24.068 93.6713 24.068C94.0703 24.068 94.4971 24.0114 94.9332 23.952L95.2116 26.604C94.2744 26.771 93.0217 26.913 92.2052 26.913C89.7461 26.913 87.5562 26.0519 87.5562 23.0287V16.15H85.4869V13.5351H87.5562V10.6539L91.6298 9.49954V13.5351H95.2116V16.15Z" fill="#010066"/>
<path d="M84.2435 26.6411H80.1699V18.2267C80.1699 16.9879 79.6504 16.3031 78.2491 16.3031C77.1913 16.3031 76.5139 16.8116 75.753 17.4185V26.6411H71.6702V13.5351H75.6324V14.6895C76.9593 13.7968 78.4811 13.2298 80.1328 13.2298C82.731 13.2298 84.2435 14.8426 84.2435 17.3025V26.6411Z" fill="#010066"/>
<path d="M63.2725 2.38144C61.2032 5.87414 62.1032 9.03744 60.0804 11.0538C58.4658 12.6749 56.9625 12.6202 55.1995 12.6202C54.5778 12.6202 53.39 12.6749 52.8889 13.0368C52.6013 12.1144 52.4714 11.0993 52.4714 10.1305C52.4714 8.46862 52.8425 6.99044 54.0396 5.7962C56.3316 3.50702 60.4794 2.78045 63.2725 2.38144Z" fill="#019934"/>
<path d="M41.1786 26.6411H37.105V18.2267C37.105 16.9879 36.5853 16.3031 35.1842 16.3031C34.1357 16.3031 33.449 16.8116 32.6881 17.4185V26.6411H28.6145V13.5351H32.5768V14.6895C33.9037 13.7968 35.4254 13.2298 37.0679 13.2298C39.6661 13.2298 41.1786 14.8426 41.1786 17.3025V26.6411Z" fill="#010066"/>
<path d="M27.9649 13.5351L21.4323 29.411C20.4301 31.8486 18.4165 33.6386 15.6699 33.6386C14.2966 33.6386 13.5635 33.4595 12.6727 33.2554L13.248 30.6395C13.9718 30.801 14.5193 30.8706 15.011 30.8706C16.6535 30.8706 17.5258 29.4778 18.3238 27.5653L18.7042 26.6411L13.6285 13.5351H18.0083L20.393 20.0315C20.6807 20.8147 20.8477 21.6192 20.9776 22.1834C21.1261 21.6145 21.4138 20.6708 21.7014 19.9164L24.1604 13.5351H27.9649Z" fill="#010066"/>
<path d="M13.5727 22.4525C13.5727 25.3058 10.9375 26.8731 7.81032 26.8731C5.76888 26.8731 4.12646 26.5325 2.39124 25.8366L3.50479 23.1846C4.53476 23.6003 6.01944 24.068 7.23506 24.068C8.18151 24.068 9.49913 23.952 9.49913 22.7995C9.49913 22.2604 9.16516 21.9829 8.53414 21.8001C7.75465 21.57 6.55765 21.3631 5.76888 21.1469C4.1079 20.6885 2.73459 19.8162 2.73459 17.3795C2.73459 14.6774 5.03587 12.9978 8.1908 12.9978C10.2786 12.9978 11.5963 13.2716 12.7655 13.6131L11.7262 16.2651C11.2158 16.0294 9.76825 15.6879 8.729 15.6879C7.60617 15.6879 6.84531 16.1157 6.84531 16.8033C6.84531 17.1438 7.05875 17.5725 7.65257 17.7646C8.29286 17.9687 9.30434 18.1543 10.1487 18.3399C11.8932 18.7213 13.5727 19.7179 13.5727 22.4525Z" fill="#010066"/>
<path d="M103.656 23.1447V20.7228C101.772 20.6913 99.9997 20.8815 99.9997 22.6826C99.9997 23.798 100.946 24.145 101.661 24.145C102.505 24.145 103.155 23.7209 103.656 23.1447ZM107.609 26.6411H103.767V25.6055C102.774 26.488 101.475 26.913 100.046 26.913C97.6057 26.913 95.9354 25.7317 95.9354 23.2607C95.9354 18.9161 100.269 18.2406 103.656 18.2267V17.8778C103.656 16.8005 103.247 16.0331 101.317 16.0331C100.009 16.0331 98.5243 16.6808 97.55 17.2644L96.5478 14.8426C98.283 13.9026 100.427 13.2298 102.459 13.2298C105.586 13.2298 107.609 14.7229 107.609 17.3415V26.6411Z" fill="#010066"/>
<path d="M65.6479 18.3399C65.7222 16.8951 64.9984 15.995 63.5787 15.995C62.2053 15.995 61.3888 17.0037 61.1568 18.3399H65.6479ZM69.8422 19.6093C69.8422 20.0408 69.8329 20.4908 69.805 20.9539H61.1197C61.1568 22.8608 62.1032 23.991 64.8871 23.991C66.1119 23.991 67.5966 23.4324 68.2276 22.9907L69.3039 25.4125C67.513 26.3869 65.583 26.913 63.421 26.913C59.3474 26.913 56.8141 24.2888 56.8141 20.1076C56.8141 15.8577 60.136 13.2298 63.7271 13.2298C68.209 13.2298 69.8422 15.8429 69.8422 19.6093Z" fill="#010066"/>
<path d="M52.6013 28.7958C52.6013 27.7259 51.7476 27.3343 50.8754 27.3343H47.3029C46.7554 27.6442 45.9202 28.3281 45.9202 29.2189C45.9202 30.3686 47.4698 31.1397 49.2978 31.1397C51.2001 31.1397 52.6013 30.2674 52.6013 28.7958ZM51.5249 17.5326C51.5249 16.4349 50.9218 15.5338 49.567 15.5338C48.3328 15.5338 47.5719 16.5805 47.5719 17.5326C47.5719 18.6331 48.2586 19.5313 49.4927 19.5313C50.8475 19.5313 51.5249 18.6276 51.5249 17.5326ZM56.6841 28.2576C56.6841 32.0806 52.8703 33.8502 49.1123 33.8706C45.7996 33.8854 42.6168 32.9343 42.6168 29.7561C42.6168 28.2705 43.9252 27.2767 44.7232 26.758C44.2871 26.5056 43.8788 26.3061 43.5355 25.9136C43.1736 25.4979 42.8766 24.8901 42.8766 23.874C42.8766 22.5954 44.0087 21.4095 45.3821 20.6467C44.6211 20.2468 43.6097 19.6047 43.6097 17.4556C43.6097 14.6625 46.2635 13.1899 49.7247 13.1899C52.6663 13.1899 55.4871 13.8933 55.4871 17.3414C55.4871 20.6347 52.3972 21.8354 49.2607 21.8354C48.6762 21.8354 48.1565 21.7463 47.6462 21.6461C47.3121 21.8242 46.644 22.265 46.644 22.7605C46.644 23.7673 48.0173 23.9149 48.6483 23.9149H51.8775C54.8654 23.9149 56.6841 25.3661 56.6841 28.2576Z" fill="#010066"/>
</svg>
