<svg width="110" height="27" viewBox="0 0 110 27" fill="none" xmlns="http://www.w3.org/2000/svg">
<path fill-rule="evenodd" clip-rule="evenodd" d="M11.6738 3.89722C11.8041 3.89722 11.9332 3.90114 12.0618 3.90793L9.40599 9.80334C9.0523 10.5887 8.45944 11.5884 8.80779 12.8158C9.43642 14.4047 10.9897 15.5346 12.798 15.5346C15.1598 15.5346 17.0863 13.6075 17.0863 11.2456C17.0863 11.1717 17.0079 11.0246 17.0808 11.0257L18.8402 11.0471C18.8402 11.0527 18.8405 11.0583 18.8405 11.064C18.8405 15.0114 15.6211 18.2308 11.6738 18.2308C7.72662 18.2308 4.50732 15.0114 4.50732 11.064C4.50732 7.11666 7.72665 3.89722 11.6738 3.89722Z" fill="#0084C7"/>
<path fill-rule="evenodd" clip-rule="evenodd" d="M11.6742 1.80359C16.775 1.80359 20.9355 5.96407 20.9355 11.065C20.9355 16.1665 16.775 20.3264 11.6742 20.3264C6.5733 20.3264 2.41296 16.1665 2.41296 11.065C2.41296 5.96407 6.5733 1.80359 11.6742 1.80359ZM11.6742 2.20275C16.5555 2.20275 20.5364 6.18338 20.5364 11.065C20.5364 15.946 16.5555 19.9278 11.6742 19.9278C6.79304 19.9278 2.81198 15.946 2.81198 11.065C2.81198 6.18338 6.79304 2.20275 11.6742 2.20275Z" fill="#1B1918"/>
<path fill-rule="evenodd" clip-rule="evenodd" d="M12.8631 4.00226L16.0277 11.6879C16.0277 13.3771 14.6498 14.755 12.9607 14.755C11.2716 14.755 9.89392 13.3771 9.89392 11.6879L12.8631 4.00226Z" fill="#1B1918"/>
<path fill-rule="evenodd" clip-rule="evenodd" d="M14.1274 0C11.2997 0.827731 12.0865 2.68103 12.8801 3.87804C15.5163 2.40303 13.8688 1.98923 14.1274 0Z" fill="#E30016"/>
<path fill-rule="evenodd" clip-rule="evenodd" d="M33.7243 14.7655L33.6132 18.5218H30.8381C26.7213 18.5218 23.3634 15.1636 23.3634 11.0465C23.3634 6.92884 26.7213 3.57135 30.8381 3.57135H53.3715V7.32751H30.8381C28.7902 7.32751 27.1197 8.99818 27.1197 11.0465C27.1197 13.0949 28.7902 14.7655 30.8381 14.7655H33.7243Z" fill="#E30016"/>
<path fill-rule="evenodd" clip-rule="evenodd" d="M49.6929 8.44476H53.375V11.7042H55.8375V3.58969H59.5195V18.4121H55.8375V14.7658H53.375V18.4121H49.6929V8.44476Z" fill="#0084C7"/>
<path fill-rule="evenodd" clip-rule="evenodd" d="M104.022 19.1144C102.413 20.1953 100.448 20.833 98.3251 20.833C96.2017 20.833 94.2368 20.1953 92.6273 19.1144H17.3271C15.6957 20.1953 13.7887 20.833 11.634 20.833C9.47949 20.833 7.57201 20.1953 5.9408 19.1144H0V26.4577H110V19.1144H104.022Z" fill="#0084C7"/>
<path fill-rule="evenodd" clip-rule="evenodd" d="M98.3177 1.77277C93.1875 1.77277 89.0284 5.93154 89.0284 11.0618C89.0284 16.1926 93.1875 20.3514 98.3177 20.3514C103.448 20.3514 107.607 16.1926 107.607 11.0618C107.607 5.93154 103.448 1.77277 98.3177 1.77277ZM98.2408 16.7401V9.778C98.2408 9.778 96.9401 9.778 96.5978 9.778V7.28528H99.3372V7.82938C99.1302 7.91792 98.9847 8.12314 98.9847 8.36275V16.7401H98.2408H103.938H100.143V8.36275C100.143 8.12707 100.003 7.92519 99.8009 7.83443V6.82131H96.1346V10.2415C96.1346 10.2415 97.4348 10.2415 97.7768 10.2415C97.7768 10.644 97.7768 16.0066 97.7768 16.7401H92.3841L95.5809 11.3742C95.3162 11.3742 95.0495 11.3736 94.7955 11.3736C93.0877 11.3736 91.7029 9.98888 91.7029 8.28099C91.7029 6.60362 93.0392 5.24197 94.7042 5.19296L94.7013 5.19123H94.7482C94.7642 5.19068 94.7797 5.18837 94.7955 5.18837C94.8113 5.18837 94.8265 5.19068 94.8429 5.19123H103.938V16.7401H98.2408Z" fill="#0084C7"/>
<path fill-rule="evenodd" clip-rule="evenodd" d="M22.3071 24.5598H21.5853V23.1885H21.1122L20.2184 24.5598H19.3219L20.3116 23.1885C20.0722 23.1344 19.8653 23.013 19.6909 22.8243C19.5164 22.6355 19.4293 22.3999 19.4293 22.1171C19.4293 21.9307 19.4748 21.7558 19.5658 21.5922C19.6569 21.4285 19.7864 21.2973 19.9541 21.1987C20.1218 21.1 20.3149 21.0505 20.5337 21.0505H22.3071V24.5598ZM21.5853 22.5931V21.6549H20.6725C20.5564 21.6549 20.4598 21.6775 20.3828 21.7224C20.3057 21.7674 20.2494 21.8236 20.2136 21.8913C20.1778 21.959 20.16 22.0269 20.16 22.0953C20.16 22.2473 20.2082 22.3684 20.3048 22.4582C20.4013 22.5481 20.5417 22.5931 20.7261 22.5931H21.5853Z" fill="white"/>
<path fill-rule="evenodd" clip-rule="evenodd" d="M25.7473 22.1715C25.7473 22.3119 25.7157 22.4678 25.6525 22.6392C25.5894 22.8106 25.4741 22.9614 25.3066 23.092C25.1388 23.2225 24.9112 23.2878 24.6238 23.2878H23.7807V24.5598H23.0499V21.0505H24.6562C24.88 21.0505 25.0742 21.096 25.2387 21.1868C25.4032 21.2776 25.5291 21.4077 25.6164 21.5771C25.7036 21.7465 25.7473 21.9445 25.7473 22.1715ZM25.0166 22.137C25.0166 21.9673 24.9654 21.8445 24.8632 21.7687C24.761 21.6928 24.5954 21.6549 24.3662 21.6549H23.7807V22.6833H24.4648C24.7011 22.6833 24.8522 22.6282 24.9179 22.5178C24.9836 22.4076 25.0166 22.2806 25.0166 22.137Z" fill="white"/>
<path fill-rule="evenodd" clip-rule="evenodd" d="M29.5327 22.8011C29.5327 23.185 29.4718 23.5024 29.35 23.7536C29.2282 24.0048 29.0755 24.1948 28.8921 24.3234C28.7086 24.4519 28.5262 24.5386 28.3446 24.5832C28.163 24.6275 27.9968 24.6499 27.8456 24.6499C27.6952 24.6499 27.5288 24.6275 27.3465 24.5826C27.1643 24.5376 26.9815 24.4506 26.798 24.3216C26.6144 24.1926 26.462 24.0028 26.3407 23.7525C26.2193 23.5022 26.1587 23.185 26.1587 22.8011C26.1587 22.4166 26.2193 22.0992 26.3407 21.8489C26.462 21.5985 26.6139 21.4088 26.7962 21.2797C26.9785 21.1507 27.1603 21.0637 27.3419 21.0188C27.5233 20.9738 27.6912 20.9513 27.8456 20.9513C28.0016 20.9513 28.1698 20.9738 28.35 21.0188C28.5303 21.0637 28.7116 21.1503 28.8938 21.2786C29.076 21.4068 29.2282 21.5964 29.35 21.8476C29.4718 22.0988 29.5327 22.4166 29.5327 22.8011ZM28.8019 22.8011C28.8019 22.5683 28.7725 22.3713 28.7138 22.2102C28.6552 22.0492 28.5783 21.922 28.4833 21.829C28.3883 21.736 28.2857 21.6702 28.1755 21.6316C28.0653 21.593 27.9552 21.5737 27.8452 21.5737C27.7357 21.5737 27.6256 21.5933 27.5151 21.6322C27.4045 21.6711 27.3019 21.7369 27.2073 21.8296C27.1127 21.9223 27.036 22.0492 26.9773 22.2102C26.9188 22.3713 26.8894 22.5683 26.8894 22.8011C26.8894 23.0335 26.9188 23.2298 26.9773 23.3905C27.036 23.5512 27.1129 23.678 27.2079 23.7711C27.3029 23.8641 27.4055 23.9302 27.5157 23.9691C27.6259 24.0081 27.7357 24.0275 27.8452 24.0275C27.9552 24.0275 28.0651 24.0083 28.1749 23.9697C28.2847 23.9311 28.3874 23.8651 28.4828 23.7717C28.5781 23.6782 28.6552 23.5512 28.7138 23.3905C28.7725 23.2298 28.8019 23.0335 28.8019 22.8011Z" fill="white"/>
<path fill-rule="evenodd" clip-rule="evenodd" d="M33.0902 23.3512C33.0399 23.6111 32.9503 23.8386 32.8212 24.0336C32.6921 24.2285 32.5219 24.3801 32.3109 24.488C32.0999 24.5958 31.8518 24.6499 31.5666 24.6499C31.2525 24.6499 30.9745 24.5796 30.7326 24.4392C30.4906 24.2987 30.302 24.0892 30.167 23.811C30.0318 23.5327 29.9642 23.1979 29.9642 22.806C29.9642 22.4096 30.0344 22.0715 30.1747 21.7921C30.3149 21.5127 30.5073 21.3027 30.7517 21.1621C30.9961 21.0216 31.2708 20.9513 31.5761 20.9513C31.8248 20.9513 32.0444 20.9896 32.2347 21.0661C32.425 21.1427 32.581 21.2429 32.7027 21.3669C32.8241 21.491 32.9166 21.6249 32.9798 21.7688C33.0429 21.9129 33.0797 22.0553 33.0902 22.1964H32.3573C32.3112 22.0274 32.2361 21.8844 32.1321 21.7674C32.0281 21.6504 31.8446 21.5918 31.5816 21.5918C31.3561 21.5918 31.155 21.6851 30.9782 21.8715C30.8014 22.0581 30.7131 22.3727 30.7131 22.8156C30.7131 23.0354 30.7434 23.2356 30.8041 23.416C30.8649 23.5966 30.9601 23.7407 31.0901 23.8482C31.2201 23.9558 31.3838 24.0094 31.5816 24.0094C31.7175 24.0094 31.8384 23.9845 31.9445 23.9344C32.0504 23.8846 32.1388 23.8097 32.2096 23.71C32.2802 23.6105 32.3294 23.4909 32.3573 23.3512H33.0902Z" fill="white"/>
<path fill-rule="evenodd" clip-rule="evenodd" d="M36.1913 24.5598H35.4606V21.673H34.4593V23.4492C34.4593 23.8431 34.3638 24.1418 34.1729 24.345C33.9821 24.5483 33.6957 24.6499 33.314 24.6499V24.0097C33.4899 24.0097 33.6104 23.9597 33.6757 23.8594C33.7409 23.7594 33.7736 23.6222 33.7736 23.4482V21.0505H36.1913V24.5598Z" fill="white"/>
<path fill-rule="evenodd" clip-rule="evenodd" d="M39.9673 24.5598H39.1724L38.9472 23.8381H37.654L37.4097 24.5598H36.6385L37.8875 21.0505H38.7326L39.9673 24.5598ZM38.7422 23.2336L38.3083 21.8413H38.2987L37.8495 23.2336H38.7422Z" fill="white"/>
<path fill-rule="evenodd" clip-rule="evenodd" d="M43.3349 23.5189C43.3349 23.6573 43.3083 23.7892 43.255 23.9146C43.2018 24.0401 43.1274 24.1491 43.0322 24.2422C42.9533 24.3179 42.8749 24.3774 42.7972 24.4207C42.7194 24.4642 42.6117 24.4981 42.4741 24.5228C42.3365 24.5475 42.153 24.5598 41.9233 24.5598H40.4391V21.0505H42.1463C42.4121 21.0505 42.6258 21.0973 42.7873 21.1906C42.9488 21.2841 43.0624 21.3988 43.1281 21.5346C43.1938 21.6706 43.2266 21.8091 43.2266 21.9498C43.2266 22.1686 43.185 22.3275 43.1018 22.4269C43.0186 22.5263 42.9161 22.6066 42.7947 22.6678C43.1548 22.8031 43.3349 23.0869 43.3349 23.5189ZM42.523 22.0305C42.523 21.8938 42.4779 21.7971 42.388 21.7402C42.2979 21.6834 42.1637 21.6549 41.9853 21.6549H41.1427V22.4217H42.0044C42.1589 22.4217 42.284 22.3896 42.3795 22.3251C42.4751 22.2607 42.523 22.1625 42.523 22.0305L42.6042 23.4421C42.6042 23.2989 42.5532 23.1922 42.4514 23.1222C42.3497 23.0522 42.2243 23.0171 42.0758 23.0171H41.1427V23.9554H42.0423C42.4169 23.9554 42.6042 23.7843 42.6042 23.4421L42.523 22.0305Z" fill="white"/>
<path fill-rule="evenodd" clip-rule="evenodd" d="M46.7839 24.5598H46.0533V22.981H44.682V24.5598H43.9513V21.0505H44.682V22.3766H46.0533V21.0505H46.7839V24.5598Z" fill="white"/>
<path fill-rule="evenodd" clip-rule="evenodd" d="M50.166 24.5598H47.4993V21.0505H50.0823V21.673H48.221V22.4037H49.9309V23.0262H48.221V23.9373H50.166V24.5598Z" fill="white"/>
<path fill-rule="evenodd" clip-rule="evenodd" d="M54.519 22.8056C54.519 23.0587 54.4695 23.275 54.3704 23.4542C54.2711 23.6337 54.1417 23.7767 53.9819 23.8833C53.822 23.9898 53.6517 24.0667 53.4704 24.1135C53.2891 24.1604 53.1123 24.1838 52.9404 24.1838V24.5598H52.2096V24.1838C52.0376 24.1838 51.8594 24.1604 51.6749 24.1135C51.4906 24.0667 51.3167 23.9898 51.1534 23.8833C50.9901 23.7767 50.8576 23.6335 50.7561 23.4536C50.6546 23.274 50.6039 23.058 50.6039 22.8056C50.6039 22.552 50.6546 22.3353 50.7561 22.1554C50.8576 21.9757 50.9902 21.8325 51.154 21.726C51.3177 21.6193 51.491 21.5427 51.6743 21.4962C51.8575 21.4496 52.036 21.4264 52.2096 21.4264V21.0505H52.9404V21.4264C53.1774 21.4264 53.417 21.4702 53.6589 21.5577C53.9008 21.6452 54.1047 21.7928 54.2705 22.0003C54.4362 22.208 54.519 22.4764 54.519 22.8056ZM52.2096 23.6154V21.9929C51.9748 21.9929 51.7687 22.0541 51.5914 22.1761C51.4141 22.2984 51.3256 22.5079 51.3256 22.8047C51.3256 23.1 51.4143 23.3089 51.5921 23.4316C51.7697 23.5541 51.9757 23.6154 52.2096 23.6154L53.8154 22.8047C53.8154 22.601 53.771 22.4385 53.6823 22.3171C53.5937 22.1958 53.4835 22.1113 53.3517 22.064C53.2199 22.0166 53.0828 21.9929 52.9404 21.9929V23.6154C53.0828 23.6154 53.2199 23.5916 53.3517 23.5443C53.4835 23.4969 53.5937 23.4127 53.6823 23.2919C53.771 23.1709 53.8154 23.0085 53.8154 22.8047L52.2096 23.6154Z" fill="white"/>
<path fill-rule="evenodd" clip-rule="evenodd" d="M57.6698 21.673H56.6066V24.5598H55.8759V21.673H54.8162V21.0505H57.6698V21.673Z" fill="white"/>
<path fill-rule="evenodd" clip-rule="evenodd" d="M60.7673 24.5598H58.1007V21.0505H60.6839V21.673H58.8224V22.4037H60.5322V23.0262H58.8224V23.9373H60.7673V24.5598Z" fill="white"/>
<path fill-rule="evenodd" clip-rule="evenodd" d="M64.5884 22.8011C64.5884 23.185 64.5275 23.5024 64.4058 23.7536C64.284 24.0048 64.1312 24.1948 63.948 24.3234C63.7644 24.4519 63.582 24.5386 63.4005 24.5832C63.2189 24.6275 63.0526 24.6499 62.9015 24.6499C62.7509 24.6499 62.5846 24.6275 62.4022 24.5826C62.2201 24.5376 62.0371 24.4506 61.8536 24.3216C61.6701 24.1926 61.5178 24.0028 61.3963 23.7525C61.2751 23.5022 61.2145 23.185 61.2145 22.8011C61.2145 22.4166 61.2751 22.0992 61.3963 21.8489C61.5178 21.5985 61.6696 21.4088 61.8519 21.2797C62.0343 21.1507 62.2162 21.0637 62.3977 21.0188C62.579 20.9738 62.747 20.9513 62.9015 20.9513C63.0574 20.9513 63.2254 20.9738 63.4058 21.0188C63.5859 21.0637 63.7673 21.1503 63.9497 21.2786C64.1317 21.4068 64.284 21.5964 64.4058 21.8476C64.5275 22.0988 64.5884 22.4166 64.5884 22.8011ZM63.8578 22.8011C63.8578 22.5683 63.8282 22.3713 63.7695 22.2102C63.7109 22.0492 63.6342 21.922 63.5392 21.829C63.4442 21.736 63.3416 21.6702 63.2314 21.6316C63.1211 21.593 63.0108 21.5737 62.9009 21.5737C62.7915 21.5737 62.6813 21.5933 62.5708 21.6322C62.4603 21.6711 62.3577 21.7369 62.263 21.8296C62.1685 21.9223 62.0918 22.0492 62.0332 22.2102C61.9745 22.3713 61.9452 22.5683 61.9452 22.8011C61.9452 23.0335 61.9745 23.2298 62.0332 23.3905C62.0918 23.5512 62.1688 23.678 62.2638 23.7711C62.3588 23.8641 62.4612 23.9302 62.5713 23.9691C62.6816 24.0081 62.7915 24.0275 62.9009 24.0275C63.0108 24.0275 63.1208 24.0083 63.2308 23.9697C63.3404 23.9311 63.4431 23.8651 63.5386 23.7717C63.6339 23.6782 63.7109 23.5512 63.7695 23.3905C63.8282 23.2298 63.8578 23.0335 63.8578 22.8011Z" fill="white"/>
<path fill-rule="evenodd" clip-rule="evenodd" d="M67.8699 22.1715C67.8699 22.3119 67.8383 22.4678 67.7752 22.6392C67.712 22.8106 67.5967 22.9614 67.4293 23.092C67.2616 23.2225 67.034 23.2878 66.7465 23.2878H65.9033V24.5598H65.1726V21.0505H66.7788C67.0027 21.0505 67.197 21.096 67.3613 21.1868C67.5259 21.2776 67.6517 21.4077 67.7391 21.5771C67.8262 21.7465 67.8699 21.9445 67.8699 22.1715ZM67.1392 22.137C67.1392 21.9673 67.0882 21.8445 66.9858 21.7687C66.8838 21.6928 66.718 21.6549 66.4888 21.6549H65.9033V22.6833H66.5875C66.8237 22.6833 66.9748 22.6282 67.0405 22.5178C67.1062 22.4076 67.1392 22.2806 67.1392 22.137Z" fill="white"/>
<path fill-rule="evenodd" clip-rule="evenodd" d="M70.9818 21.673H69.1654V24.5598H68.4347V21.0505H70.9818V21.673Z" fill="white"/>
<path fill-rule="evenodd" clip-rule="evenodd" d="M74.3951 23.3512C74.345 23.6111 74.2554 23.8386 74.1262 24.0336C73.9971 24.2285 73.8268 24.3801 73.6159 24.488C73.4048 24.5958 73.1567 24.6499 72.8713 24.6499C72.5574 24.6499 72.2794 24.5796 72.0375 24.4392C71.7956 24.2987 71.607 24.0892 71.472 23.811C71.3366 23.5327 71.2693 23.1979 71.2693 22.806C71.2693 22.4096 71.3392 22.0715 71.4796 21.7921C71.62 21.5127 71.8122 21.3027 72.0566 21.1621C72.3011 21.0216 72.5757 20.9513 72.881 20.9513C73.1296 20.9513 73.3493 20.9896 73.5396 21.0661C73.7298 21.1427 73.8861 21.2429 74.0075 21.3669C74.129 21.491 74.2215 21.6249 74.2846 21.7688C74.3478 21.9129 74.3847 22.0553 74.3951 22.1964H73.6622C73.6162 22.0274 73.541 21.8844 73.4369 21.7674C73.3329 21.6504 73.1493 21.5918 72.8866 21.5918C72.661 21.5918 72.4598 21.6851 72.2831 21.8715C72.1062 22.0581 72.018 22.3727 72.018 22.8156C72.018 23.0354 72.0482 23.2356 72.1091 23.416C72.1697 23.5966 72.265 23.7407 72.3949 23.8482C72.5249 23.9558 72.6887 24.0094 72.8866 24.0094C73.0225 24.0094 73.1434 23.9845 73.2494 23.9344C73.3555 23.8846 73.4437 23.8097 73.5145 23.71C73.5852 23.6105 73.6343 23.4909 73.6622 23.3512H74.3951Z" fill="white"/>
<path fill-rule="evenodd" clip-rule="evenodd" d="M77.777 24.5598H77.0913V22.0562H77.0817L75.6519 24.5598H74.9172V21.0505H75.6028V23.4937H75.6124L77.0045 21.0505H77.777V24.5598Z" fill="white"/>
<path fill-rule="evenodd" clip-rule="evenodd" d="M81.2981 24.5598H80.5673V22.981H79.1961V24.5598H78.4653V21.0505H79.1961V22.3766H80.5673V21.0505H81.2981V24.5598Z" fill="white"/>
<path fill-rule="evenodd" clip-rule="evenodd" d="M84.5694 21.673H83.506V24.5598H82.7753V21.673H81.7158V21.0505H84.5694V21.673Z" fill="white"/>
<path fill-rule="evenodd" clip-rule="evenodd" d="M87.6687 24.5598H85.0021V21.0505H87.5853V21.673H85.7238V22.4037H87.4336V23.0262H85.7238V23.9373H87.6687V24.5598Z" fill="white"/>
<path fill-rule="evenodd" clip-rule="evenodd" d="M90.9663 23.5321C90.9663 23.726 90.9201 23.9077 90.8276 24.0773C90.7352 24.247 90.5846 24.3848 90.376 24.4909C90.1674 24.5968 89.8996 24.6499 89.5726 24.6499C89.272 24.6499 89.0211 24.6121 88.8193 24.5365C88.6175 24.4608 88.4627 24.3631 88.3547 24.2435C88.247 24.1239 88.1726 23.9987 88.1314 23.868C88.0902 23.7371 88.0699 23.6085 88.0699 23.4816H88.7753C88.7753 23.5608 88.7984 23.6435 88.8446 23.7298C88.8909 23.8161 88.972 23.8903 89.0888 23.9524C89.205 24.0145 89.3623 24.0455 89.5599 24.0455C89.7457 24.0455 89.9047 23.9981 90.0372 23.9028C90.1691 23.8075 90.2356 23.6845 90.2356 23.5338C90.2356 23.4211 90.2035 23.3263 90.1398 23.2492C90.076 23.1723 89.9915 23.1144 89.8866 23.0755C89.7818 23.0366 89.6678 23.0171 89.5444 23.0171H88.9856V22.4217H89.5342C89.7141 22.4217 89.8592 22.3841 89.9701 22.3088C90.0809 22.2336 90.1364 22.1271 90.1364 21.9893C90.1364 21.9013 90.1091 21.8243 90.0549 21.7586C90.0008 21.693 89.9258 21.6429 89.8302 21.608C89.7346 21.5732 89.6278 21.5557 89.51 21.5557C89.3233 21.5557 89.1798 21.5865 89.0793 21.648C88.9783 21.7095 88.9112 21.7798 88.8785 21.859C88.8452 21.9383 88.8289 22.0151 88.8289 22.0898H88.1236C88.1236 21.9221 88.1663 21.7513 88.2521 21.5774C88.3378 21.4035 88.4835 21.2556 88.6893 21.1338C88.8951 21.0122 89.1638 20.9513 89.4956 20.9513C89.8336 20.9513 90.1048 21.0068 90.3089 21.1177C90.513 21.2287 90.6556 21.3633 90.7363 21.5217C90.8175 21.6802 90.8581 21.8367 90.8581 21.9915C90.8581 22.1967 90.7935 22.3548 90.6649 22.4656C90.5362 22.5764 90.3797 22.6534 90.195 22.6966C90.3087 22.7093 90.4248 22.7508 90.5435 22.8212C90.6624 22.8916 90.7625 22.9878 90.844 23.1102C90.9255 23.2325 90.9663 23.3731 90.9663 23.5321Z" fill="white"/>
<path fill-rule="evenodd" clip-rule="evenodd" d="M81.1118 13.7607V17.3397H81.2671C81.3592 17.3397 81.4398 17.3051 81.5088 17.2361C81.5778 17.1672 81.6124 17.0866 81.6124 16.9944V14.1578C81.6124 14.0542 81.5721 13.9621 81.4915 13.8815C81.411 13.801 81.3188 13.7607 81.2153 13.7607H81.1118ZM81.6641 12.6904C82.1015 12.6904 82.4439 12.8113 82.6913 13.0529C82.9386 13.2945 83.0624 13.5997 83.0624 13.9679V17.0635C83.0624 17.4547 82.9472 17.7772 82.7172 18.0303C82.4871 18.2834 82.1359 18.41 81.6641 18.41H81.4915H79.6617V8.55302H79.8344H81.1118V12.6904H81.6641ZM68.9344 17.098C68.9344 17.1786 68.9575 17.239 69.0034 17.2793C69.0495 17.3196 69.1013 17.3512 69.1588 17.3743C69.2393 17.3627 69.3055 17.3339 69.3573 17.2879C69.4091 17.2419 69.435 17.1786 69.435 17.098V9.89948C69.435 9.8189 69.4091 9.75563 69.3573 9.70958C69.3055 9.66362 69.2451 9.63481 69.1761 9.6233C69.1185 9.63481 69.0639 9.66357 69.0121 9.70958C68.9603 9.75563 68.9344 9.81896 68.9344 9.89948V17.098ZM67.4844 9.89948C67.4844 9.8189 67.4585 9.75563 67.4067 9.70958C67.3549 9.66357 67.2945 9.63481 67.2255 9.6233C67.1679 9.63481 67.1132 9.66362 67.0615 9.70958C67.0097 9.75563 66.9838 9.81896 66.9838 9.89948V17.098C66.9838 17.1786 67.0069 17.239 67.0528 17.2793C67.0989 17.3196 67.1507 17.3512 67.2082 17.3743C67.2888 17.3627 67.3549 17.334 67.4067 17.2879C67.4585 17.2419 67.4844 17.1786 67.4844 17.098V9.89948ZM67.4844 18.3237C67.3348 18.3813 67.1938 18.4273 67.0615 18.4618C66.9292 18.4964 66.8048 18.5022 66.6903 18.5136L66.5177 18.5308C66.2198 18.5605 65.9796 18.4158 65.8013 18.2201C65.623 18.0245 65.5338 17.7828 65.5338 17.4951V9.36435C65.5338 9.07665 65.6 8.85795 65.7323 8.70838C65.8646 8.55879 66.0747 8.48396 66.3624 8.48396H66.535C66.6615 8.48396 66.8054 8.49837 66.9665 8.52712C67.1276 8.5559 67.3002 8.59906 67.4844 8.65657V8.40787H67.657H68.9344V8.65657C69.1185 8.59906 69.2883 8.5559 69.4436 8.52712C69.599 8.49837 69.7342 8.48396 69.8493 8.48396H70.0219C70.3211 8.48396 70.5398 8.55879 70.6778 8.70838C70.8159 8.85795 70.885 9.07671 70.885 9.36435V17.4951C70.885 17.7827 70.7958 18.0245 70.6175 18.2201C70.4391 18.4158 70.1988 18.484 69.9011 18.5136L69.7284 18.5308C69.6134 18.5423 69.4896 18.4964 69.3573 18.4618C69.225 18.4273 69.084 18.3813 68.9344 18.3237V18.5856H68.7618H67.4844V18.3237ZM62.7534 9.83045C62.7534 9.74991 62.7274 9.68946 62.6757 9.64922C62.6239 9.60895 62.5634 9.583 62.4944 9.57151C62.4369 9.583 62.3822 9.60895 62.3305 9.64922C62.2787 9.68946 62.2527 9.74994 62.2527 9.83045V12.6961H62.7534V9.83045ZM60.8027 9.48516C60.8027 9.13993 60.9696 8.88098 61.3033 8.70838C61.637 8.53575 62.0053 8.44944 62.4081 8.44944H62.5807C62.5923 8.44944 62.6066 8.44944 62.6239 8.44944C62.6411 8.44944 62.6613 8.44886 62.6843 8.44944C63.064 8.46023 63.4122 8.55307 63.7286 8.72565C64.0451 8.89822 64.2033 9.15148 64.2033 9.48516V13.7663H62.2527V17.1498C62.2527 17.2304 62.2757 17.2908 62.3218 17.3311C62.3678 17.3714 62.4196 17.403 62.4772 17.426C62.5577 17.4145 62.6239 17.3857 62.6757 17.3397C62.7275 17.2937 62.7534 17.2304 62.7534 17.1498V14.8711H62.926H64.2033V17.5124C64.2033 17.823 64.0451 18.059 63.7286 18.2201C63.4122 18.3813 63.064 18.4682 62.6843 18.4791C62.6613 18.4797 62.6411 18.4791 62.6239 18.4791C62.6066 18.4791 62.5921 18.4779 62.5807 18.4791L62.4081 18.4964C62.0072 18.5364 61.637 18.3985 61.3033 18.2374C60.9696 18.0763 60.8027 17.8346 60.8027 17.5124V9.48516ZM74.5229 18.3924V9.89948C74.5229 9.80742 74.4943 9.73259 74.4373 9.67506C74.3803 9.61758 74.3137 9.583 74.2377 9.57151C74.1743 9.583 74.114 9.61758 74.0571 9.67506C74.0001 9.73259 73.9715 9.8075 73.9715 9.89948V18.3924H72.3556V8.55302H72.5458H73.9715V8.74291C74.2123 8.66234 74.4278 8.60192 74.6179 8.56165C74.808 8.52141 74.9728 8.50123 75.1121 8.50123H75.3023C75.5684 8.50123 75.7681 8.57031 75.9011 8.70838C75.9303 8.73864 75.9563 8.77293 75.9791 8.81095L76.15 8.74291C76.3908 8.66234 76.6063 8.60192 76.7964 8.56165C76.9865 8.52141 77.1512 8.50123 77.2906 8.50123H77.4807C77.7468 8.50123 77.9466 8.57031 78.0796 8.70838C78.2126 8.84637 78.2792 9.06531 78.2792 9.36435V18.3924H76.7013V9.89948C76.7013 9.80742 76.6728 9.73259 76.6158 9.67506C76.5588 9.61758 76.4922 9.583 76.4162 9.57151C76.3528 9.583 76.2925 9.61758 76.2355 9.67506C76.1786 9.73259 76.15 9.8075 76.15 9.89948V18.3924H74.5229Z" fill="#1B1918"/>
<path fill-rule="evenodd" clip-rule="evenodd" d="M35.1609 17.3189C35.1724 17.3189 35.181 17.3189 35.1867 17.3189C35.1925 17.3189 35.2011 17.3189 35.2125 17.3189C35.224 17.3303 35.2354 17.3361 35.2468 17.3361C35.3385 17.3132 35.4044 17.2617 35.4445 17.1814C35.4846 17.1013 35.5047 16.9523 35.5047 16.7347V8.57184H35.6765H38.8899V18.3843H38.718H37.4464V9.63724H36.9481V16.9581C36.9481 17.4163 36.8392 17.7772 36.6216 18.0407C36.404 18.3041 36.0889 18.436 35.6765 18.436L35.5047 18.4531C35.4473 18.4416 35.3901 18.4331 35.3328 18.4273C35.2755 18.4216 35.2182 18.413 35.1609 18.4015C35.1381 18.4015 35.1122 18.3986 35.0836 18.393C35.055 18.3872 35.0235 18.3843 34.9891 18.3843V17.3189H35.1609ZM40.2315 14.3803C40.2315 14.0137 40.2602 13.7273 40.3175 13.521C40.3748 13.3148 40.5351 13.1201 40.7986 12.9368C40.9475 12.8451 41.1337 12.7477 41.3571 12.6446C41.5805 12.5416 41.8583 12.427 42.1905 12.3009V9.8435C42.1905 9.76331 42.1648 9.70026 42.1132 9.65444C42.0616 9.60863 42.0015 9.58002 41.9328 9.5685C41.864 9.58002 41.8039 9.60863 41.7524 9.65444C41.7008 9.70026 41.675 9.76331 41.675 9.8435V11.9057H41.5032H40.2315V9.49983C40.2315 9.15609 40.4005 8.89831 40.7385 8.72651C41.0765 8.55463 41.4459 8.46872 41.8468 8.46872H42.0187C42.0301 8.46872 42.0388 8.46872 42.0445 8.46872C42.0502 8.46872 42.0588 8.46872 42.0703 8.46872C42.4597 8.48015 42.8149 8.57184 43.1357 8.74369C43.4565 8.91557 43.6168 9.16753 43.6168 9.49983V18.3843H43.445H42.1905V18.2297C41.9729 18.2985 41.781 18.35 41.6149 18.3843C41.4487 18.4188 41.3027 18.436 41.1766 18.436L41.0048 18.4531C40.7414 18.4416 40.5466 18.3701 40.4206 18.2383C40.2946 18.1065 40.2315 17.9318 40.2315 17.7141V14.3803ZM42.1905 13.9678C42.1905 13.8876 42.1648 13.8247 42.1132 13.7788C42.0616 13.733 42.0015 13.7044 41.9328 13.6929C41.864 13.7044 41.8039 13.733 41.7524 13.7788C41.7008 13.8247 41.675 13.8876 41.675 13.9678V17.0783C41.675 17.1471 41.7008 17.2044 41.7524 17.2502C41.8039 17.296 41.8583 17.3303 41.9156 17.3533C41.9959 17.3418 42.0616 17.3104 42.1132 17.2588C42.1648 17.2073 42.1905 17.1471 42.1905 17.0783V13.9678ZM47.7767 13.229C47.9371 13.2862 48.0603 13.3721 48.1461 13.4867C48.2321 13.6012 48.2922 13.7273 48.3265 13.8648C48.338 13.8991 48.3466 13.9392 48.3523 13.9851C48.3581 14.0309 48.3609 14.071 48.3609 14.1054V17.3189C48.3609 17.3303 48.3609 17.3447 48.3609 17.3618C48.3609 17.3791 48.3609 17.3933 48.3609 17.4049C48.338 17.6569 48.2407 17.8831 48.0688 18.0837C47.897 18.2841 47.6392 18.3843 47.2955 18.3843H47.1237H44.9757V8.57184H45.1475H47.2955C47.559 8.57184 47.8024 8.67781 48.0259 8.88973C48.2492 9.10165 48.3609 9.34515 48.3609 9.62015V12.3525C48.3609 12.3754 48.3609 12.3983 48.3609 12.4213C48.3609 12.4441 48.3552 12.467 48.3438 12.4899C48.3323 12.6389 48.2807 12.7821 48.1891 12.9196C48.0974 13.0571 47.96 13.1602 47.7767 13.229ZM46.591 17.3189C46.6826 17.3189 46.7628 17.2845 46.8316 17.2158C46.9003 17.1471 46.9346 17.0669 46.9346 16.9753V14.1054C46.9346 14.0137 46.9003 13.9335 46.8316 13.8648C46.7628 13.796 46.6826 13.7617 46.591 13.7617H46.4363V17.3189H46.591ZM46.9346 9.96379C46.9346 9.95236 46.9346 9.94084 46.9346 9.92941C46.9232 9.86068 46.8888 9.79769 46.8316 9.74038C46.7743 9.68314 46.7113 9.64876 46.6426 9.63724C46.631 9.63724 46.6196 9.63724 46.6082 9.63724H46.4363V12.6962H46.591C46.6597 12.6962 46.7284 12.6675 46.7971 12.6102C46.8659 12.553 46.906 12.4899 46.9175 12.4213C46.929 12.4097 46.9346 12.3983 46.9346 12.3868C46.9346 12.3754 46.9346 12.3639 46.9346 12.3525V9.96379Z" fill="#1B1918"/>
<path fill-rule="evenodd" clip-rule="evenodd" d="M60.9828 3.57468V7.31276H82.5821V3.57468H60.9828Z" fill="#E30016"/>
<path fill-rule="evenodd" clip-rule="evenodd" d="M84.0936 10.2473V11.9117H87.0553V10.2473H84.0936Z" fill="#1B1918"/>
</svg>
