<svg width="80" height="44" viewBox="0 0 80 44" fill="none" xmlns="http://www.w3.org/2000/svg">
<g clip-path="url(#clip0_939_1168)">
<path d="M63.8815 20.4794C67.0159 20.4794 69.7645 19.2606 70.8856 16.6659C71.8621 14.3851 71.5125 11.9715 69.6801 10.2699C68.4534 9.09809 66.644 8.49338 65.0479 7.95999C63.899 7.576 62.8607 7.22898 62.2299 6.73395C61.6271 6.2633 61.4222 5.58749 61.6151 4.93582C61.8562 4.13933 62.6517 3.60834 63.8332 3.60834C65.4607 3.60834 66.9073 4.35655 67.92 5.55129L70.6204 2.7153C69.0291 1.02578 66.4855 0 63.8092 0C60.6868 0 58.324 1.5085 57.2751 3.9221C56.4674 5.79265 56.7447 7.7356 57.7453 9.14755C58.9429 10.823 60.962 11.4968 62.7493 12.0932C63.8585 12.4633 64.8784 12.8037 65.5571 13.3352C66.1961 13.8299 66.5457 14.6264 66.1719 15.4953C65.8464 16.2556 65.0267 16.7625 63.6765 16.7987C61.8079 16.847 60.1322 15.966 58.9146 14.4333L56.2021 17.2693C57.9984 19.4295 60.6627 20.4794 63.8815 20.4794Z" fill="#000096"/>
<path fill-rule="evenodd" clip-rule="evenodd" d="M53.2365 6.15469C53.2365 8.43554 52.0791 10.0285 50.5601 10.9336C51.7898 11.6698 52.7181 12.9973 53.4896 15.1454C53.556 15.3345 53.6197 15.516 53.6818 15.6928C54.1389 16.9944 54.5073 18.0433 55.1653 20.0088H49.9212C49.4149 17.8365 49.017 16.2315 48.4504 14.8799C47.7874 13.2869 46.9917 12.6835 45.4004 12.6835H43.9417V20.0088H39.2401V0.325836H45.5933C48.571 0.325836 50.0297 0.8689 51.2835 1.88261C52.5252 2.88426 53.2365 4.35655 53.2365 6.15469ZM44.9423 9.09929C46.2563 9.09929 46.9917 8.95447 47.5583 8.52002C48.149 8.04937 48.4745 7.37356 48.4745 6.46846C48.4745 5.63577 48.1973 4.91168 47.5583 4.42896C47.0038 4.00658 46.3166 3.8497 44.9423 3.8497H43.9417C43.9296 3.8497 43.9417 9.09929 43.9417 9.09929H44.9423Z" fill="#000096"/>
<path d="M17.8055 0.144806C17.4197 0.144806 17.1786 0.313761 16.9375 0.555121L8.90852 8.60448L0.879591 0.555121C0.638482 0.313761 0.397371 0.144806 0.0115967 0.144806V20.0088H4.13456V10.5112L8.90852 15.2902L13.6825 10.5112V20.0088H17.8055V0.144806Z" fill="#000096"/>
<path fill-rule="evenodd" clip-rule="evenodd" d="M27.9199 0.627526C28.0405 0.337894 28.1851 0.144806 28.5227 0.144806C28.8482 0.144806 29.0049 0.337894 29.1254 0.627526C37.082 19.0916 37.5281 20.0088 37.5281 20.0088H32.3563L31.4401 17.7521H24.8216L23.9054 20.0088H19.5052C19.5052 20.0088 20.1562 18.5847 27.9199 0.627526ZM28.1248 9.60613L26.2201 14.3127H30.0417L28.1248 9.60613Z" fill="#000096"/>
<path d="M72.61 44C73.9843 44 74.792 43.2276 75.6118 41.2606L80 30.7372H78.3243L75.5154 37.785L72.7788 30.7372H71.0548L74.6715 39.6193L74.129 40.9347C73.6347 42.0933 73.2128 42.5277 72.4774 42.5277C72.1398 42.5277 71.8143 42.4553 71.6094 42.3829V43.8069C71.8746 43.9276 72.2122 44 72.61 44Z" fill="#000096"/>
<path d="M67.3297 28.6012H67.2694L64.135 31.9803V32.1854H65.7143V37.2419C65.7143 39.0038 66.751 40.0779 68.475 40.0779C69.1019 40.0779 69.572 39.9693 69.8855 39.8003V38.2918C69.5961 38.4728 69.2104 38.5694 68.8487 38.5694C67.7999 38.5694 67.3297 38.0867 67.3297 37.0126V32.1854H69.8855V30.7372H67.3297V28.6012Z" fill="#000096"/>
<path d="M61.0247 39.8727H62.6401V30.7493H61.0247V39.8727Z" fill="#000096"/>
<path d="M60.7474 28.0461C60.7474 28.6495 61.2296 29.1322 61.8324 29.1322C62.4352 29.1322 62.9174 28.6374 62.9174 28.0461C62.9174 27.4427 62.4352 26.96 61.8324 26.96C61.2296 26.96 60.7474 27.4427 60.7474 28.0461Z" fill="#000096"/>
<path d="M52.6463 37.3615C52.6422 37.3578 52.6382 37.3542 52.6342 37.3505H52.6463V37.3615Z" fill="#000096"/>
<path d="M55.6359 38.6297C54.5322 38.6297 53.4644 38.1039 52.6462 37.3615V39.1487C53.5021 39.7883 54.6353 40.09 55.6239 40.09C57.4442 40.09 58.9994 39.1124 58.9994 37.254C58.9994 35.6007 57.7215 34.9731 56.0337 34.5628C54.9729 34.2973 54.1893 33.9353 54.1893 33.1147C54.1893 32.2699 55.0693 31.9682 55.8409 31.9682C56.8174 31.9682 57.7577 32.4388 58.5654 33.0905V31.3769C57.7577 30.8338 56.7812 30.5321 55.8047 30.5321C54.1651 30.5321 52.61 31.4493 52.61 33.2957C52.61 35.0576 54.0567 35.5886 55.3707 35.8662C56.516 36.1196 57.396 36.4334 57.396 37.3747C57.396 38.316 56.5521 38.6297 55.6359 38.6297Z" fill="#000096"/>
<path d="M50.8981 32.2095C51.1754 32.2095 51.3442 32.2458 51.3442 32.2458H51.3562V30.6407C51.3562 30.6407 51.1875 30.6045 50.9584 30.6045C49.7529 30.6045 48.5714 31.3165 48.1615 32.3664V30.7493H46.5823V39.8727H48.1736V35.5283C48.1736 33.5612 49.2104 32.2095 50.8981 32.2095Z" fill="#000096"/>
<path fill-rule="evenodd" clip-rule="evenodd" d="M40.5546 40.0779C41.8325 40.0779 43.0742 39.6434 44.0869 38.9073H44.0748V37.1695C42.9537 38.147 41.8325 38.6177 40.6631 38.6177C38.7704 38.6177 37.5167 37.3385 37.3841 35.8179H44.5329C44.5329 35.8179 44.5691 35.6007 44.5691 35.2386C44.5691 32.644 42.8331 30.5442 40.2774 30.5442C37.6493 30.5442 35.7686 32.5837 35.7686 35.311C35.7686 37.9901 37.6493 40.0779 40.5546 40.0779ZM40.2412 31.944C41.7361 31.944 42.809 33.0302 42.9416 34.4783H37.4323C37.5408 33.2353 38.7222 31.944 40.2412 31.944Z" fill="#000096"/>
<path d="M26.3412 30.7493L30.1507 39.8727H31.4647L35.2743 30.7493H33.5865L30.8258 37.6643L28.0651 30.7493H26.3412Z" fill="#000096"/>
<path d="M23.1584 39.8727H24.7739V30.7493H23.1584V39.8727Z" fill="#000096"/>
<path d="M22.8813 28.0461C22.8813 28.6495 23.3635 29.1322 23.9662 29.1322C24.569 29.1322 25.0512 28.6374 25.0512 28.0461C25.0512 27.4427 24.569 26.96 23.9662 26.96C23.3635 26.96 22.8813 27.4427 22.8813 28.0461Z" fill="#000096"/>
<path d="M12.5135 39.8727H14.1289V35.1179C14.1289 33.2595 15.1416 32.0527 16.6967 32.0527C18.2519 32.0527 19.0957 33.0905 19.0957 34.7197V39.8848H20.7112V34.5266C20.7112 32.1009 19.3611 30.5442 17.0344 30.5442C15.6721 30.5442 14.6955 31.1596 14.1289 32.0647V30.7493H12.5135V39.8727Z" fill="#000096"/>
<path d="M0 26.7307V34.6352C0 37.8815 1.78421 40.0779 5.03918 40.0779C8.29415 40.0779 10.0542 37.8815 10.0542 34.6352V26.7307H8.37854V34.6231C8.37854 36.9281 7.22122 38.5091 5.03918 38.5091C2.84509 38.5091 1.6757 36.9281 1.6757 34.6231V26.7307H0Z" fill="#000096"/>
</g>
<defs>
<clipPath id="clip0_939_1168">
<rect width="80" height="44" fill="white"/>
</clipPath>
</defs>
</svg>
