<svg width="110" height="39" viewBox="0 0 110 39" fill="none" xmlns="http://www.w3.org/2000/svg">
<g clip-path="url(#clip0_829_34304)">
<mask id="mask0_829_34304" style="mask-type:luminance" maskUnits="userSpaceOnUse" x="0" y="0" width="110" height="39">
<path d="M110 0H0V38.5965H110V0Z" fill="white"/>
</mask>
<g mask="url(#mask0_829_34304)">
<path d="M35.5181 -0.000488281V0.00665396L32.0816 3.41271V-0.000488281H28.6439L22.9157 5.67534V20.4327H25.207V6.8109L29.79 2.27001V20.4327H32.0816V6.8109L36.6639 2.27001V20.4327H38.9554V-0.000488281H35.5181Z" fill="#1E2321"/>
<path d="M0.00138443 20.4327H9.16724V-0.000492602H5.72951L0 5.67547L0.00138443 5.67679V20.4327ZM6.87564 2.27001V18.1623H2.29294V6.81066L6.87564 2.27001Z" fill="#1E2321"/>
<path d="M20.6238 -0.000366211H11.4583V20.4327H20.6238V-0.000366211ZM13.7495 2.27002H18.3324V18.1626H13.7495V2.27002Z" fill="#1E2321"/>
<path d="M0.00188446 24.9745H38.956V22.704H0.00188446V24.9745Z" fill="#1E2321"/>
<path d="M0.00188446 27.2449V38.5965H2.29344V36.3263H16.042V27.2449H0.00188446ZM13.7505 34.0559H2.29344V29.5153H13.7505V34.0559Z" fill="#1E2321"/>
<path d="M18.3333 27.2449V36.3263H27.4992V38.5965H29.7904V36.3263H38.9562V27.2449H18.3333ZM20.6245 29.5153H27.4988V34.0559H20.6245V29.5153ZM36.6646 34.0559H29.7904V29.5153H36.6646V34.0559Z" fill="#1E2321"/>
<path d="M75.1619 25.5399H71.0445V15.3256H77.8483V17.1041H73.0531V19.1694H75.1619C77.2278 19.1694 78.4979 20.4908 78.4979 22.3549C78.4979 24.2205 77.242 25.5399 75.1619 25.5399ZM75.061 20.9494H73.0531V23.7621H75.061C75.9563 23.7621 76.4905 23.2024 76.4905 22.3549C76.4905 21.5236 75.9563 20.9494 75.061 20.9494Z" fill="#1E2321"/>
<path d="M87.0827 25.5399L86.4752 23.7331H82.8208L82.199 25.5399H80.1057L83.8467 15.3256H85.4209L89.1766 25.5399H87.0827ZM84.6843 18.3385L83.3841 22.0539H85.9404L84.6843 18.3385Z" fill="#1E2321"/>
<path d="M96.772 25.5399V21.2638H93.2912V25.5399H91.2841V15.3256H93.2912V19.4996H96.772V15.3256H98.781V25.5399H96.772Z" fill="#1E2321"/>
<path d="M101.926 25.5399V15.3256H103.933V20.1749L107.256 15.3256H109.655L106.201 20.1181L110 25.5399H107.545L103.933 20.2028V25.5399H101.926Z" fill="#1E2321"/>
<path d="M57.2864 38.5927H54.9953V0.00537109H57.2864V38.5927Z" fill="#7FCB2C"/>
</g>
</g>
<defs>
<clipPath id="clip0_829_34304">
<rect width="110" height="38.5965" fill="white"/>
</clipPath>
</defs>
</svg>
