<svg width="110" height="26" viewBox="0 0 110 26" fill="none" xmlns="http://www.w3.org/2000/svg">
<g clip-path="url(#clip0_827_33681)">
<mask id="mask0_827_33681" style="mask-type:luminance" maskUnits="userSpaceOnUse" x="0" y="0" width="110" height="26">
<path d="M0 0H109.791V25.7454H0V0Z" fill="white"/>
</mask>
<g mask="url(#mask0_827_33681)">
<path d="M30.3623 7.40175H33.9024V12.1465H38.5774V7.40175H42.1137V20.0827H38.5774V15.2644H33.8985V20.0827H30.3584V7.40175H30.3623ZM45.1774 13.7771V13.7422C45.1774 10.1014 48.0669 7.14612 52.0059 7.14612C55.945 7.14612 58.7957 10.0627 58.7957 13.7035V13.7384C58.7957 17.3792 55.9063 20.3306 51.9672 20.3306C48.0281 20.3345 45.1774 17.4179 45.1774 13.7771ZM55.1859 13.7771V13.7422C55.1859 11.9141 53.9193 10.3183 51.9711 10.3183C50.0383 10.3183 48.8105 11.8753 48.8105 13.7074V13.7422C48.8105 15.5704 50.0771 17.1662 52.0098 17.1662C53.9542 17.1662 55.1859 15.6091 55.1859 13.7771ZM62.0221 7.40175H65.5623V17.0035H71.4109V20.0827H62.0221V7.40175ZM73.1887 13.7771V13.7422C73.1887 10.0472 76.051 7.14612 79.9204 7.14612C82.5271 7.14612 84.208 8.2345 85.339 9.79154L82.6742 11.8405C81.9461 10.9341 81.1056 10.3532 79.8855 10.3532C78.0999 10.3532 76.8411 11.856 76.8411 13.7035V13.7384C76.8411 15.6401 78.0999 17.1275 79.8855 17.1275C81.2179 17.1275 82.0003 16.5116 82.7672 15.5859L85.432 17.4683C84.2274 19.1183 82.6045 20.3306 79.7771 20.3306C76.1246 20.3345 73.1887 17.5651 73.1887 13.7771ZM88.6081 7.40175H92.1637V20.0827H88.6081V7.40175ZM95.8239 7.40175H99.5616L102.807 12.313L106.053 7.40175H109.791V20.0827H106.27V12.6655L102.807 17.631H102.734L99.2866 12.7042V20.0827H95.82V7.40175H95.8239Z" fill="#1D4370"/>
<path d="M16.7944 0C13.4053 0 10.4965 2.16901 9.71408 5.51162C9.55141 6.22817 9.43909 7.15 9.43909 8.41655V10.8838H14.7183V5.27923H18.8704V14.3852C21.9148 13.4866 24.1535 10.6746 24.1535 7.32817C24.1535 3.20317 20.9232 0 16.7944 0ZM7.29331 25.362C10.6863 25.362 13.657 23.193 14.4394 19.8504C14.6021 19.1338 14.7144 18.212 14.7144 16.9454V14.4782H9.43521V20.0827H5.2831V10.9768C2.23873 11.8754 0 14.6873 0 18.0299C0 22.3331 2.99014 25.362 7.29331 25.362Z" fill="url(#paint0_linear_827_33681)"/>
</g>
</g>
<defs>
<linearGradient id="paint0_linear_827_33681" x1="-0.698733" y1="18.0935" x2="24.7868" y2="7.27549" gradientUnits="userSpaceOnUse">
<stop offset="0.15" stop-color="#94C12E"/>
<stop offset="0.186" stop-color="#8DC137"/>
<stop offset="0.245" stop-color="#7BC04F"/>
<stop offset="0.32" stop-color="#5EBF77"/>
<stop offset="0.407" stop-color="#36BDAE"/>
<stop offset="0.5" stop-color="#04BBF1"/>
<stop offset="0.586" stop-color="#05B7ED"/>
<stop offset="0.674" stop-color="#08ABE0"/>
<stop offset="0.764" stop-color="#0C98CC"/>
<stop offset="0.855" stop-color="#117DAF"/>
<stop offset="0.946" stop-color="#185B8A"/>
<stop offset="1" stop-color="#1D4370"/>
</linearGradient>
<clipPath id="clip0_827_33681">
<rect width="110" height="25.9507" fill="white"/>
</clipPath>
</defs>
</svg>
