<svg width="110" height="23" viewBox="0 0 110 23" fill="none" xmlns="http://www.w3.org/2000/svg">
<path d="M103.354 8.87667H105.63V6.47003H107.724V8.87667H110V2.84844H107.724V4.97024H105.63V2.84844H103.354V8.87667ZM89.5606 4.56913C90.0617 4.25684 90.646 4.07977 91.2488 4.05757C91.5364 4.05757 92.1616 4.09827 92.1616 4.60982C92.1616 5.12138 91.6114 5.12138 91.3926 5.12138H90.2734V6.42934H91.2863C91.6114 6.42934 92.2242 6.42934 92.2242 6.94089C92.2242 7.13854 92.0929 7.52221 91.2988 7.52221C90.5953 7.52258 89.9092 7.31942 89.3355 6.94089L88.7478 8.36511C89.6302 8.83818 90.6303 9.08867 91.6489 9.09175C94.2562 9.09175 94.5813 7.69079 94.5813 7.23155C94.585 6.8797 94.4555 6.53785 94.2155 6.2658C93.9754 5.99375 93.6402 5.80883 93.2683 5.74338C93.5562 5.61968 93.7983 5.41954 93.9641 5.16817C94.1299 4.9168 94.2119 4.62544 94.1999 4.33079C94.1999 2.92401 92.6056 2.63335 91.6239 2.63335C90.7041 2.63672 89.7973 2.83556 88.9729 3.21467L89.5606 4.56913ZM84.6274 2.06367C85.1572 2.10005 85.6863 1.98547 86.1443 1.73518C86.6023 1.48489 86.9674 1.11078 87.1909 0.662698L85.7091 0.139515C85.6579 0.364692 85.5194 0.564461 85.3198 0.70065C85.1203 0.836839 84.8738 0.899901 84.6274 0.877785C84.3817 0.899705 84.1361 0.83645 83.9376 0.700175C83.739 0.5639 83.6017 0.364222 83.5519 0.139515L82.0701 0.662698C82.2932 1.1098 82.6573 1.48323 83.1141 1.73345C83.5708 1.98367 84.0986 2.09884 84.6274 2.06367ZM81.076 2.84844V8.87667H83.2893L85.5402 5.55736V8.87667H87.8161V2.84844H85.659L83.3769 6.08055V2.84844H81.076ZM65.9824 7.55709V4.23197C65.2134 4.23197 64.4318 4.76096 64.4318 5.90615C64.4318 7.05134 65.2134 7.59196 65.9824 7.58034V7.55709ZM67.9707 4.23197V7.55709C68.7398 7.55709 69.5214 7.0339 69.5214 5.8829C69.5214 4.7319 68.7398 4.19709 67.9707 4.20871V4.23197ZM65.8386 11.4751V8.96387C64.4818 8.96387 62.2435 8.46394 62.2435 5.85383C62.2435 3.24373 64.4756 2.74962 65.8386 2.76124V0.139515H68.1145V2.76124C69.4838 2.76124 71.7097 3.26117 71.7097 5.85383C71.7097 8.4465 69.4713 8.98131 68.1145 8.96387V11.4984L65.8386 11.4751ZM55.7409 7.55709V4.23197C54.9718 4.23197 54.1902 4.76096 54.1902 5.90615C54.1902 7.05134 54.9718 7.59196 55.7409 7.58034V7.55709ZM57.7354 4.23197V7.55709C58.4982 7.55709 59.2798 7.0339 59.2798 5.8829C59.2798 4.7319 58.4982 4.19709 57.7354 4.20871V4.23197ZM55.597 11.4751V8.96387C54.2465 8.96387 52.0081 8.46394 52.0081 5.85383C52.0081 3.24373 54.234 2.74962 55.597 2.76124V0.139515H57.873V2.76124C59.2423 2.76124 61.4681 3.26117 61.4681 5.85383C61.4681 8.4465 59.2297 8.98131 57.873 8.96387V11.4984L55.597 11.4751ZM47.7377 2.06367C48.2672 2.09841 48.7956 1.98313 49.2533 1.73303C49.7109 1.48293 50.0763 1.10975 50.3012 0.662698L48.8193 0.139515C48.7682 0.364692 48.6296 0.564461 48.4301 0.70065C48.2306 0.836839 47.9841 0.899901 47.7377 0.877785C47.4913 0.899901 47.2448 0.836839 47.0452 0.70065C46.8457 0.564461 46.7071 0.364692 46.656 0.139515L45.1741 0.662698C45.3991 1.10975 45.7644 1.48293 46.2221 1.73303C46.6797 1.98313 47.2081 2.09841 47.7377 2.06367ZM44.1862 2.84844V8.87667H46.3934L48.6505 5.55736V8.87667H50.9264V2.84844H48.7693L46.4934 6.08055V2.84844H44.1862ZM30.2807 1.92415V3.9355H31.1123C32.244 3.9355 32.3628 3.29605 32.3628 2.92401C32.3628 2.55197 32.2065 1.92415 31.1123 1.92415H30.2807ZM27.836 8.89992V0H31.675C34.2635 0 35.0138 1.74394 35.0138 2.90657C35.0138 4.0692 34.2698 5.81314 31.6938 5.81314H30.2807V8.83598L27.836 8.89992ZM79.6566 2.83681V8.87667H77.387V8.20816C77.1677 8.49182 76.8753 8.71977 76.5367 8.8711C76.198 9.02243 75.8239 9.0923 75.4487 9.07432C75.0078 9.06389 74.5735 8.97188 74.1712 8.80366C73.7689 8.63544 73.4067 8.39438 73.1058 8.09455C72.8048 7.79473 72.5712 7.44216 72.4184 7.05743C72.2657 6.67271 72.1969 6.26354 72.2162 5.85383C72.1935 5.44557 72.2591 5.03721 72.4091 4.65293C72.5591 4.26864 72.7905 3.91622 73.0895 3.61651C73.3885 3.3168 73.7492 3.07588 74.1501 2.90801C74.551 2.74014 74.9841 2.64873 75.4237 2.63917C75.796 2.62916 76.1662 2.6947 76.5085 2.83124C76.8508 2.96777 77.157 3.17202 77.4057 3.42975V2.84844L79.6566 2.83681ZM76.0052 4.49937C75.8104 4.49097 75.6159 4.52064 75.4342 4.58648C75.2525 4.65232 75.0877 4.75285 74.9504 4.88159C74.8131 5.01033 74.7064 5.16441 74.6372 5.33388C74.5679 5.50335 74.5377 5.68444 74.5484 5.86546C74.5484 6.22469 74.7018 6.5692 74.9751 6.82321C75.2483 7.07722 75.6188 7.21992 76.0052 7.21992C76.3916 7.21992 76.7621 7.07722 77.0353 6.82321C77.3085 6.5692 77.462 6.22469 77.462 5.86546C77.4727 5.68444 77.4425 5.50335 77.3732 5.33388C77.304 5.16441 77.1972 5.01033 77.0599 4.88159C76.9226 4.75285 76.7578 4.65232 76.5762 4.58648C76.3945 4.52064 76.2 4.49097 76.0052 4.49937ZM42.7669 2.83681V8.87667H40.4973V8.20816C40.278 8.49182 39.9856 8.71977 39.647 8.8711C39.3083 9.02243 38.9342 9.0923 38.559 9.07432C38.1183 9.06392 37.6843 8.97188 37.2824 8.80358C36.8804 8.63529 36.5186 8.39413 36.2182 8.09422C35.9177 7.79431 35.6847 7.44168 35.5326 7.05699C35.3806 6.67229 35.3126 6.26325 35.3327 5.85383C35.3092 5.44729 35.3734 5.04047 35.5215 4.65734C35.6697 4.2742 35.8988 3.9225 36.1953 3.62294C36.4919 3.32338 36.8499 3.08202 37.2483 2.91307C37.6468 2.74411 38.0775 2.65099 38.5152 2.63917C38.8874 2.63033 39.2572 2.6964 39.5993 2.83286C39.9414 2.96932 40.2477 3.17294 40.4973 3.42975V2.84844L42.7669 2.83681ZM39.1092 4.49937C38.9147 4.49187 38.7206 4.52217 38.5394 4.58832C38.3581 4.65448 38.1937 4.75504 38.0566 4.88359C37.9195 5.01214 37.8128 5.16585 37.7432 5.33491C37.6736 5.50397 37.6427 5.68466 37.6524 5.86546C37.6767 6.21011 37.841 6.53326 38.1122 6.76937C38.3833 7.00548 38.7409 7.13686 39.1124 7.13686C39.4838 7.13686 39.8414 7.00548 40.1125 6.76937C40.3837 6.53326 40.548 6.21011 40.5723 5.86546C40.5821 5.68415 40.551 5.50295 40.481 5.33347C40.4111 5.16399 40.3037 5.00999 40.166 4.88135C40.0282 4.75272 39.863 4.65228 39.681 4.5865C39.499 4.52072 39.3043 4.49104 39.1092 4.49937ZM102.259 6.12124V6.34214H97.4762C97.4512 6.52249 97.4707 6.70577 97.5332 6.87808C97.5957 7.05039 97.6996 7.20721 97.837 7.33663C97.9744 7.46605 98.1417 7.56468 98.3262 7.62504C98.5107 7.68539 98.7075 7.70589 98.9018 7.68497C99.1237 7.69826 99.3449 7.65014 99.5374 7.54668C99.7299 7.44322 99.8851 7.28907 99.9835 7.10366H102.172C101.809 8.52788 100.377 9.17314 98.9143 9.17314C96.7947 9.17314 95.2066 8.04539 95.2066 5.95847C95.2066 3.87155 96.6697 2.73799 98.7518 2.73799C100.971 2.73799 102.259 4.02851 102.259 6.09217V6.12124ZM97.52 5.08069H100.146C100.075 4.80661 99.907 4.56272 99.6688 4.38826C99.4306 4.21381 99.1363 4.11894 98.833 4.11894C98.5298 4.11894 98.2354 4.21381 97.9973 4.38826C97.7591 4.56272 97.591 4.80661 97.52 5.08069ZM31.4937 18.4509H30.7684L30.4245 20.3344H31.0935C32.5816 20.3344 32.8755 19.9391 32.9693 19.4333C33.0631 18.9276 32.9693 18.4509 31.4749 18.4509H31.4937ZM35.5891 19.4624C35.5169 20.0679 35.2463 20.6382 34.8138 21.0959C33.7633 22.0899 32.2377 22.1771 31.2623 22.183H27.4358L29.0615 13.3063H35.5703L35.2639 15.0502H31.3311L31.0248 16.7942H32.169C33.1273 16.7343 34.0782 16.9872 34.8575 17.5092C35.1545 17.7491 35.378 18.0577 35.5053 18.4038C35.6327 18.7499 35.6594 19.1211 35.5828 19.4798L35.5891 19.4624ZM42.4606 20.6076H38.8341L37.865 22.1539H35.1014L40.5473 13.2772H43.3922L45.5868 22.1539H42.8044L42.4606 20.6076ZM42.0729 18.8636L41.5102 16.0385L39.9283 18.8636H42.0729ZM60.1676 13.2947H57.5228L55.9222 22.1771H58.5232L59.2172 18.3347L61.8996 22.183H65.2759L61.762 17.5324L66.5014 13.3295H63.2689L59.4611 16.9918L60.1676 13.2947ZM50.0823 13.2947L49.5009 16.6023H52.9773L53.5587 13.2947H56.0597L54.5154 22.183H52.0144L52.6396 18.3637H49.1757L48.513 22.183H45.9745L47.5188 13.3063L50.0823 13.2947Z" fill="black"/>
<path d="M23.0592 0.738281H0.794106V21.4389H23.0592V0.738281Z" fill="#FAEB00"/>
<path d="M0.794067 0.738269H23.0654V21.4447H0.794067V0.738269ZM0 22.183H23.8595V0H0V22.183Z" fill="black"/>
<path d="M11.9299 13.62L5.05211 20.0145L2.35728 17.4393L9.23503 11.0448L7.80946 9.71359V7.13256L6.81531 6.20826V8.53352L5.92746 9.30086L2.45107 6.07456L1.58823 6.87096C1.6028 5.44246 2.22556 4.07753 3.32017 3.07498C3.84189 2.53066 4.57281 2.1988 5.35531 2.15095C6.1378 2.1031 6.90918 2.3431 7.50309 2.8192L10.9732 6.0455L10.0916 6.87096L11.9111 8.56259L13.7556 6.87096L12.8615 6.0455L16.3379 2.8192C16.9328 2.33774 17.7083 2.09444 18.4954 2.14236C19.2824 2.19027 20.0172 2.5255 20.5395 3.07498C21.633 4.07775 22.2537 5.44304 22.2652 6.87096L21.4086 6.07456L17.9322 9.30086L17.0694 8.50446V6.1792L16.0753 7.10349V9.73103L14.6497 11.0622L21.5274 17.4567L18.7576 19.9912L11.9299 13.62Z" fill="black"/>
</svg>
