<svg width="110" height="24" viewBox="0 0 110 24" fill="none" xmlns="http://www.w3.org/2000/svg">
<g clip-path="url(#clip0_827_33492)">
<mask id="mask0_827_33492" style="mask-type:luminance" maskUnits="userSpaceOnUse" x="0" y="0" width="110" height="24">
<path d="M0.0699463 0H110V23.8916H0.0699463V0Z" fill="white"/>
</mask>
<g mask="url(#mask0_827_33492)">
<path d="M1.62239 21.2378L15.9231 17.8322C16.049 17.8042 16.3916 17.7273 16.6923 17.7483C16.9371 17.7622 17.0839 17.7692 17.3007 17.8671C17.6084 17.986 17.8392 18.2378 17.965 18.3776L23.1748 23.8741H23.2308L0.0699463 23.8881L1.62239 21.2378ZM24.5804 23.8741L14.4755 13.2028C14.3916 13.1119 14.1539 12.8462 14.014 12.5804C13.9091 12.3636 13.8462 12.2308 13.8182 11.993C13.7692 11.6713 13.8741 11.3427 13.9301 11.1608L16.0909 3.90909L16.063 3.85315L27.6574 23.8951L24.5804 23.8741Z" fill="#FF9A00"/>
<path fill-rule="evenodd" clip-rule="evenodd" d="M15.3357 2.67133L11.1399 16.7483C11.1049 16.8671 10.993 17.2028 10.8252 17.4615C10.6923 17.6573 10.6084 17.7832 10.4196 17.9231C10.1608 18.1259 9.82517 18.2028 9.64335 18.2448L2.27272 20L13.8112 0L15.3357 2.67133ZM32.2168 7H35.3776C37.5804 7 38.5874 8.34965 38.5874 9.95804C38.5874 11.5664 37.5175 12.8322 35.1818 12.8322H33.6713V17.0769H32.2168V7ZM33.6713 11.5385H35.3217C36.3916 11.5385 37.0979 10.9021 37.0979 9.9021C37.0979 9.16084 36.6853 8.29371 35.3776 8.29371H33.6713V11.5385ZM52.8671 15.7832H57.4266V17.0769H51.4196V7H52.8671V15.7832ZM57.986 7L60.6993 10.4755L63.4336 7H65.1818L61.4336 11.7552V17.0769H59.986V11.7413L56.2308 7H57.986ZM67.8601 7L71.2028 11.1399L74.5594 7H75.9091V17.0769H74.4545V9.23776H74.4266L71.3147 13.1399H71.0909L67.972 9.23776H67.9441V17.0769H66.4965V7H67.8601ZM101.287 17.0769L99.9371 14.1119H95.6504L94.3706 17.0769H92.8881L97.2308 6.94406H98.2448L102.769 17.0769H101.287ZM96.2168 12.8112H99.3427L97.7203 9.15385L96.2168 12.8112ZM105.455 15.7762H110V17.0769H104V6.99301H105.455V15.7762ZM84.1748 7.00699V8.30769H79.5245V11.2448H84.0699V12.5455H79.5245V15.7972H84.3496V17.0909H78.0629V7.00699H84.1748ZM93.6433 7.00699V8.30769H90.2378V17.0909H88.7902V8.30769H85.3846V7.00699H93.6433ZM44.6573 6.92308C47.8392 6.92308 49.8461 9.29371 49.8461 12.1049C49.8461 14.9161 47.8951 17.2867 44.6294 17.2867C41.3636 17.2867 39.4755 14.8392 39.4755 12.1049C39.4755 9.36364 41.5315 6.92308 44.6573 6.92308ZM48.4196 12.1049C48.4196 9.97203 46.7413 8.25175 44.6643 8.25175C42.5874 8.25175 40.9091 9.97203 40.9091 12.1049C40.9091 14.2378 42.5874 15.958 44.6643 15.958C46.7413 15.958 48.4196 14.2378 48.4196 12.1049ZM52.2168 19.4406H52.5455V23.6573H52.2168V19.4406ZM53.3427 19.4406H53.6573L56.8252 23.1189V19.4406H57.1469V23.6504H56.8741L53.6783 19.958V23.6504H53.3427V19.4406ZM57.5524 19.4406H61.035V19.7133H59.4615V23.6504H59.1259V19.7133H57.5524V19.4406ZM61.4755 19.4476H63.7832V19.7273H61.8112V21.3986H63.7343V21.6783H61.8112V23.3776H63.8322V23.6573H61.4755V19.4476ZM65.5245 19.4476C66.8182 19.4476 66.972 20.1189 66.972 20.5385C66.972 21.0559 66.6434 21.4196 66.1888 21.5524C66.3427 21.6504 66.5594 21.9021 66.6434 22.042C66.6434 22.042 67.6084 23.5245 67.6993 23.6573H67.3147L66.5245 22.4266C66.1678 21.8671 65.979 21.6434 65.4965 21.6434H64.8322V23.6573H64.5035V19.4476H65.5245ZM64.8322 21.3636H65.5385C66.3217 21.3636 66.6154 21.007 66.6154 20.5455C66.6154 20 66.2587 19.7273 65.3916 19.7273H64.8322V21.3636ZM68.035 19.4545H68.3496L71.5175 23.1329V19.4545H71.8462V23.6573H71.5734L68.3706 19.965V23.6573H68.035V19.4545ZM74.1748 19.4266H74.3706L76.3147 23.6643H75.972L75.3077 22.2098H73.2517L72.5804 23.6643H72.2448L74.1748 19.4266ZM74.2727 19.958L73.3566 21.9301H75.1748L74.2727 19.958ZM76.3566 19.4545H79.8392V19.7273H78.2657V23.6643H77.9301V19.7273H76.3566V19.4545ZM80.2867 19.4545H80.6154V23.6713H80.2867V19.4545ZM83.5454 23.7273C82.3147 23.7273 81.3147 22.7622 81.3147 21.5664C81.3147 20.3706 82.3147 19.4056 83.5454 19.4056C84.7762 19.4056 85.7692 20.3706 85.7692 21.5664C85.7692 22.7622 84.7762 23.7273 83.5454 23.7273ZM85.4196 21.5455C85.4196 20.5315 84.5944 19.6993 83.5454 19.6993C83.3007 19.6993 83.0559 19.7483 82.8252 19.8462C82.5944 19.9441 82.3916 20.0839 82.2168 20.2587C82.042 20.4336 81.9021 20.6434 81.8112 20.8671C81.7133 21.0979 81.6643 21.3427 81.6713 21.5874C81.6713 22.6294 82.4895 23.4266 83.5315 23.4266C83.7832 23.4266 84.028 23.3776 84.2517 23.2867C84.4825 23.1888 84.6923 23.0559 84.8671 22.8811C85.042 22.7063 85.1818 22.4965 85.2727 22.2657C85.3706 22.042 85.4196 21.7972 85.4196 21.5455ZM86.4965 19.4615H86.8042L89.972 23.1399V19.4615H90.3007V23.6713H90.028L86.8252 19.972V23.6713H86.4965V19.4615ZM92.6294 19.4266H92.8252L94.7692 23.6643H94.4266L93.7622 22.2098H91.7063L91.035 23.6643H90.6993L92.6294 19.4266ZM92.7273 19.958L91.8112 21.9371H93.6294L92.7273 19.958ZM95.2098 19.4545H95.5385V23.3916H97.6224V23.6713H95.2028V19.4545C95.2028 19.4545 95.2051 19.4545 95.2098 19.4545ZM100.392 19.4615H101.601C102.259 19.4615 102.923 19.7343 102.923 20.5874C102.923 21.4336 102.259 21.6993 101.601 21.6993H100.727V23.6713H100.399V19.4615H100.392ZM100.72 19.7413V21.4196H101.503C102.077 21.4336 102.566 21.2448 102.566 20.5874C102.566 19.9231 102.077 19.7413 101.503 19.7413H100.72ZM103.538 19.4545H103.874V23.3916H105.951V23.6713H103.538V19.4545ZM108.503 23.4336C109.049 23.4336 109.524 23.2308 109.993 23V23.3357C109.517 23.5804 109.042 23.7273 108.503 23.7273C107.238 23.7273 106.266 22.8252 106.266 21.5874C106.266 20.3497 107.21 19.4126 108.469 19.4126C109.084 19.4126 109.524 19.5664 109.951 19.7622V20.1119C109.503 19.8811 109.119 19.7063 108.517 19.7063C107.392 19.7063 106.615 20.5035 106.615 21.5734C106.615 22.6364 107.413 23.4336 108.503 23.4336Z" fill="#878787"/>
</g>
</g>
<defs>
<clipPath id="clip0_827_33492">
<rect width="110" height="23.9161" fill="white"/>
</clipPath>
</defs>
</svg>
