<svg width="110" height="16" viewBox="0 0 110 16" fill="none" xmlns="http://www.w3.org/2000/svg">
<g clip-path="url(#clip0_928_1252)">
<path d="M22.7586 12.7332C19.9912 12.7332 17.8237 10.5629 17.8237 7.62444C17.8237 4.68582 19.9912 2.45821 22.7586 2.45821C25.5259 2.45821 27.6935 4.68582 27.6935 7.62444C27.6935 10.5629 25.5259 12.7332 22.7586 12.7332ZM22.7586 -0.000183105C18.501 -0.000183105 15.1724 3.37985 15.1724 7.62444C15.1724 11.8497 18.501 15.1724 22.7586 15.1724C27.0162 15.1724 30.3448 11.8497 30.3448 7.62444C30.3448 3.37985 27.0162 -0.000183105 22.7586 -0.000183105Z" fill="#2B2B2A"/>
<path d="M55.3793 12.7332C52.6119 12.7332 50.4444 10.5629 50.4444 7.62444C50.4444 4.68582 52.6119 2.45821 55.3793 2.45821C58.1467 2.45821 60.3142 4.68582 60.3142 7.62444C60.3142 10.5629 58.1467 12.7332 55.3793 12.7332ZM55.3793 -0.000183105C51.1217 -0.000183105 47.7931 3.37985 47.7931 7.62444C47.7931 11.8497 51.1217 15.1724 55.3793 15.1724C59.6369 15.1724 62.9655 11.8497 62.9655 7.62444C62.9655 3.37985 59.6369 -0.000183105 55.3793 -0.000183105Z" fill="#2B2B2A"/>
<path d="M85.7241 12.7332C82.9567 12.7332 80.7893 10.5629 80.7893 7.62444C80.7893 4.68582 82.9567 2.45821 85.7241 2.45821C88.4916 2.45821 90.659 4.68582 90.659 7.62444C90.659 10.5629 88.4916 12.7332 85.7241 12.7332ZM85.7241 -0.000183105C81.4668 -0.000183105 78.1379 3.37985 78.1379 7.62444C78.1379 11.8497 81.4668 15.1724 85.7241 15.1724C89.9815 15.1724 93.3104 11.8497 93.3104 7.62444C93.3104 3.37985 89.9815 -0.000183105 85.7241 -0.000183105Z" fill="#2B2B2A"/>
<path d="M68.7675 0H66V15.1724H76.6207V12.7168H68.7675V0Z" fill="#2B2B2A"/>
<path d="M107.116 0L102.404 10.7204L97.7119 0H94.8276L101.539 15.1724H103.289L110 0H107.116Z" fill="#2B2B2A"/>
<path d="M45.777 0H42.3321L36.086 6.49379V0H33.3793V15.1724H36.086V8.42714L42.574 15.1724H46.2758L38.5435 7.33336L45.777 0Z" fill="#2B2B2A"/>
<path d="M0 10.7674C0.171676 12.6852 1.74877 15.1724 6.3341 15.1724C9.82171 15.1724 12.1379 13.382 12.1379 10.5947C12.1379 7.72854 9.84758 6.71446 7.77768 6.44879C6.90428 6.33675 5.86163 6.20467 5.06728 6.10332C3.6583 5.92352 3.00505 5.36427 3.00505 4.37594C3.00505 3.09645 4.33286 2.27418 5.95115 2.27418C7.60388 2.27418 8.69781 2.84815 9.19175 4.17437H11.8434C11.5308 2.44229 10.1232 -0.000244141 5.95115 -0.000244141C2.43737 -0.000244141 0.294572 2.16896 0.294572 4.54868C0.294572 7.5929 2.82351 8.32231 4.89781 8.59375C5.69626 8.69821 6.50661 8.80586 7.21797 8.89606C8.62711 9.07464 9.42753 9.70179 9.42753 10.7674C9.42753 11.833 8.59017 12.8691 6.27516 12.8691C4.0326 12.8691 2.87449 11.8404 2.68089 10.7674H0Z" fill="#2B2B2A"/>
</g>
<defs>
<clipPath id="clip0_928_1252">
<rect width="110" height="15.1724" fill="white"/>
</clipPath>
</defs>
</svg>
