<svg width="110" height="33" viewBox="0 0 110 33" fill="none" xmlns="http://www.w3.org/2000/svg">
<path fill-rule="evenodd" clip-rule="evenodd" d="M5.93621 31.6781H8.78103L9.10345 29.1261C9.34244 29.5031 9.68254 29.8053 10.085 29.9982C10.4874 30.1911 10.9359 30.267 11.3793 30.2171C11.8125 30.2373 12.2438 30.148 12.6333 29.9573C13.0228 29.7666 13.3579 29.4807 13.6078 29.1261L13.9207 31.6781H16.8603L15.7414 19.2878C15.7452 19.0986 15.7112 18.9105 15.6414 18.7345C15.5716 18.5585 15.4674 18.3983 15.335 18.2631C15.2025 18.1279 15.0444 18.0206 14.87 17.9473C14.6955 17.874 14.5082 17.8362 14.319 17.8363C13.4655 17.8363 12.9724 18.4909 12.9724 19.506V26.223C12.9022 26.5918 12.7057 26.9245 12.4166 27.1639C12.1275 27.4032 11.764 27.5342 11.3888 27.5342C11.0136 27.5342 10.6501 27.4032 10.361 27.1639C10.0719 26.9245 9.87535 26.5918 9.80517 26.223V19.4491C9.80517 18.9273 9.71983 17.8363 8.51552 17.8363C7.56724 17.8363 7.14052 18.4719 7.04569 19.5345L5.93621 31.6781ZM0 31.6781H2.75948L3.86897 19.7527C4.19138 16.3183 5.81293 14.8858 7.9181 14.8858C9.47328 14.8858 10.4595 15.6447 11.3888 17.1247C11.6749 16.4454 12.1592 15.8683 12.7784 15.4688C13.3976 15.0693 14.1229 14.8661 14.8595 14.8858C16.8319 14.8858 18.5672 16.1286 18.9086 19.7812L20.0181 31.6781H22.7586L21.6776 19.8666C21.0612 13.3204 17.7897 12.2768 15.3336 12.2768C14.5944 12.2492 13.8579 12.3826 13.1752 12.6676C12.4925 12.9526 11.8798 13.3825 11.3793 13.9276C10.8788 13.3846 10.2698 12.9529 9.59189 12.6603C8.91397 12.3678 8.18221 12.221 7.44397 12.2293C5.0069 12.2293 1.75431 13.2445 1.1 19.8666L0 31.6781ZM33.0095 12.5519H24.3043V19.8001C24.254 20.6519 24.3779 21.5049 24.6685 22.3071C24.9591 23.1092 25.4103 23.8436 25.9944 24.4653C26.5785 25.0869 27.2832 25.5828 28.0655 25.9226C28.8478 26.2623 29.6912 26.4388 30.544 26.4412C31.1414 26.4412 32.5638 26.3938 33.0095 25.1604V23.0068C32.3111 23.4894 31.4779 23.7385 30.6293 23.7184C30.1449 23.7087 29.6673 23.6022 29.2247 23.4051C28.7821 23.208 28.3833 22.9243 28.052 22.5706C27.7206 22.217 27.4633 21.8006 27.2952 21.346C27.1271 20.8914 27.0517 20.4077 27.0733 19.9235V15.1799H30.2405V19.3353C30.2329 19.532 30.2646 19.7282 30.3338 19.9126C30.4029 20.0969 30.5081 20.2655 30.6432 20.4086C30.7784 20.5518 30.9406 20.6665 31.1206 20.7461C31.3006 20.8257 31.4946 20.8686 31.6914 20.8722C31.8843 20.8661 32.0737 20.8194 32.2473 20.7352C32.421 20.651 32.575 20.5312 32.6993 20.3835C32.8236 20.2359 32.9155 20.0637 32.9689 19.8782C33.0224 19.6927 33.0362 19.498 33.0095 19.3068V12.5519ZM54.6491 12.5519H41.7241V24.0409C41.7241 28.5284 44.6543 32.0102 49.1397 32.0102C54.0328 32.0102 56.7259 28.4809 56.7259 24.7809C56.7411 22.9077 56.0164 21.1041 54.7094 19.7627C53.4023 18.4213 51.6187 17.6505 49.7466 17.6181C49.017 17.625 48.2981 17.7935 47.6414 18.1114V20.8722C48.2017 20.4908 48.8604 20.2799 49.5379 20.265C50.1344 20.28 50.7221 20.4123 51.2675 20.6545C51.8129 20.8967 52.3052 21.244 52.7165 21.6765C53.1277 22.1091 53.4497 22.6184 53.6642 23.1755C53.8786 23.7326 53.9813 24.3265 53.9664 24.9232C53.9514 25.52 53.8192 26.108 53.5771 26.6536C53.335 27.1993 52.9879 27.6918 52.5555 28.1033C52.1232 28.5147 51.6141 28.8369 51.0572 29.0514C50.5004 29.266 49.9068 29.3687 49.3103 29.3538C46.7405 29.3538 44.569 27.5512 44.569 23.8512V15.1799H54.6491V12.5519ZM62.0362 18.6237H59.3621V26.0997C59.3621 29.8471 61.875 32.0102 64.6914 32.0102C65.7116 32.0322 66.7174 31.7659 67.5931 31.2417V28.5284C66.9667 29.1219 66.1324 29.4456 65.2698 29.4297C63.544 29.4297 62.0362 28.1204 62.0362 25.7391V18.6237ZM100.916 12.5614H110V15.1799H105.79V31.7066H97.094V15.1799H92.8552V12.5234H99.8535V29.0502H103.03V15.085H100.953L100.916 12.5614ZM85.4491 12.5614V15.085H88.569V29.0502H85.4302V23.3578H81.3526V26.0143H82.6707V31.7066H91.3664V12.5519L85.4491 12.5614ZM81.0491 29.1735H78.2043V15.1799H81.3716V20.4832H85.4491V17.8647H84.1216V12.5519H75.4259V31.7066H81.0491V29.1735ZM34.2233 12.5614V15.085H36.1767V24.022C36.1767 27.6271 34.2802 29.3538 31.3595 29.3538C29.4341 29.3436 27.5603 28.7297 26.0017 27.5986V30.5017C27.6624 31.4248 29.5178 31.9417 31.4164 32.0102C35.0009 32.0102 38.9362 29.7902 38.9362 23.9081V12.5234L34.2233 12.5614ZM63.3259 18.6427V21.1568H64.881V25.2743C64.8682 25.4608 64.8932 25.6481 64.9546 25.8247C65.016 26.0013 65.1126 26.1637 65.2384 26.302C65.3642 26.4403 65.5167 26.5516 65.6867 26.6294C65.8567 26.7071 66.0407 26.7496 66.2276 26.7543C66.4149 26.7524 66.5999 26.7118 66.7707 26.6348C66.9416 26.5579 67.0946 26.4464 67.2203 26.3074C67.3459 26.1683 67.4413 26.0047 67.5006 25.8269C67.5599 25.6491 67.5817 25.4609 67.5647 25.2743V21.1948H70.4095V31.7066H73.0931V18.6237L63.3259 18.6427Z" fill="#1B4E9B"/>
<path fill-rule="evenodd" clip-rule="evenodd" d="M46.6934 24.8189C46.6915 25.3488 46.847 25.8674 47.1401 26.3088C47.4332 26.7502 47.8507 27.0946 48.3398 27.2983C48.8288 27.5019 49.3672 27.5557 49.8869 27.4528C50.4065 27.3499 50.8838 27.0949 51.2584 26.7201C51.6329 26.3454 51.8878 25.8678 51.9907 25.348C52.0936 24.8281 52.0398 24.2894 51.8362 23.8001C51.6327 23.3109 51.2885 22.8931 50.8472 22.5999C50.406 22.3066 49.8877 22.1511 49.358 22.153C49.0049 22.1411 48.6531 22.2019 48.3244 22.3316C47.9957 22.4614 47.6972 22.6573 47.4474 22.9073C47.1975 23.1573 47.0017 23.4559 46.872 23.7848C46.7423 24.1136 46.6815 24.4656 46.6934 24.8189Z" fill="#34C3FF"/>
<path d="M104.462 3.58629H103.694C103.535 3.59887 103.375 3.57747 103.224 3.52349C103.074 3.46952 102.937 3.38421 102.822 3.27321C102.61 3.02635 102.505 2.70583 102.528 2.38141C102.506 2.06006 102.612 1.74304 102.822 1.4991C102.939 1.39126 103.076 1.30865 103.226 1.25642C103.377 1.20418 103.536 1.18345 103.694 1.19551H104.462V3.58629ZM104.462 4.78168V8.06425H105.989V0.000119682H103.04C102.739 -0.00317734 102.44 0.0616853 102.168 0.189864C101.913 0.303979 101.689 0.476198 101.513 0.692686C101.332 0.914829 101.193 1.16905 101.105 1.44218C101.005 1.74809 100.957 2.06888 100.963 2.3909C100.965 2.71308 101.016 3.03311 101.115 3.33962C101.212 3.62304 101.36 3.88657 101.551 4.11757C101.734 4.33687 101.964 4.512 102.224 4.62988L100.66 8.06425H102.329L103.713 4.74373L104.462 4.78168ZM87.3934 0.0380685V8.06425H89.0434L91.2719 2.21064C91.2245 2.44782 91.1865 2.71346 91.1581 2.98859C91.1296 3.26372 91.1581 3.56731 91.1012 3.93731C91.0443 4.30732 91.1012 4.63937 91.1012 5.04732V8.06425H92.5331V0.000119682H90.8736L88.6357 5.86322C88.6357 5.69245 88.702 5.5027 88.7305 5.27501C88.7589 5.04732 88.7305 4.80065 88.7874 4.5445C88.8443 4.28834 88.7874 4.03219 88.7874 3.77603C88.7874 3.51988 88.7874 3.25423 88.7874 3.01705V0.000119682L87.3934 0.0380685ZM71.8512 0.000119682V8.06425H73.2831V0.768584L74.8288 8.06425H75.9193L77.446 0.759097V8.06425H78.8684V0.000119682H76.4408L75.3693 5.23706L74.2977 0.000119682H71.8512ZM59.2012 0.000119682V8.06425H63.5348V6.8404H60.7374V4.33578H63.2693V3.10244H60.7374V1.205H63.5348V0.000119682H59.2012ZM48.9124 1.23346V6.8404H46.646C46.7598 6.58425 46.8641 6.33758 46.9495 6.08142C47.0466 5.81506 47.1258 5.54248 47.1865 5.26552C47.2487 4.95206 47.2931 4.63531 47.3193 4.3168C47.3193 3.95629 47.3667 3.54834 47.3667 3.09295V1.23346H48.9124ZM45.8589 0.000119682V2.51423C45.8589 2.96013 45.8589 3.34911 45.8589 3.70013C45.8589 4.05116 45.8115 4.37373 45.7736 4.64886C45.7357 4.92398 45.6882 5.18963 45.6313 5.43629C45.5762 5.67436 45.5066 5.90882 45.4227 6.13835C45.3469 6.36604 45.252 6.59373 45.1477 6.83091H44.6641V9.67708H46.1339V8.06425H49.4719V9.68657H50.9512V6.8404H50.4581V0.000119682H45.8589ZM33.2753 4.74373L34.015 0.948841L34.6313 4.74373H33.2753ZM30.9615 8.06425H32.6115L33.0857 5.96758H34.821L35.2003 8.06425H36.8503L35.0865 0.000119682H33.0098L30.9615 8.06425ZM19.6296 0.000119682H18.1029V8.06425H19.6296V5.69245L20.2365 4.89552L21.5736 8.06425H23.2805L21.1753 3.5009L23.2141 0.000119682H21.4882L19.5917 3.5009L19.6296 0.000119682ZM6.51497 4.74373L7.24514 0.948841L7.86152 4.74373H6.51497ZM4.20117 8.06425H5.84169L6.32531 5.96758H8.05117L8.43048 8.06425H10.09L8.29772 0.000119682H6.23997L4.20117 8.06425Z" fill="#1B4E9B"/>
</svg>
