<svg width="110" height="35" viewBox="0 0 110 35" fill="none" xmlns="http://www.w3.org/2000/svg">
<path fill-rule="evenodd" clip-rule="evenodd" d="M13.6798 34.7888C12.7949 34.8856 11.91 34.9645 11.0251 35.0075C11.0251 35.0075 -0.131387 30.128 0.00117199 19.6627C0.105069 11.5385 3.88479 9.16509 3.88479 9.16509C5.74164 9.99643 7.42787 11.166 8.85754 12.6141C10.0118 13.8983 10.9671 15.3485 11.6914 16.9164C11.6914 16.9164 12.7161 11.2409 18.1402 6.62315C26.0938 -0.58319 34.6886 0.0119599 34.6886 0.0119599C35.9112 3.13879 36.5499 6.46361 36.5731 9.82119C36.7092 23.0579 28.6912 32.6126 16.202 34.4411C15.3637 34.5773 14.5217 34.692 13.6798 34.7888Z" fill="#EE1E23"/>
<path fill-rule="evenodd" clip-rule="evenodd" d="M12.3435 18.3575C11.6919 19.86 11.1589 21.4111 10.7492 22.9968C10.7375 23.0552 10.722 23.1127 10.7027 23.1689C10.5665 23.5741 10.4913 23.7067 10.4483 23.6745C9.4344 29.0523 10.5558 33.1216 10.957 34.3226C11.5779 34.326 12.1985 34.2973 12.8164 34.2366C15.987 33.8276 19.0306 32.7327 21.7358 31.028C24.4409 29.3233 26.7428 27.0497 28.4814 24.3651C30.2201 21.6805 31.3539 18.6493 31.804 15.4821C32.2542 12.3149 32.0098 9.08753 31.0881 6.02429C27.1445 6.20306 23.3222 7.44307 20.0239 9.61364C16.7257 11.7842 14.0736 14.805 12.3471 18.3575H12.3435Z" fill="url(#paint0_linear_826_29375)"/>
<path fill-rule="evenodd" clip-rule="evenodd" d="M2.59498 21.3189C2.59296 24.0603 3.37973 26.7444 4.86129 29.0503C6.34285 31.3563 8.45653 33.1866 10.9498 34.3226C10.5485 33.1215 9.42713 29.0523 10.441 23.6744C10.3335 23.5883 10.4912 22.3156 10.5951 21.6057C10.7312 20.6628 10.8853 19.8131 11.0572 19.0243C9.49083 16.7118 7.36306 14.8354 4.87356 13.5712C3.38374 15.88 2.59247 18.5705 2.59498 21.3189Z" fill="url(#paint1_linear_826_29375)"/>
<path fill-rule="evenodd" clip-rule="evenodd" d="M61.1898 11.1548C61.1022 11.0793 60.9996 11.0231 60.8888 10.9898C60.7078 10.9377 60.5216 10.9052 60.3335 10.893C60.1078 10.8715 59.814 10.8608 59.4558 10.8608C59.0975 10.8608 58.8216 10.8608 58.5959 10.893C58.4103 10.9055 58.2265 10.9379 58.0478 10.9898C57.9387 11.022 57.8383 11.0784 57.754 11.1548C57.7419 11.1731 57.7311 11.1923 57.7218 11.2121L56.6935 15.9733C56.6925 16.0295 56.7087 16.0846 56.7401 16.1311C56.7783 16.18 56.8274 16.2193 56.8834 16.2458C56.9643 16.2804 57.0502 16.3022 57.1378 16.3103C57.2684 16.328 57.4002 16.3352 57.5319 16.3319C57.6612 16.3353 57.7907 16.3281 57.9188 16.3103C58.0031 16.3028 58.0855 16.281 58.1624 16.2458C58.2352 16.1943 58.3003 16.1327 58.3559 16.063L61.265 11.3304C61.261 11.2642 61.233 11.2018 61.1862 11.1548H61.1898ZM90.6071 17.7373C90.7016 17.5195 90.7771 17.294 90.8328 17.0633C90.8937 16.8159 90.9403 16.5757 90.9797 16.3462C91.0191 16.1167 91.0406 15.9088 91.0585 15.7224C91.0764 15.5359 91.0872 15.4069 91.0872 15.3352C91.0872 14.9766 90.9976 14.7651 90.8256 14.6755H80.1493C79.8081 14.6785 79.4673 14.6988 79.1282 14.7364C78.9278 14.7632 78.7324 14.8187 78.5478 14.9013C78.4707 14.9362 78.4031 14.989 78.3508 15.0555L77.7453 18.44L77.319 20.7847L76.6383 24.5492L76.1761 27.084L75.5491 30.5294H75.5706C75.5348 30.6226 75.6172 30.6979 75.7104 30.7625C75.864 30.8466 76.0314 30.9025 76.2048 30.9274C76.526 30.9806 76.8503 31.013 77.1757 31.0242C77.5733 31.0457 78.0928 31.0565 78.7234 31.0565H87.8055C87.9 31.019 87.9846 30.9601 88.0527 30.8844C88.1884 30.723 88.2984 30.5416 88.3787 30.3466C88.4739 30.1143 88.5494 29.8745 88.6044 29.6295C88.6653 29.3714 88.7119 29.1168 88.7477 28.8802C88.7835 28.6436 88.8122 28.4213 88.8301 28.2241C88.848 28.0269 88.8588 27.8943 88.8588 27.8154C88.8588 27.3206 88.7011 27.0733 88.3858 27.0733H81.6504L82.1162 24.5385H87.6836C87.7947 24.5077 87.8951 24.4469 87.9738 24.3628C88.1112 24.212 88.2215 24.0385 88.2999 23.8501C88.3949 23.6326 88.4704 23.407 88.5256 23.1761C88.5865 22.9287 88.633 22.6885 88.6725 22.459C88.7119 22.2296 88.7369 22.0252 88.7549 21.8388C88.7728 21.6524 88.7799 21.5233 88.7799 21.4516C88.7799 21.0536 88.6617 20.8349 88.4217 20.774H82.7969L83.2232 18.4292H89.9264C90.065 18.4117 90.1924 18.3441 90.2847 18.2392C90.4204 18.0872 90.5305 17.914 90.6107 17.7265L90.6071 17.7373ZM67.8321 30.533L64.8656 23.3625L63.5508 30.6298C63.5182 30.6935 63.4685 30.7468 63.4075 30.784C63.2547 30.8642 63.0903 30.9198 62.9202 30.9489C62.6349 31.0007 62.3465 31.033 62.0568 31.0457C61.7057 31.0672 61.265 31.078 60.7348 31.078C60.1938 31.078 59.7496 31.078 59.4092 31.0457C59.1337 31.0343 58.8594 31.0019 58.5888 30.9489C58.4402 30.9237 58.2986 30.8675 58.1732 30.784C58.1367 30.7589 58.1096 30.7224 58.0959 30.6803C58.0823 30.6381 58.083 30.5927 58.0979 30.5509V30.5832L60.9068 15.0376C60.9068 15.0376 60.9247 15.0053 60.939 14.991C61.0671 14.9108 61.2094 14.856 61.3582 14.8296C61.6272 14.7735 61.9004 14.74 62.175 14.7293C62.5333 14.7077 62.9632 14.697 63.5042 14.697C64.0452 14.697 64.4715 14.697 64.8262 14.7293C65.1161 14.7411 65.4047 14.7746 65.6896 14.8296C65.8593 14.8584 66.0236 14.9128 66.1769 14.991C66.219 15.0145 66.256 15.0464 66.2855 15.0846C66.3151 15.1227 66.3366 15.1665 66.3488 15.2133L65.3134 20.9497L70.8702 15.0699C70.8991 15.0455 70.9303 15.0239 70.9633 15.0053C71.1472 14.9287 71.3397 14.8746 71.5365 14.844C71.8516 14.7891 72.17 14.7555 72.4895 14.7436C72.8729 14.7221 73.3565 14.7113 73.9226 14.7113C74.4887 14.7113 74.9508 14.7113 75.3127 14.7436C75.5968 14.7532 75.8797 14.7868 76.1582 14.844C76.3028 14.8651 76.4404 14.9204 76.5594 15.0053C76.5795 15.0294 76.5925 15.0586 76.597 15.0896C76.6014 15.1206 76.5971 15.1523 76.5845 15.181L70.365 21.7778L74.4098 30.533C74.3919 30.6262 74.2988 30.7015 74.177 30.7661C73.9929 30.8465 73.7989 30.902 73.6002 30.931C73.262 30.983 72.921 31.0153 72.5791 31.0278C72.1587 31.0493 71.6357 31.06 71.0099 31.06C70.3686 31.06 69.8455 31.06 69.4371 31.0278C69.1129 31.0169 68.7897 30.9845 68.4698 30.931C68.2953 30.9059 68.1267 30.8501 67.9718 30.7661L67.9073 30.7159L67.8321 30.533ZM109.921 14.9874C109.795 14.9036 109.652 14.8485 109.502 14.8261C109.233 14.768 108.96 14.7332 108.685 14.7221L108.198 14.7113H106.528H106.048C105.758 14.7237 105.47 14.7584 105.185 14.8153C105.05 14.8395 104.917 14.8792 104.791 14.9336L97.7402 23.3554L99.1912 15.1882C99.1977 15.151 99.1941 15.1128 99.1809 15.0775C99.1676 15.0422 99.1452 15.0111 99.1159 14.9874C98.9949 14.9037 98.8565 14.8486 98.7111 14.8261C98.4532 14.7681 98.1906 14.7334 97.9265 14.7221L97.45 14.7113H95.8414L95.3685 14.7293C95.0891 14.7418 94.8111 14.7765 94.5373 14.8332C94.3725 14.8587 94.2136 14.9133 94.068 14.9946C94.0425 15.0143 94.0185 15.0358 93.9963 15.0591L91.1051 30.6908C91.1185 30.7228 91.1394 30.7511 91.166 30.7732C91.2914 30.8567 91.433 30.9129 91.5816 30.9381C91.8513 30.9892 92.1242 31.0216 92.3984 31.035C92.7567 31.0565 93.1866 31.0672 93.7276 31.0672C94.2686 31.0672 94.6985 31.0672 95.0496 31.035C95.3391 31.0205 95.6275 30.9881 95.913 30.9381C96.0725 30.9091 96.2269 30.8571 96.3716 30.784L96.5758 30.5438L103.361 22.5128L101.928 30.6836C101.943 30.714 101.962 30.7418 101.986 30.7661C102.108 30.8482 102.246 30.9043 102.391 30.931C102.649 30.9824 102.912 31.0147 103.175 31.0278C103.508 31.0493 103.935 31.06 104.458 31.06C104.981 31.06 105.389 31.06 105.726 31.0278C106.005 31.0136 106.282 30.9812 106.557 30.931C106.722 30.9019 106.88 30.8462 107.026 30.7661C107.068 30.7404 107.104 30.7077 107.134 30.6693L110 15.1093C109.987 15.0613 109.96 15.0186 109.921 14.9874ZM50.7642 22.857C50.5434 24.0974 49.9926 25.2554 49.1699 26.2092C48.8479 26.6006 48.4388 26.9112 47.9753 27.116C47.5118 27.3208 47.0069 27.4142 46.5008 27.3888C45.3186 27.3314 44.5626 26.7685 44.2259 25.7001C43.9589 24.6605 43.9589 23.5703 44.2259 22.5308C44.4295 21.4382 44.8873 20.409 45.5622 19.5263C45.8819 19.0826 46.3081 18.7265 46.8014 18.4909C47.2948 18.2553 47.8395 18.1478 48.3853 18.1783C48.8781 18.1673 49.3618 18.3112 49.7686 18.5896C50.1754 18.8681 50.4848 19.2672 50.6532 19.7307C50.9962 20.7393 51.0348 21.8266 50.7642 22.857ZM55.2963 17.1385C56.3926 18.7806 56.6935 20.774 56.1991 23.1187C55.6331 25.8148 54.3445 27.9122 52.3334 29.4108C50.4136 30.8437 48.0448 31.5418 45.6553 31.3791C40.4497 31.1246 37.7018 27.5071 38.8196 22.2117C39.2591 19.8119 40.5744 17.6613 42.5098 16.1777C44.4514 14.7088 46.8606 13.9965 49.2882 14.1735C52.0803 14.3098 54.083 15.2945 55.2963 17.1278V17.1385ZM105.282 11.1548C105.326 11.2037 105.353 11.2651 105.361 11.3304L102.466 16.0486C102.41 16.1195 102.344 16.1812 102.269 16.2315C102.192 16.2672 102.109 16.2891 102.025 16.296C101.898 16.3137 101.77 16.3209 101.642 16.3175C101.51 16.3211 101.378 16.3139 101.248 16.296C101.159 16.2878 101.072 16.2661 100.99 16.2315C100.935 16.2049 100.887 16.1656 100.85 16.1167C100.818 16.0705 100.8 16.0155 100.8 15.959L101.828 11.1978C101.828 11.1978 101.85 11.1584 101.864 11.1404C101.948 11.064 102.049 11.0077 102.158 10.9755C102.336 10.923 102.52 10.8905 102.706 10.8787C102.93 10.8572 103.217 10.8464 103.566 10.8464C103.924 10.8464 104.214 10.8464 104.443 10.8787C104.63 10.8908 104.815 10.9233 104.995 10.9755C105.101 11.0161 105.199 11.077 105.282 11.1548Z" fill="#EE1E23"/>
<defs>
<linearGradient id="paint0_linear_826_29375" x1="20.512" y1="18.0635" x2="23.4502" y2="30.507" gradientUnits="userSpaceOnUse">
<stop stop-color="#00A238"/>
<stop offset="0.78" stop-color="#99C21C"/>
<stop offset="1" stop-color="#99C21C"/>
</linearGradient>
<linearGradient id="paint1_linear_826_29375" x1="130.037" y1="933.896" x2="645.868" y2="1702.27" gradientUnits="userSpaceOnUse">
<stop stop-color="#00A238"/>
<stop offset="0.78" stop-color="#99C21C"/>
<stop offset="1" stop-color="#99C21C"/>
</linearGradient>
</defs>
</svg>
