<svg width="110" height="41" viewBox="0 0 110 41" fill="none" xmlns="http://www.w3.org/2000/svg">
<path d="M102.26 36.2422C102.26 38.3066 103.471 39.364 104.947 39.364C106.422 39.364 107.634 38.3066 107.634 36.2422C107.634 34.2327 106.426 33.1742 104.947 33.1742C103.468 33.1742 102.26 34.2327 102.26 36.2422ZM108.737 39.206H110V40.2645H107.628V39.0996C107.157 39.84 106.104 40.4225 104.841 40.4225C102.576 40.4225 101.101 38.6236 101.101 36.2422C101.101 33.8609 102.576 32.0631 104.841 32.0631C106.048 32.0631 107.052 32.5929 107.579 33.3859V30.1062H106.315V29.0477H108.737V39.206Z" fill="#123F75"/>
<path d="M97.4132 39.2061H98.6771V40.2645H94.9392V39.2061H96.202V33.2807H94.9392V32.2748H97.3036V33.386C97.7776 32.5403 98.9361 31.7461 100.516 32.2748V33.4386C98.6201 32.9099 97.4089 33.9158 97.4089 35.7673L97.4132 39.2061Z" fill="#123F75"/>
<path d="M63.505 11.9035C62.2053 12.4052 61.0092 13.1421 59.9767 14.0774C59.9309 13.425 59.7889 12.783 59.5554 12.1721C59.5554 12.1721 60.2432 10.8504 62.2422 9.47379C64.4013 7.99298 66.8753 7.56958 66.8753 7.56958C67.4086 8.67055 67.7644 9.8489 67.9297 11.061C67.9297 11.061 66.1381 10.903 63.5061 11.9078L63.505 11.9035Z" fill="#76A0CD"/>
<path d="M61.9788 7.52214C59.9282 9.53274 59.191 11.5433 59.191 11.5433C58.8291 10.9075 58.3247 10.3643 57.7175 9.95613C57.7175 9.95613 58.5032 7.57587 59.7176 5.82856C60.9256 4.03074 62.9278 2.60474 62.9278 2.60474C63.9024 3.3468 64.7703 4.21931 65.5071 5.19777C65.5071 5.19777 63.506 6.08969 61.9788 7.52214Z" fill="#76A0CD"/>
<path d="M58.4003 5.02594C57.8171 6.52227 57.4277 8.08707 57.2418 9.68222C56.6098 9.35984 55.8242 9.09978 55.1364 9.04713C55.1304 7.48253 55.2904 5.92172 55.6136 4.39085C56.1896 1.63985 56.8205 0 56.8205 0C58.0349 0.107461 59.1935 0.476051 60.2918 0.952103C60.2918 0.952103 59.028 3.38609 58.396 5.02594H58.4003Z" fill="#76A0CD"/>
<path d="M61.7641 19.9525C59.1848 18.7361 56.6055 19.0004 56.6055 19.0004C57.5162 18.6558 58.3166 18.071 58.9215 17.3079C58.9215 17.3079 61.1892 17.0436 62.9238 17.3606C65.6106 17.9419 66.767 18.8414 66.767 18.8414C66.2453 19.9642 65.5528 20.9995 64.7142 21.9105C64.7142 21.9105 63.661 20.852 61.7652 19.9525H61.7641Z" fill="#123F75"/>
<path d="M63.7203 16.0836C61.1409 15.9761 59.3494 16.666 59.3494 16.666C59.6755 16.0601 59.8738 15.3937 59.9319 14.7081C59.9319 14.7081 62.0351 13.5443 63.9309 13.2799C66.5629 12.9102 68.0912 13.439 68.0912 13.439C68.0385 14.6554 67.8762 15.8729 67.5119 17.0367C66.3183 16.4859 65.0325 16.1627 63.7203 16.0836Z" fill="#123F75"/>
<path d="M46.2345 11.9035C47.5331 12.4056 48.728 13.1425 49.7596 14.0774C49.8078 13.4232 49.9527 12.7797 50.1895 12.1679C50.1895 12.1679 49.5017 10.845 47.5027 9.46951C45.3393 7.9887 42.8652 7.56531 42.8652 7.56531C42.3305 8.66603 41.9732 9.84438 41.8066 11.0567C41.8066 11.0567 43.5982 10.8987 46.2302 11.9035H46.2345Z" fill="#76A0CD"/>
<path d="M47.7609 7.52214C49.8115 9.53274 50.5487 11.5433 50.5487 11.5433C50.9109 10.9074 51.4152 10.3639 52.0222 9.95506C52.0222 9.95506 51.2365 7.5748 50.0221 5.82856C48.8141 4.03074 46.813 2.60474 46.813 2.60474C45.838 3.34628 44.97 4.21886 44.2336 5.19777C44.2336 5.19777 46.2337 6.08969 47.7609 7.52214Z" fill="#76A0CD"/>
<path d="M51.3397 5.02594C51.9228 6.52192 52.3122 8.08636 52.4982 9.68115C53.1301 9.35876 53.9158 9.09978 54.6036 9.04713C54.6095 7.48253 54.4496 5.92172 54.1264 4.39085C53.5504 1.63985 52.9195 0 52.9195 0C51.7051 0.107461 50.5465 0.476051 49.4438 0.952103C49.4438 0.952103 50.7077 3.38609 51.3397 5.02594Z" fill="#76A0CD"/>
<path d="M47.9755 19.9525C50.5548 18.7361 53.1342 19.0004 53.1342 19.0004C52.2236 18.6555 51.4233 18.0706 50.8181 17.3079C50.8181 17.3079 48.5505 17.0436 46.8159 17.3606C44.1291 17.9419 42.9727 18.8414 42.9727 18.8414C43.496 19.9646 44.1903 20.9999 45.0308 21.9105C45.0308 21.9105 46.084 20.852 47.9798 19.9525H47.9755Z" fill="#123F75"/>
<path d="M46.0198 16.0836C48.5992 15.9761 50.3907 16.666 50.3907 16.666C50.0646 16.0601 49.8663 15.3937 49.8082 14.7081C49.8082 14.7081 47.705 13.54 45.8092 13.2799C43.1772 12.9102 41.6489 13.439 41.6489 13.439C41.7016 14.6554 41.8639 15.8719 42.2282 17.0367C43.4218 16.4859 44.7077 16.1627 46.0198 16.0836Z" fill="#123F75"/>
<path d="M54.8647 21.9619C58.6059 21.9619 60.2384 25.1857 60.2384 25.1857C61.3969 24.6696 62.4768 23.9927 63.4464 23.1751C63.4464 23.1751 60.2921 19.2098 54.8647 19.2098C49.4911 19.2098 46.3379 23.1784 46.3379 23.1784C47.2858 24.0252 48.3917 24.6603 49.5513 25.189C49.5513 25.189 51.1795 21.9651 54.8647 21.9651V21.9619Z" fill="#123F75"/>
<path d="M2.63307 30.2148V34.9774H4.58155C6.688 34.9774 7.63484 34.1307 7.63484 32.5961C7.63484 31.0616 6.74067 30.2148 4.58155 30.2148H2.63307ZM2.63307 39.1566H4.00227V40.2677H0V39.1566H1.3692V30.1621H0V29.1036H4.58155C7.10822 29.1036 8.84605 30.2148 8.84605 32.5961C8.84605 34.9774 7.10822 36.0875 4.58047 36.0875H2.63307V39.1566Z" fill="#123F75"/>
<path d="M16.2177 35.8198C16.2177 34.339 15.1118 33.1752 13.5857 33.1752C12.0596 33.1752 10.9527 34.339 10.9527 35.8198H16.2177ZM17.1656 37.9895C16.7981 39.365 15.5331 40.4235 13.5857 40.4235C11.2213 40.4235 9.74146 38.9416 9.74146 36.2432C9.74146 33.7039 11.2686 32.0641 13.5857 32.0641C16.1124 32.0641 17.6923 34.022 17.3763 36.8783H10.9527C11.0601 38.0948 11.9006 39.365 13.5857 39.365C14.6906 39.365 15.4805 38.8889 15.9018 37.9895H17.1656Z" fill="#123F75"/>
<path d="M21.4838 39.2061H22.7477V40.2645H19.0098V39.2061H20.2726V33.2807H19.0098V32.2748H21.3742V33.386C21.8481 32.5403 23.0067 31.7461 24.5865 32.2748V33.4386C22.6907 32.9099 21.4795 33.9158 21.4795 35.7673L21.4838 39.2061Z" fill="#123F75"/>
<path d="M33.854 39.206H35.1179V40.2645H31.4316V39.206H32.6955V35.8199C32.6955 33.9684 31.5896 33.1742 30.3257 33.1742C29.1145 33.1742 28.0623 34.021 28.0623 35.9252V39.206H29.3251V40.2645H25.6399V39.206H26.9027V33.2806H25.6399V32.2748H28.0097V33.3859C28.4309 32.7519 29.3251 32.1168 30.589 32.1168C32.3268 32.1168 33.854 33.1216 33.854 35.8199V39.206Z" fill="#123F75"/>
<path d="M40.0767 39.365C41.6565 39.365 42.7635 38.2538 42.7635 36.2432C42.7635 34.2326 41.6576 33.1752 40.0767 33.1752C38.5495 33.1752 37.3899 34.2337 37.3899 36.2432C37.3899 38.2528 38.5474 39.365 40.0767 39.365ZM40.0767 32.0641C42.5486 32.0641 43.9737 33.863 43.9737 36.2432C43.9737 38.6772 42.5518 40.4235 40.0767 40.4235C37.6554 40.4235 36.2324 38.6772 36.2324 36.2432C36.2324 33.863 37.6554 32.0641 40.0767 32.0641Z" fill="#123F75"/>
<path d="M46.546 36.2422C46.546 38.3066 47.7572 39.364 49.2328 39.364C50.7084 39.364 51.9142 38.3066 51.9142 36.2422C51.9142 34.2327 50.7063 33.1742 49.2328 33.1742C47.7594 33.1742 46.546 34.2327 46.546 36.2422ZM53.0234 39.206H54.2862V40.2645H51.9142V39.0996C51.4435 39.84 50.3903 40.4225 49.1275 40.4225C46.862 40.4225 45.3875 38.6236 45.3875 36.2422C45.3875 33.8609 46.862 32.0631 49.1275 32.0631C50.3344 32.0631 51.3382 32.5929 51.8648 33.3859V30.1062H50.6009V29.0477H53.0234V39.206Z" fill="#123F75"/>
<path d="M62.237 30.2148V34.3413H64.8163C66.5015 34.3413 67.1893 33.5483 67.1893 32.2781C67.1893 31.0616 66.5015 30.2148 64.8163 30.2148H62.237ZM59.605 29.051H64.8131C66.9196 29.051 68.45 30.2148 68.45 32.2748C68.45 34.0737 67.3408 35.1322 65.7116 35.4492L67.5021 39.1534H68.9755V40.2646H66.6595L64.3434 35.5062H62.237V39.1599H63.445V40.271H59.605V39.1566H60.9731V30.1622H59.605V29.051Z" fill="#123F75"/>
<path d="M71.5552 30.5802H72.875V29.0468H71.5552V30.5802ZM72.875 39.205H74.1389V40.2624H70.3945V39.205H71.6584V33.2786H70.3945V32.2738H72.8728L72.875 39.205Z" fill="#123F75"/>
<path d="M82.9361 37.3534C82.5148 39.1534 81.3004 40.4225 79.0897 40.4225C76.6673 40.4225 75.2422 38.6762 75.2422 36.2423C75.2422 33.862 76.6673 32.0631 79.0897 32.0631C80.2472 32.0631 81.3004 32.6455 81.7765 33.386V32.2748H82.8792V35.1848H81.6164C81.251 34.0737 80.5073 33.1743 79.0897 33.1743C77.5593 33.1743 76.4029 34.2327 76.4029 36.2423C76.4029 38.2518 77.5614 39.364 79.0897 39.364C80.4578 39.364 81.3563 38.5183 81.7217 37.3534H82.9361Z" fill="#123F75"/>
<path d="M85.5697 36.2423C85.5697 38.3066 86.7282 39.364 88.2017 39.364C89.6751 39.364 90.8831 38.3066 90.8831 36.2423C90.8831 34.2327 89.6762 33.1743 88.2017 33.1743C86.7271 33.1743 85.5697 34.2327 85.5697 36.2423ZM90.8358 32.2748H93.2572V33.2796H91.9965V39.206H93.2604V40.2645H90.8347V39.0996C90.3576 39.8938 89.3043 40.4225 88.0963 40.4225C85.8297 40.4225 84.3552 38.6236 84.3552 36.2423C84.3552 33.8609 85.8297 32.0631 88.0963 32.0631C89.3043 32.0631 90.3533 32.5929 90.8347 33.386L90.8358 32.2748Z" fill="#123F75"/>
</svg>
