<svg width="110" height="19" viewBox="0 0 110 19" fill="none" xmlns="http://www.w3.org/2000/svg">
<path d="M54.9999 16.3383H0V18.4406H54.9999V16.3383Z" fill="#EC1C24"/>
<path d="M110 16.3383H54.9998V18.4406H110V16.3383Z" fill="#72BE44"/>
<path d="M36.236 6.46273H39.0442C38.9735 6.13798 38.7932 5.84751 38.5336 5.6402C38.278 5.43855 37.9604 5.332 37.635 5.33877C37.3171 5.33839 37.0088 5.44754 36.7619 5.64786C36.5069 5.85602 36.3274 6.14238 36.2513 6.46273H36.236ZM39.8254 8.77961L40.3359 9.80139C39.9683 10.1309 39.1642 10.486 37.9362 10.486C37.0897 10.4935 36.2675 10.2032 35.613 9.666C35.0242 9.11594 34.7297 8.33088 34.7297 7.3108C34.7297 6.33501 34.9944 5.55249 35.5237 4.96327C35.7894 4.67478 36.1142 4.44713 36.4759 4.29591C36.8377 4.14469 37.2278 4.07346 37.6196 4.0871C38.651 4.0871 39.4169 4.45749 39.9173 5.19828C40.3208 5.85935 40.5164 6.6265 40.4789 7.40021V7.61989H36.1543C36.1456 7.84381 36.1869 8.06684 36.2752 8.27276C36.3635 8.47868 36.4967 8.66231 36.6648 8.81026C37.0751 9.08908 37.5602 9.23692 38.0562 9.2343C38.6683 9.24933 39.2727 9.09461 39.8024 8.78727" fill="black"/>
<path d="M8.71819 0L5.3458 7.42066L2.01425 0L0 10.297H1.50877L2.50696 4.50604L5.2641 10.7363L8.05954 4.51881L9.01944 10.297H10.5257L8.71819 0Z" fill="black"/>
<path d="M11.815 10.0875C11.7086 9.98323 11.6297 9.85419 11.5853 9.71193C11.541 9.56967 11.5325 9.41862 11.5608 9.2723C11.589 9.12598 11.6531 8.98895 11.7472 8.87346C11.8414 8.75797 11.9626 8.66762 12.1002 8.6105C12.2377 8.55337 12.3873 8.53126 12.5355 8.54612C12.6837 8.56099 12.8259 8.61238 12.9494 8.69569C13.0729 8.77899 13.1738 8.89163 13.2432 9.02352C13.3125 9.15541 13.3481 9.30244 13.3468 9.45146C13.3452 9.62831 13.2916 9.80079 13.1928 9.94743C13.094 10.0941 12.9543 10.2084 12.791 10.2762C12.6278 10.344 12.4482 10.3622 12.2747 10.3287C12.1011 10.2951 11.9413 10.2113 11.815 10.0875Z" fill="black"/>
<path d="M16.0835 6.03866V8.9405H16.9617C17.6637 8.9405 18.1564 8.79746 18.4347 8.5088C18.5695 8.37535 18.676 8.2161 18.7479 8.04055C18.8199 7.865 18.8557 7.67675 18.8534 7.48703C18.8566 7.29719 18.8212 7.10867 18.7492 6.933C18.6772 6.75732 18.5702 6.59817 18.4347 6.46525C18.1564 6.18937 17.6688 6.04888 16.9897 6.04888L16.0835 6.03866ZM16.0835 2.08183V4.83296H16.5226C17.5641 4.83296 18.0849 4.36294 18.0849 3.42291C18.0849 2.52885 17.5829 2.08183 16.5787 2.08183H16.0835ZM14.5977 0.712646H16.0503C16.4332 0.712646 16.7089 0.712646 16.8774 0.712646C17.1207 0.735451 17.3615 0.779035 17.5973 0.842923C18.1591 0.97658 18.6568 1.30191 19.0049 1.76297C19.3529 2.22403 19.5295 2.79202 19.5044 3.36927C19.5147 3.70834 19.4427 4.04487 19.2947 4.35005C19.1466 4.65522 18.9269 4.91996 18.6542 5.12161C19.1724 5.26599 19.62 5.59484 19.9128 6.04632C20.1861 6.46292 20.3316 6.95039 20.3315 7.44871C20.3498 7.86131 20.2727 8.27257 20.1062 8.65049C19.9397 9.02841 19.6883 9.3628 19.3716 9.62765C19.1002 9.845 18.7876 10.0049 18.4526 10.0977C18.1831 10.1867 17.905 10.2466 17.6229 10.2765C17.4263 10.2918 17.1557 10.2969 16.8085 10.2969H14.5977V0.712646Z" fill="black"/>
<path d="M21.335 4.24549H22.7314V7.68122L26.8978 3.69629V10.297H25.5013V6.7795L21.335 10.7619V4.24549Z" fill="black"/>
<path d="M32.0518 9.03762V5.50482H30.2418V7.17543C30.2418 8.05245 30.0043 8.67318 29.5295 9.03762H32.0518ZM28.8989 4.24548H33.4431V9.03762H34.3468V12.0238H33.0704V10.297H28.8172V12.0238H27.5408V9.03762C27.7826 9.01902 28.0148 8.93537 28.213 8.79553C28.4112 8.65568 28.5679 8.46484 28.6666 8.24319C28.8633 7.7332 28.9503 7.18745 28.9219 6.64155L28.8989 4.24548Z" fill="black"/>
<path d="M62.3803 4.24548V10.297H60.9813V5.50482H59.1713V7.94176C59.209 8.5716 59.0085 9.19257 58.6097 9.68134C58.4013 9.9014 58.1473 10.0731 57.8654 10.1843C57.5836 10.2955 57.2808 10.3436 56.9784 10.3251C56.9069 10.3251 56.7869 10.3251 56.6235 10.297V9.03762C56.7078 9.05322 56.7932 9.06262 56.8788 9.06572C57.0166 9.07148 57.154 9.04755 57.2817 8.99554C57.4095 8.94354 57.5245 8.86467 57.6192 8.76429C57.7772 8.53115 57.8493 8.25035 57.8234 7.96986V4.24548H62.3803Z" fill="black"/>
<path d="M65.0991 9.09123H65.7296C65.9798 9.11079 66.2308 9.06409 66.4572 8.95585C66.5611 8.89186 66.6454 8.80068 66.7012 8.69218C66.757 8.58367 66.7821 8.46197 66.7738 8.34023C66.78 8.22197 66.7553 8.10412 66.702 7.99838C66.6487 7.89263 66.5687 7.80266 66.47 7.73738C66.2447 7.62835 65.9946 7.58077 65.745 7.59944H65.0991V9.09123ZM63.7026 4.23779H65.0991V6.38608H65.9237C66.179 6.38608 66.3832 6.38608 66.5389 6.40651C66.7487 6.43507 66.9538 6.49089 67.1491 6.57255C67.3901 6.66099 67.6045 6.80959 67.772 7.00425C68.0841 7.36858 68.2465 7.8378 68.2264 8.31724C68.2442 8.58662 68.2045 8.85672 68.1099 9.10955C68.0152 9.36237 67.8678 9.59212 67.6775 9.78349C67.511 9.93948 67.3148 10.0602 67.1006 10.1386C66.9233 10.2103 66.7368 10.2567 66.5466 10.2765C66.396 10.2765 66.1841 10.2893 65.9084 10.2893H63.7026V4.23779Z" fill="black"/>
<path d="M73.077 9.03762V5.50482H71.267V7.17543C71.267 8.05245 71.0295 8.67318 70.5547 9.03762H73.077ZM69.9241 4.24548H74.4734V9.03762H75.3797V12.0238H74.1032V10.297H69.8424V12.0238H68.5532V9.03762C68.7948 9.01938 69.0269 8.93585 69.2247 8.79593C69.4226 8.65602 69.5787 8.46497 69.6765 8.24319C69.8748 7.73365 69.9619 7.18754 69.9318 6.64155L69.9241 4.24548Z" fill="black"/>
<path d="M85.9898 5.34121C85.7642 5.33847 85.5405 5.38244 85.3327 5.47036C85.1249 5.55828 84.9375 5.68825 84.7823 5.85209C84.6063 6.04608 84.4706 6.27309 84.3829 6.51996C84.2953 6.76683 84.2575 7.02865 84.2717 7.29025C84.2521 7.79492 84.4143 8.28987 84.7287 8.68497C84.881 8.86948 85.0745 9.01572 85.2935 9.11198C85.5125 9.20823 85.7509 9.25183 85.9898 9.23928C86.2237 9.24768 86.4563 9.20124 86.6691 9.10366C86.8819 9.00609 87.0689 8.86008 87.2152 8.67731C87.5297 8.28113 87.6927 7.78567 87.6747 7.28003C87.6882 7.022 87.6499 6.76389 87.5622 6.52087C87.4746 6.27785 87.3392 6.05481 87.1642 5.86487C87.0131 5.7019 86.8298 5.57228 86.6258 5.48431C86.4218 5.39634 86.2017 5.35194 85.9796 5.35398L85.9898 5.34121ZM84.3483 4.25812V4.91461C84.5713 4.64356 84.854 4.4278 85.1742 4.28422C85.4944 4.14064 85.8434 4.07313 86.1941 4.08697C86.5823 4.08172 86.9675 4.1571 87.3252 4.30835C87.6828 4.4596 88.0053 4.68343 88.2721 4.9657C88.561 5.27227 88.7855 5.63367 88.9324 6.02854C89.0793 6.42342 89.1456 6.84375 89.1273 7.2647C89.1439 7.69273 89.0735 8.11968 88.9204 8.51968C88.7673 8.91969 88.5345 9.28442 88.2364 9.5918C87.9791 9.87421 87.6662 10.1003 87.3173 10.2559C86.9685 10.4116 86.5913 10.4933 86.2094 10.4961C86.0429 10.495 85.877 10.477 85.7141 10.4424C85.4822 10.3821 85.2591 10.2919 85.0503 10.1742C84.7826 10.0357 84.5469 9.84254 84.3585 9.60712V13.1833H82.9697V4.24535L84.3483 4.25812Z" fill="black"/>
<path d="M92.9692 5.34131C92.7354 5.33457 92.5032 5.38148 92.2904 5.47845C92.0775 5.57542 91.8897 5.71987 91.7413 5.90074C91.4203 6.29413 91.2526 6.79047 91.269 7.29802C91.2544 7.79459 91.4173 8.28008 91.7285 8.6672C91.8833 8.84176 92.0731 8.98181 92.2855 9.07827C92.4979 9.17473 92.7282 9.22545 92.9614 9.22713C93.1946 9.22882 93.4256 9.18144 93.6394 9.08806C93.8532 8.99467 94.0449 8.85738 94.2023 8.68508C94.5186 8.28989 94.6818 7.79373 94.6618 7.2878C94.6789 7.02738 94.6441 6.76617 94.5595 6.5193C94.4749 6.27243 94.3422 6.04482 94.1691 5.84965C94.0148 5.68525 93.828 5.55488 93.6205 5.46691C93.413 5.37894 93.1894 5.33529 92.9641 5.33876L92.9692 5.34131ZM94.5801 4.2429H95.9893V10.2969H94.5852V9.66854C94.3614 9.93547 94.0798 10.148 93.7618 10.29C93.4438 10.4321 93.0977 10.5 92.7497 10.4885C92.3464 10.5019 91.9454 10.4225 91.5776 10.2564C91.2098 10.0903 90.885 9.84203 90.6282 9.5306C90.0966 8.89881 89.8118 8.09567 89.8266 7.26992C89.8106 6.44993 90.0927 5.65204 90.6205 5.02456C90.8837 4.7135 91.2143 4.46667 91.5873 4.30287C91.9603 4.13908 92.3657 4.06265 92.7726 4.07942C93.1255 4.06311 93.4768 4.13489 93.795 4.28829C94.1132 4.44169 94.3883 4.67189 94.5954 4.95815L94.5801 4.2429Z" fill="black"/>
<path d="M101.129 9.03762V5.50482H99.3212V7.17543C99.3212 8.05245 99.0837 8.67318 98.6089 9.03762H101.129ZM97.9783 4.24548H102.528V9.03762H103.431V12.0238H102.155V10.297H97.8966V12.0238H96.6074V9.03762C96.8489 9.01911 97.0809 8.93547 97.2787 8.79559C97.4765 8.6557 97.6327 8.46481 97.7307 8.24319C97.929 7.73365 98.0161 7.18754 97.986 6.64155L97.9783 4.24548Z" fill="black"/>
<path d="M48.9546 2.95543L48.1402 2.06137C49.0158 1.02171 50.5935 0.510825 51.7372 0.510825C52.3531 0.490511 52.9668 0.592973 53.5427 0.812245C54.1186 1.03152 54.6452 1.36322 55.0918 1.78805C56.0414 2.71105 56.5171 3.9474 56.5188 5.4971C56.5188 6.994 56.0431 8.21673 55.0918 9.16528C54.6463 9.60674 54.1153 9.95232 53.5314 10.1808C52.9474 10.4092 52.323 10.5157 51.6964 10.4936C50.6625 10.4936 48.9597 9.93927 48.1223 8.94304L48.9469 8.04388C49.6552 8.72557 50.5963 9.11191 51.579 9.1244C52.675 9.1244 53.5379 8.78381 54.1676 8.10263C54.6858 7.54619 54.9827 6.81936 55.0024 6.05907H50.2438V4.695H54.9692C54.8795 3.99102 54.5736 3.33228 54.0936 2.80982C53.5081 2.19676 52.7039 1.89022 51.6811 1.89022C50.6716 1.89679 49.7003 2.27717 48.9546 2.95798" fill="black"/>
<path d="M44.4205 5.45119C44.0581 5.4522 43.7043 5.56063 43.4035 5.76278C43.1027 5.96492 42.8686 6.25172 42.7306 6.58694C42.5927 6.92216 42.5571 7.29078 42.6284 7.64622C42.6997 8.00166 42.8747 8.32798 43.1313 8.58398C43.3878 8.83997 43.7144 9.01414 44.0698 9.0845C44.4253 9.15485 44.7936 9.11823 45.1282 8.97927C45.4628 8.8403 45.7488 8.60522 45.95 8.30372C46.1512 8.00221 46.2586 7.64781 46.2586 7.28528C46.2572 6.79838 46.063 6.33189 45.7184 5.98808C45.3738 5.64426 44.9071 5.45119 44.4205 5.45119ZM44.4205 10.4937C43.7864 10.4932 43.1667 10.3046 42.6397 9.95171C42.1128 9.59886 41.7022 9.09761 41.4599 8.51131C41.2176 7.92501 41.1545 7.27999 41.2785 6.6578C41.4025 6.0356 41.7081 5.46416 42.1566 5.01572C42.6051 4.56727 43.1765 4.26196 43.7984 4.13837C44.4203 4.01478 45.0649 4.07846 45.6507 4.32137C46.2364 4.56428 46.737 4.97551 47.0893 5.50307C47.4415 6.03063 47.6295 6.65084 47.6295 7.28528C47.6281 8.13623 47.2895 8.95189 46.6879 9.55336C46.0863 10.1548 45.2709 10.493 44.4205 10.4937Z" fill="black"/>
<path d="M106.791 5.45119C106.428 5.4517 106.074 5.5597 105.773 5.76154C105.472 5.96337 105.238 6.25 105.099 6.58518C104.961 6.92036 104.925 7.28905 104.996 7.64466C105.067 8.00027 105.242 8.32684 105.498 8.58308C105.755 8.83933 106.081 9.01375 106.437 9.08432C106.792 9.15488 107.161 9.11841 107.495 8.97952C107.83 8.84062 108.116 8.60554 108.318 8.30398C108.519 8.00242 108.626 7.64792 108.626 7.28528C108.625 6.79883 108.431 6.33272 108.087 5.98898C107.743 5.64524 107.277 5.45187 106.791 5.45119ZM106.791 10.4937C106.157 10.4932 105.537 10.3046 105.01 9.95171C104.483 9.59886 104.073 9.09761 103.83 8.51131C103.588 7.92501 103.525 7.27999 103.649 6.6578C103.773 6.0356 104.078 5.46416 104.527 5.01572C104.975 4.56727 105.547 4.26196 106.169 4.13837C106.791 4.01478 107.435 4.07846 108.021 4.32137C108.607 4.56428 109.107 4.97551 109.46 5.50307C109.812 6.03063 110 6.65084 110 7.28528C109.998 8.13623 109.66 8.95189 109.058 9.55336C108.457 10.1548 107.641 10.493 106.791 10.4937Z" fill="black"/>
<path d="M78.9512 5.45119C78.5888 5.4517 78.2347 5.5597 77.9336 5.76154C77.6325 5.96337 77.3979 6.25 77.2596 6.58518C77.1212 6.92036 77.0853 7.28905 77.1563 7.64466C77.2273 8.00027 77.4021 8.32684 77.6586 8.58308C77.915 8.83933 78.2416 9.01375 78.5971 9.08432C78.9526 9.15488 79.321 9.11841 79.6558 8.97952C79.9906 8.84062 80.2767 8.60554 80.478 8.30398C80.6793 8.00242 80.7868 7.64792 80.7868 7.28528C80.7854 6.79883 80.5915 6.33272 80.2475 5.98898C79.9035 5.64524 79.4374 5.45187 78.9512 5.45119ZM78.9512 10.4937C78.3172 10.4932 77.6975 10.3046 77.1705 9.95171C76.6435 9.59886 76.233 9.09761 75.9907 8.51131C75.7484 7.92501 75.6852 7.27999 75.8092 6.6578C75.9332 6.0356 76.2388 5.46416 76.6874 5.01572C77.1359 4.56727 77.7072 4.26196 78.3292 4.13837C78.9511 4.01478 79.5957 4.07846 80.1814 4.32137C80.7672 4.56428 81.2678 4.97551 81.62 5.50307C81.9722 6.03063 82.1602 6.65084 82.1602 7.28528C82.1589 8.13623 81.8203 8.95189 81.2187 9.55336C80.6171 10.1548 79.8017 10.493 78.9512 10.4937Z" fill="black"/>
</svg>
