<svg width="110" height="13" viewBox="0 0 110 13" fill="none" xmlns="http://www.w3.org/2000/svg">
<path d="M1.69535 9.15933L4.84714 0.454834C4.04229 0.645708 3.28271 0.994588 2.61189 1.4815C1.94107 1.96842 1.37217 2.58381 0.937759 3.29245C0.50335 4.00109 0.21196 4.78907 0.080268 5.61128C-0.0514243 6.43349 -0.0208329 7.27379 0.170291 8.08407C0.568051 9.71531 1.58223 11.1258 2.99694 12.0151C4.41164 12.9045 6.11513 13.2026 7.74475 12.8459C8.64776 12.6378 9.49408 12.2317 10.2234 11.6564C10.9527 11.0811 11.5471 10.3509 11.9641 9.51775C8.25311 10.9514 3.98294 10.9514 1.69535 9.15933Z" fill="#F6911E"/>
<path d="M9.52417 7.46959C10.5589 7.59001 11.6071 7.44924 12.5743 7.05997C12.5997 6.90743 12.5997 6.75169 12.5743 6.59914C12.5696 5.26266 12.1618 3.95915 11.4051 2.86133L9.52417 7.46959Z" fill="#F6911E"/>
<path d="M7.33819 8.03294L10.0833 1.53016C9.85283 1.33986 9.59593 1.1846 9.32076 1.06934L6.37231 8.44256C7.69403 9.00579 10.2358 8.59617 12.5234 7.87933C12.5678 7.74768 12.5851 7.6083 12.5742 7.4697C10.9475 7.98173 8.55823 8.39136 7.33819 8.03294Z" fill="#F6911E"/>
<path d="M4.56757 8.59608L7.71936 0.403609L6.82974 0.25L3.47461 8.9545C5.35552 10.2346 8.81232 9.97856 12.2183 8.9545C12.2991 8.79439 12.3508 8.62097 12.3708 8.44247C10.3882 9.26172 5.71136 9.67134 4.54215 8.59608" fill="#F6911E"/>
<path d="M58.2751 7.00867H59.5969V3.11725C59.5877 2.92582 59.5536 2.73643 59.4952 2.55402C59.4416 2.38499 59.3552 2.22836 59.241 2.09319C59.1304 1.94775 58.9921 1.82592 58.8343 1.73477C58.6614 1.64779 58.4674 1.61226 58.2751 1.63237C57.9843 1.63104 57.7001 1.72048 57.4618 1.88838C57.2327 2.07818 57.0574 2.32543 56.9534 2.60522L55.6317 5.7798L54.4117 2.75883C54.3467 2.59496 54.2613 2.4401 54.1575 2.298C54.0687 2.16798 53.9665 2.04784 53.8525 1.93958C53.7371 1.82537 53.5983 1.73799 53.4458 1.68357C53.1146 1.5809 52.7603 1.5809 52.4291 1.68357C52.2637 1.73825 52.1208 1.84621 52.0224 1.99079C51.7658 2.24907 51.6198 2.59828 51.6157 2.96364V7.00867H52.9374V3.11725L54.2083 5.88221C54.2732 6.04608 54.3587 6.20094 54.4625 6.34304C54.5517 6.48854 54.6538 6.62564 54.7675 6.75266C54.8936 6.86718 55.0297 6.97001 55.1742 7.05988C55.3204 7.1182 55.4748 7.15277 55.6317 7.16228C55.7927 7.16752 55.953 7.13827 56.102 7.07649C56.251 7.0147 56.3852 6.92178 56.4959 6.80386C56.6093 6.68764 56.6961 6.54783 56.7501 6.39424C56.8444 6.21102 56.9292 6.02302 57.0043 5.83101L58.2751 2.96364V7.00867Z" fill="#768C98"/>
<path d="M67.8832 7.06001V5.62633H61.6813V5.0119H67.8832V3.62942H61.6813V3.01498H67.8832V1.5813H62.2405C61.9836 1.5902 61.7282 1.6245 61.478 1.6837C61.2543 1.76387 61.0474 1.88543 60.868 2.04213C60.7045 2.20772 60.5673 2.39769 60.4613 2.60536C60.3624 2.8313 60.3105 3.07527 60.3088 3.3222V5.26791C60.305 5.51541 60.3572 5.76053 60.4613 5.98475C60.5673 6.19242 60.7045 6.38239 60.868 6.54798C61.0598 6.68631 61.264 6.8063 61.478 6.9064C61.7006 7.01126 61.944 7.06379 62.1897 7.06001H67.8832Z" fill="#768C98"/>
<path d="M50.9042 7.06001V5.62633H44.7278V5.0119H50.9297V3.62942H44.7278V3.01498H50.9297V1.5813H45.2615C45.0046 1.5902 44.7492 1.6245 44.499 1.6837C44.2753 1.76387 44.0684 1.88543 43.889 2.04213C43.7255 2.20772 43.5883 2.39769 43.4823 2.60536C43.3834 2.8313 43.3315 3.07527 43.3298 3.3222V5.26791C43.326 5.51541 43.3782 5.76053 43.4823 5.98475C43.5883 6.19242 43.7255 6.38239 43.889 6.54798C44.0808 6.68631 44.285 6.8063 44.499 6.9064C44.7216 7.01126 44.965 7.06379 45.2107 7.06001H50.9042Z" fill="#768C98"/>
<path d="M27.6215 6.9064C27.8442 7.01126 28.0875 7.06379 28.3332 7.06001H33.976V5.62633H27.8249V5.0119H34.0522V3.62942H27.8249V3.01498H34.0522V1.5813H28.3332C28.0764 1.5902 27.8209 1.6245 27.5707 1.6837C27.347 1.76387 27.1401 1.88543 26.9607 2.04213C26.8132 2.20971 26.6931 2.39982 26.6048 2.60536C26.5059 2.8313 26.454 3.07527 26.4523 3.3222V5.26791C26.4486 5.51541 26.5007 5.76053 26.6048 5.98475C26.7109 6.19242 26.8481 6.38239 27.0115 6.54798C27.1909 6.70468 27.3978 6.82624 27.6215 6.9064Z" fill="#768C98"/>
<path d="M25.7408 1.63257H24.2666V5.6776H22.6398V1.63257H21.1656V5.6776H19.5389V1.63257H18.1155V7.06008H25.7408V1.63257Z" fill="#768C98"/>
<path d="M36.1617 3.015H41.169V3.68063H36.1871L36.1617 3.015ZM36.1617 5.01191H40.8385C41.0679 5.01571 41.2948 4.96297 41.4994 4.8583C41.9221 4.67987 42.2655 4.35213 42.4653 3.93665C42.5638 3.72866 42.6158 3.50145 42.6178 3.27101C42.6215 3.03993 42.5692 2.81142 42.4653 2.60537C42.3721 2.40453 42.2327 2.22899 42.0586 2.09334C41.8667 1.95502 41.6625 1.83502 41.4486 1.73492C41.2211 1.65092 40.9786 1.61603 40.7369 1.63252H34.7383V7.06003H36.1617V5.01191Z" fill="#768C98"/>
<path d="M86.7429 1.73491C86.5192 1.81507 86.3123 1.93663 86.1329 2.09333C85.9694 2.25892 85.8322 2.44889 85.7262 2.65656C85.6273 2.88251 85.5754 3.12647 85.5737 3.3734V5.31911C85.5699 5.56661 85.6221 5.81173 85.7262 6.03595C85.8322 6.24362 85.9694 6.43359 86.1329 6.59919C86.3247 6.73751 86.5289 6.85751 86.7429 6.95761C86.9655 7.06246 87.2089 7.11499 87.4546 7.11121H93.0973V5.67753H86.9208V5.0119H93.1227V3.62942H86.9208V3.01498H93.1227V1.5813H87.48C87.2354 1.58818 86.9942 1.64024 86.7683 1.73491" fill="#768C98"/>
<path d="M83.4385 5.67753H78.4567V5.01189H83.4385V5.67753ZM84.3027 4.14144C84.1497 3.9759 83.9572 3.85251 83.7435 3.78302C83.537 3.6838 83.3114 3.63137 83.0827 3.62942H78.4058V1.5813H76.9824V7.00881H82.9302C83.1703 6.99987 83.4088 6.96554 83.6419 6.9064C83.8616 6.81782 84.0672 6.69705 84.2519 6.54798C84.4301 6.40254 84.5845 6.22975 84.7094 6.03595C84.8167 5.83 84.8775 5.60269 84.8873 5.37032C84.8911 5.13923 84.8387 4.91073 84.7348 4.70468C84.6288 4.49701 84.4916 4.30704 84.3281 4.14144" fill="#768C98"/>
<path d="M68.5947 3.01505H71.7465V7.00888H73.1191V3.01505H76.2709V1.63257H68.5947V3.01505Z" fill="#768C98"/>
<path d="M100.138 3.57828H95.3086V3.01505H100.138V3.57828ZM100.138 5.6264H95.3086V5.01196H100.138V5.6264ZM101.256 4.29512C101.456 3.99148 101.562 3.63523 101.561 3.27106C101.565 3.02356 101.513 2.77844 101.409 2.55422C101.302 2.36224 101.165 2.18926 101.002 2.04219C100.821 1.89976 100.614 1.79529 100.392 1.73497C100.142 1.67577 99.8865 1.64147 99.6296 1.63257H93.8853V7.06008H99.8838C100.113 7.06387 100.34 7.01114 100.545 6.90647C100.749 6.81757 100.937 6.69659 101.104 6.54805C101.267 6.38246 101.405 6.19249 101.511 5.98482C101.609 5.77683 101.661 5.54962 101.663 5.31918C101.66 5.13763 101.607 4.96047 101.511 4.80715C101.457 4.62249 101.371 4.44905 101.256 4.29512Z" fill="#768C98"/>
<path d="M108.551 5.67755H103.773V3.01499H108.551V5.67755ZM109.467 2.14454C109.314 1.979 109.121 1.85561 108.907 1.78612C108.703 1.68145 108.476 1.62872 108.246 1.63252H104.281C104.041 1.64146 103.803 1.67578 103.57 1.73492C103.357 1.81657 103.152 1.91949 102.96 2.04214C102.795 2.20108 102.642 2.37223 102.502 2.55417C102.398 2.76022 102.346 2.98873 102.35 3.21981V5.26792C102.346 5.499 102.398 5.72751 102.502 5.93356C102.59 6.1391 102.71 6.32921 102.858 6.49679C103.024 6.64534 103.213 6.76632 103.417 6.85521C103.624 6.95444 103.849 7.00687 104.078 7.00882H108.272C108.501 7.00687 108.726 6.95444 108.933 6.85521C109.137 6.76632 109.326 6.64534 109.492 6.49679C109.654 6.36169 109.777 6.18473 109.848 5.98476C109.946 5.79487 109.998 5.58437 110 5.37033V3.37342C109.998 3.14298 109.946 2.91577 109.848 2.70778C109.76 2.50224 109.639 2.31213 109.492 2.14454" fill="#768C98"/>
<path d="M34.7893 10.9002H32.3493V9.62012H34.7893V10.9002ZM35.4502 9.77373C35.4582 9.66869 35.4408 9.56326 35.3994 9.46651C35.3613 9.36103 35.2898 9.27108 35.196 9.2105C35.0944 9.1593 34.9927 9.05689 34.891 9.05689C34.7783 9.01111 34.6562 8.99355 34.5352 9.00569H32.6034C32.4827 9.00133 32.3622 9.01867 32.2476 9.05689C32.1564 9.09645 32.071 9.14811 31.9934 9.2105C31.8996 9.27108 31.8282 9.36103 31.7901 9.46651C31.7487 9.56326 31.7312 9.66869 31.7392 9.77373V10.9002H31.5359V11.617H35.7552V10.9002H35.4502V9.77373Z" fill="#768C98"/>
<path d="M23.0973 8.95451L22.7923 9.10812C22.6985 9.1687 22.627 9.25866 22.589 9.36413C22.5563 9.41709 22.535 9.47628 22.5262 9.53798C22.5175 9.59967 22.5215 9.66252 22.5381 9.72256V10.6954C22.5261 10.8235 22.5624 10.9515 22.6398 11.0538C22.6779 11.1593 22.7493 11.2493 22.8431 11.3098C22.9323 11.3954 23.0355 11.4647 23.1481 11.5147C23.2619 11.5567 23.3831 11.5741 23.504 11.5659H26.3508V10.849H23.2498V10.5418H26.3508V9.82496H23.2498V9.51774H26.3508V8.8009H23.504C23.3741 8.86616 23.2378 8.91764 23.0973 8.95451Z" fill="#768C98"/>
<path d="M92.2335 10.9513H89.8442V9.62002H92.2335V10.9513ZM92.691 9.2104C92.6194 9.12705 92.5333 9.05763 92.4368 9.00558C92.3408 8.96388 92.2361 8.94631 92.1318 8.95438H90.1492C90.0284 8.94614 89.9071 8.96358 89.7934 9.00558L89.4884 9.15919C89.3946 9.21978 89.3231 9.30973 89.285 9.41521C89.2287 9.50861 89.1939 9.61362 89.1834 9.72243V10.7465C89.1752 10.8682 89.1925 10.9903 89.2342 11.1049C89.2723 11.2104 89.3437 11.3003 89.4375 11.3609C89.5091 11.4443 89.5953 11.5137 89.6917 11.5657C89.8045 11.6115 89.9266 11.6291 90.0476 11.6169H92.1318C92.2361 11.625 92.3408 11.6074 92.4368 11.5657C92.528 11.5262 92.6135 11.4745 92.691 11.4121C92.7848 11.3515 92.8563 11.2616 92.8943 11.1561C92.9357 11.0594 92.9532 10.9539 92.9452 10.8489V9.82483C92.9532 9.71979 92.9357 9.61436 92.8943 9.51761C92.8517 9.40044 92.782 9.29515 92.691 9.2104Z" fill="#768C98"/>
<path d="M31.1796 8.90313H30.2646L29.5529 9.72238L29.502 9.77358L29.4004 9.87599L29.2987 9.97839C29.2987 10.0296 29.2479 10.0296 29.2479 10.0808V8.90313H28.4853V10.0296C28.4853 9.97839 28.4345 9.97839 28.4345 9.92719C28.4345 9.87599 28.3837 9.87599 28.3837 9.82479C28.3837 9.77358 28.3328 9.77358 28.3328 9.72238C28.3328 9.7088 28.3275 9.69578 28.3179 9.68617C28.3084 9.67657 28.2955 9.67118 28.282 9.67118L27.5703 8.85193H26.6553L27.8245 10.2344L26.6553 11.5657H27.5195L28.282 10.7464L28.3837 10.644L28.4345 10.5928L28.4853 10.5416L28.5362 10.4904V11.6169H29.2987V10.4392L29.3495 10.4904L29.4004 10.5416C29.428 10.5692 29.4458 10.6052 29.4512 10.644C29.502 10.6952 29.502 10.7464 29.5529 10.7976L30.3154 11.6169H31.1288L30.0104 10.2856L31.1796 8.90313Z" fill="#768C98"/>
<path d="M88.0647 9.97844H85.5738V9.62002H88.0647V9.97844ZM88.4714 9.15919C88.3698 9.10799 88.2681 9.00558 88.1664 9.00558C88.0527 8.96358 87.9314 8.94614 87.8106 8.95438H84.8113V11.6681H85.523V10.6441H87.8614C87.9823 10.6523 88.1035 10.6349 88.2173 10.5929C88.3299 10.5429 88.4331 10.4736 88.5223 10.3881C88.605 10.316 88.6739 10.2292 88.7256 10.132C88.7711 10.0185 88.7885 9.89548 88.7764 9.77363C88.7885 9.64553 88.7522 9.51757 88.6748 9.41521C88.6652 9.35866 88.6416 9.30549 88.606 9.2607C88.5704 9.21591 88.5241 9.18098 88.4714 9.15919Z" fill="#768C98"/>
<path d="M100.646 10.9513H98.2571V9.62002H100.646V10.9513ZM101.104 9.2104C101.032 9.12705 100.946 9.05763 100.85 9.00558C100.754 8.96388 100.649 8.94631 100.545 8.95438H98.5621C98.4412 8.94614 98.32 8.96358 98.2062 9.00558L97.9012 9.15919C97.8074 9.21978 97.736 9.30973 97.6979 9.41521C97.6415 9.50861 97.6067 9.61362 97.5962 9.72243V10.7465C97.588 10.8682 97.6054 10.9903 97.6471 11.1049C97.6851 11.2104 97.7566 11.3003 97.8504 11.3609C97.922 11.4443 98.0081 11.5137 98.1046 11.5657C98.2173 11.6115 98.3394 11.6291 98.4604 11.6169H100.545C100.649 11.625 100.754 11.6074 100.85 11.5657C100.941 11.5262 101.026 11.4745 101.104 11.4121C101.198 11.3515 101.269 11.2616 101.307 11.1561C101.349 11.0594 101.366 10.9539 101.358 10.8489V9.82483C101.366 9.71979 101.349 9.61436 101.307 9.51761C101.265 9.40044 101.195 9.29515 101.104 9.2104Z" fill="#768C98"/>
<path d="M93.3008 11.6682H94.0125V9.62004H96.4526V11.6682H97.1643V8.9032H93.3008V11.6682Z" fill="#768C98"/>
<path d="M104.891 9.97844H102.4V9.62002H104.891V9.97844ZM105.349 9.15919C105.247 9.10799 105.145 9.00558 105.044 9.00558C104.93 8.96358 104.809 8.94614 104.688 8.95438H101.688V11.6681H102.4V10.6441H104.739C104.859 10.6523 104.981 10.6349 105.094 10.5929C105.207 10.5429 105.31 10.4736 105.399 10.3881C105.482 10.316 105.551 10.2292 105.603 10.132C105.648 10.0185 105.666 9.89548 105.654 9.77363C105.666 9.64553 105.629 9.51757 105.552 9.41521C105.514 9.30973 105.442 9.21978 105.349 9.15919Z" fill="#768C98"/>
<path d="M21.9786 9.15921C21.9278 9.10801 21.8261 9.0568 21.7753 9.0056C21.6958 8.96853 21.6086 8.95098 21.5211 8.9544C21.3709 8.95056 21.2251 9.00564 21.1144 9.10801C21.002 9.20489 20.9148 9.32792 20.8602 9.46643L20.1994 11.0537L19.5894 9.51763C19.5385 9.41522 19.5385 9.36402 19.4877 9.31282C19.4368 9.26162 19.386 9.15921 19.3352 9.10801C19.2791 9.0541 19.2083 9.01842 19.1318 9.0056C18.9662 8.95427 18.7891 8.95427 18.6235 9.0056C18.503 9.05614 18.4002 9.14146 18.3278 9.25081C18.2554 9.36015 18.2168 9.48862 18.2168 9.62004V11.6682H18.8777V9.67124L19.4877 11.0537C19.5385 11.1561 19.5894 11.2073 19.5894 11.3097C19.5894 11.4121 19.691 11.4633 19.7419 11.5145C19.7998 11.5778 19.8687 11.6298 19.9452 11.6682C20.0214 11.7146 20.1113 11.7327 20.1994 11.7194C20.2872 11.7273 20.3755 11.7095 20.4536 11.6682C20.5044 11.617 20.5552 11.617 20.6061 11.5657C20.6689 11.5074 20.7205 11.438 20.7586 11.3609C20.8094 11.2585 20.8602 11.2073 20.9111 11.1049L21.5719 9.67124V11.6682H22.1311V9.72244C22.1391 9.6174 22.1217 9.51197 22.0803 9.41522C22.0786 9.32025 22.0424 9.22919 21.9786 9.15921Z" fill="#768C98"/>
<path d="M106.01 9.62004H107.535V11.617H108.246V9.62004H109.822V8.9032H106.01V9.62004Z" fill="#768C98"/>
<path d="M51.8445 9.97844H49.3536V9.62002H51.8445V9.97844ZM52.2512 9.15919C52.1495 9.10799 52.0479 9.00558 51.9462 9.00558C51.8325 8.96358 51.7112 8.94614 51.5904 8.95438H48.5911V11.6681H49.3028V10.6441H51.6412C51.7621 10.6523 51.8833 10.6349 51.997 10.5929C52.1953 10.4935 52.3559 10.3317 52.4546 10.132C52.5 10.0185 52.5174 9.89548 52.5054 9.77363C52.4954 9.64855 52.4608 9.52672 52.4037 9.41521C52.4047 9.36243 52.3909 9.31044 52.3639 9.26517C52.337 9.2199 52.2979 9.18318 52.2512 9.15919Z" fill="#768C98"/>
<path d="M55.9874 10.9513H53.5981V9.62002H55.9874V10.9513ZM56.4449 9.2104C56.3733 9.12705 56.2872 9.05763 56.1907 9.00558C56.0947 8.96388 55.99 8.94631 55.8857 8.95438H53.9031C53.7823 8.94614 53.661 8.96358 53.5473 9.00558L53.2423 9.15919C53.1485 9.21978 53.077 9.30973 53.0389 9.41521C52.9826 9.50861 52.9478 9.61362 52.9373 9.72243V10.7465C52.9291 10.8682 52.9464 10.9903 52.9881 11.1049C53.0262 11.2104 53.0976 11.3003 53.1915 11.3609C53.263 11.4443 53.3492 11.5137 53.4456 11.5657C53.5584 11.6115 53.6805 11.6291 53.8015 11.6169H55.9111C56.0154 11.625 56.1201 11.6074 56.2162 11.5657C56.3073 11.5262 56.3928 11.4745 56.4703 11.4121C56.5641 11.3515 56.6356 11.2616 56.6737 11.1561C56.7151 11.0594 56.7325 10.9539 56.7245 10.8489V9.82483C56.7325 9.71979 56.7151 9.61436 56.6737 9.51761C56.6121 9.41114 56.5442 9.30854 56.4703 9.2104" fill="#768C98"/>
<path d="M73.7798 9.00581C73.7237 8.95191 73.6529 8.91622 73.5765 8.9034C73.4984 8.86201 73.4101 8.84423 73.3223 8.8522C73.1099 8.86118 72.9094 8.95299 72.7631 9.10821L70.933 10.9515V8.9034H70.2722V10.9003C70.2641 11.0054 70.2816 11.1108 70.323 11.2075C70.3544 11.3032 70.4065 11.3906 70.4755 11.4635C70.5263 11.5148 70.628 11.566 70.6788 11.6172C70.8765 11.6854 71.0912 11.6854 71.2889 11.6172C71.3936 11.5788 71.4829 11.5068 71.543 11.4123L73.3731 9.62024V11.6684H74.034V9.56904C74.042 9.464 74.0245 9.35857 73.9831 9.26182C73.8815 9.15942 73.8306 9.05701 73.7798 9.00581Z" fill="#768C98"/>
<path d="M73.1699 7.82788H71.1365V8.44232H73.1699V7.82788Z" fill="#768C98"/>
<path d="M60.3086 10.9002H57.8685V9.62012H60.3086V10.9002ZM60.9695 9.77373C60.9775 9.66869 60.9601 9.56326 60.9187 9.46651C60.8806 9.36103 60.8091 9.27108 60.7153 9.2105C60.6136 9.1593 60.512 9.05689 60.4103 9.05689C60.2975 9.01111 60.1754 8.99355 60.0545 9.00569H58.1227C58.002 9.00133 57.8815 9.01867 57.7669 9.05689C57.6757 9.09645 57.5902 9.14811 57.5127 9.2105C57.4189 9.27108 57.3474 9.36103 57.3094 9.46651C57.268 9.56326 57.2505 9.66869 57.2585 9.77373V10.9002H57.0552V11.617H61.2745V10.9002H60.9949L60.9695 9.77373Z" fill="#768C98"/>
<path d="M69.8655 8.9032H69.2046V11.617H69.8655V8.9032Z" fill="#768C98"/>
<path d="M39.3136 9.92726H36.7719V8.9032H36.111V9.77365C36.1067 9.89522 36.1239 10.0166 36.1618 10.1321C36.1999 10.2375 36.2714 10.3275 36.3652 10.3881C36.4669 10.4393 36.5685 10.5417 36.6702 10.5417C36.783 10.5875 36.9051 10.605 37.026 10.5929H39.3645V10.9001H36.3143V11.617H39.212C39.3162 11.625 39.4209 11.6075 39.517 11.5658C39.6217 11.5274 39.711 11.4554 39.7711 11.3609C39.8539 11.2888 39.9228 11.2021 39.9745 11.1049C40.0199 10.9913 40.0374 10.8684 40.0253 10.7465V8.9032H39.3136V9.92726Z" fill="#768C98"/>
<path d="M64.7822 9.92726H62.2913V8.9032H61.5796V11.617H62.2913V10.5929H64.7822V11.617H65.4431V8.9032H64.7822V9.92726Z" fill="#768C98"/>
<path d="M43.5327 9.92726H41.0417V8.9032H40.3809V11.617H41.0417V10.5929H43.5327V11.617H44.2443V8.9032H43.5327V9.92726Z" fill="#768C98"/>
<path d="M84.2012 9.15919C84.0996 9.10799 83.9979 9.00558 83.8962 9.00558C83.7825 8.96358 83.6613 8.94614 83.5404 8.95438H80.6936V9.67122H83.7946V9.97844H80.6936V10.6953H83.7946V11.0025H80.6936V11.7193H83.5404C83.6613 11.7276 83.7825 11.7101 83.8962 11.6681C84.0089 11.6182 84.1121 11.5489 84.2012 11.4633C84.284 11.3912 84.3529 11.3045 84.4046 11.2073C84.4617 11.0958 84.4963 10.974 84.5063 10.8489V9.77363C84.5144 9.65189 84.4971 9.52977 84.4554 9.41521C84.3537 9.3128 84.3029 9.2104 84.2012 9.15919Z" fill="#768C98"/>
<path d="M68.1881 10.9513H66.5868V10.5929H68.2136L68.1881 10.9513ZM68.5948 10.1833C68.5149 10.0868 68.409 10.0156 68.2898 9.97846C68.177 9.93268 68.0549 9.91511 67.934 9.92726H66.4597V8.9032H65.748V11.617H67.8323C67.9532 11.6252 68.0744 11.6078 68.1881 11.5658L68.4931 11.4121C68.587 11.3516 68.6584 11.2616 68.6965 11.1561C68.7601 11.0473 68.7951 10.9239 68.7982 10.7977C68.8063 10.676 68.789 10.5539 68.7473 10.4393C68.7473 10.3369 68.6965 10.2857 68.5948 10.1833Z" fill="#768C98"/>
<path d="M46.0746 10.2345L46.3796 9.67124L46.6846 10.2345H46.0746ZM46.9897 9.31282C46.9073 9.16169 46.7839 9.03735 46.6338 8.9544C46.5533 8.9206 46.4669 8.9032 46.3796 8.9032C46.2924 8.9032 46.206 8.9206 46.1255 8.9544C46.0746 9.0056 45.9729 9.05681 45.9221 9.10801C45.8713 9.15921 45.8204 9.26162 45.7696 9.31282C45.7188 9.36403 45.6679 9.46643 45.6171 9.56884L44.5496 11.617H45.3121L45.6679 10.9001H46.9897L47.3963 11.617H48.1589L47.0913 9.56884C47.0712 9.47857 47.0369 9.39214 46.9897 9.31282Z" fill="#768C98"/>
<path d="M78.2028 10.2345L78.5078 9.67124L78.8128 10.2345H78.2028ZM79.1178 9.31282C79.0355 9.16169 78.912 9.03735 78.762 8.9544C78.6814 8.9206 78.5951 8.9032 78.5078 8.9032C78.4206 8.9032 78.3342 8.9206 78.2536 8.9544C78.2028 9.0056 78.1011 9.05681 78.0503 9.10801C77.9995 9.15921 77.9486 9.26162 77.8978 9.31282C77.8469 9.36403 77.7961 9.46643 77.7453 9.56884L76.6777 11.617H77.4403L77.7961 10.9001H79.1178L79.5245 11.617H80.3125L79.2449 9.56884C79.2248 9.47857 79.1905 9.39214 79.1432 9.31282" fill="#768C98"/>
</svg>
