<svg width="110" height="37" viewBox="0 0 110 37" fill="none" xmlns="http://www.w3.org/2000/svg">
<path d="M54.8573 0C19.0062 0 0 25.429 0 25.429L7.793 30.6944C8.66666 28.6971 9.70982 26.7784 10.911 24.9591C10.9151 25.4414 10.9572 25.9225 11.0369 26.3982C12.4134 37.08 22.7873 36.824 22.7873 36.824H87.154C87.154 36.824 97.6747 37.1135 99.0386 26.4317C99.1191 25.9719 99.1584 25.5057 99.1561 25.0388C100.33 26.8134 101.353 28.6827 102.215 30.6273L110 25.4206C110 25.4206 90.7085 0 54.8573 0ZM97.4565 26.2765C97.4565 26.2765 96.0549 34.4452 87.0197 34.4452H22.7495C13.7143 34.4452 12.4428 26.201 12.4428 26.201C12.0945 24.0109 12.5183 22.5089 13.194 21.4768C19.6986 12.9138 32.5736 1.41389 54.8279 1.41389C77.2753 1.41389 90.2594 13.0816 96.7599 21.6447C97.5111 22.597 97.7796 24.1536 97.4565 26.2765Z" fill="#EC2027"/>
<path d="M36.086 17.3652L37.1603 15.066H23.4124L22.3339 17.3652H27.6593L22.145 28.5756H25.7079L31.218 17.3652H36.086Z" fill="#EC2027"/>
<path d="M89.1639 26.5534C89.1639 26.5534 88.4673 26.8764 88.1693 26.5534C87.8714 26.2303 88.14 25.6723 88.14 25.6723L91.065 19.5762H88.1022L87.649 20.3901C85.92 18.8714 82.6635 19.6559 80.6491 21.7621C79.5877 22.8097 78.9144 24.1872 78.7397 25.6681C78.2395 26.0013 77.7066 26.2825 77.1492 26.5072C77.1492 26.5072 76.4526 26.8303 76.1546 26.5072C75.8567 26.1841 76.1252 25.6261 76.1252 25.6261L81.2786 15.0157H78.341L75.6301 20.3356C73.9011 18.8168 70.6487 19.6014 68.6302 21.7075C68.2275 22.1245 67.8702 22.583 67.5643 23.0753C67.5643 23.113 67.5265 23.1508 67.5055 23.1885L67.3251 23.5116C65.7178 26.3016 63.716 26.7631 63.716 26.7631C59.4817 28.0218 58.9991 25.9576 58.9991 25.9576C63.7412 24.2039 65.5206 22.1313 65.3569 20.5412C65.1932 18.9511 63.0152 18.863 63.0152 18.863C59.4314 18.649 56.3301 21.1579 55.5789 23.6081C55.3445 24.3207 55.2897 25.0802 55.4195 25.8191C54.7155 26.2288 53.9526 26.5274 53.1575 26.7044C51.9657 27.082 51.8188 26.5156 51.6761 26.1716C51.5335 25.8275 50.9921 22.769 50.9921 22.769L56.028 19.4797H52.9519L49.175 21.8208C48.3357 22.1732 48.6546 21.2796 48.6546 21.2796L51.7433 15.0325H48.7763L43.7489 25.173C42.925 25.6809 42.0668 26.1309 41.1806 26.5198C41.1806 26.5198 40.4881 26.8428 40.1902 26.5198C39.8922 26.1967 40.1566 25.6387 40.1566 25.6387L43.0606 19.5343H40.123L39.6656 20.3482C37.9366 18.8294 34.6843 19.614 32.67 21.7201C30.6556 23.8263 30.152 26.6079 31.5159 27.9253C32.6196 28.9826 34.6046 28.7644 36.3881 27.5854C36.3881 27.5854 36.8371 27.1995 37.0847 27.6526C37.3323 28.1057 38.3437 29.1881 40.7022 28.2609C41.3944 27.9878 42.0674 27.6682 42.7165 27.3043L42.0996 28.563H45.0624L46.548 25.5632L47.8363 24.7241C47.8363 24.7241 48.2266 24.4136 48.386 25.0765C48.386 25.0765 49.0281 27.5938 49.2757 27.9253C49.5233 28.2567 50.0185 29.0035 52.1 28.4036C53.4134 28.0251 54.7039 27.5712 55.965 27.0442C56.6616 28.0092 58.0003 28.6553 60.1993 28.6553C62.5764 28.6455 64.8766 27.8123 66.7082 26.2974C66.7558 26.912 67.0241 27.4887 67.4636 27.9211C68.5631 28.9784 70.5522 28.7602 72.3316 27.5813C72.3316 27.5813 72.7848 27.1953 73.0282 27.6484C73.2716 28.1015 74.2872 29.1839 76.654 28.2567C77.4394 27.95 78.1905 27.5619 78.895 27.0988C79.0211 27.4278 79.2173 27.7256 79.4699 27.9714C80.5736 29.0245 82.5586 28.8105 84.3379 27.6274C84.3379 27.6274 84.7869 27.2372 85.0345 27.6945C85.2821 28.1518 86.2935 29.2301 88.6561 28.3029C91.0188 27.3757 91.6861 26.5366 91.6861 26.5366L91.0901 25.4877C90.4917 25.9213 89.8419 26.2792 89.1555 26.5534H89.1639ZM37.7688 24.8038C36.7406 26.2429 35.297 26.9729 34.5332 26.4275C33.7695 25.8821 33.9751 24.2794 34.999 22.8361C36.023 21.3929 37.475 20.6712 38.2346 21.2125C38.9942 21.7537 38.7927 23.3648 37.7688 24.8038ZM58.7515 23.7549C58.9835 23.0692 59.3534 22.4382 59.8384 21.9007C60.3233 21.3631 60.9132 20.9305 61.5716 20.6293C61.5716 20.6293 62.1843 20.4195 62.5158 20.688C62.5158 20.688 62.9733 21.1369 62.4235 21.9467C61.9325 22.6767 60.7449 24.0025 59.4859 24.464C59.4859 24.464 58.3235 24.9716 58.7641 23.7591L58.7515 23.7549ZM73.7164 24.808C72.6883 26.2471 71.2405 26.9771 70.4767 26.4317C69.7129 25.8863 69.9227 24.2836 70.9467 22.8403C71.9707 21.3971 73.4185 20.6754 74.1822 21.2167C74.946 21.7579 74.7362 23.369 73.7164 24.808ZM85.7521 24.8626C84.724 26.3016 83.2804 27.0316 82.5124 26.4862C81.7444 25.9408 81.9585 24.3381 82.9824 22.8991C84.0064 21.46 85.4542 20.7258 86.2179 21.2712C86.9817 21.8166 86.7719 23.4235 85.7521 24.8626Z" fill="#EC2027"/>
</svg>
