<svg width="76" height="65" viewBox="0 0 76 65" fill="none" xmlns="http://www.w3.org/2000/svg">
<path fill-rule="evenodd" clip-rule="evenodd" d="M53.2938 59.8016L51.8479 53.178C51.5148 51.6185 50.8275 51.2223 49.7525 51.2223C48.6775 51.2223 47.9965 51.6185 47.657 53.178L46.2132 59.8016C45.4107 63.4887 44.034 64.7799 41.2554 64.7799V64.3774C41.7436 64.2433 42.2109 63.3755 43.1413 59.6885L44.7778 53.1109C45.4212 50.5558 46.8964 48.9187 49.7357 48.9187C52.5751 48.9187 54.044 50.5641 54.6852 53.1109L56.3679 59.6885C57.3003 63.3755 57.7697 64.2433 58.2538 64.3774V64.7799C55.4689 64.7799 54.0901 63.4887 53.2938 59.8016Z" fill="#A4A5A5"/>
<path fill-rule="evenodd" clip-rule="evenodd" d="M6.50851 51.5304H3.79698V56.7706H6.50851C7.90828 56.7706 9.13204 55.7708 9.13204 54.1484C9.14248 53.8009 9.08176 53.455 8.95362 53.1319C8.82547 52.8088 8.6326 52.5153 8.38687 52.2695C8.14114 52.0237 7.84774 51.8307 7.52472 51.7025C7.20169 51.5744 6.85587 51.5136 6.50851 51.5241V51.5304ZM3.80536 59.6339C3.80536 63.7862 2.7702 64.5765 0 64.566V64.1656C0.505007 64.0483 0.911527 63.8135 0.911527 59.4788V53.3099C0.911527 50.2664 0.712458 49.7466 0.0230501 49.6187V49.2267H7.14763C9.94927 49.2267 12.0824 51.3082 12.0824 54.1547C12.0824 57.0012 9.95346 59.0931 7.15182 59.0931H3.79908L3.80536 59.6339Z" fill="#A4A5A5"/>
<path fill-rule="evenodd" clip-rule="evenodd" d="M70.9466 59.8016L70.6805 58.6698H63.7906L63.5266 59.8016C62.659 63.4887 61.4646 64.7799 58.686 64.7799V64.3774C59.1743 64.2433 59.6646 63.3755 60.572 59.6885L62.219 53.1109C62.8812 50.4195 64.4444 48.9187 67.2481 48.9187C70.0518 48.9187 71.6046 50.4279 72.2772 53.1109L73.9243 59.6885C74.8295 63.3755 75.3198 64.2433 75.8102 64.3774V64.7799C73.0316 64.7799 71.8288 63.4887 70.9634 59.8016H70.9466ZM69.5049 53.354C69.1047 51.6185 68.4362 51.2223 67.2376 51.2223C66.039 51.2223 65.3748 51.6185 64.9703 53.354L64.2788 56.3976H70.1985L69.5049 53.354Z" fill="#A4A5A5"/>
<path fill-rule="evenodd" clip-rule="evenodd" d="M14.7872 53.2283C14.7872 50.1848 14.7097 49.7446 13.9302 49.5371V49.1451H17.5637V59.0177L17.7397 59.133L28.0264 48.7762H28.4287V59.4789C28.4287 63.8136 28.8331 64.0484 29.3381 64.1658V64.5598C26.6811 64.5934 25.6501 63.8388 25.6501 59.6528V54.7585L25.472 54.6432L15.1854 65H14.7872V53.2283Z" fill="#A4A5A5"/>
<path fill-rule="evenodd" clip-rule="evenodd" d="M32.0415 49.2017H43.3151V52.4025H42.9149C42.7808 51.6458 41.9803 51.5137 39.2248 51.5137H35.8427V59.5774C35.8427 63.7361 34.818 64.5766 32.0436 64.5661V64.1658C32.5486 64.0484 32.9426 63.8136 32.9426 59.4789V53.3101C32.9426 50.2665 32.733 49.7467 32.0415 49.6188V49.2017Z" fill="#A4A5A5"/>
<path fill-rule="evenodd" clip-rule="evenodd" d="M29.1265 7.91697C29.2061 8.04693 29.3905 8.33619 29.5456 8.61706C29.6419 8.78266 31.1695 11.692 32.0308 13.3354L32.7809 14.1047C33.9481 15.3078 35.3751 16.4104 37.2066 16.4271C39.038 16.402 40.4608 15.3078 41.6322 14.1047L42.506 13.2054C43.3442 11.5956 44.9766 8.49549 45.0708 8.32361C45.2322 8.04483 45.4166 7.75347 45.4899 7.62561C46.0599 6.79762 46.8619 6.15661 47.795 5.78314C47.795 5.66785 47.795 5.55257 47.795 5.43938C47.7762 4.02734 47.2169 2.67624 46.2322 1.66433C45.2475 0.652417 43.9124 0.0567488 42.5018 0C40.0836 0.0314415 39.8489 1.83199 37.2024 1.83199C34.5558 1.83199 34.3253 0.0314415 31.9029 0C30.4867 0.0510984 29.1445 0.645766 28.155 1.66057C27.1655 2.67537 26.6046 4.03236 26.5889 5.44986C26.5864 5.63385 26.5934 5.81785 26.6098 6.00113C27.6596 6.39939 28.6089 7.11416 29.1265 7.91697Z" fill="url(#paint0_radial_826_33066)"/>
<path fill-rule="evenodd" clip-rule="evenodd" d="M22.8548 24.4428C23.0036 24.4071 23.3389 24.317 23.6553 24.2499C23.8439 24.2101 27.0793 23.6588 28.9086 23.3486L29.8725 22.8686C31.375 22.1329 32.8565 21.11 33.4453 19.3765C33.9901 17.6305 33.3908 15.9284 32.6071 14.4486C32.6071 14.4486 32.3661 13.9916 32.0267 13.3355C30.7547 12.0381 28.3114 9.53532 28.1773 9.38859C27.9678 9.14754 27.7456 8.88133 27.6451 8.75976C27.0751 8.07643 26.7 7.04725 26.6099 5.99081C26.5009 5.95308 26.4004 5.91116 26.283 5.87972C24.9312 5.45852 23.4693 5.5741 22.2004 6.20247C20.9316 6.83084 19.9533 7.92376 19.4686 9.25444C18.7477 11.5601 20.3885 12.3441 19.5712 14.8615C18.754 17.3789 16.9729 17.0477 16.1892 19.343C15.8017 20.7054 15.9525 22.1647 16.6105 23.419C17.2685 24.6733 18.3832 25.6267 19.7242 26.0819C19.8996 26.1404 20.0779 26.1894 20.2586 26.2287C20.9647 25.363 21.9349 24.6754 22.8548 24.4428Z" fill="url(#paint1_radial_826_33066)"/>
<path fill-rule="evenodd" clip-rule="evenodd" d="M51.4065 25.8114C51.2661 25.7548 50.9434 25.6311 50.6521 25.5012C50.4761 25.4236 47.5319 23.9668 45.8681 23.1389L44.8078 22.9586C43.1671 22.6735 41.3587 22.6379 39.8646 23.6859C38.3978 24.7801 37.8844 26.5073 37.6455 28.1695C37.6455 28.1695 37.5701 28.6768 37.4653 29.4083C37.7294 31.2047 38.2365 34.6653 38.2574 34.8582C38.2889 35.181 38.3077 35.5247 38.3182 35.6777C38.3769 36.5665 38.0772 37.6166 37.5324 38.5284C37.5953 38.6228 37.6602 38.7171 37.7315 38.8114C38.5785 39.9456 39.8291 40.7106 41.2245 40.9478C42.6198 41.185 44.0528 40.8764 45.2269 40.0858C47.1694 38.6395 46.2977 37.0423 48.4435 35.4891C50.5892 33.9359 51.8318 35.2543 53.8037 33.852C54.9173 32.9787 55.653 31.7107 55.8585 30.3102C56.064 28.9097 55.7237 27.4837 54.908 26.327C54.7948 26.1761 54.6796 26.0294 54.558 25.889C53.4705 26.1866 52.2887 26.1614 51.4065 25.8114Z" fill="url(#paint2_radial_826_33066)"/>
<path fill-rule="evenodd" clip-rule="evenodd" d="M58.4238 19.0556C57.6526 16.7625 55.8631 17.0958 55.0501 14.5784C54.237 12.061 55.8652 11.2833 55.1486 8.96712C54.6617 7.63674 53.6819 6.54468 52.4121 5.9172C51.1423 5.28973 49.6799 5.17493 48.3278 5.59659C48.1527 5.64884 47.9812 5.71256 47.8144 5.78734C47.7579 6.91504 47.3681 8.03226 46.7667 8.7638C46.6724 8.88118 46.4524 9.14739 46.2386 9.39263C46.1003 9.53307 43.7953 11.8807 42.5066 13.2054C42.207 13.7735 42.0079 14.155 42.0079 14.155C41.2221 15.6348 40.6228 17.3348 41.1697 19.085C41.7523 20.8185 43.2358 21.8393 44.7446 22.5813L45.8657 23.1347C47.651 23.4407 51.1043 24.0255 51.2992 24.0674C51.6114 24.1345 51.9446 24.2225 52.0934 24.2603C53.0561 24.5485 53.9125 25.1143 54.5555 25.8868C54.6645 25.8554 54.786 25.826 54.8908 25.7883C56.2306 25.3336 57.3444 24.3812 58.002 23.1281C58.6596 21.8749 58.8106 20.417 58.4238 19.0556Z" fill="url(#paint3_radial_826_33066)"/>
<path fill-rule="evenodd" clip-rule="evenodd" d="M28.1774 9.38858C28.3115 9.53531 30.7548 12.038 32.0268 13.3355C31.1635 11.6922 29.638 8.78281 29.5416 8.61722C29.3802 8.33843 29.1937 8.04708 29.1225 7.91712C28.6154 7.11431 27.6703 6.39954 26.6079 5.995C26.698 7.04304 27.0731 8.08061 27.6431 8.76394C27.7437 8.88132 27.9658 9.14753 28.1774 9.38858Z" fill="url(#paint4_radial_826_33066)"/>
<path fill-rule="evenodd" clip-rule="evenodd" d="M23.2087 26.0987C23.3512 26.0421 23.6697 25.9164 23.9652 25.7864C24.1475 25.7067 27.2823 24.1514 28.9084 23.3486C27.079 23.6589 23.8374 24.2101 23.653 24.25C23.3386 24.317 23.0034 24.4072 22.8546 24.4428C21.9347 24.6755 20.9687 25.3525 20.2583 26.2287C21.2332 26.4757 22.2593 26.4305 23.2087 26.0987Z" fill="url(#paint5_radial_826_33066)"/>
<path fill-rule="evenodd" clip-rule="evenodd" d="M38.3179 35.6798C38.3075 35.5268 38.2886 35.183 38.2572 34.8602C38.2341 34.6632 37.727 31.2025 37.4651 29.4103C37.1969 31.2444 36.7212 34.4976 36.6981 34.6862C36.6646 35.0111 36.6437 35.3528 36.6353 35.5058C36.5724 36.4532 36.9161 37.5872 37.5321 38.5347C38.077 37.6187 38.3766 36.5685 38.3179 35.6798Z" fill="url(#paint6_radial_826_33066)"/>
<path fill-rule="evenodd" clip-rule="evenodd" d="M45.5005 7.62987C45.4167 7.75773 45.2323 8.04909 45.0815 8.32787C44.9872 8.49975 43.3527 11.5999 42.5166 13.2097C43.7948 11.8808 46.0998 9.53313 46.2298 9.38849C46.4393 9.14744 46.6635 8.88124 46.7578 8.75967C47.3676 8.02813 47.7574 6.9109 47.8056 5.7832C46.872 6.15802 46.0701 6.80049 45.5005 7.62987Z" fill="url(#paint7_radial_826_33066)"/>
<path fill-rule="evenodd" clip-rule="evenodd" d="M52.0954 24.2645C51.9466 24.2268 51.6134 24.1388 51.3012 24.0717C51.1063 24.0298 47.653 23.4429 45.8677 23.1389C47.5315 23.9774 50.4777 25.4237 50.6516 25.5012C50.9429 25.6312 51.2656 25.7548 51.406 25.8114C52.2882 26.1615 53.47 26.1866 54.5492 25.8911C53.9084 25.1199 53.0551 24.5543 52.0954 24.2645Z" fill="url(#paint8_radial_826_33066)"/>
<path fill-rule="evenodd" clip-rule="evenodd" d="M36.6351 35.5017C36.6351 35.3487 36.6644 35.007 36.698 34.6821C36.721 34.4935 37.1967 31.2403 37.4649 29.4062C37.3727 28.7774 37.3077 28.3435 37.3077 28.3435C37.0689 26.6813 36.5555 24.9583 35.0907 23.8599C33.5946 22.8119 31.7967 22.8496 30.1433 23.1389L28.9091 23.3485C27.283 24.1513 24.1482 25.7066 23.9659 25.7863C23.6705 25.9162 23.3519 26.042 23.2095 26.0986C22.26 26.4305 21.234 26.4757 20.259 26.2285C20.1878 26.3187 20.1186 26.413 20.0495 26.5094C19.2315 27.6651 18.8896 29.0915 19.0948 30.4926C19.3001 31.8937 20.0366 33.162 21.1517 34.0344C23.1277 35.4325 24.3745 34.1141 26.514 35.6673C28.6535 37.2205 27.788 38.8219 29.7263 40.264C30.9007 41.0555 32.3346 41.3645 33.7305 41.1268C35.1265 40.8891 36.3775 40.123 37.2239 38.9875C37.335 38.8387 37.4335 38.6877 37.532 38.5284C36.9159 37.5831 36.5722 36.4491 36.6351 35.5017Z" fill="url(#paint9_radial_826_33066)"/>
<defs>
<radialGradient id="paint0_radial_826_33066" cx="0" cy="0" r="1" gradientUnits="userSpaceOnUse" gradientTransform="translate(37.2045 19.8773) scale(22.5283 22.5352)">
<stop stop-color="#FFF8EB"/>
<stop offset="0.52" stop-color="#F9BA78"/>
<stop offset="1" stop-color="#E30613"/>
</radialGradient>
<radialGradient id="paint1_radial_826_33066" cx="0" cy="0" r="1" gradientUnits="userSpaceOnUse" gradientTransform="translate(36.7792 10.946) scale(25.8098 25.8177)">
<stop stop-color="#FAFBED"/>
<stop offset="0.52" stop-color="#BCCF00"/>
<stop offset="1" stop-color="#7AB929"/>
</radialGradient>
<radialGradient id="paint2_radial_826_33066" cx="0" cy="0" r="1" gradientUnits="userSpaceOnUse" gradientTransform="translate(51.2514 32.5566) scale(16.8957 16.9009)">
<stop stop-color="#FFF5E9"/>
<stop offset="0.52" stop-color="#FFD100"/>
<stop offset="1" stop-color="#F39200"/>
</radialGradient>
<radialGradient id="paint3_radial_826_33066" cx="0" cy="0" r="1" gradientUnits="userSpaceOnUse" gradientTransform="translate(41.5532 11.9163) scale(22.0694 22.0761)">
<stop stop-color="#A2D6F5"/>
<stop offset="0.52" stop-color="#5299D3"/>
<stop offset="1" stop-color="#005AA7"/>
</radialGradient>
<radialGradient id="paint4_radial_826_33066" cx="0" cy="0" r="1" gradientUnits="userSpaceOnUse" gradientTransform="translate(34.7362 11.1325) scale(19.6974 19.7033)">
<stop stop-color="#F9F3E9"/>
<stop offset="0.52" stop-color="#BE9587"/>
<stop offset="1" stop-color="#983D33"/>
</radialGradient>
<radialGradient id="paint5_radial_826_33066" cx="0" cy="0" r="1" gradientUnits="userSpaceOnUse" gradientTransform="translate(18.3556 21.8332) scale(11.5083 11.5118)">
<stop stop-color="#B69A92"/>
<stop offset="1" stop-color="#835D2D"/>
</radialGradient>
<radialGradient id="paint6_radial_826_33066" cx="0" cy="0" r="1" gradientUnits="userSpaceOnUse" gradientTransform="translate(35.7782 41.4482) scale(12.3276 12.3314)">
<stop stop-color="#F1EBDE"/>
<stop offset="0.63" stop-color="#B9A04E"/>
<stop offset="1" stop-color="#A87A36"/>
</radialGradient>
<radialGradient id="paint7_radial_826_33066" cx="0" cy="0" r="1" gradientUnits="userSpaceOnUse" gradientTransform="translate(39.8533 12.2455) scale(16.3928 16.3978)">
<stop stop-color="#E9E4E3"/>
<stop offset="0.52" stop-color="#A99893"/>
<stop offset="1" stop-color="#323230"/>
</radialGradient>
<radialGradient id="paint8_radial_826_33066" cx="0" cy="0" r="1" gradientUnits="userSpaceOnUse" gradientTransform="translate(50.6474 21.6612) scale(6.55042 6.55241)">
<stop stop-color="#AEB9A6"/>
<stop offset="0.72" stop-color="#939986"/>
<stop offset="1" stop-color="#8A917D"/>
</radialGradient>
<radialGradient id="paint9_radial_826_33066" cx="0" cy="0" r="1" gradientUnits="userSpaceOnUse" gradientTransform="translate(20.0704 27.7692) scale(22.0296 22.0363)">
<stop stop-color="#F3EDF7"/>
<stop offset="0.52" stop-color="#CDAED3"/>
<stop offset="1" stop-color="#95569E"/>
</radialGradient>
</defs>
</svg>
