<svg width="110" height="14" viewBox="0 0 110 14" fill="none" xmlns="http://www.w3.org/2000/svg">
<g clip-path="url(#clip0_826_29488)">
<mask id="mask0_826_29488" style="mask-type:luminance" maskUnits="userSpaceOnUse" x="0" y="0" width="110" height="14">
<path d="M109.999 0H0V13.1939H109.999V0Z" fill="white"/>
</mask>
<g mask="url(#mask0_826_29488)">
<mask id="mask1_826_29488" style="mask-type:luminance" maskUnits="userSpaceOnUse" x="0" y="0" width="110" height="14">
<path d="M110 0H0V13.1939H110V0Z" fill="white"/>
</mask>
<g mask="url(#mask1_826_29488)">
<path d="M22.7014 5.99186C22.4232 6.2422 21.6713 6.6051 20.769 6.6051C20.2701 6.6051 19.9027 6.48983 19.6407 6.27011C19.2498 5.94144 19.158 5.5038 19.158 4.83924V2.3764H17.4939V5.22735C17.4939 6.4205 17.9721 7.19131 18.8122 7.73161C19.2967 8.04317 19.9153 8.18995 20.606 8.18995C21.6713 8.18995 22.4853 7.78293 22.7014 7.61994V11.1553H24.3664V2.3764H22.7014V5.99186Z" fill="black"/>
<path d="M75.2366 8.30972C75.0565 9.13276 74.7756 9.41552 74.437 9.5704C74.1964 9.66755 73.9391 9.71651 73.6797 9.71448C73.6797 9.71448 73.6887 10.407 73.7049 11.2453C74.4253 11.2543 75.1052 11.1228 75.5743 10.8032C76.0903 10.4502 76.5405 9.91439 76.7864 8.80139C77.0322 7.68838 77.1529 6.27011 77.251 3.93875H79.8408V11.1706H81.5112V2.3764H75.6779C75.622 4.56009 75.5374 6.95628 75.2366 8.30972Z" fill="black"/>
<path d="M90.0803 11.1706V5.83337C90.0884 4.55287 89.7201 3.6785 89.1447 3.11389C88.5495 2.53128 87.7346 2.17468 86.5234 2.17468C84.3839 2.17468 83.1565 3.52541 83.206 5.20392L84.8494 5.19402C84.8728 4.2296 85.4365 3.66319 86.5766 3.66319C87.7166 3.66319 88.418 4.26472 88.419 5.74602C88.419 5.74602 86.7612 5.7172 85.559 6.00896C83.7877 6.43849 82.8242 7.34348 82.8242 8.81848C82.8242 10.3133 83.9138 11.3723 85.6508 11.3723C86.9394 11.3723 87.8237 10.886 88.509 10.144C88.5438 10.4885 88.5973 10.8309 88.6693 11.1697H90.0849M88.4099 7.06343V7.50467C88.4099 9.07422 86.9791 9.90447 85.9786 9.90447C85.0673 9.90447 84.573 9.44162 84.573 8.75455C84.573 8.14222 85.0457 7.5578 86.2578 7.26064C87.0079 7.08054 87.8084 7.06343 88.4135 7.06343" fill="black"/>
<path d="M51.3538 2.3764H49.6582V11.1553H51.3538V2.3764Z" fill="black"/>
<path d="M41.3188 2.37732H34.3274V3.93696H36.9757V11.1544H36.991H38.6551H38.6713V3.93696H41.3188V2.37732Z" fill="black"/>
<path d="M91.7993 11.1598H93.4634V3.93065H97.2824V11.1598H98.9465V2.3764H91.7993V11.1598Z" fill="black"/>
<path d="M45.9178 5.22735H43.9736V2.3764H42.3086V11.1553H43.0488H45.9178C47.5476 11.1553 48.7993 9.78292 48.7993 8.16654C48.7993 6.56908 47.5233 5.22465 45.9178 5.22465M45.6962 9.5758H43.9736V6.78429H45.6962C46.0664 6.78429 46.4214 6.93134 46.6832 7.1931C46.9449 7.45485 47.092 7.80987 47.092 8.18005C47.092 8.55023 46.9449 8.90524 46.6832 9.167C46.4214 9.42875 46.0664 9.5758 45.6962 9.5758Z" fill="black"/>
<path d="M110 2.3764H108.304V11.1553H110V2.3764Z" fill="black"/>
<path d="M104.564 5.22735H102.619V2.3764H100.955V11.1553H101.694H104.564C106.193 11.1553 107.445 9.78292 107.445 8.16654C107.445 6.56908 106.169 5.22465 104.564 5.22465M104.341 9.5758H102.619V6.78429H104.341C104.712 6.78429 105.067 6.93134 105.328 7.1931C105.59 7.45485 105.737 7.80987 105.737 8.18005C105.737 8.55023 105.59 8.90524 105.328 9.167C105.067 9.42875 104.712 9.5758 104.341 9.5758Z" fill="black"/>
<path d="M56.8198 2.3764H54.0517H53.3079V11.1553H54.972V8.96077H56.8198C57.2561 8.96445 57.6888 8.88185 58.093 8.71771C58.4973 8.55357 58.8651 8.31113 59.1753 8.00434C59.4855 7.69754 59.732 7.33245 59.9007 6.93005C60.0693 6.52765 60.1567 6.09588 60.1579 5.65958C60.1579 3.81899 58.6604 2.3764 56.8198 2.3764ZM56.7531 7.38852H54.9756V3.94325H56.7342C57.1874 3.94515 57.6215 4.12602 57.9419 4.44647C58.2624 4.76692 58.4432 5.201 58.4451 5.65418C58.4451 6.58618 57.6959 7.38942 56.7567 7.38942" fill="black"/>
<path d="M65.1782 2.2179C64.6215 2.20357 64.0676 2.30026 63.5488 2.50233C63.0299 2.70441 62.5565 3.00781 62.1562 3.39483C61.3205 4.21968 60.8054 5.33088 60.8054 6.76986C60.8054 9.43711 62.6847 11.3227 65.2457 11.3227C65.935 11.3227 66.6148 11.1614 67.2306 10.8518C67.8465 10.5422 68.3815 10.0929 68.7927 9.53976L67.4798 8.57264C66.9558 9.27862 66.1804 9.74327 65.2457 9.74327C63.8311 9.74327 62.7352 8.70681 62.6199 7.5731H69.5411C69.5537 7.33897 69.5726 7.12916 69.5726 6.86892C69.5726 5.63705 69.2061 4.42499 68.4019 3.55062C67.5627 2.64383 66.3993 2.2215 65.1845 2.21429M62.5938 6.00355C62.6316 5.40562 63.4402 3.80456 65.1737 3.80456C65.8033 3.78971 66.4167 4.00478 66.8992 4.40953C67.3817 4.81428 67.7001 5.38096 67.795 6.00355H62.5938Z" fill="black"/>
<path d="M30.0556 2.2179C29.499 2.20367 28.9451 2.30041 28.4263 2.50247C27.9074 2.70454 27.434 3.00789 27.0336 3.39483C26.1979 4.21968 25.6829 5.33088 25.6829 6.76986C25.6829 9.43711 27.5622 11.3227 30.1223 11.3227C30.8117 11.3227 31.4916 11.1614 32.1076 10.8518C32.7236 10.5423 33.2587 10.0929 33.6702 9.53976L32.3573 8.57264C31.8323 9.27862 31.0579 9.74327 30.1223 9.74327C28.7085 9.74327 27.6117 8.70681 27.4973 7.5731H34.4158C34.4284 7.33897 34.4482 7.12916 34.4482 6.86892C34.4482 5.63705 34.0817 4.42499 33.2731 3.55062C32.4338 2.64383 31.2704 2.2215 30.0556 2.21429M27.464 6.00715C27.5018 5.40923 28.3096 3.80816 30.043 3.80816C30.6727 3.79328 31.2863 4.00832 31.7689 4.41306C32.2515 4.81779 32.5702 5.38449 32.6652 6.00715H27.464Z" fill="black"/>
<path d="M13.1939 0H6.59692V13.1939H13.1939V0Z" fill="#F3B5BE"/>
<path d="M6.59697 0H0V13.1939H6.59697V0Z" fill="#ED6A1D"/>
<path d="M8.69504 7.44703C8.68651 7.44012 8.68073 7.43037 8.67876 7.41956C8.6768 7.40876 8.67877 7.3976 8.68433 7.38812C8.68988 7.37864 8.69865 7.37147 8.70905 7.36791C8.71944 7.36434 8.73076 7.36462 8.74097 7.36869C9.05074 7.48125 9.75222 7.87297 10.3997 8.27548C10.4299 8.29459 10.4639 8.30691 10.4994 8.31157C10.5348 8.31624 10.5708 8.31314 10.605 8.3025C10.6816 8.27594 10.7534 8.237 10.8175 8.18724C10.893 8.12846 10.9512 8.05036 10.9859 7.96121C11.0018 7.91876 11.0059 7.87277 10.9976 7.82819C10.9894 7.78361 10.9691 7.74212 10.9391 7.70818C10.451 7.14627 9.80895 6.77707 9.28666 6.47631C9.23597 6.45444 9.19319 6.41756 9.16409 6.37063C9.13499 6.32371 9.12097 6.269 9.12392 6.21386C9.12686 6.15873 9.14663 6.10582 9.18055 6.06226C9.21448 6.0187 9.26094 5.98659 9.31368 5.97023C9.44605 5.92431 9.76392 5.88019 10.1358 5.80725C10.8985 5.66587 11.1471 5.10757 11.1408 4.37277C11.1398 4.34801 11.134 4.32368 11.1236 4.30118C11.1132 4.27869 11.0985 4.25848 11.0802 4.24173C11.062 4.22498 11.0406 4.21202 11.0173 4.2036C10.994 4.19518 10.9692 4.19146 10.9445 4.19267C10.5627 4.19988 10.2241 4.2368 9.93321 4.21789C9.5307 4.19177 9.3515 4.08551 9.13448 3.60375C8.96789 3.23095 8.7986 2.9554 8.66623 2.84824C8.6488 2.83375 8.62809 2.82375 8.6059 2.81911C8.58371 2.81448 8.56072 2.81536 8.53895 2.82167C8.51718 2.82797 8.49729 2.83952 8.48101 2.8553C8.46474 2.87108 8.45258 2.89061 8.44561 2.91218C8.40329 3.06706 8.41589 3.55333 8.41589 3.55333C8.41589 3.55333 8.18177 3.10308 8.02508 2.86805C8.00974 2.84546 7.98803 2.82794 7.96271 2.81771C7.93738 2.80748 7.9096 2.80501 7.88286 2.8106C7.85614 2.8162 7.83167 2.82961 7.81258 2.84914C7.79349 2.86867 7.78063 2.89343 7.77564 2.92028C7.74863 3.08687 7.74323 3.43356 7.72432 3.88741C7.72166 4.25308 7.66087 4.61601 7.54422 4.96259C7.48154 5.15944 7.3631 5.33389 7.20327 5.46479C7.04344 5.59569 6.84908 5.67743 6.64373 5.70009C6.0825 5.77128 5.51354 5.75304 4.95802 5.64606C4.46635 5.51999 3.89004 5.09136 3.60729 4.47543C3.5998 4.46021 3.58787 4.44763 3.57308 4.43934C3.55828 4.43105 3.54132 4.42745 3.52444 4.42902C3.50755 4.43058 3.49154 4.43723 3.47852 4.44809C3.46549 4.45895 3.45607 4.4735 3.4515 4.48983C3.32723 4.91036 3.45691 5.57042 3.8117 6.01436C3.32723 6.37455 2.1602 7.203 1.73157 8.13591C1.71617 8.16944 1.70911 8.20619 1.71099 8.24304C1.71287 8.27989 1.72364 8.31574 1.74238 8.34752C1.78567 8.42617 1.84512 8.49476 1.91682 8.54877C1.98853 8.60278 2.07086 8.64099 2.1584 8.66089C2.19202 8.66809 2.22686 8.66736 2.26015 8.65876C2.29344 8.65017 2.32427 8.63394 2.35021 8.61137C2.8905 8.16112 3.67032 7.52358 4.06113 7.3849C4.07148 7.38062 4.08303 7.38027 4.09361 7.3839C4.1042 7.38754 4.11309 7.39492 4.11862 7.40465C4.12415 7.41438 4.12594 7.4258 4.12364 7.43675C4.12135 7.44771 4.11513 7.45745 4.10616 7.46414C3.83601 7.67036 3.02557 8.20525 2.41504 9.30024C2.39716 9.33239 2.3871 9.36831 2.3857 9.40508C2.38429 9.44184 2.39156 9.47843 2.40694 9.51185C2.44869 9.59611 2.51054 9.66878 2.58703 9.72347C2.64281 9.7669 2.70321 9.80405 2.76713 9.83423C2.81071 9.8536 2.85906 9.85958 2.90604 9.8514C2.95302 9.84323 2.99651 9.82126 3.03097 9.7883C3.60729 9.2336 3.9918 8.8527 4.82745 8.46999C5.45149 8.20705 6.54558 8.05667 7.55052 8.31781C8.38528 8.53392 8.9841 8.88151 9.87738 9.55418C9.90722 9.57698 9.942 9.59244 9.97892 9.59932C10.0158 9.60621 10.0538 9.60431 10.0899 9.5938C10.1845 9.56994 10.2719 9.5236 10.3447 9.45873C10.3981 9.4059 10.4431 9.34515 10.478 9.27863C10.499 9.23981 10.5088 9.19592 10.5062 9.15186C10.5037 9.10781 10.4889 9.06534 10.4636 9.02919C9.97824 8.32501 9.16059 7.73789 8.69414 7.43713" fill="#010101"/>
</g>
</g>
</g>
<defs>
<clipPath id="clip0_826_29488">
<rect width="110" height="13.1939" fill="white"/>
</clipPath>
</defs>
</svg>
