<svg width="110" height="46" viewBox="0 0 110 46" fill="none" xmlns="http://www.w3.org/2000/svg">
<g clip-path="url(#clip0_826_29665)">
<path d="M85.5771 0.885898V22.9084L85.2986 23.1424L85.0201 23.3736L84.7525 23.6172L84.4972 23.8608L84.2529 24.1044L84.0099 24.359L83.7778 24.6149L83.5457 24.8695V0.885898H59.1228V20.9376H57.1024V0.884521H32.6795V20.9693H30.659V0.885898H6.2361V23.7796L0 44.5373H5.47979L8.23198 35.3482H9.02241L13.5753 44.5373H20.195L15.7814 35.3482H25.7922L23.0168 44.5373H28.9976L31.7389 35.3716H33.0631V35.3482H46.394L43.7455 44.5139H49.785L52.3516 35.3482H55.0683L55.1392 44.5139H60.2027L66.021 35.3482H69.8298L67.8558 44.5139H73.8011L75.7397 35.3482H79.1785L79.1553 35.8698L79.1676 36.4038L79.1908 36.913L79.2372 37.4249L79.2714 37.6685L79.3069 37.9121L79.3533 38.1557L79.3997 38.3993L79.457 38.6429L79.5157 38.8755L79.584 39.1067L79.655 39.3393L79.7369 39.5719L79.8174 39.7921L79.9103 40.0123L80.0031 40.2215L80.1082 40.4416L80.212 40.6508L80.328 40.8476L80.444 41.0568L80.5724 41.2536L80.7116 41.4394L80.8509 41.6362L81.001 41.811L81.1526 41.9968L81.3041 42.1702L81.4789 42.345L81.6522 42.5074L81.8734 42.6918L82.0932 42.8776L82.3253 43.0524L82.571 43.2148L82.814 43.3772L83.0583 43.5285L83.3136 43.6552L83.5798 43.7942L83.8351 43.9111L84.1027 44.0267L84.3703 44.1313L84.6488 44.2359L84.9273 44.3281L85.2058 44.4107L85.4843 44.4905L85.7641 44.5593L86.3211 44.6887L86.8904 44.7809L87.4474 44.8635L88.0044 44.9323L88.5504 44.9777L89.0856 45.0011L89.6071 45.0245H90.1067L90.7811 45.0135L91.4541 45.0025L92.1395 44.9681L92.8248 44.9337L93.5101 44.8745L94.1941 44.8167L94.8794 44.7479L95.5647 44.6653L96.2609 44.5731L96.9585 44.4685L97.6548 44.3529L98.351 44.2373L99.0486 44.1093L99.7448 43.9703L100.442 43.8313L101.151 43.6689L103.218 35.3482H110V0.887274H85.5771V0.885898ZM8.49955 34.4894L8.53505 34.3614L8.61696 34.4894H8.49955ZM29.7757 22.1432L29.4276 23.3158L26.1758 34.1055L26.0475 34.4894H15.3636L14.5391 32.7251L26.0475 20.972H18.651L9.65039 30.6607L12.565 20.972H7.10708V1.75568H29.7757V22.1418V22.1432ZM36.0828 31.2635L35.9081 31.2745L35.7443 31.2856L35.5709 31.2966H34.932L34.734 31.3076H34.5484L33.0972 31.2966L33.7702 28.8138L34.0842 27.5835L34.8514 24.6934H35.3497L35.5941 24.6838H36.9524L37.6378 24.6948L38.2657 24.7168L38.5442 24.7278L38.8104 24.7512L39.0657 24.787L39.2978 24.8214L39.508 24.8558L39.7046 24.9136L39.8903 24.9728L40.0541 25.0416L40.1934 25.1104L40.3203 25.204L40.4364 25.2976L40.5292 25.4132L40.5879 25.5067L40.6343 25.599L40.6807 25.7035L40.7149 25.8191L40.7381 25.9471L40.7517 26.0751V26.3641L40.7381 26.5279L40.7271 26.6903L40.693 26.8761L40.6575 27.0605L40.5538 27.4555L40.4254 27.8959L40.2985 28.2675L40.1579 28.628L40.0077 28.9638L39.8439 29.2776L39.7633 29.4153L39.6814 29.5556L39.5886 29.6946L39.4848 29.8226L39.3797 29.9506L39.276 30.0662L39.1599 30.1818L39.0425 30.2864L38.9156 30.38L38.7872 30.4846L38.648 30.5658L38.4978 30.658L38.3463 30.7406L38.1825 30.8094L38.0214 30.8782L37.8466 30.936L37.661 31.0062L37.4644 31.053L37.2541 31.0984L37.0453 31.1452L36.8132 31.1796L36.5811 31.2154L36.3368 31.2388L36.0815 31.2622L36.0828 31.2635ZM52.5959 34.4894L54.9768 26.0187L55.0696 34.4894H52.5959ZM56.2191 20.9363H50.5523L46.6493 34.4894H40.6343L40.9128 34.3725L41.1913 34.2568L41.4589 34.1412L41.7264 34.0133L41.9817 33.8853L42.2247 33.7339L42.4691 33.5963L42.7012 33.4449L42.9333 33.2825L43.1544 33.1201L43.3633 32.9577L43.5722 32.7719L43.7701 32.5985L43.9558 32.4003L44.1414 32.2145L44.3162 32.0067L44.4895 31.8085L44.6534 31.5883L44.8035 31.3791L44.9537 31.1479L45.093 30.9153L45.2213 30.6828L45.3496 30.4392L45.4656 30.1846L45.5817 29.9286L45.6854 29.674L45.7783 29.407L45.8725 29.129L45.9407 28.8496L46.0226 28.5716L46.0813 28.2688L46.1387 27.9798L46.2206 27.516L46.2888 27.0757L46.3366 26.6573L46.3708 26.2623L46.3844 25.8687L46.3708 25.5081L46.3598 25.1489L46.3134 24.8117L46.267 24.4993L46.1851 24.1856L46.1045 23.8965L45.9885 23.6172L45.8602 23.3502L45.7209 23.0832L45.5585 22.8396L45.3728 22.607L45.2226 22.4446L45.0711 22.2822L44.9073 22.1446L44.7339 22.0152L44.5483 21.8886L44.3626 21.7716L44.1646 21.6684L43.9681 21.5748L43.7592 21.4826L43.5503 21.4124L43.3292 21.3436L43.108 21.2734L42.8759 21.2156L42.6438 21.1689L42.4118 21.1221L42.1674 21.0877L41.6677 21.0188L41.1695 20.9831L40.6575 20.9487L40.136 20.9376H33.5504V1.75705H56.2191V20.9376V20.9363ZM69.9923 34.4894H66.5889L71.7452 26.3669L69.9923 34.4894ZM82.6611 21.3189L82.6502 26.0187L82.3594 26.4247L82.0932 26.8431L81.8256 27.2601L81.5812 27.6784L81.3492 28.0954L81.1171 28.5248L80.9191 28.9432L80.7225 29.3602L80.5369 29.7662L80.3731 30.1846L80.2106 30.5906L80.0714 30.9855L79.9444 31.3791L79.8284 31.7617L79.7232 32.1333L79.6304 32.5049L79.5717 32.7485L79.5144 33.0045L79.4557 33.2481L79.4092 33.5027L79.3628 33.7463L79.3287 33.9899L79.2932 34.2334L79.27 34.4894H75.9376L78.7826 20.9707L69.1909 20.9597L60.6081 34.4894H59.9801V1.75705H82.6611V21.3202V21.3189ZM95.7394 40.0233L95.2616 40.1058L94.7742 40.1747L94.2869 40.2435L93.8104 40.3026L93.3354 40.3481L92.8575 40.3838L92.3934 40.4072H91.6275L91.3258 40.3962L91.035 40.3728L90.7456 40.3371L90.4658 40.2916L90.1996 40.2448L89.932 40.187L89.6767 40.1182L89.4323 40.0357L89.1893 39.9545L88.9573 39.8499L88.7361 39.7453L88.5149 39.6187L88.3061 39.4907L88.1081 39.3517L87.9225 39.2127L87.7368 39.0503L87.5743 38.8755L87.4119 38.7021L87.2617 38.5039L87.1211 38.3071L86.9941 38.0869L86.8781 37.8667L86.7621 37.6341L86.6692 37.3905L86.5873 37.1235L86.5177 36.8566L86.4481 36.5786L86.4017 36.2895L86.3662 35.9868L86.343 35.673L86.3307 35.3482H96.8998L95.7381 40.0246L95.7394 40.0233ZM109.14 34.4894H103.427L104.367 30.7062H92.9162L91.9756 34.4894H86.4371V33.7119L86.5054 33.3871L86.5641 33.0623L86.6337 32.7141L86.7034 32.3659L86.8085 31.9833L86.9122 31.5993L87.0283 31.2167L87.1566 30.8452L87.2958 30.4736L87.446 30.102L87.6098 29.7442L87.7723 29.3836L87.9579 29.0244L88.1436 28.6872L88.3416 28.339L88.5614 28.0142L88.7825 27.6895L89.0023 27.3757L89.248 27.0743L89.502 26.7853L89.7695 26.5059L90.0371 26.2513L90.3265 25.9953L90.6173 25.7517L90.919 25.5315L91.2439 25.3223L91.5688 25.1365L91.906 24.9631L92.2541 24.8007L92.6145 24.6617L92.9859 24.5448L93.3695 24.4525L93.7654 24.37L94.1708 24.3135L94.5886 24.2778L95.0186 24.2668L95.3558 24.2778L95.6916 24.3012L96.0288 24.348L96.3538 24.4168L96.5176 24.4636L96.6677 24.5103L96.8179 24.5571L96.9585 24.626L97.0978 24.6838L97.237 24.7663L97.364 24.8461L97.4923 24.9287L97.6083 25.0319L97.7244 25.1365L97.8295 25.2411L97.9333 25.3691L98.0261 25.4847L98.108 25.6237L98.1776 25.7751L98.2472 25.9265L98.3059 26.0875L98.3524 26.2623L98.3865 26.4357L98.422 26.6339L98.4343 26.8307V27.2601L98.4111 27.4927H105.24L105.343 27.0165L105.436 26.4715L105.483 26.1811L105.506 25.8673L105.529 25.5549V25.2301L105.518 24.8929L105.484 24.5448L105.449 24.3824L105.425 24.209L105.379 24.0342L105.332 23.8608L105.275 23.675L105.216 23.5002L105.148 23.3268L105.066 23.152L104.984 22.9786L104.879 22.8038L104.775 22.6304L104.659 22.457L104.52 22.2712L104.37 22.0964L104.217 21.923L104.055 21.7606L103.881 21.5982L103.696 21.4468L103.51 21.3079L103.312 21.1689L103.103 21.0299L102.894 20.9129L102.673 20.7973L102.441 20.6817L102.209 20.5771L101.965 20.4725L101.709 20.3789L101.454 20.2867L101.199 20.2041L100.92 20.1353L100.653 20.0665L100.362 19.9963L100.072 19.9385L99.7817 19.8807L99.48 19.8339L99.166 19.7995L98.5271 19.7293L97.8773 19.6715L97.192 19.6481L96.4957 19.6371L95.9729 19.6481L95.4268 19.6591L94.8575 19.6935L94.265 19.7403L93.6507 19.8091L93.0227 19.8917L92.3838 19.9949L91.734 20.1353L91.4091 20.2041L91.0719 20.2867L90.747 20.3789L90.4098 20.4711L90.0726 20.5757L89.7368 20.6913L89.3996 20.8083L89.0747 20.9349L88.7375 21.0753L88.4003 21.2267L88.0754 21.3767L87.7382 21.5391L87.4132 21.7125L87.0883 21.8983L86.7634 22.084L86.4385 22.2932V1.75568H109.141V34.4881L109.14 34.4894Z" fill="#003087"/>
</g>
<defs>
<clipPath id="clip0_826_29665">
<rect width="110" height="45.9091" fill="white"/>
</clipPath>
</defs>
</svg>
