<svg width="110" height="18" viewBox="0 0 110 18" fill="none" xmlns="http://www.w3.org/2000/svg">
<g clip-path="url(#clip0_826_29310)">
<path d="M0.206403 14.8068L7.65981 2.41821C8.23518 1.46248 9.65368 1.46248 10.2283 2.41821L17.6817 14.8068C18.263 15.7734 17.5475 16.9906 16.3974 16.9906H1.49068C0.340658 16.9906 -0.374878 15.7741 0.206403 14.8068Z" fill="#FF312C"/>
<path d="M24.4167 0.735323C21.0322 0.679991 18.0927 2.55625 16.68 5.30632C16.3053 6.03569 16.337 6.90088 16.7604 7.60436L22.1631 16.584C22.3593 16.9102 22.6972 17.1308 23.0808 17.184C23.4695 17.2379 23.8671 17.2659 24.2714 17.2659C28.9452 17.2659 32.7368 13.5845 32.7567 9.03582C32.7774 4.5367 29.0352 0.810057 24.4167 0.735323Z" fill="#FF312C"/>
<path d="M45.7955 1.00977H34.2783C33.551 1.00977 33.1312 1.811 33.5554 2.38659C34.9422 4.26932 35.7566 6.57458 35.7455 9.05013C35.7344 11.4912 34.9289 13.7541 33.5694 15.6073C33.1438 16.1865 33.5598 16.9914 34.2908 16.9914H45.7955C46.8334 16.9914 47.675 16.1715 47.675 15.1603V2.84075C47.675 1.82968 46.8334 1.00977 45.7955 1.00977Z" fill="#FF312C"/>
<path d="M95.7929 10.9566C94.6421 10.9566 93.9045 10.0655 93.9045 8.95891C93.9045 7.85224 94.6122 6.94682 95.7929 6.94682C96.9731 6.94682 97.6661 7.85224 97.6661 8.95891C97.6661 10.0655 96.9432 10.9566 95.7929 10.9566ZM96.2794 4.90601C95.1876 4.90601 94.3318 5.35154 93.8746 5.92641V5.12159H91.7357V15.1819H93.9783V12.0345C94.4647 12.595 95.3498 12.9974 96.2355 12.9974C98.5665 12.9974 99.9386 11.3303 99.9386 8.93017C99.9386 6.67375 98.5366 4.90601 96.2794 4.90601ZM107.61 5.09284L105.53 10.2811H105.235L103.184 5.09284H100.588L103.715 12.1639L104.128 12.8249L103.966 13.0549H101.414V15.1819H102.889C104.763 15.1819 105.943 14.3627 106.74 12.5375L110 5.09284H107.61ZM88.6817 10.1949C87.885 10.1949 87.2358 10.8273 87.2358 11.6033C87.2358 12.3938 87.885 13.0262 88.6817 13.0262C89.4931 13.0262 90.1422 12.3938 90.1422 11.6033C90.1422 10.8273 89.4931 10.1949 88.6817 10.1949ZM83.0755 5.09284L80.9067 8.18281H80.6708L78.5312 5.09284H75.8759V12.8249H78.0887V8.57086H78.3983L80.2276 11.2009H81.2901L83.1493 8.57086H83.4291V12.8249H85.6424V5.09284H83.0755ZM70.2253 10.8991C69.0744 10.8991 68.3661 10.0368 68.3661 8.95891C68.3661 7.89535 69.0598 7.03305 70.2253 7.03305C71.4054 7.03305 72.0991 7.89535 72.0991 8.95891C72.0991 10.0368 71.3761 10.8991 70.2253 10.8991ZM70.2253 4.90601C67.6139 4.90601 66.0497 6.73124 66.0497 8.95891C66.0497 11.2009 67.673 13.0117 70.2253 13.0117C72.7921 13.0117 74.4002 11.2009 74.4002 8.95891C74.4002 6.73124 72.8513 4.90601 70.2253 4.90601ZM60.4436 7.0618L61.8747 10.7554H58.7618L60.1781 7.0618H60.4436ZM64.1912 10.7554L61.9632 5.09284H58.5848L56.357 10.7554H55.0735V14.6214H57.2127V12.8249H63.2321V14.6214H65.3859V10.7554H64.1912Z" fill="#FF312C"/>
</g>
<defs>
<clipPath id="clip0_826_29310">
<rect width="110" height="16.5318" fill="white" transform="translate(0 0.734131)"/>
</clipPath>
</defs>
</svg>
