<svg width="110" height="39" viewBox="0 0 110 39" fill="none" xmlns="http://www.w3.org/2000/svg">
<g clip-path="url(#clip0_826_29729)">
<path fill-rule="evenodd" clip-rule="evenodd" d="M0 38.2883C0 38.2883 63.1034 22.9665 109.856 33.7609L110 33.262C110 33.262 69.2054 21.355 0.782943 35.8603L0 38.2883Z" fill="#2C2C2C"/>
<path fill-rule="evenodd" clip-rule="evenodd" d="M30.2235 7.7866V10.3295C30.4536 9.82039 30.7483 9.13033 31.5351 8.47719C32.3874 7.75073 33.6328 7.35083 34.846 7.35083C35.4687 7.35083 36.092 7.46004 36.7147 7.6774C38.649 8.40492 39.2061 9.9296 39.4352 10.5833C40.9436 7.7866 43.3365 7.38776 44.6148 7.38776C46.1882 7.38776 47.5649 7.96914 48.4834 8.87656C50.1219 10.4751 50.1875 12.2171 50.1875 16.5759V26.6008H45.3687V17.7023C45.3687 14.6872 45.3036 14.07 44.8116 13.2712C44.2868 12.3997 43.5328 12.2171 42.8117 12.2171C41.5007 12.2171 40.8451 13.162 40.7467 13.3076C40.2219 14.2156 40.2219 15.7772 40.2219 17.3024V26.6008H35.4031V17.1209C35.4031 15.0871 35.4031 14.1792 34.9116 13.3435C34.5513 12.7262 33.8296 12.2171 32.945 12.2171C32.5186 12.2171 32.0922 12.3263 31.6985 12.5453C30.2891 13.3435 30.2563 14.7242 30.2563 18.2832V26.6008H25.4375V7.7866H30.2235Z" fill="#2C2C2C"/>
<path fill-rule="evenodd" clip-rule="evenodd" d="M69.2931 7.35083H74.25L69.2931 26.6008H64.7654L61.8905 13.594L59.0491 26.6008H54.4569L49.5 7.35083H54.4569L57.0669 19.3919L59.7429 7.35083H64.038L66.6826 19.3919L69.2931 7.35083Z" fill="#2C2C2C"/>
<path fill-rule="evenodd" clip-rule="evenodd" d="M84.5751 26.8833H89.375V7.7927H84.6752V10.2574C83.809 8.4173 82.3086 7.35083 80.4089 7.35083C77.1423 7.35083 72.875 10.1468 72.875 17.6511C72.875 23.6097 75.9421 27.2883 80.042 27.2883C82.8422 27.2883 83.9752 25.6699 84.5751 24.7867V26.8833ZM84.3217 17.1355C84.3217 18.8645 84.0888 20.5198 83.0558 21.7711C82.1886 22.7633 81.2224 22.8376 80.9216 22.8376C79.956 22.8376 78.8547 22.2488 78.1887 20.593C77.7895 19.6366 77.6561 18.4964 77.6561 17.3193C77.6561 15.8478 77.8557 14.3395 78.689 13.1261C79.2889 12.2798 80.2217 11.7289 81.1223 11.7289C81.8545 11.7289 82.5883 12.096 83.0892 12.6848C83.7219 13.3836 84.3217 14.6718 84.3217 17.1355Z" fill="#2C2C2C"/>
<path fill-rule="evenodd" clip-rule="evenodd" d="M100.36 7.35083H105.188L99.875 26.1701C99.487 27.4879 98.8738 29.6486 97.9372 30.7101C97.0643 31.6616 96.0303 32.1008 92.1856 32.1008C91.636 32.1008 91.4107 32.0647 90.9258 32.028V27.8171H92.1856C92.6377 27.8171 93.7041 27.8171 94.189 27.3416C94.576 27.0125 94.8998 26.2062 94.8998 25.4378C94.8998 25.0346 94.7053 24.3023 94.5447 23.8264L89.375 7.35083H94.5447L97.5816 20.1287L100.36 7.35083Z" fill="#2C2C2C"/>
<path fill-rule="evenodd" clip-rule="evenodd" d="M11.574 0.47583L3.4375 26.6008H9.41319L10.9321 21.0502H18.5623L20.1158 26.6008H26.125L17.6508 0.47583H11.574ZM14.6464 6.21149L17.246 16.2766H12.1819L14.6464 6.21149Z" fill="#2C2C2C"/>
<path fill-rule="evenodd" clip-rule="evenodd" d="M102.185 30.0383H101.732V28.3365H101.062V27.9758H102.835V28.3365H102.185V30.0383ZM105.188 30.0383H104.748L104.767 28.8518C104.767 28.7277 104.786 28.5036 104.792 28.4296C104.767 28.516 104.729 28.6532 104.696 28.7711L104.301 30.0383H103.899L103.492 28.7711C103.479 28.7215 103.409 28.4912 103.396 28.4415C103.415 28.5533 103.421 28.6842 103.428 28.8518L103.454 30.0383H103.013V27.9758H103.6L104.11 29.5349L104.595 27.9758H105.188V30.0383Z" fill="#2C2C2C"/>
</g>
<defs>
<clipPath id="clip0_826_29729">
<rect width="110" height="38.5" fill="white"/>
</clipPath>
</defs>
</svg>
