<svg width="65" height="65" viewBox="0 0 65 65" fill="none" xmlns="http://www.w3.org/2000/svg">
<path fill-rule="evenodd" clip-rule="evenodd" d="M32.5 0C50.4443 0 65 14.5557 65 32.5C65 50.4443 50.4443 65 32.5 65C14.5557 65 0 50.4443 0 32.5C0 14.5557 14.5557 0 32.5 0Z" fill="#454545"/>
<path fill-rule="evenodd" clip-rule="evenodd" d="M32.5005 0.288452C50.2908 0.288452 64.7309 14.7286 64.7309 32.5189C64.7309 50.3092 50.2908 64.7494 32.5005 64.7494C14.7102 64.7494 0.27002 50.3092 0.27002 32.5189C0.289273 14.7094 14.7102 0.288452 32.5005 0.288452Z" fill="#FFCC00"/>
<path fill-rule="evenodd" clip-rule="evenodd" d="M32.5581 64.1523C49.9826 64.1138 64.1147 49.9432 64.1147 32.4995C64.1147 32.2492 64.1147 31.9797 64.0954 31.7294H61.2844C61.2844 31.9797 61.3037 32.2492 61.3037 32.4995C61.3037 48.4029 48.4423 61.3028 32.5581 61.3413V64.1523Z" fill="#E21C2A"/>
<path fill-rule="evenodd" clip-rule="evenodd" d="M32.5581 64.1525C41.28 64.1332 49.1739 60.5713 54.873 54.853C55.2195 54.4872 55.5854 54.1214 55.9127 53.7556L55.9319 53.7363C56.1052 53.5438 56.2592 53.3705 56.4325 53.178C56.6058 52.9854 56.7598 52.7929 56.9139 52.6004C57.0679 52.4078 57.2219 52.2153 57.3759 52.0227L57.4144 51.965C57.5492 51.7917 57.684 51.5992 57.838 51.4259L57.8765 51.3681C58.0113 51.1756 58.1461 51.0023 58.2809 50.8098L58.3001 50.7905C58.5889 50.3862 58.8585 49.9819 59.128 49.5583L59.1473 49.539C59.282 49.3272 59.4168 49.1347 59.5323 48.9229C59.6671 48.7111 59.7826 48.4801 59.9174 48.2683L59.9367 48.2105C60.0522 47.9988 60.1677 47.8062 60.2832 47.5944L60.3025 47.5367C60.418 47.3249 60.5143 47.1323 60.6298 46.9206C60.649 46.882 60.6683 46.8435 60.6875 46.805C60.7838 46.6125 60.8801 46.42 60.9764 46.2274L60.9956 46.2082C61.0919 45.9964 61.2074 45.7653 61.3037 45.5343C61.3229 45.4958 61.3422 45.4573 61.3614 45.3995C61.4384 45.207 61.5347 45.0145 61.6117 44.8219C61.631 44.7642 61.6502 44.7064 61.6887 44.6486C61.7657 44.4754 61.8428 44.2828 61.9198 44.1095C61.939 44.0325 61.9775 43.9748 61.9968 43.8977C62.0545 43.7245 62.1316 43.5512 62.1893 43.3972C62.2278 43.3201 62.2471 43.2431 62.2663 43.1661C62.3241 43.0121 62.3819 42.8388 62.4396 42.6848C62.4781 42.5693 62.5166 42.473 62.5359 42.3575C62.5744 42.2227 62.6322 42.0879 62.6707 41.9339C62.7092 41.8376 62.7284 41.7221 62.7669 41.6258C62.8054 41.4718 62.8632 41.337 62.9017 41.183C62.921 41.106 62.9402 41.0482 62.9595 40.9712C63.0172 40.7979 63.0557 40.6054 63.1135 40.4321C63.1327 40.3743 63.152 40.2973 63.1713 40.2396C63.2098 40.047 63.2675 39.8738 63.306 39.6812C63.3253 39.585 63.3445 39.4887 63.3638 39.4117C63.4023 39.2576 63.4408 39.0844 63.4793 38.9303C63.4986 38.7956 63.5371 38.6608 63.5563 38.526C63.5756 38.4105 63.5948 38.2757 63.6333 38.1602C63.6526 38.0447 63.6718 37.9484 63.6911 37.8329C63.7104 37.6789 63.7489 37.5248 63.7681 37.3708C63.8066 37.1205 63.8451 36.8509 63.8836 36.6007C63.9029 36.4081 63.9221 36.2156 63.9414 36.023C63.9414 35.946 63.9607 35.8883 63.9607 35.8113C63.9799 35.6572 63.9799 35.5032 63.9992 35.3684C64.0184 35.2529 64.0184 35.1374 64.0377 35.0219C64.0569 34.7523 64.0762 34.4828 64.0954 34.2132C64.1147 33.9437 64.1147 33.6741 64.1339 33.4046C64.1339 33.135 64.1532 32.8655 64.1532 32.5959V32.5767V32.5574C64.1532 32.3071 64.1532 32.0761 64.1532 31.8258V31.8065H63.7104C63.7104 32.0568 63.7296 32.3264 63.7296 32.5767C63.7296 49.7701 49.8093 63.7289 32.6159 63.7867V64.1525H32.5581Z" fill="white"/>
<path fill-rule="evenodd" clip-rule="evenodd" d="M32.5581 61.3606C48.4423 61.3029 61.3037 48.403 61.3037 32.5188C61.3037 32.2685 61.3037 31.999 61.2844 31.7487H58.4734C58.4734 31.999 58.4926 32.2685 58.4926 32.5188C58.4926 46.8627 46.8827 58.5111 32.5581 58.5689V61.3606Z" fill="white"/>
<path fill-rule="evenodd" clip-rule="evenodd" d="M32.5581 58.5496C46.8827 58.4918 58.4926 46.8627 58.4926 32.4995C58.4926 32.2492 58.4926 31.9797 58.4734 31.7294H55.6624C55.6624 31.9797 55.6816 32.2492 55.6816 32.4995C55.6816 45.3031 45.3232 55.6808 32.5581 55.7386V58.5496Z" fill="#E21C2A"/>
<path fill-rule="evenodd" clip-rule="evenodd" d="M56.1435 31.7294H55.6814C55.6814 31.9797 55.7007 32.2492 55.7007 32.4995C55.7007 45.3031 45.3423 55.6808 32.5771 55.7386V56.2006C45.6118 56.1429 56.182 45.5534 56.182 32.4995C56.1628 32.2492 56.1435 31.9797 56.1435 31.7294Z" fill="white"/>
<path fill-rule="evenodd" clip-rule="evenodd" d="M32.4042 64.1523C14.9605 64.1138 0.847656 49.9432 0.847656 32.4995C0.847656 32.2492 0.847656 31.9797 0.86691 31.7294H3.65867H6.46969H9.28071C9.28071 31.9797 9.26146 32.2492 9.26146 32.4995C9.26146 45.3031 19.6199 55.6808 32.385 55.7385V58.5496V61.3606V64.1523H32.4042Z" fill="#E21C2A"/>
<path fill-rule="evenodd" clip-rule="evenodd" d="M32.3074 64.1524C23.6241 64.0946 15.7686 60.5519 10.0888 54.8529C9.74224 54.4871 9.37642 54.1213 9.04911 53.7554L9.02986 53.7362C8.85658 53.5436 8.70255 53.3704 8.52927 53.1778C8.35599 52.9853 8.20196 52.7928 8.04793 52.6002C7.8939 52.4077 7.73987 52.2152 7.58584 52.0226L7.54734 51.9649C7.41256 51.7916 7.27779 51.599 7.12376 51.4258L7.08525 51.368C6.95048 51.1755 6.8157 51.0022 6.68093 50.8096L6.66167 50.7904C6.37287 50.3861 6.10332 49.9817 5.83377 49.5582L5.81452 49.5389C5.67974 49.3271 5.54497 49.1346 5.42945 48.9228C5.29467 48.711 5.17915 48.48 5.04438 48.2682L5.02512 48.2104C4.9096 47.9986 4.79408 47.8061 4.67856 47.5943L4.6593 47.5365C4.54378 47.3247 4.44752 47.1322 4.33199 46.9204C4.31274 46.8819 4.29349 46.8434 4.27423 46.8049C4.17797 46.6124 4.0817 46.4198 3.98543 46.2273L3.96618 46.208C3.86991 45.9963 3.75439 45.7652 3.65812 45.5342C3.63887 45.4957 3.61961 45.4572 3.60036 45.3994C3.52334 45.2069 3.42708 45.0143 3.35006 44.8218C3.33081 44.764 3.31156 44.7063 3.27305 44.6485C3.19603 44.4752 3.11902 44.2827 3.04201 44.1094C3.02275 44.0324 2.98425 43.9746 2.96499 43.8976C2.90723 43.7243 2.83022 43.5511 2.77246 43.397C2.73395 43.32 2.7147 43.243 2.69544 43.166C2.63768 43.012 2.57992 42.8387 2.52216 42.6846C2.48365 42.5691 2.44515 42.4729 2.42589 42.3573C2.38739 42.2226 2.32962 42.0878 2.29112 41.9338C2.25261 41.8375 2.23336 41.722 2.19485 41.6257C2.15634 41.4717 2.09858 41.3369 2.06007 41.1829C2.04082 41.1058 2.02157 41.0481 2.00231 40.9711C1.94455 40.7978 1.90605 40.6053 1.84829 40.432C1.82903 40.3742 1.80978 40.2972 1.79053 40.2394C1.75202 40.0469 1.69426 39.8736 1.65575 39.6811C1.6365 39.5848 1.61724 39.4886 1.59799 39.4115C1.55948 39.2575 1.52098 39.0842 1.48247 38.9302C1.46321 38.7954 1.42471 38.6606 1.40545 38.5259C1.3862 38.4104 1.36695 38.2756 1.32844 38.1601C1.30919 38.0445 1.28993 37.9483 1.27068 37.8327C1.25143 37.6787 1.21292 37.5247 1.19366 37.3707C1.15516 37.1204 1.11665 36.8508 1.07814 36.6005C1.05889 36.408 1.03964 36.2154 1.02038 36.0229C1.02038 35.9459 1.00113 35.8881 1.00113 35.8111C0.981876 35.6571 0.981876 35.5031 0.962622 35.3683C0.943369 35.2528 0.943369 35.1372 0.924115 35.0217C0.904862 34.7522 0.885608 34.4826 0.866354 34.2131C0.847101 33.9435 0.847101 33.674 0.827847 33.4044C0.827847 33.1349 0.808594 32.8653 0.808594 32.5958V32.5765V32.5573C0.808594 32.307 0.808594 32.0759 0.808594 31.8256V31.8064H1.25143C1.25143 32.0567 1.23217 32.3262 1.23217 32.5765C1.23217 49.7507 15.0947 63.671 32.2496 63.7865V63.3437C15.4028 63.1512 1.75202 49.4234 1.75202 32.4995C1.75202 32.2492 1.75202 31.9797 1.77127 31.7294H2.2141C2.2141 31.9797 2.19485 32.2492 2.19485 32.4995C2.19485 49.1731 15.6531 62.7083 32.3074 62.8046V57.0285C18.8492 56.913 7.97092 45.977 7.97092 32.4995C7.97092 32.2492 7.97092 31.9797 7.99017 31.7294H8.433C8.433 31.9797 8.41375 32.2492 8.41375 32.4995C8.41375 45.7267 19.0995 56.4702 32.3074 56.5857V56.2006C19.3113 56.0851 8.79882 45.5149 8.79882 32.4995C8.79882 32.2492 8.79882 31.9797 8.81807 31.7294H9.28016C9.28016 31.9797 9.2609 32.2492 9.2609 32.4995C9.2609 45.2646 19.5616 55.623 32.2882 55.7386V55.7193H32.6925V64.2101H32.2882V64.1524H32.3074Z" fill="#FFCC00"/>
<path fill-rule="evenodd" clip-rule="evenodd" d="M32.4233 0.828491C49.6553 0.828491 63.6526 14.5948 64.0762 31.7112H0.770508C1.19409 14.5948 15.2107 0.828491 32.4233 0.828491Z" fill="#FFCC00"/>
<path fill-rule="evenodd" clip-rule="evenodd" d="M1.30908 31.2874H63.6713C63.036 14.5754 49.2889 1.29041 32.4998 1.29041C15.73 1.29041 1.9637 14.5754 1.30908 31.2874Z" fill="white"/>
<path fill-rule="evenodd" clip-rule="evenodd" d="M32.5 3.65833C48.1724 3.65833 60.9375 16.1539 61.3418 31.73H3.6582C4.08178 16.1539 16.8276 3.65833 32.5 3.65833Z" fill="#FFCC00"/>
<path fill-rule="evenodd" clip-rule="evenodd" d="M4.12012 31.2871H60.8603C60.225 16.1345 47.7102 4.10107 32.4806 4.10107C17.2703 4.10107 4.77474 16.1153 4.12012 31.2871Z" fill="#002ED3"/>
<path fill-rule="evenodd" clip-rule="evenodd" d="M32.4234 6.45044C46.5362 6.45044 58.0499 17.6945 58.4542 31.7111H6.39258C6.7969 17.6945 18.3105 6.45044 32.4234 6.45044Z" fill="#FFCC00"/>
<path fill-rule="evenodd" clip-rule="evenodd" d="M6.93164 31.2875H58.0498C57.4145 17.6752 46.1704 6.91248 32.4811 6.91248C18.8303 6.91248 7.58626 17.6752 6.93164 31.2875Z" fill="#E21C2A"/>
<path fill-rule="evenodd" clip-rule="evenodd" d="M32.4427 9.26111C45.2655 9.26111 55.6817 19.6773 55.6817 32.5001C55.6817 45.323 45.2655 55.7392 32.4427 55.7392C19.6198 55.7392 9.20361 45.323 9.20361 32.5001C9.20361 19.6773 19.6198 9.26111 32.4427 9.26111Z" fill="#FFCC00"/>
<path fill-rule="evenodd" clip-rule="evenodd" d="M32.4423 9.646C45.0534 9.646 55.2963 19.8889 55.2963 32.5C55.2963 45.111 45.0534 55.3539 32.4423 55.3539C19.8313 55.3539 9.58838 45.1303 9.58838 32.5C9.58838 19.8889 19.8313 9.646 32.4423 9.646Z" fill="white"/>
<path fill-rule="evenodd" clip-rule="evenodd" d="M39.836 47.1716C38.8734 48.0573 37.8337 49.0007 36.6977 49.6168C36.2741 49.8478 35.8506 50.0211 35.4077 50.1944C34.368 50.5987 33.6364 50.926 32.77 51.6577C32.6352 51.7732 32.5004 51.7539 32.3464 51.6384C31.48 50.9068 30.7484 50.5795 29.7087 50.1752C29.2658 50.0019 28.8423 49.8286 28.4187 49.5975C27.2827 48.9814 26.243 48.038 25.2804 47.1523L24.1059 47.2871L24.0289 47.0561C23.4513 45.2077 23.3358 43.2246 24.491 41.5688L24.799 41.126L24.9916 41.6458C25.4729 43.0128 26.2623 44.2258 27.3405 45.2077L27.6871 45.5158L27.2442 45.6698C26.8784 45.8046 26.5704 46.0164 26.3393 46.3052L27.8796 46.9983C28.5342 47.1138 29.1503 47.4797 29.8242 47.0946C31.1334 46.3629 31.249 43.2054 31.2682 41.9539L31.3645 36.6977L31.4222 35.0419L31.7496 25.2225H29.7087C29.4776 25.2225 29.2658 25.03 29.2658 24.7797V23.8748C29.2658 23.6438 29.4584 23.432 29.7087 23.432H30.8254C30.1515 22.9314 29.7279 22.142 29.7279 21.2371C29.7279 19.716 30.9602 18.5031 32.4619 18.5031C33.983 18.5031 35.1959 19.7353 35.1959 21.2371C35.1959 22.142 34.7531 22.9314 34.0985 23.432H35.35C35.581 23.432 35.7928 23.6245 35.7928 23.8748V24.799C35.7928 25.03 35.6003 25.2418 35.35 25.2418H33.3283L33.7134 36.7362L33.8097 41.9924C33.8289 43.2246 33.9445 46.4015 35.2537 47.1331C35.9276 47.5182 36.5437 47.1331 37.1983 47.0368L38.7386 46.3437C38.5076 46.0549 38.1995 45.8431 37.8337 45.7083L37.3908 45.5543L37.7374 45.2462C38.8156 44.2643 39.5857 43.0513 40.0863 41.6843L40.2789 41.1645L40.5869 41.6073C41.7421 43.2631 41.6266 45.2462 41.049 47.0946L40.972 47.3256L39.836 47.1716ZM32.5004 20.0626C33.1551 20.0626 33.6942 20.6017 33.6942 21.2563C33.6942 21.9109 33.1551 22.45 32.5004 22.45C31.8458 22.45 31.3067 21.9109 31.3067 21.2563C31.3067 20.6017 31.8458 20.0626 32.5004 20.0626Z" fill="#2C2C2B"/>
<path fill-rule="evenodd" clip-rule="evenodd" d="M32.5773 24.7413H33.0778L33.4052 35.0612L33.4629 36.717L33.5592 41.9732C33.6747 49.1163 36.428 47.422 37.3136 47.268L39.2005 46.4208C38.9117 45.9587 38.5073 45.6121 37.9682 45.4196C39.085 44.3799 39.8936 43.1477 40.3942 41.7422C41.3184 43.0707 41.4916 44.8228 40.8178 46.9792L39.7396 46.8444C38.6614 47.8456 37.6409 48.7505 36.5627 49.3473C35.2535 50.0597 34.1753 50.079 32.5965 51.4075C32.558 51.4267 32.5773 51.4267 32.5387 51.3882C30.96 50.0597 29.8818 50.0405 28.5725 49.3281C27.4943 48.7312 26.4739 47.8263 25.3957 46.8251L24.3175 46.9599C23.6436 44.8035 23.8169 43.0514 24.7411 41.7229C25.2416 43.1092 26.031 44.3607 27.167 45.4004C26.6279 45.5929 26.2043 45.9587 25.9348 46.4015L27.8216 47.2487C28.7073 47.3835 31.4605 49.0778 31.5761 41.954L31.6723 36.6978L31.7301 35.042L32.0574 24.722H32.5773V24.7413Z" fill="#FFCC00"/>
<path fill-rule="evenodd" clip-rule="evenodd" d="M32.7119 26.2045V49.2317C33.5783 49.2125 34.3292 49.1162 35.0031 48.9622C35.7347 48.7889 36.3701 48.5578 36.9285 48.2498C37.5831 47.9032 38.2184 47.4411 38.7383 46.902C39.2004 46.4207 39.6047 45.8816 39.855 45.2655C40.0475 44.8034 40.1823 44.2835 40.2401 43.6867C40.2978 43.1861 40.3171 42.6663 40.2786 42.1079C40.2786 42.0694 40.2593 42.0501 40.2786 42.0116L40.3941 41.7228L40.5481 42.0116C40.5674 42.0309 40.5481 42.0694 40.5481 42.0886C40.5866 42.6663 40.5674 43.2054 40.5096 43.7252C40.4326 44.3413 40.2978 44.8997 40.1053 45.381C39.8357 46.0164 39.4122 46.594 38.9308 47.1138C38.3725 47.6722 37.7179 48.1535 37.044 48.5193C36.4664 48.8274 35.8118 49.0777 35.0609 49.251C34.3677 49.405 33.5976 49.5013 32.7119 49.5205V51.0993H32.4231V49.5205C31.5375 49.5013 30.7673 49.405 30.0742 49.251C29.3233 49.0777 28.6687 48.8274 28.0911 48.5193C27.4172 48.1535 26.7626 47.6914 26.2042 47.1138C25.7036 46.6132 25.2993 46.0356 25.0298 45.381C24.818 44.8997 24.6832 44.3413 24.6254 43.7252C24.5677 43.2054 24.5484 42.6855 24.5869 42.0886C24.5869 42.0694 24.5869 42.0309 24.5869 42.0116L24.741 41.7228L24.8565 42.0116C24.8757 42.0501 24.8565 42.0694 24.8565 42.1079C24.818 42.6663 24.8372 43.2054 24.895 43.6867C24.9527 44.2643 25.0875 44.8034 25.2801 45.2655C25.5304 45.8816 25.9347 46.4207 26.3968 46.902C26.9359 47.4411 27.5712 47.9032 28.2066 48.2498C28.765 48.5578 29.4003 48.7889 30.132 48.9622C30.8058 49.1162 31.5567 49.2125 32.4231 49.2317V26.2045H32.7119Z" fill="#2C2C2B"/>
<path fill-rule="evenodd" clip-rule="evenodd" d="M32.5578 23.7203H35.3688C35.4459 23.7203 35.5229 23.7973 35.5229 23.8743V24.7985C35.5229 24.8755 35.4459 24.9525 35.3688 24.9525H32.5578H29.7468C29.6698 24.9525 29.5928 24.8755 29.5928 24.7985V23.8743C29.5928 23.7973 29.6698 23.7203 29.7468 23.7203H32.5578ZM32.5001 18.7914C33.8671 18.7914 34.9645 19.8888 34.9645 21.2558C34.9645 22.6228 33.8671 23.7203 32.5001 23.7203C31.1331 23.7203 30.0356 22.6228 30.0356 21.2558C30.0356 19.8888 31.1523 18.7914 32.5001 18.7914ZM32.5001 19.7541C33.328 19.7541 34.0018 20.4279 34.0018 21.2558C34.0018 22.0837 33.328 22.7576 32.5001 22.7576C31.6722 22.7576 30.9983 22.0837 30.9983 21.2558C30.9983 20.4279 31.6722 19.7541 32.5001 19.7541Z" fill="#FFCC00"/>
<path fill-rule="evenodd" clip-rule="evenodd" d="M35.0994 32.2693L35.0609 32.2885L34.9454 32.2308C34.7913 32.1538 34.6181 32.1153 34.464 32.0382L34.002 31.8072L34.4448 31.5377C35.1572 31.1141 35.8503 30.4402 36.4279 29.8433C36.9863 29.3042 37.5446 28.7266 38.1415 28.226C38.8346 27.6484 39.47 27.3789 40.3749 27.3019C40.4711 27.3019 40.5482 27.2826 40.6444 27.2826C41.5108 27.2441 42.3772 27.5137 43.1859 27.7832C45.169 28.4378 47.0751 29.4198 49.0967 29.9396C49.9439 30.0744 51.0606 30.1707 51.8885 29.8626C52.1388 29.7856 52.4468 29.7471 52.6201 29.9781C52.8127 30.2477 52.6586 30.5942 52.4854 30.806C52.3698 30.9408 52.2351 31.0756 52.1003 31.1911L52.0233 31.3836C51.8115 31.9612 51.4072 32.3463 50.8681 32.4618C50.5985 33.1935 50.1749 33.4438 49.4625 33.4245C49.193 34.1561 48.6924 34.2139 48.057 34.1754L48.0378 34.2139C47.7682 34.7145 47.1521 34.7915 46.4975 34.6952C46.3627 34.9263 46.1702 35.0996 45.9199 35.1766C45.4386 35.3499 44.8802 35.1958 44.3604 35.0033C44.3219 35.0611 44.3026 35.1188 44.2256 35.1573C43.6287 35.5424 42.8201 35.3691 42.1077 35.0611C42.0692 35.1188 42.0499 35.1573 41.9729 35.1958C40.3171 36.12 38.8153 34.2139 37.4676 33.617C37.3521 33.5593 37.2173 33.5208 37.1788 33.4052C36.967 33.3667 36.7745 33.2512 36.4857 33.0779L35.0994 32.2693Z" fill="#2C2C2B"/>
<path fill-rule="evenodd" clip-rule="evenodd" d="M35.0414 31.9803C34.8874 31.9033 34.7141 31.8647 34.5601 31.7877C35.773 31.0561 37.1593 29.4003 38.3145 28.4569C38.9499 27.9178 39.5467 27.6675 40.3746 27.5905C40.4516 27.5905 40.5479 27.5712 40.6249 27.5712C41.4528 27.5327 42.3 27.8022 43.0701 28.0525C45.0532 28.6879 46.9979 29.7083 49.0195 30.2089C50.3672 30.4207 51.3107 30.363 51.9653 30.1127C52.7547 29.8431 52.4081 30.8058 51.5032 31.1909C50.9063 31.4412 50.271 31.3256 49.6548 31.2101C48.3649 30.9791 47.0749 30.5362 45.7464 29.9779C44.6104 29.4966 43.5515 28.8612 42.3577 28.4954C41.2218 28.1488 40.2591 28.0718 39.4505 28.4376C38.1797 29.0152 37.0438 30.9598 35.0414 31.9803Z" fill="#FFCC00"/>
<path fill-rule="evenodd" clip-rule="evenodd" d="M39.0078 28.938C40.7214 27.5517 43.3398 29.0535 45.0919 29.8621C45.2844 29.9584 45.323 29.9391 45.323 30.1509C45.3037 30.2665 45.1689 30.3435 44.9956 30.382C44.6298 30.459 44.3603 30.3242 44.0137 30.1894C42.4157 29.5926 40.8369 28.8417 39.0848 29.015C38.9115 29.015 38.8538 29.0535 39.0078 28.938Z" fill="#FFCC00"/>
<path fill-rule="evenodd" clip-rule="evenodd" d="M44.7451 30.5747C45.2265 30.5169 45.5153 30.3629 45.5345 30.0741C46.9208 30.7095 48.7884 31.3448 50.5212 31.5181C51.0218 31.5566 51.3298 31.4604 51.7342 31.3256C51.5031 31.9995 50.964 32.3075 50.2901 32.269C48.4803 32.1342 46.8438 31.6914 44.7451 30.5747Z" fill="#FFCC00"/>
<path fill-rule="evenodd" clip-rule="evenodd" d="M38.1604 29.6504C38.3722 29.4771 38.507 29.2653 38.7765 29.2268C40.4708 28.9188 42.5695 29.8237 44.052 30.4013C44.4563 30.5553 44.206 30.8634 43.898 30.9212C43.5322 30.9982 43.2626 30.9597 42.916 30.8249C41.318 30.228 40.0473 29.3231 38.2182 29.7274C38.0641 29.7659 37.9871 29.7852 38.1604 29.6504Z" fill="#FFCC00"/>
<path fill-rule="evenodd" clip-rule="evenodd" d="M43.5713 31.1141C44.0719 31.0948 44.4184 30.9408 44.4377 30.652C45.7277 31.2296 48.1729 32.5388 50.6181 32.3848C50.387 33.0587 50.0212 33.2127 49.3474 33.1742C48.6157 33.1164 47.9033 32.9239 47.1524 32.6736C46.0357 32.327 44.8228 31.7879 43.5713 31.1141Z" fill="#FFCC00"/>
<path fill-rule="evenodd" clip-rule="evenodd" d="M37.4673 30.3057C37.679 30.1324 37.8331 29.9591 38.0834 29.9013C39.7969 29.4778 41.2987 30.3442 42.7812 30.9603C43.1856 31.1336 42.9738 31.3839 42.6657 31.4416C42.2999 31.5186 42.0303 31.4801 41.6838 31.3453C40.0857 30.7485 39.3734 29.9783 37.5443 30.3827C37.3902 30.4019 37.3132 30.4404 37.4673 30.3057Z" fill="#FFCC00"/>
<path fill-rule="evenodd" clip-rule="evenodd" d="M42.3198 31.6338C42.8204 31.6146 43.167 31.4606 43.1862 31.1718C44.0719 31.5376 46.7867 33.0586 49.1934 33.3282C48.9623 34.002 48.481 33.9443 47.8071 33.9058C46.5171 33.8287 43.4558 32.25 42.3198 31.6338Z" fill="#FFCC00"/>
<path fill-rule="evenodd" clip-rule="evenodd" d="M36.8901 30.8829C37.1019 30.7096 37.0827 30.6519 37.3329 30.5748C39.162 30.055 40.1632 30.9022 41.6458 31.5183C42.0501 31.6915 41.9346 31.8648 41.6265 31.9226C41.2607 31.9996 41.0296 31.8456 40.6831 31.7301C39.1043 31.2295 38.8732 30.8059 36.9671 30.9407C36.7938 30.9599 36.7361 30.9984 36.8901 30.8829Z" fill="#FFCC00"/>
<path fill-rule="evenodd" clip-rule="evenodd" d="M41.2798 32.1344C41.7611 32.1151 42.0499 31.9803 42.0692 31.6915C42.7431 31.9803 44.5144 33.02 46.3435 33.6939C46.8055 33.8672 47.3061 34.0597 47.7682 34.0982C46.9981 35.5422 42.2617 32.4617 41.2798 32.1344Z" fill="#FFCC00"/>
<path fill-rule="evenodd" clip-rule="evenodd" d="M36.3897 31.2675C36.6014 31.0942 36.5629 31.0942 36.8132 31.0749C39.0466 30.9787 39.2584 31.46 40.5292 31.8836C40.9527 32.0184 40.7409 32.2494 40.4329 32.2687C39.2777 32.3649 37.9684 31.1519 36.5437 31.3445C36.3897 31.3637 36.2164 31.4022 36.3897 31.2675Z" fill="#FFCC00"/>
<path fill-rule="evenodd" clip-rule="evenodd" d="M40.2017 32.5002C40.683 32.4809 40.914 32.4039 40.914 32.1151C42.5506 32.7697 44.5915 34.233 46.2665 34.5218C46.1703 34.7144 46.0162 34.8491 45.8237 34.9261C45.2268 35.1572 44.3797 34.7144 43.8598 34.4641C42.3966 33.7902 40.7408 32.6735 40.2017 32.5002Z" fill="#FFCC00"/>
<path fill-rule="evenodd" clip-rule="evenodd" d="M39.0851 32.7894C39.451 32.7509 39.6627 32.6547 39.7783 32.4429C41.28 33.1745 42.5893 34.1757 44.1296 34.8303C44.1103 34.8688 44.0911 34.9073 44.0718 34.9266C42.7626 35.7545 39.9901 33.4248 39.0274 32.8664C38.8348 32.7702 38.9119 32.8087 39.0851 32.7894Z" fill="#FFCC00"/>
<path fill-rule="evenodd" clip-rule="evenodd" d="M37.5833 33.2698C37.9492 33.2313 38.2957 33.058 38.4498 32.8847C38.469 32.8462 38.4883 32.827 38.5075 32.7885C38.5845 32.827 38.6615 32.8655 38.7193 32.9232C39.913 33.6356 40.4136 34.271 41.8961 34.8678C41.8769 34.9063 41.8576 34.9449 41.8384 34.9641C40.3559 35.792 38.8348 33.9244 37.5833 33.3661C37.3908 33.289 37.3716 33.289 37.5833 33.2698Z" fill="#FFCC00"/>
<path fill-rule="evenodd" clip-rule="evenodd" d="M35.9657 31.6144C36.1774 31.4411 36.1389 31.4989 36.3892 31.4796C36.7936 31.4604 37.1979 31.4411 37.5637 31.5567C38.1413 31.7299 38.6804 32.0765 39.3158 32.2305C39.4698 32.269 39.5468 32.3075 39.5468 32.3461C39.5853 32.5001 39.0847 32.7311 38.6997 32.6541C37.8718 32.4808 37.4289 31.9417 36.1197 31.7107C35.9657 31.6722 35.8116 31.7492 35.9657 31.6144Z" fill="#FFCC00"/>
<path fill-rule="evenodd" clip-rule="evenodd" d="M36.6208 32.847L35.3115 32.0769L35.7544 31.7881C35.9469 31.7881 36.3705 31.8844 36.8326 32.0769C37.2754 32.2694 37.8145 32.4427 38.0648 32.6737C38.2958 32.8855 38.0648 32.9818 37.6605 33.0973C37.1599 33.2128 37.0636 33.0973 36.6208 32.847Z" fill="#FFCC00"/>
<path fill-rule="evenodd" clip-rule="evenodd" d="M29.8242 32.2693L29.8628 32.2885L29.9783 32.2308C30.1323 32.1538 30.3056 32.1153 30.4596 32.0382L30.9217 31.8072L30.4789 31.5377C29.7665 31.1141 29.0734 30.4402 28.4957 29.8433C27.9374 29.3042 27.379 28.7266 26.7822 28.226C26.0891 27.6484 25.4537 27.3789 24.5488 27.3019C24.4525 27.3019 24.3755 27.2826 24.2792 27.2826C23.4128 27.2441 22.5464 27.5137 21.7378 27.7832C19.7546 28.4378 17.8678 29.4198 15.8269 29.9396C14.9798 30.0744 13.863 30.1707 13.0351 29.8626C12.7848 29.7856 12.4768 29.7471 12.3035 29.9781C12.111 30.2477 12.265 30.5942 12.4383 30.806C12.5538 30.9408 12.6886 31.0756 12.8234 31.1911L12.9004 31.3836C13.1122 31.9612 13.5165 32.3463 14.0556 32.4618C14.3251 33.1935 14.7487 33.4438 15.4611 33.4245C15.7306 34.1561 16.2312 34.2139 16.8666 34.1754L16.8859 34.2139C17.1554 34.7145 17.7715 34.7915 18.4261 34.6952C18.5609 34.9263 18.7534 35.0996 19.0037 35.1766C19.4851 35.3499 20.0434 35.1958 20.5633 35.0033C20.6018 35.0611 20.621 35.1188 20.6981 35.1573C21.2949 35.5424 22.1036 35.3691 22.8159 35.0611C22.8545 35.1188 22.8737 35.1573 22.9507 35.1958C24.6065 36.12 26.1083 34.2139 27.4561 33.617C27.5716 33.5593 27.7064 33.5208 27.7449 33.4052C27.9566 33.3667 28.1492 33.2512 28.438 33.0779L29.8242 32.2693Z" fill="#2C2C2B"/>
<path fill-rule="evenodd" clip-rule="evenodd" d="M29.8815 31.9803C30.0356 31.9033 30.2088 31.8647 30.3629 31.7877C29.1499 31.0561 27.7636 29.4003 26.6084 28.4569C25.9731 27.9178 25.3762 27.6675 24.5483 27.5905C24.4713 27.5905 24.375 27.5712 24.298 27.5712C23.4701 27.5327 22.6229 27.8022 21.8528 28.0525C19.8697 28.6879 17.9251 29.7083 15.9034 30.2089C14.5557 30.4207 13.6123 30.363 12.9576 30.1127C12.1683 29.8431 12.5148 30.8058 13.4197 31.1909C14.0166 31.4412 14.652 31.3256 15.2681 31.2101C16.5581 30.9791 17.8481 30.5362 19.1765 29.9779C20.3125 29.4966 21.3715 28.8612 22.5652 28.4954C23.7011 28.1488 24.6638 28.0718 25.4725 28.4376C26.7432 29.0152 27.8792 30.9598 29.8815 31.9803Z" fill="#FFCC00"/>
<path fill-rule="evenodd" clip-rule="evenodd" d="M25.9153 28.938C24.2017 27.5517 21.5832 29.0535 19.8311 29.8621C19.6386 29.9584 19.6001 29.9391 19.6001 30.1509C19.6194 30.2665 19.7541 30.3435 19.9274 30.382C20.2932 30.459 20.5628 30.3242 20.9093 30.1894C22.5074 29.5926 24.0862 28.8417 25.8382 29.015C25.9923 29.015 26.0693 29.0535 25.9153 28.938Z" fill="#FFCC00"/>
<path fill-rule="evenodd" clip-rule="evenodd" d="M20.1585 30.5747C19.6771 30.5169 19.3883 30.3629 19.3691 30.0741C17.9828 30.7095 16.1152 31.3448 14.3824 31.5181C13.8818 31.5566 13.5738 31.4604 13.1694 31.3256C13.4005 31.9995 13.9396 32.3075 14.6134 32.269C16.4425 32.1342 18.0791 31.6914 20.1585 30.5747Z" fill="#FFCC00"/>
<path fill-rule="evenodd" clip-rule="evenodd" d="M26.7624 29.6504C26.5506 29.4771 26.4158 29.2653 26.1463 29.2268C24.452 28.9188 22.3534 29.8237 20.8708 30.4013C20.4665 30.5553 20.7168 30.8634 21.0249 30.9212C21.3907 30.9982 21.6602 30.9597 22.0068 30.8249C23.6048 30.228 24.8756 29.3231 26.7046 29.7274C26.8394 29.7659 26.9164 29.7852 26.7624 29.6504Z" fill="#FFCC00"/>
<path fill-rule="evenodd" clip-rule="evenodd" d="M21.3525 31.1141C20.8519 31.0948 20.5053 30.9408 20.4861 30.652C19.1961 31.2296 16.7509 32.5388 14.3057 32.3848C14.5367 33.0587 14.9025 33.2127 15.5764 33.1742C16.308 33.1164 17.0204 32.9239 17.7713 32.6736C18.888 32.327 20.101 31.7879 21.3525 31.1141Z" fill="#FFCC00"/>
<path fill-rule="evenodd" clip-rule="evenodd" d="M27.4557 30.3057C27.2439 30.1324 27.0899 29.9591 26.8396 29.9013C25.126 29.4778 23.6242 30.3442 22.1417 30.9603C21.7374 31.1336 21.9492 31.3839 22.2572 31.4416C22.6231 31.5186 22.8926 31.4801 23.2392 31.3453C24.8372 30.7485 25.5496 29.9783 27.3787 30.3827C27.5327 30.4019 27.6097 30.4404 27.4557 30.3057Z" fill="#FFCC00"/>
<path fill-rule="evenodd" clip-rule="evenodd" d="M22.584 31.6338C22.0834 31.6146 21.7368 31.4606 21.7176 31.1718C20.8319 31.5376 18.1171 33.0586 15.7104 33.3282C15.9415 34.002 16.4228 33.9443 17.0967 33.9058C18.406 33.8287 21.4673 32.25 22.584 31.6338Z" fill="#FFCC00"/>
<path fill-rule="evenodd" clip-rule="evenodd" d="M28.0336 30.8829C27.8218 30.7096 27.841 30.6519 27.5907 30.5748C25.7616 30.055 24.7605 30.9022 23.2779 31.5183C22.8736 31.6915 22.9891 31.8648 23.2972 31.9226C23.663 31.9996 23.8941 31.8456 24.2406 31.7301C25.8194 31.2295 26.0504 30.8059 27.9566 30.9407C28.1106 30.9599 28.1876 30.9984 28.0336 30.8829Z" fill="#FFCC00"/>
<path fill-rule="evenodd" clip-rule="evenodd" d="M23.6237 32.1344C23.1424 32.1151 22.8536 31.9803 22.8343 31.6915C22.1604 31.9803 20.3891 33.02 18.56 33.6939C18.0979 33.8672 17.5973 34.0597 17.1353 34.0982C17.9246 35.5422 22.661 32.4617 23.6237 32.1344Z" fill="#FFCC00"/>
<path fill-rule="evenodd" clip-rule="evenodd" d="M28.5336 31.2675C28.3218 31.0942 28.3603 31.0942 28.11 31.0749C25.8766 30.9787 25.6648 31.46 24.3941 31.8836C23.9705 32.0184 24.1823 32.2494 24.4903 32.2687C25.6456 32.3649 26.9548 31.1519 28.3796 31.3445C28.5143 31.3637 28.6876 31.4022 28.5336 31.2675Z" fill="#FFCC00"/>
<path fill-rule="evenodd" clip-rule="evenodd" d="M24.7216 32.5002C24.2403 32.4809 24.0092 32.4039 24.0092 32.1151C22.3727 32.7697 20.3318 34.233 18.6567 34.5218C18.753 34.7144 18.907 34.8491 19.0996 34.9261C19.6964 35.1572 20.5436 34.7144 21.0634 34.4641C22.5074 33.7902 24.1825 32.6735 24.7216 32.5002Z" fill="#FFCC00"/>
<path fill-rule="evenodd" clip-rule="evenodd" d="M25.8379 32.7894C25.4721 32.7509 25.2603 32.6547 25.1448 32.4429C23.643 33.1745 22.3337 34.1757 20.7935 34.8303C20.8127 34.8688 20.832 34.9073 20.8512 34.9266C22.1605 35.7545 24.933 33.4248 25.8956 32.8664C26.0882 32.7702 26.0112 32.8087 25.8379 32.7894Z" fill="#FFCC00"/>
<path fill-rule="evenodd" clip-rule="evenodd" d="M27.3401 33.2698C26.9743 33.2313 26.6278 33.058 26.4737 32.8847C26.4545 32.8462 26.4352 32.827 26.416 32.7885C26.3389 32.827 26.2619 32.8655 26.2042 32.9232C25.0105 33.6356 24.5099 34.271 23.0273 34.8678C23.0466 34.9063 23.0659 34.9449 23.0851 34.9641C24.5676 35.792 26.0887 33.9244 27.3401 33.3661C27.5134 33.289 27.5519 33.289 27.3401 33.2698Z" fill="#FFCC00"/>
<path fill-rule="evenodd" clip-rule="evenodd" d="M28.9573 31.6144C28.7455 31.4411 28.784 31.4989 28.5337 31.4796C28.1294 31.4604 27.7251 31.4411 27.3592 31.5567C26.7816 31.7299 26.2425 32.0765 25.6072 32.2305C25.4531 32.269 25.3761 32.3075 25.3761 32.3461C25.3376 32.5001 25.8382 32.7311 26.2233 32.6541C27.0512 32.4808 27.494 31.9417 28.8033 31.7107C28.9573 31.6722 29.1113 31.7492 28.9573 31.6144Z" fill="#FFCC00"/>
<path fill-rule="evenodd" clip-rule="evenodd" d="M28.3024 32.847L29.6116 32.0769L29.1688 31.7881C28.9763 31.7881 28.5527 31.8844 28.0906 32.0769C27.6478 32.2694 27.1087 32.4427 26.8584 32.6737C26.6273 32.8855 26.8584 32.9818 27.2627 33.0973C27.7633 33.2128 27.8596 33.0973 28.3024 32.847Z" fill="#FFCC00"/>
<path fill-rule="evenodd" clip-rule="evenodd" d="M39.7208 40.8369L19.5431 20.1586C19.1195 19.6965 18.8692 19.2152 18.8307 18.5991C18.8115 18.445 18.8115 18.3295 18.7922 18.1562L18.7729 17.8674L19.1388 17.8867C19.312 17.8867 19.4853 17.8867 19.6586 17.9059C20.217 17.9637 20.6598 18.214 21.0834 18.6183L41.7617 38.796C40.3754 40.3171 40.7027 39.3929 39.7208 40.8369Z" fill="#2C2C2B"/>
<path fill-rule="evenodd" clip-rule="evenodd" d="M44.2259 44.4367C44.5532 44.8218 44.9383 45.1683 45.4389 45.3031C45.6892 45.3801 45.8432 45.3801 46.0357 45.1683C46.0743 45.1298 46.1128 45.0913 46.1705 45.0336C46.3438 44.8603 46.4016 44.764 46.3823 44.4945C46.3438 43.8398 45.978 43.4163 45.4581 43.1082C45.4581 43.0119 45.4389 42.9157 45.3619 42.8387L45.1886 42.6654C45.0923 42.5691 44.9768 42.5499 44.8613 42.5691L41.9732 39.2767L41.4534 38.5836L41.0683 39.45L39.6436 40.3549L40.1634 40.7785L40.4907 41.1058L43.6098 43.8591C43.5905 43.9746 43.6098 44.0901 43.7061 44.1671L43.8793 44.3404C43.9564 44.4752 44.1104 44.4945 44.2259 44.4367Z" fill="#2C2C2B"/>
<path fill-rule="evenodd" clip-rule="evenodd" d="M41.1257 39.7583L40.9909 41.2023L40.6829 40.9135L40.3556 40.5862L40.1245 40.4129L41.1257 39.7583ZM44.6298 43.2817L44.6684 42.7811L44.8801 43.0314L44.6298 43.2817ZM44.4951 42.6079L44.4181 43.4935L44.0137 43.8978L43.956 43.8401L44.11 42.165L44.4951 42.6079ZM43.956 41.9725L43.8019 43.6861L43.4169 43.3395L43.5902 41.5297L43.956 41.9725ZM43.4169 41.3564L43.2436 43.2047L42.8585 42.8582L43.0511 40.9328L43.4169 41.3564ZM42.8585 40.721L42.666 42.6849L42.2809 42.3383L42.4734 40.2782L42.8585 40.721ZM42.3194 40.1049L42.1269 42.2035L41.7418 41.857L41.9536 39.6621L42.3194 40.1049ZM41.7611 39.4695L41.5493 41.6837L41.1642 41.3371L41.3375 39.5465L41.53 39.1422L41.7611 39.4695Z" fill="#FFCC00"/>
<path fill-rule="evenodd" clip-rule="evenodd" d="M44.2837 44.0518L44.842 43.4549L44.8613 43.4742C45.0153 43.5897 45.2079 43.7437 45.3619 43.9363C45.5352 44.1288 45.67 44.3598 45.7085 44.6486C45.7085 44.6871 45.7662 44.7257 45.8047 44.7257C45.8432 44.7257 45.8817 44.6679 45.8817 44.6294C45.8432 44.3213 45.6892 44.0518 45.4967 43.84C45.3234 43.6282 45.1116 43.4549 44.9576 43.3394L45.0731 43.2239C45.67 43.5127 46.0935 43.8978 46.132 44.5331C46.132 44.7064 46.1128 44.7257 45.9973 44.8604C45.9588 44.8989 45.9203 44.9374 45.8625 44.9952C45.747 45.1107 45.7085 45.0915 45.5352 45.053C45.0923 44.9182 44.6688 44.6101 44.2837 44.0518Z" fill="#FFCC00"/>
<path fill-rule="evenodd" clip-rule="evenodd" d="M45.1495 42.6464C45.0147 42.5116 44.7837 42.5309 44.6489 42.6849L43.6862 43.7631C43.5514 43.8979 43.5707 44.1289 43.7055 44.2637L43.8787 44.4177C44.0135 44.5525 44.2446 44.5332 44.3793 44.3792L45.342 43.301C45.4768 43.1662 45.4575 42.9352 45.3228 42.8004L45.1495 42.6464Z" fill="#2C2C2B"/>
<path fill-rule="evenodd" clip-rule="evenodd" d="M44.9762 42.8581L45.1495 43.0121C45.1688 43.0314 45.1688 43.0699 45.1495 43.1084L44.1868 44.1866C44.1676 44.2251 44.1098 44.2251 44.0906 44.2059L43.9173 44.0518C43.898 44.0326 43.898 43.9941 43.9173 43.9556L44.88 42.8774C44.8992 42.8389 44.9377 42.8389 44.9762 42.8581Z" fill="#FFCC00"/>
<path fill-rule="evenodd" clip-rule="evenodd" d="M40.7028 40.182L33.6753 33.0004L19.1003 18.4062C19.0811 19.0416 19.2929 19.5037 19.7357 19.985L39.8172 40.5671L40.7028 40.182ZM41.0879 39.7969L33.9063 32.7694L19.3314 18.1944C19.9667 18.1752 20.4288 18.387 20.9102 18.8298L41.4922 38.9113L41.0879 39.7969Z" fill="#D9DBDC"/>
<path fill-rule="evenodd" clip-rule="evenodd" d="M42.8783 37.217C43.2248 37.2362 43.6099 37.0244 43.8217 36.8126C44.1105 36.5238 44.4378 35.8692 44.072 35.5034C43.7254 35.1568 43.0323 35.4264 42.7242 35.7345C42.4932 35.9655 42.3007 36.3698 42.3392 36.7164L39.5667 38.6802L37.6028 41.4528C37.2562 41.4142 36.8519 41.6068 36.6209 41.8378C36.3321 42.1266 36.0433 42.8198 36.3898 43.1856C36.7364 43.5321 37.4103 43.2241 37.6991 42.9353C37.9109 42.7235 38.1226 42.3384 38.1034 41.9919L41.0492 40.182L42.8783 37.217Z" fill="#2C2C2B"/>
<path fill-rule="evenodd" clip-rule="evenodd" d="M40.8753 39.9506L37.814 41.8375C37.9295 42.0108 37.8332 42.4151 37.5252 42.7231C37.1979 43.0504 36.755 43.1275 36.6202 42.9734C36.4855 42.8387 36.524 42.3573 36.8513 42.03C37.1401 41.7412 37.5637 41.6642 37.7562 41.7797L39.7971 38.8917L42.7044 36.8508C42.6081 36.6775 42.6659 36.2539 42.9547 35.9459C43.282 35.6186 43.7633 35.5801 43.8981 35.7148C44.0329 35.8496 43.9559 36.2925 43.6478 36.6198C43.3397 36.9278 42.9354 37.0048 42.7621 36.9086L40.8753 39.9506Z" fill="#FFCC00"/>
<path fill-rule="evenodd" clip-rule="evenodd" d="M38.2961 41.1833C38.2576 41.2218 38.2576 41.2796 38.2768 41.3181C38.3153 41.3566 38.3731 41.3373 38.4116 41.2988L40.3562 39.5082L40.5872 39.8548C40.6257 39.8933 40.7605 39.8741 40.799 39.8548C40.8375 39.8163 40.8375 39.7008 40.799 39.6623L40.4525 39.4312L42.2045 37.4866C42.243 37.4481 42.2815 37.4096 42.243 37.3711C42.2045 37.3326 42.166 37.3903 42.1275 37.4289L40.2599 39.2194L40.0289 38.9114C39.9904 38.8729 39.8749 38.9114 39.8556 38.9499C39.8171 38.9884 39.7978 39.0654 39.8363 39.1039L40.1637 39.3157L38.2961 41.1833Z" fill="#2C2C2B"/>
<path fill-rule="evenodd" clip-rule="evenodd" d="M20.7554 44.3992C20.4281 44.7843 20.0237 45.1116 19.5231 45.2464C19.2536 45.3042 19.1188 45.3234 18.9263 45.1116C18.8878 45.0731 18.8493 45.0346 18.7915 44.9768C18.6182 44.7843 18.5605 44.7073 18.5797 44.4377C18.6182 43.7831 19.0033 43.3595 19.5231 43.0707C19.5231 42.9745 19.5424 42.8782 19.6194 42.8012L19.7927 42.6279C19.889 42.5316 20.0237 42.5124 20.1392 42.5509L23.085 39.297L23.6241 38.6232L24.0092 39.4896L25.4147 40.433L24.8756 40.8373L24.5483 41.1646L21.3907 43.8601C21.41 43.9757 21.3715 44.0912 21.2945 44.1682L21.1212 44.3415C21.0442 44.4377 20.8901 44.457 20.7554 44.3992Z" fill="#2C2C2B"/>
<path fill-rule="evenodd" clip-rule="evenodd" d="M23.9518 39.7783L24.0674 41.2224L24.3947 40.9528L24.722 40.6255L24.953 40.4522L23.9518 39.7783ZM20.3899 43.244L20.3514 42.7434L20.1396 42.9744L20.3899 43.244ZM20.5247 42.5509L20.6017 43.4365L21.0061 43.8408L21.0638 43.7831L20.929 42.108L20.5247 42.5509ZM21.0831 41.9347L21.2178 43.6483L21.6222 43.3017L21.4874 41.4919L21.0831 41.9347ZM21.6414 41.3379L21.7762 43.1862L22.1805 42.8397L22.0265 40.9143L21.6414 41.3379ZM22.1998 40.7218L22.3538 42.6856L22.7581 42.3391L22.6041 40.2789L22.1998 40.7218ZM22.7581 40.1057L22.9122 42.2043L23.3165 41.8577L23.1432 39.6628L22.7581 40.1057ZM23.3165 39.4895L23.4898 41.723L23.8941 41.3764L23.7593 39.5858L23.586 39.1622L23.3165 39.4895Z" fill="#FFCC00"/>
<path fill-rule="evenodd" clip-rule="evenodd" d="M20.7172 44.0141L20.1588 43.4172L20.1396 43.4365C19.9855 43.552 19.793 43.706 19.6197 43.8986C19.4464 44.0911 19.3117 44.3222 19.2732 44.611C19.2732 44.6495 19.2154 44.688 19.1769 44.688C19.1384 44.688 19.0999 44.6302 19.0999 44.5917C19.1384 44.2836 19.3117 44.0141 19.485 43.8023C19.6582 43.5905 19.87 43.4365 20.024 43.321L19.9278 43.2054C19.3309 43.475 18.9073 43.8601 18.8496 44.4954C18.8303 44.6687 18.8496 44.688 18.9844 44.8228C19.0229 44.8613 19.0614 44.8998 19.1191 44.9575C19.2347 45.073 19.2732 45.073 19.4464 45.0153C19.8893 44.8613 20.3129 44.5532 20.7172 44.0141Z" fill="#FFCC00"/>
<path fill-rule="evenodd" clip-rule="evenodd" d="M25.203 40.8373L45.3807 20.159C45.8043 19.6969 46.0546 19.2155 46.0931 18.5994C46.1123 18.4454 46.1123 18.3299 46.1316 18.1566L46.1509 17.8678L45.785 17.8871C45.6118 17.8871 45.4385 17.8871 45.2652 17.9063C44.7068 17.9641 44.264 18.2144 43.8404 18.6187L23.1621 38.7964C24.5484 40.3174 24.2018 39.3933 25.203 40.8373Z" fill="#2C2C2B"/>
<path fill-rule="evenodd" clip-rule="evenodd" d="M19.8703 42.5895C20.0243 42.4547 20.2361 42.4932 20.3709 42.628L21.3143 43.7254C21.4491 43.8795 21.4298 44.0913 21.2758 44.226L21.1025 44.3801C20.9485 44.5148 20.7367 44.4763 20.6019 44.3416L19.6585 43.2441C19.543 43.0901 19.543 42.8783 19.697 42.7435L19.8703 42.5895Z" fill="#2C2C2B"/>
<path fill-rule="evenodd" clip-rule="evenodd" d="M20.0437 42.801L19.8704 42.955C19.8511 42.9743 19.8511 43.0128 19.8704 43.0513L20.8138 44.1487C20.8331 44.1872 20.8908 44.1872 20.9101 44.168L21.0834 44.014C21.1026 43.9947 21.1026 43.9562 21.0834 43.9177L20.1399 42.8202C20.1207 42.7817 20.0822 42.7817 20.0437 42.801Z" fill="#FFCC00"/>
<path fill-rule="evenodd" clip-rule="evenodd" d="M24.2021 40.1829L31.2296 33.0013L45.8238 18.4071C45.843 19.0425 45.6313 19.5045 45.1884 19.9859L25.0877 40.5487L24.2021 40.1829ZM23.8362 39.7978L31.0178 32.7702L45.5928 18.1953C44.9574 18.176 44.4953 18.3878 44.014 18.8307L23.4512 38.9121L23.8362 39.7978Z" fill="#D9DBDC"/>
<path fill-rule="evenodd" clip-rule="evenodd" d="M26.7822 42.031C26.763 42.3776 26.9748 42.7626 27.1865 42.9744C27.4754 43.2632 28.13 43.5906 28.4958 43.244C28.8616 42.8974 28.5921 42.2043 28.284 41.8962C28.053 41.6652 27.6486 41.4727 27.3021 41.4919L25.3767 38.6809L22.6235 36.6785C22.662 36.332 22.4887 35.9276 22.2576 35.6966C21.9688 35.3885 21.2757 35.0997 20.9291 35.4463C20.5633 35.7929 20.8714 36.4667 21.1602 36.7555C21.372 36.9673 21.757 37.1984 22.1036 37.1791L23.8557 40.1442L26.7822 42.031Z" fill="#2C2C2B"/>
<path fill-rule="evenodd" clip-rule="evenodd" d="M24.0867 39.9708L22.2576 36.871C22.0843 36.9672 21.68 36.8902 21.3912 36.5822C21.0831 36.2549 21.0061 35.812 21.1409 35.6773C21.2949 35.5425 21.757 35.581 22.0843 35.9083C22.3731 36.2164 22.4309 36.6399 22.3346 36.8132L25.2034 38.9119L27.2057 41.8384C27.379 41.7421 27.8026 41.7999 28.1107 42.1079C28.4187 42.4353 28.4572 42.9166 28.3224 43.0514C28.1684 43.1861 27.7256 43.1091 27.4175 42.7818C27.1287 42.4738 27.0325 42.0694 27.148 41.8962L24.0867 39.9708Z" fill="#FFCC00"/>
<path fill-rule="evenodd" clip-rule="evenodd" d="M22.8926 37.3713C22.8541 37.3328 22.7963 37.3135 22.7578 37.352C22.7193 37.3906 22.7386 37.4483 22.7771 37.4868L24.5291 39.4507L24.1826 39.6817C24.1441 39.7202 24.1633 39.855 24.1826 39.8935C24.2211 39.932 24.3366 39.932 24.3751 39.8935L24.6061 39.5469L26.5315 41.3183C26.57 41.3568 26.6085 41.3953 26.647 41.3568C26.6855 41.3183 26.647 41.2798 26.5893 41.2413L24.8179 39.3544L25.126 39.1426C25.1645 39.1041 25.126 38.9886 25.1067 38.9693C25.0682 38.9308 24.9912 38.9116 24.9527 38.9501L24.7409 39.2774L22.8926 37.3713Z" fill="#2C2C2B"/>
<path fill-rule="evenodd" clip-rule="evenodd" d="M55.1227 22.5077L61.0336 20.6979L61.6689 22.7387L59.6088 23.3741L62.0348 23.9902L62.6124 25.8578L56.3935 27.7639L55.7581 25.723L57.7797 25.1069L55.373 24.4716L54.8147 22.6617L54.7569 22.7002L53.7172 20.8326L55.5656 19.8122L53.0819 19.6967L52.1384 17.9831L57.8375 14.8255L58.8772 16.6931L57.0096 17.7328L59.5126 17.8291L60.456 19.5427L55.1227 22.5077ZM50.3094 12.13C50.4056 12.0145 50.5211 11.899 50.6367 11.7835C51.2913 11.1481 52.0807 10.686 53.0049 10.6668C53.8713 10.6475 54.6222 11.0133 55.219 11.6294C55.7389 12.1685 56.0662 12.8232 56.0662 13.5741C56.0662 14.0554 55.8929 14.5367 55.6618 14.9603L55.373 15.4609L53.4669 14.2479L53.775 13.7666C53.852 13.6511 53.8905 13.5163 53.8905 13.3815C53.8713 13.2467 53.8135 13.1312 53.7172 13.0157C53.5632 12.8617 53.3899 12.7654 53.1589 12.7847C52.8508 12.8039 52.4658 13.1312 52.254 13.3238C52.0422 13.5355 51.6571 13.9399 51.6379 14.2479C51.6186 14.4597 51.6764 14.633 51.8304 14.787C51.9267 14.8833 52.0422 14.9603 52.1962 14.9603C52.3887 14.9796 52.639 14.864 52.7931 14.7678L53.3129 14.4597L54.3141 16.4813L53.8328 16.7316C53.2551 17.0397 52.6198 17.2322 51.9652 17.1167C51.3298 17.0204 50.7907 16.6739 50.3479 16.2118C49.7703 15.6149 49.4622 14.864 49.5007 14.0169C49.5392 13.3623 49.7703 12.8039 50.1553 12.3033L49.9435 12.4766C49.4429 12.9002 48.8461 13.189 48.1915 13.2082C47.5561 13.2275 46.94 12.9964 46.4201 12.6306C45.727 12.1493 45.2842 11.4754 45.1687 10.6475C45.0339 9.76185 45.3419 8.91469 45.8425 8.20231C46.3624 7.47068 47.0555 6.85456 47.9604 6.66203C48.8076 6.48875 49.6162 6.70054 50.3286 7.18187C50.9447 7.60545 51.3876 8.18306 51.5416 8.93395C51.6379 9.41529 51.5608 9.89663 51.4068 10.3587L51.2143 10.9171L49.1156 10.0892L49.3274 9.56931C49.3852 9.43454 49.4044 9.29976 49.3659 9.16499C49.3274 9.03021 49.2312 8.93395 49.1156 8.83768C48.9231 8.7029 48.7498 8.6644 48.538 8.72216C48.23 8.79917 47.9219 9.18424 47.7486 9.43454C47.5754 9.68484 47.2865 10.1469 47.3058 10.455C47.3251 10.6668 47.4213 10.8208 47.5946 10.9556C47.7101 11.0326 47.8256 11.0711 47.9797 11.0518C48.1722 11.0326 48.384 10.8593 48.538 10.7438L48.9809 10.3395L50.3094 12.13ZM15.884 14.1902C15.7877 14.787 15.4797 15.3069 15.0561 15.7304C14.4785 16.3466 13.7469 16.6739 12.8997 16.6546C11.9948 16.6354 11.2247 16.2118 10.5893 15.5957C9.93467 14.9603 9.45333 14.1902 9.39557 13.266C9.35706 12.3996 9.68437 11.6294 10.2812 11.0133C10.8011 10.4742 11.4364 10.1277 12.1873 10.0892C12.6687 10.0699 13.15 10.2239 13.5736 10.455L14.0934 10.7245L12.9382 12.6691L12.4569 12.3803C12.3414 12.3033 12.2066 12.2648 12.0718 12.2841C11.937 12.3033 11.8215 12.3803 11.7252 12.4766C11.5712 12.6306 11.4942 12.8039 11.5135 13.035C11.5327 13.343 11.8793 13.7088 12.0911 13.9206C12.3029 14.1324 12.7264 14.4982 13.0345 14.5175C13.2463 14.5367 13.4196 14.4597 13.5736 14.3057C13.6699 14.2094 13.7276 14.0939 13.7276 13.9399C13.7276 13.7473 13.6121 13.497 13.4966 13.343L13.1693 12.8424L15.1524 11.7642L15.3642 12.13L14.2667 7.66321L15.8263 6.56576L20.1583 9.39603L20.1005 4.19757L21.8719 3.48519L26.7623 8.56813L24.5289 9.47305L23.6432 8.51037L22.3725 9.03022L22.411 10.3395L21.1787 10.84L19.7732 11.822L18.6758 11.0903L17.5591 11.8797L17.9056 13.1312L15.961 14.4982L15.884 14.1902ZM8.41364 21.7568C8.02856 21.6605 7.64349 21.5065 7.29693 21.2947C6.81559 21.0252 6.37276 20.6786 6.04545 20.2358C5.83366 19.947 5.67963 19.6004 5.56411 19.2538C5.46784 18.9073 5.42933 18.5415 5.46784 18.1949C5.5256 17.7328 5.69888 17.2707 5.92993 16.8664C6.37276 16.0963 7.00813 15.5379 7.87454 15.3261C8.7602 15.0951 9.64586 15.3454 10.4353 15.7882C11.2247 16.231 11.86 16.8664 12.1103 17.7521C12.3606 18.5992 12.1873 19.4464 11.7445 20.1973C11.3017 20.9674 10.6663 21.5258 9.79989 21.7568C9.5881 21.8146 9.39557 21.8338 9.18378 21.8338L11.4749 22.6617L10.7818 24.5678L9.68437 24.1635L8.91423 26.3006L10.0117 26.705L9.31855 28.6111L6.315 27.5329L6.52679 26.9168C6.23798 26.6665 5.91067 26.4739 5.56411 26.3006C4.89024 25.9733 4.19711 25.6845 3.48473 25.4342L2.42578 25.0492L4.08159 20.4861L8.29811 22.0264L8.41364 21.7568ZM29.8813 7.64396L29.9776 8.31783L27.802 8.62589L27.7057 7.95202C27.0703 7.95202 26.435 7.8365 25.9344 7.41292C25.3953 6.97009 25.1065 6.35397 25.0102 5.6801C24.9139 4.96772 25.0294 4.29384 25.453 3.71624C25.8188 3.21564 26.3772 2.92684 26.9741 2.75356L26.897 2.17595L29.0727 1.8679L29.1497 2.4455C29.7658 2.4455 30.4204 2.56102 30.9018 2.96535C31.4409 3.40818 31.7297 4.02429 31.8452 4.71742C31.9415 5.41055 31.826 6.06517 31.4409 6.64278C31.0751 7.18187 30.4975 7.47068 29.8813 7.64396ZM36.5623 6.48875L36.235 8.49112L34.0594 8.14455L35.0798 1.71387L37.3517 2.07968C37.7945 2.1567 38.3529 2.23371 38.7572 2.40699C39.1808 2.58028 39.4889 2.88833 39.7006 3.29266C39.9509 3.73549 39.9895 4.23608 39.9124 4.73667C39.8547 5.12175 39.7199 5.48756 39.4889 5.77637C39.2963 6.04592 39.046 6.2577 38.7572 6.39248C38.5069 6.508 38.2181 6.60427 37.9486 6.60427C37.5443 6.62352 37.1207 6.56576 36.7164 6.48875H36.5623ZM39.7006 5.85338C39.8932 5.33353 40.1435 4.83294 40.5286 4.44787C40.7789 4.17832 41.0869 3.96653 41.4142 3.8125C41.7415 3.65848 42.0881 3.56221 42.4539 3.54295C42.9352 3.5237 43.3973 3.61997 43.8402 3.774C44.6681 4.08205 45.3419 4.6019 45.7078 5.41055C46.0928 6.2577 45.9966 7.16262 45.6885 8.00978C45.3804 8.85693 44.8606 9.58857 44.0327 9.99289C43.224 10.378 42.3769 10.3587 41.5682 10.0507C40.7403 9.7426 40.0665 9.22275 39.7006 8.4141C39.3156 7.5862 39.3926 6.68128 39.7006 5.85338ZM5.08277 23.7207C5.83366 24.0095 6.62305 24.356 7.31618 24.7989L7.56648 24.1057L5.25605 23.2586L5.08277 23.7207ZM8.39438 19.3501C8.68318 19.5234 9.06826 19.6774 9.41482 19.6197C9.68437 19.5619 9.85765 19.4271 9.99243 19.1961C10.1272 18.965 10.1657 18.7533 10.0694 18.503C9.95392 18.1756 9.60736 17.9061 9.31855 17.7521C9.049 17.598 8.64468 17.4055 8.31737 17.4825C8.04782 17.5403 7.89379 17.6943 7.75901 17.9254C7.62424 18.1564 7.58573 18.3874 7.66275 18.6377C7.73976 18.9265 8.10558 19.1768 8.39438 19.3501ZM29.5925 5.54532C29.631 5.50682 29.6696 5.46831 29.6888 5.4298C29.7273 5.31428 29.7081 5.10249 29.6888 4.98697C29.6503 4.75593 29.5925 4.6019 29.4385 4.52489L29.5925 5.54532ZM27.4361 5.85338L27.2821 4.81369C27.2629 4.83294 27.2629 4.83294 27.2629 4.8522C27.1666 4.98697 27.1666 5.23727 27.2051 5.39129C27.2244 5.64159 27.2821 5.77637 27.4361 5.85338ZM36.9474 4.08205L36.8896 4.48638H36.9281C37.0629 4.50563 37.4672 4.56339 37.5828 4.54414C37.6213 4.54414 37.6405 4.52489 37.679 4.50563C37.6983 4.48638 37.7175 4.44787 37.7175 4.40936C37.7175 4.37086 37.7175 4.33235 37.6983 4.29384C37.679 4.25534 37.6405 4.23608 37.5828 4.21683C37.3902 4.13981 37.1399 4.10131 36.9474 4.08205ZM41.7415 7.62471C41.8378 7.875 42.0111 8.02903 42.2614 8.1253C42.5117 8.22157 42.7235 8.20231 42.9738 8.08679C43.2818 7.91351 43.4743 7.52844 43.5899 7.20113C43.7054 6.89307 43.8017 6.46949 43.6861 6.16144C43.5899 5.91114 43.3973 5.77637 43.1663 5.6801C42.916 5.58383 42.685 5.58383 42.4539 5.71861C42.1459 5.87263 41.9726 6.27696 41.857 6.58501C41.703 6.89307 41.6068 7.2974 41.7415 7.62471Z" fill="white"/>
<path fill-rule="evenodd" clip-rule="evenodd" d="M20.4863 9.93488L20.4093 4.40911L21.834 3.83151L26.2816 8.45236L24.6258 9.12623L23.7401 8.16356L22.1036 8.81818L22.1421 10.1274L21.0639 10.5702L19.7932 11.4559L18.6765 10.7243L17.2324 11.7447L17.579 12.9962L16.135 13.9974L14.614 7.79774L15.8654 6.91208L20.4863 9.93488ZM8.49132 22.3919L8.64535 21.9491L11.1291 22.854L10.6285 24.2403L9.53101 23.8359L8.56834 26.4929L9.66579 26.8973L9.1652 28.2835L6.68149 27.3786L6.87402 26.8588C6.52746 26.5314 6.14239 26.2811 5.71881 26.0694C5.04494 25.7228 4.3133 25.4532 3.62017 25.1837L2.81152 24.8949L4.27479 20.8709L8.49132 22.3919ZM7.43238 21.0634C6.98954 20.8131 6.56597 20.4858 6.27716 20.0815C6.08463 19.812 5.9306 19.5039 5.85359 19.1958C5.75732 18.8878 5.73806 18.5605 5.77657 18.2332C5.83433 17.7903 5.98836 17.386 6.20015 17.0202C6.60447 16.3271 7.18208 15.8072 7.97148 15.6147C8.79938 15.4029 9.60803 15.6339 10.3204 16.0575C11.0328 16.4618 11.6297 17.0394 11.8607 17.8673C12.0917 18.6375 11.9185 19.4076 11.5334 20.1008C11.1291 20.7939 10.5515 21.333 9.76206 21.5255C8.93415 21.6795 8.14476 21.4678 7.43238 21.0634ZM13.5935 12.9577L15.076 12.149L15.2108 12.3801C15.4996 12.8807 15.6922 13.4583 15.6344 14.0551C15.5574 14.6327 15.2686 15.1333 14.8642 15.5377C14.3251 16.096 13.6705 16.3848 12.9004 16.3848C12.0725 16.3656 11.3601 15.9805 10.7825 15.4029C10.1856 14.8253 9.72355 14.1129 9.68504 13.2657C9.64653 12.4764 9.95459 11.7832 10.4937 11.2249C10.9558 10.7435 11.5334 10.4162 12.2265 10.397C12.6693 10.3777 13.0929 10.5125 13.478 10.7243L13.7283 10.8591L12.8619 12.3223L12.6116 12.1683C12.4383 12.0528 12.2458 12.0143 12.034 12.0335C11.8222 12.0528 11.6489 12.1683 11.5141 12.3031C11.3023 12.5149 11.2061 12.7652 11.2253 13.0732C11.2638 13.4583 11.6104 13.8626 11.8799 14.1322C12.1495 14.4017 12.6116 14.7675 12.9967 14.806C13.3047 14.8253 13.5358 14.729 13.7475 14.498C13.9016 14.3439 13.9786 14.1707 13.9978 13.9589C14.0171 13.6893 13.8631 13.4198 13.7283 13.208L13.5935 12.9577ZM29.574 7.43192L29.6702 8.06729L28.0529 8.29833L27.9567 7.66296C27.3213 7.70147 26.6282 7.62446 26.1276 7.20088C25.6462 6.79655 25.3767 6.25745 25.2997 5.64134C25.2034 5.00597 25.2997 4.38986 25.6847 3.87001C26.0698 3.36942 26.6859 3.09987 27.2828 2.9651L27.2058 2.426L28.8231 2.19496L28.9001 2.73405C29.5355 2.69555 30.2286 2.77256 30.7292 3.19614C31.2105 3.60046 31.4801 4.13956 31.5571 4.77493C31.6533 5.39104 31.5378 5.9879 31.1913 6.50775C30.8447 7.0276 30.1901 7.29715 29.574 7.43192ZM36.332 6.16119L36.0047 8.18281L34.3681 7.93251L35.2923 2.06018L37.2946 2.36824C37.6797 2.426 38.2766 2.52227 38.6231 2.67629C38.989 2.83032 39.2585 3.09987 39.451 3.44644C39.6628 3.83151 39.7013 4.27434 39.6243 4.71717C39.5666 5.04448 39.4703 5.37179 39.2585 5.64134C39.0852 5.87238 38.8734 6.04566 38.6231 6.18044C38.4113 6.29596 38.161 6.35372 37.9108 6.37298C37.5257 6.39223 37.1021 6.33447 36.7363 6.27671L36.332 6.16119ZM39.9516 5.9494C40.1249 5.46806 40.356 5.00597 40.7218 4.64016C40.9528 4.40911 41.2224 4.19732 41.5304 4.06255C41.8192 3.92778 42.1273 3.83151 42.4546 3.81225C42.8974 3.793 43.321 3.87001 43.7253 4.02404C44.4762 4.29359 45.0923 4.77493 45.4196 5.52582C45.7662 6.29596 45.6892 7.12386 45.4004 7.91326C45.1116 8.6834 44.6495 9.37653 43.8986 9.74235C43.167 10.0889 42.3968 10.0697 41.6459 9.80011C40.8951 9.53056 40.2789 9.04922 39.9324 8.29833C39.6051 7.52819 39.6821 6.71954 39.9516 5.9494ZM48.943 10.8013L49.9635 12.1298L49.7517 12.3031C49.2896 12.6689 48.7698 12.9577 48.1729 12.9769C47.5953 12.9962 47.0562 12.7844 46.5749 12.4571C45.9395 12.0143 45.5544 11.4174 45.4389 10.6473C45.3234 9.83861 45.6122 9.06847 46.0743 8.41385C46.5556 7.73998 47.1717 7.16237 48.0189 6.98909C48.789 6.81581 49.5206 7.0276 50.156 7.47043C50.7144 7.8555 51.1187 8.37534 51.2535 9.04922C51.3497 9.4728 51.2727 9.91563 51.1187 10.32L51.0224 10.5895L49.4629 9.97339L49.5784 9.70384C49.6554 9.5113 49.6747 9.31877 49.6169 9.12623C49.5592 8.9337 49.4244 8.77967 49.2703 8.66415C49.0201 8.49087 48.7505 8.43311 48.4617 8.51012C48.0766 8.60639 47.7301 9.01071 47.5183 9.31877C47.3065 9.62683 46.9984 10.1274 47.0369 10.5317C47.0562 10.8398 47.2102 11.0516 47.4605 11.2249C47.6338 11.3404 47.8263 11.3982 48.0381 11.3789C48.3077 11.3404 48.558 11.1671 48.7505 10.9938L48.943 10.8013ZM53.0055 10.9553C53.7949 10.9361 54.4688 11.2634 55.0079 11.841C55.47 12.3223 55.7781 12.9192 55.7781 13.5931C55.7781 14.0359 55.624 14.4595 55.4122 14.8253L55.2582 15.0756L53.8334 14.1707L53.9875 13.9396C54.103 13.7663 54.1608 13.5738 54.1415 13.3813C54.1222 13.1695 54.026 12.9962 53.8719 12.8614C53.6602 12.6496 53.4099 12.5341 53.1018 12.5534C52.6975 12.5726 52.2932 12.9192 52.0236 13.1695C51.7541 13.439 51.3497 13.8626 51.3112 14.2669C51.2727 14.575 51.369 14.806 51.5808 15.0371C51.7348 15.1911 51.9081 15.2874 52.1199 15.3066C52.3894 15.3259 52.6782 15.1911 52.89 15.0756L53.1596 14.9216L53.9105 16.4233L53.6794 16.5581C53.1596 16.8469 52.582 17.0202 52.0044 16.9239C51.4268 16.8277 50.9454 16.5196 50.5411 16.1153C50.002 15.5569 49.7324 14.9023 49.7709 14.1322C49.8094 13.3043 50.233 12.6111 50.8106 12.0528C51.4267 11.4174 52.1584 10.9746 53.0055 10.9553ZM56.0091 17.9636L59.3592 18.0984L60.0909 19.4269L54.8924 22.3149L54.1222 20.9287L56.5867 19.5617L53.2751 19.4076L52.5435 18.0791L57.7419 15.1911L58.5121 16.5774L56.0091 17.9636ZM58.5698 23.3931L61.8237 24.221L62.2665 25.6843L56.5674 27.4171L56.1054 25.9153L58.8009 25.0874L55.6048 24.2403L55.1619 22.777L60.861 21.0442L61.3231 22.5652L58.5698 23.3931ZM4.73688 23.8745C5.62254 24.2018 6.68149 24.6638 7.45163 25.2222L7.91372 23.9322L5.08344 22.8925L4.73688 23.8745ZM8.24103 19.5809C8.58759 19.7927 9.03042 19.966 9.454 19.8697C9.80056 19.7927 10.0316 19.6194 10.2049 19.3114C10.3782 19.0033 10.4167 18.7145 10.3012 18.3872C10.1664 17.9829 9.78131 17.6748 9.41549 17.4823C9.06893 17.2897 8.6261 17.0972 8.22177 17.1742C7.87521 17.2512 7.64417 17.4438 7.47088 17.7518C7.2976 18.0599 7.23984 18.3679 7.35536 18.6952C7.50939 19.0803 7.89446 19.3884 8.24103 19.5809ZM17.3865 9.85787L16.5971 9.29951L16.8474 10.2237L17.3865 9.85787ZM22.6427 7.0276L21.9881 6.31521L22.0266 7.27789L22.6427 7.0276ZM29.3814 5.96865C29.497 5.93014 29.5932 5.89164 29.7087 5.83388C29.8243 5.75686 29.9205 5.66059 29.9783 5.52582C30.036 5.35254 30.0168 5.10224 29.9975 4.94821C29.9205 4.38986 29.6125 4.17807 29.1504 4.17807L29.3814 5.96865ZM27.7641 6.19969L27.5138 4.40911C27.3213 4.46687 27.148 4.54389 27.0325 4.67866C26.8785 4.89045 26.8785 5.17926 26.917 5.42955C26.994 6.00716 27.2828 6.19969 27.7641 6.19969ZM36.717 3.75449L36.563 4.71717L36.8711 4.77493C37.0443 4.79418 37.4487 4.8712 37.6219 4.83269C37.7182 4.81344 37.7952 4.77493 37.853 4.69792C37.9108 4.6209 37.9493 4.54389 37.9685 4.44762C37.9878 4.3321 37.9685 4.23583 37.9108 4.13956C37.853 4.0433 37.7567 3.98554 37.6605 3.94703C37.4679 3.87001 37.1599 3.83151 36.9481 3.793L36.717 3.75449ZM41.5497 6.4885C41.4149 6.87357 41.3186 7.33565 41.4727 7.73998C41.6074 8.06729 41.8192 8.27908 42.1465 8.3946C42.4738 8.51012 42.7819 8.49087 43.09 8.33684C43.4558 8.12505 43.6868 7.70147 43.8408 7.3164C43.9756 6.95058 44.0911 6.46924 43.9371 6.08417C43.8023 5.75686 43.5713 5.56433 43.244 5.44881C42.9167 5.33328 42.6086 5.33328 42.3006 5.48731C41.9155 5.66059 41.6845 6.10343 41.5497 6.4885Z" fill="#2C2C2B"/>
<path fill-rule="evenodd" clip-rule="evenodd" d="M3.15771 24.7019L4.42845 21.1978L8.64498 22.7381L8.79901 22.2952L10.7629 23.0076L10.4548 23.8548L9.35736 23.4504L8.20215 26.6465L9.2996 27.0509L8.99154 27.898L7.02768 27.1856L7.18171 26.7621C6.81589 26.3962 6.37306 26.0689 5.81471 25.7994C5.27561 25.5298 4.56322 25.2218 3.67756 24.9137L3.15771 24.7019ZM4.37069 24.0473C5.91097 24.6057 6.98917 25.164 7.58603 25.6839L8.27916 23.7585L4.90979 22.5263L4.37069 24.0473ZM7.58603 20.8127C7.10469 20.5432 6.75813 20.2351 6.50783 19.9078C6.33455 19.6575 6.19978 19.3879 6.12276 19.0991C6.04575 18.8103 6.00724 18.5215 6.04575 18.252C6.08425 17.8862 6.21903 17.5203 6.45007 17.1353C6.8544 16.4421 7.37424 16.0186 8.04812 15.8453C8.72199 15.672 9.43437 15.8068 10.1853 16.2496C10.9362 16.6924 11.4175 17.2315 11.5908 17.8862C11.7833 18.5408 11.6678 19.2147 11.2827 19.8885C10.8784 20.5817 10.3585 21.0052 9.68467 21.1785C9.03005 21.3711 8.31767 21.2363 7.58603 20.8127ZM8.10588 19.8308C8.62572 20.1388 9.10706 20.2351 9.51139 20.1581C9.91571 20.0618 10.243 19.8308 10.4548 19.465C10.6666 19.0991 10.7244 18.6948 10.5896 18.3097C10.4548 17.9054 10.1275 17.5589 9.5884 17.2508C9.0493 16.9427 8.58722 16.8272 8.18289 16.9042C7.77857 16.9812 7.47051 17.2315 7.23947 17.6166C7.00843 18.0017 6.96992 18.3868 7.10469 18.7911C7.23947 19.1762 7.56678 19.5227 8.10588 19.8308ZM13.9975 13.0535L14.9794 12.5337C15.2875 13.0535 15.4222 13.5541 15.3645 14.0162C15.3067 14.4783 15.0757 14.9211 14.6713 15.3447C14.1707 15.8645 13.5931 16.1148 12.9193 16.0956C12.2454 16.0956 11.61 15.7875 10.9939 15.1907C10.3393 14.5746 10.012 13.9199 9.97347 13.2461C9.93497 12.5722 10.1853 11.9561 10.7051 11.417C11.1672 10.9356 11.6678 10.6853 12.2454 10.6661C12.5727 10.6468 12.9385 10.7431 13.3428 10.9549L12.7845 11.9176C12.5342 11.7635 12.2839 11.7058 12.0336 11.7443C11.7833 11.7828 11.5523 11.8983 11.3405 12.1101C11.0709 12.3989 10.9362 12.7262 10.9747 13.1113C11.0132 13.4964 11.2635 13.9007 11.7255 14.3435C12.2069 14.8248 12.6497 15.0751 13.0348 15.0944C13.4199 15.1137 13.7472 14.9981 14.0167 14.7093C14.2093 14.4975 14.3248 14.2665 14.344 13.9777C14.3055 13.7081 14.2093 13.4001 13.9975 13.0535ZM20.7362 10.4543L19.7735 11.1282L18.6761 10.3965L16.9048 11.6288L17.2513 12.8802L16.3079 13.5349L14.9409 7.91282L15.8843 7.2582L20.7362 10.4543ZM17.8674 9.85743L16.1154 8.64446L16.6737 10.7046L17.8674 9.85743ZM25.7806 8.35565L24.6832 8.79849L23.7975 7.83581L21.7952 8.64446L21.8337 9.9537L20.7555 10.3773L20.6784 4.60121L21.7374 4.17763L25.7806 8.35565ZM23.1236 7.14268L21.6796 5.56389L21.7566 7.68178L23.1236 7.14268ZM29.2655 7.20044L29.3618 7.81655L28.3029 7.97058L28.2066 7.35447C27.3402 7.45074 26.7241 7.31596 26.3197 6.9694C25.9154 6.62283 25.6651 6.16075 25.5881 5.58314C25.4918 4.96703 25.6074 4.44718 25.9347 4.0236C26.2427 3.60003 26.8203 3.31122 27.629 3.15719L27.552 2.63735L28.6109 2.48332L28.6879 3.00317C29.5351 2.9069 30.1705 3.04167 30.5748 3.36898C30.9791 3.69629 31.2294 4.17763 31.3064 4.75524C31.3834 5.3521 31.2872 5.85269 30.9791 6.29552C30.671 6.75761 30.1127 7.06567 29.2655 7.20044ZM29.1308 6.31478C29.4196 6.27627 29.6506 6.19926 29.8431 6.06448C30.0357 5.94896 30.1512 5.79493 30.2282 5.62165C30.286 5.44837 30.3052 5.21732 30.2667 4.90927C30.1512 4.13912 29.6699 3.81181 28.8227 3.92734L29.1308 6.31478ZM28.0718 6.44955L27.7445 4.06211C27.2824 4.11987 26.9744 4.2739 26.8011 4.50494C26.6278 4.73599 26.57 5.0633 26.6278 5.46762C26.7433 6.25702 27.2247 6.58433 28.0718 6.44955ZM34.695 7.68178L35.5422 2.3678L37.275 2.63735C37.9296 2.73362 38.3532 2.82988 38.5457 2.92615C38.8345 3.06093 39.0656 3.27271 39.2389 3.56152C39.3929 3.86958 39.4507 4.21614 39.3929 4.63972C39.3351 4.96703 39.2389 5.23658 39.0848 5.42911C38.9308 5.6409 38.7575 5.77568 38.5457 5.8912C38.334 5.98747 38.1414 6.04523 37.9489 6.04523C37.6793 6.06448 37.3135 6.02597 36.8129 5.94896L36.1198 5.83344L35.7925 7.83581L34.695 7.68178ZM36.4664 3.42674L36.2353 4.92852L36.8322 5.02479C37.2558 5.08255 37.5446 5.1018 37.6986 5.08255C37.8526 5.04404 37.9681 4.98628 38.0837 4.87076C38.1799 4.75524 38.2377 4.63972 38.2762 4.48569C38.3147 4.29315 38.2762 4.11987 38.1799 3.9851C38.0837 3.85032 37.9489 3.7348 37.7949 3.67704C37.6793 3.63853 37.4098 3.58077 37.0247 3.52301L36.4664 3.42674ZM40.2208 6.04523C40.4133 5.52538 40.6444 5.12106 40.9332 4.83225C41.145 4.62046 41.376 4.44718 41.6648 4.31241C41.9344 4.17763 42.2039 4.10062 42.4927 4.10062C42.8585 4.08136 43.2436 4.13912 43.6479 4.29315C44.3988 4.5627 44.8994 5.00553 45.1882 5.6409C45.477 6.25702 45.4578 6.98865 45.1497 7.81655C44.8609 8.64446 44.3988 9.18356 43.7827 9.49161C43.1666 9.79967 42.4927 9.79967 41.7418 9.53012C40.9909 9.26057 40.4711 8.79849 40.2016 8.18237C39.9128 7.56626 39.932 6.85388 40.2208 6.04523ZM41.2798 6.39179C41.068 6.9694 41.0487 7.45074 41.2027 7.83581C41.3568 8.22088 41.6456 8.49043 42.0499 8.64446C42.4542 8.79849 42.8393 8.75998 43.2051 8.56744C43.5709 8.37491 43.8597 7.97058 44.0715 7.39298C44.2833 6.81537 44.3218 6.33403 44.1678 5.94896C44.0138 5.56389 43.725 5.31359 43.3014 5.15956C42.8778 5.00553 42.4927 5.02479 42.1269 5.21732C41.7803 5.40986 41.5108 5.79493 41.2798 6.39179ZM48.9042 11.2052L49.578 12.0908C49.1159 12.4759 48.6346 12.6877 48.1725 12.707C47.7104 12.7262 47.2291 12.5722 46.7478 12.2449C46.1702 11.8405 45.8236 11.3014 45.7273 10.6276C45.6311 9.9537 45.8236 9.27982 46.3049 8.5867C46.8248 7.85506 47.4024 7.41223 48.0763 7.27745C48.7309 7.14268 49.3855 7.27745 50.0016 7.72029C50.5407 8.10536 50.868 8.56744 50.9835 9.1258C51.0606 9.45311 51.0221 9.83818 50.868 10.2618L49.8283 9.85743C49.9438 9.58788 49.9631 9.33758 49.8861 9.08729C49.8091 8.83699 49.655 8.6252 49.424 8.47117C49.0967 8.24013 48.7501 8.18237 48.3843 8.25939C48.0185 8.35565 47.6527 8.66371 47.2869 9.18356C46.9018 9.74191 46.7093 10.204 46.7478 10.5891C46.7863 10.9741 46.9596 11.2629 47.2869 11.494C47.5179 11.6673 47.7875 11.725 48.057 11.7058C48.3073 11.6288 48.5961 11.4747 48.9042 11.2052ZM53.0629 15.2677L53.5635 16.2496C53.0244 16.5384 52.5238 16.6539 52.0617 16.5769C51.5997 16.4999 51.1568 16.2689 50.7525 15.8453C50.2519 15.3254 50.0209 14.7286 50.0594 14.074C50.0979 13.4001 50.4059 12.7647 51.022 12.1871C51.6767 11.571 52.3313 11.2437 53.0052 11.2437C53.679 11.2244 54.2759 11.494 54.815 12.0331C55.2771 12.5144 55.5081 13.0343 55.5081 13.5926C55.5081 13.9199 55.4119 14.2857 55.1808 14.6708L54.2374 14.074C54.3914 13.8429 54.4684 13.5926 54.4299 13.3231C54.4107 13.0728 54.2952 12.8417 54.0834 12.6299C53.8138 12.3411 53.4865 12.2064 53.1014 12.2256C52.7164 12.2449 52.312 12.4759 51.8499 12.9187C51.3686 13.4001 51.0991 13.8237 51.0606 14.1895C51.0221 14.5746 51.1376 14.9019 51.4071 15.1714C51.5997 15.3832 51.85 15.4987 52.1195 15.518C52.4083 15.5757 52.7164 15.4795 53.0629 15.2677ZM57.626 15.5757L58.1266 16.4614L54.9883 18.1942L59.1856 18.3675L59.7054 19.3109L54.9883 21.9294L54.4877 21.0437L57.5683 19.3302L53.4287 19.1376L52.9089 18.1942L57.626 15.5757ZM60.6681 21.3903L60.9569 22.3722L57.5297 23.4119L61.6115 24.4516L61.9196 25.4913L56.7596 27.0701L56.4708 26.0882L59.8402 25.0677L55.8354 24.0088L55.5081 22.9691L60.6681 21.3903Z" fill="#FFCC00"/>
</svg>
