<svg width="110" height="17" viewBox="0 0 110 17" fill="none" xmlns="http://www.w3.org/2000/svg">
<path d="M0.835766 0.0448608C0.351738 0.0448608 0 0.367222 0 0.811111V15.6575C0 16.1006 0.357153 16.4472 0.813069 16.4472C1.24887 16.4472 1.60371 16.0929 1.60371 15.6575V0.811111C1.60371 0.416915 1.23056 0.0448608 0.835766 0.0448608Z" fill="#0D397F"/>
<path d="M30.6487 0.0456543C30.1832 0.0456543 29.858 0.351537 29.858 0.78925V13.4728L19.58 0.545933C19.3206 0.208895 19.0442 0.0456543 18.7347 0.0456543C18.2899 0.0456543 17.9673 0.358489 17.9673 0.78925V15.7036C17.9673 16.0929 18.3224 16.448 18.7123 16.448C19.1775 16.448 19.5027 16.1421 19.5027 15.7036V2.95257L29.848 15.9691C30.0867 16.2868 30.364 16.448 30.6713 16.448C31.1303 16.448 31.3937 16.1681 31.3937 15.681V0.78925C31.3937 0.351537 31.0873 0.0456543 30.6487 0.0456543Z" fill="#0D397F"/>
<path d="M59.0694 0.0456543C58.7592 0.0456543 58.5367 0.189069 58.3833 0.494952L52.8374 13.9299L47.1432 0.512203C47.0544 0.215847 46.8104 0.0456543 46.4739 0.0456543C45.9894 0.0456543 45.6377 0.368273 45.6377 0.811905C45.6377 0.954546 45.6681 1.04492 45.6975 1.13169L52.0654 16.027C52.2092 16.3426 52.4765 16.5162 52.8173 16.5162C53.1389 16.5162 53.4048 16.3378 53.5489 16.0221L59.7869 1.08148L59.8008 1.02767C59.8199 0.956091 59.8374 0.887864 59.8374 0.811905C59.8372 0.374968 59.5071 0.0456543 59.0694 0.0456543Z" fill="#0D397F"/>
<path d="M79.001 0.559498L78.9996 0.556666C78.8338 0.197742 78.5427 0 78.1797 0C77.8218 0 77.5534 0.187444 77.3811 0.559498L70.8692 15.4113L70.8558 15.4635C70.8364 15.5359 70.8184 15.6041 70.8184 15.6806C70.8184 16.1184 71.1487 16.4476 71.5863 16.4476C71.8968 16.4476 72.1196 16.3042 72.2715 16.0004L78.157 2.34768L84.0464 16.0099C84.1908 16.296 84.4343 16.4476 84.7504 16.4476C85.142 16.4476 85.5409 16.0493 85.5409 15.6579C85.5409 15.5815 85.5233 15.5133 85.5035 15.4409L79.001 0.559498Z" fill="#0D397F"/>
<path d="M109.668 14.9876L106.167 10.6612C108.86 9.87338 110 8.0293 110 5.60102C110 2.50306 107.509 0.13916 104.529 0.13916H99.9862C99.522 0.13916 99.1436 0.516107 99.1436 0.979305V15.5196C99.1436 15.9828 99.5212 16.3597 99.9862 16.3597C100.45 16.3597 100.827 15.9828 100.827 15.5196V1.81946H104.529C106.644 1.81946 108.317 3.45907 108.317 5.60102C108.317 7.57101 106.793 9.33776 104.859 9.33776C103.733 9.33776 104.022 10.5322 104.264 10.7727L108.479 16.1772C108.637 16.3358 108.848 16.4226 109.073 16.4226C109.299 16.4226 109.511 16.335 109.668 16.1759C109.827 16.0173 109.915 15.8064 109.915 15.5819C109.915 15.3573 109.827 15.1462 109.668 14.9876Z" fill="#0D397F"/>
</svg>
