<svg width="110" height="63" viewBox="0 0 110 63" fill="none" xmlns="http://www.w3.org/2000/svg">
<path d="M17.1309 26.618V15.3391L80.6964 1.80444V12.6322L17.1309 26.618Z" fill="black"/>
<path d="M29.7539 39.2504V27.9715L80.6965 17.1438V29.325L29.7539 39.2504Z" fill="white"/>
<path d="M0.901855 60.9058V49.6269L106.844 25.7157L106.394 37.8969L0.901855 60.9058Z" fill="white"/>
<path d="M9.47344 54.4099C9.40665 53.799 9.20865 53.5742 8.61465 53.6629C7.41722 53.8425 6.23079 54.0926 5.03651 54.3142C5.03651 55.3193 5.03651 56.2618 5.03651 57.2653C6.03751 57.0453 7.01101 56.8546 7.97272 56.6132C9.33437 56.2713 9.60622 55.8582 9.47737 54.4487C9.47658 54.4361 9.47501 54.4226 9.47344 54.4099Z" fill="#BB2A57"/>
<path d="M8.50231 52.2178C8.90302 51.9796 9.07116 51.3504 8.8818 50.8827C8.69952 50.4308 8.29252 50.4862 7.94131 50.544C7.04009 50.692 6.14516 50.8756 5.25102 51.0623C5.16302 51.0805 5.03809 51.2206 5.03574 51.3077C5.01688 51.9099 5.02552 52.513 5.02552 53.1738C5.93616 52.9688 6.79181 52.79 7.63881 52.5779C7.93895 52.5019 8.23595 52.3761 8.50231 52.2178Z" fill="#BB2A57"/>
<path d="M109.652 24.6739C102.078 26.3113 94.5049 27.9511 86.9314 29.5893C73.2302 32.5531 59.5281 35.5161 45.8268 38.4791C31.5111 41.575 17.1962 44.6726 2.87971 47.767C1.92271 47.9735 0.960207 48.1547 6.414e-05 48.3478C6.414e-05 52.8794 -0.000721574 57.411 0.003207 61.9425C0.003207 62.0478 0.0519213 62.153 0.0786355 62.2591C0.211421 62.2116 0.340278 62.1483 0.476992 62.119C5.70985 60.9857 10.9443 59.8564 16.1779 58.7247C30.9705 55.5258 45.7624 52.327 60.555 49.1282C75.9739 45.7932 91.3927 42.4567 106.812 39.1233C107.872 38.8938 108.938 38.6864 110 38.4688C110 33.8581 110 29.2474 110 24.6367C109.884 24.6478 109.765 24.6494 109.652 24.6739ZM99.2562 27.724C99.2774 28.0943 99.2986 28.4616 99.3237 28.8992C99.9664 28.7575 100.564 28.6412 101.151 28.4805C101.242 28.456 101.322 28.232 101.33 28.0951C101.382 27.2301 101.374 27.2293 102.226 27.075C102.301 27.0616 102.375 27.0537 102.504 27.0362C102.515 27.6939 102.558 28.3207 102.276 28.9103C102.06 29.363 101.652 29.5727 101.193 29.6811C100.595 29.822 99.9939 29.9518 99.3905 30.0626C98.6684 30.1947 98.2984 29.9272 98.1601 29.2071C97.933 28.0294 97.9998 27.9345 99.2562 27.724ZM10.6072 55.3668C10.5082 56.2246 10.0745 56.8934 9.30134 57.263C8.72699 57.5376 8.11256 57.7465 7.49577 57.9056C6.53328 58.1525 5.55349 58.3345 4.57999 58.5395C4.04178 58.6527 3.8532 58.4999 3.84221 57.942C3.83513 57.6001 3.84299 57.2574 3.84299 56.9147C3.84378 54.9133 3.84299 52.9118 3.84692 50.9096C3.84849 50.2796 4.02763 50.0604 4.63735 49.9346C5.63678 49.7288 6.63542 49.512 7.63956 49.3347C8.00885 49.2698 8.39856 49.2682 8.77335 49.3023C9.54649 49.3727 9.97392 49.8151 10.0816 50.5875C10.1758 51.2641 10.0635 51.8981 9.67849 52.49C10.3738 52.8462 10.6135 53.4627 10.6402 54.1852C10.6551 54.5785 10.652 54.9766 10.6072 55.3668ZM18.7228 53.1319C18.3418 55.3035 15.9469 56.872 13.8074 56.3924C12.7844 56.1629 12.0843 55.3826 12.0262 54.258C11.9712 53.1809 11.9508 52.0943 12.0341 51.0204C12.1771 49.1709 13.7328 47.7226 15.7411 47.4686C15.9996 47.4362 16.2651 47.4116 16.5236 47.4306C17.8782 47.528 18.7118 48.374 18.7888 49.7399C18.8171 50.2385 18.7936 50.7402 18.7936 51.2412C18.8069 51.242 18.8211 51.242 18.8344 51.2428C18.8014 51.8735 18.8313 52.5146 18.7228 53.1319ZM26.1038 53.317C25.5931 53.8592 24.9677 54.1971 24.244 54.3538C23.3994 54.5366 22.5548 54.7162 21.7093 54.8935C21.5687 54.9228 21.4249 54.9489 21.2819 54.9505C21.1263 54.9529 20.9629 54.9505 20.816 54.9062C20.3752 54.7716 20.2322 54.3989 20.1819 53.9929C20.1214 53.5054 19.958 52.9736 20.4255 52.5961C20.5653 52.4829 20.8482 52.4228 20.9998 52.4892C21.1436 52.5526 21.2654 52.8066 21.2858 52.9886C21.3731 53.7856 21.3581 53.7879 22.1548 53.6178C22.8463 53.4698 23.5408 53.3352 24.2268 53.1667C24.9622 52.9854 25.5043 52.5549 25.7165 51.7999C25.931 51.0339 25.5091 50.4553 24.721 50.4894C24.1906 50.5123 23.6642 50.6548 23.1378 50.7529C22.8266 50.8107 22.5194 50.8629 22.3945 50.4664C22.2923 50.1412 22.4825 49.7787 22.8565 49.6616C23.28 49.5294 23.7341 49.4938 24.1506 49.3458C24.5741 49.1962 25.007 49.015 25.3637 48.7491C25.7809 48.4373 25.8807 47.8762 25.6882 47.4646C25.4729 47.0033 25.0486 46.8529 24.6055 46.9249C23.5998 47.0887 22.6003 47.3032 21.608 47.5351C21.4807 47.5652 21.3636 47.8113 21.3173 47.9791C21.2591 48.1896 21.3055 48.4278 21.2583 48.643C21.1821 48.9905 20.8545 49.2216 20.5331 49.1764C20.145 49.121 20.1261 48.8116 20.1301 48.5164C20.1332 48.2545 20.1599 47.9901 20.2031 47.7313C20.3241 47.0064 20.7508 46.5379 21.4556 46.3717C22.4621 46.1351 23.4733 45.9159 24.4892 45.7275C25.2867 45.5803 26.0575 45.6737 26.5808 46.386C27.1206 47.1204 27.0223 47.9284 26.6845 48.7143C26.5619 49 26.36 49.2508 26.1753 49.5492C27.2156 50.7062 27.1905 52.1632 26.1038 53.317ZM35.7296 45.8185C35.728 47.6103 35.7288 49.4012 35.7241 51.1929C35.7225 51.7422 35.5772 51.9899 35.2071 52.1062C34.8512 52.2178 34.6108 52.0706 34.5644 51.6963C34.5424 51.5142 34.5518 51.3283 34.5518 51.1439C34.551 49.326 34.551 47.509 34.551 45.6911C34.529 45.68 34.5063 45.6682 34.4843 45.6571C33.9618 46.5173 33.4393 47.3776 32.9168 48.2386C32.2984 49.2572 32.0454 49.2769 31.3045 48.3653C30.8275 47.7788 30.349 47.1948 29.8045 46.5284C29.8045 47.9324 29.8045 49.2303 29.8045 50.5274C29.8045 51.2127 29.8108 51.8973 29.8006 52.5818C29.7935 53.0424 29.5775 53.3202 29.2003 53.3891C28.9033 53.4429 28.7163 53.321 28.659 53.0211C28.6393 52.919 28.6401 52.8113 28.6401 52.7061C28.6417 50.3089 28.644 47.911 28.6472 45.5138C28.6472 45.422 28.6213 45.3089 28.6637 45.2416C28.7965 45.0327 28.9191 44.781 29.1155 44.6575C29.363 44.5016 29.6144 44.6457 29.8014 44.8696C30.4991 45.7077 31.1992 46.5442 31.8993 47.38C31.9825 47.4797 32.0698 47.5762 32.1758 47.6973C32.9435 46.458 33.6938 45.24 34.452 44.0268C34.5691 43.8392 34.6909 43.6264 34.8669 43.5132C35.0335 43.4063 35.2967 43.3438 35.4735 43.4C35.5968 43.4396 35.7115 43.7095 35.7186 43.882C35.7477 44.527 35.7304 45.1735 35.7296 45.8185ZM44.2405 45.8367C44.2318 45.8367 44.224 45.8367 44.2153 45.8367C44.2153 46.3622 44.264 46.894 44.2067 47.4132C44.004 49.254 42.6557 50.6089 40.7236 50.961C40.5563 50.9911 40.3881 51.0188 40.2192 51.0323C38.5645 51.1629 37.5234 50.282 37.4354 48.6169C37.3867 47.6989 37.3867 46.7738 37.4409 45.8565C37.5548 43.9208 38.8858 42.4954 40.88 42.1029C41.0214 42.0752 41.1628 42.0499 41.3058 42.0333C43.0831 41.822 44.2114 42.8136 44.2397 44.6132C44.246 45.0216 44.2405 45.4292 44.2405 45.8367ZM54.8272 47.8801C54.091 48.3075 53.2039 48.0012 52.8692 47.1924C52.6987 46.7801 52.5761 46.3464 52.3954 45.9388C52.1055 45.2851 51.66 45.0928 50.9002 45.2907C50.9002 45.6381 50.901 46.0013 50.9002 46.3646C50.8994 46.9178 50.9261 47.4733 50.8837 48.0226C50.8648 48.264 50.7587 48.5489 50.593 48.7119C50.4555 48.8472 50.1412 48.9208 49.9644 48.8567C49.819 48.8045 49.6847 48.5125 49.6768 48.3217C49.6462 47.5327 49.665 46.7421 49.6658 45.9515C49.6658 45.8233 49.6658 45.6943 49.6658 45.5297C48.8974 45.699 48.4087 46.1311 48.1572 46.8228C48.0048 47.2423 47.898 47.6791 47.7589 48.1033C47.5043 48.8789 47.0612 49.4875 46.2535 49.7502C45.7899 49.9014 45.4819 49.8032 45.3845 49.4946C45.2808 49.1654 45.4913 48.8575 45.8755 48.6597C46.0492 48.5702 46.2063 48.3898 46.2983 48.2125C46.4114 47.9949 46.4601 47.7408 46.5167 47.4979C46.7532 46.4888 47.2537 45.6484 48.081 44.9852C47.601 44.2943 47.1397 43.6248 46.6707 42.9608C46.4963 42.7139 46.2802 42.5477 45.9431 42.5952C45.6909 42.6308 45.4143 42.554 45.408 42.2707C45.4025 42.0404 45.5 41.6756 45.6579 41.602C45.9675 41.4579 46.3619 41.397 46.7021 41.4429C47.2592 41.5181 47.6552 41.9153 47.9805 42.3585C48.3608 42.8777 48.7167 43.4151 49.0985 43.9326C49.2243 44.1028 49.3979 44.2373 49.6265 44.4652C49.647 44.2334 49.6635 44.1241 49.6642 44.0149C49.6682 43.146 49.669 42.2762 49.669 41.4073C49.669 41.0701 49.7672 40.7821 50.0736 40.6048C50.5081 40.3539 50.8782 40.5399 50.8955 41.0432C50.9175 41.6748 50.901 42.3071 50.901 42.9394C50.901 43.3027 50.901 43.6667 50.901 44.03C50.934 44.045 50.9662 44.06 50.9992 44.0751C51.15 43.8733 51.3221 43.6849 51.447 43.4681C51.8595 42.7503 52.2202 42 52.6696 41.3068C52.987 40.8169 53.3885 40.3737 53.805 39.963C53.9959 39.7746 54.3047 39.6599 54.5757 39.6179C54.7525 39.591 55.0487 39.705 55.1265 39.8474C55.2082 39.9962 55.1155 40.2621 55.0519 40.4615C55.022 40.5549 54.89 40.6539 54.7871 40.6792C54.2277 40.8185 53.97 41.2617 53.7248 41.7151C53.3131 42.4772 52.91 43.2449 52.485 44.0466C53.6313 44.4312 53.9487 45.4315 54.2182 46.4659C54.2685 46.6582 54.3133 46.8545 54.5962 46.8165C54.8649 46.7801 55.1077 46.8505 55.1768 47.1544C55.2491 47.4781 55.1053 47.7187 54.8272 47.8801ZM63.3962 45.4133C63.3954 45.589 63.3663 45.8359 63.254 45.9246C63.0567 46.0789 62.7817 46.2087 62.5445 46.2C62.4313 46.196 62.2451 45.8526 62.2396 45.6579C62.209 44.6845 62.2262 43.7094 62.227 42.7352C62.227 42.5912 62.227 42.448 62.227 42.2382C60.7279 42.5564 59.2657 42.8666 57.7626 43.1855C57.7626 43.6311 57.7626 44.0608 57.7626 44.4914C57.7618 45.1759 57.7626 45.8613 57.7579 46.5458C57.7571 46.6764 57.7508 46.8117 57.717 46.936C57.6251 47.2684 57.2857 47.501 56.9714 47.4472C56.6107 47.3855 56.584 47.0966 56.5832 46.8117C56.5809 45.3366 56.584 43.8622 56.5856 42.387C56.5864 41.465 56.5848 40.5431 56.5911 39.6219C56.5927 39.4525 56.6052 39.2768 56.6516 39.1154C56.7435 38.8004 57.0861 38.5923 57.387 38.6548C57.7155 38.7228 57.7634 38.9785 57.7634 39.2594C57.7634 40.0231 57.7634 40.7868 57.7634 41.5505C57.7634 41.6811 57.7634 41.8117 57.7634 42.0024C59.2727 41.6811 60.731 41.3709 62.2286 41.0527C62.2286 40.183 62.2239 39.3164 62.2325 38.4498C62.2341 38.2551 62.2467 38.0478 62.315 37.8705C62.4376 37.5516 62.7134 37.406 63.0402 37.455C63.371 37.5049 63.4064 37.7898 63.4064 38.0652C63.4064 40.5146 63.4064 42.964 63.3962 45.4133ZM71.8662 41.5964C71.6909 43.4807 70.1093 44.9013 68.0869 45.1181C67.841 45.1443 67.5895 45.1561 67.3428 45.1387C66.0668 45.0493 65.2347 44.2397 65.131 42.9521C65.0878 42.4155 65.124 41.8726 65.124 41.3329C65.1342 41.3329 65.1444 41.3329 65.1554 41.3329C65.1554 40.7275 65.08 40.111 65.1695 39.5198C65.4414 37.7233 66.9138 36.4096 68.8522 36.1658C69.1358 36.1302 69.4289 36.1089 69.7125 36.135C70.9673 36.2497 71.7931 37.0197 71.8756 38.2812C71.9471 39.3821 71.9683 40.4995 71.8662 41.5964ZM74.6256 41.2023C74.6366 42.0657 74.855 42.2818 75.7044 42.1559C76.6991 42.0087 77.682 41.7776 78.6704 41.5845C78.991 41.522 79.0444 41.2886 79.0963 41.0076C79.1434 40.7512 79.2401 40.4766 79.3988 40.2779C79.4915 40.1624 79.7791 40.1038 79.9252 40.1608C80.0667 40.2162 80.2026 40.441 80.2293 40.6095C80.3904 41.6233 79.8632 42.4772 78.8826 42.7083C77.8266 42.9576 76.7541 43.1341 75.6879 43.3383C75.5606 43.3628 75.427 43.362 75.2966 43.3636C74.0811 43.3818 73.4997 42.8421 73.4549 41.6186C73.4305 40.9348 73.4502 40.2495 73.4502 39.5649C73.451 38.9064 73.4407 38.248 73.4533 37.5903C73.4761 36.3716 74.0206 35.4433 75.1795 35.0753C76.4461 34.6732 77.759 34.4113 79.0602 34.1272C79.4805 34.0354 79.8867 34.1857 80.08 34.6171C80.3016 35.1117 80.3982 35.6483 80.0674 36.1207C79.9543 36.2822 79.6345 36.389 79.4318 36.3605C79.2982 36.3415 79.1387 36.0463 79.1065 35.8556C79.0122 35.2929 79.0311 35.2795 78.4693 35.4029C77.5618 35.6016 76.6504 35.7844 75.7539 36.0265C74.8668 36.2655 74.6421 36.5766 74.6295 37.4898C74.6122 38.7276 74.6107 39.9653 74.6256 41.2023ZM86.8568 33.6057C86.2369 33.7623 85.6083 33.885 84.9373 34.0314C84.9373 34.1794 84.9373 34.3187 84.9373 34.4588C84.9357 36.5512 84.9349 38.6445 84.931 40.737C84.9302 41.2395 84.7134 41.5442 84.2962 41.6574C83.9002 41.7642 83.6519 41.598 83.6118 41.1928C83.6 41.0757 83.6071 40.9562 83.6071 40.8375C83.6087 38.8241 83.611 36.81 83.6134 34.7967C83.6134 34.6535 83.6134 34.5102 83.6134 34.31C82.9935 34.4414 82.4317 34.5632 81.8691 34.6788C81.5603 34.7421 81.2531 34.7746 81.1227 34.386C81.0252 34.0947 81.2177 33.7426 81.5548 33.5922C81.6727 33.54 81.8031 33.5107 81.9304 33.4838C83.4908 33.1498 85.052 32.8182 86.6132 32.4866C87.1294 32.3766 87.3377 32.455 87.4131 32.785C87.4964 33.1522 87.2842 33.498 86.8568 33.6057ZM92.9626 34.3163C93.0396 34.2997 93.1158 34.2783 93.1928 34.2688C93.4898 34.2301 93.7868 34.2079 93.9015 34.5783C93.995 34.8806 93.8426 35.2201 93.4914 35.3333C92.9956 35.4939 92.4794 35.5929 91.9687 35.7068C91.256 35.8659 90.5402 36.0139 89.826 36.1674C89.826 37.1891 89.826 38.1736 89.826 39.2064C90.6879 39.0252 91.5279 38.8495 92.3678 38.6722C93.1111 38.5155 93.8536 38.3564 94.5961 38.1981C95.1304 38.085 95.3543 38.1657 95.4329 38.4989C95.5185 38.8645 95.2773 39.2175 94.8239 39.3243C94.0846 39.4984 93.3397 39.6472 92.5972 39.8055C91.5342 40.031 90.4711 40.255 89.408 40.4805C88.8305 40.6032 88.6349 40.4536 88.6341 39.8506C88.6302 38.0589 88.6365 36.2679 88.638 34.4762C88.6388 33.923 88.6317 33.3698 88.6404 32.8166C88.649 32.2357 88.8392 32.0141 89.4002 31.8946C91.1413 31.5243 92.8832 31.1531 94.6251 30.7843C95.1304 30.6775 95.3527 30.7598 95.4376 31.0716C95.5366 31.4341 95.3009 31.8021 94.8491 31.9081C93.9825 32.1115 93.1095 32.2856 92.2389 32.4724C91.4462 32.6417 90.6542 32.8111 89.8417 32.9852C89.8417 33.6523 89.8417 34.3029 89.8417 34.9771C90.8899 34.7548 91.9262 34.5355 92.9626 34.3163ZM103.759 32.4296C103.757 33.8913 103.75 35.3531 103.749 36.8148C103.749 37.2089 103.626 37.5128 103.215 37.6299C102.848 37.7352 102.617 37.588 102.591 37.2065C102.572 36.9185 102.585 36.6272 102.585 36.3376C102.585 34.6543 102.585 32.9702 102.585 31.1602C102.452 31.3652 102.38 31.4712 102.313 31.5805C100.938 33.8051 99.5689 36.0337 98.1837 38.2512C98.0454 38.4728 97.8364 38.6896 97.6085 38.8051C97.2534 38.9848 96.9964 38.8004 96.9485 38.4047C96.9391 38.3264 96.9414 38.2472 96.9414 38.1681C96.943 35.7717 96.943 33.3746 96.9493 30.9782C96.9501 30.8104 96.9674 30.6308 97.0302 30.478C97.1599 30.1599 97.4309 30.0214 97.7602 30.0736C98.0721 30.1235 98.1106 30.3965 98.12 30.6529C98.1318 30.9814 98.1239 31.3114 98.1239 31.6406C98.1239 33.2329 98.1239 34.8252 98.1239 36.541C98.2591 36.3415 98.3377 36.2339 98.4076 36.1215C99.7645 33.9317 101.119 31.7411 102.478 29.5529C102.581 29.3867 102.677 29.1833 102.832 29.0899C103.026 28.9728 103.298 28.8683 103.497 28.9182C103.622 28.9491 103.742 29.2719 103.747 29.4674C103.772 30.4543 103.761 31.442 103.759 32.4296Z" fill="#BB2A57"/>
<path d="M17.5993 51.5095C17.5993 50.9697 17.6394 50.4268 17.5899 49.8919C17.5137 49.072 17.0281 48.6351 16.2086 48.6248C15.4889 48.6161 14.8061 48.7926 14.198 49.197C13.6558 49.5579 13.27 50.0684 13.2347 50.711C13.1742 51.826 13.1687 52.9482 13.2237 54.0633C13.259 54.7827 13.7572 55.2409 14.4745 55.2243C15.0497 55.2109 15.65 55.1009 16.1866 54.8959C17.0674 54.5595 17.5435 53.8457 17.6064 52.8921C17.6363 52.4331 17.6119 51.9709 17.6119 51.5103C17.608 51.5095 17.6033 51.5095 17.5993 51.5095Z" fill="#BB2A57"/>
<path d="M43.0469 46.086C43.0469 45.5858 43.0768 45.0833 43.0406 44.5855C42.973 43.6627 42.4584 43.1547 41.5525 43.2338C40.9546 43.286 40.3464 43.4641 39.7925 43.7031C39.1741 43.9698 38.7373 44.523 38.6917 45.1957C38.6139 46.3598 38.6053 47.5359 38.6697 48.7008C38.7098 49.4194 39.237 49.8539 39.9551 49.8214C40.5185 49.7961 41.1062 49.6893 41.6287 49.4819C42.5378 49.121 43.0005 48.374 43.0493 47.3902C43.0705 46.9566 43.0532 46.5213 43.0532 46.0868C43.0532 46.0868 43.0493 46.086 43.0469 46.086Z" fill="#BB2A57"/>
<path d="M70.7151 40.1735C70.7151 39.6598 70.7497 39.1439 70.7073 38.6342C70.6373 37.7898 70.1557 37.3339 69.326 37.3213C68.5929 37.3102 67.8976 37.4906 67.2816 37.9116C66.7441 38.2796 66.3717 38.7941 66.3387 39.4383C66.2821 40.5272 66.2719 41.6225 66.3269 42.7115C66.3662 43.491 66.8722 43.9152 67.6556 43.9366C68.0036 43.9461 68.3635 43.8994 68.7029 43.8155C70.0622 43.4784 70.7253 42.611 70.7356 41.2015C70.7379 40.8588 70.7356 40.5169 70.7356 40.1743C70.7285 40.1735 70.7214 40.1735 70.7151 40.1735Z" fill="#BB2A57"/>
<path d="M28.4102 26.9252C28.4102 31.5913 28.4102 36.2099 28.4102 40.8602C28.5587 40.8364 28.6867 40.823 28.8117 40.796C31.4202 40.231 34.028 39.6636 36.6358 39.0993C51.8519 35.8079 67.0673 32.5148 82.2858 29.2345C82.6166 29.1633 82.6935 29.0453 82.6928 28.7225C82.6818 24.3365 82.6857 19.9506 82.6849 15.5646C82.6849 15.4507 82.6731 15.3367 82.6653 15.1903C64.5553 19.1077 46.4792 23.0173 28.4102 26.9252ZM33.2439 35.1534C33.2494 36.0215 33.5087 36.2597 34.3494 36.1173C35.3032 35.9558 36.2484 35.7438 37.1999 35.5657C37.5433 35.5016 37.6871 35.3077 37.6926 34.9658C37.6949 34.8115 37.7209 34.6477 37.7806 34.5068C37.9055 34.2116 38.1428 34.0517 38.4665 34.0929C38.8028 34.1356 38.8476 34.4166 38.8727 34.6841C38.9623 35.6591 38.4618 36.4536 37.5166 36.6744C36.3851 36.9388 35.2356 37.1319 34.0885 37.3258C33.8127 37.3725 33.5102 37.3353 33.2313 37.2791C32.5964 37.1509 32.1949 36.7322 32.1313 36.0967C32.0464 35.2475 32.0449 34.3905 32.0079 33.5373C32.0394 33.5365 32.0716 33.5365 32.103 33.5357C32.103 32.7206 32.0567 31.9023 32.1156 31.0911C32.1816 30.1755 32.697 29.479 33.5314 29.1569C34.4287 28.8103 35.3779 28.5966 36.3113 28.3505C36.7654 28.231 37.2321 28.1519 37.6981 28.0917C38.1341 28.0355 38.5254 28.1701 38.7093 28.6022C38.9199 29.0976 39.0291 29.6365 38.681 30.105C38.5631 30.2641 38.2442 30.3662 38.0414 30.3353C37.9047 30.314 37.7405 30.0259 37.7099 29.8367C37.6187 29.2764 37.6399 29.2661 37.0758 29.3872C36.206 29.574 35.3323 29.7449 34.4719 29.9689C33.4757 30.2277 33.2486 30.5561 33.2454 31.5976C33.2407 32.7831 33.236 33.9686 33.2439 35.1534ZM45.5104 27.5702C45.0194 27.7055 44.5196 27.8163 44.0168 27.8954C43.6601 27.9516 43.5328 28.079 43.5367 28.4724C43.5603 30.5648 43.5477 32.6581 43.5438 34.7505C43.543 35.2752 43.2326 35.6243 42.7604 35.6607C42.4642 35.6836 42.2749 35.557 42.2324 35.2602C42.2041 35.0663 42.2057 34.8669 42.2057 34.6706C42.2065 32.6834 42.2104 30.6954 42.212 28.7082C42.212 28.58 42.1994 28.451 42.1924 28.2998C41.6321 28.417 41.1081 28.5246 40.5848 28.6354C40.0309 28.7533 39.7904 28.6678 39.7174 28.3212C39.6396 27.9524 39.9114 27.5884 40.3742 27.4823C41.0751 27.3217 41.7806 27.1816 42.4839 27.032C43.4047 26.8365 44.3248 26.6379 45.2456 26.4448C45.5599 26.3791 45.8899 26.3047 46.0266 26.725C46.139 27.07 45.9182 27.4578 45.5104 27.5702ZM53.4328 27.5251C53.1908 28.489 52.5441 29.1134 51.6304 29.3928C50.7331 29.6674 49.8067 29.8526 48.8843 30.033C48.5134 30.1058 48.4081 30.2483 48.4184 30.6242C48.4459 31.676 48.4239 32.7293 48.4262 33.7827C48.427 34.0945 48.3429 34.3548 48.0554 34.5123C47.6114 34.7561 47.261 34.5749 47.2406 34.066C47.2178 33.5009 47.2327 32.9343 47.2319 32.3684C47.2311 31.6839 47.2319 31.0001 47.2319 30.3155C47.2351 30.3155 47.239 30.3155 47.2421 30.3155C47.2421 29.1577 47.239 27.9991 47.2429 26.8413C47.2453 26.1021 47.3883 25.9185 48.1111 25.7713C49.1868 25.5521 50.2593 25.3052 51.3444 25.1501C53.0462 24.9055 53.8547 25.8449 53.4328 27.5251ZM61.3017 31.7733C60.9364 32.036 60.5922 31.9545 60.4076 31.539C60.1671 30.9985 59.9471 30.4493 59.7169 29.904C59.6666 29.7853 59.6116 29.669 59.5464 29.5249C58.4299 29.7647 57.3299 29.9934 56.2362 30.2467C56.1348 30.2704 56.0366 30.4358 55.9911 30.5569C55.7373 31.2344 55.5212 31.926 55.2454 32.594C55.148 32.8314 54.9586 33.0799 54.7434 33.2081C54.3678 33.4321 53.9961 33.148 54.0417 32.7087C54.0574 32.5544 54.1132 32.4025 54.1666 32.2553C55.1189 29.6349 56.0814 27.0186 57.018 24.3927C57.1492 24.0255 57.326 23.8443 57.7141 23.7778C58.4417 23.6535 58.4362 23.629 58.7253 24.3033C59.6478 26.4543 60.5726 28.6045 61.4934 30.7556C61.7001 31.2383 61.6411 31.5288 61.3017 31.7733ZM69.6091 29.1633C69.6091 29.3192 69.5941 29.4838 69.5431 29.6286C69.4228 29.9697 69.1486 30.1296 68.8061 30.0924C68.4501 30.0536 68.4156 29.7576 68.4156 29.4656C68.4156 28.4914 68.4163 27.5172 68.4171 26.5429C68.4171 26.4131 68.4171 26.2826 68.4171 26.091C66.9211 26.4084 65.4597 26.7186 63.9668 27.036C63.9668 28.1495 63.9723 29.24 63.9621 30.3306C63.9598 30.5355 63.9354 30.7595 63.849 30.94C63.7107 31.2288 63.431 31.3436 63.1214 31.2834C62.815 31.2241 62.7726 30.9589 62.7718 30.6986C62.7686 29.7244 62.7718 28.7502 62.7726 27.7759C62.7733 26.3277 62.7686 24.8794 62.7812 23.4319C62.7828 23.2167 62.8032 22.9318 62.9344 22.8052C63.1081 22.6382 63.4043 22.5187 63.6392 22.5313C63.7594 22.5377 63.9456 22.8748 63.9551 23.0703C63.992 23.8189 63.9692 24.57 63.9684 25.321C63.9684 25.4769 63.9684 25.6328 63.9684 25.8354C65.477 25.5141 66.9423 25.2023 68.4195 24.8873C68.4195 23.9139 68.414 23.0196 68.4218 22.1246C68.4258 21.6386 68.6497 21.3553 69.041 21.296C69.338 21.2508 69.5242 21.3719 69.5894 21.6647C69.6122 21.766 69.6146 21.8737 69.6146 21.9781C69.6161 24.3713 69.6153 26.7677 69.6091 29.1633ZM78.0838 28.1772C77.709 28.4866 77.3318 28.4059 77.1362 27.9564C76.8526 27.3074 76.5846 26.6514 76.2963 25.966C75.4375 26.1464 74.6023 26.3807 73.7513 26.4828C73.0222 26.5698 72.649 26.8991 72.495 27.6082C72.3928 28.0798 72.1783 28.527 72.0118 28.9836C71.9717 29.0944 71.9308 29.2076 71.8719 29.3089C71.6778 29.6397 71.3227 29.7948 71.0477 29.6793C70.7688 29.5613 70.691 29.2875 70.8458 28.8594C71.8452 26.1021 72.8517 23.3481 73.8464 20.59C73.9352 20.3431 74.1073 20.302 74.321 20.2568C75.1774 20.0772 75.1774 20.0717 75.52 20.8718C76.422 22.9745 77.324 25.0765 78.2236 27.18C78.4279 27.6572 78.3863 27.9263 78.0838 28.1772Z" fill="#0062A1"/>
<path d="M56.5796 28.9551C57.4392 28.7723 58.2382 28.6022 59.0797 28.4233C58.6523 27.4649 58.2492 26.5611 57.8171 25.5933C57.392 26.7471 56.996 27.8226 56.5796 28.9551Z" fill="#0062A1"/>
<path d="M73.3169 25.3946C74.1906 25.2078 74.9905 25.0369 75.8147 24.8604C75.3943 23.9171 74.9897 23.0085 74.5536 22.0296C74.1254 23.1945 73.731 24.2661 73.3169 25.3946Z" fill="#0062A1"/>
<path d="M51.3286 26.33C50.429 26.4796 49.5364 26.6751 48.6439 26.8658C48.5621 26.8832 48.4435 27.0067 48.4419 27.0835C48.4254 27.6841 48.4325 28.2864 48.4325 28.9417C49.131 28.7929 49.7934 28.6678 50.4479 28.5064C50.902 28.394 51.3593 28.2682 51.7867 28.083C52.2731 27.8717 52.4687 27.2552 52.2919 26.6909C52.1882 26.3593 51.9289 26.2303 51.3286 26.33Z" fill="#0062A1"/>
<path d="M63.8141 10.7377C64.7264 10.6182 65.6323 10.4409 66.5366 10.2882C66.5366 9.37176 66.5366 8.53367 66.5366 7.63543C65.7022 7.82774 64.9031 7.97256 64.1324 8.20682C63.7348 8.3279 63.3458 8.56295 63.0245 8.83203C62.645 9.15017 62.5452 9.85451 62.7432 10.2542C62.9648 10.7037 63.3922 10.7931 63.8141 10.7377Z" fill="#EFEFEF"/>
<path d="M23.4134 18.9303C23.9186 18.8037 24.4286 18.6675 24.9063 18.4649C25.4311 18.2418 25.6315 17.6308 25.4578 17.0143C25.351 16.636 25.0666 16.5213 24.4073 16.5893C24.3814 16.5917 24.3547 16.5933 24.3296 16.598C23.4582 16.7737 22.5853 16.9439 21.7171 17.133C21.6244 17.1528 21.4908 17.285 21.4884 17.3689C21.4696 18.0115 21.4782 18.6557 21.4782 19.3434C22.1649 19.1994 22.7943 19.0854 23.4134 18.9303Z" fill="#EFEFEF"/>
<path d="M30.1619 21.7215C30.8856 21.7635 31.5668 21.5957 32.1883 21.2238C32.8475 20.8296 33.2459 20.2385 33.315 19.47C33.3606 18.9619 33.3236 18.4459 33.3236 17.9339C33.3213 17.9339 33.3189 17.9339 33.3166 17.9339C33.3166 17.3689 33.3661 16.799 33.3048 16.2411C33.216 15.4386 32.6951 15.0121 31.8913 14.9978C31.2242 14.9859 30.5941 15.1442 30.0126 15.4734C29.3856 15.8296 28.9166 16.3661 28.8694 17.0808C28.794 18.2307 28.794 19.3925 28.8576 20.5439C28.8977 21.2625 29.4422 21.6796 30.1619 21.7215Z" fill="#EFEFEF"/>
<path d="M15.8038 28.2443L15.8077 28.2435C18.4163 27.6784 21.0241 27.111 23.6319 26.5467C38.848 23.2553 67.0685 17.3245 82.2862 14.0442C82.617 13.973 82.694 13.855 82.6932 13.5321C82.6822 9.14621 82.6861 4.76027 82.6853 0.374332C82.6853 0.260371 82.6736 0.146409 82.6657 0C64.643 3.89843 33.8155 10.3903 15.6695 14.3156C15.5155 14.3489 15.4062 14.4858 15.4062 14.6441V27.9143C15.4062 28.1256 15.5988 28.2886 15.8038 28.2443ZM73.9781 9.57515C74.0747 9.44456 74.2672 9.35039 74.4338 9.31398C75.94 8.98239 77.4501 8.66662 78.9595 8.34768C79.2086 8.29545 79.4969 8.16329 79.5881 8.56374C79.6572 8.86843 79.4663 9.12405 79.1001 9.20556C78.3985 9.36147 77.6929 9.50392 76.9897 9.6527C76.1459 9.83156 75.302 10.0112 74.4574 10.1901C74.3811 10.2067 74.3049 10.2257 74.1729 10.2557C74.1022 10.2011 73.9443 10.1402 73.9239 10.0484C73.8909 9.89804 73.894 9.68832 73.9781 9.57515ZM60.771 15.4054C60.8307 15.3571 60.9038 15.3128 60.9777 15.297C61.6109 15.1608 61.8411 14.6876 61.9912 14.1225C62.1994 13.339 62.2953 12.5104 62.8437 11.8662C62.8256 11.8283 62.8201 11.7934 62.8036 11.7871C61.6738 11.3566 61.2629 10.3301 61.7209 9.07815C61.948 8.45927 62.355 7.97098 62.9215 7.66866C63.4354 7.39484 63.9893 7.17087 64.5495 7.01497C65.3549 6.79179 66.1822 6.64697 67.0009 6.47444C67.4472 6.38026 67.6264 6.50531 67.6279 6.9659C67.6358 9.41449 67.6295 11.8631 67.6256 14.3117C67.6256 14.4153 67.6059 14.523 67.5729 14.6211C67.4629 14.944 67.2021 15.0667 66.8949 15.0437C66.5633 15.0184 66.5429 14.7462 66.5429 14.4834C66.5444 13.5883 66.5452 12.6933 66.546 11.7982C66.546 11.6557 66.546 11.5125 66.546 11.3099C65.7399 11.4998 64.973 11.6573 64.2203 11.867C63.774 11.9913 63.5116 12.345 63.3914 12.7938C63.2656 13.2639 63.1973 13.7569 63.0103 14.2001C62.7895 14.724 62.5286 15.255 62.1719 15.6879C61.9339 15.976 61.5111 16.1374 61.1419 16.2743C60.9918 16.3297 60.6799 16.2277 60.5872 16.0939C60.4206 15.8565 60.5424 15.5898 60.771 15.4054ZM52.7151 10.0967C52.7151 9.99221 52.7214 9.88458 52.7481 9.78407C52.829 9.47543 53.1347 9.25779 53.4246 9.30053C53.7617 9.35039 53.7734 9.62263 53.7742 9.87271C53.7789 11.3344 53.7734 12.7954 53.7719 14.2571C53.7711 14.7778 53.7719 15.2978 53.7719 15.934C53.9039 15.737 53.9746 15.6381 54.039 15.5336C55.436 13.2781 56.8314 11.021 58.2316 8.76713C58.3479 8.57957 58.4744 8.37617 58.6472 8.25351C58.7886 8.153 59.0314 8.09127 59.1831 8.14509C59.2978 8.18624 59.3905 8.43157 59.4031 8.59381C59.4337 8.9998 59.4133 9.40895 59.4125 9.81732C59.4117 11.8583 59.4101 13.8986 59.4117 15.9396C59.4117 16.2403 59.3787 16.5236 59.0919 16.697C58.6779 16.9462 58.3557 16.7808 58.3518 16.2973C58.3424 15.2313 58.3502 14.1645 58.351 13.0977C58.3518 12.1662 58.351 11.2339 58.351 10.3024C58.3259 10.2906 58.2999 10.2787 58.2748 10.2668C57.6486 11.2806 57.0224 12.2936 56.3962 13.3074C55.5405 14.6931 54.6935 16.0844 53.819 17.4591C53.6823 17.6743 53.4482 17.8635 53.2164 17.9703C52.9594 18.089 52.7654 17.9331 52.719 17.6403C52.7088 17.5754 52.7088 17.5089 52.7088 17.4432C52.7104 14.9947 52.7119 12.5461 52.7151 10.0967ZM44.3024 15.5249C44.3048 15.5249 44.3079 15.5249 44.3103 15.5249C44.3103 14.8538 44.2954 14.1819 44.3134 13.5108C44.3441 12.3561 44.8674 11.4816 45.9634 11.1144C47.0375 10.7543 48.1579 10.5319 49.2587 10.2542C49.4481 10.2067 49.6437 10.175 49.8378 10.156C50.2534 10.1165 50.6432 10.1869 50.8364 10.6095C51.0517 11.0788 51.1334 11.5885 50.8467 12.0443C50.75 12.1986 50.4467 12.2999 50.2503 12.2817C50.1372 12.2714 49.9894 11.9842 49.9612 11.8053C49.8747 11.2513 49.8331 11.2007 49.2886 11.321C48.407 11.5149 47.5207 11.6874 46.6478 11.9161C45.635 12.1812 45.3867 12.5089 45.3702 13.5606C45.3506 14.758 45.349 15.9562 45.3679 17.1544C45.382 18.0764 45.6649 18.3272 46.559 18.1808C47.5262 18.0225 48.4832 17.8041 49.4465 17.6197C49.7891 17.554 49.9054 17.3404 49.9462 17.0127C49.9761 16.7761 50.0444 16.5133 50.1843 16.3329C50.2778 16.2134 50.5473 16.1469 50.7029 16.1881C50.827 16.2213 50.9598 16.4445 50.9834 16.5988C51.1374 17.6047 50.6164 18.408 49.6312 18.6414C48.6773 18.8678 47.7132 19.0537 46.7484 19.2286C46.4176 19.2888 46.0695 19.2832 45.7309 19.265C44.9601 19.2231 44.4957 18.8496 44.3842 18.0843C44.2954 17.4773 44.3221 16.8529 44.3032 16.2356C44.2962 15.9997 44.3024 15.7623 44.3024 15.5249ZM36.1082 17.2739C36.1082 16.4849 36.0627 15.6927 36.12 14.9076C36.1892 13.9611 36.7109 13.2544 37.5885 12.9315C38.4677 12.6086 39.3902 12.4028 40.2977 12.1622C40.6889 12.0586 41.0889 11.9802 41.4888 11.9193C41.906 11.8552 42.3295 11.8805 42.5629 12.2999C42.8229 12.7684 42.8858 13.2924 42.6281 13.7719C42.5424 13.931 42.236 14.0632 42.0482 14.0426C41.9202 14.0284 41.752 13.7411 41.7229 13.5559C41.6357 12.9995 41.6098 12.9568 41.0512 13.0779C40.1822 13.2662 39.3077 13.4356 38.4473 13.658C37.3905 13.931 37.1454 14.2681 37.1367 15.3555C37.1273 16.488 37.1312 17.6197 37.1304 18.7522C37.1304 18.844 37.1336 18.9366 37.1399 19.0284C37.1902 19.8159 37.4298 20.0636 38.2085 19.9456C39.2417 19.7897 40.2631 19.5539 41.2884 19.3481C41.6043 19.2848 41.6664 19.0435 41.7112 18.7625C41.7497 18.5259 41.8094 18.2639 41.9492 18.0835C42.0427 17.9632 42.3004 17.9157 42.4725 17.9363C42.5747 17.9482 42.7051 18.1436 42.735 18.2766C42.9447 19.1962 42.4482 20.1277 41.5407 20.3477C40.3864 20.627 39.2079 20.8075 38.0387 21.0212C37.8745 21.0512 37.6993 21.0346 37.5304 21.0212C36.6755 20.9563 36.2088 20.5819 36.1271 19.7169C36.0509 18.9089 36.1106 18.0882 36.1106 17.2731L36.1082 17.2739ZM27.7215 19.0332C27.7365 19.0332 27.7514 19.0332 27.7663 19.0332C27.7663 18.4547 27.6964 17.8651 27.7789 17.2984C28.0358 15.5368 29.4108 14.2594 31.2902 13.9674C31.548 13.9271 31.8112 13.8994 32.0712 13.9025C33.3771 13.9191 34.2932 14.6979 34.3852 16.0013C34.4629 17.1014 34.4763 18.2188 34.3805 19.3157C34.2272 21.0591 32.8672 22.3808 31.0113 22.7377C30.8825 22.7622 30.7536 22.7868 30.624 22.8026C28.8412 23.0242 27.7435 22.0626 27.7215 20.2582C27.7168 19.8499 27.7215 19.4415 27.7215 19.0332ZM20.4105 20.6326C20.4128 20.6326 20.4144 20.6326 20.4167 20.6326C20.4167 19.4486 20.4152 18.2647 20.4175 17.0808C20.4191 16.4667 20.5613 16.2894 21.1616 16.1723C22.3025 15.9499 23.4378 15.6689 24.5889 15.5368C26.1627 15.3555 26.8368 16.1778 26.5005 17.7337C26.2672 18.8155 25.5435 19.4399 24.5394 19.728C23.6617 19.9797 22.7605 20.1538 21.8632 20.3303C21.5615 20.3896 21.4594 20.4973 21.4649 20.8122C21.4837 21.864 21.4704 22.9166 21.4665 23.9691C21.4657 24.1132 21.4735 24.2643 21.435 24.3996C21.3392 24.7392 21.0799 24.8887 20.7491 24.8658C20.4042 24.842 20.4112 24.5563 20.4105 24.3015C20.4081 23.5908 20.4097 22.881 20.4097 22.1703C20.4105 21.6582 20.4105 21.1454 20.4105 20.6326Z" fill="#EFEFEF"/>
</svg>
