<svg width="110" height="70" viewBox="0 0 110 70" fill="none" xmlns="http://www.w3.org/2000/svg">
<path fill-rule="evenodd" clip-rule="evenodd" d="M28.2447 39.413C32.3387 33.297 34.4108 27.0808 34.4295 19.7253C34.4483 12.3698 32.2198 6.09098 28.2447 0C24.6514 5.73416 22.3665 11.7312 22.1537 18.4169C21.9137 25.8872 24.0555 33.2402 28.2697 39.413H28.2447ZM28.2447 37.9857C27.1041 35.7774 26.5074 33.3285 26.5044 30.843C26.5039 28.3651 27.1008 25.9235 28.2447 23.7254C29.384 25.9373 29.9784 28.3894 29.9784 30.8775C29.9784 33.3655 29.384 35.8176 28.2447 38.0295V37.9857ZM23.6498 18.2542C24.0567 12.8267 25.6968 7.9502 28.2196 3.04236C31.0704 8.03057 32.6867 13.6284 32.9334 19.3684C33.0655 21.9731 32.8486 24.5837 32.2886 27.1308C32.4207 24.5577 32.2527 21.9779 31.7878 19.4436C31.1237 15.9439 29.9289 12.5663 28.2447 9.42756C26.7702 12.2672 25.6657 15.284 24.9582 18.4044C24.3746 21.2879 24.1122 24.2271 24.1757 27.1684C23.6871 24.2364 23.5192 21.26 23.6749 18.2917L23.6498 18.2542Z" fill="#0061AD"/>
<path fill-rule="evenodd" clip-rule="evenodd" d="M21.9594 46.6684C23.1488 45.504 24.2694 44.9093 25.9596 45.0783C28.6701 45.3412 30.4104 46.9563 30.5544 49.6481C30.8173 54.7876 24.0064 57.9051 19.7434 57.6672C13.5835 57.3604 9.4895 53.3853 8.51294 47.72C8.26324 45.9481 8.41487 44.1427 8.95663 42.4372C9.49839 40.7317 10.4164 39.1698 11.6429 37.8668C14.0468 35.2939 17.2769 34.2736 20.6886 34.1984V18.755C9.1452 18.755 0.619075 26.9431 0.0306351 38.161C-0.595365 50.681 8.45034 59.132 20.0188 59.5389C26.1599 59.7768 30.7547 57.4669 34.9677 53.4918V40.1767H21.9594V46.6684Z" fill="#0061AD"/>
<path fill-rule="evenodd" clip-rule="evenodd" d="M38.0352 59.0817H41.8913V43.2189H43.6692V40.2015H38.0352V59.0817Z" fill="#0061AD"/>
<path fill-rule="evenodd" clip-rule="evenodd" d="M45.6598 40.1957L43.8319 59.0571H47.2749L47.6693 55.5953H49.1717L49.5911 59.0571H53.0278L51.1811 40.1957H45.6598ZM47.8133 52.1711L48.3266 45.3664H48.4956L49.0527 52.1711H47.8133Z" fill="#0061AD"/>
<path fill-rule="evenodd" clip-rule="evenodd" d="M62.0861 49.3478V49.135C62.9312 48.9972 62.9062 47.3383 62.9062 46.5871V43.5698C62.9062 41.2536 62.7434 40.1957 60.0516 40.1957H56.8465C54.1297 40.1957 53.9669 41.5541 53.9669 43.5698V46.0738H57.8293V43.9454C57.8293 43.7794 57.8953 43.6202 58.0127 43.5028C58.1301 43.3854 58.2893 43.3194 58.4553 43.3194C58.6214 43.3194 58.7806 43.3854 58.898 43.5028C59.0154 43.6202 59.0813 43.7794 59.0813 43.9454V46.1928C59.0813 47.3634 58.7057 47.595 57.6102 47.595H56.8465V50.894H57.4725C58.9248 50.894 59.0187 51.52 59.0187 52.146V55.5828C59.0187 55.7488 58.9528 55.908 58.8354 56.0254C58.718 56.1428 58.5588 56.2088 58.3927 56.2088C58.2267 56.2088 58.0675 56.1428 57.9501 56.0254C57.8327 55.908 57.7667 55.7488 57.7667 55.5828V52.265H53.9669V55.7267C53.9669 58.4185 54.1297 59.1197 56.8465 59.1197H60.0516C62.5556 59.1197 62.9062 58.6502 62.9062 55.7267V51.9332C62.9062 51.2571 63.0189 49.3854 62.0861 49.3854V49.3478Z" fill="#0061AD"/>
<path fill-rule="evenodd" clip-rule="evenodd" d="M64.6339 59.0817H68.4963V43.2627H69.7108V59.0817H73.5732V40.2015H64.6339V59.0817Z" fill="#0061AD"/>
<path fill-rule="evenodd" clip-rule="evenodd" d="M81.6738 40.1957H75.6141V59.0571H79.4703V52.6468H81.6738C84.3844 52.6468 84.5472 51.4324 84.5472 49.2789V43.5698C84.5472 41.9047 84.3844 40.1957 81.6738 40.1957ZM80.691 48.7594C80.691 49.3854 80.3843 49.7234 79.9648 49.7234H79.4703V43.2193H79.9648C80.3843 43.2193 80.691 43.5698 80.691 44.152V48.7594Z" fill="#0061AD"/>
<path fill-rule="evenodd" clip-rule="evenodd" d="M92.2218 40.1957H89.0167C86.3249 40.1957 86.1621 41.7419 86.1621 43.5197V55.6892C86.1621 57.8864 86.3249 59.0821 89.0167 59.0821H92.2218C94.9386 59.0821 95.1014 58.0242 95.1014 55.6892V43.5698C95.1014 41.7419 94.9386 40.1957 92.2218 40.1957ZM91.239 55.4513C91.239 55.6173 91.173 55.7766 91.0556 55.894C90.9382 56.0113 90.779 56.0773 90.613 56.0773C90.5288 56.085 90.444 56.0741 90.3646 56.0454C90.2852 56.0166 90.213 55.9708 90.1533 55.911C90.0935 55.8513 90.0477 55.7791 90.0189 55.6997C89.9902 55.6202 89.9793 55.5354 89.987 55.4513V43.8703C89.9781 43.7859 89.9882 43.7006 90.0166 43.6206C90.0449 43.5407 90.0907 43.468 90.1507 43.408C90.2107 43.348 90.2833 43.3022 90.3633 43.2739C90.4433 43.2456 90.5286 43.2354 90.613 43.2443C90.779 43.2443 90.9382 43.3103 91.0556 43.4276C91.173 43.545 91.239 43.7043 91.239 43.8703V55.4513Z" fill="#0061AD"/>
<path fill-rule="evenodd" clip-rule="evenodd" d="M104.88 40.2015L103.333 48.8341L101.931 40.2015H96.8982V59.0817H100.786V50.518H100.923L102.213 59.0817H104.573L105.906 50.518H106.05V59.0817H109.906V40.2015H104.88Z" fill="#0061AD"/>
<path fill-rule="evenodd" clip-rule="evenodd" d="M2.23427 64.4154C2.28924 64.4128 2.34416 64.4216 2.39551 64.4414C2.44685 64.4612 2.49348 64.4916 2.53239 64.5305C2.57131 64.5694 2.60165 64.616 2.62146 64.6674C2.64127 64.7187 2.65012 64.7736 2.64743 64.8286V67.3326C2.64743 67.4422 2.60391 67.5473 2.52642 67.6248C2.44894 67.7022 2.34385 67.7458 2.23427 67.7458C2.1247 67.7458 2.01961 67.7022 1.94213 67.6248C1.86464 67.5473 1.82111 67.4422 1.82111 67.3326V64.8286C1.81843 64.7736 1.82728 64.7187 1.84709 64.6674C1.8669 64.616 1.89724 64.5694 1.93616 64.5305C1.97507 64.4916 2.0217 64.4612 2.07304 64.4414C2.12438 64.4216 2.17931 64.4128 2.23427 64.4154ZM0.631714 64.9037V67.1198C0.631714 68.1088 1.13877 68.6597 2.23427 68.6597C3.32977 68.6597 3.83057 68.1088 3.83057 67.1198V64.9162C3.83057 64.1463 3.35481 63.5203 2.24053 63.5203C1.12625 63.5203 0.631714 64.1463 0.631714 64.9037Z" fill="#A6A6A5"/>
<path fill-rule="evenodd" clip-rule="evenodd" d="M5.3392 64.6221H4.41272V63.6331H7.30484V64.6221H6.42844V68.5597H5.3392V64.6221Z" fill="#A6A6A5"/>
<path fill-rule="evenodd" clip-rule="evenodd" d="M7.93713 63.6331H9.0702V65.5924L9.89652 63.6331H11.1923L10.1031 65.8053L11.1923 68.5597H9.94034L9.39572 66.8444L9.0702 67.4141V68.5597H7.93713V63.6331Z" fill="#A6A6A5"/>
<path fill-rule="evenodd" clip-rule="evenodd" d="M12.9952 65.7552V64.5032H13.1892C13.5335 64.5032 13.7714 64.6221 13.7714 65.1292C13.7714 65.6363 13.5022 65.7552 13.208 65.7552H12.9952ZM11.812 68.5597H12.9952V66.6316H13.5335C13.7328 66.6543 13.9346 66.6306 14.1232 66.5625C14.3119 66.4943 14.4822 66.3835 14.621 66.2387C14.7597 66.0939 14.8632 65.919 14.9232 65.7276C14.9832 65.5362 14.9982 65.3336 14.9671 65.1355C14.9671 63.8835 14.2159 63.6331 13.5335 63.6331H11.812V68.5597Z" fill="#A6A6A5"/>
<path fill-rule="evenodd" clip-rule="evenodd" d="M15.6807 63.6331H16.8638V65.5486H17.4022C17.6021 65.5281 17.8041 65.5536 17.9926 65.6234C18.1811 65.6931 18.3511 65.8051 18.4895 65.9508C18.628 66.0965 18.7312 66.272 18.7912 66.4638C18.8512 66.6556 18.8664 66.8587 18.8357 67.0573C18.8357 68.3093 18.0845 68.5597 17.4022 68.5597H15.6807V63.6331ZM16.8638 66.4375V67.6895H17.0579C17.4022 67.6895 17.6463 67.5769 17.6463 67.0635C17.6463 66.5502 17.3771 66.4375 17.0766 66.4375H16.8638ZM19.3177 68.5597H20.5009V63.6331H19.3177V68.5597Z" fill="#A6A6A5"/>
<path fill-rule="evenodd" clip-rule="evenodd" d="M22.0536 64.6221H21.1208V63.6331H24.013V64.6221H23.1428V68.5597H22.0536V64.6221Z" fill="#A6A6A5"/>
<path fill-rule="evenodd" clip-rule="evenodd" d="M26.179 64.4154C26.2334 64.4136 26.2877 64.4232 26.3383 64.4434C26.3889 64.4636 26.4347 64.4941 26.4729 64.5329C26.5112 64.5717 26.5409 64.618 26.5604 64.6689C26.5798 64.7198 26.5885 64.7742 26.5859 64.8286V67.3326C26.5931 67.3907 26.5878 67.4497 26.5705 67.5056C26.5532 67.5615 26.5242 67.6131 26.4854 67.657C26.4466 67.7008 26.399 67.736 26.3456 67.76C26.2923 67.7841 26.2344 67.7965 26.1758 67.7965C26.1173 67.7965 26.0594 67.7841 26.0061 67.76C25.9527 67.736 25.905 67.7008 25.8663 67.657C25.8275 67.6131 25.7985 67.5615 25.7812 67.5056C25.7639 67.4497 25.7586 67.3907 25.7658 67.3326V64.8286C25.7631 64.7736 25.772 64.7187 25.7918 64.6674C25.8116 64.616 25.8419 64.5694 25.8809 64.5305C25.9198 64.4916 25.9664 64.4612 26.0177 64.4414C26.0691 64.4216 26.124 64.4128 26.179 64.4154ZM24.5764 64.9037V67.1198C24.5764 68.1088 25.0772 68.6597 26.179 68.6597C27.2807 68.6597 27.7753 68.1088 27.7753 67.1198V64.9162C27.7753 64.1463 27.2995 63.5203 26.179 63.5203C25.0584 63.5203 24.5764 64.1463 24.5764 64.9037Z" fill="#A6A6A5"/>
<path fill-rule="evenodd" clip-rule="evenodd" d="M28.5826 63.6331H31.3433V64.5595H29.772V65.5173H31.2244V66.4501H29.772V67.6207H31.3433V68.5597H28.5826V63.6331Z" fill="#A6A6A5"/>
<path fill-rule="evenodd" clip-rule="evenodd" d="M35.143 66.6817L35.456 64.5157L35.7752 66.6817H35.143ZM33.6969 68.5597H34.8738L35.024 67.5706H35.9317L36.107 68.5597H37.2714L36.1821 63.6331H34.7674L33.6969 68.5597Z" fill="#A6A6A5"/>
<path fill-rule="evenodd" clip-rule="evenodd" d="M37.8348 63.6331H38.9679V65.5924L39.8005 63.6331H41.09L39.9945 65.8053L41.09 68.5597H39.8443L39.2934 66.8444L38.9679 67.4141V68.5597H37.8348V63.6331Z" fill="#A6A6A5"/>
<path fill-rule="evenodd" clip-rule="evenodd" d="M43.6629 67.5706V63.6331H44.8523V67.5706H45.1089V69.5738H43.9508V68.5597H41.7035V63.6331H42.8929V67.5706H43.6629Z" fill="#A6A6A5"/>
<path fill-rule="evenodd" clip-rule="evenodd" d="M48.8649 68.5596H47.7381V67.414C47.7381 66.8819 47.8946 66.0806 47.9447 65.536L46.9243 68.5345H45.7725V63.6079H46.918V64.8599C46.918 65.3983 46.7678 66.1745 46.7302 66.7379L47.7381 63.6455H48.8649V68.5721V68.5596Z" fill="#A6A6A5"/>
<path fill-rule="evenodd" clip-rule="evenodd" d="M51.2563 64.4154C51.3107 64.4136 51.3649 64.4232 51.4155 64.4434C51.4661 64.4636 51.512 64.4941 51.5502 64.5329C51.5884 64.5717 51.6182 64.618 51.6377 64.6689C51.6571 64.7198 51.6658 64.7742 51.6631 64.8286V67.3326C51.6703 67.3907 51.6651 67.4497 51.6478 67.5056C51.6305 67.5615 51.6015 67.6131 51.5627 67.657C51.5239 67.7008 51.4763 67.736 51.4229 67.76C51.3695 67.7841 51.3117 67.7965 51.2531 67.7965C51.1946 67.7965 51.1367 67.7841 51.0833 67.76C51.03 67.736 50.9823 67.7008 50.9435 67.657C50.9048 67.6131 50.8758 67.5615 50.8585 67.5056C50.8411 67.4497 50.8359 67.3907 50.8431 67.3326V64.8286C50.8404 64.7736 50.8493 64.7187 50.8691 64.6674C50.8889 64.616 50.9192 64.5694 50.9581 64.5305C50.997 64.4916 51.0437 64.4612 51.095 64.4414C51.1464 64.4216 51.2013 64.4128 51.2563 64.4154ZM49.6537 64.9037V67.1198C49.6537 68.1088 50.1608 68.6597 51.2563 68.6597C52.3518 68.6597 52.8526 68.1088 52.8526 67.1198V64.9162C52.8526 64.1463 52.3768 63.5203 51.2625 63.5203C50.1482 63.5203 49.6537 64.1463 49.6537 64.9037Z" fill="#A6A6A5"/>
<path fill-rule="evenodd" clip-rule="evenodd" d="M54.8496 68.5597H53.6602V63.6331H54.8496V65.4923H55.6258V63.6331H56.8089V68.5597H55.6258V66.4751H54.8496V68.5597Z" fill="#A6A6A5"/>
<path fill-rule="evenodd" clip-rule="evenodd" d="M57.6976 63.6331H60.452V64.5595H58.8808V65.5173H60.3394V66.4501H58.8808V67.6207H60.452V68.5597H57.6976V63.6331Z" fill="#A6A6A5"/>
<path fill-rule="evenodd" clip-rule="evenodd" d="M62.3677 65.7552V64.5032H62.5618C62.9061 64.5032 63.1439 64.6221 63.1439 65.1292C63.1439 65.6363 62.8748 65.7552 62.5805 65.7552H62.3677ZM61.1783 68.5597H62.3677V66.6316H62.8935C63.5884 66.6316 64.3208 66.3499 64.3208 65.1355C64.3208 63.921 63.5821 63.6331 62.8935 63.6331H61.1658V68.5597H61.1783Z" fill="#A6A6A5"/>
<path fill-rule="evenodd" clip-rule="evenodd" d="M66.2366 68.5597H65.0535V63.6331H66.2366V65.4923H67.0129V63.6331H68.2023V68.5597H67.0129V66.4751H66.2366V68.5597Z" fill="#A6A6A5"/>
<path fill-rule="evenodd" clip-rule="evenodd" d="M70.6062 64.4154C70.6612 64.4128 70.7161 64.4216 70.7674 64.4414C70.8188 64.4612 70.8654 64.4916 70.9043 64.5305C70.9432 64.5694 70.9736 64.616 70.9934 64.6674C71.0132 64.7187 71.022 64.7736 71.0194 64.8286V67.3326C71.0228 67.3886 71.0147 67.4448 70.9954 67.4975C70.9761 67.5502 70.9461 67.5984 70.9073 67.639C70.8685 67.6795 70.8217 67.7116 70.7699 67.7332C70.7181 67.7549 70.6623 67.7655 70.6062 67.7645C70.5503 67.7656 70.4948 67.7549 70.4433 67.7333C70.3918 67.7116 70.3454 67.6794 70.3071 67.6387C70.2688 67.598 70.2394 67.5498 70.2208 67.4971C70.2022 67.4443 70.1949 67.3883 70.1993 67.3326V64.8286C70.1957 64.7739 70.2037 64.7192 70.2228 64.6678C70.2419 64.6165 70.2716 64.5697 70.31 64.5307C70.3485 64.4917 70.3947 64.4613 70.4458 64.4414C70.4968 64.4215 70.5515 64.4127 70.6062 64.4154ZM69.0099 64.9037V67.1198C69.0099 68.1088 69.5044 68.6597 70.6062 68.6597C71.708 68.6597 72.2025 68.1088 72.2025 67.1198V64.9162C72.2025 64.1463 71.733 63.5203 70.6125 63.5203C69.4919 63.5203 69.0099 64.1463 69.0099 64.9037Z" fill="#A6A6A5"/>
<path fill-rule="evenodd" clip-rule="evenodd" d="M73.0161 63.6331H75.7705V64.5595H74.2055V65.5173H75.6516V66.4501H74.2055V67.6207H75.7705V68.5597H73.0161V63.6331Z" fill="#A6A6A5"/>
<path fill-rule="evenodd" clip-rule="evenodd" d="M79.9897 64.4154C80.0447 64.4128 80.0996 64.4216 80.1509 64.4414C80.2023 64.4612 80.2489 64.4916 80.2878 64.5305C80.3267 64.5694 80.3571 64.616 80.3769 64.6674C80.3967 64.7187 80.4056 64.7736 80.4029 64.8286V67.3326C80.4029 67.4422 80.3593 67.5473 80.2819 67.6248C80.2044 67.7022 80.0993 67.7458 79.9897 67.7458C79.8801 67.7458 79.775 67.7022 79.6976 67.6248C79.6201 67.5473 79.5765 67.4422 79.5765 67.3326V64.8286C79.5739 64.7736 79.5827 64.7187 79.6025 64.6674C79.6223 64.616 79.6527 64.5694 79.6916 64.5305C79.7305 64.4916 79.7771 64.4612 79.8285 64.4414C79.8798 64.4216 79.9347 64.4128 79.9897 64.4154ZM78.3934 64.9037V67.1198C78.3675 67.3332 78.3915 67.5497 78.4635 67.7522C78.5355 67.9548 78.6534 68.1379 78.8081 68.2872C78.9629 68.4364 79.1501 68.5477 79.3551 68.6124C79.5601 68.677 79.7774 68.6932 79.9897 68.6597C81.0977 68.6597 81.586 68.1088 81.586 67.1198V64.9162C81.586 64.1463 81.1165 63.5203 79.996 63.5203C78.8754 63.5203 78.3934 64.1463 78.3934 64.9037Z" fill="#A6A6A5"/>
<path fill-rule="evenodd" clip-rule="evenodd" d="M82.3997 63.6331H85.0789V64.5157H83.5828V65.5486H84.1212C84.3211 65.5281 84.5231 65.5536 84.7116 65.6234C84.9001 65.6931 85.0701 65.8051 85.2085 65.9508C85.347 66.0965 85.4502 66.272 85.5102 66.4638C85.5702 66.6556 85.5854 66.8587 85.5547 67.0573C85.5547 68.3093 84.8098 68.5597 84.1212 68.5597H82.3997V63.6331ZM83.5828 66.4375V67.6895H83.7769C84.1212 67.6895 84.359 67.5769 84.359 67.0635C84.359 66.5502 84.0899 66.4375 83.8019 66.4375H83.5828Z" fill="#A6A6A5"/>
<path fill-rule="evenodd" clip-rule="evenodd" d="M86.325 63.6331H87.5081V67.5706H88.2906V63.6331H89.4362V67.5706H90.2187V63.6331H91.4081V67.5706H91.6522V69.5738H90.4941V68.5597H86.325V63.6331Z" fill="#A6A6A5"/>
<path fill-rule="evenodd" clip-rule="evenodd" d="M92.3469 63.6331H95.1013V64.5595H93.5301V65.5173H94.9824V66.4501H93.5301V67.6207H95.1013V68.5597H92.3469V63.6331Z" fill="#A6A6A5"/>
<path fill-rule="evenodd" clip-rule="evenodd" d="M98.901 66.6064V67.0697C98.901 68.1902 98.4002 68.666 97.2984 68.666C96.1966 68.666 95.6896 68.1965 95.6896 67.0634V64.9162C95.6896 64.14 96.1716 63.5203 97.2984 63.5203C98.4252 63.5203 98.901 64.1463 98.901 64.9225V65.367H97.7178V64.8098C97.7146 64.7564 97.7009 64.704 97.6775 64.6559C97.654 64.6077 97.6213 64.5647 97.5811 64.5292C97.541 64.4937 97.4943 64.4665 97.4436 64.4491C97.3929 64.4318 97.3393 64.4246 97.2859 64.428C97.2351 64.4227 97.1839 64.4282 97.1354 64.444C97.0869 64.4599 97.0423 64.4858 97.0045 64.5201C96.9667 64.5543 96.9365 64.5962 96.916 64.6428C96.8954 64.6895 96.885 64.74 96.8852 64.791V67.2575C96.8852 67.6268 97.0417 67.7771 97.2859 67.7771C97.53 67.7771 97.7178 67.6268 97.7178 67.2575V66.6315L98.901 66.6064Z" fill="#A6A6A5"/>
<path fill-rule="evenodd" clip-rule="evenodd" d="M100.404 64.6221H99.4708V63.6331H102.369V64.6221H101.499V68.5597H100.404V64.6221Z" fill="#A6A6A5"/>
<path fill-rule="evenodd" clip-rule="evenodd" d="M104.159 64.5157H104.51C104.573 64.5047 104.638 64.5091 104.699 64.5285C104.761 64.5479 104.816 64.5817 104.862 64.6271C104.907 64.6725 104.941 64.7282 104.96 64.7894C104.98 64.8507 104.984 64.9157 104.973 64.9789C104.973 65.367 104.848 65.5423 104.51 65.5423H104.159V64.5157ZM104.159 66.3937H104.454C104.873 66.3937 105.004 66.619 105.004 67.0197C105.004 67.4203 104.873 67.6457 104.429 67.6457H104.159V66.3937ZM104.666 68.5346C104.866 68.5625 105.07 68.5443 105.262 68.4815C105.454 68.4188 105.629 68.313 105.774 68.1724C105.919 68.0317 106.03 67.8598 106.098 67.6698C106.167 67.4799 106.191 67.2768 106.169 67.076C106.191 66.8358 106.134 66.5948 106.006 66.3901C105.879 66.1854 105.687 66.0283 105.461 65.943C105.675 65.8704 105.858 65.7274 105.979 65.5375C106.101 65.3476 106.155 65.1219 106.131 64.8975C106.145 64.7334 106.123 64.5684 106.068 64.4133C106.012 64.2582 105.925 64.1167 105.81 63.9982C105.696 63.8797 105.558 63.787 105.405 63.7262C105.252 63.6654 105.088 63.6379 104.923 63.6455H103.045V68.5722L104.666 68.5346Z" fill="#A6A6A5"/>
<path fill-rule="evenodd" clip-rule="evenodd" d="M108.404 64.4154C108.459 64.4128 108.514 64.4216 108.565 64.4414C108.616 64.4612 108.663 64.4916 108.702 64.5305C108.741 64.5694 108.771 64.616 108.791 64.6674C108.811 64.7187 108.82 64.7736 108.817 64.8286V67.3326C108.817 67.3869 108.806 67.4406 108.785 67.4907C108.765 67.5408 108.734 67.5864 108.696 67.6248C108.658 67.6631 108.612 67.6935 108.562 67.7143C108.512 67.7351 108.458 67.7458 108.404 67.7458C108.35 67.7458 108.296 67.7351 108.246 67.7143C108.196 67.6935 108.15 67.6631 108.112 67.6248C108.073 67.5864 108.043 67.5408 108.022 67.4907C108.001 67.4406 107.991 67.3869 107.991 67.3326V64.8286C107.988 64.7736 107.997 64.7187 108.017 64.6674C108.036 64.616 108.067 64.5694 108.106 64.5305C108.145 64.4916 108.191 64.4612 108.243 64.4414C108.294 64.4216 108.349 64.4128 108.404 64.4154ZM106.807 64.9037V67.1198C106.782 67.3332 106.806 67.5497 106.878 67.7522C106.95 67.9548 107.068 68.1379 107.222 68.2872C107.377 68.4364 107.564 68.5477 107.769 68.6124C107.974 68.677 108.191 68.6932 108.404 68.6597C109.518 68.6597 110 68.1088 110 67.1198V64.9162C110 64.1463 109.531 63.5203 108.41 63.5203C107.289 63.5203 106.807 64.1463 106.807 64.9037Z" fill="#A6A6A5"/>
</svg>
