<svg width="110" height="55" viewBox="0 0 110 55" fill="none" xmlns="http://www.w3.org/2000/svg">
<path fill-rule="evenodd" clip-rule="evenodd" d="M29.9898 9.77775C28.8396 4.75246 25.9583 0.667163 25.5576 0C24.9346 0.938419 22.6332 4.54314 21.4633 8.54847C20.1888 13.0085 20.0018 16.9676 20.4403 20.8694C20.8771 24.7689 22.5303 28.7664 22.5303 28.7664C23.4063 30.8667 24.7232 33.1175 25.5796 34.2221C26.8313 32.5961 29.718 27.7496 30.6153 21.408C31.1173 17.8864 31.1393 14.803 29.9898 9.77775ZM25.5576 32.9748C24.9966 31.9117 24.1182 29.8938 24.0349 26.7681C24.0121 23.7466 25.2245 21.1587 25.5796 20.6178C25.8939 21.1587 26.9373 23.4119 27.0623 26.4976C27.1487 29.5159 26.143 31.8898 25.5576 32.9748ZM29.6559 18.3035C29.6127 20.2211 29.3825 22.2437 29.0894 23.4519C29.1947 21.3673 28.9456 18.4274 28.4632 16.1342C27.9831 13.8434 26.6231 10.0067 25.5388 8.23175C24.5354 9.922 23.3018 13.2374 22.6544 16.1131C22.0038 18.9926 21.985 22.4735 21.985 23.5169C21.8145 22.6357 21.3823 19.4998 21.5049 16.342C21.6055 13.7431 22.2152 11.069 22.5483 9.83811C23.8228 5.73322 25.2661 3.10768 25.538 2.6906C25.8067 3.10768 27.6272 6.33923 28.5677 9.7362C29.5066 13.1324 29.696 16.3859 29.6559 18.3035Z" fill="#017AC3"/>
<path fill-rule="evenodd" clip-rule="evenodd" d="M27.511 35.3924H18.7684V41.2527C18.7723 41.2433 18.7802 41.2331 18.7872 41.2268C20.8489 39.1704 24.189 39.1704 26.2507 41.2268C28.3117 43.2832 28.3117 46.6182 26.2507 48.6699C26.2405 48.6785 26.2342 48.6863 26.2248 48.6957C26.2248 48.6957 26.2248 48.6957 26.2248 48.6981C26.213 48.7075 26.2004 48.7145 26.191 48.7247C24.1395 50.7615 21.4532 51.7768 18.7684 51.7768C16.0718 51.7768 13.3721 50.7521 11.3143 48.7012C7.689 45.084 7.25922 39.484 10.0218 35.3924C10.395 34.8397 10.8248 34.3145 11.3143 33.8292C13.3729 31.776 16.0726 30.7537 18.7684 30.7537V16.6774C8.40165 16.6774 0 25.0604 0 35.3924C0 45.7362 8.40165 54.1224 18.7684 54.1224C24.1709 54.1224 29.0384 51.8387 32.465 48.1932V35.3924H27.511Z" fill="#017AC3"/>
<path fill-rule="evenodd" clip-rule="evenodd" d="M34.6841 16.6774H41.8412V18.9972H38.4367V35.387H34.6841V16.6774Z" fill="#017AC3"/>
<path fill-rule="evenodd" clip-rule="evenodd" d="M45.8903 28.3594L46.533 18.9956H46.7483L47.3894 28.3594H45.8903ZM41.7378 35.387H45.4087L45.7559 30.4189H47.5238L47.8742 35.387H51.5427L49.5871 16.6774H43.6934L41.7378 35.387Z" fill="#017AC3"/>
<path fill-rule="evenodd" clip-rule="evenodd" d="M56.4728 28.8384V32.3647C56.4728 32.8453 56.8491 32.9794 57.0636 32.9794C57.4156 32.9794 57.6505 32.6885 57.6505 32.3647V28.0097C57.6505 27.4225 57.5429 26.782 56.1514 26.782H54.6263V24.7249H56.2072C57.2797 24.7249 57.6513 24.4803 57.6513 23.3349V19.6126C57.6513 19.2919 57.4164 18.9972 57.0644 18.9972C56.8507 18.9972 56.4736 19.1312 56.4736 19.6126V22.6646H52.7241V20.0171C52.7241 18.7079 52.8852 16.6774 55.5103 16.6774H58.6186C61.2491 16.6774 61.4039 18.7079 61.4039 20.0171V23.0135C61.4039 25.0432 59.9888 25.6037 58.8605 25.5512V25.7401C61.3827 25.6853 61.4039 27.6091 61.4039 28.2794V32.0456C61.4039 33.3549 61.2491 35.387 58.6186 35.387H55.5103C52.8852 35.387 52.7241 33.3549 52.7241 32.0456V28.8376H56.4728V28.8384Z" fill="#017AC3"/>
<path fill-rule="evenodd" clip-rule="evenodd" d="M63.377 16.6774H72.0599V35.387H68.3112V18.9972H67.1303V35.387H63.377V16.6774Z" fill="#017AC3"/>
<path fill-rule="evenodd" clip-rule="evenodd" d="M78.0041 26.9717V18.9971H78.4866C78.8912 18.9971 79.1835 19.3444 79.1835 19.93V26.0317C79.1835 26.6205 78.8912 26.9709 78.4866 26.9709H78.0041V26.9717ZM74.2539 35.3869H78.0033V29.0296H80.1476C82.7695 29.0296 82.9337 26.9952 82.9337 25.686V20.0178C82.9337 18.7086 82.7695 16.6781 80.1476 16.6781H74.2539V35.3869Z" fill="#017AC3"/>
<path fill-rule="evenodd" clip-rule="evenodd" d="M89.688 32.3647C89.688 32.6885 89.4444 32.9794 89.101 32.9794C88.8842 32.9794 88.5086 32.8453 88.5086 32.3647V19.6126C88.5086 19.1312 88.8842 18.9972 89.101 18.9972C89.4452 18.9972 89.688 19.2919 89.688 19.6126V32.3647ZM84.7568 32.0456C84.7568 33.3549 84.9179 35.387 87.5422 35.387H90.652C93.2795 35.387 93.4366 33.3549 93.4366 32.0456V20.0171C93.4366 18.7079 93.2795 16.6774 90.652 16.6774H87.5422C84.9179 16.6774 84.7568 18.7079 84.7568 20.0171V32.0456Z" fill="#017AC3"/>
<path fill-rule="evenodd" clip-rule="evenodd" d="M105.12 16.6774H110V35.387H106.248V23.6555H106.114L104.185 35.387H101.183L99.2543 23.6555H99.12V35.387H95.3682V16.6774H100.246L102.683 29.8293L105.12 16.6774Z" fill="#017AC3"/>
<path d="M67.4908 47.9412H67.2236V49.0669H67.4641C67.8616 49.0669 67.9795 48.9109 67.9795 48.5135C67.9795 48.1419 67.8608 47.9412 67.4908 47.9412Z" fill="#017AC3"/>
<path d="M74.214 47.9412H74.0098V49.0669H74.1944C74.5016 49.0669 74.7177 48.9635 74.7177 48.526C74.7185 48.0815 74.4804 47.9412 74.214 47.9412Z" fill="#017AC3"/>
<path d="M55.2378 46.2407H55.0649V47.3469H55.2551C55.5175 47.3469 55.7729 47.2176 55.7729 46.7793C55.7729 46.3442 55.545 46.2407 55.2378 46.2407Z" fill="#017AC3"/>
<path d="M52.0348 46.1622C51.8525 46.1622 51.6655 46.272 51.6655 46.5213V48.7588C51.6655 49.0198 51.8525 49.1515 52.0348 49.1515C52.2147 49.1515 52.4033 49.0198 52.4033 48.7588V46.5213C52.4033 46.272 52.2147 46.1622 52.0348 46.1622Z" fill="#017AC3"/>
<path d="M41.9289 46.1622C41.7474 46.1622 41.5596 46.272 41.5596 46.5213V48.7588C41.5596 49.0198 41.7474 49.1515 41.9289 49.1515C42.1088 49.1515 42.2981 49.0198 42.2981 48.7588V46.5213C42.2981 46.272 42.1096 46.1622 41.9289 46.1622Z" fill="#017AC3"/>
<path d="M67.9551 46.65C67.9551 46.3967 67.8373 46.2407 67.5356 46.2407H67.2236V47.1509H67.5356C67.8373 47.1509 67.9551 47.0027 67.9551 46.65Z" fill="#017AC3"/>
<path d="M34.6841 41.2001V54.102H109.996V41.2001H34.6841ZM78.7061 44.3987C78.7391 44.6825 79.0275 44.7092 79.2545 44.7092C79.5146 44.7092 79.6985 44.6754 79.7747 44.3987H80.1738C80.1738 44.9247 79.7181 45.1905 79.2286 45.1905C78.6873 45.1905 78.3337 44.9702 78.2999 44.3987H78.7061ZM40.1904 49.8552H39.0699L38.5765 48.3233L38.2858 48.8305V49.8552H37.2714V45.4469H38.2858V47.203L39.0322 45.4469H40.1912L39.2098 47.3919L40.1904 49.8552ZM43.3647 48.5726C43.3647 49.4514 42.927 49.961 41.9299 49.961C40.9462 49.961 40.4976 49.4514 40.4976 48.5726V46.5915C40.4976 45.8937 40.9344 45.3489 41.9347 45.3489C42.9396 45.3489 43.3647 45.9086 43.3647 46.5985V48.5726ZM45.4366 48.1359H44.9565V49.8552H43.8942V45.4469H45.4366C46.0534 45.4469 46.7299 45.6672 46.7299 46.7945C46.7299 47.8811 46.0659 48.1359 45.4366 48.1359ZM50.0786 49.8552H49.0116V46.2842H48.3154V49.8552H47.2532V45.4469H50.0786V49.8552ZM53.469 48.5726C53.469 49.4514 53.0321 49.961 52.035 49.961C51.0513 49.961 50.6027 49.4514 50.6027 48.5726V46.5915C50.6027 45.8937 51.0395 45.3489 52.0421 45.3489C53.0447 45.3489 53.469 45.9086 53.469 46.5985V48.5726ZM55.5448 48.1359H55.0655V49.8552H54.0001V45.4469H55.5456C56.1592 45.4469 56.8365 45.6672 56.8365 46.7945C56.835 47.8811 56.171 48.1359 55.5448 48.1359ZM58.9697 49.8552L58.8134 48.9748H57.9994L57.8627 49.8552H56.8035L57.7645 45.4469H59.0389L60.0171 49.8552H58.9697ZM62.4701 46.2842H61.693V49.8552H60.7148V46.2842H59.878V45.4469H62.4709V46.2842H62.4701ZM65.6232 49.8552H64.6112V48.8313C64.6112 48.3578 64.755 47.6389 64.8084 47.1724H64.8005L63.8812 49.856H62.848V45.4477H63.8624V46.5421C63.8624 47.0297 63.7312 47.7337 63.7045 48.2198H63.7115L64.612 45.4484H65.624V49.8552H65.6232ZM67.6794 49.8552H66.196V45.4469H67.8955C68.4109 45.4469 68.9852 45.7628 68.9852 46.5523C68.9852 47.1567 68.6128 47.4382 68.3795 47.4852C68.7943 47.66 69.0245 47.9407 69.0245 48.5506C69.0253 49.3801 68.5861 49.8552 67.6794 49.8552ZM72.374 49.8552H71.3094V47.9846H70.6156V49.8552H69.5525V45.4469H70.6156V47.1512H71.3094V45.4469H72.374V49.8552ZM74.4931 49.8552H72.9476V45.4469H74.0107V47.1512H74.4931C75.1217 47.1512 75.7864 47.4272 75.7864 48.513C75.7864 49.6333 75.1075 49.8552 74.4931 49.8552ZM77.2761 49.8552H76.2123V45.4469H77.2761V49.8552ZM80.6209 49.8552H79.6081V48.8313C79.6081 48.3578 79.7566 47.6389 79.803 47.1724H79.7975L78.8813 49.856H77.845V45.4477H78.8625V46.5421C78.8625 47.0297 78.725 47.7337 78.7014 48.2198H78.7069L79.6081 45.4484H80.6209V49.8552ZM85.541 49.8552H84.5235V48.8313C84.5235 48.3578 84.6713 47.6389 84.7176 47.1724H84.7129L83.7968 49.856H82.7651V45.4477H83.7779V46.5421C83.7779 47.0297 83.6412 47.7337 83.6215 48.2198H83.627L84.5243 45.4484H85.5418V49.8552H85.541ZM88.9361 49.8552H87.8715V47.9846H87.1745V49.8552H86.1099V45.4469H87.1745V47.1512H87.8715V45.4469H88.9361V49.8552ZM92.3375 46.9043H91.2736V46.5068C91.2736 46.2724 91.0536 46.1634 90.8886 46.1634C90.7118 46.1634 90.5217 46.2583 90.5217 46.488V48.6839C90.5217 49.0171 90.667 49.1527 90.8886 49.1527C91.1173 49.1527 91.2736 49.0281 91.2736 48.6988V48.1171H92.3375V48.5263C92.3375 49.5235 91.8849 49.9626 90.9012 49.9626C89.9214 49.9626 89.4594 49.5314 89.4594 48.5216V46.5993C89.4594 45.9016 89.8892 45.3497 90.9012 45.3497C91.8998 45.3497 92.3375 45.9149 92.3375 46.6064V46.9043ZM95.2478 46.2842H94.4715V49.8552H93.4925V46.2842H92.6533V45.4469H95.2486V46.2842H95.2478ZM98.4001 49.8552H97.3826V48.8313C97.3826 48.3578 97.5303 47.6389 97.5845 47.1724H97.5774L96.6573 49.856H95.6265V45.4477H96.6393V46.5421C96.6393 47.0297 96.5065 47.7337 96.4798 48.2198H96.4876L97.3826 45.4484H98.4001V49.8552ZM101.358 46.2842H100.581V49.8552H99.603V46.2842H98.7654V45.4469H101.359V46.2842H101.358ZM103.748 48.8454C103.508 49.6992 103.259 49.9061 102.512 49.9061C102.318 49.9061 102.064 49.863 101.977 49.7901V49.0406C102.025 49.0586 102.135 49.0735 102.241 49.0735C102.325 49.0735 102.443 49.0673 102.496 48.923L101.497 45.4477H102.611L103.011 47.3715C103.042 47.5291 103.042 47.8168 103.069 48.2794H103.075C103.114 47.8121 103.146 47.537 103.182 47.3715L103.596 45.4477H104.695L103.748 48.8454ZM107.411 46.2842H106.627V49.8552H105.649V46.2842H104.814V45.4469H107.412V46.2842H107.411Z" fill="#017AC3"/>
<path d="M58.3829 46.2407L58.1016 48.1803H58.6712L58.3844 46.2407H58.3829Z" fill="#017AC3"/>
<path d="M45.1299 46.2407H44.957V47.3469H45.1472C45.4127 47.3469 45.665 47.2176 45.665 46.7793C45.6657 46.3442 45.4371 46.2407 45.1299 46.2407Z" fill="#017AC3"/>
</svg>
