<svg width="66" height="65" viewBox="0 0 66 65" fill="none" xmlns="http://www.w3.org/2000/svg">
<path fill-rule="evenodd" clip-rule="evenodd" d="M32.7106 64.9318C50.7382 64.9318 65.3523 50.4117 65.3523 32.5C65.3523 14.5883 50.7379 0.0678711 32.7106 0.0678711C14.6832 0.0678711 0.0688477 14.588 0.0688477 32.4997C0.0688477 50.4114 14.6832 64.9318 32.7106 64.9318Z" fill="white"/>
<path fill-rule="evenodd" clip-rule="evenodd" d="M0 32.5C0 50.421 14.6739 65 32.7103 65C50.7473 65 65.4207 50.421 65.4207 32.5C65.4207 14.5793 50.7473 0 32.7103 0C14.6739 0 0 14.579 0 32.5ZM0.137227 32.5C0.137227 14.6547 14.7495 0.136344 32.7103 0.136344C50.6712 0.136344 65.2837 14.6547 65.2837 32.5C65.2837 50.3453 50.6714 64.8639 32.7103 64.8639C14.7495 64.8637 0.137227 50.3453 0.137227 32.5Z" fill="#0079C1"/>
<path fill-rule="evenodd" clip-rule="evenodd" d="M32.711 63.2653C49.8261 63.2653 63.7014 49.4793 63.7014 32.4742C63.7014 15.4691 49.8261 1.68341 32.711 1.68341C15.5959 1.68341 1.7207 15.4694 1.7207 32.4745C1.7207 49.4795 15.5959 63.2653 32.711 63.2653Z" fill="#0079C1"/>
<path fill-rule="evenodd" clip-rule="evenodd" d="M7.88253 41.2487L7.31569 39.1999C8.09461 39.5232 9.75042 39.6474 11.4348 39.4591C12.4825 39.3422 13.5595 39.0062 14.8278 38.3273C15.9144 37.7463 16.5515 36.5487 16.5839 35.807C16.6814 33.578 15.3159 32.8989 13.5598 32.802H10.5345L10.4371 29.8939L12.3889 29.7405C13.7747 29.5863 16.2908 29.0213 15.8029 27.1799C15.5316 26.1553 14.4652 24.9044 12.7788 25.1446C11.4127 25.3382 10.1247 26.35 8.92108 27.2847L7.31543 25.2414C8.29863 24.4486 10.7471 22.7516 13.0543 22.4789C17.5591 21.9454 19.5104 23.8841 19.9002 26.2108C20.2017 28.007 18.8274 30.0875 16.0956 30.8635L16.4431 30.7667C18.6047 30.9079 20.675 32.2334 20.9372 34.5546C21.2847 37.6314 17.8743 41.2913 13.3921 41.7912C11.2966 42.0249 9.44634 42.0943 8.315 41.729C8.21416 41.6967 8.16868 41.729 8.04081 41.5836C7.9132 41.4379 7.88253 41.2487 7.88253 41.2487Z" fill="white"/>
<path fill-rule="evenodd" clip-rule="evenodd" d="M33.2828 22.2737L33.9237 24.0023C33.4629 24.0126 31.5882 24.7305 31.1758 24.9583C27.9731 26.7258 26.4706 29.2206 26.1764 31.2804L26.2575 31.2742C27.0504 30.3415 28.2504 29.729 29.869 29.5986C32.81 29.3618 35.4618 31.2389 35.7583 34.8806C36.0419 38.3605 33.604 41.4347 29.8267 41.7387C25.1321 42.1167 22.5547 38.8215 22.214 34.6408C21.9455 31.3496 22.9357 28.5009 24.7056 26.5657C26.3027 24.8353 29.8134 22.7011 32.4584 22.0003C33.1456 21.8182 33.2373 22.046 33.2828 22.2737ZM30.492 32.7813C28.9968 31.9508 26.3248 33.5485 26.3253 33.4539C26.3248 33.7821 25.9069 36.4096 26.875 38.4323C27.0564 38.8129 27.616 39.2323 28.2023 39.4249C28.7943 39.6189 29.4145 39.5845 29.6676 39.5156C29.9636 39.4358 31.5373 38.9816 31.8172 37.0619C32.2611 34.0125 31.2844 33.2215 30.492 32.7813Z" fill="white"/>
<path fill-rule="evenodd" clip-rule="evenodd" d="M54.3289 22.0204L54.9701 23.7498C54.509 23.7596 52.6344 24.4774 52.2222 24.7052C49.0189 26.4735 47.5162 28.9675 47.2228 31.0279L47.3036 31.0212C48.0968 30.0885 49.296 29.476 50.9144 29.3456C53.8554 29.1093 56.5071 30.9863 56.8045 34.6276C57.0883 38.1075 54.6496 41.1817 50.8731 41.4856C46.1782 41.8636 43.6011 38.5692 43.2604 34.3877C42.9919 31.0966 43.9816 28.2478 45.752 26.3132C47.3491 24.5825 50.8601 22.4478 53.5051 21.7472C54.1912 21.5654 54.2829 21.7927 54.3289 22.0204ZM51.5381 32.5285C50.0429 31.6972 47.3709 33.2957 47.3714 33.2009C47.3709 33.5291 46.953 36.1563 47.9206 38.1798C48.1025 38.5596 48.6621 38.9792 49.2479 39.1716C49.8405 39.3658 50.4609 39.3312 50.7137 39.2623C51.0092 39.1825 52.5835 38.729 52.8631 36.8083C53.3075 33.7592 52.3298 32.9682 51.5381 32.5285Z" fill="white"/>
<path fill-rule="evenodd" clip-rule="evenodd" d="M40.538 32.4969C40.0643 33.1247 39.8083 33.3073 39.4189 33.8312C38.7772 33.0803 38.5524 32.9008 37.9731 32.1754C37.5596 31.6603 37.0557 30.9948 37.0557 30.3002C37.0557 29.6644 37.5521 29.2012 38.1914 29.2012C38.8006 29.2012 39.2749 29.7096 39.4023 30.2777C39.5603 29.6872 39.9894 29.2012 40.6511 29.2012C41.2603 29.2012 41.7494 29.6944 41.7494 30.3074C41.7494 30.9651 41.3055 31.4955 40.9219 31.9967L40.538 32.4969Z" fill="white"/>
</svg>
