<svg width="110" height="16" viewBox="0 0 110 16" fill="none" xmlns="http://www.w3.org/2000/svg">
<path fill-rule="evenodd" clip-rule="evenodd" d="M22.5492 8.9365C21.4761 12.4881 24.2456 15.7821 30.068 15.9118H38.945L41.7026 11.1115H33.99C32.2781 11.1115 32.0578 10.3369 32.0578 10.3369H42.1505L44.9035 5.55025H35.1216C35.203 5.45799 35.9671 4.78294 37.1471 4.78294H45.3459L48.0825 0.0237427H38.0748C31.1922 0.0237427 23.8544 4.62034 22.5501 8.93558L22.5492 8.9365ZM66.0476 8.9365C64.9746 12.4881 67.745 15.7821 73.5664 15.9118H82.1445L84.9012 11.1115H77.4885C73.0445 11.1115 75.1248 4.78294 82.9324 4.78294H88.1624L90.8999 0.0237427H81.5741C73.6157 0.0237427 67.3528 4.62034 66.0485 8.93558L66.0476 8.9365ZM69.8518 0.0237427H60.0187C53.9825 0.0237427 47.2269 3.49494 44.7116 7.86773L43.293 10.335H52.3144C52.3144 10.4784 51.4954 11.1115 50.0476 11.1115L42.8442 11.1151L40.0848 15.9145L50.2368 15.9118C55.5839 15.9118 62.4061 12.9731 64.7479 8.89722L66.6719 5.55391L56.996 5.55025C56.996 5.32919 57.8607 4.84871 58.8186 4.84871L67.0759 4.85236L69.8518 0.0237427Z" fill="#09388A"/>
<path fill-rule="evenodd" clip-rule="evenodd" d="M109.74 3.81621C108.379 0.0499582 102.08 -1.12934 95.6691 1.1854C92.9745 2.15551 90.6913 3.58967 89.0479 5.20651C89.7041 5.27685 90.3641 5.36454 91.034 5.49243C91.5733 5.59565 92.0788 5.7208 92.6116 5.85325C94.3291 6.28076 96.2705 6.7649 100.118 6.64797C100.125 6.64797 99.7474 7.2938 99.7474 7.2938C95.9707 7.41438 94.0092 6.94211 92.3374 6.52739C91.789 6.39037 91.2744 6.26157 90.7105 6.15287C87.441 5.52988 84.2374 5.73815 81.1489 6.46985L80.6197 7.39063C83.8571 6.49085 87.1083 6.3648 90.5432 7.02067C91.0834 7.1248 91.5889 7.24904 92.1226 7.38515C93.7807 7.79529 95.6535 8.26025 99.2447 8.18443L98.8736 8.82934C95.3089 8.91521 93.4699 8.46122 91.8466 8.05472C91.2991 7.91953 90.7845 7.78981 90.2197 7.68202C86.7875 7.02615 83.4467 7.27096 80.2065 8.1077L79.6791 9.03944C83.0665 8.02275 86.4594 7.86472 90.0533 8.55074C90.5935 8.65305 91.098 8.7791 91.6327 8.91156C93.2268 9.30983 95.0219 9.75378 98.3554 9.72089L97.9834 10.3612C94.6134 10.4087 92.8219 9.97119 91.2296 9.57931C90.6816 9.44077 90.1299 9.3168 89.5753 9.20752C86.0581 8.54708 82.647 8.78184 79.3272 9.6396L78.7889 10.5713C81.2352 9.85054 83.7881 9.55909 86.3341 9.70993C86.1294 10.5841 86.2098 11.325 86.5215 12.1909C87.8843 15.9572 94.1838 17.1365 100.595 14.8226C107.004 12.5097 111.099 7.58245 109.74 3.81529L109.74 3.81621ZM23.155 5.54906H16.2376C16.3382 5.27502 17.2394 4.78175 18.9294 4.78175H23.5955L26.3321 0.022554H19.7393C13.5029 0.022554 7.1367 3.5851 4.30871 8.41737L0 15.9115H8.87517L11.9499 10.3357H20.4019L23.155 5.54906Z" fill="#09388A"/>
</svg>
