<svg width="110" height="28" viewBox="0 0 110 28" fill="none" xmlns="http://www.w3.org/2000/svg">
<g clip-path="url(#clip0_826_29280)">
<path d="M64.4722 8.03604H61.8612C61.7981 8.03588 61.7356 8.04818 61.6772 8.07223C61.6189 8.09628 61.5659 8.13162 61.5213 8.1762C61.4766 8.22079 61.4412 8.27375 61.4171 8.33205C61.393 8.39035 61.3806 8.45284 61.3807 8.51593V15.6629C61.3807 16.5598 61.0809 17.2857 60.4813 17.8399C59.8818 18.3948 59.0973 18.6716 58.1272 18.6716C57.1578 18.6716 56.447 18.4026 55.9441 17.8659C55.4413 17.3286 55.1893 16.5949 55.1893 15.6617V8.51412C55.1893 8.45107 55.1768 8.38865 55.1527 8.33042C55.1285 8.27219 55.0931 8.2193 55.0484 8.17478C55.0038 8.13026 54.9508 8.09498 54.8925 8.07097C54.8343 8.04695 54.7718 8.03467 54.7088 8.03483H52.0978C52.0347 8.03467 51.9723 8.04695 51.914 8.07097C51.8557 8.09498 51.8027 8.13026 51.7581 8.17478C51.7134 8.2193 51.678 8.27219 51.6539 8.33042C51.6297 8.38865 51.6173 8.45107 51.6173 8.51412V16.2957C51.6173 17.9681 52.1105 19.3219 53.098 20.3609C54.085 21.4004 55.4171 21.9184 57.0931 21.9184C58.9286 21.9184 60.8295 21.1605 61.3807 19.1333V20.2285C61.3808 20.4161 61.4178 20.6017 61.4897 20.775C61.5616 20.9482 61.6669 21.1055 61.7997 21.238C61.9325 21.3705 62.09 21.4755 62.2634 21.547C62.4368 21.6185 62.6225 21.6552 62.8101 21.6549H64.4722C64.7381 21.6549 64.9527 21.4403 64.9527 21.175V8.51593C64.9527 8.45284 64.9404 8.39035 64.9162 8.33205C64.8921 8.27375 64.8567 8.22079 64.8121 8.1762C64.7674 8.13162 64.7144 8.09628 64.6561 8.07223C64.5978 8.04818 64.5353 8.03588 64.4722 8.03604ZM87.2355 11.0447C87.9584 11.0447 88.6123 11.2333 89.1944 11.6129C89.6753 11.9284 90.0693 12.3596 90.3403 12.867C90.3939 12.9679 90.4818 13.0465 90.5882 13.0885C90.6945 13.1304 90.8124 13.1331 90.9205 13.096L93.2952 12.2741C93.3599 12.2517 93.4191 12.2158 93.4688 12.1687C93.5185 12.1216 93.5575 12.0645 93.5833 12.001C93.6092 11.9376 93.6211 11.8694 93.6184 11.801C93.6157 11.7326 93.5985 11.6656 93.5678 11.6044C92.9942 10.4693 92.1976 9.56939 91.178 8.90758C90.0145 8.15148 88.6988 7.77252 87.2355 7.77252C85.154 7.77252 83.4163 8.45065 82.0238 9.8045C80.6295 11.1602 79.9338 12.8398 79.9338 14.8452C79.9338 16.8493 80.6313 18.5308 82.0238 19.8846C83.4163 21.2403 85.1552 21.9166 87.2355 21.9166C88.6988 21.9166 90.0145 21.5376 91.178 20.7815C92.1976 20.1197 92.9942 19.2198 93.5678 18.0847C93.5985 18.0235 93.6157 17.9565 93.6184 17.8881C93.6211 17.8197 93.6092 17.7515 93.5833 17.6881C93.5575 17.6247 93.5185 17.5675 93.4688 17.5204C93.4191 17.4733 93.3599 17.4374 93.2952 17.415L90.9205 16.5931C90.8123 16.5565 90.6947 16.5594 90.5885 16.6013C90.4822 16.6433 90.3943 16.7215 90.3403 16.8221C90.0695 17.3332 89.6757 17.7688 89.1944 18.0896C88.6123 18.4764 87.9602 18.6698 87.2355 18.6698C86.2135 18.6698 85.3577 18.3053 84.6698 17.5752C83.982 16.8439 83.6375 15.9349 83.6375 14.8433C83.6375 13.7512 83.982 12.8688 84.6698 12.1381C85.3577 11.408 86.2135 11.0435 87.2355 11.0435M108.073 8.03604H105.462C105.399 8.03588 105.337 8.04818 105.278 8.07223C105.22 8.09628 105.167 8.13162 105.122 8.1762C105.078 8.22079 105.042 8.27375 105.018 8.33205C104.994 8.39035 104.982 8.45284 104.982 8.51593V15.6629C104.982 16.5598 104.682 17.2857 104.082 17.8399C103.483 18.3948 102.698 18.6716 101.728 18.6716C100.759 18.6716 100.049 18.4026 99.5452 17.8659C99.0424 17.3286 98.7909 16.5949 98.7909 15.6617V8.51412C98.7909 8.45104 98.7784 8.38861 98.7541 8.33038C98.7299 8.27214 98.6944 8.21926 98.6498 8.17474C98.6051 8.13023 98.5521 8.09496 98.4937 8.07095C98.4354 8.04695 98.3729 8.03467 98.3099 8.03483H95.6989C95.6358 8.03467 95.5734 8.04695 95.5151 8.07097C95.4568 8.09498 95.4038 8.13026 95.3592 8.17478C95.3145 8.2193 95.2791 8.27219 95.255 8.33042C95.2308 8.38865 95.2184 8.45107 95.2184 8.51412V16.2957C95.2184 17.9681 95.7122 19.3219 96.701 20.3609C97.6879 21.4004 99.02 21.9184 100.696 21.9184C102.531 21.9184 104.432 21.1605 104.984 19.1333V20.2285C104.984 20.4161 105.021 20.6017 105.093 20.775C105.165 20.9482 105.27 21.1055 105.403 21.238C105.535 21.3705 105.693 21.4755 105.866 21.547C106.04 21.6185 106.225 21.6552 106.413 21.6549H108.075C108.341 21.6549 108.556 21.4403 108.556 21.175V8.51593C108.556 8.45284 108.543 8.39035 108.519 8.33205C108.495 8.27375 108.46 8.22079 108.415 8.1762C108.37 8.13162 108.317 8.09628 108.259 8.07223C108.201 8.04818 108.138 8.03588 108.075 8.03604M45.0795 18.5277H40.138C41.2307 17.3099 41.5045 13.964 41.5849 11.278H45.0783V18.5277H45.0795ZM49.6439 18.5277H48.6515V8.59752C48.6513 8.52469 48.6368 8.4526 48.6088 8.38538C48.5808 8.31816 48.5397 8.25712 48.4881 8.20576C48.4365 8.1544 48.3752 8.11372 48.3078 8.08605C48.2405 8.05838 48.1683 8.04426 48.0955 8.0445H41.1703C40.3241 8.0445 39.5777 7.94175 38.9201 8.55582C38.271 9.16324 38.2807 10.065 38.239 10.3811C38.1864 10.7909 38.1417 11.3197 38.0728 12.0613C37.5772 17.4489 36.6494 18.5277 36.6494 18.5277H35.8208C35.4364 18.5277 35.1257 18.8378 35.1257 19.2216V22.4279C35.126 22.641 35.1682 22.852 35.25 23.0488C35.3317 23.2456 35.4515 23.4243 35.6023 23.5749C35.7532 23.7254 35.9322 23.8447 36.1292 23.9261C36.3262 24.0074 36.5372 24.0491 36.7503 24.0489H37.9489C38.0235 24.0491 38.0975 24.0345 38.1665 24.0061C38.2355 23.9776 38.2983 23.9358 38.3512 23.8831C38.404 23.8304 38.446 23.7678 38.4747 23.6989C38.5033 23.6299 38.5181 23.556 38.5182 23.4814V21.6621H46.6304V22.4279C46.6306 22.6411 46.6729 22.8522 46.7547 23.0491C46.8366 23.2459 46.9564 23.4248 47.1074 23.5753C47.2584 23.7258 47.4376 23.8451 47.6347 23.9264C47.8318 24.0077 48.043 24.0493 48.2562 24.0489H49.6548C49.7294 24.049 49.8033 24.0344 49.8723 24.0059C49.9412 23.9774 50.0039 23.9356 50.0567 23.8829C50.1095 23.8302 50.1514 23.7676 50.1801 23.6987C50.2087 23.6298 50.2235 23.556 50.2235 23.4814V19.108C50.2235 19.0319 50.2084 18.9565 50.1792 18.8863C50.15 18.816 50.1072 18.7522 50.0533 18.6985C49.9994 18.6448 49.9355 18.6022 49.8651 18.5732C49.7948 18.5442 49.7194 18.5294 49.6433 18.5296" fill="#FF8200"/>
<path d="M80.0744 20.8136L74.7116 14.7134L79.9137 8.69971C79.964 8.64157 79.9966 8.57018 80.0074 8.49406C80.0183 8.41793 80.0071 8.34028 79.975 8.27038C79.9429 8.20048 79.8915 8.14128 79.8267 8.09984C79.7619 8.0584 79.6866 8.03648 79.6097 8.03668H77.0948C76.5804 8.03668 76.0903 8.26212 75.7585 8.65498L71.1826 14.0438V8.51597C71.1826 8.45293 71.1701 8.3905 71.146 8.33227C71.1218 8.27405 71.0864 8.22116 71.0418 8.17664C70.9971 8.13211 70.9442 8.09683 70.8859 8.07282C70.8276 8.0488 70.7651 8.03652 70.7021 8.03668H68.0911C68.0281 8.03652 67.9656 8.0488 67.9073 8.07282C67.849 8.09683 67.796 8.13211 67.7514 8.17664C67.7068 8.22116 67.6714 8.27405 67.6472 8.33227C67.623 8.3905 67.6106 8.45293 67.6106 8.51597V21.175C67.6106 21.441 67.8252 21.6549 68.0911 21.6549H70.7021C70.968 21.6549 71.1826 21.4404 71.1826 21.175V15.3849L75.9204 20.9707C76.1027 21.1851 76.3293 21.3572 76.5847 21.4753C76.8401 21.5933 77.1181 21.6544 77.3994 21.6543H79.6913C79.7885 21.6542 79.8837 21.6262 79.9655 21.5735C80.0473 21.5209 80.1123 21.4458 80.1526 21.3573C80.193 21.2688 80.2071 21.1706 80.1932 21.0743C80.1794 20.978 80.1381 20.8871 80.0744 20.8136Z" fill="#FF8200"/>
<path d="M27.8735 13.9011C27.8735 21.5787 21.6325 27.8022 13.9362 27.8022C6.24159 27.8022 0 21.5787 0 13.9011C0 6.22346 6.23918 0 13.9368 0C21.6343 0 27.8735 6.22346 27.8735 13.9011Z" fill="white"/>
<path d="M4.01025 21.0499C6.23443 24.1172 9.84992 26.1142 13.9356 26.1142C18.0207 26.1142 21.6356 24.1172 23.8604 21.0493C20.8046 22.0218 17.4514 22.5591 13.935 22.5591C10.4193 22.5591 7.06608 22.0218 4.01025 21.0499Z" fill="#97D700"/>
<path d="M11.5984 14.6778H15.4689V9.00006H12.7334C12.6694 11.1034 12.456 13.7234 11.6002 14.6778" fill="#FF8200"/>
<path d="M19.498 18.558C19.4978 18.6165 19.4861 18.6745 19.4636 18.7285C19.441 18.7825 19.408 18.8316 19.3664 18.8728C19.3249 18.9141 19.2756 18.9467 19.2215 18.9689C19.1673 18.9911 19.1093 19.0025 19.0507 19.0022H17.9568C17.6197 19.0025 17.2963 18.869 17.0577 18.631C16.819 18.393 16.6846 18.07 16.6839 17.733V17.1322H10.3293V18.5562C10.3292 18.6146 10.3176 18.6724 10.2952 18.7264C10.2728 18.7803 10.2399 18.8293 10.1986 18.8705C10.1572 18.9118 10.1081 18.9445 10.0541 18.9668C10.0001 18.9891 9.94228 19.0005 9.88386 19.0004H8.94523C8.60834 19.0004 8.28519 18.8668 8.04668 18.6288C7.80818 18.3909 7.67378 18.0681 7.67298 17.7312V15.2199C7.67298 15.1484 7.68707 15.0776 7.71445 15.0116C7.74182 14.9456 7.78194 14.8856 7.83252 14.8351C7.88309 14.7845 7.94313 14.7445 8.00919 14.7172C8.07526 14.6899 8.14606 14.6759 8.21754 14.676H8.86666C8.86666 14.676 9.59254 13.831 9.98057 9.61111C10.0338 9.02908 10.0706 8.61507 10.1123 8.29353C10.1444 8.04573 10.1377 7.341 10.646 6.86414C11.1597 6.38183 11.7454 6.46342 12.4084 6.46342H17.8323C18.0722 6.46342 18.2662 6.65683 18.2662 6.89617V14.6747H19.0435C19.2955 14.6747 19.4986 14.8778 19.4986 15.1286V18.558H19.498ZM13.9357 1.68628C7.17254 1.68628 1.69067 7.15485 1.69067 13.8987C1.69067 16.1706 2.31441 18.2951 3.39809 20.1179C6.64491 21.0269 10.2042 21.5322 13.9369 21.5322C17.6697 21.5322 21.2272 21.0288 24.4758 20.1179C25.5959 18.237 26.1859 16.0879 26.1832 13.8987C26.1832 7.15485 20.7001 1.68628 13.9381 1.68628" fill="#FF8200"/>
</g>
<defs>
<clipPath id="clip0_826_29280">
<rect width="110" height="27.8022" fill="white"/>
</clipPath>
</defs>
</svg>
