<svg width="110" height="36" viewBox="0 0 110 36" fill="none" xmlns="http://www.w3.org/2000/svg">
<g clip-path="url(#clip0_826_29413)">
<path d="M38.804 2.97256C36.9298 1.08288 34.3588 0.0827637 31.3687 0.0827637C27.1857 0.0827637 23.684 1.94673 20.9382 5.62326C18.1924 1.94673 14.6907 0.0827637 10.5077 0.0827637C7.51759 0.0827637 4.94659 1.08288 3.07491 2.97256C1.06182 5.00108 0 7.96543 0 11.5443C0 14.1615 0.689027 16.7762 2.05165 19.3189C3.20346 21.4709 4.87718 23.6356 7.02396 25.7593C10.9139 29.6029 15.6188 32.6444 19.3982 35.0869C19.7247 35.2977 20.0435 35.5034 20.352 35.7065C20.3777 35.7219 20.4034 35.7347 20.4265 35.7502C20.4343 35.7527 20.4394 35.7553 20.4445 35.7579C20.478 35.7759 20.514 35.7913 20.5474 35.8042C20.55 35.8067 20.5525 35.8067 20.5551 35.8093C20.5937 35.8222 20.6322 35.835 20.6734 35.8453C20.6759 35.8453 20.6811 35.8479 20.6836 35.8479C20.7248 35.8582 20.7634 35.8659 20.8045 35.871C20.8071 35.871 20.8122 35.871 20.8148 35.871C20.8559 35.8762 20.897 35.8787 20.9382 35.8787C20.9793 35.8787 21.0205 35.8762 21.0616 35.871C21.0642 35.871 21.0693 35.871 21.0719 35.871C21.113 35.8659 21.1516 35.8582 21.1927 35.8479L21.203 35.8453C21.2441 35.835 21.2827 35.8222 21.3213 35.8093C21.3238 35.8067 21.3264 35.8067 21.329 35.8067C21.3624 35.7913 21.3984 35.7759 21.4318 35.7579C21.437 35.7553 21.4421 35.7527 21.4498 35.7502C21.4729 35.7373 21.4987 35.7219 21.5244 35.7065C21.8329 35.5034 22.1517 35.2977 22.4782 35.0869C26.2601 32.6444 30.9625 29.6029 34.8524 25.7593C37.0018 23.6356 38.6729 21.4709 39.8247 19.3189C41.1873 16.7762 41.8764 14.1615 41.8764 11.5443C41.8764 7.96543 40.8145 5.00108 38.804 2.97256ZM33.3407 24.2295C29.6101 27.9164 25.0081 30.891 21.311 33.282C21.185 33.3643 21.0616 33.4414 20.9382 33.5237C20.8148 33.4414 20.6914 33.3643 20.5654 33.282C16.8683 30.891 12.2662 27.9164 8.5357 24.2295C4.23957 19.9848 2.14935 15.8352 2.14935 11.5443C2.14935 8.54391 2.99778 6.10403 4.60208 4.48431C6.0624 3.01113 8.10377 2.23212 10.5077 2.23212C14.4336 2.23212 17.547 4.15008 20.028 8.09655C20.0332 8.1017 20.0358 8.10684 20.0409 8.11198C20.0512 8.12998 20.064 8.15055 20.0795 8.16854C20.0872 8.17883 20.0949 8.18911 20.1052 8.20196C20.118 8.21739 20.1309 8.23282 20.1437 8.24567C20.154 8.25853 20.1669 8.27138 20.1797 8.28424C20.19 8.29452 20.2029 8.30738 20.2157 8.31766C20.2312 8.33309 20.244 8.34594 20.2594 8.35622C20.2723 8.36651 20.2826 8.37422 20.2954 8.38451C20.3134 8.39736 20.3314 8.41022 20.3494 8.42307C20.3546 8.42564 20.3597 8.43078 20.3674 8.43335C20.3726 8.4385 20.3777 8.44107 20.3854 8.44364C20.4034 8.45392 20.4214 8.46678 20.4394 8.47449C20.4548 8.4822 20.4677 8.48992 20.4831 8.49763C20.4985 8.50534 20.514 8.51048 20.532 8.5182C20.55 8.52591 20.5654 8.53105 20.5834 8.53876C20.5988 8.54391 20.6117 8.54648 20.6245 8.55162C20.6451 8.55676 20.6657 8.56448 20.6862 8.56962C20.6991 8.57219 20.7119 8.57476 20.7248 8.57733C20.7454 8.5799 20.7659 8.58504 20.7865 8.58761C20.8019 8.59019 20.8148 8.59019 20.8276 8.59276C20.8482 8.59533 20.8688 8.59533 20.8893 8.5979C20.9048 8.5979 20.9202 8.5979 20.9382 8.5979C20.9536 8.5979 20.9716 8.5979 20.9896 8.5979C21.0076 8.59533 21.0256 8.59533 21.0462 8.59276C21.059 8.59276 21.0744 8.59019 21.0899 8.58761C21.1104 8.58504 21.131 8.5799 21.149 8.57733C21.1644 8.57476 21.1773 8.57219 21.1927 8.56705C21.2107 8.56448 21.2313 8.55676 21.2493 8.55162C21.2647 8.54648 21.2801 8.54391 21.293 8.53876C21.311 8.53105 21.3264 8.52591 21.3444 8.5182C21.3624 8.51048 21.3778 8.50277 21.3958 8.49506C21.4087 8.48992 21.4215 8.4822 21.437 8.47706C21.4549 8.46678 21.4729 8.45392 21.4935 8.44364C21.4987 8.44107 21.5038 8.4385 21.5115 8.43335C21.5167 8.43078 21.5218 8.42564 21.5269 8.42307C21.5449 8.41022 21.5629 8.39736 21.5809 8.38451C21.5938 8.37422 21.6041 8.36651 21.6169 8.3588C21.6323 8.34594 21.6478 8.33309 21.6606 8.31766C21.6735 8.30738 21.6863 8.29452 21.6992 8.28424C21.7095 8.27138 21.7223 8.25853 21.7326 8.24567C21.7455 8.23282 21.7609 8.21739 21.7738 8.20196C21.7815 8.18911 21.7892 8.17883 21.7995 8.16854C21.8123 8.15055 21.8252 8.12998 21.838 8.11198C21.8406 8.10684 21.8457 8.1017 21.8483 8.09655C24.3293 4.15008 27.4428 2.23212 31.3687 2.23212C33.7726 2.23212 35.814 3.01113 37.2743 4.48431C38.8786 6.10403 39.727 8.54391 39.727 11.5443C39.727 15.8352 37.6368 19.9848 33.3407 24.2295Z" fill="#FF8300"/>
<path d="M27.8901 7.58755C27.5893 7.38958 27.2062 7.35616 26.8745 7.50014L21.0024 10.03L15.1328 7.50014C14.8012 7.35616 14.4181 7.38958 14.1147 7.58755C13.8139 7.78809 13.6313 8.12489 13.6313 8.4874V16.8817C13.6313 17.2442 13.8139 17.581 14.1147 17.7815C14.4181 17.9795 14.8012 18.0129 15.1328 17.869L21.0024 15.3391L26.8745 17.869C27.0108 17.9281 27.1574 17.9589 27.3013 17.9589C27.507 17.9589 27.7127 17.8972 27.8901 17.7815C28.1935 17.581 28.376 17.2442 28.376 16.8817V8.4874C28.376 8.12489 28.1935 7.78809 27.8901 7.58755ZM26.2241 15.2491L21.4292 13.1795C21.2929 13.1229 21.1489 13.0921 21.0024 13.0921C20.8584 13.0921 20.7144 13.1229 20.5782 13.1795L15.7807 15.2491V10.12L20.5782 12.1896C20.8481 12.3053 21.1566 12.3053 21.4292 12.1896L26.2241 10.12V15.2491Z" fill="#FF8300"/>
<path d="M48.895 9.77031H50.1317V10.5699H50.1548C50.3399 10.2279 50.5944 9.98113 50.9235 9.83201C51.2526 9.6829 51.6074 9.60834 51.9879 9.60834C52.4533 9.60834 52.8621 9.69061 53.2091 9.85515C53.5562 10.0197 53.8442 10.2434 54.073 10.5313C54.3018 10.8167 54.4741 11.1509 54.5898 11.534C54.7029 11.9145 54.7595 12.3233 54.7595 12.7578C54.7595 13.1563 54.7106 13.542 54.6052 13.9173C54.5024 14.2901 54.3455 14.6218 54.1373 14.9072C53.9265 15.1925 53.6616 15.4214 53.3403 15.5936C53.0189 15.7659 52.641 15.8533 52.2065 15.8533C52.0162 15.8533 51.8234 15.8353 51.6331 15.8019C51.4429 15.7659 51.2578 15.7119 51.0829 15.6347C50.9081 15.5576 50.7461 15.4599 50.597 15.3417C50.4479 15.2234 50.3245 15.0846 50.2242 14.9252H50.2011V17.8792H48.895V9.77031ZM53.456 12.7372C53.456 12.4699 53.42 12.2102 53.3506 11.9582C53.2837 11.7063 53.1809 11.4826 53.042 11.2872C52.9058 11.0918 52.7335 10.935 52.5278 10.8167C52.3196 10.6984 52.0831 10.6393 51.8157 10.6393C51.2655 10.6393 50.8515 10.8296 50.5739 11.2126C50.2962 11.5931 50.1548 12.1022 50.1548 12.7372C50.1548 13.0329 50.1908 13.3106 50.2654 13.5677C50.3373 13.8222 50.4453 14.0433 50.5919 14.2258C50.7359 14.4084 50.9107 14.5549 51.1112 14.6603C51.3143 14.7683 51.5483 14.8197 51.8157 14.8197C52.1139 14.8197 52.3659 14.7606 52.5715 14.6372C52.7798 14.5164 52.9495 14.357 53.0832 14.1616C53.2169 13.9687 53.312 13.7451 53.3685 13.4983C53.4251 13.2489 53.456 12.9969 53.456 12.7372Z" fill="#FF8300"/>
<path d="M58.2869 15.8533C57.8139 15.8533 57.3922 15.7736 57.022 15.6168C56.6492 15.4599 56.3381 15.244 56.081 14.9689C55.8265 14.6938 55.6311 14.3672 55.4974 13.9842C55.3637 13.6037 55.2969 13.182 55.2969 12.7244C55.2969 12.2745 55.3637 11.858 55.4974 11.4749C55.6311 11.0944 55.8265 10.7653 56.081 10.4902C56.3381 10.2151 56.6492 9.99913 57.022 9.84487C57.3922 9.68804 57.8139 9.60834 58.2869 9.60834C58.76 9.60834 59.1816 9.68804 59.5519 9.84487C59.9221 9.99913 60.2358 10.2151 60.4929 10.4902C60.7474 10.7653 60.9428 11.0944 61.0765 11.4749C61.2102 11.858 61.277 12.2745 61.277 12.7244C61.277 13.182 61.2102 13.6037 61.0765 13.9842C60.9428 14.3672 60.7474 14.6938 60.4929 14.9689C60.2358 15.244 59.9221 15.4599 59.5519 15.6168C59.1816 15.7736 58.76 15.8533 58.2869 15.8533ZM58.2869 14.8197C58.5775 14.8197 58.8294 14.7606 59.0428 14.6372C59.2562 14.5164 59.4336 14.3544 59.5699 14.1564C59.7061 13.9585 59.809 13.7348 59.8732 13.488C59.9375 13.2386 59.9709 12.9841 59.9709 12.7244C59.9709 12.4724 59.9375 12.2205 59.8732 11.9685C59.809 11.7166 59.7061 11.4929 59.5699 11.2975C59.4336 11.1047 59.2562 10.9453 59.0428 10.8218C58.8294 10.701 58.5775 10.6393 58.2869 10.6393C57.9964 10.6393 57.7445 10.701 57.5311 10.8218C57.3177 10.9453 57.1403 11.1047 57.004 11.2975C56.8652 11.4929 56.7649 11.7166 56.7006 11.9685C56.6364 12.2205 56.6029 12.4724 56.6029 12.7244C56.6029 12.9841 56.6364 13.2386 56.7006 13.488C56.7649 13.7348 56.8652 13.9585 57.004 14.1564C57.1403 14.3544 57.3177 14.5164 57.5311 14.6372C57.7445 14.7606 57.9964 14.8197 58.2869 14.8197Z" fill="#FF8300"/>
<path d="M66.0797 11.75C66.0257 11.3849 65.8791 11.1072 65.64 10.9195C65.3984 10.7344 65.095 10.6393 64.7273 10.6393C64.5602 10.6393 64.3802 10.6676 64.19 10.7267C63.9997 10.7833 63.8223 10.8913 63.6629 11.0455C63.5035 11.2024 63.3698 11.4209 63.2619 11.6986C63.1539 11.9788 63.1025 12.3439 63.1025 12.7938C63.1025 13.038 63.1307 13.2823 63.1873 13.5265C63.2439 13.7708 63.3364 13.9893 63.4624 14.1796C63.5884 14.3698 63.7503 14.5241 63.9483 14.6423C64.1488 14.7632 64.3879 14.8223 64.6708 14.8223C65.0538 14.8223 65.3675 14.7015 65.6169 14.4649C65.8637 14.2284 66.018 13.8968 66.0797 13.47H67.3857C67.2649 14.2413 66.9718 14.83 66.509 15.2388C66.0462 15.6476 65.4343 15.8533 64.6708 15.8533C64.2054 15.8533 63.794 15.7736 63.4393 15.6168C63.0845 15.4599 62.7837 15.2465 62.5394 14.9766C62.2952 14.704 62.11 14.3827 61.9841 14.0073C61.8581 13.6345 61.7964 13.2283 61.7964 12.7938C61.7964 12.3516 61.8555 11.9351 61.9789 11.5443C62.1023 11.1561 62.2849 10.8167 62.5291 10.5313C62.7734 10.2459 63.0767 10.0197 63.4393 9.85515C63.8018 9.69061 64.2286 9.60834 64.717 9.60834C65.0616 9.60834 65.3881 9.65204 65.6966 9.73946C66.0051 9.82944 66.2802 9.96056 66.5219 10.1354C66.761 10.3102 66.9589 10.5339 67.1106 10.8013C67.2649 11.0687 67.3549 11.3849 67.3857 11.75H66.0797Z" fill="#FF8300"/>
<path d="M68.1826 9.77032H69.4887V13.8351H69.5118L72.1111 9.77032H73.7257V15.6913H72.4196V11.5906H72.3965L69.7406 15.6913H68.1826V9.77032Z" fill="#FF8300"/>
<path d="M74.8494 9.77032H76.1554V12.2205H79.1018V9.77032H80.4053V15.6913H79.1018V13.1949H76.1554V15.6913H74.8494V9.77032Z" fill="#FF8300"/>
<path d="M86.2415 10.7422H84.2824V15.6913H82.9763V10.7422H80.9375V9.77032H86.2415V10.7422Z" fill="#FF8300"/>
<path d="M87.6606 13.0689C87.6606 13.2977 87.6914 13.5188 87.7582 13.7322C87.8225 13.9456 87.9202 14.1333 88.0488 14.2953C88.1799 14.4547 88.3444 14.5832 88.5424 14.6783C88.7404 14.7735 88.9769 14.8223 89.252 14.8223C89.6351 14.8223 89.941 14.74 90.175 14.5755C90.4064 14.411 90.5812 14.1641 90.6969 13.8351H91.9335C91.8641 14.1564 91.7459 14.4418 91.5787 14.6963C91.4091 14.9483 91.206 15.1591 90.9694 15.3314C90.7329 15.5036 90.4681 15.6322 90.175 15.7196C89.8793 15.807 89.5734 15.8507 89.252 15.8507C88.7867 15.8507 88.3727 15.7762 88.0154 15.6219C87.6554 15.4702 87.352 15.2568 87.1052 14.9817C86.8558 14.7066 86.6681 14.3775 86.5422 13.997C86.4162 13.6139 86.3545 13.1949 86.3545 12.7372C86.3545 12.3156 86.4213 11.9171 86.555 11.5392C86.6887 11.1612 86.879 10.8296 87.1284 10.5416C87.3752 10.2562 87.676 10.03 88.0256 9.86029C88.3779 9.69318 88.7738 9.60834 89.2186 9.60834C89.6839 9.60834 90.103 9.70604 90.4732 9.90143C90.8434 10.0968 91.1494 10.3539 91.3936 10.6753C91.6379 10.9941 91.8153 11.3643 91.9284 11.7808C92.0364 12.1948 92.0672 12.6267 92.0133 13.0689H87.6606ZM90.7072 12.2102C90.6918 12.0019 90.648 11.804 90.5761 11.6137C90.5015 11.4235 90.4038 11.2563 90.2778 11.1149C90.1518 10.9735 89.9976 10.8604 89.8202 10.7704C89.6402 10.683 89.4397 10.6393 89.2186 10.6393C88.9898 10.6393 88.7815 10.6804 88.5938 10.7601C88.4061 10.8398 88.2467 10.9504 88.113 11.0918C87.9794 11.2332 87.8714 11.4003 87.7917 11.5906C87.712 11.7808 87.6683 11.9865 87.6606 12.2102H90.7072Z" fill="#FF8300"/>
<path d="M92.7461 9.77031H93.9827V10.5699H94.0059C94.1884 10.2279 94.4455 9.98113 94.772 9.83201C95.1011 9.6829 95.4559 9.60834 95.839 9.60834C96.3043 9.60834 96.7106 9.69061 97.0576 9.85515C97.4047 10.0197 97.6953 10.2434 97.9241 10.5313C98.1529 10.8167 98.3251 11.1509 98.4383 11.534C98.554 11.9145 98.6105 12.3233 98.6105 12.7578C98.6105 13.1563 98.5591 13.542 98.4563 13.9173C98.3534 14.2901 98.1966 14.6218 97.9858 14.9072C97.775 15.1925 97.5101 15.4214 97.1888 15.5936C96.87 15.7659 96.492 15.8533 96.055 15.8533C95.8647 15.8533 95.6745 15.8353 95.4842 15.8019C95.2914 15.7659 95.1088 15.7119 94.934 15.6347C94.7566 15.5576 94.5946 15.4599 94.4455 15.3417C94.2964 15.2234 94.173 15.0846 94.0753 14.9252H94.0522V17.8792H92.7461V9.77031ZM97.3045 12.7372C97.3045 12.4699 97.271 12.2102 97.2016 11.9582C97.1322 11.7063 97.0294 11.4826 96.8931 11.2872C96.7543 11.0918 96.582 10.935 96.3763 10.8167C96.1707 10.6984 95.9341 10.6393 95.6667 10.6393C95.1165 10.6393 94.7026 10.8296 94.4224 11.2126C94.1447 11.5931 94.0059 12.1022 94.0059 12.7372C94.0059 13.0329 94.0419 13.3106 94.1139 13.5677C94.1858 13.8222 94.2964 14.0433 94.4404 14.2258C94.5844 14.4084 94.7592 14.5549 94.9623 14.6603C95.1628 14.7683 95.3994 14.8197 95.6667 14.8197C95.965 14.8197 96.2169 14.7606 96.4226 14.6372C96.6283 14.5164 96.798 14.357 96.9317 14.1616C97.0654 13.9687 97.1605 13.7451 97.2196 13.4983C97.2762 13.2489 97.3045 12.9969 97.3045 12.7372Z" fill="#FF8300"/>
<path d="M48.895 18.9333H50.1317V19.7355H50.1548C50.3399 19.391 50.5944 19.1441 50.9235 18.995C51.2526 18.8485 51.6074 18.7739 51.9879 18.7739C52.4533 18.7739 52.8621 18.8562 53.2091 19.0182C53.5562 19.1827 53.8442 19.409 54.073 19.6943C54.3018 19.9823 54.4741 20.3165 54.5898 20.697C54.7029 21.0801 54.7595 21.4889 54.7595 21.9234C54.7595 22.3193 54.7106 22.705 54.6052 23.0803C54.5024 23.4557 54.3455 23.7848 54.1373 24.0702C53.9265 24.3581 53.6616 24.5869 53.3403 24.7592C53.0189 24.9315 52.641 25.0163 52.2065 25.0163C52.0162 25.0163 51.8234 24.9983 51.6331 24.9649C51.4429 24.9315 51.2578 24.8749 51.0829 24.7978C50.9081 24.7232 50.7461 24.6255 50.597 24.5072C50.4479 24.389 50.3245 24.2501 50.2242 24.0882H50.2011V27.0448H48.895V18.9333ZM53.456 21.9003C53.456 21.6329 53.42 21.3732 53.3506 21.1212C53.2837 20.8693 53.1809 20.6456 53.042 20.4502C52.9058 20.2574 52.7335 20.1006 52.5278 19.9823C52.3196 19.864 52.0831 19.8049 51.8157 19.8049C51.2655 19.8049 50.8515 19.9951 50.5739 20.3757C50.2962 20.7587 50.1548 21.2678 50.1548 21.9003C50.1548 22.1985 50.1908 22.4762 50.2654 22.7307C50.3373 22.9878 50.4453 23.2063 50.5919 23.3889C50.7359 23.574 50.9107 23.7179 51.1112 23.8259C51.3143 23.9313 51.5483 23.9853 51.8157 23.9853C52.1139 23.9853 52.3659 23.9236 52.5715 23.8028C52.7798 23.6794 52.9495 23.52 53.0832 23.3272C53.2169 23.1318 53.312 22.9107 53.3685 22.6613C53.4251 22.4145 53.456 22.1599 53.456 21.9003Z" fill="#FF8300"/>
<path d="M56.5952 22.2319C56.5952 22.4607 56.6287 22.6844 56.6929 22.8978C56.7572 23.1112 56.8549 23.2989 56.9835 23.4583C57.1146 23.6177 57.2766 23.7462 57.4771 23.8414C57.6751 23.9365 57.9116 23.9853 58.1867 23.9853C58.5672 23.9853 58.8731 23.9031 59.1071 23.7385C59.3385 23.574 59.5133 23.3297 59.6264 23.0006H60.8631C60.7937 23.322 60.6754 23.6074 60.5083 23.8594C60.3412 24.1113 60.1381 24.3221 59.9015 24.4944C59.665 24.6666 59.4002 24.7978 59.1071 24.8852C58.8114 24.9726 58.5055 25.0163 58.1867 25.0163C57.7213 25.0163 57.3074 24.9392 56.95 24.7875C56.5901 24.6332 56.2893 24.4198 56.0399 24.1447C55.7931 23.8696 55.6054 23.5431 55.4794 23.16C55.3535 22.7795 55.2917 22.3579 55.2917 21.9003C55.2917 21.4812 55.3586 21.0801 55.4923 20.7022C55.6234 20.3242 55.8162 19.9926 56.063 19.7072C56.3099 19.4192 56.6107 19.193 56.9629 19.0259C57.3125 18.8562 57.7085 18.7739 58.1507 18.7739C58.616 18.7739 59.0351 18.8716 59.4028 19.0644C59.773 19.2598 60.0815 19.5169 60.3258 19.8383C60.57 20.1597 60.7474 20.5273 60.8579 20.9438C60.9685 21.3603 60.9968 21.7897 60.9428 22.2319H56.5952ZM59.6393 21.3732C59.6239 21.1675 59.5802 20.9696 59.5082 20.7767C59.4336 20.5865 59.3359 20.4194 59.2099 20.2805C59.084 20.1391 58.9323 20.0234 58.7523 19.936C58.5723 19.8486 58.3718 19.8049 58.1507 19.8049C57.9219 19.8049 57.7136 19.8435 57.5285 19.9232C57.3408 20.0054 57.1814 20.116 57.0477 20.2574C56.914 20.3988 56.8061 20.5633 56.7264 20.7536C56.6467 20.9464 56.603 21.1521 56.5952 21.3732H59.6393Z" fill="#FF8300"/>
<path d="M65.7326 20.9156C65.6786 20.5479 65.5321 20.2728 65.2904 20.0851C65.0513 19.8975 64.7454 19.8049 64.3803 19.8049C64.2132 19.8049 64.0332 19.8332 63.8429 19.8897C63.6501 19.9463 63.4753 20.0543 63.3159 20.2111C63.1539 20.3679 63.0202 20.5839 62.9148 20.8641C62.8068 21.1418 62.7528 21.5069 62.7528 21.9568C62.7528 22.2011 62.7811 22.4479 62.8403 22.6896C62.8968 22.9338 62.9894 23.1523 63.1154 23.3426C63.2413 23.5354 63.4033 23.6897 63.6013 23.8079C63.7992 23.9262 64.0409 23.9853 64.3237 23.9853C64.7042 23.9853 65.0205 23.8671 65.2673 23.6305C65.5167 23.394 65.6709 23.0623 65.7326 22.633H67.0387C66.9153 23.4043 66.6248 23.9956 66.162 24.4044C65.6992 24.8132 65.0873 25.0163 64.3237 25.0163C63.8558 25.0163 63.447 24.9366 63.0922 24.7823C62.7374 24.6255 62.4366 24.4121 62.1924 24.1396C61.9481 23.8696 61.763 23.5457 61.637 23.1729C61.5111 22.7975 61.4468 22.3939 61.4468 21.9568C61.4468 21.5146 61.5085 21.0981 61.6319 20.7099C61.7527 20.3191 61.9353 19.9823 62.1821 19.6943C62.4263 19.409 62.7297 19.1827 63.0922 19.0182C63.4547 18.8536 63.8789 18.7739 64.3674 18.7739C64.7119 18.7739 65.0385 18.8176 65.3495 18.905C65.6581 18.9925 65.9332 19.1236 66.1723 19.301C66.4139 19.4758 66.6093 19.6969 66.7636 19.9643C66.9153 20.2317 67.0078 20.5479 67.0387 20.9156H65.7326Z" fill="#FF8300"/>
<path d="M72.5869 19.9077H70.6278V24.8569H69.3218V19.9077H67.283V18.9333H72.5869V19.9077Z" fill="#FF8300"/>
<path d="M75.7132 25.0163C75.2401 25.0163 74.8185 24.9366 74.4483 24.7823C74.0755 24.6255 73.7644 24.4095 73.5073 24.1344C73.2528 23.8594 73.0574 23.5303 72.9237 23.1498C72.79 22.7667 72.7231 22.3476 72.7231 21.89C72.7231 21.4375 72.79 21.021 72.9237 20.6405C73.0574 20.2574 73.2528 19.9309 73.5073 19.6558C73.7644 19.3807 74.0755 19.1647 74.4483 19.0079C74.8185 18.8511 75.2401 18.7739 75.7132 18.7739C76.1863 18.7739 76.6079 18.8511 76.9781 19.0079C77.3484 19.1647 77.662 19.3807 77.9191 19.6558C78.1737 19.9309 78.3691 20.2574 78.5027 20.6405C78.6364 21.021 78.7033 21.4375 78.7033 21.89C78.7033 22.3476 78.6364 22.7667 78.5027 23.1498C78.3691 23.5303 78.1737 23.8594 77.9191 24.1344C77.662 24.4095 77.3484 24.6255 76.9781 24.7823C76.6079 24.9366 76.1863 25.0163 75.7132 25.0163ZM75.7132 23.9853C76.0037 23.9853 76.2557 23.9236 76.4691 23.8028C76.6825 23.6794 76.8599 23.52 76.9961 23.3194C77.135 23.1215 77.2352 22.8978 77.2995 22.651C77.3638 22.4016 77.3972 22.1496 77.3972 21.89C77.3972 21.6354 77.3638 21.3835 77.2995 21.1341C77.2352 20.8796 77.135 20.6559 76.9961 20.4631C76.8599 20.2677 76.6825 20.1083 76.4691 19.9874C76.2557 19.864 76.0037 19.8049 75.7132 19.8049C75.4227 19.8049 75.1707 19.864 74.9573 19.9874C74.7439 20.1083 74.5666 20.2677 74.4303 20.4631C74.2915 20.6559 74.1912 20.8796 74.1269 21.1341C74.0626 21.3835 74.0292 21.6354 74.0292 21.89C74.0292 22.1496 74.0626 22.4016 74.1269 22.651C74.1912 22.8978 74.2915 23.1215 74.4303 23.3194C74.5666 23.52 74.7439 23.6794 74.9573 23.8028C75.1707 23.9236 75.4227 23.9853 75.7132 23.9853Z" fill="#FF8300"/>
<path d="M79.49 18.9333H80.7266V19.7355H80.7498C80.9323 19.391 81.1868 19.1441 81.5159 18.995C81.845 18.8485 82.1998 18.7739 82.5829 18.7739C83.0482 18.7739 83.4545 18.8562 83.8016 19.0182C84.1486 19.1827 84.4366 19.409 84.668 19.6943C84.8968 19.9823 85.0691 20.3165 85.1822 20.697C85.2979 21.0801 85.3544 21.4889 85.3544 21.9234C85.3544 22.3193 85.303 22.705 85.2002 23.0803C85.0973 23.4557 84.9405 23.7848 84.7297 24.0702C84.5189 24.3581 84.254 24.5869 83.9327 24.7592C83.6139 24.9315 83.2359 25.0163 82.7989 25.0163C82.6086 25.0163 82.4184 24.9983 82.2255 24.9649C82.0353 24.9315 81.8527 24.8749 81.6779 24.7978C81.5005 24.7232 81.3385 24.6255 81.1894 24.5072C81.0403 24.389 80.9169 24.2501 80.8166 24.0882H80.7935V27.0448H79.49V18.9333ZM84.0484 21.9003C84.0484 21.6329 84.0149 21.3732 83.9455 21.1212C83.8761 20.8693 83.7733 20.6456 83.637 20.4502C83.4982 20.2574 83.3259 20.1006 83.1202 19.9823C82.9146 19.864 82.678 19.8049 82.4106 19.8049C81.8605 19.8049 81.4465 19.9951 81.1663 20.3757C80.8886 20.7587 80.7498 21.2678 80.7498 21.9003C80.7498 22.1985 80.7858 22.4762 80.8578 22.7307C80.9298 22.9878 81.0377 23.2063 81.1843 23.3889C81.3283 23.574 81.5031 23.7179 81.7062 23.8259C81.9067 23.9313 82.1433 23.9853 82.4106 23.9853C82.7089 23.9853 82.9608 23.9236 83.1665 23.8028C83.3722 23.6794 83.5419 23.52 83.6756 23.3272C83.8093 23.1318 83.9044 22.9107 83.9635 22.6613C84.0201 22.4145 84.0484 22.1599 84.0484 21.9003Z" fill="#FF8300"/>
<path d="M91.7665 24.8569H90.5299V24.0547H90.5068C90.3319 24.3967 90.0748 24.6435 89.738 24.7926C89.4038 24.9417 89.049 25.0163 88.6736 25.0163C88.2083 25.0163 87.8021 24.934 87.455 24.7695C87.1053 24.6049 86.8174 24.3813 86.5886 24.0985C86.3597 23.8182 86.1875 23.484 86.0744 23.0983C85.9587 22.7127 85.9021 22.2988 85.9021 21.854C85.9021 21.3192 85.9741 20.8564 86.1181 20.4682C86.2646 20.0774 86.4574 19.7586 86.6965 19.5067C86.9382 19.2547 87.2133 19.0696 87.5218 18.9513C87.8329 18.8331 88.1466 18.7739 88.468 18.7739C88.6505 18.7739 88.8382 18.7894 89.0284 18.8253C89.2187 18.8588 89.4038 18.9153 89.5786 18.9899C89.7535 19.067 89.918 19.1647 90.0671 19.283C90.2137 19.4012 90.3396 19.5401 90.4373 19.7021H90.4605V18.9333H91.7665V24.8569ZM87.2082 21.9568C87.2082 22.2088 87.239 22.4582 87.3059 22.7024C87.3701 22.9467 87.4678 23.1652 87.6041 23.3554C87.7352 23.5457 87.9075 23.6999 88.1132 23.8131C88.3188 23.9288 88.5631 23.9853 88.8459 23.9853C89.1364 23.9853 89.3858 23.9236 89.5966 23.8028C89.8049 23.6794 89.9771 23.52 90.1108 23.322C90.2445 23.1215 90.3448 22.8978 90.4091 22.651C90.4733 22.4016 90.5068 22.1496 90.5068 21.89C90.5068 21.2318 90.3602 20.7202 90.0671 20.3525C89.7715 19.9874 89.373 19.8049 88.869 19.8049C88.5631 19.8049 88.306 19.8666 88.0952 19.9926C87.8843 20.1186 87.7121 20.2831 87.581 20.4862C87.4473 20.6893 87.3496 20.9156 87.293 21.1727C87.2364 21.4298 87.2082 21.6894 87.2082 21.9568Z" fill="#FF8300"/>
<path d="M92.8796 18.9333H94.1857V21.3834H97.1295V18.9333H98.4356V24.8543H97.1295V22.3579H94.1857V24.8543H92.8796V18.9333Z" fill="#FF8300"/>
<path d="M104.272 19.9077H102.313V24.8569H101.007V19.9077H98.9678V18.9333H104.272V19.9077Z" fill="#FF8300"/>
<path d="M108.694 20.9156C108.64 20.5479 108.493 20.2728 108.252 20.0851C108.012 19.8975 107.709 19.8049 107.341 19.8049C107.174 19.8049 106.994 19.8332 106.804 19.8897C106.611 19.9463 106.436 20.0543 106.277 20.2111C106.115 20.3679 105.981 20.5839 105.876 20.8641C105.768 21.1418 105.714 21.5069 105.714 21.9568C105.714 22.2011 105.745 22.4479 105.801 22.6896C105.858 22.9338 105.951 23.1523 106.077 23.3426C106.203 23.5354 106.364 23.6897 106.562 23.8079C106.76 23.9262 107.002 23.9853 107.285 23.9853C107.665 23.9853 107.982 23.8671 108.228 23.6305C108.478 23.394 108.632 23.0623 108.694 22.633H110C109.876 23.4043 109.586 23.9956 109.123 24.4044C108.66 24.8132 108.048 25.0163 107.285 25.0163C106.82 25.0163 106.408 24.9366 106.053 24.7823C105.699 24.6255 105.398 24.4121 105.154 24.1396C104.909 23.8696 104.724 23.5457 104.598 23.1729C104.472 22.7975 104.408 22.3939 104.408 21.9568C104.408 21.5146 104.47 21.0981 104.593 20.7099C104.714 20.3191 104.896 19.9823 105.143 19.6943C105.388 19.409 105.691 19.1827 106.053 19.0182C106.416 18.8536 106.84 18.7739 107.331 18.7739C107.673 18.7739 108 18.8176 108.311 18.905C108.619 18.9925 108.894 19.1236 109.133 19.301C109.375 19.4758 109.571 19.6969 109.725 19.9643C109.876 20.2317 109.969 20.5479 110 20.9156H108.694Z" fill="#FF8300"/>
</g>
<defs>
<clipPath id="clip0_826_29413">
<rect width="110" height="35.9615" fill="white"/>
</clipPath>
</defs>
</svg>
