<svg width="110" height="37" viewBox="0 0 110 37" fill="none" xmlns="http://www.w3.org/2000/svg">
<g clip-path="url(#clip0_850_1572)">
<path d="M0.00188562 18.2564C0.00188562 15.8059 -0.00348398 13.356 0.00389922 10.9055C0.00781456 9.56169 0.589856 8.52563 1.74219 7.84838C4.06365 6.485 6.39719 5.14353 8.72538 3.79194C10.5256 2.74658 12.3284 1.70472 14.1237 0.650477C14.8106 0.247068 15.5213 -0.0298187 16.3345 0.00257093C17.0759 0.0320365 17.7116 0.33479 18.3365 0.698496C21.4086 2.48589 24.4847 4.26586 27.5586 6.04921C28.6141 6.66122 29.6802 7.25574 30.718 7.89585C31.7851 8.55409 32.3758 9.54753 32.3813 10.8025C32.4033 15.7681 32.4057 20.7339 32.3799 25.6995C32.3731 26.9903 31.7603 28.003 30.6396 28.6601C28.5414 29.8898 26.4345 31.1032 24.3311 32.3235C22.2134 33.5517 20.0998 34.7867 17.9773 36.006C16.7849 36.6912 15.5759 36.6847 14.3854 35.9957C10.2184 33.5844 6.05678 31.163 1.88784 28.7547C0.848494 28.1543 0.203134 27.2938 0.0251539 26.0945C0.00367549 25.9498 0.00222122 25.8014 0.00222122 25.655C0.00132629 23.1895 0.00177375 20.7229 0.00177375 18.2564H0.00188562ZM2.25644 22.8583C2.29839 22.8722 2.31394 22.8833 2.32703 22.8808C4.39354 22.5206 6.48144 22.3643 8.56975 22.2171C9.75969 22.1333 10.9512 22.0735 12.143 22.0261C13.6923 21.9638 15.2419 21.9153 16.7916 21.879C17.79 21.8554 18.7878 21.901 19.7851 21.9534C21.2471 22.0303 22.6979 22.1941 24.1286 22.5028C26.8713 23.0944 29.4626 24.0137 31.5091 26.0671C31.6052 26.1637 31.6739 26.1789 31.6906 26.0123C31.7038 25.8824 31.7311 25.753 31.7311 25.6231C31.7335 22.6419 31.7321 19.6607 31.7364 16.6797C31.7364 16.517 31.6789 16.4401 31.5249 16.4131C31.2851 16.3714 31.0462 16.3225 30.8073 16.2759C28.8266 15.8917 26.8265 15.6771 24.8118 15.6226C22.7386 15.5667 20.6745 15.6951 18.6218 16.0025C16.4149 16.3323 14.2575 16.8607 12.1496 17.5928C9.311 18.5788 6.63031 19.8907 4.11343 21.5405C3.48318 21.9531 2.86701 22.3869 2.25667 22.8583H2.25644ZM3.99138 29.1878C4.05873 29.23 4.12439 29.2741 4.19319 29.3137C7.70981 31.354 11.2257 33.3956 14.7443 35.4325C15.6863 35.9779 16.6503 35.9966 17.5956 35.4545C19.4646 34.3827 21.3223 33.2902 23.1864 32.2092C25.5566 30.8346 27.9287 29.4623 30.3003 28.0895C30.7024 27.8568 31.0246 27.5426 31.2826 27.156C31.3728 27.0207 31.3849 26.9101 31.2631 26.7894C31.0374 26.5659 30.8302 26.3228 30.5934 26.1136C29.1455 24.8364 27.4262 24.0894 25.6026 23.549C25.468 23.5094 25.3729 23.5466 25.2672 23.6231C23.2368 25.0869 21.0456 26.2503 18.7168 27.1565C15.2986 28.4867 11.7503 29.1605 8.09419 29.2805C6.73069 29.325 5.36779 29.2834 3.99161 29.1878H3.99138ZM24.5673 14.9572C24.4373 14.7754 24.3509 14.6475 24.2568 14.5255C23.7542 13.8742 23.2569 13.2179 22.7437 12.5755C21.7415 11.3213 20.6934 10.1069 19.5624 8.96698C19.4557 8.85913 19.3561 8.81651 19.1993 8.84396C18.1439 9.02918 17.0931 9.23802 16.0518 9.4908C13.8445 10.027 11.6854 10.6998 9.66044 11.759C9.40888 11.8904 9.2715 12.0569 9.18963 12.3295C8.59869 14.2938 8.12888 16.283 7.90613 18.3267C7.89688 18.4119 7.83213 18.5162 7.91688 18.577C7.9875 18.6275 8.07006 18.55 8.14063 18.5168C11.047 17.1324 14.0821 16.1459 17.2439 15.5567C19.1298 15.2052 21.0326 15.0035 22.9503 14.9593C23.4679 14.9467 23.9861 14.9571 24.5677 14.9571L24.5673 14.9572ZM28.5272 7.39822C28.4652 7.36045 28.3789 7.30555 28.2907 7.25417C25.6813 5.7397 23.0713 4.22638 20.4623 2.71194C19.5483 2.18122 18.6323 1.65332 17.7218 1.11619C16.8585 0.606953 15.9678 0.507985 15.0421 0.917241C14.8296 1.01137 14.6102 1.10348 14.4653 1.30929C14.0803 1.8553 13.6756 2.38793 13.3314 2.96195C11.8408 5.44662 10.6659 8.07938 9.69681 10.8087C9.67781 10.8626 9.62563 10.9205 9.6535 10.9572C15.6881 8.31164 22.0334 7.44173 28.5271 7.39822H28.5272ZM13.1064 2.03075C12.9561 2.11352 12.8636 2.163 12.7724 2.21598C11.4991 2.95408 10.2268 3.69308 8.95344 4.43163C6.66075 5.76175 4.36681 7.08985 2.07601 8.42332C1.37359 8.83212 0.925119 9.43924 0.731031 10.2347C0.661788 10.5194 0.667156 10.7871 0.787075 11.0674C1.04985 11.6824 1.30916 12.2985 1.63144 12.8861C2.83893 15.0876 4.28481 17.1268 5.82723 19.0993C6.16014 19.5252 6.16461 19.5213 6.65156 19.265C6.71644 19.2307 6.77844 19.1885 6.84656 19.165C7.11706 19.0719 7.19569 18.8684 7.21513 18.6009C7.27713 17.7374 7.41406 16.8833 7.58131 16.0354C8.43744 11.6903 10.0148 7.61279 12.1188 3.73278C12.4214 3.17518 12.7543 2.63513 13.1064 2.03086V2.03075ZM31.7334 13.1929C31.7334 12.4583 31.7349 11.7237 31.7329 10.9885C31.7315 10.3695 31.5862 9.78973 31.2284 9.27907C30.9448 8.87418 30.6191 8.48509 30.1204 8.37138C29.1362 8.14687 28.1295 8.07579 27.1228 8.07774C26.1986 8.07919 25.2748 8.13359 24.3524 8.20605C23.0581 8.30748 21.7688 8.44624 20.4863 8.64557C20.4194 8.6559 20.3165 8.62202 20.2962 8.7108C20.2786 8.78622 20.3692 8.82985 20.4181 8.88186C21.4218 9.93945 22.3778 11.0387 23.2844 12.1812C23.9528 13.0231 24.6241 13.8636 25.2427 14.7439C25.3718 14.9278 25.5284 15.0047 25.7546 15.0052C26.1271 15.0066 26.5009 15.0307 26.8724 15.0635C28.4249 15.2003 29.9678 15.4106 31.4932 15.7339C31.7073 15.7795 31.7379 15.7065 31.7359 15.5183C31.7289 14.744 31.7333 13.9687 31.7333 13.1929H31.7334ZM14.4786 27.7704C14.2631 27.6517 14.0992 27.5645 13.9383 27.4728C11.9001 26.3113 10.137 24.7999 8.4995 23.1326C8.3235 22.9532 8.15038 22.9002 7.917 22.9233C7.22288 22.991 6.52763 23.0484 5.83248 23.109C4.61179 23.2158 3.39603 23.3624 2.18999 23.5838C1.74197 23.6662 1.31006 23.8162 0.865494 23.9014C0.687519 23.9352 0.656306 23.9852 0.657756 24.1387C0.663131 24.6534 0.652388 25.1674 0.661225 25.682C0.675769 26.5397 1.01753 27.2504 1.66836 27.7987C1.94031 28.0282 2.23139 28.2717 2.58969 28.3251C3.85077 28.5132 5.12314 28.5878 6.39638 28.6212C7.98075 28.6625 9.56019 28.5721 11.1328 28.3771C12.2366 28.2394 13.3324 28.054 14.4784 27.7703L14.4786 27.7704ZM24.5659 23.293C24.466 23.2611 24.4148 23.24 24.3616 23.2282C22.5969 22.8401 20.8093 22.6302 19.0061 22.5803C17.0504 22.5259 15.0947 22.5724 13.1398 22.6661C11.9079 22.7253 10.6761 22.7719 9.44375 22.8249C9.37263 22.8278 9.27606 22.816 9.25069 22.8926C9.22381 22.9715 9.31744 23.0152 9.36769 23.0622C9.80644 23.4748 10.2388 23.8944 10.6908 24.2919C12.0639 25.5014 13.5323 26.5718 15.1854 27.3706C15.4063 27.4775 15.6008 27.4936 15.8353 27.426C18.219 26.7383 20.4891 25.7827 22.6369 24.5349C23.2824 24.1604 23.9186 23.7684 24.566 23.293H24.5659ZM0.665813 12.5681C0.664363 12.6005 0.660894 12.6328 0.660894 12.6651C0.660444 16.1168 0.660444 19.5688 0.6619 23.0206C0.6619 23.0902 0.625763 23.1867 0.697025 23.2245C0.774994 23.2658 0.820413 23.1691 0.87355 23.1254C0.987094 23.0327 1.09236 22.9304 1.20602 22.8382C2.5096 21.7806 3.88958 20.8352 5.34184 19.9961C5.49778 19.9059 5.58168 19.8436 5.42864 19.6535C4.11399 18.0232 2.90549 16.3157 1.80954 14.5283C1.41398 13.8845 1.04202 13.2272 0.665813 12.5681Z" fill="black"/>
<path d="M49.8953 27.132C48.2693 27.132 46.9456 26.5954 45.9274 25.5221C44.9092 24.4489 44.397 23.0127 44.397 21.2136V20.8352C44.397 19.6379 44.6253 18.5709 45.0788 17.631C45.5324 16.691 46.168 15.9559 46.9857 15.4255C47.8003 14.8951 48.6858 14.6283 49.6392 14.6283C51.1974 14.6283 52.41 15.1463 53.274 16.1762C54.1379 17.2091 54.5698 18.6887 54.5698 20.6119V21.4711H46.4457C46.4766 22.6591 46.8222 23.6206 47.4825 24.3527C48.1428 25.0848 48.9851 25.4508 50.0033 25.4508C50.7285 25.4508 51.3393 25.3019 51.8423 25.0042C52.3453 24.7063 52.7834 24.3124 53.1629 23.8223L54.4157 24.8025C53.4128 26.3565 51.9071 27.132 49.8953 27.132ZM49.6423 16.322C48.8154 16.322 48.1212 16.626 47.5596 17.2308C46.998 17.8356 46.6494 18.6856 46.5167 19.7774H52.5242V19.6224C52.4656 18.5739 52.1848 17.7643 51.6818 17.1873C51.179 16.6104 50.5001 16.322 49.6423 16.322Z" fill="black"/>
<path d="M69.7875 26.9073H67.6494V19.407H59.5125V26.9073H57.3838V10.6814H59.5125V17.6575H67.6494V10.6814H69.7875V26.9073Z" fill="black"/>
<path d="M80.7618 26.9084C80.6443 26.6695 80.5493 26.2477 80.4749 25.6366C79.5212 26.6323 78.3824 27.1317 77.0593 27.1317C75.8768 27.1317 74.9049 26.7967 74.1493 26.1236C73.3905 25.4505 73.0137 24.5975 73.0137 23.5645C73.0137 22.3083 73.4893 21.3343 74.4393 20.6395C75.3899 19.9447 76.7255 19.5973 78.4474 19.5973H80.4437V18.6511C80.4437 17.9315 80.2274 17.3577 79.8024 16.9296C79.373 16.5016 78.7412 16.2875 77.9074 16.2875C77.1762 16.2875 76.5624 16.4737 76.0687 16.8459C75.5718 17.218 75.3249 17.6679 75.3249 18.1952H73.2643C73.2643 17.5935 73.4768 17.0134 73.903 16.4519C74.328 15.8905 74.9024 15.4469 75.633 15.1212C76.3618 14.7955 77.1612 14.6311 78.0343 14.6311C79.4168 14.6311 80.4993 14.9785 81.283 15.6733C82.0668 16.3682 82.4743 17.3236 82.5018 18.5426V24.0919C82.5018 25.1993 82.6437 26.0803 82.9249 26.7316V26.9084H80.7618ZM77.3587 25.3358C78.0005 25.3358 78.6112 25.1682 79.188 24.8332C79.7655 24.4983 80.1818 24.064 80.4412 23.5305V21.0552H78.833C76.318 21.0552 75.063 21.7934 75.063 23.273C75.063 23.9182 75.2787 24.4237 75.7049 24.7898C76.1368 25.1558 76.6862 25.3358 77.3587 25.3358Z" fill="black"/>
<path d="M95.6205 26.9063H93.5686V21.7572H88.0617V26.9063H86.0005V14.8492H88.0617V20.0759H93.5686V14.8492H95.6205V26.9063Z" fill="black"/>
<path d="M98.4812 20.7642C98.4812 19.5824 98.7131 18.5215 99.1731 17.5755C99.6356 16.6325 100.277 15.9035 101.101 15.3917C101.925 14.8799 102.866 14.6224 103.921 14.6224C105.557 14.6224 106.877 15.1901 107.883 16.3285C108.892 17.4638 109.396 18.9775 109.396 20.8635V21.0092C109.396 22.1817 109.172 23.2364 108.726 24.167C108.277 25.1007 107.639 25.8265 106.806 26.3445C105.973 26.8656 105.019 27.1262 103.94 27.1262C102.314 27.1262 100.996 26.5585 99.9875 25.4201C98.9781 24.2849 98.4756 22.7774 98.4756 20.9069V20.7642H98.4812ZM100.542 21.0092C100.542 22.3462 100.851 23.4194 101.469 24.229C102.086 25.0386 102.912 25.445 103.946 25.445C104.989 25.445 105.816 25.0355 106.43 24.2135C107.044 23.3915 107.349 22.2438 107.349 20.7642C107.349 19.4428 107.037 18.3695 106.411 17.5475C105.785 16.7255 104.958 16.3161 103.921 16.3161C102.909 16.3161 102.091 16.7224 101.471 17.532C100.854 18.3447 100.542 19.5017 100.542 21.0092Z" fill="black"/>
</g>
<defs>
<clipPath id="clip0_850_1572">
<rect width="110" height="36.5164" fill="white"/>
</clipPath>
</defs>
</svg>
