<svg width="110" height="37" viewBox="0 0 110 37" fill="none" xmlns="http://www.w3.org/2000/svg">
<g clip-path="url(#clip0_826_29296)">
<mask id="mask0_826_29296" style="mask-type:luminance" maskUnits="userSpaceOnUse" x="0" y="0" width="111" height="37">
<path d="M0 0H110.004V36.2637H0V0Z" fill="white"/>
</mask>
<g mask="url(#mask0_826_29296)">
<path d="M0 23.0153C0.959015 25.2663 2.55868 27.1858 4.60001 28.5348C6.64135 29.8839 9.03426 30.6031 11.4811 30.6028C10.5225 28.3515 8.9229 26.4318 6.88148 25.0827C4.84006 23.7335 2.44695 23.0146 0 23.0153ZM11.4835 30.6065C13.2807 30.6069 15.0401 30.0897 16.5511 29.1167C18.0622 28.1437 19.261 26.7561 20.0043 25.1198C18.207 25.1197 16.4477 25.6372 14.9367 26.6104C13.4257 27.5836 12.2269 28.9701 11.4835 30.6065Z" fill="#12B36A"/>
<path fill-rule="evenodd" clip-rule="evenodd" d="M11.4801 24.3668C12.724 24.3912 13.9603 24.1673 15.1166 23.7081C16.2729 23.2489 17.3261 22.5637 18.2144 21.6926C19.1027 20.8215 19.8083 19.782 20.29 18.6349C20.7717 17.4878 21.0198 16.2561 21.0197 15.0119C21.0196 13.7678 20.7714 12.5361 20.2896 11.3891C19.8077 10.242 19.1019 9.20258 18.2135 8.33159C17.3251 7.4606 16.2719 6.77555 15.1155 6.31653C13.9591 5.85752 12.7228 5.63375 11.4789 5.65832C9.02987 5.7067 6.69751 6.71357 4.98271 8.46269C3.26792 10.2118 2.30746 12.5637 2.30762 15.0131C2.30778 17.4626 3.26854 19.8144 4.98356 21.5632C6.69858 23.3121 9.03107 24.3187 11.4801 24.3668ZM11.4801 19.69C12.0944 19.69 12.7027 19.569 13.2703 19.3339C13.8378 19.0988 14.3535 18.7542 14.7879 18.3198C15.2223 17.8854 15.5669 17.3697 15.802 16.8021C16.0371 16.2346 16.1581 15.6263 16.1581 15.0119C16.1581 14.3976 16.0371 13.7893 15.802 13.2217C15.5669 12.6542 15.2223 12.1385 14.7879 11.7041C14.3535 11.2697 13.8378 10.9251 13.2703 10.69C12.7027 10.4549 12.0944 10.3339 11.4801 10.3339C10.2394 10.3339 9.04952 10.8268 8.17222 11.7041C7.29492 12.5814 6.80206 13.7713 6.80206 15.0119C6.80206 16.2526 7.29492 17.4425 8.17222 18.3198C9.04952 19.1971 10.2394 19.69 11.4801 19.69Z" fill="#FEBE10"/>
<path d="M11.4798 19.6911C12.7205 19.6911 13.9103 19.1983 14.7876 18.321C15.6649 17.4437 16.1578 16.2538 16.1578 15.0131C16.1578 13.7724 15.6649 12.5825 14.7876 11.7052C13.9103 10.8279 12.7205 10.3351 11.4798 10.3351C10.2391 10.3351 9.04922 10.8279 8.17192 11.7052C7.29462 12.5825 6.80176 13.7724 6.80176 15.0131C6.80176 16.2538 7.29462 17.4437 8.17192 18.321C9.04922 19.1983 10.2391 19.6911 11.4798 19.6911ZM71.674 15.0143H75.588V30.1834H71.674V24.2761H64.8419V30.1834H60.929V15.0143H64.8419V20.605H71.674V15.0143ZM77.4302 18.7773H82.3017V30.1822H86.2157V18.7773H91.0291V15.0131H77.4302V18.7761V18.7773ZM110.004 26.8834V30.1073C109.336 30.4409 108.502 30.6077 107.529 30.6077C105.497 30.6077 104.473 29.7229 104.064 28.2989L103.998 28.3944C102.814 29.88 101.177 30.6077 99.0543 30.6077C97.0199 30.6077 95.2901 29.8498 93.8347 28.3026C92.4084 26.7553 91.6819 24.8442 91.6819 22.5983C91.6819 20.356 92.4096 18.4739 93.8347 16.9266C95.2901 15.3806 97.0199 14.59 99.0531 14.59C101.083 14.59 102.667 15.2585 103.837 16.6172V15.0155H107.752V25.7448C107.752 26.6622 108.169 27.1337 109.003 27.1337C109.393 27.1337 109.725 27.049 110.004 26.8834ZM103.998 22.5983C103.998 21.3556 103.604 20.3245 102.785 19.5352C101.996 18.7168 100.996 18.3216 99.7808 18.3216C98.5671 18.3216 97.5675 18.7156 96.7781 19.5352C95.9888 20.3245 95.5947 21.3556 95.5947 22.5983C95.5947 23.8433 95.9888 24.8744 96.7781 25.6928C97.5675 26.4821 98.5671 26.8762 99.7808 26.8762C100.994 26.8762 101.996 26.4821 102.785 25.6928C103.604 24.8744 103.998 23.8433 103.998 22.5983ZM28.6906 15.0143L28.5733 20.7138C28.5467 23.0213 28.4621 24.1612 28.1285 25.4655C27.8226 26.7166 27.2388 27.0708 26.3237 27.0708C26.0167 27.0708 25.7399 27.0418 25.5163 26.9584V30.1822C25.8221 30.349 26.3237 30.4312 26.991 30.4312C29.741 30.349 31.0755 29.0508 31.7427 26.7166C32.2142 25.0485 32.2988 23.7696 32.3834 21.8524L32.4704 18.7761H37.3298V30.181H41.2426V15.0143H28.6906ZM47.5368 23.6221C47.9587 26.2113 50.0112 27.0587 52.094 27.0587C53.472 27.0587 54.9189 26.5196 55.8086 25.7133L58.2225 28.1406C56.7804 29.7362 54.7738 30.6077 52.0323 30.6077C48.1932 30.6077 43.5611 28.3412 43.5611 22.5983C43.5611 16.8565 48.0215 14.59 51.8087 14.59C56.6003 14.59 58.5828 16.8408 58.5828 19.3648C58.5828 23.4904 53.3402 25.3966 47.5368 23.6221ZM54.3339 19.812C54.3339 18.6346 53.171 18.1088 51.8667 18.1088C49.8746 18.1088 48.1485 18.9501 47.6238 21.1151C51.683 22.2876 54.3339 21.4124 54.3339 19.812Z" fill="#003C96"/>
</g>
</g>
<defs>
<clipPath id="clip0_826_29296">
<rect width="110" height="36.2637" fill="white"/>
</clipPath>
</defs>
</svg>
