<svg width="110" height="65" viewBox="0 0 110 65" fill="none" xmlns="http://www.w3.org/2000/svg">
<g clip-path="url(#clip0_826_29571)">
<mask id="mask0_826_29571" style="mask-type:luminance" maskUnits="userSpaceOnUse" x="0" y="0" width="110" height="65">
<path d="M0.0432129 0H109.435V64.6628H0.0432129V0Z" fill="white"/>
</mask>
<g mask="url(#mask0_826_29571)">
<path fill-rule="evenodd" clip-rule="evenodd" d="M0.0432129 64.6628H109.435V0H0.0432129V64.6628Z" fill="#000002"/>
</g>
<path fill-rule="evenodd" clip-rule="evenodd" d="M107.708 1.72626H1.72705V62.9797H107.708V1.72626Z" fill="#F94F0D" stroke="#F94F0D" stroke-width="1.43791"/>
<path fill-rule="evenodd" clip-rule="evenodd" d="M4.89185 59.8148H104.543V4.89178H4.89185V59.8148Z" fill="#FFFFFE"/>
<path fill-rule="evenodd" clip-rule="evenodd" d="M39.6279 38.5617H40.0241V13.6602H39.6279V38.5617Z" fill="#000002"/>
<path fill-rule="evenodd" clip-rule="evenodd" d="M68.6257 38.5828H69.0219V13.6602H68.6257V38.5828Z" fill="#000002"/>
<path fill-rule="evenodd" clip-rule="evenodd" d="M78.5408 19.2682H76.6414V18.5997H81.7291L85.963 30.3823L90.1205 18.5997H95.1481V19.2682H93.2473V34.1479H95.1481V34.8171H88.3979V34.1479H90.4176V20.1183H90.3766L85.4084 34.1479H84.3013L79.2347 20.3822H79.1958V32.3049C79.1958 33.7644 79.3939 34.1479 80.54 34.1479H81.391V34.8171H76.6414V34.1479H77.196C78.3434 34.1479 78.5408 33.7644 78.5408 32.3049V19.2682Z" fill="#000002"/>
<path fill-rule="evenodd" clip-rule="evenodd" d="M31.1581 19.2682V18.5997H24.4073V19.2682H26.3668V34.1479H18.4508V19.2682H20.4103V18.5997H13.6602V19.2682H15.6197V34.1479H13.6602V34.8171H29.4936C30.2654 34.8171 30.8801 35.6877 30.8801 36.3548C30.8801 36.3766 30.8801 36.3766 30.8801 36.3956H31.1581V34.1479H29.1787V19.2682H31.1581Z" fill="#000002"/>
<path fill-rule="evenodd" clip-rule="evenodd" d="M56.5318 18.5997V19.2886H58.3725L52.7124 30.7679L48.833 21.6574C48.4361 20.7658 48.2592 20.2999 48.2592 19.8755C48.2592 19.5096 48.5358 19.2886 49.2475 19.2886H50.0794V18.5997H45.3093V19.2886H46.2205C47.0524 19.2886 47.3085 19.8551 47.5858 20.5039L52.3354 31.5371L51.009 34.2499H49.2291V34.9185H55.9984V34.2499H54.157L61.5396 19.2886H63.3202V18.5997H56.5318Z" fill="#000002"/>
<path fill-rule="evenodd" clip-rule="evenodd" d="M16.8083 46.7105H15.4753V46.3251H18.5791V46.7105H17.2663V49.5374H16.8083V46.7105Z" fill="#000002"/>
<path fill-rule="evenodd" clip-rule="evenodd" d="M24.7457 47.1821C24.704 46.7328 24.2676 46.6048 23.7672 46.6048C23.3085 46.6048 22.9332 46.8392 22.9332 47.1821C22.9332 47.3539 23.0382 47.5466 23.4336 47.6099L24.5789 47.8026C25.1016 47.8881 25.3295 48.1886 25.3295 48.5941C25.3295 49.2369 24.7673 49.6215 23.8506 49.6215C22.9548 49.6215 22.435 49.2793 22.3933 48.5733H22.8714C22.8714 49.0011 23.2668 49.2577 23.8722 49.2577C24.5171 49.2577 24.8708 49.0011 24.8708 48.638C24.8708 47.7602 22.4767 48.5524 22.4767 47.2245C22.4767 46.6048 22.9965 46.2396 23.8506 46.2396C24.497 46.2396 25.185 46.433 25.2267 47.1821H24.7457Z" fill="#000002"/>
<path fill-rule="evenodd" clip-rule="evenodd" d="M31.9962 46.3251H32.4549V48.2304C32.4549 49.1506 31.851 49.6215 30.9976 49.6215C30.142 49.6215 29.5381 49.1506 29.5381 48.2304V46.3251H29.9968V48.2742C29.9968 48.8731 30.3505 49.2578 30.9976 49.2578C31.6425 49.2578 31.9962 48.8731 31.9962 48.2742V46.3251Z" fill="#000002"/>
<path fill-rule="evenodd" clip-rule="evenodd" d="M37.3095 46.6472H37.2901V49.5374H36.8508V46.3251H37.5604L38.9358 49.1506L40.3097 46.3251H41.0402V49.5374H40.5815V46.6472L39.1853 49.5374H38.7057L37.3095 46.6472Z" fill="#000002"/>
<path fill-rule="evenodd" clip-rule="evenodd" d="M50.9572 46.6472H50.9349V49.5374H50.4985V46.3251H51.2067L52.5813 49.1506L53.9351 46.3251H54.6656V49.5374H54.2069V46.6472L52.8308 49.5374H52.3527L50.9572 46.6472Z" fill="#000002"/>
<path fill-rule="evenodd" clip-rule="evenodd" d="M60.6662 46.2396C61.9775 46.2396 62.437 47.1605 62.437 47.9305C62.437 48.7013 61.9775 49.6215 60.6662 49.6215C59.3534 49.6215 58.9148 48.7013 58.9148 47.9305C58.9148 47.1605 59.3534 46.2396 60.6662 46.2396ZM60.6662 49.2577C61.4362 49.2577 61.9581 48.7228 61.9581 47.9305C61.9581 47.139 61.4362 46.6048 60.6662 46.6048C59.9149 46.6048 59.3951 47.139 59.3951 47.9305C59.3951 48.7228 59.9149 49.2577 60.6662 49.2577Z" fill="#000002"/>
<path fill-rule="evenodd" clip-rule="evenodd" d="M68.8749 47.1821C68.8339 46.7328 68.3752 46.6048 67.8741 46.6048C67.4363 46.6048 67.0632 46.8392 67.0632 47.1821C67.0632 47.3539 67.166 47.5466 67.5413 47.6099L68.7081 47.8026C69.2085 47.8881 69.4371 48.1886 69.4371 48.5941C69.4371 49.2369 68.8951 49.6215 67.9583 49.6215C67.0826 49.6215 66.562 49.2793 66.4988 48.5733H66.979C66.9992 49.0011 67.3946 49.2577 67.9777 49.2577C68.6449 49.2577 68.9986 49.0011 68.9986 48.638C68.9986 47.7602 66.6037 48.5524 66.6037 47.2245C66.6037 46.6048 67.102 46.2396 67.9583 46.2396C68.6032 46.2396 69.2919 46.433 69.3537 47.1821H68.8749Z" fill="#000002"/>
<path fill-rule="evenodd" clip-rule="evenodd" d="M76.749 48.638C76.6461 49.3433 75.9991 49.6215 75.2284 49.6215C74.1248 49.6215 73.6042 48.8084 73.6042 47.9305C73.6042 47.1605 74.0421 46.2396 75.3535 46.2396C76.1041 46.2396 76.6663 46.6249 76.708 47.1605H76.2076C76.1256 46.7551 75.751 46.6048 75.3341 46.6048C74.6029 46.6048 74.0831 47.0326 74.0831 47.9305C74.0831 48.8292 74.6029 49.2577 75.3341 49.2577C75.751 49.2577 76.1659 49.0658 76.2493 48.638H76.749Z" fill="#000002"/>
<path fill-rule="evenodd" clip-rule="evenodd" d="M82.5833 46.2396C83.8968 46.2396 84.334 47.1605 84.334 47.9305C84.334 48.7013 83.8968 49.6215 82.5833 49.6215C81.2719 49.6215 80.814 48.7013 80.814 47.9305C80.814 47.1605 81.2719 46.2396 82.5833 46.2396ZM82.5833 49.2577C83.3325 49.2577 83.8551 48.7228 83.8551 47.9305C83.8551 47.139 83.3325 46.6048 82.5833 46.6048C81.8119 46.6048 81.2921 47.139 81.2921 47.9305C81.2921 48.7228 81.8119 49.2577 82.5833 49.2577Z" fill="#000002"/>
<path fill-rule="evenodd" clip-rule="evenodd" d="M93.042 46.3251H93.5223L92.4187 49.5374H91.7932L90.8535 46.7105H90.8341L89.8757 49.5374H89.2502L88.1675 46.3251H88.6463L89.563 49.1506H89.5853L90.5422 46.3251H91.1461L92.1052 49.1506L93.042 46.3251Z" fill="#000002"/>
<path fill-rule="evenodd" clip-rule="evenodd" d="M44.2798 49.6647H47.5913V46.2842H44.2798V49.6647Z" fill="#F94F0D"/>
</g>
<defs>
<clipPath id="clip0_826_29571">
<rect width="110" height="64.7059" fill="white"/>
</clipPath>
</defs>
</svg>
